<svg version="1.1" id="master" xmlns="http://www.w3.org/2000/svg" xmlns:xlink="http://www.w3.org/1999/xlink" x="0px" y="0px"
	 width="24px" height="24px" viewBox="0 0 24 24" enable-background="new 0 0 24 24" xml:space="preserve">
<rect fill="none" width="24" height="24"/>
<path d="M10.357,13.509H6.479v3.302H5.899v-3.302H2V9.125h3.899V7.173h0.581v1.952h3.877V13.509z M5.899,12.917V9.712H2.581v3.205
	H5.899z M9.766,12.917V9.712H6.479v3.205H9.766z M22,16.386l-0.398,0.517c-1.738-0.56-3.206-1.364-4.404-2.415
	c-1.193,1.032-2.665,1.826-4.415,2.382l-0.419-0.483c1.85-0.542,3.322-1.313,4.416-2.313c-1.04-1.083-1.851-2.392-2.431-3.926
	l0.526-0.242c0.553,1.513,1.33,2.784,2.334,3.813c1.058-1.193,1.808-2.606,2.248-4.237h-7.05V8.905h4.604
	c-0.283-0.574-0.606-1.103-0.969-1.586l0.576-0.221c0.444,0.656,0.781,1.258,1.011,1.807H22V9.48h-1.957
	c-0.488,1.857-1.286,3.396-2.394,4.614C18.743,15.077,20.193,15.841,22,16.386z"/>
</svg>
