<svg version="1.1" id="master" xmlns="http://www.w3.org/2000/svg" xmlns:xlink="http://www.w3.org/1999/xlink" x="0px" y="0px"
	 width="24px" height="24px" viewBox="0 0 24 24" enable-background="new 0 0 24 24" xml:space="preserve">
<rect fill="none" width="24" height="24"/>
<path d="M6.16,15.958H2V8.042h3.98V8.84H2.869v2.692h2.877v0.797H2.869v2.831H6.16V15.958z M14.029,15.958h-1.094L8.806,9.565
	C8.714,9.415,8.633,9.257,8.561,9.09H8.53c0.027,0.164,0.041,0.518,0.041,1.063v5.806H7.697V8.042h1.155l4.017,6.326
	c0.204,0.327,0.311,0.508,0.321,0.542h0.021c-0.037-0.263-0.057-0.659-0.057-1.19V8.042h0.875V15.958z M22,15.416
	c-0.79,0.449-1.669,0.675-2.637,0.675c-1.121,0-2.027-0.367-2.721-1.102s-1.04-1.695-1.04-2.885c0-1.22,0.386-2.224,1.157-3.012
	c0.771-0.789,1.748-1.184,2.931-1.184c0.872,0,1.593,0.142,2.161,0.425V9.32c-0.634-0.406-1.39-0.608-2.269-0.608
	c-0.896,0-1.631,0.308-2.205,0.922c-0.574,0.615-0.86,1.417-0.86,2.404c0,1.009,0.264,1.804,0.792,2.387
	c0.527,0.582,1.253,0.874,2.177,0.874c0.637,0,1.184-0.128,1.64-0.384v-2.264h-1.742v-0.797H22V15.416z"/>
</svg>
