<svg version="1.1" id="master" xmlns="http://www.w3.org/2000/svg" xmlns:xlink="http://www.w3.org/1999/xlink" x="0px" y="0px"
	 width="24px" height="24px" viewBox="0 0 24 24" enable-background="new 0 0 24 24" xml:space="preserve">
<rect fill="none" width="24" height="24"/>
<path d="M6.776,8.663h-2c0.404,0.454,0.697,0.834,0.879,1.142L5.13,9.998c-0.264-0.4-0.634-0.845-1.109-1.335h-0.45
	C3.181,9.138,2.815,9.53,2.472,9.837L2,9.494c0.865-0.772,1.501-1.565,1.908-2.38l0.531,0.209c-0.157,0.297-0.32,0.57-0.488,0.82
	h2.825V8.663z M3.238,16.849H2.681v-5.334h0.558V16.849z M4.997,11.129l-0.418,0.333c-0.565-0.54-1.022-0.931-1.373-1.174
	l0.461-0.354C4.217,10.337,4.661,10.736,4.997,11.129z M9.028,15.798H4.691v-4.031h4.337V15.798z M8.454,13.535v-1.265H5.238v1.265
	H8.454z M8.454,15.305v-1.266H5.238v1.266H8.454z M11.021,16.039c0,0.24-0.055,0.44-0.166,0.604
	c-0.111,0.162-0.374,0.244-0.788,0.244L9.135,16.87l-0.166-0.536c0.804,0.025,1.256,0.021,1.356-0.014
	c0.1-0.033,0.15-0.103,0.15-0.206v-5.302H5.554v-0.525h5.467V16.039z M11.606,8.663H9.29c0.39,0.55,0.642,0.945,0.756,1.185
	l-0.525,0.198c-0.2-0.368-0.508-0.829-0.922-1.383H7.993c-0.418,0.472-0.799,0.84-1.142,1.104L6.401,9.43
	c0.99-0.861,1.649-1.623,1.978-2.284l0.525,0.23C8.818,7.555,8.658,7.811,8.422,8.143h3.184V8.663z M22,13.59h-3.865v3.291h-0.578
	V13.59H13.67V9.221h3.887V7.275h0.578v1.946H22V13.59z M17.557,13V9.805h-3.309V13H17.557z M21.41,13V9.805h-3.275V13H21.41z"/>
</svg>
