<svg version="1.1" id="master" xmlns="http://www.w3.org/2000/svg" xmlns:xlink="http://www.w3.org/1999/xlink" x="0px" y="0px" width="24px" height="24px" viewBox="0 0 24 24" enable-background="new 0 0 24 24" xml:space="preserve" fill="#DD5044">
<rect fill="none" width="24" height="24"/>
<path d="M12,2C6.477,2,2,6.477,2,12c0,5.522,4.477,10,10,10c5.523,0,10-4.478,10-10C22,6.477,17.523,2,12,2z M12.705,15.297c-0.826,0.842-1.778,1.357-3.421,1.357c-2.521,0-4.566-2.08-4.566-4.646c0-2.566,2.044-4.646,4.566-4.646c1.261,0,2.358,0.373,3.215,1.196l0.002,0.002l-1.286,1.286c-0.521-0.479-1.18-0.698-1.936-0.698c-1.553,0-2.812,1.281-2.812,2.861c0,1.581,1.259,2.861,2.812,2.861c1.012,0,1.598-0.318,2.106-0.836c0.284-0.289,0.465-0.662,0.571-1.072H9.34v-1.643h2.338h0.339h1.781c0.022,0.193,0.035,0.387,0.035,0.583C13.833,13.186,13.531,14.456,12.705,15.297z M17.999,12.686v1.34h-1.31v-1.34h-1.34v-1.309h1.34v-1.34h1.31v1.34h1.34v1.309H17.999z"/>
</svg>
