<svg version="1.1" id="master" xmlns="http://www.w3.org/2000/svg" xmlns:xlink="http://www.w3.org/1999/xlink" x="0px" y="0px" width="24px" height="24px" viewBox="0 0 24 24" enable-background="new 0 0 24 24" xml:space="preserve">
<rect fill="none" width="24" height="24"/>
<path d="M19.143,7.714c0-1.585-1.272-2.857-2.856-2.857c-1.572-0.004-2.851,1.268-2.854,2.84c-0.003,1.021,0.541,1.965,1.426,2.475V10.6c-0.028,0.743-0.329,1.4-0.9,1.971c-0.57,0.571-1.229,0.871-1.971,0.899C10.8,13.5,9.871,13.699,9.129,14.115V7.314c1.362-0.785,1.831-2.526,1.045-3.889C9.666,2.542,8.721,1.997,7.7,2C6.114,2,4.857,3.271,4.857,4.857c0.006,1.015,0.55,1.95,1.429,2.458v9.37c-0.843,0.501-1.429,1.415-1.429,2.458C4.857,20.728,6.129,22,7.714,22s2.857-1.272,2.857-2.857c0-0.756-0.286-1.429-0.757-1.941c0.128-0.087,0.686-0.586,0.843-0.673c0.357-0.156,0.8-0.242,1.343-0.242c1.5-0.071,2.786-0.644,3.929-1.786s1.715-2.829,1.785-4.314h-0.027C18.557,9.671,19.143,8.757,19.143,7.714z M7.714,3.143c0.943,0,1.714,0.786,1.714,1.714c0,0.929-0.786,1.715-1.714,1.715C6.786,6.572,6,5.786,6,4.857C6,3.929,6.786,3.143,7.714,3.143z M7.714,20.871C6.771,20.871,6,20.086,6,19.157c0-0.93,0.786-1.714,1.715-1.714c0.928,0,1.714,0.784,1.714,1.714C9.429,20.086,8.643,20.871,7.714,20.871z M16.286,9.443c-0.943,0-1.715-0.786-1.715-1.715c0-0.928,0.785-1.714,1.715-1.714C17.215,6.014,18,6.8,18,7.728C18,8.657,17.215,9.443,16.286,9.443z"/>
</svg>
