<svg version="1.1" id="master" xmlns="http://www.w3.org/2000/svg" xmlns:xlink="http://www.w3.org/1999/xlink" x="0px" y="0px" width="24px" height="24px" viewBox="0 0 24 24" enable-background="new 0 0 24 24" xml:space="preserve">
<rect fill="none" width="24" height="24"/>
<path d="M17.514,10.571C16.872,8.114,14.656,6.286,12,6.286c-2.657,0-4.872,1.828-5.514,4.286H2v2.857h4.486c0.643,2.458,2.857,4.285,5.514,4.285c2.656,0,4.872-1.827,5.514-4.285H22v-2.857H17.514z M12,15.144c-1.743,0-3.143-1.399-3.143-3.144c0-1.743,1.4-3.143,3.143-3.143c1.744,0,3.144,1.4,3.144,3.143C15.144,13.744,13.744,15.144,12,15.144z"/>
</svg>
