<svg version="1.1" id="master" xmlns="http://www.w3.org/2000/svg" xmlns:xlink="http://www.w3.org/1999/xlink" x="0px" y="0px" width="24px" height="24px" viewBox="0 0 24 24" enable-background="new 0 0 24 24" xml:space="preserve">
<rect fill="none" width="24" height="24"/>
<path d="M16.286,2c-1.572-0.004-2.851,1.268-2.854,2.84c-0.003,1.021,0.541,1.965,1.426,2.475v1.829L12,12L9.143,9.143V7.314c1.362-0.785,1.831-2.526,1.046-3.889C9.679,2.542,8.735,1.997,7.714,2C6.142,1.996,4.864,3.268,4.86,4.84C4.857,5.86,5.401,6.805,6.286,7.314v2.542l4.286,4.286v2.542c-1.362,0.787-1.831,2.526-1.046,3.89C10.035,21.459,10.979,22.003,12,22c1.572,0.004,2.851-1.267,2.854-2.841c0.003-1.02-0.541-1.964-1.426-2.475v-2.542l4.285-4.286V7.314c1.362-0.785,1.831-2.526,1.047-3.889C18.25,2.542,17.307,1.997,16.286,2z M7.714,6.572C6.771,6.572,6,5.786,6,4.857c0-0.928,0.786-1.714,1.715-1.714c0.928,0,1.714,0.786,1.714,1.714C9.429,5.786,8.643,6.572,7.714,6.572z M12,20.857c-0.943,0-1.715-0.785-1.715-1.715c0-0.929,0.786-1.714,1.715-1.714s1.715,0.785,1.715,1.714C13.715,20.072,12.929,20.857,12,20.857z M16.286,6.572c-0.943,0-1.715-0.786-1.715-1.715c0-0.928,0.785-1.714,1.715-1.714C17.215,3.143,18,3.929,18,4.857C18,5.786,17.215,6.572,16.286,6.572z"/>
</svg>
