<svg version="1.1" id="master" xmlns="http://www.w3.org/2000/svg" xmlns:xlink="http://www.w3.org/1999/xlink" x="0px" y="0px" width="24px" height="24px" viewBox="0 0 24 24" enable-background="new 0 0 24 24" xml:space="preserve">
<rect fill="none" width="24" height="24"/>
<path d="M17.71,10.579c-1.042,0-1.97,0.586-2.47,1.456v-0.028c-1.498-0.028-3.24-0.514-4.468-1.456C9.702,9.723,8.631,8.252,8.074,7.067c1.228-0.98,1.428-2.771,0.447-3.998C7.979,2.391,7.158,1.997,6.29,2C4.705,2,3.435,3.285,3.435,4.869c0.006,1.014,0.549,1.949,1.428,2.456v9.365c-0.842,0.499-1.428,1.414-1.428,2.455C3.435,20.729,4.705,22,6.29,22c1.571,0.004,2.848-1.266,2.853-2.837c0.003-1.021-0.541-1.965-1.425-2.474v-5.153C8.674,12.535,9.773,13.35,11,13.949c1.229,0.6,2.898,0.899,4.24,0.913v-0.029c0.514,0.872,1.428,1.457,2.47,1.457c1.584,0,2.855-1.271,2.855-2.855C20.565,11.851,19.294,10.579,17.71,10.579z M8.003,19.145c0,0.942-0.786,1.714-1.713,1.714s-1.713-0.786-1.713-1.714c0-0.927,0.786-1.713,1.713-1.713S8.003,18.218,8.003,19.145z M6.29,6.583c-0.942,0-1.713-0.786-1.713-1.713S5.362,3.156,6.29,3.156s1.713,0.785,1.713,1.713S7.217,6.583,6.29,6.583z M17.71,15.147c-0.942,0-1.713-0.786-1.713-1.713c0-0.928,0.785-1.713,1.713-1.713c0.929,0,1.714,0.785,1.714,1.713C19.424,14.361,18.639,15.147,17.71,15.147z"/>
</svg>
