<svg version="1.1" id="master" xmlns="http://www.w3.org/2000/svg" xmlns:xlink="http://www.w3.org/1999/xlink" x="0px" y="0px" width="24px" height="24px" viewBox="0 0 24 24" enable-background="new 0 0 24 24" xml:space="preserve">
<rect fill="none" width="24" height="24"/>
<path d="M18.668,17.039V8.667c-0.039-1.04-0.453-1.96-1.253-2.747c-0.801-0.787-1.708-1.213-2.747-1.253h-1.334V2l-4,4l4,4V7.333h1.334c0.359,0.026,0.641,0.146,0.919,0.413c0.281,0.267,0.401,0.56,0.414,0.92v8.373c-1.271,0.734-1.708,2.358-0.977,3.63c0.477,0.826,1.356,1.334,2.31,1.331c1.468,0.004,2.66-1.183,2.664-2.651C20.001,18.397,19.493,17.516,18.668,17.039z M17.334,20.934c-0.88,0-1.6-0.733-1.6-1.601s0.732-1.6,1.6-1.6s1.601,0.732,1.601,1.6S18.201,20.934,17.334,20.934z M9.334,6c0-1.48-1.187-2.667-2.667-2.667C5.2,3.33,4.007,4.516,4.003,5.984C4,6.936,4.508,7.818,5.334,8.293v8.746c-1.271,0.734-1.709,2.358-0.977,3.63c0.476,0.826,1.357,1.334,2.31,1.331c1.467,0.004,2.66-1.183,2.664-2.651c0.002-0.951-0.505-1.833-1.331-2.31V8.293C8.787,7.84,9.334,6.987,9.334,6z M8.268,19.333c0,0.881-0.734,1.601-1.6,1.601c-0.867,0-1.601-0.733-1.601-1.601s0.734-1.6,1.601-1.6C7.534,17.733,8.268,18.466,8.268,19.333z M6.667,7.6c-0.88,0-1.601-0.733-1.601-1.6s0.734-1.6,1.601-1.6c0.866,0,1.6,0.733,1.6,1.6S7.534,7.6,6.667,7.6z"/>
</svg>
