<svg version="1.1" id="master" xmlns="http://www.w3.org/2000/svg" xmlns:xlink="http://www.w3.org/1999/xlink" x="0px" y="0px"
	 width="24px" height="24px" viewBox="0 0 24 24" enable-background="new 0 0 24 24" xml:space="preserve">
<rect fill="none" width="24" height="24"/>
<path d="M12,2c8.001,0,10,1.999,10,10s-1.999,10-10,10S2,20.001,2,12S3.999,2,12,2z M10.359,17.471
	c2.103,0.002,3.836-1.726,3.841-3.83c0-2.101-1.729-3.829-3.83-3.829c-2.101,0-3.829,1.729-3.829,3.829
	C6.542,15.737,8.263,17.465,10.359,17.471z M17.313,17.313V6.688H6.688V8.56h8.748v8.752H17.313z M10.359,11.689
	c1.078,0,1.952,0.875,1.952,1.954c0,1.078-0.875,1.951-1.953,1.951c0,0,0,0-0.001,0c-1.078,0-1.952-0.875-1.951-1.953
	S9.281,11.689,10.359,11.689z"/>
</svg>
