<svg version="1.1" id="master" xmlns="http://www.w3.org/2000/svg" xmlns:xlink="http://www.w3.org/1999/xlink" x="0px" y="0px" width="24px" height="24px" viewBox="0 0 24 24" enable-background="new 0 0 24 24" xml:space="preserve">
<rect fill="none" width="24" height="24"/>
<path d="M8.196,12.208c-0.066,0.021-0.125,0.06-0.168,0.112c-0.04,0.06-0.061,0.132-0.058,0.205c0,0.125,0.032,0.209,0.1,0.256c0.064,0.047,0.162,0.068,0.293,0.068c0.073,0,0.145-0.016,0.22-0.05c0.075-0.031,0.145-0.079,0.204-0.138v-0.55c-0.14,0.013-0.252,0.025-0.337,0.038C8.362,12.158,8.277,12.178,8.196,12.208L8.196,12.208z M12,2L2,12l10,10l10-10L12,2z M12,18.131C8.615,18.129,5.871,15.386,5.869,12C5.871,8.615,8.615,5.87,12,5.868C15.386,5.87,18.129,8.614,18.131,12C18.129,15.386,15.386,18.129,12,18.131z M12,6.481v0.001c-3.045,0-5.517,2.472-5.517,5.517S8.955,17.516,12,17.516s5.517-2.472,5.517-5.517C17.517,8.953,15.047,6.482,12,6.481L12,6.481z M9.615,13.353h-0.83v-0.28l-0.151,0.129c-0.119,0.09-0.253,0.156-0.397,0.193c-0.068,0.018-0.168,0.029-0.293,0.029c-0.218,0.006-0.429-0.08-0.582-0.237c-0.156-0.158-0.231-0.354-0.231-0.597c0-0.198,0.038-0.355,0.117-0.478c0.083-0.125,0.2-0.225,0.337-0.29c0.171-0.075,0.353-0.127,0.539-0.15c0.208-0.028,0.43-0.05,0.669-0.065v-0.014c0-0.146-0.055-0.247-0.163-0.302c-0.108-0.059-0.269-0.085-0.483-0.085c-0.098,0-0.212,0.017-0.342,0.052c-0.132,0.037-0.257,0.083-0.382,0.137H7.35v-0.642c0.081-0.025,0.213-0.052,0.4-0.083c0.181-0.033,0.365-0.05,0.553-0.05c0.458,0,0.792,0.077,1,0.23c0.208,0.152,0.313,0.385,0.313,0.698V13.353L9.615,13.353z M12.298,13.213c-0.058,0.023-0.112,0.047-0.167,0.072c-0.062,0.025-0.125,0.049-0.192,0.066c-0.078,0.02-0.155,0.037-0.225,0.051c-0.07,0.011-0.163,0.018-0.28,0.018c-0.219,0-0.422-0.027-0.603-0.083c-0.175-0.052-0.338-0.138-0.475-0.256c-0.136-0.118-0.243-0.267-0.311-0.434c-0.075-0.175-0.113-0.381-0.113-0.615c-0.006-0.225,0.035-0.446,0.122-0.65c0.075-0.17,0.187-0.32,0.327-0.441c0.138-0.112,0.296-0.194,0.467-0.242c0.184-0.055,0.373-0.08,0.563-0.08c0.309,0,0.61,0.073,0.883,0.212v0.712h-0.106c-0.04-0.036-0.08-0.071-0.122-0.104c-0.05-0.04-0.102-0.075-0.157-0.105c-0.139-0.079-0.298-0.12-0.458-0.117c-0.211,0-0.375,0.072-0.492,0.219c-0.115,0.147-0.175,0.345-0.175,0.595c0,0.267,0.063,0.466,0.188,0.596c0.125,0.131,0.289,0.195,0.493,0.195c0.092,0,0.185-0.011,0.275-0.035c0.127-0.035,0.246-0.1,0.346-0.188c0.04-0.033,0.073-0.068,0.102-0.092h0.108L12.298,13.213L12.298,13.213z M15.909,13.357v-1.331c0-0.131,0-0.242-0.006-0.331c-0.001-0.075-0.017-0.15-0.044-0.219c-0.019-0.055-0.058-0.1-0.107-0.125c-0.128-0.053-0.271-0.052-0.398,0.002c-0.072,0.033-0.141,0.072-0.203,0.117v1.885h-0.828v-1.329c0-0.13-0.002-0.238-0.008-0.33c-0.003-0.075-0.018-0.15-0.042-0.22c-0.022-0.055-0.063-0.1-0.113-0.125c-0.05-0.027-0.12-0.04-0.208-0.04c-0.069,0-0.138,0.017-0.2,0.047c-0.065,0.033-0.127,0.072-0.19,0.113v1.885h-0.829V10.7h0.827v0.296c0.121-0.104,0.247-0.194,0.384-0.269c0.124-0.067,0.262-0.1,0.403-0.1c0.152-0.003,0.301,0.038,0.429,0.117c0.128,0.083,0.225,0.203,0.283,0.345c0.158-0.147,0.308-0.262,0.45-0.342c0.142-0.08,0.283-0.121,0.429-0.121c0.113-0.001,0.226,0.02,0.33,0.063c0.096,0.037,0.184,0.097,0.25,0.175c0.075,0.088,0.134,0.191,0.167,0.303c0.037,0.118,0.055,0.273,0.055,0.461v1.73L15.909,13.357L15.909,13.357z"/>
</svg>
