<svg version="1.1" id="master" xmlns="http://www.w3.org/2000/svg" xmlns:xlink="http://www.w3.org/1999/xlink" x="0px" y="0px"
	 width="24px" height="24px" viewBox="0 0 24 24" enable-background="new 0 0 24 24" xml:space="preserve">
<rect fill="none" width="24" height="24"/>
<path d="M22,11.666v0.669c-0.007,0.037-0.015,0.073-0.018,0.108c-0.034,0.291-0.057,0.584-0.104,0.873
	c-0.152,0.93-0.485,1.819-0.979,2.621c-0.725,1.202-1.779,2.174-3.037,2.799c-0.734,0.37-1.527,0.607-2.344,0.703
	c-0.181,0.021-0.362,0.041-0.544,0.061H7.948c-0.036-0.007-0.07-0.017-0.107-0.02c-0.704-0.044-1.395-0.213-2.04-0.499
	c-1.414-0.629-2.469-1.649-3.159-3.054c-0.305-0.619-0.502-1.288-0.583-1.975L2,13.452v-0.65c0.006-0.036,0.017-0.071,0.019-0.108
	c0.035-0.62,0.164-1.231,0.384-1.813C3,9.314,4.042,8.151,5.519,7.398c0.759-0.384,1.59-0.603,2.439-0.642
	c0.419-0.02,0.838,0,1.253,0.059c0.043,0.004,0.086-0.01,0.118-0.039c0.591-0.617,1.284-1.127,2.048-1.508
	c0.738-0.371,1.534-0.61,2.354-0.706c0.195-0.023,0.39-0.042,0.583-0.062h0.601c0.038,0.006,0.078,0.014,0.117,0.018
	c0.297,0.036,0.596,0.058,0.89,0.108c0.91,0.156,1.781,0.493,2.561,0.988c1.198,0.747,2.158,1.82,2.766,3.094
	c0.365,0.75,0.599,1.557,0.691,2.385C21.962,11.284,21.98,11.475,22,11.666 M10.817,7.333c0.012,0.017,0.016,0.024,0.021,0.027
	c0.411,0.206,0.804,0.448,1.175,0.722c0.023,0.017,0.081,0.01,0.11-0.008c1.018-0.656,2.122-0.882,3.308-0.668
	c1.162,0.209,2.108,0.8,2.831,1.744c0.818,1.066,1.131,2.275,0.904,3.616c-0.151,0.9-0.506,1.708-1.108,2.385
	c-1.099,1.233-2.477,1.743-4.098,1.526c-0.998-0.133-1.858-0.57-2.571-1.303c-0.916-0.939-1.837-1.873-2.754-2.811
	c-0.123-0.125-0.258-0.225-0.434-0.248c-0.302-0.041-0.595,0.122-0.72,0.4c-0.118,0.25-0.103,0.533,0.154,0.791
	c1.022,1.021,2.037,2.051,3.059,3.074c0.175,0.175,0.363,0.337,0.562,0.485c0.747,0.551,1.588,0.855,2.501,0.978
	c0.714,0.098,1.424,0.075,2.129-0.084c1.343-0.308,2.456-1.005,3.333-2.082c0.717-0.875,1.172-1.936,1.313-3.059
	c0.088-0.653,0.07-1.317-0.055-1.966c-0.203-1.059-0.644-2.007-1.35-2.814c-1.348-1.539-3.044-2.225-5.063-2.073
	c-0.771,0.063-1.52,0.288-2.2,0.658C11.49,6.821,11.14,7.059,10.817,7.333 M10.323,18.075c-0.028-0.026-0.056-0.052-0.083-0.079
	c-0.417-0.401-0.839-0.799-1.252-1.207c-0.067-0.076-0.165-0.118-0.267-0.114c-0.418,0.011-0.837,0.012-1.25-0.083
	c-2.051-0.471-3.242-2.738-2.486-4.733c0.596-1.574,2.247-2.532,3.874-2.237c0.729,0.133,1.37,0.447,1.895,0.998
	c0.642,0.673,1.302,1.327,1.95,1.993c0.146,0.151,0.317,0.22,0.521,0.19c0.264-0.038,0.475-0.166,0.569-0.429
	c0.093-0.258,0.049-0.504-0.145-0.704c-0.68-0.7-1.344-1.418-2.051-2.089c-1.373-1.301-2.99-1.688-4.78-1.135
	c-2.407,0.744-3.816,3.272-3.266,5.766c0.501,2.272,2.456,3.866,4.742,3.869h1.916C10.243,18.081,10.275,18.077,10.323,18.075"/>
</svg>
