<svg version="1.1" id="master" xmlns="http://www.w3.org/2000/svg" xmlns:xlink="http://www.w3.org/1999/xlink" x="0px" y="0px"
	 width="24px" height="24px" viewBox="0 0 24 24" enable-background="new 0 0 24 24" xml:space="preserve">
<rect fill="none" width="24" height="24"/>
<path d="M2,2.25v19.5h20V2.25H2z M2.833,3.083h18.333v17.834H2.833V3.083z M7.248,6.815c0-0.055,0.014-0.097,0.083-0.097
	C7.867,6.691,8.65,6.677,9.475,6.677c2.31,0,3.314,1.266,3.314,2.888c0,2.117-1.532,3.025-3.416,3.025
	c-0.317,0-0.427-0.014-0.647-0.014v3.202c0,0.069-0.027,0.097-0.096,0.097H7.344c-0.069,0-0.097-0.027-0.097-0.097V6.815z
	 M8.727,11.242c0.193,0.014,0.344,0.014,0.674,0.014c0.976,0,1.889-0.344,1.889-1.664c0-1.058-0.651-1.595-1.766-1.595
	c-0.33,0-0.646,0.013-0.797,0.027V11.242z M14.061,10.486c0-0.096,0-0.343-0.041-0.811c0-0.069,0.009-0.083,0.063-0.11
	c0.974-0.374,2.006-0.569,3.048-0.578c0.068,0,0.096,0.014,0.096,0.083v1.21c0,0.068-0.021,0.083-0.091,0.083
	c-0.53-0.034-1.063,0.022-1.574,0.165v5.251c0,0.069-0.028,0.097-0.097,0.097h-1.309c-0.068,0-0.096-0.027-0.096-0.097V10.486z"/>
</svg>
