<svg version="1.1" id="master" xmlns="http://www.w3.org/2000/svg" xmlns:xlink="http://www.w3.org/1999/xlink" x="0px" y="0px"
	 width="24px" height="24px" viewBox="0 0 24 24" enable-background="new 0 0 24 24" xml:space="preserve">
<rect fill="none" width="24" height="24"/>
<path d="M2,2.25v19.5h20V2.25H2z M2.833,3.083h18.333v17.834H2.833V3.083z M7.653,13.291l-0.66,2.489
	c-0.014,0.069-0.042,0.094-0.124,0.094H5.646c-0.083,0-0.097-0.028-0.083-0.125L7.93,7.472c0.042-0.15,0.068-0.271,0.082-0.683
	c0-0.055,0.027-0.083,0.069-0.083h1.747c0.055,0,0.083,0.015,0.096,0.083l2.652,8.974c0.014,0.068,0,0.109-0.068,0.109h-1.375
	c-0.068,0-0.108-0.025-0.123-0.081l-0.688-2.501H7.656L7.653,13.291z M9.992,11.938c-0.233-0.921-0.8-2.941-1.005-3.917H8.974
	c-0.179,0.975-0.63,2.624-0.975,3.917H9.992z M14.459,12.792c0.014,1.127,0.549,1.883,1.814,1.883c0.495,0,0.919-0.065,1.358-0.258
	c0.056-0.026,0.098-0.013,0.098,0.056v1.045c0,0.083-0.028,0.125-0.083,0.166c-0.439,0.221-0.987,0.317-1.675,0.317
	c-2.201,0-3.026-1.623-3.026-3.438c0-1.967,1.02-3.575,2.807-3.575c1.814,0,2.447,1.527,2.447,2.764c0,0.4-0.029,0.73-0.071,0.88
	c-0.014,0.068-0.041,0.092-0.109,0.106c-0.166,0.027-0.66,0.055-1.39,0.055h-2.17V12.792z M16.15,11.646
	c0.427,0,0.577,0,0.618-0.013c0-0.057,0.015-0.104,0.015-0.146c0-0.454-0.223-1.287-1.089-1.287c-0.797,0-1.143,0.702-1.224,1.444
	h1.678L16.15,11.646z"/>
</svg>
