<svg version="1.1" id="master" xmlns="http://www.w3.org/2000/svg" xmlns:xlink="http://www.w3.org/1999/xlink" x="0px" y="0px"
	 width="24px" height="24px" viewBox="0 0 24 24" enable-background="new 0 0 24 24" xml:space="preserve">
<rect fill="none" width="24" height="24"/>
<path d="M2,2v20h20V2H2z M12.223,15.766c-0.014,0.067-0.055,0.094-0.124,0.094H7.542L7.54,15.854c-0.097,0-0.124-0.041-0.124-0.123
	V6.777c0-0.069,0.028-0.11,0.097-0.11h1.32c0.07,0,0.083,0.031,0.083,0.1v7.715h3.438c0.069,0,0.089,0.028,0.076,0.099
	L12.223,15.766z M16.893,10.251c0,0.07-0.026,0.083-0.097,0.083c-0.522-0.028-1.303,0.042-1.591,0.165v5.258
	c0,0.068-0.028,0.097-0.098,0.097h-1.31c-0.065,0-0.095-0.027-0.095-0.098v-5.3l0.005,0.002c0-0.1,0-0.347-0.041-0.814
	c0-0.069,0.015-0.083,0.069-0.11c0.508-0.205,1.716-0.576,3.063-0.576c0.066,0,0.094,0.014,0.094,0.083V10.251z"/>
</svg>
