<svg version="1.1" id="master" xmlns="http://www.w3.org/2000/svg" xmlns:xlink="http://www.w3.org/1999/xlink" x="0px" y="0px" width="24px" height="24px" viewBox="0 0 24 24" enable-background="new 0 0 24 24" xml:space="preserve">
<rect fill="none" width="24" height="24"/>
<path d="M2,2.25v19.5h20V2.25H2z M2.833,3.083h18.333v17.834H2.833V3.083z M4.604,6.842c0-0.07,0.014-0.098,0.097-0.111c0.316-0.014,1.225-0.042,2.164-0.042c2.792,0,4.18,1.802,4.18,4.442c0,3.67-2.408,4.783-4.262,4.783c-0.702,0-1.72-0.013-2.092-0.026c-0.054,0-0.082-0.042-0.082-0.11V6.84L4.604,6.842z M6.104,14.566c0.233,0.015,0.44,0.029,0.702,0.029c1.541,0,2.681-1.087,2.695-3.424c0.017-2.283-1.167-3.162-2.636-3.162c-0.289,0-0.522,0.017-0.755,0.032v6.53L6.104,14.566z M16.678,15.875c-0.097,0-0.124-0.037-0.138-0.119c-0.412-2.296-0.756-3.919-0.909-5.046h-0.013c-0.179,1.021-0.508,2.714-1.058,5.065c-0.028,0.083-0.056,0.105-0.124,0.105h-1.348c-0.096,0-0.123-0.013-0.149-0.096l-1.473-6.567c-0.014-0.056,0.015-0.111,0.098-0.111h1.347c0.056,0,0.097,0.02,0.111,0.076c0.522,2.955,0.741,4.487,0.824,5.091h0.056c0.097-0.715,0.385-2.205,1.003-5.065c0.027-0.083,0.027-0.104,0.11-0.104h1.416c0.068,0,0.082,0.034,0.097,0.103c0.48,2.708,0.797,4.417,0.88,5.105h0.041c0.134-0.88,0.316-2.066,0.903-5.12c0.015-0.055,0.027-0.088,0.096-0.088h1.268c0.056,0,0.097,0.027,0.069,0.097l-1.636,6.578c-0.013,0.069-0.024,0.097-0.122,0.097H16.68H16.678z"/>
</svg>
