<svg version="1.1" id="master" xmlns="http://www.w3.org/2000/svg" xmlns:xlink="http://www.w3.org/1999/xlink" x="0px" y="0px"
	 width="24px" height="24px" viewBox="0 0 24 24" enable-background="new 0 0 24 24" xml:space="preserve">
<rect fill="none" width="24" height="24"/>
<path d="M11.261,11.938c-0.233-0.922-0.783-2.94-0.99-3.917h-0.014c-0.179,0.975-0.619,2.625-0.963,3.917H11.261z M2,2v20h20V2H2z
	 M13.795,15.875H12.42c-0.069,0-0.11-0.018-0.124-0.07l-0.688-2.514h-2.67l-0.66,2.499c-0.014,0.069-0.042,0.085-0.124,0.085H6.931
	c-0.083,0-0.096-0.027-0.083-0.123l2.367-8.288c0.042-0.15,0.068-0.282,0.082-0.694c0-0.055,0.027-0.083,0.069-0.083h1.747
	c0.055,0,0.083,0.015,0.096,0.083l2.654,8.996C13.878,15.835,13.863,15.875,13.795,15.875z M16.611,15.785
	c0,0.068-0.014,0.097-0.096,0.097h-1.293c-0.084,0-0.111-0.042-0.111-0.108V9.2l-0.008,0.001c0-0.067,0.028-0.092,0.099-0.092h1.309
	c0.072,0,0.101,0.027,0.101,0.097V15.785z M15.852,8.158c-0.5,0-0.843-0.302-0.843-0.852h0.002c0-0.536,0.371-0.853,0.854-0.853
	c0.509,0,0.853,0.343,0.853,0.853C16.717,7.856,16.359,8.158,15.852,8.158z"/>
</svg>
