<svg version="1.1" id="master" xmlns="http://www.w3.org/2000/svg" xmlns:xlink="http://www.w3.org/1999/xlink" x="0px" y="0px"
	 width="24px" height="24px" viewBox="0 0 24 24" enable-background="new 0 0 24 24" xml:space="preserve">
<rect fill="none" width="24" height="24"/>
<path d="M2,2.25v19.5h20V2.25H2z M2.833,3.083h18.333v17.834H2.833V3.083z M9.313,15.765c0,0.084-0.014,0.11-0.11,0.11h-1.28
	c-0.083,0-0.11-0.042-0.11-0.11V6.818c0-0.083,0.042-0.11,0.11-0.11h1.294c0.068,0,0.096,0.027,0.096,0.097V15.765z M10.788,12.539
	c0-1.995,1.315-3.548,3.417-3.548c0.18,0,0.275,0,0.44,0.012V6.792c0-0.055,0.042-0.083,0.084-0.083h1.354
	c0.069,0,0.083,0.028,0.083,0.07v7.796c0,0.233,0,0.521,0.041,0.836c0,0.056-0.017,0.069-0.072,0.098
	c-0.715,0.344-1.472,0.496-2.187,0.496c-1.844,0-3.164-1.143-3.164-3.465H10.788z M14.646,10.352
	c-0.123-0.055-0.289-0.083-0.495-0.083c-1.07,0-1.822,0.825-1.822,2.201c0,1.567,0.766,2.199,1.728,2.199
	c0.206,0,0.427-0.026,0.592-0.096v-4.221H14.646z"/>
</svg>
