<svg version="1.1" id="master" xmlns="http://www.w3.org/2000/svg" xmlns:xlink="http://www.w3.org/1999/xlink" x="0px" y="0px"
	 width="24px" height="24px" viewBox="0 0 24 24" enable-background="new 0 0 24 24" xml:space="preserve">
<rect fill="none" width="24" height="24"/>
<path d="M2,2v20h20V2H2z M11.763,8.652H9.468v7.696c0,0.068-0.027,0.109-0.11,0.109H8.08c-0.082,0-0.109-0.027-0.109-0.109V8.652
	H5.662c-0.068,0-0.096-0.027-0.083-0.11l0.165-1.154c0.013-0.069,0.041-0.096,0.11-0.096h5.771c0.083,0,0.11,0.027,0.125,0.109
	l0.11,1.141C11.874,8.625,11.833,8.652,11.763,8.652z M18.225,16.457h-1.621c-0.084,0-0.111-0.027-0.14-0.082
	c-0.747-1.012-1.479-2.033-2.198-3.064v3.051c0,0.068-0.014,0.097-0.097,0.097h-1.291c-0.099,0-0.11-0.026-0.11-0.11V7.375
	c0-0.042,0.014-0.083,0.097-0.083h1.306c0.057,0,0.098,0.027,0.098,0.096v5.233l2.101-2.842c0.055-0.068,0.067-0.096,0.138-0.096
	h1.401c0.083,0,0.11,0.055,0.056,0.123c-0.33,0.426-1.843,2.295-2.337,2.899c-0.015,0.025-0.015,0.059,0,0.083l2.666,3.56
	C18.32,16.402,18.307,16.457,18.225,16.457z"/>
</svg>
