<svg version="1.1" id="master" xmlns="http://www.w3.org/2000/svg" xmlns:xlink="http://www.w3.org/1999/xlink" x="0px" y="0px"
	 width="24px" height="24px" viewBox="0 0 24 24" enable-background="new 0 0 24 24" xml:space="preserve">
<rect fill="none" width="24" height="24"/>
<path d="M18.458,2.25H5.542C3.583,2.25,2,3.833,2,5.792v12.417c0,1.957,1.583,3.541,3.542,3.541h12.917
	c1.958,0,3.542-1.584,3.542-3.541V5.792C22,3.833,20.416,2.25,18.458,2.25z M21.158,17.884c0.009,1.667-1.338,3.024-3.005,3.033
	c-0.004,0-0.008,0-0.012,0H5.858c-1.667,0-3.025-1.358-3.025-3.025V6.108c0-1.667,1.358-3.025,3.025-3.025h12.274
	c1.672,0,3.025,1.355,3.025,3.025l0,0V17.884z M9.909,11.375l2.333,4.483c0.042,0.066,0.017,0.134-0.05,0.134h-1.45
	c-0.092,0-0.133-0.025-0.175-0.108c-0.533-1.101-1.075-2.201-1.633-3.384H8.917c-0.5,1.117-1.05,2.292-1.583,3.392
	c-0.041,0.066-0.083,0.091-0.149,0.091H5.808c-0.083,0-0.091-0.065-0.05-0.115l2.283-4.351l-2.208-4.4C5.783,7.05,5.833,7,5.883,7
	h1.433C7.4,7,7.434,7.017,7.467,7.092c0.525,1.1,1.058,2.233,1.559,3.342h0.017c0.483-1.101,1.016-2.242,1.533-3.333
	c0.042-0.067,0.066-0.108,0.15-0.108h1.342c0.066,0,0.091,0.05,0.05,0.117L9.909,11.375z M12.649,12.733
	c0-1.942,1.292-3.458,3.343-3.458c0.175,0,0.266,0,0.434,0.017V7.083c0-0.05,0.04-0.083,0.083-0.083h1.316
	c0.066,0,0.083,0.025,0.083,0.067v7.65c0,0.225,0,0.508,0.042,0.816c0,0.05-0.017,0.067-0.066,0.092
	c-0.7,0.333-1.434,0.483-2.134,0.483C13.941,16.116,12.649,15,12.649,12.733z M16.426,10.6c-0.117-0.05-0.283-0.083-0.483-0.083
	c-1.05,0-1.784,0.809-1.784,2.149c0,1.534,0.75,2.15,1.691,2.15c0.2,0,0.417-0.025,0.576-0.092V10.6z"/>
</svg>
