<svg version="1.1" id="master" xmlns="http://www.w3.org/2000/svg" xmlns:xlink="http://www.w3.org/1999/xlink" x="0px" y="0px"
	 width="24px" height="24px" viewBox="0 0 24 24" enable-background="new 0 0 24 24" xml:space="preserve">
<rect fill="none" width="24" height="24"/>
<path d="M6.104,14.566c0.233,0.015,0.44,0.029,0.702,0.029c1.541,0,2.681-1.088,2.695-3.425c0.017-2.283-1.167-3.162-2.636-3.162
	c-0.289,0-0.522,0.017-0.755,0.032v6.529L6.104,14.566z M2,2v20h20V2H2z M6.783,15.914c-0.702,0-1.72-0.014-2.092-0.025
	c-0.054,0-0.082-0.043-0.082-0.111V6.84L4.604,6.842c0-0.07,0.014-0.098,0.097-0.111c0.316-0.014,1.225-0.042,2.164-0.042
	c2.792,0,4.18,1.802,4.18,4.442C11.045,14.801,8.637,15.914,6.783,15.914z M18.148,15.779c-0.013,0.068-0.023,0.097-0.121,0.097
	H16.68h-0.002v-0.001c-0.097,0-0.123-0.037-0.138-0.119c-0.412-2.296-0.756-3.919-0.909-5.046h-0.013
	c-0.179,1.021-0.509,2.714-1.058,5.065c-0.028,0.082-0.057,0.104-0.125,0.104h-1.348c-0.096,0-0.123-0.013-0.148-0.096l-1.474-6.567
	c-0.014-0.056,0.015-0.111,0.098-0.111h1.347c0.056,0,0.097,0.02,0.11,0.076c0.522,2.955,0.742,4.487,0.824,5.091h0.057
	c0.097-0.715,0.385-2.206,1.002-5.065c0.027-0.083,0.027-0.104,0.111-0.104h1.416c0.067,0,0.082,0.034,0.096,0.103
	c0.48,2.708,0.798,4.417,0.881,5.105h0.041c0.134-0.881,0.316-2.066,0.902-5.121c0.016-0.055,0.027-0.088,0.097-0.088h1.268
	c0.056,0,0.097,0.027,0.069,0.097L18.148,15.779z"/>
</svg>
