<svg version="1.1" id="master" xmlns="http://www.w3.org/2000/svg" xmlns:xlink="http://www.w3.org/1999/xlink" x="0px" y="0px"
	 width="24px" height="24px" viewBox="0 0 24 24" enable-background="new 0 0 24 24" xml:space="preserve">
<rect fill="none" width="24" height="24"/>
<path d="M8.727,11.242c0.193,0.014,0.344,0.014,0.674,0.014c0.976,0,1.889-0.344,1.889-1.664c0-1.058-0.651-1.595-1.766-1.595
	c-0.33,0-0.646,0.013-0.797,0.027V11.242z M2,2v20h20V2H2z M9.373,12.59c-0.317,0-0.427-0.014-0.647-0.014v3.201
	c0,0.07-0.027,0.098-0.096,0.098H7.344c-0.069,0-0.097-0.027-0.097-0.098V6.815h0.001c0-0.055,0.014-0.097,0.083-0.097
	C7.867,6.691,8.65,6.677,9.475,6.677c2.31,0,3.314,1.266,3.314,2.888C12.789,11.682,11.257,12.59,9.373,12.59z M17.227,10.28
	c0,0.068-0.021,0.083-0.091,0.083c-0.53-0.034-1.063,0.022-1.573,0.165v5.251c0,0.068-0.028,0.097-0.098,0.097h-1.309
	c-0.068,0-0.096-0.026-0.096-0.097v-5.293c0-0.096,0-0.343-0.041-0.811c0-0.069,0.01-0.083,0.063-0.11
	c0.974-0.374,2.006-0.569,3.048-0.578c0.068,0,0.096,0.014,0.096,0.083V10.28z"/>
</svg>
