<svg version="1.1" id="master" xmlns="http://www.w3.org/2000/svg" xmlns:xlink="http://www.w3.org/1999/xlink" x="0px" y="0px"
	 width="24px" height="24px" viewBox="0 0 24 24" enable-background="new 0 0 24 24" xml:space="preserve">
<rect fill="none" width="24" height="24"/>
<path d="M2,2v20h20V2H2z M9.313,15.766c0,0.084-0.014,0.109-0.11,0.109h-1.28c-0.083,0-0.11-0.042-0.11-0.109V6.818
	c0-0.083,0.042-0.11,0.11-0.11h1.294c0.068,0,0.096,0.027,0.096,0.097V15.766z M16.135,15.509c-0.715,0.345-1.472,0.496-2.187,0.496
	c-1.844,0-3.164-1.144-3.164-3.465h0.004v-0.001c0-1.995,1.315-3.548,3.417-3.548c0.18,0,0.275,0,0.439,0.012V6.792
	c0-0.055,0.043-0.083,0.084-0.083h1.354c0.069,0,0.083,0.028,0.083,0.07v7.796c0,0.233,0,0.521,0.041,0.836
	C16.207,15.467,16.189,15.48,16.135,15.509z M14.646,10.352c-0.123-0.055-0.289-0.083-0.496-0.083c-1.069,0-1.821,0.825-1.821,2.201
	c0,1.567,0.767,2.199,1.728,2.199c0.207,0,0.428-0.026,0.592-0.096v-4.221H14.646z"/>
</svg>
