<svg version="1.1" id="master" xmlns="http://www.w3.org/2000/svg" xmlns:xlink="http://www.w3.org/1999/xlink" x="0px" y="0px"
	 width="24px" height="24px" viewBox="0 0 24 24" enable-background="new 0 0 24 24" xml:space="preserve">
<rect fill="none" width="24" height="24"/>
<path d="M2,2.25v19.5h20V2.25H2z M2.833,3.083h18.333v17.834H2.833V3.083z M7.549,13.5l-0.643,2.386C6.892,15.953,6.865,16,6.785,16
	H5.591c-0.081,0-0.094-0.027-0.081-0.121l2.308-8.034c0.058-0.223,0.084-0.451,0.081-0.681c0-0.054,0.026-0.081,0.067-0.081h1.704
	c0.053,0,0.081,0.013,0.094,0.081l2.589,8.729c0.013,0.067,0,0.107-0.068,0.107h-1.341c-0.059,0-0.109-0.042-0.12-0.101l-0.67-2.399
	H7.549z M9.816,12.167c-0.228-0.899-0.765-2.858-0.965-3.811H8.837c-0.174,0.953-0.604,2.549-0.939,3.811H9.816z M18.167,14.688
	c0,0.094,0.013,0.375,0.04,0.831c0,0.054-0.006,0.08-0.059,0.094c-0.795,0.34-1.646,0.526-2.51,0.55
	c-1.222,0-2.389-0.469-2.389-2.348V9.524c0-0.067,0.027-0.107,0.095-0.107h1.312c0.066,0,0.094,0.041,0.094,0.107v4.117
	c0,0.792,0.346,1.221,1.178,1.221c0.281,0.002,0.56-0.047,0.822-0.147v-5.19c0-0.067,0.027-0.107,0.094-0.107h1.229
	c0.081,0,0.095,0.041,0.095,0.107V14.688z"/>
</svg>
