<svg version="1.1" id="master" xmlns="http://www.w3.org/2000/svg" xmlns:xlink="http://www.w3.org/1999/xlink" x="0px" y="0px"
	 width="24px" height="24px" viewBox="0 0 24 24" enable-background="new 0 0 24 24" xml:space="preserve">
<rect fill="none" width="24" height="24"/>
<path d="M2,2.25v19.5h20V2.25H2z M2.833,3.083h18.333v17.834H2.833V3.083z M6.833,6.816c0-0.056,0.117-0.096,0.187-0.096
	c0.537-0.028,1.323-0.042,2.148-0.042c2.31,0,3.208,1.266,3.208,2.888c0,2.117-1.535,3.025-3.418,3.025
	c-0.317,0-0.425-0.014-0.646-0.014v3.201c0,0.069-0.027,0.096-0.096,0.096H6.93c-0.069,0-0.096-0.024-0.096-0.094L6.833,6.816
	L6.833,6.816z M8.313,11.243c0.192,0.014,0.343,0.014,0.675,0.014c0.976,0,1.892-0.344,1.892-1.664c0-1.059-0.655-1.595-1.768-1.595
	c-0.33,0-0.646,0.013-0.797,0.027v3.22L8.313,11.243z M15.484,10.253c-0.659,0-0.879,0.33-0.879,0.605
	c0,0.303,0.15,0.508,1.03,0.962c1.308,0.633,1.718,1.237,1.718,2.13c0,1.333-1.016,2.051-2.392,2.051
	c-0.729,0-1.349-0.152-1.708-0.358c-0.055-0.028-0.066-0.068-0.066-0.138v-1.223c0-0.083,0.04-0.11,0.095-0.069
	c0.521,0.343,1.127,0.494,1.677,0.494c0.66,0,0.936-0.274,0.936-0.646c0-0.303-0.191-0.565-1.031-1.005
	c-1.184-0.567-1.679-1.142-1.679-2.106c0-1.072,0.839-1.967,2.296-1.967c0.717,0,1.22,0.11,1.495,0.233
	c0.068,0.042,0.083,0.11,0.083,0.165v1.142c0,0.069-0.041,0.111-0.125,0.083c-0.37-0.22-0.917-0.358-1.452-0.358L15.484,10.253z"/>
</svg>
