<svg version="1.1" id="master" xmlns="http://www.w3.org/2000/svg" xmlns:xlink="http://www.w3.org/1999/xlink" x="0px" y="0px"
	 width="24px" height="24px" viewBox="0 0 24 24" enable-background="new 0 0 24 24" xml:space="preserve">
<rect fill="none" width="24" height="24"/>
<path d="M2,2v20h20V2H2z M12.192,15.992h-1.45c-0.092,0-0.133-0.025-0.175-0.108c-0.533-1.101-1.075-2.2-1.633-3.384H8.917
	c-0.5,1.117-1.05,2.292-1.583,3.393c-0.041,0.065-0.083,0.09-0.149,0.09H5.808c-0.083,0-0.091-0.064-0.05-0.114l2.283-4.351
	l-2.208-4.4C5.783,7.05,5.833,7,5.883,7h1.433C7.4,7,7.434,7.017,7.467,7.092c0.525,1.1,1.058,2.233,1.559,3.342h0.017
	c0.483-1.101,1.016-2.242,1.533-3.333c0.042-0.067,0.066-0.108,0.15-0.108h1.342c0.066,0,0.091,0.05,0.05,0.117l-2.209,4.265
	l2.333,4.482C12.284,15.924,12.259,15.992,12.192,15.992z M17.884,15.625c-0.7,0.333-1.434,0.482-2.134,0.482
	c-1.809,0.009-3.102-1.107-3.102-3.375c0-1.941,1.293-3.458,3.344-3.458c0.175,0,0.266,0,0.434,0.017V7.083
	c0-0.05,0.04-0.083,0.083-0.083h1.316c0.065,0,0.083,0.025,0.083,0.067v7.65c0,0.225,0,0.508,0.042,0.816
	C17.95,15.583,17.934,15.6,17.884,15.625z M16.426,10.6c-0.117-0.05-0.283-0.083-0.482-0.083c-1.051,0-1.784,0.809-1.784,2.149
	c0,1.534,0.75,2.15,1.69,2.15c0.2,0,0.418-0.025,0.576-0.092V10.6z"/>
</svg>
