<svg version="1.1" id="master" xmlns="http://www.w3.org/2000/svg" xmlns:xlink="http://www.w3.org/1999/xlink" x="0px" y="0px" width="24px" height="24px" viewBox="0 0 24 24" enable-background="new 0 0 24 24" xml:space="preserve">
<rect fill="none" width="24" height="24"/>
<path d="M21.5,14v2l-3.886-1.214L10.5,7.671V3.5C10.5,2.67,11.17,2,12,2s1.5,0.67,1.5,1.5V9L21.5,14z M9.577,9.577L3.414,3.414L2,4.828l5.836,5.837L2.5,14v2l8-2.5V19l-2,1.5V22l3.5-1l3.5,1v-1.5l-2-1.5v-2.671L19.171,22l1.415-1.414L13.5,13.5L9.577,9.577z"/>
</svg>
