<svg version="1.1" id="master" xmlns="http://www.w3.org/2000/svg" xmlns:xlink="http://www.w3.org/1999/xlink" x="0px" y="0px" width="24px" height="24px" viewBox="0 0 24 24" enable-background="new 0 0 24 24" xml:space="preserve">
<rect fill="none" width="24" height="24"/>
<path d="M4.843,3.1c-0.981,0-1.32,0.102-1.692,0.305C2.791,3.596,2.496,3.89,2.304,4.25C2.102,4.624,2,4.961,2,5.976v7.614c0,0.982,0.102,1.321,0.304,1.693c0.203,0.372,0.475,0.643,0.847,0.846c0.338,0.204,0.677,0.305,1.692,0.305H7.11l0.948-1.117H4.505c-0.271,0.035-0.575,0-0.847-0.137c-0.169-0.066-0.305-0.235-0.407-0.404c-0.102-0.271-0.169-0.542-0.135-0.847V5.672c-0.033-0.271,0-0.575,0.135-0.846C3.319,4.657,3.489,4.522,3.658,4.42C3.929,4.318,4.2,4.25,4.505,4.284h14.89c0.271-0.033,0.574,0.001,0.846,0.137c0.17,0.068,0.304,0.236,0.406,0.406c0.102,0.27,0.168,0.542,0.135,0.846v8.291c0.033,0.271,0,0.576-0.135,0.847c-0.068,0.169-0.236,0.304-0.406,0.405c-0.27,0.102-0.541,0.169-0.846,0.135h-3.554l0.947,1.118l2.336-0.033c1.015,0,1.353-0.102,1.726-0.306c0.359-0.191,0.654-0.486,0.846-0.846C21.898,14.944,22,14.605,22,13.592V5.975c0-1.015-0.102-1.353-0.305-1.725c-0.191-0.36-0.486-0.655-0.846-0.846C20.477,3.201,20.139,3.1,19.124,3.1L4.843,3.1L4.843,3.1z M11.886,13.266c-0.12,0.005-0.233,0.062-0.308,0.155l-5.922,6.802c-0.068,0.074-0.105,0.172-0.103,0.271C5.545,20.711,5.714,20.893,5.93,20.9c0.01,0,0.02,0,0.03,0h11.911c0.102,0,0.204-0.033,0.271-0.102c0.169-0.135,0.17-0.406,0.034-0.576l-5.922-6.802l-0.034-0.033C12.128,13.307,12.009,13.264,11.886,13.266L11.886,13.266z"/>
</svg>
