<svg version="1.1" id="master" xmlns="http://www.w3.org/2000/svg" xmlns:xlink="http://www.w3.org/1999/xlink" x="0px" y="0px" width="24px" height="24px" viewBox="0 0 24 24" enable-background="new 0 0 24 24" xml:space="preserve">
<rect fill="none" width="24" height="24"/>
<path d="M11.923,2.153C9.526,2.172,7.126,3.048,5.22,4.796C1.152,8.525,0.915,14.863,4.644,18.932c0.169,0.203,0.373,0.372,0.576,0.576c0.102,0.066,0.238,0.068,0.34-0.033l0.441-0.51c0.102-0.102,0.102-0.271,0-0.373c-3.56-3.287-3.797-8.881-0.475-12.44c3.322-3.56,8.881-3.796,12.441-0.474c3.559,3.322,3.795,8.879,0.473,12.439c-0.169,0.17-0.304,0.34-0.473,0.475c-0.102,0.102-0.102,0.271,0,0.373l0.441,0.51c0.102,0.102,0.271,0.1,0.372,0.032c4.067-3.763,4.305-10.067,0.576-14.135C17.357,3.211,14.641,2.131,11.923,2.153z M12.246,5.084C10.415,5.025,8.56,5.661,7.119,7c-2.881,2.678-3.051,7.186-0.373,10.068c0.102,0.102,0.203,0.237,0.338,0.339c0.102,0.102,0.271,0.102,0.373,0l0.441-0.508C8,16.797,8,16.627,7.898,16.525c-1.186-1.119-1.897-2.712-1.897-4.373c0-3.288,2.677-5.966,5.965-5.966s5.966,2.71,5.966,5.999c0,1.627-0.678,3.221-1.864,4.34c-0.103,0.102-0.103,0.271,0,0.373l0.44,0.508c0.102,0.102,0.271,0.136,0.373,0.033c2.881-2.711,3.018-7.22,0.34-10.101C15.882,5.897,14.076,5.144,12.246,5.084z M12.024,7.848c-1.102-0.017-2.211,0.389-3.076,1.219c-1.729,1.661-1.762,4.373-0.101,6.102l0.101,0.103c0.102,0.103,0.271,0.103,0.373,0l0.441-0.509c0.102-0.102,0.102-0.271,0-0.373C9.186,13.813,8.848,13,8.848,12.152c-0.005-1.717,1.384-3.114,3.101-3.118c0.006,0,0.011,0,0.017,0c1.718-0.005,3.114,1.384,3.118,3.101c0,0.006,0,0.011,0,0.017c0,0.848-0.338,1.626-0.949,2.236c-0.102,0.102-0.102,0.271,0,0.373l0.441,0.509c0.102,0.103,0.271,0.103,0.373,0c1.695-1.661,1.764-4.373,0.103-6.102C14.221,8.305,13.126,7.864,12.024,7.848L12.024,7.848z M12.029,14.301c-0.114-0.004-0.233,0.037-0.335,0.122l-0.032,0.034l-5.967,6.712c-0.135,0.169-0.135,0.406,0.034,0.576c0.068,0.067,0.168,0.103,0.236,0.103h11.966c0.204,0,0.408-0.17,0.408-0.407c0-0.102-0.033-0.204-0.102-0.271l-5.9-6.712C12.254,14.355,12.144,14.305,12.029,14.301z"/>
</svg>
