<svg version="1.1" id="master" xmlns="http://www.w3.org/2000/svg" xmlns:xlink="http://www.w3.org/1999/xlink" x="0px" y="0px" width="24px" height="24px" viewBox="0 0 24 24" enable-background="new 0 0 24 24" xml:space="preserve">
<rect fill="none" width="24" height="24"/>
<path d="M11.994,3.639c-0.362,0-0.725,0.071-1.067,0.215L3.482,6.932c-0.419,0.173-0.408,0.757,0.01,0.93l7.485,2.965c0.656,0.267,1.389,0.267,2.045,0l7.485-2.965c0.419-0.163,0.419-0.757,0.01-0.93l-7.465-3.078C12.718,3.711,12.357,3.639,11.994,3.639z M21.5,8.714c-0.063,0.001-0.127,0.014-0.186,0.038l-8.343,3.23c-0.19,0.078-0.315,0.264-0.316,0.47v7.413c0.002,0.276,0.229,0.498,0.505,0.496c0.061-0.001,0.122-0.013,0.18-0.035l8.344-3.242c0.191-0.071,0.318-0.254,0.316-0.459V9.211C21.998,8.937,21.775,8.715,21.5,8.714L21.5,8.714z M2.563,8.747c-0.149-0.006-0.294,0.052-0.4,0.158C2.072,8.997,2,9.108,2,9.242v6.963c0,0.368,0.429,0.614,0.757,0.45l5.225-2.505l0.255-0.123l2.475-1.196c0.388-0.184,0.358-0.757-0.051-0.91L2.736,8.782C2.681,8.759,2.623,8.747,2.563,8.745V8.747z"/>
</svg>
