<svg version="1.1" id="master" xmlns="http://www.w3.org/2000/svg" xmlns:xlink="http://www.w3.org/1999/xlink" x="0px" y="0px" width="24px" height="24px" viewBox="0 0 24 24" enable-background="new 0 0 24 24" xml:space="preserve">
<rect fill="none" width="24" height="24"/>
<path d="M20.938,13.063c0,1.465-0.359,2.843-0.983,4.063l-1.496-1.496c0.314-0.794,0.493-1.657,0.493-2.564c0-3.844-3.107-6.953-6.951-6.953c-0.907,0-1.771,0.179-2.565,0.494L7.938,5.109C9.158,4.485,10.536,4.126,12,4.126C16.936,4.126,20.938,8.127,20.938,13.063z M21.93,5.834L17.363,2L16.08,3.52l4.57,3.833L21.93,5.834z M7.909,3.52L6.639,2L5.653,2.824l1.407,1.407L7.909,3.52z M18.826,18.825l1.76,1.761L19.172,22l-1.803-1.803C15.874,21.326,14.018,22,12,22c-4.944,0-8.937-4.001-8.937-8.936c0-2.019,0.674-3.875,1.803-5.37L3.984,6.812L3.352,7.343L2.07,5.823l0.503-0.421L2,4.828l1.415-1.415l0.699,0.699l0,0l1.409,1.409l0,0l0.716,0.716l0,0l1.409,1.409l0,0l9.771,9.771l0,0L18.826,18.825L18.826,18.825z M15.946,18.774L6.29,9.118c-0.777,1.121-1.241,2.477-1.241,3.947c0,3.843,3.108,6.951,6.951,6.951C13.47,20.016,14.825,19.552,15.946,18.774z"/>
</svg>
