<svg version="1.1" id="master" xmlns="http://www.w3.org/2000/svg" xmlns:xlink="http://www.w3.org/1999/xlink" x="0px" y="0px"
	 width="24px" height="24px" viewBox="0 0 24 24" enable-background="new 0 0 24 24" xml:space="preserve">
<rect fill="none" width="24" height="24"/>
<path d="M12.172,6.172c3.803,0,6.88,3.076,6.88,6.879c0,0.826-0.158,1.623-0.423,2.359l1.493,1.494
	c0.57-1.17,0.895-2.467,0.895-3.854c0-4.884-3.96-8.845-8.845-8.845c-1.386,0-2.683,0.325-3.853,0.895l1.494,1.494
	C10.551,6.329,11.347,6.172,12.172,6.172z M22,5.897l-4.521-3.794l-1.269,1.504L20.731,7.4L22,5.897z M3.248,2.526L2,3.784
	l1.308,1.307L2.217,6.005L3.612,7.4l1.091-0.924l0.786,0.786c-1.347,1.553-2.162,3.578-2.162,5.788c0,4.886,3.95,8.846,8.844,8.846
	c2.211,0,4.236-0.816,5.789-2.162l2.161,2.162l1.248-1.249L4.202,3.489L3.248,2.526z M16.565,18.35
	c-1.19,0.982-2.723,1.582-4.394,1.582c-3.804,0-6.879-3.076-6.879-6.881c0-1.67,0.599-3.203,1.583-4.392L16.565,18.35z M8.261,3.499
	L6.865,2.104L6.02,2.801l1.396,1.396L8.261,3.499z"/>
</svg>
