<svg version="1.1" id="master" xmlns="http://www.w3.org/2000/svg" xmlns:xlink="http://www.w3.org/1999/xlink" x="0px" y="0px" width="24px" height="24px" viewBox="0 0 24 24" enable-background="new 0 0 24 24" xml:space="preserve">
<rect fill="none" width="24" height="24"/>
<path d="M21.931,5.833L17.363,2l-1.282,1.52l4.568,3.833L21.931,5.833z M7.908,3.52L6.638,2L2.069,5.823l1.281,1.52L7.908,3.52z M12,4.125c-4.936,0-8.938,4.002-8.938,8.938C3.063,17.999,7.055,22,12,22c4.937,0,8.938-4.001,8.938-8.938C20.938,8.127,16.937,4.125,12,4.125z M12,20.014c-3.844,0-6.951-3.107-6.951-6.951c0-3.843,3.107-6.951,6.951-6.951c3.843,0,6.951,3.108,6.951,6.951C18.951,16.906,15.843,20.014,12,20.014z M10.55,14.581l-2.115-2.114L7.382,13.52l3.158,3.158l5.958-5.959l-1.052-1.053L10.55,14.581z"/>
</svg>
