<svg version="1.1" id="master" xmlns="http://www.w3.org/2000/svg" xmlns:xlink="http://www.w3.org/1999/xlink" x="0px" y="0px" width="24px" height="24px" viewBox="0 0 24 24" enable-background="new 0 0 24 24" xml:space="preserve">
<rect fill="none" width="24" height="24"/>
<path d="M4.633,2C3.181,1.998,2.002,3.174,2,4.626l0,0v14.742C2.001,20.822,3.18,22,4.633,22h14.734C20.822,22,22,20.816,22,19.367V4.633C22,3.178,20.816,2,19.367,2H4.633z M11.192,4.912h2.024c0.479,0,0.867,0.387,0.868,0.866c0,0,0,0.001,0,0.002v0.685c0.002,0.064-0.049,0.118-0.113,0.12c-0.012,0-0.021-0.001-0.032-0.003c-0.555-0.153-1.128-0.23-1.703-0.23c-0.596,0-1.188,0.083-1.761,0.248c-0.079,0.018-0.152-0.037-0.152-0.117V5.779C10.323,5.301,10.711,4.914,11.192,4.912L11.192,4.912z M7.567,6.762c0.234-0.003,0.459,0.089,0.625,0.255l0.345,0.347c0.048,0.054,0.042,0.139-0.018,0.175C8.239,7.739,7.977,7.962,7.734,8.206c-0.24,0.241-0.461,0.501-0.661,0.776C7.025,9.037,6.946,9.049,6.891,8.996l-0.34-0.341C6.211,8.317,6.21,7.768,6.55,7.429c0,0,0,0,0.001-0.001l0.414-0.412C7.124,6.857,7.34,6.766,7.567,6.762L7.567,6.762z M12.231,7.053c3.118-0.006,5.65,2.517,5.656,5.634c0,0.005,0,0.01,0,0.014c0,3.123-2.532,5.653-5.654,5.652c0,0-0.001,0-0.001,0c-3.124,0-5.658-2.522-5.658-5.646C6.574,9.583,9.107,7.052,12.231,7.053C12.23,7.053,12.231,7.053,12.231,7.053L12.231,7.053z M12.231,8.727c-2.199,0-3.983,1.781-3.986,3.98c0.003,2.198,1.787,3.979,3.986,3.979c2.199,0.004,3.984-1.776,3.986-3.975c0-0.002,0-0.003,0-0.004C16.215,10.507,14.43,8.726,12.231,8.727z M12.352,9.425c1.139,0.042,2.174,0.669,2.734,1.657c0.029,0.061,0.012,0.133-0.048,0.164L12.4,12.609c-0.078,0.044-0.171-0.019-0.171-0.104V9.542h0.002C12.231,9.475,12.291,9.426,12.352,9.425L12.352,9.425z"/>
</svg>
