<svg version="1.1" id="master" xmlns="http://www.w3.org/2000/svg" xmlns:xlink="http://www.w3.org/1999/xlink" x="0px" y="0px"
	 width="24px" height="24px" viewBox="0 0 24 24" enable-background="new 0 0 24 24" xml:space="preserve">
<rect fill="none" width="24" height="24"/>
<path d="M7.313,12.626c0.127,0,0.249-0.024,0.365-0.073c0.115-0.05,0.216-0.117,0.3-0.201s0.15-0.183,0.2-0.295
	c0.049-0.113,0.073-0.236,0.073-0.37c0-0.127-0.024-0.248-0.073-0.361c-0.05-0.113-0.118-0.213-0.205-0.3
	c-0.087-0.087-0.187-0.155-0.3-0.204c-0.113-0.049-0.233-0.074-0.36-0.074c-0.128,0-0.248,0.024-0.361,0.074
	c-0.113,0.05-0.213,0.117-0.3,0.204c-0.087,0.087-0.155,0.187-0.204,0.3c-0.05,0.113-0.074,0.233-0.074,0.361
	s0.024,0.248,0.074,0.361c0.049,0.113,0.117,0.213,0.204,0.3c0.087,0.087,0.187,0.155,0.3,0.205
	C7.065,12.602,7.186,12.626,7.313,12.626z M20.436,8.423c-0.209-0.745-0.504-1.441-0.884-2.087c-0.379-0.647-0.836-1.237-1.368-1.77
	c-0.535-0.534-1.125-0.991-1.771-1.37c-0.647-0.38-1.343-0.674-2.087-0.883C13.581,2.104,12.807,2,12,2
	c-0.806,0-1.581,0.104-2.327,0.312C8.928,2.521,8.232,2.815,7.586,3.195c-0.647,0.38-1.237,0.836-1.77,1.37
	c-0.533,0.534-0.99,1.124-1.369,1.77c-0.38,0.647-0.675,1.342-0.883,2.087c-0.209,0.744-0.313,1.52-0.313,2.326
	c0,1.119,0.191,2.166,0.574,3.143c0.383,0.979,0.946,1.883,1.687,2.719c0.412,0.464,0.829,0.916,1.253,1.361
	c0.423,0.443,0.843,0.891,1.261,1.342c0.261,0.285,0.518,0.573,0.77,0.865c0.252,0.293,0.518,0.57,0.795,0.831
	c0.348,0.331,0.716,0.578,1.104,0.743C11.084,21.918,11.519,22,12,22c0.452,0,0.896-0.087,1.33-0.26
	c0.436-0.174,0.809-0.43,1.122-0.766l4.052-4.375c0.365-0.394,0.688-0.82,0.967-1.276c0.277-0.459,0.512-0.938,0.699-1.437
	c0.189-0.498,0.331-1.012,0.43-1.543c0.099-0.53,0.148-1.062,0.148-1.595C20.748,9.944,20.645,9.168,20.436,8.423z M7.852,15.479
	c-0.418-0.181-0.783-0.426-1.096-0.734c-0.313-0.311-0.56-0.676-0.739-1.092c-0.18-0.418-0.27-0.863-0.27-1.339v-1.565
	c0-0.168,0.063-0.314,0.187-0.439c0.125-0.125,0.271-0.187,0.439-0.187h1.565c0.475,0,0.922,0.09,1.339,0.27
	c0.417,0.18,0.781,0.426,1.091,0.739c0.311,0.313,0.556,0.678,0.735,1.096c0.179,0.417,0.27,0.864,0.27,1.339v1.555h0.001
	c0,0.174-0.061,0.322-0.183,0.443c-0.122,0.123-0.27,0.184-0.443,0.184H9.191C8.715,15.748,8.269,15.658,7.852,15.479z
	 M14.365,17.998c-0.094,0.116-0.215,0.221-0.365,0.313c-0.15,0.094-0.318,0.176-0.504,0.248s-0.371,0.133-0.557,0.18
	c-0.187,0.046-0.361,0.08-0.526,0.104S12.11,18.879,12,18.879s-0.248-0.012-0.413-0.035s-0.341-0.059-0.526-0.104
	s-0.371-0.106-0.557-0.18c-0.186-0.072-0.352-0.153-0.5-0.248c-0.147-0.092-0.268-0.197-0.36-0.315
	c-0.093-0.119-0.14-0.248-0.14-0.388c0-0.168,0.062-0.313,0.183-0.438c0.122-0.125,0.268-0.188,0.436-0.188
	c0.087,0,0.192,0.033,0.317,0.101c0.124,0.067,0.267,0.14,0.426,0.218c0.159,0.079,0.333,0.151,0.521,0.219
	c0.188,0.066,0.392,0.098,0.613,0.098c0.215,0,0.419-0.033,0.613-0.1c0.193-0.067,0.371-0.14,0.533-0.219
	c0.164-0.078,0.306-0.15,0.428-0.218c0.121-0.065,0.223-0.101,0.304-0.101c0.174,0,0.322,0.064,0.442,0.191
	c0.123,0.127,0.184,0.275,0.184,0.443C14.504,17.754,14.458,17.883,14.365,17.998z M18.252,12.313c0,0.476-0.09,0.921-0.27,1.339
	c-0.181,0.416-0.426,0.781-0.734,1.092c-0.311,0.311-0.674,0.555-1.092,0.734c-0.417,0.18-0.863,0.27-1.34,0.27h-1.564
	c-0.174,0-0.32-0.061-0.443-0.184c-0.121-0.121-0.183-0.271-0.183-0.443v-1.557c0-0.476,0.09-0.922,0.271-1.338
	c0.18-0.417,0.424-0.783,0.734-1.096s0.674-0.56,1.092-0.739c0.416-0.179,0.863-0.27,1.338-0.27h1.565v0.001
	c0.168,0,0.313,0.063,0.438,0.187c0.125,0.125,0.188,0.271,0.188,0.439V12.313z M15.443,12.626c0.127,0,0.248-0.024,0.365-0.073
	c0.115-0.05,0.215-0.118,0.295-0.205c0.082-0.087,0.146-0.187,0.195-0.3c0.051-0.113,0.074-0.233,0.074-0.361
	s-0.023-0.248-0.074-0.361c-0.049-0.113-0.115-0.213-0.199-0.3s-0.184-0.155-0.295-0.204c-0.113-0.049-0.234-0.074-0.361-0.074
	s-0.248,0.024-0.36,0.074c-0.112,0.049-0.214,0.117-0.301,0.204s-0.154,0.187-0.204,0.3c-0.049,0.113-0.074,0.233-0.074,0.361
	c0,0.133,0.025,0.256,0.074,0.37c0.05,0.113,0.115,0.211,0.199,0.295s0.184,0.151,0.297,0.201
	C15.188,12.602,15.311,12.626,15.443,12.626z"/>
</svg>
