<svg version="1.1" id="master" xmlns="http://www.w3.org/2000/svg" xmlns:xlink="http://www.w3.org/1999/xlink" x="0px" y="0px"
	 width="24px" height="24px" viewBox="0 0 24 24" enable-background="new 0 0 24 24" xml:space="preserve">
<rect fill="none" width="24" height="24"/>
<path d="M5.631,17.288c-0.751-0.075-1.503-0.217-2.237-0.418l-0.066-0.016l0.017-0.067c0.217-0.709,0.493-1.401,0.818-2.063
	l0.033-0.066l0.059,0.034c0.492,0.275,1.019,0.525,1.544,0.743l0.05,0.017l-0.008,0.05c-0.084,0.56-0.125,1.136-0.142,1.711v0.075
	H5.631z M7.25,7.18V7.163C6.816,7.171,6.382,7.196,5.956,7.246C6.007,7.688,6.09,8.122,6.182,8.549
	C6.482,8.048,6.841,7.589,7.25,7.18z M5.706,17.797v-0.059L5.647,17.73c-0.634-0.059-1.277-0.167-1.911-0.317l-0.167-0.042
	l0.092,0.15c0.576,0.868,1.277,1.637,2.087,2.287l0.133,0.109L5.856,19.75C5.765,19.083,5.715,18.424,5.706,17.797z M8.803,2.563
	C8.026,2.831,7.292,3.189,6.616,3.632c0.509,0.092,1.019,0.209,1.511,0.359C8.327,3.498,8.553,3.03,8.803,2.563z M12.033,2.029
	c-0.384,0-0.76,0.025-1.135,0.066c0.525,0.368,1.034,0.769,1.511,1.211l0.401,0.367l-0.394,0.375
	c-0.325,0.31-0.634,0.644-0.935,1.002l-0.017,0.017c0,0-0.059,0.066-0.15,0.176c0.233-0.025,0.476-0.042,0.718-0.042
	c3.747,0,6.795,3.038,6.795,6.795c0,3.748-3.038,6.795-6.795,6.795c-1.302,0-2.521-0.367-3.548-1.003
	c-0.509,0.059-1.019,0.084-1.535,0.084c-0.242,0-0.477-0.009-0.719-0.017c0.018,0.776,0.093,1.569,0.218,2.404
	c1.594,1.076,3.514,1.711,5.584,1.711c5.51,0,9.967-4.466,9.967-9.967C22,6.495,17.543,2.029,12.033,2.029z M10.714,4.383
	c0.201-0.233,0.401-0.459,0.609-0.684c-0.467-0.401-0.959-0.76-1.478-1.086C9.529,3.147,9.254,3.707,9.021,4.274
	c0.45,0.167,0.885,0.359,1.318,0.568C10.531,4.584,10.673,4.434,10.714,4.383z M3.945,10.076l0.041,0.059l0.059-0.042
	C4.504,9.759,4.988,9.45,5.489,9.175l0.05-0.017l-0.017-0.06C5.372,8.54,5.255,7.956,5.181,7.363L5.172,7.297L5.105,7.313
	C4.37,7.446,3.636,7.646,2.935,7.897L2.868,7.923l0.024,0.066C3.186,8.707,3.536,9.408,3.945,10.076z M3.828,11.036L3.77,11.077
	c-0.534,0.435-1.043,0.919-1.511,1.437l-0.05,0.05l0.05,0.042c0.518,0.45,1.077,0.867,1.661,1.235l0.059,0.041l0.033-0.059
	c0.259-0.467,0.56-0.926,0.876-1.368l0.034-0.042l-0.034-0.042c-0.367-0.409-0.709-0.834-1.026-1.285L3.828,11.036z M7.743,17.321
	l0.175-0.008l-0.133-0.108c-0.535-0.434-0.994-0.944-1.369-1.528v-0.016L6.308,15.61L6.29,15.701
	c-0.066,0.502-0.108,1.02-0.116,1.554v0.066H6.24c0.233,0.018,0.476,0.018,0.71,0.018C7.208,17.347,7.476,17.339,7.743,17.321z
	 M7.409,6.312c0.108-0.492,0.242-0.977,0.4-1.452C7.184,4.684,6.541,4.55,5.898,4.458C5.84,5.109,5.831,5.761,5.873,6.403
	C6.382,6.345,6.899,6.32,7.409,6.312z M8.369,6.278c0.434-0.276,0.901-0.51,1.394-0.685c-0.351-0.159-0.701-0.31-1.068-0.442
	C8.569,5.519,8.46,5.902,8.369,6.278z M3.736,14.375l-0.05-0.033c-0.518-0.326-1.011-0.685-1.478-1.069l-0.134-0.107l0.025,0.174
	c0.125,0.961,0.392,1.888,0.784,2.771l0.067,0.159L3.01,16.11c0.192-0.566,0.435-1.126,0.701-1.661L3.736,14.375z M5.014,4.917
	C4.421,5.51,3.895,6.17,3.469,6.896C3.986,6.745,4.504,6.62,5.03,6.528C4.996,5.994,4.988,5.46,5.014,4.917z M5.314,11.912
	l0.008-0.175c0.024-0.609,0.125-1.202,0.309-1.778l0.051-0.167l-0.15,0.084c-0.393,0.225-0.777,0.476-1.145,0.742L4.329,10.66
	l0.041,0.059c0.259,0.367,0.534,0.726,0.827,1.068L5.314,11.912z M5.381,12.931l-0.025-0.167l-0.101,0.15
	c-0.275,0.393-0.534,0.793-0.768,1.21l-0.033,0.059l0.059,0.034c0.417,0.232,0.859,0.45,1.302,0.642l0.158,0.067l-0.074-0.158
	C5.64,14.183,5.464,13.565,5.381,12.931z M3.436,10.552l0.05-0.042l-0.033-0.05C3.144,9.959,2.859,9.434,2.609,8.899l-0.075-0.15
	l-0.05,0.167c-0.292,0.901-0.451,1.845-0.477,2.796L2,11.888l0.125-0.126C2.534,11.328,2.977,10.911,3.436,10.552z"/>
</svg>
