<svg version="1.1" id="master" xmlns="http://www.w3.org/2000/svg" xmlns:xlink="http://www.w3.org/1999/xlink" x="0px" y="0px"
	 width="24px" height="24px" viewBox="0 0 24 24" enable-background="new 0 0 24 24" xml:space="preserve">
<rect fill="none" width="24" height="24"/>
<path d="M6.557,12.669c-2.363-0.148-4.4,1.646-4.549,4.01s1.646,4.4,4.009,4.549c0.001,0,0.002,0,0.003,0
	c2.363,0.148,4.398-1.648,4.546-4.012C10.713,14.854,8.918,12.818,6.557,12.669z M21.424,14.805l-5.717-9.901
	c-1.186-2.05-3.808-2.751-5.858-1.566c-2.05,1.185-2.751,3.807-1.567,5.857l5.718,9.898c1.183,2.052,3.806,2.755,5.858,1.571
	C21.908,19.479,22.609,16.856,21.424,14.805C21.425,14.806,21.425,14.805,21.424,14.805L21.424,14.805z"/>
</svg>
