<svg version="1.1" id="master" xmlns="http://www.w3.org/2000/svg" xmlns:xlink="http://www.w3.org/1999/xlink" x="0px" y="0px" width="24px" height="24px" viewBox="0 0 24 24" enable-background="new 0 0 24 24" xml:space="preserve">
<rect fill="none" width="24" height="24"/>
<path d="M21.58,15.346h-1.129c-0.126,0.593-0.348,1.138-0.635,1.642l-2.779-2.779l1.912-1.912c0.162-0.163,0.429-0.163,0.591,0l2.336,2.335C22.141,14.895,21.952,15.346,21.58,15.346z M14.829,12l-6.12-6.119c0.264-1.601,1.655-2.821,3.336-2.798c1.819,0.025,3.297,1.524,3.297,3.344c0,1.456-0.93,2.694-2.229,3.153v0.19h1.812c0.23,0,0.418,0.187,0.418,0.418v1.394c0,0.231-0.189,0.418-0.418,0.418H14.829z M13.115,6.426c0-0.615-0.5-1.115-1.115-1.115s-1.115,0.5-1.115,1.115c0,0.614,0.5,1.114,1.115,1.114S13.115,7.04,13.115,6.426z M18.553,18.553l2.033,2.033L19.171,22l-2.29-2.29c-1.469,0.786-3.201,1.208-4.882,1.208c-3.695,0-7.693-1.994-8.453-5.572H2.418c-0.372,0-0.558-0.451-0.294-0.715l2.335-2.335c0.163-0.163,0.428-0.163,0.591,0l2.335,2.335c0.264,0.264,0.078,0.715-0.295,0.715H5.865c0.707,1.891,2.968,3.016,5.021,3.274v-4.905L9.171,12H9.074c-0.232,0-0.418-0.187-0.418-0.417v-0.098L2,4.828l1.414-1.414l6.357,6.357l3.343,3.343l3.854,3.854L18.553,18.553z M15.219,18.048l-2.104-2.104v2.677C13.819,18.531,14.541,18.337,15.219,18.048z"/>
</svg>
