<svg version="1.1" id="master" xmlns="http://www.w3.org/2000/svg" xmlns:xlink="http://www.w3.org/1999/xlink" x="0px" y="0px" width="24px" height="24px" viewBox="0 0 24 24" enable-background="new 0 0 24 24" xml:space="preserve">
<rect fill="none" width="24" height="24"/>
<path d="M12,2c-4.942,0-8.955,4.013-8.955,8.955c0,2.742,1.235,5.197,3.179,6.842l3.758-6.5l-0.327-0.326c-0.096-0.096-0.144-0.177-0.146-0.252c0-0.008,0-0.016,0-0.024H9.5V8.563c0-0.513,0.424-0.936,0.938-0.936h0.529V5.949h2.075v1.678h0.521c0.521,0,0.938,0.423,0.945,0.944v2.116H14.5v0.008h-0.002c-0.002,0.072-0.043,0.167-0.145,0.269l-0.008,0.008l-0.326,0.326l1.611,2.785c0.725-0.847,1.164-1.938,1.164-3.127h1.67c0,1.816-0.758,3.462-1.963,4.635l1.274,2.208c1.944-1.644,3.179-4.101,3.179-6.843C20.963,6.005,16.95,2,12,2L12,2z M17.776,17.798c-0.429,0.362-0.89,0.683-1.377,0.958l1.267,2.189c0.039,0.07,0.096,0.129,0.164,0.172l1.254,0.854c0.049,0.033,0.105,0.033,0.154,0.009c0.049-0.032,0.073-0.081,0.073-0.138l-0.13-1.506c-0.009-0.082-0.033-0.155-0.074-0.229L17.776,17.798L17.776,17.798z M16.399,18.756l-1.248-2.158c-0.96,0.54-2.042,0.823-3.143,0.822c-1.101,0.001-2.184-0.282-3.143-0.822l-1.25,2.166c1.296,0.73,2.792,1.148,4.385,1.148C13.599,19.912,15.1,19.492,16.399,18.756z M7.615,18.764c-0.493-0.278-0.959-0.602-1.392-0.967L4.892,20.1c-0.041,0.073-0.065,0.146-0.073,0.228l-0.114,1.514c-0.008,0.058,0.024,0.106,0.073,0.139s0.105,0.024,0.154-0.009l1.253-0.846c0.065-0.049,0.122-0.105,0.163-0.171L7.615,18.764z M12,8.44v0.017c-0.69,0-1.243,0.552-1.245,1.25c0.002,0.69,0.563,1.248,1.245,1.248h0.008c0.683-0.008,1.243-0.558,1.246-1.248c-0.003-0.69-0.563-1.242-1.246-1.25L12,8.44z M11.21,12.527L9.695,15.15c0.706,0.39,1.499,0.594,2.305,0.594c0.838,0,1.629-0.212,2.297-0.586l-1.512-2.625l-0.313,0.313c-0.122,0.129-0.293,0.194-0.464,0.194h-0.017c-0.163,0-0.333-0.065-0.464-0.194L11.21,12.527z"/>
</svg>
