<svg version="1.1" id="master" xmlns="http://www.w3.org/2000/svg" xmlns:xlink="http://www.w3.org/1999/xlink" x="0px" y="0px" width="24px" height="24px" viewBox="0 0 24 24" enable-background="new 0 0 24 24" xml:space="preserve">
<rect fill="none" width="24" height="24"/>
<path d="M15,11.4v1.201C15,12.821,14.82,13,14.6,13H9.4C9.179,13,9,12.821,9,12.601V11.4C9,11.179,9.179,11,9.4,11h5.2C14.82,11,15,11.179,15,11.4z M12,15c-0.552,0-1,0.447-1,0.999c0,0.553,0.447,1.001,1,1.001c0,0,0,0,0.001,0c0.552,0,0.999-0.448,0.999-1.001C12.999,15.447,12.552,15,12,15z M14.6,8H9.4C9.179,8,9,8.179,9,8.4v1.2C9,9.821,9.179,10,9.4,10h5.2C14.82,10,15,9.821,15,9.6V8.4C15,8.179,14.82,8,14.6,8z M21.3,5.33l-1.431,12.28L11.98,22L4.1,17.61L2.7,5.33L11.98,2L21.3,5.33z M16,7.2C16,6.537,15.463,6,14.8,6l0,0H9.2C8.537,6,8,6.537,8,7.2l0,0v9.6C8,17.462,8.538,18,9.2,18h5.6c0.663,0,1.2-0.538,1.2-1.2l0,0V7.2z"/>
</svg>
