<svg version="1.1" id="master" xmlns="http://www.w3.org/2000/svg" xmlns:xlink="http://www.w3.org/1999/xlink" x="0px" y="0px"
	 width="24px" height="24px" viewBox="0 0 24 24" enable-background="new 0 0 24 24" xml:space="preserve">
<rect fill="none" width="24" height="24"/>
<path d="M10.848,11.561l3.904,3.079l-2.584-6.385L10.848,11.561z M12,2C6.476,2,2,6.476,2,12c0,5.524,4.476,10,10,10
	c5.524,0,10-4.476,10-10C22,6.476,17.524,2,12,2z M16.831,16.421c-0.009,0.392-0.336,0.701-0.729,0.691
	c-0.197,0-0.347-0.075-0.554-0.244l-5.158-4.167l-1.732,4.336H7.159l4.373-10.504c0.103-0.262,0.356-0.433,0.637-0.421
	c0.271-0.012,0.525,0.157,0.618,0.421l3.979,9.578c0.038,0.093,0.067,0.195,0.067,0.291C16.831,16.409,16.831,16.409,16.831,16.421z
	"/>
</svg>
