<svg version="1.1" id="master" xmlns="http://www.w3.org/2000/svg" xmlns:xlink="http://www.w3.org/1999/xlink" x="0px" y="0px"
	 width="24px" height="24px" viewBox="0 0 24 24" enable-background="new 0 0 24 24" xml:space="preserve">
<rect fill="none" width="24" height="24"/>
<path d="M15.189,2c-0.119,0-0.236,0.033-0.338,0.095
	c-0.313,0.185-0.834,0.709-1.456,1.469l-0.13,0.16c-0.165,0.205-0.336,0.427-0.512,0.661c-0.599,0.799-1.159,1.625-1.681,2.476
	l-0.019,0.03l-0.036,0.06c-0.512,0.835-0.986,1.691-1.424,2.567c-0.345,0.693-0.65,1.405-0.917,2.131
	c-0.076,0.209-0.146,0.411-0.209,0.605c-0.051,0.166-0.102,0.332-0.147,0.498c-0.111,0.389-0.207,0.777-0.285,1.164l0.001,0.002
	l-0.012,0.051c-0.093,0.466-0.158,0.937-0.193,1.41l-0.005,0.049c-0.233-0.374-0.857-0.738-0.856-0.734
	c0.447,0.648,0.787,1.291,0.837,1.923c-0.239,0.05-0.567-0.021-0.947-0.161c0.396,0.363,0.692,0.463,0.808,0.49
	c-0.363,0.021-0.74,0.271-1.121,0.559c0.557-0.228,1.007-0.316,1.329-0.244C7.328,18.828,6.816,20.408,6.34,22
	c0.145-0.041,0.259-0.152,0.304-0.295c0.092-0.308,0.697-2.322,1.647-4.971l0.081-0.227l0.023-0.064
	c0.101-0.277,0.204-0.561,0.313-0.85l0.073-0.197l0.002-0.004L8.28,14.398l0.503,0.993c0.1-0.265,0.2-0.532,0.305-0.803l0.043-0.113
	l0.044-0.114l0.034-0.087l-0.034,0.088l-0.044,0.113l-0.043,0.113c-0.104,0.271-0.205,0.538-0.305,0.803l0.089,0.173l0.078-0.008
	l0.008-0.023c0.128-0.348,0.254-0.688,0.379-1.017l0.004-0.012c-0.129,0.342-0.257,0.685-0.382,1.028l-0.008,0.023l-0.056,0.152
	c-0.099,0.271-0.198,0.546-0.297,0.828l-0.005,0.012l-0.042,0.119c-0.066,0.189-0.125,0.361-0.258,0.75
	c0.22,0.1,0.396,0.363,0.562,0.661C8.84,17.764,8.7,17.468,8.468,17.255c1.08,0.048,2.011-0.224,2.492-1.015
	c0.044-0.07,0.083-0.144,0.118-0.223c-0.219,0.277-0.49,0.395-1.001,0.365c0.752-0.336,1.129-0.658,1.462-1.193
	c0.084-0.137,0.162-0.277,0.234-0.42c-0.657,0.676-1.418,0.867-2.221,0.721H9.551l-0.034-0.006c0.72-0.089,1.675-0.627,2.294-1.289
	c0.284-0.307,0.543-0.668,0.782-1.089c0.179-0.314,0.345-0.663,0.505-1.048c0.139-0.337,0.271-0.702,0.401-1.098
	c-0.212,0.108-0.44,0.182-0.675,0.217c-0.039,0.007-0.077,0.013-0.115,0.019l0.002-0.001l0.002-0.001
	c0.037-0.005,0.074-0.011,0.111-0.017c0.037-0.007,0.074-0.014,0.111-0.022l-0.111,0.02l-0.109,0.019
	c0.668-0.258,1.09-0.756,1.396-1.364c-0.244,0.167-0.518,0.286-0.807,0.353c-0.047,0.01-0.095,0.019-0.143,0.026l-0.035,0.005v0
	l0.008-0.001l0.026-0.004c0.044-0.007,0.088-0.015,0.131-0.024l0.012-0.002l-0.013,0.002l-0.162,0.027
	c0.231-0.098,0.428-0.206,0.598-0.334c0.125-0.097,0.239-0.206,0.342-0.326c0.067-0.079,0.13-0.165,0.188-0.258l0.054-0.086
	l0.064-0.127c0.114-0.231,0.216-0.467,0.307-0.709l0.026-0.073c0.022-0.071,0.043-0.134,0.058-0.189
	c0.022-0.083,0.036-0.148,0.044-0.196c-0.024,0.02-0.051,0.038-0.078,0.053c-0.203,0.121-0.55,0.231-0.83,0.282l-0.082,0.009
	l-0.001,0.001l-1.89,0.208l-0.01,0.02l-0.064,0.132l-0.196,0.406l-0.036,0.078l0.036-0.078c0.066-0.138,0.131-0.274,0.196-0.406
	l0.064-0.132c0.003-0.007,0.007-0.014,0.01-0.021l-0.07,0.007l-0.056-0.11c-0.106,0.211-0.212,0.423-0.314,0.636l-0.171,0.354
	c-0.315,0.663-0.618,1.331-0.909,2.005c-0.311,0.719-0.611,1.441-0.901,2.169l0.071-0.18c0.269-0.667,0.545-1.33,0.83-1.989
	c0.291-0.674,0.594-1.343,0.909-2.006l0.171-0.354c0.098-0.203,0.197-0.404,0.298-0.604l0.017-0.031
	c0.159-0.315,0.32-0.625,0.482-0.93c0.174-0.325,0.351-0.643,0.528-0.951c0.18-0.314,0.367-0.625,0.56-0.932l0.033-0.054
	c0.187-0.295,0.375-0.579,0.564-0.851c0.384-0.558,0.808-1.086,1.269-1.583l-0.049,0.051c-0.133,0.147-0.537,0.618-1.146,1.553
	c0.587-0.029,1.487-0.149,2.223-0.275c0.218-1.225-0.214-1.785-0.214-1.785s-0.371-0.599-0.86-0.604L15.189,2z M13.815,8.256
	c0.55-0.253,0.797-0.482,1.035-0.813c0.063-0.092,0.128-0.187,0.19-0.286c0.194-0.302,0.385-0.637,0.555-0.968
	c0.164-0.32,0.309-0.638,0.42-0.924c0.064-0.164,0.12-0.33,0.166-0.5c0.035-0.131,0.063-0.256,0.083-0.374
	c-0.735,0.125-1.637,0.246-2.224,0.274c-0.199,0.308-0.393,0.619-0.58,0.935c-0.17,0.288-0.352,0.603-0.541,0.948
	c-0.348,0.63-0.68,1.269-0.995,1.916L13.815,8.256L13.815,8.256z M16.839,3.832v0.055h0.13v0.366h0.061V3.887h0.131V3.832H16.839
	L16.839,3.832z M17.225,3.832v0.422h0.055V3.919l0.145,0.29h0.037l0.145-0.29v0.334h0.055V3.832h-0.072l-0.146,0.294l-0.146-0.294
	H17.225L17.225,3.832z M13.885,8.25L13.8,8.263l0.001-0.001L13.885,8.25L13.885,8.25z M13.81,8.259l-0.004,0.002L13.81,8.259z
	 M11.526,9.294l-0.089,0.189l-0.11,0.239c-0.265,0.576-0.521,1.155-0.768,1.738c-0.287,0.675-0.564,1.355-0.833,2.039
	c-0.123,0.315-0.248,0.638-0.374,0.969l-0.004,0.012c0.596-1.611,1.256-3.198,1.979-4.757l0.11-0.239L11.526,9.294z"/>
</svg>
