<svg version="1.1" id="master" xmlns="http://www.w3.org/2000/svg" xmlns:xlink="http://www.w3.org/1999/xlink" x="0px" y="0px"
	 width="24px" height="24px" viewBox="0 0 24 24" enable-background="new 0 0 24 24" xml:space="preserve">
<rect fill="none" width="24" height="24"/>
<path d="M12.001,2C6.48,2,2.003,6.477,2.003,11.999c0.001,0.689,0.071,1.375,0.208,2.05c0.899-0.245,1.826-0.374,2.758-0.384
	c1.479-0.004,2.942,0.309,4.291,0.918l0.633-0.418c2.859-1.733,6.373-2.005,9.466-0.732c0.055,0.025,0.09,0.08,0.092,0.142
	c0,0.042-0.018,0.082-0.051,0.108c-0.035,0.013-0.074,0.013-0.107,0h-0.209c-0.248-0.013-0.494-0.013-0.742,0
	c-2.796-0.096-5.519,0.902-7.59,2.783c-0.355,0.344-0.681,0.718-0.975,1.116l-0.092,0.125c-0.032,0.012-0.068,0.012-0.1,0
	c-0.032,0.012-0.067,0.012-0.1,0c-1.923-1.636-4.394-2.485-6.916-2.374c1.84,5.206,7.553,7.934,12.759,6.093
	c5.206-1.841,7.934-7.554,6.095-12.76C20.012,4.672,16.237,2.002,12.001,2z M19.826,7.982h-0.467
	c-1.918-0.284-3.851,0.392-5.175,1.808c-0.05,0.05-0.1,0.059-0.149,0c-1.042-1.104-2.475-1.759-3.992-1.824
	c-0.556-0.05-1.117-0.025-1.667,0.075c-0.06,0-0.108-0.048-0.108-0.108c-0.011-0.027-0.011-0.056,0-0.083
	c1.819-0.949,3.996-0.911,5.783,0.1c1.738-0.998,3.854-1.079,5.665-0.217l0.117,0.066c0.037,0.015,0.061,0.052,0.059,0.092
	c0.006,0.024,0.006,0.051,0,0.075C19.873,7.979,19.85,7.986,19.826,7.982z"/>
</svg>
