<svg version="1.1" id="master" xmlns="http://www.w3.org/2000/svg" xmlns:xlink="http://www.w3.org/1999/xlink" x="0px" y="0px" width="24px" height="24px" viewBox="0 0 24 24" enable-background="new 0 0 24 24" xml:space="preserve">
<rect fill="none" width="24" height="24"/>
<path d="M21.996,7.104c0-0.615-0.055-1.226-0.2-1.825c-0.265-1.092-0.885-1.925-1.816-2.535c-0.479-0.313-1.004-0.506-1.564-0.606c-0.431-0.077-0.865-0.112-1.304-0.125c-0.033-0.003-0.069-0.008-0.104-0.011H6.988C6.861,2.009,6.736,2.016,6.609,2.022C5.987,2.059,5.367,2.125,4.781,2.357C3.669,2.799,2.865,3.566,2.395,4.674c-0.16,0.373-0.243,0.771-0.303,1.173C2.045,6.173,2.019,6.501,2.009,6.83c0,0.026-0.006,0.052-0.009,0.077v10.186c0.009,0.117,0.015,0.235,0.022,0.354c0.042,0.68,0.129,1.354,0.414,1.978c0.542,1.184,1.449,1.961,2.695,2.335c0.351,0.105,0.714,0.156,1.077,0.19c0.463,0.044,0.926,0.05,1.39,0.05h9.191c0.438,0,0.873-0.028,1.309-0.084c0.685-0.088,1.33-0.291,1.913-0.675c0.7-0.461,1.227-1.072,1.566-1.84c0.154-0.35,0.244-0.725,0.309-1.104c0.094-0.563,0.114-1.131,0.113-1.699c-0.001-3.167,0-6.33-0.002-9.494H21.996z M16.644,10.429v4.76c0,0.348-0.049,0.688-0.203,1.005c-0.242,0.491-0.634,0.802-1.157,0.949c-0.292,0.083-0.588,0.132-0.892,0.146c-0.792,0.037-1.477-0.501-1.618-1.281c-0.119-0.644,0.188-1.353,0.864-1.685c0.27-0.133,0.558-0.208,0.848-0.27c0.315-0.068,0.632-0.127,0.945-0.2c0.229-0.053,0.381-0.191,0.425-0.43c0.012-0.053,0.017-0.108,0.017-0.161c0-1.513,0-3.025-0.002-4.536c0-0.052-0.008-0.104-0.021-0.154c-0.034-0.125-0.126-0.202-0.254-0.195c-0.133,0.009-0.265,0.029-0.396,0.056c-0.634,0.125-1.267,0.252-1.899,0.38l-1.939,0.392l-1.145,0.231c-0.014,0.003-0.026,0.009-0.04,0.011c-0.23,0.064-0.314,0.17-0.325,0.408c-0.002,0.035,0,0.072,0,0.109c-0.002,2.168,0,4.336-0.003,6.503c0,0.35-0.039,0.696-0.179,1.023c-0.231,0.532-0.642,0.866-1.195,1.027C8.184,18.6,7.884,18.65,7.579,18.66c-0.8,0.029-1.463-0.5-1.6-1.287c-0.116-0.677,0.191-1.403,0.962-1.729c0.297-0.126,0.608-0.194,0.923-0.259c0.239-0.05,0.479-0.097,0.717-0.147c0.319-0.069,0.485-0.27,0.5-0.595v-0.126c0-2.466,0-4.935,0.001-7.4c0-0.103,0.012-0.209,0.035-0.309C9.176,6.57,9.345,6.435,9.572,6.377c0.213-0.056,0.43-0.094,0.645-0.138c0.611-0.125,1.223-0.247,1.834-0.37l1.892-0.383c0.559-0.112,1.116-0.226,1.675-0.337c0.184-0.035,0.369-0.073,0.554-0.088c0.258-0.021,0.436,0.142,0.461,0.402c0.007,0.061,0.011,0.123,0.011,0.186c0.002,1.592,0.002,3.185,0,4.776L16.644,10.429z"/>
</svg>
