<svg version="1.1" id="master" xmlns="http://www.w3.org/2000/svg" xmlns:xlink="http://www.w3.org/1999/xlink" x="0px" y="0px" width="24px" height="24px" viewBox="0 0 24 24" enable-background="new 0 0 24 24" xml:space="preserve">
<rect fill="none" width="24" height="24"/>
<path d="M19.857,9.896v7c0,0.511-0.072,1.011-0.299,1.476c-0.356,0.724-0.934,1.181-1.701,1.396c-0.43,0.124-0.866,0.195-1.312,0.216c-1.166,0.055-2.172-0.736-2.381-1.884c-0.175-0.946,0.277-1.99,1.272-2.478c0.396-0.196,0.818-0.306,1.246-0.397c0.463-0.101,0.93-0.187,1.391-0.293c0.336-0.079,0.56-0.281,0.623-0.633c0.019-0.078,0.025-0.16,0.025-0.237c0-2.224,0-4.447-0.003-6.668c0-0.077-0.011-0.153-0.031-0.227c-0.049-0.184-0.184-0.296-0.373-0.287c-0.195,0.013-0.39,0.043-0.582,0.083c-0.932,0.184-1.862,0.37-2.793,0.558L12.09,8.096l-1.684,0.34c-0.02,0.004-0.038,0.013-0.059,0.016c-0.338,0.094-0.461,0.25-0.477,0.6c-0.003,0.052,0,0.105,0,0.16c-0.003,3.188,0,6.375-0.004,9.562c0,0.514-0.058,1.023-0.264,1.505c-0.339,0.781-0.944,1.271-1.757,1.511c-0.428,0.12-0.869,0.194-1.317,0.209c-1.177,0.043-2.151-0.735-2.353-1.893c-0.171-0.996,0.281-2.062,1.414-2.541c0.437-0.187,0.894-0.286,1.358-0.382c0.351-0.073,0.704-0.143,1.054-0.216c0.469-0.102,0.713-0.397,0.735-0.876v-0.184c0-3.626,0-7.257,0.001-10.881c0-0.151,0.017-0.307,0.052-0.455c0.086-0.35,0.335-0.548,0.668-0.634C9.771,3.855,10.09,3.8,10.406,3.735c0.899-0.184,1.798-0.363,2.696-0.544l2.783-0.564c0.821-0.164,1.64-0.332,2.463-0.495c0.27-0.051,0.541-0.107,0.813-0.129c0.379-0.031,0.641,0.209,0.678,0.591c0.012,0.09,0.018,0.181,0.018,0.274c0.003,2.341,0.003,4.683,0,7.022V9.896z"/>
</svg>
