<svg version="1.1" id="master" xmlns="http://www.w3.org/2000/svg" xmlns:xlink="http://www.w3.org/1999/xlink" x="0px" y="0px" width="24px" height="24px" viewBox="0 0 24 24" enable-background="new 0 0 24 24" xml:space="preserve">
<rect fill="none" width="24" height="24"/>
<path d="M7,4.5C7,5.881,5.881,7,4.5,7S2,5.881,2,4.5S3.119,2,4.5,2S7,3.119,7,4.5z M12,2c-1.381,0-2.5,1.119-2.5,2.5S10.619,7,12,7s2.5-1.119,2.5-2.5S13.381,2,12,2z M19.5,2C18.119,2,17,3.119,17,4.5S18.119,7,19.5,7S22,5.881,22,4.5S20.881,2,19.5,2z M4.5,9.5C3.119,9.5,2,10.619,2,12s1.119,2.5,2.5,2.5S7,13.381,7,12S5.881,9.5,4.5,9.5z M12,9.5c-1.381,0-2.5,1.119-2.5,2.5s1.119,2.5,2.5,2.5s2.5-1.119,2.5-2.5S13.381,9.5,12,9.5z M19.5,9.5c-1.381,0-2.5,1.119-2.5,2.5s1.119,2.5,2.5,2.5S22,13.381,22,12S20.881,9.5,19.5,9.5z M4.5,17C3.119,17,2,18.119,2,19.5S3.119,22,4.5,22S7,20.881,7,19.5S5.881,17,4.5,17z M12,17c-1.381,0-2.5,1.119-2.5,2.5S10.619,22,12,22s2.5-1.119,2.5-2.5S13.381,17,12,17z M19.5,17c-1.381,0-2.5,1.119-2.5,2.5s1.119,2.5,2.5,2.5s2.5-1.119,2.5-2.5S20.881,17,19.5,17z"/>
</svg>
