<svg version="1.1" id="master" xmlns="http://www.w3.org/2000/svg" xmlns:xlink="http://www.w3.org/1999/xlink" x="0px" y="0px"
	 width="24px" height="24px" viewBox="0 0 24 24" enable-background="new 0 0 24 24" xml:space="preserve">
<rect fill="none" width="24" height="24"/>
<path d="M6.45,2C3.998,1.995,2.005,3.978,2,6.43c0,0.006,0,0.013,0,0.02v11.1
	C1.995,20.002,3.978,21.994,6.43,22c0.006,0,0.013,0,0.02,0h11.1c2.452,0.006,4.444-1.979,4.45-4.43c0-0.007,0-0.014,0-0.021V6.45
	c0.006-2.452-1.979-4.445-4.43-4.45c-0.007,0-0.014,0-0.021,0H6.45z M11.888,4.14c1.946,0,3.706,0.751,5.046,2.156
	c1.021,1.06,1.594,2.183,1.887,3.66c0.101,0.491,0.101,1.833,0.006,2.386c-0.312,1.759-1.275,3.335-2.699,4.414
	c-0.507,0.383-1.747,1.051-1.947,1.051c-0.073,0-0.08-0.076-0.047-0.383c0.061-0.494,0.121-0.596,0.4-0.714
	c0.447-0.187,1.207-0.729,1.674-1.196c0.813-0.813,1.392-1.831,1.673-2.946c0.173-0.687,0.153-2.213-0.04-2.92
	c-0.606-2.247-2.439-3.993-4.687-4.46c-0.653-0.133-1.84-0.133-2.5,0C8.38,5.654,6.5,7.487,5.927,9.794
	c-0.153,0.627-0.153,2.153,0,2.78c0.38,1.526,1.367,2.927,2.66,3.76c0.253,0.167,0.56,0.34,0.687,0.394
	c0.28,0.12,0.34,0.22,0.393,0.714C9.7,17.74,9.691,17.828,9.62,17.828c-0.047,0-0.387-0.147-0.747-0.32L8.84,17.482
	c-2.06-1.014-3.38-2.729-3.86-5.01c-0.12-0.588-0.14-1.994-0.025-2.534c0.3-1.45,0.873-2.583,1.827-3.586
	C8.155,4.905,9.922,4.139,11.888,4.14L11.888,4.14z M11.999,6.481c0.341,0.003,0.669,0.034,0.922,0.088
	c2.319,0.517,3.967,2.84,3.646,5.145c-0.126,0.929-0.446,1.691-1.013,2.4c-0.28,0.357-0.961,0.958-1.08,0.958
	c-0.02,0-0.041-0.227-0.041-0.503v-0.504l0.348-0.413c1.307-1.565,1.213-3.751-0.214-5.187c-0.554-0.559-1.193-0.887-2.021-1.039
	C12.014,7.33,11.9,7.33,11.341,7.422c-0.85,0.139-1.508,0.468-2.093,1.046c-1.434,1.42-1.527,3.619-0.22,5.185l0.344,0.413v0.507
	c0,0.28-0.022,0.507-0.05,0.507c-0.025,0-0.22-0.133-0.427-0.301l-0.028-0.008c-0.693-0.555-1.307-1.535-1.56-2.498
	c-0.153-0.582-0.153-1.687,0.007-2.267c0.42-1.565,1.573-2.779,3.173-3.349C10.828,6.537,11.431,6.474,11.999,6.481L11.999,6.481z
	 M11.891,8.973c0.259,0,0.517,0.05,0.703,0.148c0.407,0.211,0.74,0.621,0.867,1.049c0.387,1.315-1.007,2.467-2.267,1.878h-0.013
	c-0.594-0.276-0.913-0.797-0.92-1.475c0-0.611,0.34-1.143,0.927-1.454C11.375,9.022,11.633,8.973,11.891,8.973L11.891,8.973z
	 M11.882,12.913c0.823-0.003,1.421,0.291,1.642,0.809c0.165,0.387,0.104,1.61-0.182,3.585c-0.193,1.38-0.301,1.729-0.566,1.963
	c-0.367,0.326-0.888,0.416-1.381,0.24h-0.002c-0.597-0.214-0.726-0.504-0.97-2.203c-0.284-1.975-0.347-3.198-0.182-3.585
	C10.459,13.209,11.052,12.916,11.882,12.913L11.882,12.913z"/>
</svg>
