<svg version="1.1" id="master" xmlns="http://www.w3.org/2000/svg" xmlns:xlink="http://www.w3.org/1999/xlink" x="0px" y="0px"
	 width="24px" height="24px" viewBox="0 0 24 24" enable-background="new 0 0 24 24" xml:space="preserve">
<rect fill="none" width="24" height="24"/>
<path d="M12,2c5.5,0,10,4.5,10,10s-4.5,10-10,10S2,17.5,2,12S6.5,2,12,2z M14.449,13.95C15.55,12.55,15.4,10.55,14,9.5
	c-1.351-1.05-3.35-0.8-4.5,0.6c-1.1,1.4-0.95,3.4,0.45,4.451C11.35,15.601,13.35,15.35,14.449,13.95z M9.1,20.45
	c0.6,0.249,1.9,0.5,2.55,0.5L16,14.649c1.4-2.1,1.051-4.949-0.899-6.5c-1.751-1.4-4.2-1.35-5.951,0L3.1,12.8
	C3.25,14.4,3.7,15.2,3.7,15.25l3.45-3.75C6.9,13.15,7.5,14.85,8.9,15.899c1.2,0.951,2.65,1.2,4.05,0.9L9.1,20.45z"/>
</svg>
