<svg version="1.1" id="master" xmlns="http://www.w3.org/2000/svg" xmlns:xlink="http://www.w3.org/1999/xlink" x="0px" y="0px"
	 width="24px" height="24px" viewBox="0 0 24 24" enable-background="new 0 0 24 24" xml:space="preserve">
<rect fill="none" width="24" height="24"/>
<path d="M6.494,10.35l-0.4,1.632l0.825,0.001L6.494,10.35z M9.738,10.418v0.989c0.457-0.002,0.798,0.025,1.024-0.028
	c0.225-0.052,0.336-0.181,0.336-0.493c0-0.278-0.1-0.391-0.32-0.436C10.558,10.405,10.217,10.427,9.738,10.418L9.738,10.418z
	 M14.176,10.353l-0.4,1.633h0.825L14.176,10.353z M11.997,2L2,11.999L12.003,22L22,12.003L11.997,2z M6.494,9.413
	c0.305,0,0.505,0.098,0.646,0.246c0.141,0.15,0.222,0.351,0.292,0.558l0.892,2.676c0,0,0.112,0.229,0.12,0.472
	c0.008,0.243-0.087,0.5-0.5,0.556c-0.296-0.045-0.446-0.131-0.547-0.292c-0.102-0.162-0.153-0.401-0.254-0.758H5.871
	c-0.123,0.391-0.163,0.631-0.246,0.784s-0.211,0.219-0.514,0.264c-0.423-0.045-0.529-0.308-0.529-0.559
	c0-0.25,0.107-0.489,0.107-0.489l0.846-2.627c0.066-0.205,0.146-0.413,0.29-0.568C5.969,9.52,6.175,9.413,6.494,9.413z
	 M14.153,9.415c0.306,0,0.506,0.098,0.646,0.246c0.142,0.15,0.222,0.351,0.291,0.558l0.894,2.677c0,0,0.112,0.229,0.12,0.472
	c0.009,0.242-0.086,0.5-0.499,0.555c-0.297-0.045-0.447-0.13-0.549-0.291s-0.154-0.402-0.256-0.759H13.53
	c-0.122,0.391-0.161,0.632-0.244,0.785c-0.083,0.152-0.214,0.219-0.515,0.264c-0.424-0.045-0.529-0.307-0.529-0.557
	c0-0.251,0.105-0.492,0.105-0.492l0.846-2.626c0.063-0.194,0.142-0.403,0.287-0.562C13.626,9.526,13.834,9.415,14.153,9.415
	L14.153,9.415z M16.941,9.417c0.257,0,0.402,0.095,0.483,0.243c0.081,0.148,0.098,0.348,0.098,0.56v2.673
	c0.179,0.005,1.025,0,1.025,0c0.241,0,0.441,0.017,0.578,0.088c0.137,0.072,0.21,0.2,0.203,0.42
	c-0.008,0.302-0.149,0.432-0.339,0.485c-0.188,0.055-0.424,0.032-0.62,0.032h-1.471c-0.313,0-0.447-0.138-0.503-0.362
	c-0.057-0.225-0.034-0.537-0.034-0.886v-2.45c-0.012-0.211,0.017-0.413,0.105-0.562C16.557,9.51,16.707,9.417,16.941,9.417z
	 M9.738,9.503h0.915c0.212,0,0.425-0.002,0.639,0.07c0.216,0.072,0.434,0.217,0.655,0.511c0.233,0.315,0.292,0.777,0.185,1.178
	c-0.107,0.401-0.38,0.741-0.81,0.807c0.156,0.291,0.67,1.07,0.67,1.07s0.055,0.091,0.065,0.221c0.01,0.13-0.025,0.298-0.208,0.449
	c-0.323,0.122-0.527,0.088-0.65,0.025c-0.124-0.065-0.167-0.16-0.167-0.16s-0.468-0.804-0.758-1.361H9.738v1.115
	c0,0,0.008,0.129-0.053,0.254c-0.063,0.126-0.197,0.249-0.482,0.238c-0.273,0-0.407-0.129-0.473-0.258
	c-0.066-0.128-0.063-0.255-0.063-0.255v-3.191c0-0.278,0.005-0.458,0.142-0.566C8.945,9.542,9.213,9.503,9.738,9.503z"/>
</svg>
