<svg version="1.1" id="master" xmlns="http://www.w3.org/2000/svg" xmlns:xlink="http://www.w3.org/1999/xlink" x="0px" y="0px"
	 width="24px" height="24px" viewBox="0 0 24 24" enable-background="new 0 0 24 24" xml:space="preserve">
<rect fill="none" width="24" height="24"/>
<path d="M11.492,2.504c-0.845,2.073-1.355,3.428-2.295,5.439c0.577,0.612,1.285,1.324,2.436,2.128
	c-1.237-0.509-2.08-1.02-2.711-1.549C7.717,11.035,5.829,14.615,2,21.496c3.01-1.738,5.343-2.809,7.518-3.219
	c-0.094-0.4-0.146-0.836-0.143-1.289l0.003-0.096c0.048-1.928,1.051-3.412,2.239-3.311c1.187,0.1,2.112,1.746,2.065,3.674
	c-0.009,0.363-0.051,0.713-0.122,1.035c2.151,0.422,4.46,1.49,7.428,3.203c-0.584-1.076-1.106-2.047-1.606-2.973
	c-0.786-0.609-1.605-1.402-3.277-2.262c1.148,0.299,1.973,0.643,2.613,1.029C13.643,7.843,13.232,6.587,11.492,2.504z
	 M21.082,19.801v-0.52h-0.195v-0.07h0.468v0.07h-0.195v0.52H21.082 M21.436,19.801v-0.59h0.118l0.14,0.418
	c0.013,0.039,0.021,0.068,0.028,0.088c0.007-0.021,0.017-0.053,0.032-0.094l0.141-0.412H22v0.59h-0.076v-0.494l-0.171,0.494h-0.07
	l-0.171-0.502v0.502H21.436"/>
</svg>
