<svg version="1.1" id="master" xmlns="http://www.w3.org/2000/svg" xmlns:xlink="http://www.w3.org/1999/xlink" x="0px" y="0px" width="24px" height="24px" viewBox="0 0 24 24" enable-background="new 0 0 24 24" xml:space="preserve">
<rect fill="none" width="24" height="24"/>
<path d="M17.649,12.544c-2.4,0-4.349,1.947-4.349,4.351s1.948,4.35,4.349,4.35c2.402,0,4.351-1.95,4.351-4.35C22,14.494,20.054,12.544,17.649,12.544z M6.35,12.544c-2.4,0-4.35,1.948-4.35,4.351s1.948,4.35,4.35,4.35s4.35-1.948,4.35-4.35S8.753,12.544,6.35,12.544z M16.351,7.106c0,2.402-1.948,4.351-4.351,4.351c-2.401,0-4.35-1.948-4.35-4.351c0-2.399,1.949-4.35,4.35-4.35C14.402,2.757,16.351,4.707,16.351,7.106z"/>
</svg>
