<svg version="1.1" id="master" xmlns="http://www.w3.org/2000/svg" xmlns:xlink="http://www.w3.org/1999/xlink" x="0px" y="0px" width="24px" height="24px" viewBox="0 0 24 24" enable-background="new 0 0 24 24" xml:space="preserve">
<rect fill="none" width="24" height="24"/>
<path d="M19,4h-4.18C14.4,2.84,13.3,2,12,2S9.6,2.84,9.18,4H5C3.9,4,3,4.9,3,6v14c0,1.1,0.9,2,2,2h14c1.1,0,2-0.9,2-2V6C21,4.9,20.1,4,19,4z M13,19h-2v-2h2V19z M13,15h-2V9h2V15z M12,6c-0.55,0-1-0.45-1-1s0.45-1,1-1s1,0.45,1,1S12.55,6,12,6z"/>
</svg>
