<svg version="1.1" id="master" xmlns="http://www.w3.org/2000/svg" xmlns:xlink="http://www.w3.org/1999/xlink" x="0px" y="0px" width="24px" height="24px" viewBox="0 0 24 24" enable-background="new 0 0 24 24" xml:space="preserve">
<rect fill="none" width="24" height="24"/>
<path d="M2,20.043c0,0,2.628-0.295,4.677-1.985c1.949-1.609,2.654-2.994,3.142-4.563c0.486-1.571,0.56-5.35,0.56-6.471V3.955H9.165v1.137c-0.02,1.701-0.167,4.932-0.946,7.037C6.336,17.201,2,17.646,2,17.646V20.043z M22,20.043c0,0-2.629-0.295-4.675-1.985c-1.952-1.609-2.656-2.994-3.144-4.563c-0.486-1.571-0.559-5.35-0.559-6.471V3.955h1.211v1.137c0.02,1.701,0.169,4.932,0.948,7.037c1.882,5.072,6.217,5.517,6.217,5.517L22,20.043z M10.883,3.956h2.236v16.089h-2.236L10.883,3.956z"/>
</svg>
