<svg version="1.1" id="master" xmlns="http://www.w3.org/2000/svg" xmlns:xlink="http://www.w3.org/1999/xlink" x="0px" y="0px" width="24px" height="24px" viewBox="0 0 24 24" enable-background="new 0 0 24 24" xml:space="preserve">
<rect fill="none" width="24" height="24"/>
<path d="M15.968,4.268c0.319,0,0.639,0.121,0.895,0.366l3.321,3.322c2.384,2.366,2.418,6.209,0.122,8.644c-0.014,0.028-0.032,0.051-0.053,0.071l-0.037,0.035l-0.033,0.032c-0.019,0.02-0.054,0.035-0.069,0.052c-2.437,2.297-6.281,2.264-8.664-0.122l-3.323-3.321c-0.48-0.473-0.487-1.243-0.017-1.723c0.005-0.005,0.011-0.011,0.017-0.017c0.471-0.48,1.243-0.488,1.723-0.016c0.005,0.005,0.012,0.011,0.019,0.016l3.319,3.323c1.452,1.452,3.801,1.47,5.274,0.034c1.423-1.474,1.409-3.816-0.035-5.271l-3.324-3.32c-0.48-0.471-0.488-1.243-0.017-1.723c0.006-0.006,0.011-0.012,0.017-0.019C15.339,4.39,15.65,4.268,15.968,4.268L15.968,4.268z M8.235,5.498c1.62,0.016,3.167,0.668,4.313,1.814l3.321,3.322c0.488,0.488,0.488,1.252,0,1.741c-0.486,0.487-1.252,0.487-1.74,0l-3.32-3.323C9.347,7.602,6.992,7.595,5.52,9.034c-1.425,1.474-1.41,3.815,0.033,5.267l3.323,3.326c0.487,0.488,0.487,1.252,0,1.74c-0.471,0.479-1.242,0.488-1.723,0.016c-0.005-0.006-0.011-0.012-0.017-0.016l-3.32-3.325c-2.384-2.38-2.417-6.226-0.121-8.66c0.017-0.035,0.035-0.053,0.053-0.07l0.033-0.035l0.035-0.035C3.833,7.224,3.87,7.208,3.886,7.191C5.062,6.083,6.622,5.474,8.235,5.498L8.235,5.498z"/>
</svg>
