<svg version="1.1" id="master" xmlns="http://www.w3.org/2000/svg" xmlns:xlink="http://www.w3.org/1999/xlink" x="0px" y="0px" width="24px" height="24px" viewBox="0 0 24 24" enable-background="new 0 0 24 24" xml:space="preserve" fill="#EB5424">
<rect fill="none" width="24" height="24"/>
<path d="M17.257,18.177l-2.005-6.187l5.255-3.808h-6.499l-2.011-6.182V2h6.499l2.011,6.182l0,0l0.001-0.002c1.167,3.583-0.036,7.656-3.249,10L17.257,18.177z M6.742,18.177L6.74,18.179L11.999,22l5.258-3.821l-5.256-3.818L6.742,18.177z M3.495,8.181c-1.228,3.779,0.197,7.783,3.248,9.999v-0.002l2.008-6.179L3.497,8.182h6.495L12,2.001h0.003h-6.5L3.495,8.181z"/>
</svg>
