<svg version="1.1" id="master" xmlns="http://www.w3.org/2000/svg" xmlns:xlink="http://www.w3.org/1999/xlink" x="0px" y="0px" width="24px" height="24px" viewBox="0 0 24 24" enable-background="new 0 0 24 24" xml:space="preserve">
<rect fill="none" width="24" height="24"/>
<path d="M12,2C6.477,2,2,6.477,2,12c0,5.522,4.477,10,10,10c5.522,0,10-4.478,10-10C22,6.477,17.522,2,12,2z M14.85,6.448c0.229,0,0.459,0.087,0.642,0.263l2.385,2.385c1.712,1.699,1.736,4.459,0.088,6.207c-0.01,0.02-0.023,0.036-0.038,0.05L17.9,15.379l-0.024,0.024c-0.013,0.013-0.038,0.025-0.05,0.037c-1.749,1.649-4.509,1.624-6.22-0.088l-2.386-2.385c-0.345-0.339-0.35-0.893-0.012-1.237c0.004-0.004,0.008-0.008,0.012-0.012c0.338-0.345,0.893-0.351,1.237-0.012c0.004,0.004,0.009,0.008,0.013,0.012l2.384,2.386c1.042,1.043,2.729,1.055,3.786,0.024c1.022-1.058,1.012-2.74-0.025-3.784L14.229,7.96c-0.345-0.338-0.351-0.892-0.012-1.237c0.004-0.004,0.008-0.008,0.012-0.013C14.398,6.536,14.622,6.448,14.85,6.448L14.85,6.448z M9.298,7.331c1.163,0.012,2.274,0.48,3.096,1.303l2.386,2.385c0.35,0.35,0.35,0.899,0,1.25c-0.351,0.349-0.9,0.349-1.25,0l-2.384-2.386c-1.05-1.041-2.741-1.046-3.798-0.013c-1.023,1.058-1.012,2.74,0.024,3.783l2.386,2.387c0.35,0.35,0.35,0.899,0,1.25c-0.338,0.344-0.892,0.35-1.237,0.011c-0.004-0.004-0.008-0.008-0.012-0.011l-2.384-2.387c-1.712-1.71-1.736-4.471-0.087-6.219c0.012-0.025,0.025-0.038,0.038-0.05L6.1,8.609l0.025-0.025c0.012-0.013,0.038-0.025,0.05-0.037C7.019,7.751,8.139,7.314,9.298,7.331L9.298,7.331z"/>
</svg>
