<svg version="1.1" id="master" xmlns="http://www.w3.org/2000/svg" xmlns:xlink="http://www.w3.org/1999/xlink" x="0px" y="0px" width="24px" height="24px" viewBox="0 0 24 24" enable-background="new 0 0 24 24" xml:space="preserve">
<rect fill="none" width="24" height="24"/>
<path d="M20.052,2v10.844L12,17.39v-3.117l5.39-3.052V6.416L12,9.468V6.61L20.052,2 M3.948,2v10.844L12,17.39v-3.117l-5.39-3.052V6.416L12,9.468V6.61L3.948,2 M20.052,22V11.156L12,6.61v3.117l5.39,3.052v4.61L12,14.272v3.117L20.052,22 M3.948,22V11.156L12,6.61v3.117l-5.39,3.052v4.61L12,14.272v3.117L3.948,22"/>
</svg>
