<svg version="1.1" id="master" xmlns="http://www.w3.org/2000/svg" xmlns:xlink="http://www.w3.org/1999/xlink" x="0px" y="0px"
	 width="24px" height="24px" viewBox="0 0 24 24" enable-background="new 0 0 24 24" xml:space="preserve">
<rect fill="none" width="24" height="24"/>
<path d="M5.597,12.539C7.771,12.071,7.472,9.47,7.41,8.902C7.303,8.027,6.272,6.496,4.874,6.619C3.116,6.774,2.86,9.318,2.86,9.318
	C2.621,10.493,3.428,13.006,5.597,12.539 M9.634,8.173c1.2,0,2.169-1.383,2.169-3.09c0-1.7-0.966-3.083-2.166-3.083
	c-1.2,0-2.176,1.375-2.176,3.083s0.975,3.091,2.175,3.091 M14.807,8.377c1.607,0.217,2.635-1.499,2.843-2.799
	c0.208-1.291-0.833-2.799-1.967-3.057c-1.142-0.263-2.549,1.561-2.69,2.749c-0.15,1.458,0.209,2.908,1.808,3.114 M21.165,10.568
	c0-0.621-0.511-2.493-2.424-2.493c-1.912,0-2.174,1.766-2.174,3.016c0,1.191,0.098,2.849,2.486,2.799
	c2.379-0.059,2.118-2.699,2.118-3.324 M18.749,16.014c0,0-2.486-1.926-3.937-4c-1.967-3.063-4.761-1.816-5.693-0.263
	c-0.933,1.568-2.382,2.551-2.587,2.813c-0.208,0.258-2.999,1.766-2.377,4.515c0.625,2.749,2.799,2.7,2.799,2.7
	s1.599,0.158,3.465-0.259c1.866-0.416,3.465,0.1,3.465,0.1s4.338,1.458,5.539-1.341c1.186-2.809-0.675-4.257-0.675-4.257"/>
</svg>
