<svg version="1.1" id="master" xmlns="http://www.w3.org/2000/svg" xmlns:xlink="http://www.w3.org/1999/xlink" x="0px" y="0px" width="24px" height="24px" viewBox="0 0 24 24" enable-background="new 0 0 24 24" xml:space="preserve" fill="#2319DC">
<rect fill="none" width="24" height="24"/>
<path d="M8.793,16.293h1.173v2.773h-1.12c0,0-0.8-0.054-1.013-0.96c-0.16-0.373,0-0.854,0.053-1.066C7.94,16.88,8.207,16.453,8.793,16.293z M5.593,12.56C7.78,12.08,7.46,9.467,7.407,8.934c-0.106-0.907-1.12-2.4-2.56-2.293C3.087,6.8,2.874,9.307,2.874,9.307C2.607,10.48,3.407,13.04,5.593,12.56z M9.647,8.187c1.173,0,2.133-1.386,2.133-3.093C11.78,3.387,10.82,2,9.647,2C8.42,2,7.46,3.387,7.46,5.093C7.46,6.8,8.42,8.187,9.647,8.187z M21.167,10.587c0-0.64-0.534-2.507-2.454-2.507s-2.187,1.76-2.187,3.04c0,1.173,0.106,2.826,2.507,2.773C21.434,13.84,21.167,11.173,21.167,10.587z M14.767,8.4c1.653,0.213,2.667-1.493,2.88-2.827c0.214-1.28-0.854-2.773-1.974-3.04c-1.119-0.267-2.56,1.546-2.666,2.773C12.847,6.747,13.167,8.187,14.767,8.4z M19.406,20.293c-1.227,2.773-5.546,1.333-5.546,1.333s-1.6-0.533-3.467-0.106s-3.467,0.267-3.467,0.267s-2.187,0.054-2.773-2.72c-0.64-2.72,2.133-4.267,2.347-4.479c0.213-0.267,1.653-1.28,2.613-2.827c0.907-1.546,3.733-2.773,5.653,0.267c1.493,2.08,3.946,4,3.946,4S20.58,17.467,19.406,20.293z M11.3,13.36h-1.28v1.813H8.527c0,0-1.547,0.16-2.08,1.867c-0.16,1.12,0.213,1.813,0.267,1.92c0.053,0.16,0.533,1.014,1.76,1.227H11.3V13.36z M16.526,15.333H15.14v3.627h-1.333c0,0-0.427-0.054-0.533-0.373v-3.254h-1.28v3.627c0,0,0.054,0.906,1.28,1.227h3.253V15.333z"/>
</svg>
