<svg version="1.1" id="master" xmlns="http://www.w3.org/2000/svg" xmlns:xlink="http://www.w3.org/1999/xlink" x="0px" y="0px"
	 width="24px" height="24px" viewBox="0 0 24 24" enable-background="new 0 0 24 24" xml:space="preserve">
<rect fill="none" width="24" height="24"/>
<path d="M19.652,10.748c-0.429,0-0.853-0.026-1.27-0.079c0.545,0.771,1.046,1.56,1.504,2.366c0.458,0.806,0.885,1.637,1.278,2.495
	c0.087,0.197,0.18,0.394,0.278,0.587c0.099,0.194,0.19,0.392,0.274,0.592c0.084,0.199,0.151,0.404,0.204,0.613
	C21.974,17.53,22,17.745,22,17.965c0,0.505-0.123,0.973-0.369,1.404c-0.247,0.432-0.585,0.779-1.014,1.039l-1.974,1.184
	C18.186,21.863,17.698,22,17.183,22c-0.191,0-0.369-0.006-0.535-0.018c-0.165-0.012-0.326-0.037-0.482-0.078s-0.31-0.094-0.461-0.16
	c-0.15-0.067-0.307-0.158-0.47-0.274c-0.058-0.04-0.114-0.081-0.169-0.122c-0.056-0.041-0.111-0.081-0.17-0.121
	c-0.614-0.436-1.212-0.875-1.791-1.318c-0.58-0.443-1.119-0.949-1.617-1.518c-0.626,0.818-1.356,1.534-2.191,2.148l-1.313,0.965
	c-0.22,0.162-0.459,0.286-0.717,0.37C7.007,21.958,6.742,22,6.47,22c-0.308,0-0.583-0.023-0.826-0.069s-0.499-0.151-0.766-0.313
	c-0.278-0.168-0.551-0.336-0.817-0.504s-0.539-0.336-0.817-0.504c-0.191-0.123-0.363-0.265-0.517-0.427
	c-0.154-0.162-0.284-0.341-0.392-0.534c-0.107-0.195-0.19-0.4-0.248-0.618S2,18.592,2,18.365c0-0.365,0.075-0.722,0.227-1.07
	c0.307-0.701,0.623-1.389,0.947-2.064c0.325-0.676,0.688-1.34,1.087-1.996c-0.377,0.018-0.754,0.026-1.13,0.026
	c-0.191,0-0.382-0.001-0.57-0.005C2.372,13.254,2.186,13.252,2,13.252V9.504c0.203,0,0.401,0.001,0.596,0.004
	s0.387,0.004,0.578,0.004c0.429,0,0.851-0.019,1.266-0.057C4.854,9.419,5.278,9.333,5.713,9.2C5.689,9.171,5.67,9.141,5.652,9.109
	S5.614,9.046,5.591,9.018C5.435,8.786,5.29,8.564,5.156,8.352C5.023,8.141,4.907,7.925,4.809,7.704
	c-0.099-0.22-0.175-0.453-0.23-0.7C4.523,6.758,4.496,6.484,4.496,6.183V5.948c0-0.545,0.104-1.057,0.313-1.535
	C5.018,3.935,5.3,3.518,5.656,3.161c0.356-0.356,0.774-0.639,1.253-0.848C7.387,2.104,7.898,2,8.443,2
	c0.493,0,0.971,0.09,1.435,0.27s0.879,0.438,1.244,0.774l1.66,1.539c0.232-0.052,0.476-0.078,0.73-0.078
	c0.302,0,0.598,0.041,0.888,0.122c0.289,0.082,0.563,0.196,0.821,0.344c0.258,0.147,0.494,0.326,0.709,0.535
	c0.214,0.208,0.399,0.443,0.557,0.704c0.354,0.174,0.691,0.314,1.013,0.422s0.639,0.19,0.952,0.248
	c0.313,0.058,0.628,0.096,0.943,0.113c0.316,0.018,0.643,0.026,0.979,0.026c0.255,0,0.516-0.003,0.782-0.009S21.704,7,22,7v3.748
	H19.652z M3.722,12c0.673,0,1.33-0.071,1.974-0.213s1.272-0.353,1.888-0.63c-0.116-0.18-0.227-0.36-0.331-0.54
	c-0.104-0.179-0.214-0.359-0.33-0.539c-0.308,0.134-0.608,0.244-0.904,0.331s-0.595,0.155-0.896,0.205
	c-0.302,0.049-0.606,0.084-0.913,0.104c-0.308,0.021-0.626,0.031-0.957,0.031V12H3.722z M6.374,20.748
	c0.168,0,0.321-0.018,0.461-0.053c0.139-0.035,0.275-0.102,0.408-0.199c0.25-0.18,0.497-0.359,0.744-0.539
	c0.246-0.18,0.488-0.363,0.726-0.549c0.238-0.186,0.469-0.379,0.691-0.582c0.224-0.203,0.439-0.42,0.647-0.652
	c-0.028-0.771-0.151-1.525-0.369-2.266c-0.218-0.738-0.532-1.436-0.943-2.091l-0.218-0.122c-0.168-0.104-0.323-0.226-0.465-0.365
	c-0.143-0.139-0.239-0.307-0.291-0.504c-0.012-0.064-0.018-0.121-0.018-0.17s-0.006-0.103-0.018-0.161
	c-0.012-0.093-0.039-0.191-0.083-0.295c-0.043-0.104-0.097-0.208-0.16-0.309c-0.064-0.101-0.135-0.195-0.214-0.282
	c-0.078-0.087-0.154-0.157-0.229-0.209c-0.649,0.823-1.236,1.675-1.762,2.557c-0.524,0.881-1.001,1.799-1.43,2.756
	C3.8,16.835,3.739,16.964,3.67,17.1c-0.07,0.137-0.135,0.277-0.196,0.422c-0.061,0.145-0.112,0.291-0.156,0.439
	s-0.065,0.289-0.065,0.422v0.104c0.029-0.115,0.083-0.196,0.161-0.242c0.078-0.047,0.173-0.07,0.282-0.07
	c0.168,0,0.38,0.051,0.635,0.152c0.256,0.102,0.515,0.225,0.778,0.369c0.264,0.146,0.512,0.297,0.744,0.457
	c0.231,0.159,0.414,0.297,0.548,0.413c0.109,0.099,0.201,0.207,0.273,0.325c0.072,0.119,0.108,0.254,0.108,0.404
	c0,0.129-0.034,0.235-0.104,0.322C6.608,20.705,6.507,20.748,6.374,20.748z M12.513,7.626c0.365,0,0.685,0.028,0.957,0.083
	c0.272,0.055,0.533,0.131,0.782,0.226C14.501,8.03,14.751,8.142,15,8.27s0.53,0.264,0.844,0.409c0.597,0.272,1.217,0.479,1.86,0.617
	c0.644,0.139,1.293,0.209,1.948,0.209h1.096V8.252c-0.383,0-0.728-0.002-1.035-0.008c-0.307-0.006-0.596-0.022-0.865-0.048
	c-0.27-0.026-0.527-0.063-0.773-0.109c-0.247-0.046-0.499-0.11-0.757-0.191c-0.258-0.081-0.529-0.183-0.813-0.304
	c-0.283-0.122-0.597-0.27-0.938-0.443c-0.087-0.209-0.202-0.398-0.344-0.57c-0.142-0.171-0.303-0.318-0.482-0.443
	c-0.18-0.125-0.376-0.22-0.587-0.287c-0.212-0.066-0.431-0.1-0.656-0.1c-0.359,0-0.699,0.084-1.018,0.252l-2.2-2.035
	c-0.249-0.232-0.533-0.409-0.853-0.531C9.107,3.313,8.779,3.252,8.443,3.252c-0.371,0-0.72,0.071-1.048,0.213
	C7.068,3.607,6.782,3.8,6.539,4.043S6.103,4.573,5.961,4.9C5.818,5.228,5.748,5.577,5.748,5.948c0,0.174,0.006,0.333,0.018,0.479
	C5.776,6.571,5.8,6.712,5.835,6.848c0.034,0.136,0.081,0.271,0.139,0.404C6.032,7.386,6.107,7.527,6.2,7.678
	C6.692,8.455,7.203,9.219,7.73,9.97c0.527,0.75,1.038,1.514,1.53,2.291c0.278,0.435,0.527,0.886,0.748,1.353
	c0.22,0.467,0.446,0.929,0.678,1.387c0.436,0.863,0.963,1.66,1.583,2.391s1.324,1.377,2.113,1.939l1.573,1.122
	c0.278,0.197,0.589,0.296,0.931,0.296H17c-0.156,0-0.276-0.049-0.361-0.148c-0.084-0.098-0.126-0.223-0.126-0.373
	c0-0.174,0.045-0.334,0.135-0.479s0.199-0.272,0.326-0.383c0.104-0.087,0.239-0.188,0.404-0.305
	c0.166-0.115,0.346-0.234,0.539-0.356c0.194-0.122,0.397-0.24,0.609-0.356c0.211-0.115,0.42-0.219,0.626-0.309
	s0.399-0.162,0.582-0.217c0.183-0.056,0.341-0.083,0.475-0.083c0.133,0,0.247,0.03,0.343,0.091s0.158,0.161,0.188,0.301
	c0.006-0.029,0.009-0.059,0.009-0.088c0-0.028,0-0.058,0-0.086c0-0.14-0.026-0.293-0.078-0.461c-0.053-0.168-0.116-0.34-0.191-0.514
	s-0.154-0.344-0.235-0.508c-0.081-0.166-0.15-0.31-0.208-0.432c-0.557-1.223-1.193-2.395-1.909-3.518
	c-0.716-1.121-1.509-2.195-2.378-3.221c-0.29-0.127-0.572-0.264-0.848-0.409c-0.275-0.145-0.562-0.267-0.856-0.365
	c0.133,0.168,0.277,0.356,0.435,0.565c0.156,0.208,0.301,0.427,0.435,0.656c0.133,0.229,0.243,0.462,0.33,0.7
	s0.131,0.467,0.131,0.687c0,0.331-0.093,0.604-0.278,0.822s-0.412,0.404-0.679,0.561c-0.261,0.15-0.537,0.281-0.83,0.392
	s-0.593,0.165-0.9,0.165c-0.255,0-0.486-0.042-0.695-0.126s-0.402-0.196-0.582-0.335c-0.181-0.139-0.346-0.298-0.496-0.478
	s-0.293-0.365-0.426-0.557c-0.174-0.255-0.313-0.497-0.418-0.726s-0.197-0.455-0.278-0.678S9.629,9.732,9.548,9.509
	s-0.186-0.457-0.313-0.7c0.464-0.382,0.976-0.675,1.535-0.878C11.329,7.728,11.91,7.626,12.513,7.626z M8.443,3.878
	c0.261,0,0.513,0.046,0.757,0.139C9.443,4.11,9.661,4.247,9.853,4.426L11.991,6.4l-0.052,0.009
	c-0.302,0.029-0.596,0.074-0.883,0.135S10.484,6.69,10.2,6.8C9.563,7.043,8.977,7.388,8.443,7.835
	C8.339,7.753,8.216,7.667,8.074,7.574c-0.143-0.092-0.29-0.192-0.443-0.3C7.477,7.167,7.324,7.055,7.174,6.939
	C7.023,6.823,6.889,6.7,6.77,6.569c-0.119-0.13-0.215-0.264-0.287-0.4C6.41,6.034,6.374,5.893,6.374,5.748
	c0-0.261,0.061-0.504,0.183-0.73s0.281-0.425,0.479-0.596c0.196-0.171,0.419-0.305,0.665-0.4C7.946,3.926,8.194,3.878,8.443,3.878z
	 M12.922,6.391c0.18-0.069,0.374-0.104,0.582-0.104c0.215,0,0.422,0.042,0.622,0.126s0.381,0.196,0.544,0.335
	C14.096,6.545,13.513,6.426,12.922,6.391z"/>
</svg>
