<svg version="1.1" id="master" xmlns="http://www.w3.org/2000/svg" xmlns:xlink="http://www.w3.org/1999/xlink" x="0px" y="0px" width="24px" height="24px" viewBox="0 0 24 24" enable-background="new 0 0 24 24" xml:space="preserve">
<rect fill="none" width="24" height="24"/>
<path d="M14.788,5.271c-0.281-0.649-0.664-1.216-1.147-1.7c-0.484-0.484-1.051-0.867-1.7-1.148S10.595,2,9.853,2S8.415,2.141,7.766,2.422s-1.216,0.665-1.7,1.148c-0.483,0.483-0.866,1.05-1.148,1.7S4.495,6.616,4.495,7.358c0,0.716,0.152,1.408,0.457,2.078c0.305,0.669,0.699,1.297,1.183,1.883c0.484,0.587,1.022,1.122,1.615,1.606c0.593,0.483,1.178,0.891,1.754,1.223c-0.04,0.053-0.099,0.127-0.179,0.224c-0.08,0.096-0.159,0.197-0.239,0.303c-0.08,0.106-0.149,0.209-0.208,0.309c-0.06,0.099-0.09,0.179-0.09,0.238c0,0.152,0.066,0.259,0.199,0.318c0.033,0,0.06,0.005,0.079,0.015c0.02,0.01,0.046,0.015,0.08,0.015h1.491c0.013,0,0.026-0.003,0.04-0.01c0.014-0.007,0.027-0.01,0.04-0.01l0.03-0.02c0.053-0.054,0.094-0.1,0.124-0.14s0.052-0.1,0.065-0.179c-0.053-0.152-0.133-0.302-0.239-0.447c-0.106-0.146-0.212-0.285-0.318-0.418l-0.159-0.198c0.577-0.338,1.16-0.747,1.75-1.228c0.589-0.481,1.125-1.014,1.605-1.601c0.48-0.586,0.873-1.214,1.179-1.883c0.305-0.669,0.457-1.362,0.457-2.078C15.211,6.616,15.07,5.92,14.788,5.271z M13.565,7.86c-0.143,0.143-0.31,0.214-0.502,0.214s-0.359-0.071-0.502-0.214s-0.213-0.31-0.213-0.502c0-0.338-0.066-0.66-0.199-0.964c-0.132-0.305-0.312-0.571-0.537-0.8c-0.225-0.229-0.49-0.409-0.795-0.542c-0.305-0.133-0.626-0.199-0.964-0.199c-0.192,0-0.36-0.071-0.502-0.214C9.208,4.497,9.137,4.33,9.137,4.137S9.208,3.779,9.351,3.64c0.142-0.139,0.31-0.208,0.502-0.208c0.543,0,1.054,0.103,1.531,0.308c0.477,0.205,0.893,0.485,1.247,0.84c0.354,0.354,0.635,0.771,0.84,1.248c0.206,0.477,0.309,0.987,0.309,1.531C13.779,7.55,13.708,7.717,13.565,7.86z M10.34,16.284H9.594c0.08,0.312,0.209,0.599,0.388,0.86c0.179,0.262,0.391,0.486,0.636,0.676c0.245,0.188,0.517,0.338,0.815,0.447c0.298,0.109,0.606,0.164,0.924,0.164h3.579c0.464,0,0.873,0.086,1.228,0.258c0.354,0.173,0.652,0.406,0.895,0.701s0.424,0.636,0.547,1.023c0.122,0.388,0.184,0.797,0.184,1.229c0,0.099,0.035,0.184,0.104,0.253S19.048,22,19.147,22c0.086,0,0.153-0.019,0.203-0.055s0.087-0.085,0.109-0.145c0.023-0.06,0.037-0.124,0.04-0.193s0.005-0.138,0.005-0.204v-0.119c0-0.483-0.095-0.942-0.283-1.377c-0.188-0.434-0.445-0.813-0.771-1.138c-0.324-0.325-0.704-0.582-1.138-0.771c-0.435-0.188-0.894-0.283-1.377-0.283h-3.579c-0.226,0-0.442-0.036-0.651-0.109c-0.208-0.073-0.401-0.173-0.576-0.298c-0.176-0.126-0.332-0.277-0.467-0.453C10.527,16.681,10.419,16.489,10.34,16.284z"/>
</svg>
