<svg version="1.1" id="master" xmlns="http://www.w3.org/2000/svg" xmlns:xlink="http://www.w3.org/1999/xlink" x="0px" y="0px"
	 width="24px" height="24px" viewBox="0 0 24 24" enable-background="new 0 0 24 24" xml:space="preserve">
<rect fill="none" width="24" height="24"/>
<path d="M21.866,19.122C21.955,19.357,22,19.604,22,19.863h-2.137c-1.425,0-2.778-0.203-4.062-0.607
	c-1.282-0.404-2.52-0.996-3.712-1.779c-0.272-0.178-0.535-0.363-0.791-0.557c-0.255-0.191-0.498-0.403-0.73-0.636H7
	c-0.292,0-0.568,0.057-0.83,0.169c-0.262,0.113-0.49,0.268-0.686,0.463s-0.35,0.424-0.463,0.686
	c-0.112,0.262-0.169,0.538-0.169,0.83v2.146H7c0,0.199-0.038,0.385-0.114,0.557c-0.076,0.173-0.179,0.323-0.309,0.453
	c-0.129,0.129-0.279,0.23-0.452,0.303C5.953,21.963,5.768,22,5.568,22H4.853c-0.397,0-0.769-0.074-1.113-0.224
	s-0.646-0.353-0.904-0.611s-0.462-0.56-0.611-0.905C2.074,19.916,2,19.545,2,19.146v-0.715c0-0.617,0.116-1.187,0.348-1.71
	c0.232-0.523,0.547-0.976,0.944-1.356s0.863-0.68,1.396-0.895c0.534-0.216,1.105-0.324,1.715-0.324h2.028V12
	c0-0.212,0.013-0.419,0.039-0.621c0.027-0.202,0.07-0.403,0.13-0.602c0.139-0.451,0.343-0.865,0.611-1.243
	c0.269-0.377,0.583-0.701,0.944-0.969c0.361-0.268,0.76-0.477,1.197-0.626c0.438-0.149,0.892-0.224,1.362-0.224h0.716
	c0.397,0,0.769,0.074,1.113,0.224c0.345,0.149,0.646,0.353,0.904,0.611s0.462,0.56,0.611,0.904c0.149,0.345,0.224,0.716,0.224,1.113
	v0.716c0,0.199-0.038,0.386-0.114,0.562c-0.076,0.176-0.179,0.328-0.308,0.458c-0.13,0.129-0.28,0.23-0.453,0.303
	c-0.172,0.073-0.357,0.109-0.557,0.109v-2.147h-2.137c-0.232,0-0.462,0.042-0.691,0.125c-0.229,0.083-0.437,0.199-0.626,0.348
	c-0.188,0.149-0.351,0.323-0.487,0.522c-0.136,0.199-0.227,0.414-0.273,0.646c0.623,0.709,1.301,1.356,2.033,1.943
	c0.732,0.586,1.506,1.109,2.321,1.57s1.661,0.861,2.54,1.203c0.878,0.342,1.774,0.617,2.688,0.83
	c0.259,0.039,0.495,0.124,0.711,0.253c0.215,0.13,0.402,0.288,0.562,0.478C21.652,18.675,21.776,18.887,21.866,19.122z
	 M17.283,20.34c-0.864-0.158-1.708-0.391-2.529-0.695c-0.822-0.305-1.612-0.68-2.371-1.123C11.624,18.077,10.927,17.57,10.29,17H7
	c-0.226,0-0.438,0.05-0.636,0.148c0.742,0.775,1.549,1.463,2.42,2.063c0.871,0.6,1.791,1.106,2.759,1.521s1.97,0.729,3.007,0.944
	S16.643,22,17.716,22h2.147c0.225,0,0.441-0.035,0.65-0.104s0.401-0.165,0.577-0.288c0.175-0.123,0.331-0.271,0.467-0.447
	s0.243-0.369,0.323-0.582h-2.018C19.008,20.578,18.148,20.499,17.283,20.34z M4.008,13.979c0.464-0.246,0.926-0.399,1.387-0.463
	c0.461-0.063,0.933-0.094,1.417-0.094c0.152,0,0.303,0.002,0.452,0.004c0.148,0.004,0.3,0.006,0.452,0.006
	c0-0.172-0.002-0.342-0.005-0.508c-0.004-0.165-0.005-0.334-0.005-0.506c0-0.298,0.01-0.58,0.029-0.845
	c0.021-0.265,0.059-0.522,0.114-0.771c0.057-0.249,0.136-0.496,0.239-0.741c0.103-0.245,0.236-0.497,0.402-0.755
	C8.054,8.59,7.669,7.848,7.338,7.08S6.725,5.525,6.493,4.724C6.44,4.551,6.396,4.377,6.364,4.202
	C6.331,4.026,6.288,3.853,6.234,3.68C6.082,3.176,5.83,2.771,5.479,2.462C5.128,2.154,4.681,2,4.137,2
	C3.839,2,3.561,2.056,3.302,2.169C3.044,2.282,2.818,2.434,2.626,2.626C2.434,2.818,2.281,3.044,2.169,3.302S2,3.839,2,4.137v2.147
	c0,1.352,0.169,2.678,0.507,3.976C2.845,11.559,3.346,12.799,4.008,13.979z"/>
</svg>
