<svg version="1.1" id="master" xmlns="http://www.w3.org/2000/svg" xmlns:xlink="http://www.w3.org/1999/xlink" x="0px" y="0px"
	 width="24px" height="24px" viewBox="0 0 24 24" enable-background="new 0 0 24 24" xml:space="preserve">
<rect fill="none" width="24" height="24"/>
<path d="M4.853,12.716c0.199,0,0.385,0.038,0.557,0.114c0.173,0.076,0.323,0.179,0.453,0.309c0.129,0.129,0.231,0.279,0.308,0.451
	c0.076,0.173,0.114,0.358,0.114,0.557v0.717l1.134-1.014c0.146-0.133,0.301-0.236,0.467-0.309c0.166-0.073,0.345-0.109,0.537-0.109
	c0.126,0,0.248,0.018,0.367,0.055c0.119,0.036,0.235,0.084,0.348,0.145V12L2,4.853v10.01l1.849-1.73
	c0.146-0.133,0.3-0.234,0.463-0.308C4.474,12.752,4.654,12.716,4.853,12.716z M16.712,17.348l-2.564-2.484v-3.162l7.475-7.485
	c-0.119-0.053-0.235-0.08-0.348-0.08c-0.186,0-0.338,0.06-0.457,0.179l-1.253,1.233c-0.563,0.557-1.118,1.117-1.665,1.68
	c-0.547,0.563-1.104,1.124-1.675,1.68c-0.126,0.119-0.271,0.237-0.438,0.353c-0.165,0.116-0.34,0.217-0.521,0.303
	c-0.183,0.086-0.37,0.156-0.562,0.209c-0.192,0.053-0.378,0.08-0.557,0.08h-0.557c0.172-0.192,0.308-0.411,0.407-0.656
	s0.149-0.5,0.149-0.765V5.926c0-0.099-0.035-0.184-0.104-0.253c-0.069-0.069-0.154-0.104-0.254-0.104
	c-0.046,0-0.116,0.035-0.209,0.104c-0.093,0.07-0.198,0.158-0.317,0.264S13.019,6.16,12.89,6.289
	c-0.129,0.129-0.252,0.255-0.368,0.378c-0.115,0.123-0.22,0.232-0.313,0.328S12.047,7.163,12,7.209l-1.561-1.551
	c-0.026-0.026-0.063-0.048-0.109-0.065c-0.047-0.016-0.086-0.025-0.119-0.025c-0.1,0-0.185,0.035-0.254,0.104
	c-0.069,0.07-0.104,0.154-0.104,0.253v2.505c0,0.258,0.05,0.512,0.149,0.76s0.235,0.469,0.407,0.661h-0.099
	c-0.133,0-0.277-0.003-0.433-0.01c-0.156-0.006-0.31-0.021-0.463-0.044c-0.152-0.023-0.3-0.06-0.441-0.109
	c-0.143-0.05-0.268-0.118-0.373-0.204C8.554,9.479,8.493,9.45,8.416,9.4C8.34,9.351,8.259,9.296,8.173,9.237
	c-0.086-0.06-0.166-0.121-0.238-0.184C7.861,8.99,7.809,8.942,7.775,8.909L3.213,4.346c-0.14-0.139-0.305-0.208-0.497-0.208
	c-0.126,0-0.238,0.03-0.338,0.089l7.475,7.475v3.162l-2.574,2.484c-0.133,0.133-0.212,0.28-0.238,0.442
	C7.014,17.953,7,18.12,7,18.293c0,0.225,0.057,0.424,0.169,0.596s0.295,0.258,0.547,0.258v-1.072c0-0.1,0.035-0.185,0.104-0.254
	c0.069-0.07,0.154-0.104,0.253-0.104c0.166,0,0.267,0.054,0.304,0.159c0.036,0.105,0.055,0.222,0.055,0.348v0.209
	c0.079,0,0.162-0.017,0.248-0.05s0.162-0.078,0.229-0.134c0.066-0.057,0.121-0.123,0.164-0.199s0.064-0.158,0.064-0.244
	c0-0.092-0.006-0.178-0.02-0.258c-0.013-0.08-0.053-0.156-0.119-0.229l0.854-0.855l1.581,1.57c0.033,0.26,0.062,0.523,0.084,0.796
	c0.023,0.272,0.071,0.533,0.145,0.785c0.02,0.073,0.062,0.133,0.124,0.179c0.063,0.047,0.135,0.07,0.214,0.07
	c0.152,0,0.25-0.051,0.293-0.149c0.043-0.1,0.071-0.212,0.085-0.338l0.188-1.343l1.581-1.57l0.845,0.855
	c-0.033,0.06-0.064,0.123-0.095,0.188c-0.029,0.066-0.045,0.136-0.045,0.209c0,0.112,0.021,0.202,0.065,0.269
	c0.043,0.066,0.091,0.146,0.144,0.238c0.093,0.053,0.173,0.102,0.238,0.145c0.066,0.043,0.156,0.064,0.269,0.064v-0.209
	c0-0.126,0.019-0.242,0.055-0.348c0.037-0.105,0.138-0.159,0.304-0.159c0.099,0,0.184,0.034,0.253,0.104
	c0.069,0.069,0.104,0.154,0.104,0.254v1.072c0.133,0,0.245-0.024,0.338-0.074c0.093-0.049,0.168-0.117,0.224-0.203
	c0.057-0.086,0.097-0.183,0.119-0.289C16.988,18.475,17,18.361,17,18.242c0-0.179-0.015-0.34-0.045-0.482
	C16.926,17.618,16.845,17.48,16.712,17.348z M10.927,9.147c-0.093,0-0.176-0.036-0.249-0.109c-0.072-0.073-0.109-0.155-0.109-0.249
	V8.074c0-0.1,0.035-0.184,0.104-0.253c0.069-0.07,0.154-0.104,0.254-0.104c0.099,0,0.184,0.035,0.253,0.104
	c0.069,0.069,0.104,0.154,0.104,0.253v0.715c0,0.093-0.036,0.176-0.109,0.249C11.102,9.111,11.02,9.147,10.927,9.147z M12.611,9.749
	c-0.069,0.069-0.154,0.104-0.254,0.104c-0.093,0-0.174-0.025-0.243-0.075S12.007,9.658,12,9.564
	c-0.02,0.093-0.062,0.164-0.124,0.214c-0.063,0.05-0.141,0.075-0.233,0.075c-0.1,0-0.185-0.035-0.254-0.104
	c-0.069-0.07-0.104-0.154-0.104-0.253c0-0.093,0.036-0.174,0.109-0.244c0.073-0.069,0.156-0.104,0.249-0.104
	c0.079,0,0.153,0.028,0.224,0.084C11.936,9.288,11.98,9.359,12,9.445c0.014-0.093,0.055-0.166,0.124-0.219
	c0.069-0.053,0.147-0.08,0.233-0.08c0.093,0,0.176,0.035,0.249,0.104c0.073,0.07,0.109,0.151,0.109,0.244
	C12.716,9.594,12.681,9.679,12.611,9.749z M13.432,8.789c0,0.093-0.037,0.176-0.109,0.249c-0.073,0.073-0.156,0.109-0.249,0.109
	s-0.175-0.036-0.248-0.109c-0.073-0.073-0.109-0.155-0.109-0.249V8.074c0-0.1,0.035-0.184,0.104-0.253
	c0.069-0.07,0.154-0.104,0.253-0.104c0.1,0,0.185,0.035,0.254,0.104c0.069,0.069,0.104,0.154,0.104,0.253V8.789z M19.147,12.716
	c0.377,0,0.712,0.14,1.004,0.417L22,14.863V4.853L14.853,12v1.62c0.054-0.02,0.106-0.038,0.159-0.055s0.106-0.041,0.159-0.074
	c0.047-0.026,0.093-0.044,0.14-0.05c0.046-0.006,0.089-0.01,0.129-0.01c0.231,0,0.438,0.031,0.616,0.094
	c0.179,0.063,0.354,0.171,0.526,0.324l1.134,1.014v-0.736c0-0.199,0.038-0.383,0.114-0.551c0.076-0.17,0.179-0.318,0.308-0.447
	c0.13-0.13,0.282-0.23,0.458-0.304S18.955,12.716,19.147,12.716z"/>
</svg>
