<svg version="1.1" id="master" xmlns="http://www.w3.org/2000/svg" xmlns:xlink="http://www.w3.org/1999/xlink" x="0px" y="0px"
	 width="24px" height="24px" viewBox="0 0 24 24" enable-background="new 0 0 24 24" xml:space="preserve">
<rect fill="none" width="24" height="24"/>
<path d="M11.997,2.001c-1.011,0.002-2.015,0.157-2.979,0.46V8c2.208-1.656,5.343-1.208,6.999,1c1.657,2.208,1.209,5.342-0.999,6.998
	c-2.209,1.656-5.343,1.209-6.999-1c-0.649-0.865-1-1.917-1-2.999V3.331C2.23,6.083,0.58,12.194,3.331,16.98
	c2.751,4.788,8.863,6.438,13.651,3.687c4.787-2.751,6.438-8.862,3.687-13.649C18.885,3.914,15.576,2,11.997,2.001z M12.097,9
	c-1.656-0.044-3.034,1.263-3.079,2.918c0,0.027-0.001,0.054-0.001,0.081c0,1.647,1.331,2.988,2.979,2.999
	c1.657,0.027,3.023-1.293,3.05-2.949C15.075,10.393,13.754,9.028,12.097,9z"/>
</svg>
