<svg version="1.1" id="master" xmlns="http://www.w3.org/2000/svg" xmlns:xlink="http://www.w3.org/1999/xlink" x="0px" y="0px" width="24px" height="24px" viewBox="0 0 24 24" enable-background="new 0 0 24 24" xml:space="preserve">
<rect fill="none" width="24" height="24"/>
<path d="M7.502,9.584C7.359,9.283,7.171,9.021,6.936,8.799C6.7,8.577,6.43,8.4,6.125,8.267C5.82,8.135,5.502,8.068,5.171,8.068H4.853c0-0.292-0.056-0.568-0.169-0.83c-0.112-0.262-0.265-0.49-0.457-0.686S3.81,6.203,3.551,6.09S3.014,5.921,2.716,5.921c-0.073,0-0.15-0.001-0.233-0.005S2.323,5.921,2.254,5.941c-0.07,0.02-0.13,0.055-0.18,0.104C2.024,6.095,2,6.173,2,6.279c0,0.099,0.035,0.184,0.104,0.253c0.069,0.069,0.154,0.104,0.253,0.104h0.358c0.186,0,0.362,0.036,0.531,0.109C3.416,6.819,3.567,6.919,3.7,7.044C3.832,7.17,3.938,7.316,4.018,7.482c0.08,0.166,0.119,0.341,0.119,0.527v0.089C3.826,8.151,3.539,8.254,3.277,8.406C3.016,8.559,2.79,8.75,2.602,8.978C2.412,9.207,2.265,9.463,2.159,9.749C2.053,10.033,2,10.335,2,10.653c0,0.424,0.079,0.832,0.238,1.223c0.159,0.391,0.371,0.752,0.637,1.083c0.265,0.332,0.568,0.628,0.909,0.89c0.342,0.263,0.697,0.479,1.068,0.651c0.392-0.199,0.761-0.43,1.108-0.691c0.349-0.262,0.651-0.557,0.91-0.885c0.258-0.328,0.464-0.688,0.616-1.083c0.152-0.394,0.229-0.827,0.229-1.297C7.716,10.206,7.645,9.886,7.502,9.584z M4.853,10.921c0,0.199-0.069,0.368-0.208,0.507c-0.14,0.139-0.309,0.209-0.508,0.209c-0.191,0-0.359-0.071-0.502-0.214c-0.142-0.143-0.213-0.31-0.213-0.502v-0.706c0-0.192,0.071-0.359,0.213-0.502C3.777,9.571,3.945,9.5,4.137,9.5c0.199,0,0.368,0.069,0.508,0.208c0.139,0.139,0.208,0.308,0.208,0.507V10.921z M7.716,15.007l1.322-1.332c0.066-0.065,0.099-0.149,0.099-0.249c0-0.099-0.034-0.182-0.104-0.248c-0.07-0.066-0.154-0.1-0.254-0.1s-0.183,0.033-0.248,0.1L7.1,14.6C7.033,14.666,7,14.752,7,14.857v1.919l-2.664,1.332c-0.133,0.065-0.199,0.173-0.199,0.317c0,0.094,0.035,0.176,0.104,0.249c0.07,0.073,0.154,0.109,0.254,0.109c0.033,0,0.124-0.031,0.273-0.095c0.149-0.063,0.324-0.145,0.526-0.243c0.202-0.1,0.421-0.209,0.656-0.328s0.459-0.231,0.671-0.338s0.399-0.202,0.562-0.288c0.163-0.086,0.273-0.143,0.333-0.17c0.06-0.032,0.108-0.078,0.145-0.139c0.036-0.06,0.055-0.123,0.055-0.188V15.007z M8.263,11.796c0.357,0.186,0.732,0.325,1.123,0.417c0.391,0.093,0.785,0.139,1.183,0.139c0.663,0,1.294-0.123,1.894-0.368s1.135-0.6,1.605-1.063h-3.937c0.232-0.458,0.456-0.916,0.671-1.377c0.216-0.46,0.449-0.913,0.701-1.356c-0.298-0.08-0.606-0.12-0.925-0.12c-0.483,0-0.938,0.088-1.366,0.264c-0.428,0.175-0.813,0.432-1.158,0.77c0.252,0.484,0.378,0.998,0.378,1.541C8.432,11.021,8.375,11.405,8.263,11.796z M10.568,17.711v-4.285c0-0.099-0.034-0.184-0.104-0.253c-0.069-0.069-0.153-0.104-0.253-0.104s-0.185,0.035-0.254,0.104s-0.104,0.154-0.104,0.253v4.205c-0.026,0.053-0.071,0.14-0.134,0.259c-0.063,0.119-0.134,0.255-0.214,0.407c-0.079,0.152-0.162,0.313-0.248,0.478c-0.087,0.165-0.164,0.323-0.234,0.472c-0.069,0.149-0.127,0.279-0.174,0.389c-0.046,0.109-0.069,0.184-0.069,0.223c0,0.1,0.036,0.184,0.109,0.254c0.073,0.069,0.159,0.104,0.259,0.104c0.146,0,0.252-0.066,0.317-0.199c0.027-0.053,0.073-0.141,0.14-0.263c0.066-0.123,0.139-0.264,0.219-0.423c0.079-0.159,0.164-0.327,0.253-0.502c0.09-0.176,0.171-0.34,0.244-0.492c0.072-0.152,0.132-0.286,0.179-0.403C10.545,17.818,10.568,17.744,10.568,17.711z M15.668,3.784c-0.636,0-1.241,0.084-1.814,0.253s-1.106,0.411-1.6,0.726c-0.494,0.315-0.939,0.696-1.338,1.143c-0.397,0.447-0.742,0.95-1.033,1.506c0.226-0.04,0.461-0.06,0.706-0.06c0.45,0,0.885,0.07,1.302,0.209c0.331-0.477,0.714-0.906,1.148-1.287c0.434-0.381,0.904-0.703,1.411-0.964s1.039-0.462,1.596-0.602S17.172,4.5,17.756,4.5h2.107c0-0.192-0.07-0.359-0.209-0.502c-0.14-0.143-0.309-0.214-0.507-0.214H15.668z M17.756,5.206c-0.584,0-1.146,0.075-1.69,0.224c-0.543,0.149-1.055,0.363-1.535,0.641s-0.92,0.618-1.317,1.019s-0.742,0.854-1.034,1.357c-0.165,0.285-0.318,0.577-0.457,0.875c-0.14,0.298-0.285,0.597-0.438,0.895H17c0.623,0,1.209-0.104,1.76-0.313c0.55-0.208,1.042-0.5,1.476-0.875c0.435-0.375,0.799-0.817,1.094-1.327s0.499-1.07,0.611-1.68c0.007-0.026,0.01-0.063,0.01-0.109c0-0.192-0.073-0.358-0.219-0.497s-0.314-0.209-0.507-0.209H17.756z M14.515,13.327l1.641-1.641c0.126-0.125,0.253-0.251,0.383-0.377c0.129-0.126,0.253-0.255,0.372-0.388h-2.107c0.014,0.119,0.025,0.239,0.035,0.358s0.015,0.238,0.015,0.358c0,0.292-0.027,0.578-0.084,0.86C14.712,12.779,14.628,13.055,14.515,13.327z M14.654,16.209l0.198,0.16v-0.358L14.654,16.209z M15.568,15.007v2.704c0,0.039,0.009,0.082,0.025,0.129s0.038,0.083,0.064,0.109l2.167,2.167c0.066,0.066,0.149,0.1,0.248,0.1c0.1,0,0.185-0.035,0.254-0.104c0.069-0.07,0.104-0.154,0.104-0.254c0-0.086-0.03-0.166-0.09-0.238l-2.058-2.058v-2.704c0-0.1-0.033-0.182-0.1-0.248l-0.716-0.726c-0.065-0.066-0.152-0.1-0.258-0.1c-0.1,0-0.183,0.034-0.249,0.104c-0.066,0.069-0.099,0.154-0.099,0.254c0,0.066,0.029,0.141,0.089,0.223c0.06,0.084,0.129,0.166,0.209,0.249c0.079,0.083,0.157,0.159,0.233,0.229S15.529,14.967,15.568,15.007z M17,16.558l3.817-3.817c-0.159-0.278-0.337-0.546-0.532-0.805c-0.195-0.258-0.399-0.503-0.611-0.735l-2.942,2.943c0.093,0.099,0.161,0.21,0.204,0.332C16.979,14.598,17,14.725,17,14.857V16.558z M19.863,18.068c0.298,0,0.576-0.057,0.835-0.169c0.258-0.112,0.483-0.267,0.676-0.462s0.345-0.423,0.457-0.682C21.943,16.498,22,16.22,22,15.922c0-0.193-0.026-0.377-0.079-0.553c-0.054-0.175-0.106-0.355-0.159-0.541l-3.142,3.141c0.206,0.033,0.411,0.059,0.616,0.074C19.442,18.061,19.65,18.068,19.863,18.068z"/>
</svg>
