<svg version="1.1" id="master" xmlns="http://www.w3.org/2000/svg" xmlns:xlink="http://www.w3.org/1999/xlink" x="0px" y="0px"
	 width="24px" height="24px" viewBox="0 0 24 24" enable-background="new 0 0 24 24" xml:space="preserve">
<rect fill="none" width="24" height="24"/>
<path d="M22,10.214c0,0.458-0.042,0.881-0.126,1.269c-0.084,0.388-0.253,0.776-0.508,1.165v0.955
	c0.145,0.221,0.257,0.434,0.339,0.639c0.081,0.206,0.143,0.416,0.187,0.63c0.043,0.215,0.07,0.435,0.082,0.66
	c0.012,0.227,0.018,0.464,0.018,0.713c0,0.498-0.088,0.959-0.265,1.382s-0.416,0.808-0.717,1.155
	c-0.302,0.348-0.648,0.663-1.043,0.947c-0.394,0.283-0.811,0.532-1.251,0.747c-0.44,0.214-0.886,0.399-1.338,0.556
	s-0.883,0.284-1.295,0.382c-0.672,0.163-1.348,0.278-2.028,0.348c-0.681,0.07-1.365,0.104-2.055,0.104s-1.374-0.036-2.055-0.108
	s-1.357-0.187-2.029-0.344c-0.411-0.098-0.843-0.226-1.294-0.382s-0.896-0.343-1.333-0.561c-0.438-0.217-0.854-0.468-1.251-0.751
	c-0.397-0.284-0.746-0.602-1.047-0.952c-0.301-0.35-0.54-0.735-0.717-1.155c-0.176-0.42-0.265-0.876-0.265-1.368
	c0-0.249,0.004-0.488,0.013-0.717c0.009-0.229,0.032-0.45,0.07-0.665c0.038-0.214,0.098-0.424,0.182-0.63
	c0.084-0.205,0.205-0.415,0.361-0.63v-0.955c-0.133-0.191-0.24-0.382-0.321-0.574c-0.082-0.191-0.145-0.385-0.191-0.582
	s-0.078-0.399-0.096-0.608C2.009,10.675,2,10.458,2,10.232c0-0.145,0.001-0.287,0.004-0.426C2.007,9.667,2.009,9.525,2.009,9.38
	c0-0.428,0.068-0.831,0.204-1.208S2.534,7.449,2.769,7.13c0.234-0.318,0.51-0.613,0.825-0.882c0.316-0.27,0.652-0.511,1.008-0.726
	c0.356-0.214,0.724-0.404,1.104-0.569s0.749-0.306,1.107-0.421c0.585-0.186,1.174-0.336,1.768-0.452
	c0.594-0.116,1.198-0.2,1.812-0.252c0.162-0.335,0.378-0.63,0.647-0.882c0.269-0.252,0.549-0.491,0.838-0.716L12,2.135l0.122,0.096
	c0.29,0.226,0.569,0.464,0.838,0.716s0.485,0.546,0.647,0.882c0.614,0.052,1.218,0.136,1.812,0.252
	c0.594,0.116,1.183,0.267,1.768,0.452c0.359,0.116,0.729,0.256,1.108,0.421c0.379,0.165,0.747,0.354,1.103,0.569
	c0.356,0.214,0.692,0.456,1.008,0.726c0.316,0.269,0.591,0.563,0.826,0.882c0.234,0.318,0.42,0.666,0.556,1.042
	s0.204,0.779,0.204,1.208c0,0.139,0.002,0.278,0.005,0.417C21.999,9.937,22,10.076,22,10.214z M20.74,16.244v-0.626
	c0-0.202-0.027-0.399-0.083-0.591c-0.055-0.19-0.131-0.373-0.229-0.547v1.138c0,0.359-0.08,0.691-0.239,0.995
	s-0.369,0.582-0.63,0.834s-0.561,0.478-0.899,0.678s-0.688,0.377-1.047,0.53s-0.714,0.283-1.064,0.391
	c-0.35,0.107-0.67,0.192-0.96,0.257c-0.597,0.133-1.191,0.229-1.785,0.286S12.608,19.676,12,19.676s-1.209-0.029-1.803-0.087
	s-1.189-0.153-1.786-0.286c-0.29-0.064-0.609-0.149-0.96-0.257c-0.35-0.107-0.705-0.237-1.064-0.391
	c-0.359-0.153-0.708-0.33-1.047-0.53c-0.338-0.2-0.638-0.426-0.899-0.678s-0.471-0.53-0.63-0.834s-0.239-0.636-0.239-0.995V14.48
	c-0.099,0.174-0.175,0.356-0.23,0.547c-0.055,0.191-0.083,0.389-0.083,0.591v0.626c0,0.388,0.085,0.747,0.256,1.077
	s0.396,0.632,0.678,0.903c0.281,0.272,0.602,0.518,0.964,0.734c0.362,0.218,0.735,0.41,1.121,0.578s0.768,0.31,1.147,0.426
	c0.379,0.115,0.726,0.208,1.038,0.277c0.585,0.134,1.171,0.229,1.759,0.287s1.18,0.087,1.777,0.087s1.188-0.029,1.776-0.087
	s1.175-0.153,1.76-0.287c0.313-0.069,0.659-0.162,1.038-0.277c0.38-0.116,0.762-0.258,1.146-0.426
	c0.386-0.168,0.759-0.36,1.121-0.578c0.362-0.217,0.684-0.462,0.965-0.734c0.28-0.271,0.507-0.573,0.678-0.903
	S20.74,16.632,20.74,16.244z M4.198,12.595v3.023c0,0.313,0.083,0.602,0.248,0.865s0.381,0.502,0.647,0.717
	c0.267,0.214,0.569,0.406,0.908,0.577s0.684,0.321,1.034,0.452c0.351,0.13,0.689,0.239,1.017,0.325
	c0.327,0.087,0.612,0.157,0.856,0.209c0.509,0.104,1.022,0.18,1.538,0.226c0.516,0.047,1.034,0.069,1.555,0.069
	s1.04-0.024,1.555-0.073c0.516-0.05,1.028-0.123,1.538-0.222c0.243-0.046,0.53-0.114,0.86-0.204s0.669-0.198,1.017-0.326
	c0.348-0.127,0.69-0.276,1.029-0.447s0.642-0.365,0.908-0.582s0.482-0.457,0.647-0.721s0.247-0.552,0.247-0.865v-3.031
	c-0.255,0.254-0.533,0.481-0.834,0.682s-0.614,0.378-0.938,0.534s-0.658,0.293-1.003,0.408c-0.345,0.116-0.688,0.218-1.03,0.305
	c-0.075,0.058-0.136,0.127-0.182,0.208c-0.047,0.081-0.07,0.171-0.07,0.27v1.877c0,0.173-0.061,0.321-0.182,0.442
	c-0.122,0.122-0.27,0.183-0.443,0.183c-0.168,0-0.314-0.063-0.438-0.187c-0.125-0.125-0.188-0.271-0.188-0.438v-0.938
	c0-0.081-0.03-0.153-0.091-0.218c-0.061-0.063-0.132-0.096-0.213-0.096s-0.144,0.022-0.187,0.065
	c-0.044,0.044-0.077,0.096-0.101,0.156c-0.022,0.062-0.036,0.128-0.039,0.2s-0.004,0.138-0.004,0.195
	c0,0.156,0.006,0.312,0.018,0.465s0.017,0.309,0.017,0.465c0,0.116-0.007,0.23-0.021,0.343c-0.015,0.113-0.043,0.215-0.087,0.305
	c-0.043,0.09-0.106,0.163-0.19,0.222c-0.084,0.058-0.199,0.087-0.344,0.087s-0.261-0.03-0.348-0.092
	c-0.087-0.061-0.151-0.139-0.195-0.234c-0.043-0.096-0.072-0.203-0.087-0.321c-0.015-0.119-0.021-0.236-0.021-0.352
	c0-0.186,0.009-0.374,0.026-0.565c0.017-0.19,0.025-0.379,0.025-0.564c0-0.116-0.007-0.233-0.021-0.352
	c-0.015-0.119-0.043-0.227-0.087-0.321c-0.043-0.096-0.108-0.174-0.195-0.235c-0.087-0.061-0.203-0.091-0.348-0.091
	c-0.168,0-0.314,0.063-0.439,0.187c-0.125,0.125-0.187,0.271-0.187,0.438v0.938c0,0.087-0.03,0.161-0.091,0.222
	c-0.061,0.061-0.135,0.092-0.222,0.092s-0.161-0.031-0.221-0.092c-0.061-0.061-0.091-0.135-0.091-0.222v-0.938
	c0-0.168-0.063-0.313-0.187-0.438c-0.125-0.124-0.271-0.187-0.438-0.187s-0.314,0.063-0.439,0.187
	c-0.125,0.125-0.187,0.271-0.187,0.438v0.938c0,0.081-0.031,0.153-0.091,0.218c-0.061,0.063-0.132,0.096-0.213,0.096
	c-0.087,0-0.161-0.031-0.222-0.092c-0.061-0.061-0.091-0.135-0.091-0.222v-1.851c-0.411-0.075-0.828-0.172-1.251-0.291
	c-0.423-0.118-0.838-0.264-1.247-0.435c-0.409-0.171-0.799-0.37-1.173-0.599C4.836,13.152,4.5,12.891,4.198,12.595z M5.44,8.069
	c-0.104,0-0.192,0.036-0.265,0.108C5.103,8.25,5.067,8.338,5.067,8.442c0,0.099,0.038,0.186,0.113,0.26l0.625,0.626
	c0.076,0.075,0.163,0.113,0.261,0.113c0.099,0,0.186-0.038,0.261-0.113s0.113-0.162,0.113-0.261c0-0.11-0.035-0.2-0.104-0.27
	L5.71,8.173C5.64,8.104,5.55,8.069,5.44,8.069z M8.56,10.562c-0.099,0-0.186,0.038-0.261,0.113l-0.625,0.625
	c-0.075,0.075-0.113,0.162-0.113,0.26c0,0.11,0.038,0.2,0.113,0.27s0.165,0.104,0.27,0.104c0.104,0,0.191-0.035,0.26-0.104
	l0.625-0.625c0.076-0.075,0.113-0.162,0.113-0.261c0-0.104-0.038-0.194-0.113-0.269C8.753,10.6,8.664,10.562,8.56,10.562z
	 M9.811,6.192c-0.099,0-0.185,0.038-0.261,0.113L8.924,6.922C8.849,6.997,8.812,7.087,8.812,7.191c0,0.104,0.038,0.193,0.113,0.265
	C9,7.529,9.089,7.565,9.194,7.565c0.098,0,0.185-0.038,0.261-0.113l0.625-0.617c0.075-0.075,0.113-0.165,0.113-0.27
	c0-0.104-0.038-0.192-0.113-0.265C10.004,6.228,9.915,6.192,9.811,6.192z M11.687,11.813c-0.104,0-0.192,0.037-0.265,0.109
	c-0.073,0.072-0.109,0.161-0.109,0.265c0,0.098,0.038,0.185,0.113,0.26l0.617,0.626c0.075,0.075,0.165,0.112,0.27,0.112
	c0.098,0,0.185-0.037,0.26-0.112s0.113-0.162,0.113-0.261c0-0.104-0.038-0.194-0.113-0.27l-0.625-0.625
	C11.878,11.848,11.792,11.813,11.687,11.813z M12,3.759c-0.186,0.151-0.336,0.334-0.452,0.552s-0.174,0.447-0.174,0.691
	c0,0.168,0.062,0.314,0.187,0.438S11.832,5.627,12,5.627s0.314-0.063,0.439-0.187s0.187-0.271,0.187-0.438
	c0-0.244-0.059-0.474-0.174-0.691S12.186,3.91,12,3.759z M11.375,5.896V9.38c0,0.168,0.062,0.313,0.187,0.435S11.832,9.998,12,9.998
	s0.314-0.061,0.439-0.183s0.187-0.266,0.187-0.435V5.896c-0.186,0.133-0.395,0.2-0.626,0.2S11.56,6.03,11.375,5.896z M14.807,6.192
	c-0.099,0-0.186,0.038-0.261,0.113L13.92,6.922c-0.075,0.075-0.113,0.165-0.113,0.269c0,0.104,0.038,0.193,0.113,0.265
	c0.075,0.073,0.165,0.109,0.27,0.109c0.099,0,0.186-0.038,0.261-0.113l0.625-0.617c0.076-0.075,0.113-0.165,0.113-0.27
	c0-0.104-0.037-0.192-0.113-0.265C15,6.228,14.91,6.192,14.807,6.192z M15.814,10.944c0-0.104-0.038-0.194-0.113-0.269
	s-0.165-0.113-0.27-0.113c-0.099,0-0.186,0.038-0.261,0.113l-0.625,0.625c-0.075,0.075-0.113,0.162-0.113,0.26
	c0,0.104,0.036,0.193,0.108,0.265c0.072,0.073,0.161,0.109,0.266,0.109c0.109,0,0.199-0.035,0.269-0.104l0.626-0.625
	C15.776,11.13,15.814,11.043,15.814,10.944z M17.309,8.069c-0.11,0-0.2,0.035-0.27,0.104s-0.104,0.16-0.104,0.27
	c0,0.104,0.035,0.191,0.104,0.26l0.626,0.626c0.075,0.075,0.165,0.113,0.269,0.113c0.099,0,0.186-0.038,0.261-0.113
	s0.113-0.162,0.113-0.261c0-0.104-0.038-0.194-0.113-0.27l-0.625-0.625C17.5,8.104,17.413,8.069,17.309,8.069z"/>
</svg>
