<svg version="1.1" id="master" xmlns="http://www.w3.org/2000/svg" xmlns:xlink="http://www.w3.org/1999/xlink" x="0px" y="0px"
	 width="24px" height="24px" viewBox="0 0 24 24" enable-background="new 0 0 24 24" xml:space="preserve">
<rect fill="none" width="24" height="24"/>
<path d="M3.708,4.95L2.975,8.417h2.733c2.1,0,2.733-1.025,2.733-1.95c0-0.684-0.392-1.517-2.1-1.517H3.708 M10.783,4.95L10.05,8.417
	h2.733c2.134,0,2.734-1.025,2.734-1.95c0-0.684-0.393-1.517-2.101-1.517H10.783 M17.267,8.025l-0.774,3.467h2.732
	c2.143,0,2.775-0.975,2.775-1.95c0-0.683-0.393-1.517-2.083-1.517H17.267 M2.733,10.167L2,13.633h2.733
	c2.142,0,2.733-1.024,2.733-1.949c0-0.684-0.392-1.517-2.1-1.517H2.733 M9.858,10.167l-0.775,3.466h2.725
	c2.142,0,2.782-1.024,2.782-1.949c0-0.684-0.391-1.517-2.099-1.517H9.85 M16.241,13.442L15.518,16.9h2.732
	c2.083,0,2.725-0.976,2.725-1.95c0-0.683-0.392-1.508-2.092-1.508H16.241 M8.833,15.583L8.1,19.05h2.734
	c2.091,0,2.725-1.024,2.725-1.95c0-0.684-0.384-1.517-2.092-1.517H8.833z"/>
</svg>
