<svg version="1.1" id="master" xmlns="http://www.w3.org/2000/svg" xmlns:xlink="http://www.w3.org/1999/xlink" x="0px" y="0px"
	 width="24px" height="24px" viewBox="0 0 24 24" enable-background="new 0 0 24 24" xml:space="preserve">
<rect fill="none" width="24" height="24"/>
<path d="M20.691,9.477h-1.215c-0.654,0-1.215-0.561-1.215-1.215C18.262,4.804,15.458,2,12,2v0.001H8.262
	C4.804,2.001,2,4.804,2,8.263v7.477C2,19.196,4.804,22,8.262,22h7.477C19.196,22,22,19.196,22,15.74v-4.955
	C22,10.038,21.439,9.477,20.691,9.477z M8.168,7.047h4.484l0,0c0.657,0,1.217,0.561,1.217,1.216s-0.561,1.216-1.214,1.216H8.17
	C7.514,9.477,6.953,8.916,6.953,8.262S7.514,7.047,8.168,7.047z M15.832,16.953h-7.57c-0.654,0-1.215-0.561-1.215-1.215
	s0.561-1.215,1.215-1.215h7.57c0.654,0,1.216,0.561,1.216,1.215S16.487,16.953,15.832,16.953z"/>
</svg>
