<svg version="1.1" id="master" xmlns="http://www.w3.org/2000/svg" xmlns:xlink="http://www.w3.org/1999/xlink" x="0px" y="0px"
	 width="24px" height="24px" viewBox="0 0 24 24" enable-background="new 0 0 24 24" xml:space="preserve">
<rect fill="none" width="24" height="24"/>
<path d="M19.252,5.778c0.134,0.064,0.269,0.129,0.404,0.196c0.137,0.066,0.271,0.135,0.404,0.204
	c0.325,0.174,0.609,0.393,0.853,0.657c0.243,0.264,0.445,0.555,0.604,0.874c0.159,0.319,0.279,0.658,0.36,1.018S22,9.442,22,9.795
	c0,0.348-0.041,0.702-0.122,1.061s-0.201,0.7-0.36,1.022s-0.361,0.616-0.604,0.882s-0.527,0.484-0.853,0.652l-0.809,0.409
	L17.73,12.3H17c0,0.331-0.036,0.661-0.108,0.991c-0.073,0.33-0.158,0.652-0.257,0.965c0.116,0.25,0.206,0.506,0.27,0.77
	C16.968,15.29,17,15.561,17,15.84c0,0.324-0.046,0.641-0.139,0.951s-0.223,0.604-0.388,0.883s-0.365,0.531-0.6,0.761
	c-0.235,0.229-0.491,0.422-0.77,0.579l-0.826,0.461l-1.209-1.209c-0.504,0.277-1.028,0.498-1.573,0.66s-1.107,0.244-1.688,0.244
	c-0.881,0-1.719-0.149-2.513-0.448c-0.795-0.298-1.508-0.714-2.14-1.247c-0.632-0.534-1.16-1.168-1.587-1.9
	c-0.426-0.733-0.711-1.535-0.856-2.404c-0.226-0.18-0.401-0.402-0.526-0.666C2.063,12.241,2,11.964,2,11.674
	c0-0.336,0.084-0.649,0.252-0.939C2.084,10.445,2,10.132,2,9.795c0-0.261,0.049-0.504,0.147-0.73S2.381,8.641,2.552,8.47
	c0.172-0.171,0.371-0.305,0.601-0.4c0.229-0.095,0.474-0.143,0.734-0.143C4.224,7.439,4.61,7.003,5.048,6.617
	c0.438-0.385,0.91-0.713,1.417-0.982c0.508-0.27,1.044-0.477,1.609-0.622c0.564-0.145,1.144-0.218,1.734-0.218
	c0.592,0,1.158,0.077,1.7,0.23c0.542,0.154,1.068,0.378,1.578,0.674l1.165-1.174c0.134,0.064,0.269,0.129,0.404,0.196
	c0.137,0.067,0.271,0.135,0.404,0.205c0.458,0.243,0.837,0.577,1.135,1c0.299,0.423,0.515,0.881,0.648,1.374h0.887L19.252,5.778z
	 M15.252,14.361c0.151-0.331,0.261-0.666,0.331-1.005c0.069-0.339,0.124-0.691,0.165-1.057c0.04-0.382,0.156-0.687,0.348-0.913
	c0.191-0.226,0.493-0.339,0.904-0.339h1.252v-0.626H13.8c-0.058-0.255-0.145-0.483-0.261-0.683c-0.116-0.2-0.255-0.378-0.417-0.535
	c-0.163-0.157-0.346-0.294-0.548-0.413c-0.203-0.119-0.421-0.225-0.652-0.317c-0.4,0.278-0.805,0.548-1.213,0.809
	c-0.409,0.261-0.813,0.53-1.213,0.809v0.331H8.878V10.23c0-0.232-0.036-0.449-0.108-0.652c-0.072-0.203-0.177-0.379-0.313-0.53
	c-0.136-0.151-0.3-0.271-0.491-0.361S7.557,8.552,7.313,8.552c-0.157,0-0.31,0.021-0.457,0.065S6.572,8.725,6.448,8.809
	c-0.125,0.084-0.238,0.184-0.34,0.3C6.007,9.225,5.928,9.355,5.869,9.5c-0.063,0.151-0.1,0.294-0.108,0.431s-0.013,0.279-0.013,0.43
	v0.061H4.227c0.075,0.017,0.14,0.055,0.195,0.113c0.055,0.058,0.082,0.125,0.082,0.2s-0.016,0.135-0.048,0.178
	c-0.031,0.043-0.073,0.075-0.126,0.096c-0.052,0.021-0.109,0.032-0.174,0.035c-0.063,0.003-0.124,0.004-0.183,0.004H3.878
	c-0.174,0-0.321,0.061-0.443,0.183c-0.121,0.122-0.183,0.27-0.183,0.443c0,0.186,0.059,0.336,0.174,0.452
	C3.542,12.242,3.692,12.3,3.878,12.3c0.023,0.528,0.113,1.032,0.27,1.513c0.157,0.482,0.367,0.932,0.631,1.348
	c0.264,0.418,0.577,0.797,0.939,1.135c0.362,0.34,0.759,0.63,1.191,0.87c0.432,0.241,0.893,0.428,1.382,0.562
	c0.49,0.133,0.996,0.199,1.518,0.199c0.313,0,0.622-0.031,0.926-0.096c0.305-0.063,0.601-0.152,0.888-0.265
	c0.287-0.113,0.566-0.245,0.839-0.396s0.536-0.316,0.791-0.496l1.244,1.252c0.18-0.104,0.346-0.231,0.5-0.383
	c0.153-0.15,0.286-0.316,0.399-0.5c0.113-0.182,0.2-0.377,0.261-0.582c0.062-0.206,0.092-0.413,0.092-0.621
	c0-0.273-0.045-0.533-0.135-0.779S15.403,14.581,15.252,14.361z M5.748,12.926c0.174,0,0.321,0.061,0.443,0.184
	c0.122,0.121,0.183,0.27,0.183,0.443c0,0.168-0.063,0.313-0.188,0.434c-0.124,0.123-0.271,0.184-0.438,0.184
	s-0.314-0.061-0.439-0.184c-0.125-0.121-0.187-0.266-0.187-0.434c0-0.174,0.061-0.322,0.183-0.443
	C5.426,12.986,5.574,12.926,5.748,12.926z M8.252,10.109v1.252c0,0.168-0.031,0.304-0.096,0.409
	c-0.063,0.104-0.15,0.214-0.261,0.331c-0.18,0.133-0.374,0.2-0.582,0.2c-0.128,0-0.248-0.024-0.361-0.074s-0.213-0.117-0.3-0.204
	c-0.087-0.087-0.155-0.187-0.204-0.3c-0.05-0.113-0.074-0.233-0.074-0.361v-1.252c0-0.127,0.024-0.248,0.074-0.361
	c0.049-0.113,0.117-0.212,0.204-0.296s0.187-0.151,0.3-0.2c0.113-0.049,0.233-0.074,0.361-0.074c0.289,0,0.519,0.083,0.687,0.248
	C8.168,9.591,8.252,9.819,8.252,10.109z M7.313,14.17c0.127,0,0.247,0.024,0.36,0.074c0.113,0.049,0.213,0.117,0.3,0.203
	c0.087,0.088,0.155,0.188,0.205,0.301c0.049,0.113,0.073,0.233,0.073,0.361c0,0.127-0.024,0.247-0.073,0.36
	c-0.05,0.112-0.118,0.213-0.205,0.3s-0.187,0.155-0.3,0.205c-0.113,0.049-0.233,0.073-0.36,0.073c-0.134,0-0.257-0.024-0.37-0.073
	c-0.113-0.05-0.212-0.117-0.296-0.201s-0.15-0.182-0.199-0.295c-0.05-0.113-0.074-0.236-0.074-0.369
	c0-0.128,0.024-0.248,0.074-0.361c0.049-0.113,0.117-0.213,0.204-0.301c0.087-0.086,0.187-0.154,0.3-0.203
	C7.065,14.194,7.186,14.17,7.313,14.17z M9.496,12.926c0.174,0,0.321,0.061,0.443,0.184c0.121,0.121,0.183,0.27,0.183,0.443
	c0,0.168-0.063,0.313-0.188,0.434c-0.124,0.123-0.271,0.184-0.438,0.184c-0.169,0-0.313-0.061-0.436-0.184
	c-0.121-0.121-0.183-0.266-0.183-0.434s0.062-0.314,0.183-0.439C9.183,12.988,9.327,12.926,9.496,12.926z M9.496,16.048
	c0.174,0,0.321,0.062,0.443,0.183c0.121,0.121,0.183,0.27,0.183,0.443s-0.062,0.322-0.183,0.443C9.817,17.239,9.67,17.3,9.496,17.3
	c-0.169,0-0.313-0.062-0.436-0.187c-0.121-0.125-0.183-0.271-0.183-0.439s0.062-0.314,0.183-0.439
	C9.183,16.11,9.327,16.048,9.496,16.048z M13.252,11.048c0,0.203-0.03,0.4-0.091,0.591c-0.062,0.191-0.146,0.37-0.257,0.535
	c-0.11,0.166-0.242,0.313-0.396,0.443c-0.153,0.131-0.323,0.234-0.509,0.309l-1.878-1.252v-1.252L12,9.178
	c0.186,0.064,0.355,0.161,0.509,0.292s0.285,0.281,0.396,0.452s0.195,0.354,0.257,0.548C13.222,10.664,13.252,10.856,13.252,11.048z
	 M11.695,14.17c0.128,0,0.248,0.024,0.361,0.074c0.113,0.049,0.212,0.117,0.296,0.203c0.084,0.088,0.15,0.188,0.199,0.301
	c0.05,0.113,0.074,0.233,0.074,0.361c0,0.127-0.024,0.247-0.074,0.36c-0.049,0.112-0.114,0.213-0.195,0.3s-0.18,0.155-0.296,0.205
	c-0.115,0.049-0.237,0.073-0.365,0.073c-0.133,0-0.256-0.024-0.369-0.073c-0.113-0.05-0.212-0.117-0.296-0.201
	s-0.15-0.182-0.2-0.295c-0.049-0.113-0.073-0.236-0.073-0.369c0-0.128,0.024-0.248,0.073-0.361c0.05-0.113,0.118-0.213,0.205-0.301
	c0.087-0.086,0.187-0.154,0.3-0.203C11.448,14.194,11.568,14.17,11.695,14.17z M13.252,12.926c0.168,0,0.314,0.063,0.439,0.188
	s0.187,0.271,0.187,0.439s-0.062,0.313-0.187,0.434c-0.125,0.123-0.271,0.184-0.439,0.184s-0.314-0.061-0.438-0.184
	c-0.125-0.121-0.188-0.266-0.188-0.434c0-0.18,0.06-0.33,0.179-0.448C12.923,12.986,13.072,12.926,13.252,12.926z"/>
</svg>
