<svg version="1.1" id="master" xmlns="http://www.w3.org/2000/svg" xmlns:xlink="http://www.w3.org/1999/xlink" x="0px" y="0px" width="24px" height="24px" viewBox="0 0 24 24" enable-background="new 0 0 24 24" xml:space="preserve" fill="#0060A9">
<rect fill="none" width="24" height="24"/>
<path d="M12.809,6.938l1.653,1.654l-1.652,1.652L12.809,6.938L12.809,6.938L12.809,6.938z M12.809,17.061l1.653-1.653l-1.652-1.652L12.809,17.061L12.809,17.061L12.809,17.061z M11.043,12L7.469,8.416L8.505,7.38l2.848,2.849V3.401l5.179,5.178l-3.42,3.419l3.42,3.421l-5.179,5.179v-6.828l-2.849,2.85l-1.036-1.037L11.043,12L11.043,12L11.043,12z M12.001,22c4.367,0,7.375-2.074,7.375-10c0-7.925-3.009-10-7.375-10S4.624,4.075,4.624,12C4.624,19.926,7.634,22,12.001,22L12.001,22L12.001,22z"/>
</svg>
