<svg version="1.1" id="master" xmlns="http://www.w3.org/2000/svg" xmlns:xlink="http://www.w3.org/1999/xlink" x="0px" y="0px" width="24px" height="24px" viewBox="0 0 24 24" enable-background="new 0 0 24 24" xml:space="preserve">
<rect fill="none" width="24" height="24"/>
<path d="M12,2C6.478,2,2,6.478,2,12c0,5.521,4.478,10,10,10c5.521,0,10-4.479,10-10C22,6.478,17.521,2,12,2z M12,2.65c5.163,0,9.35,4.186,9.35,9.35c0,5.163-4.186,9.35-9.35,9.35S2.651,17.163,2.651,12S6.837,2.65,12,2.65z M11.435,3.175c-0.275,0.012-0.55,0.035-0.827,0.065L10.52,5.693c0.196-0.033,0.393-0.06,0.591-0.079l0.058-1.656l-0.01-0.114l0.036,0.108l0.553,1.241h0.506l0.553-1.24l0.033-0.109l-0.008,0.114l0.059,1.656c0.192,0.019,0.395,0.045,0.592,0.079l-0.09-2.454c-0.275-0.031-0.552-0.052-0.828-0.064l-0.543,1.354L12,4.629l-0.019-0.1L11.435,3.175z M17.016,4.695l-1.287,2.023c0.164,0.125,0.377,0.31,0.516,0.435l1.211-0.628l0.076-0.058l-0.057,0.079l-0.627,1.211c0.135,0.146,0.33,0.382,0.44,0.525l2.024-1.287c-0.123-0.161-0.252-0.318-0.383-0.474l-1.283,0.845l-0.086,0.077l0.064-0.096l0.566-1.13l-0.399-0.4l-1.131,0.566l-0.097,0.065l0.076-0.088l0.85-1.283C17.34,4.952,17.197,4.836,17.016,4.695z M6.583,5.154c-0.3,0.03-0.532,0.235-1.161,0.938c-0.218,0.247-0.428,0.501-0.63,0.762L6.52,8.493C7.092,7.86,7.325,7.624,7.777,7.149c0.319-0.338,0.5-0.725,0.18-1.098C7.783,5.849,7.492,5.805,7.248,5.905L7.225,5.913l0.008-0.021C7.294,5.666,7.215,5.425,7.031,5.28C6.904,5.18,6.743,5.135,6.583,5.154L6.583,5.154z M6.588,5.667c0.113-0.031,0.231,0.05,0.256,0.167C6.872,5.95,6.798,6.06,6.717,6.151c-0.184,0.209-0.86,0.916-0.86,0.916l-0.335-0.32C5.87,6.322,6.24,5.936,6.408,5.783C6.458,5.73,6.52,5.69,6.588,5.667z M12,6.069c-3.041-0.001-5.59,2.299-5.9,5.324v0.001c-0.332,3.26,2.043,6.172,5.304,6.504c0.599,0.062,1.204,0.031,1.792-0.09c2.758-0.566,4.734-2.994,4.734-5.81C17.927,8.727,15.273,6.073,12,6.071V6.069z M7.386,6.271c0.039,0,0.08,0.011,0.117,0.036C7.576,6.356,7.609,6.44,7.591,6.523c-0.022,0.1-0.104,0.193-0.171,0.266L6.549,7.722l-0.35-0.333c0,0,0.656-0.693,0.871-0.916c0.085-0.089,0.14-0.142,0.198-0.171C7.304,6.283,7.344,6.272,7.386,6.271L7.386,6.271z M12,6.848c2.842-0.003,5.148,2.298,5.15,5.14c0,0.004,0,0.008,0,0.012H12v5.15c-2.842,0.004-5.148-2.297-5.152-5.14c0-0.004,0-0.008,0-0.012H12V6.848z"/>
</svg>
