<svg version="1.1" id="master" xmlns="http://www.w3.org/2000/svg" xmlns:xlink="http://www.w3.org/1999/xlink" x="0px" y="0px" width="24px" height="24px" viewBox="0 0 24 24" enable-background="new 0 0 24 24" xml:space="preserve">
<rect fill="none" width="24" height="24"/>
<path d="M14.857,6.286V4.857c0-0.785-0.644-1.428-1.429-1.428h-2.857c-0.785,0-1.428,0.643-1.428,1.428v1.429H3.429C2.643,6.286,2,6.929,2,7.714v11.428c0,0.786,0.643,1.429,1.429,1.429h17.143c0.785,0,1.429-0.643,1.429-1.429V7.714c0-0.786-0.644-1.429-1.429-1.429H14.857z M10.571,4.857h2.857v1.429h-2.857V4.857z M20.571,13.429h-7.143v1.429h-2.857v-1.429H3.429V7.714h1.428V12h14.286V7.714h1.429V13.429z"/>
</svg>
