<svg version="1.1" id="master" xmlns="http://www.w3.org/2000/svg" xmlns:xlink="http://www.w3.org/1999/xlink" x="0px" y="0px" width="24px" height="24px" viewBox="0 0 24 24" enable-background="new 0 0 24 24" xml:space="preserve">
<rect fill="none" width="24" height="24"/>
<path d="M9.143,4.857h1.428v1.429H9.143V4.857z M6.286,4.857h1.429v1.429H6.286V4.857z M3.429,4.857h1.428v1.429H3.429V4.857z M20.571,19.143H3.429V7.714h17.143V19.143z M20.571,6.286H12V4.857h8.571V6.286z M22,4.857c0-0.785-0.644-1.428-1.429-1.428H3.429C2.643,3.429,2,4.072,2,4.857v14.286c0,0.786,0.643,1.429,1.429,1.429h17.143c0.785,0,1.429-0.643,1.429-1.429V4.857z"/>
</svg>
