<svg version="1.1" id="master" xmlns="http://www.w3.org/2000/svg" xmlns:xlink="http://www.w3.org/1999/xlink" x="0px" y="0px" width="24px" height="24px" viewBox="0 0 24 24" enable-background="new 0 0 24 24" xml:space="preserve">
<rect fill="none" width="24" height="24"/>
<path d="M17.247,15.748h4.498v-1.499h-4.498V12.75L22,11.206l-0.51-1.41l-4.243,1.455v-1.5c0-0.824-0.675-1.499-1.499-1.499v-1.5c0-0.72-0.539-1.319-1.244-1.455l1.545-1.544h2.698V2.255h-3.299L12.45,5.253h-0.885L8.552,2.255H5.253v1.499h2.698l1.545,1.544c-0.705,0.136-1.245,0.72-1.245,1.455v1.5c-0.824,0-1.5,0.675-1.5,1.499v1.5L2.509,9.796L2,11.206l4.752,1.544v1.499H2.255v1.499h4.498v1.499L2,18.791l0.509,1.411l4.243-1.455v1.499c0,0.824,0.675,1.499,1.5,1.499h1.499l1.5-1.499V9.751h1.5v10.495l1.499,1.499h1.499c0.824,0,1.499-0.675,1.499-1.499v-1.499l4.243,1.455L22,18.791l-4.753-1.544V15.748z M14.249,8.252H9.751v-1.5h4.498V8.252z"/>
</svg>
