<svg version="1.1" id="master" xmlns="http://www.w3.org/2000/svg" xmlns:xlink="http://www.w3.org/1999/xlink" x="0px" y="0px"
	 width="24px" height="24px" viewBox="0 0 24 24" enable-background="new 0 0 24 24" xml:space="preserve">
<rect fill="none" width="24" height="24"/>
<path d="M7.747,2L6.734,4.333H5.229v2.102h0.579l0.588,3.732H5.476l1.217,6.858l0.781-0.008L8.259,22h7.432l0.053-0.334l0.732-4.649
	l0.74,0.008l1.217-6.859h-0.88l0.587-3.731h0.631V4.333h-1.599L16.157,2H7.747z M8.188,2.671h7.536l0.643,1.483H7.542L8.188,2.671z
	 M5.896,5.002H18.1v0.767H5.896V5.002z M6.273,10.833h11.362l-0.98,5.517L11.948,16.3l-4.696,0.051L6.273,10.833z"/>
</svg>
