<svg version="1.1" id="master" xmlns="http://www.w3.org/2000/svg" xmlns:xlink="http://www.w3.org/1999/xlink" x="0px" y="0px" width="24px" height="24px" viewBox="0 0 24 24" enable-background="new 0 0 24 24" xml:space="preserve">
<rect fill="none" width="24" height="24"/>
<path d="M19.857,3.429h-1.429v2.143c0,0.4-0.314,0.714-0.715,0.714h-2.857c-0.399,0-0.714-0.314-0.714-0.714V3.429H9.856v2.143c0,0.4-0.314,0.714-0.714,0.714H6.285c-0.399,0-0.714-0.314-0.714-0.714V3.429H4.143c-0.785,0-1.429,0.643-1.429,1.428v15.714C2.714,21.356,3.357,22,4.143,22h15.715c0.785,0,1.429-0.644,1.429-1.429V4.857C21.286,4.072,20.643,3.429,19.857,3.429z M19.857,20.571H4.143V7.714h15.715V20.571z M8.429,4.857H7V2h1.429V4.857z M17,4.857h-1.429V2H17V4.857z M9.856,10.571H8.429V9.143h1.428V10.571z M12.714,10.571h-1.429V9.143h1.429V10.571z M15.571,10.571h-1.429V9.143h1.429V10.571z M18.429,10.571H17V9.143h1.429V10.571z M7,13.429H5.571V12H7V13.429z M9.856,13.429H8.429V12h1.428V13.429z M12.714,13.429h-1.429V12h1.429V13.429z M15.571,13.429h-1.429V12h1.429V13.429z M18.429,13.429H17V12h1.429V13.429z M7,16.285H5.571v-1.428H7V16.285z M9.856,16.285H8.429v-1.428h1.428V16.285z M12.714,16.285h-1.429v-1.428h1.429V16.285z M15.571,16.285h-1.429v-1.428h1.429V16.285z M18.429,16.285H17v-1.428h1.429V16.285z M7,19.143H5.571v-1.429H7V19.143z M9.856,19.143H8.429v-1.429h1.428V19.143z M12.714,19.143h-1.429v-1.429h1.429V19.143z M15.571,19.143h-1.429v-1.429h1.429V19.143z"/>
</svg>
