<svg version="1.1" id="master" xmlns="http://www.w3.org/2000/svg" xmlns:xlink="http://www.w3.org/1999/xlink" x="0px" y="0px" width="24px" height="24px" viewBox="0 0 24 24" enable-background="new 0 0 24 24" xml:space="preserve">
<rect fill="none" width="24" height="24"/>
<path d="M20.75,5.75h-10c0-0.688-0.563-1.25-1.25-1.25h-5c-0.688,0-1.25,0.563-1.25,1.25C2.563,5.75,2,6.313,2,7v11.25c0,0.688,0.563,1.25,1.25,1.25h17.5c0.688,0,1.25-0.563,1.25-1.25V7C22,6.313,21.438,5.75,20.75,5.75z M9.5,8.25h-5V7h5V8.25z M15.125,17c-2.425,0-4.375-1.95-4.375-4.375S12.7,8.25,15.125,8.25S19.5,10.2,19.5,12.625S17.55,17,15.125,17z M18.25,12.625c0,1.725-1.412,3.125-3.125,3.125S12,14.338,12,12.625S13.412,9.5,15.125,9.5S18.25,10.912,18.25,12.625z"/>
</svg>
