<svg version="1.1" id="master" xmlns="http://www.w3.org/2000/svg" xmlns:xlink="http://www.w3.org/1999/xlink" x="0px" y="0px" width="24px" height="24px" viewBox="0 0 24 24" enable-background="new 0 0 24 24" xml:space="preserve">
<rect fill="none" width="24" height="24"/>
<path d="M22,7v12c0,0.051-0.012,0.1-0.016,0.149l-5.1-5.097C16.957,13.713,17,13.361,17,13c0-2.76-2.24-5-5-5c-0.363,0-0.715,0.043-1.056,0.117L7.483,4.658L9,3h6l1.83,2H20C21.1,5,22,5.9,22,7z M12.716,9.887l2.396,2.395C14.839,11.092,13.905,10.16,12.716,9.887z M20.824,20.816c-0.196,0.089-0.41,0.139-0.632,0.162l-1.021,1.021L18.173,21H4c-1.1,0-2-0.9-2-2V7c0-0.594,0.268-1.124,0.682-1.491L2,4.828l1.414-1.414l7.959,7.958l3.329,3.327L14.701,14.7l1.286,1.286c0.001-0.001,0.001-0.001,0.002-0.002L20.824,20.816z M14.489,17.316l-1.353-1.353C12.781,16.102,12.405,16.2,12,16.2c-1.767,0-3.2-1.433-3.2-3.2c0-0.405,0.098-0.78,0.236-1.136l-1.353-1.353C7.254,11.243,7,12.089,7,13c0,2.76,2.24,5,5,5C12.911,18,13.757,17.746,14.489,17.316z"/>
</svg>
