<svg version="1.1" id="master" xmlns="http://www.w3.org/2000/svg" xmlns:xlink="http://www.w3.org/1999/xlink" x="0px" y="0px" width="24px" height="24px" viewBox="0 0 24 24" enable-background="new 0 0 24 24" xml:space="preserve">
<rect fill="none" width="24" height="24"/>
<path d="M21.078,6.313c0.296,0.244,0.523,0.532,0.683,0.865S22,7.87,22,8.252c0,0.342-0.066,0.664-0.2,0.965c-0.133,0.301-0.314,0.565-0.543,0.792c-0.229,0.226-0.496,0.405-0.801,0.539c-0.304,0.134-0.624,0.2-0.96,0.2h-1.374c0.087,0.411,0.13,0.829,0.13,1.252c0,0.574-0.075,1.128-0.226,1.661c-0.151,0.533-0.361,1.03-0.631,1.491s-0.596,0.883-0.979,1.265c-0.382,0.383-0.804,0.709-1.265,0.979s-0.958,0.479-1.491,0.631c-0.533,0.15-1.087,0.226-1.661,0.226c-0.429,0-0.847-0.043-1.252-0.13v1.382c0,0.343-0.065,0.666-0.196,0.97c-0.13,0.305-0.309,0.57-0.534,0.796c-0.227,0.227-0.491,0.404-0.796,0.535C8.917,21.935,8.594,22,8.252,22c-0.18,0-0.362-0.021-0.548-0.061c-0.186-0.041-0.363-0.101-0.534-0.179s-0.331-0.174-0.479-0.287c-0.147-0.112-0.274-0.245-0.378-0.396c-0.186,0.099-0.379,0.173-0.579,0.222c-0.199,0.05-0.404,0.074-0.612,0.074c-0.349,0-0.673-0.065-0.975-0.195c-0.301-0.131-0.564-0.31-0.791-0.535c-0.226-0.227-0.404-0.49-0.535-0.791c-0.13-0.302-0.195-0.626-0.195-0.975c0-0.208,0.024-0.413,0.074-0.612c0.049-0.2,0.123-0.393,0.222-0.579c-0.15-0.109-0.283-0.237-0.396-0.382c-0.113-0.146-0.209-0.304-0.287-0.475s-0.138-0.348-0.179-0.53C2.021,16.117,2,15.934,2,15.748c0-0.342,0.065-0.665,0.195-0.97c0.131-0.305,0.309-0.569,0.535-0.796c0.226-0.226,0.491-0.404,0.796-0.534c0.304-0.131,0.627-0.196,0.97-0.196h1.382c-0.087-0.405-0.13-0.823-0.13-1.252c0-0.574,0.075-1.127,0.226-1.661c0.151-0.533,0.361-1.03,0.631-1.491S7.2,7.965,7.583,7.583C7.965,7.2,8.387,6.874,8.848,6.604s0.958-0.479,1.491-0.63S11.426,5.748,12,5.748c0.423,0,0.841,0.043,1.252,0.13V4.504c0-0.336,0.066-0.657,0.2-0.961s0.313-0.571,0.539-0.8c0.227-0.229,0.49-0.41,0.791-0.543C15.084,2.067,15.406,2,15.748,2c0.383,0,0.74,0.08,1.073,0.239c0.334,0.159,0.622,0.387,0.865,0.683c0.186-0.099,0.379-0.172,0.579-0.222c0.199-0.049,0.404-0.074,0.612-0.074c0.343,0,0.666,0.065,0.97,0.196c0.305,0.13,0.569,0.309,0.796,0.535c0.226,0.226,0.404,0.491,0.535,0.796c0.13,0.304,0.195,0.627,0.195,0.969c0,0.209-0.024,0.413-0.074,0.613C21.251,5.935,21.177,6.127,21.078,6.313z M12,17.035c0.377,0,0.748-0.042,1.113-0.126s0.714-0.208,1.048-0.37c0.333-0.162,0.646-0.359,0.938-0.591c0.293-0.232,0.559-0.496,0.796-0.792h-2.018v-2.504h-2.504v-2.496H8.878V8.13c-0.597,0.493-1.06,1.073-1.387,1.739C7.164,10.536,7,11.258,7,12.035c0,0.44,0.058,0.871,0.174,1.291s0.284,0.821,0.505,1.204H4.496c-0.175,0-0.337,0.033-0.487,0.101c-0.15,0.066-0.282,0.156-0.396,0.27c-0.113,0.112-0.202,0.244-0.266,0.396c-0.063,0.15-0.096,0.313-0.096,0.486s0.032,0.337,0.096,0.487s0.152,0.282,0.266,0.396s0.245,0.203,0.396,0.27s0.313,0.101,0.487,0.101h0.738l-0.991,0.991c-0.115,0.116-0.205,0.25-0.27,0.404c-0.063,0.153-0.096,0.314-0.096,0.482c0,0.174,0.032,0.336,0.096,0.487c0.064,0.15,0.152,0.282,0.266,0.396s0.245,0.201,0.396,0.265c0.15,0.064,0.313,0.096,0.487,0.096c0.168,0,0.329-0.031,0.482-0.096c0.153-0.063,0.288-0.153,0.404-0.27L7,18.8v0.73c0,0.174,0.032,0.338,0.096,0.491c0.063,0.154,0.152,0.287,0.266,0.4c0.112,0.113,0.246,0.201,0.399,0.265c0.153,0.064,0.317,0.096,0.491,0.096s0.337-0.033,0.487-0.1s0.282-0.156,0.396-0.27s0.201-0.245,0.266-0.396c0.063-0.151,0.096-0.313,0.096-0.487v-3.174c0.382,0.221,0.785,0.389,1.208,0.505C11.128,16.977,11.56,17.035,12,17.035z M6.374,17.035c0-0.174,0.061-0.322,0.183-0.444l1.565-1.564l0.887,0.887L7.443,17.47C7.321,17.591,7.174,17.652,7,17.652c-0.168,0-0.314-0.062-0.439-0.183C6.437,17.348,6.374,17.203,6.374,17.035z M17.626,7.035c0-0.168-0.063-0.314-0.187-0.439C17.314,6.471,17.168,6.409,17,6.409c-0.174,0-0.321,0.061-0.443,0.183l-1.565,1.557l0.887,0.887l1.565-1.565C17.565,7.348,17.626,7.203,17.626,7.035z"/>
</svg>
