<svg version="1.1" id="master" xmlns="http://www.w3.org/2000/svg" xmlns:xlink="http://www.w3.org/1999/xlink" x="0px" y="0px"
	 width="24px" height="24px" viewBox="0 0 24 24" enable-background="new 0 0 24 24" xml:space="preserve">
<rect fill="none" width="24" height="24"/>
<path d="M13.851,7.928c0-0.213-0.07-0.39-0.211-0.531c-0.142-0.141-0.318-0.211-0.531-0.211H8.665c-0.192,0-0.364,0.065-0.516,0.196
	C7.998,7.512,7.923,7.677,7.923,7.876c0,0.213,0.068,0.398,0.206,0.557S8.445,8.67,8.665,8.67h1.484
	c0.199,0,0.373,0.072,0.521,0.217c0.148,0.144,0.222,0.316,0.222,0.515v4.083c0,0.097,0.034,0.182,0.104,0.258
	c0.068,0.076,0.151,0.113,0.247,0.113c0.11,0,0.201-0.032,0.273-0.098s0.108-0.156,0.108-0.273c0-0.625,0.001-1.244,0.005-1.855
	c0.003-0.612,0.005-1.23,0.005-1.855c0-0.097,0.034-0.182,0.104-0.258c0.068-0.076,0.151-0.114,0.247-0.114
	c0.104,0,0.192,0.036,0.269,0.108c0.075,0.072,0.113,0.16,0.113,0.263v5.557c0,0.186,0.066,0.355,0.201,0.51
	c0.134,0.154,0.301,0.232,0.5,0.232c0.22,0,0.405-0.065,0.557-0.195c0.151-0.131,0.227-0.313,0.227-0.547V7.928z M8.665,19.783
	h4.443v-2.969c-0.206,0-0.398-0.037-0.577-0.113s-0.335-0.181-0.47-0.314c-0.134-0.135-0.238-0.292-0.314-0.475
	c-0.075-0.182-0.113-0.376-0.113-0.582v-0.805c-0.062,0.021-0.123,0.038-0.186,0.052c-0.062,0.015-0.123,0.021-0.186,0.021
	c-0.158,0-0.304-0.029-0.438-0.088c-0.135-0.058-0.251-0.137-0.351-0.236s-0.179-0.217-0.237-0.351s-0.088-0.28-0.088-0.438V9.402
	H8.665V19.783z M11.634,5.701c0,0.186-0.06,0.347-0.181,0.484c-0.12,0.138-0.27,0.224-0.448,0.258
	c0.192-0.014,0.371-0.063,0.536-0.149s0.31-0.196,0.434-0.33c0.123-0.134,0.22-0.287,0.288-0.458
	c0.069-0.172,0.104-0.354,0.104-0.546c0-0.591-0.133-1.139-0.397-1.645S11.346,2.371,10.892,2c-0.453,0.371-0.814,0.808-1.082,1.309
	c-0.269,0.502-0.402,1.052-0.402,1.65c0,0.199,0.036,0.388,0.108,0.567s0.172,0.335,0.299,0.469c0.127,0.134,0.278,0.241,0.453,0.32
	c0.176,0.079,0.363,0.122,0.563,0.129c-0.199-0.014-0.362-0.091-0.49-0.232c-0.127-0.141-0.19-0.311-0.19-0.51
	c0-0.295,0.068-0.571,0.206-0.825c0.138-0.254,0.316-0.475,0.536-0.66c0.22,0.186,0.398,0.406,0.536,0.66
	C11.565,5.13,11.634,5.406,11.634,5.701z M18.86,18.176c-0.116-0.269-0.274-0.504-0.474-0.707c-0.199-0.202-0.434-0.362-0.701-0.479
	c-0.268-0.117-0.557-0.176-0.866-0.176c-0.309,0-0.598,0.059-0.866,0.176c-0.268,0.116-0.503,0.276-0.706,0.479
	c-0.202,0.203-0.362,0.438-0.479,0.707c-0.116,0.268-0.175,0.557-0.175,0.865c0,0.275,0.05,0.539,0.149,0.794
	s0.239,0.485,0.418,0.69H5.314c-0.097,0-0.179,0.037-0.247,0.108c-0.069,0.072-0.104,0.157-0.104,0.253
	c0,0.104,0.025,0.18,0.077,0.232c0.052,0.051,0.113,0.087,0.186,0.107c0.072,0.021,0.151,0.031,0.237,0.031s0.167,0,0.242,0
	c0,0.206,0.07,0.381,0.212,0.525C6.059,21.928,6.232,22,6.438,22h9.639c0.206,0,0.382-0.072,0.526-0.217
	c0.144-0.145,0.216-0.319,0.216-0.525c0.31,0,0.599-0.059,0.866-0.176c0.268-0.116,0.502-0.274,0.701-0.474
	c0.199-0.2,0.357-0.433,0.474-0.701c0.117-0.269,0.176-0.557,0.176-0.866C19.036,18.732,18.978,18.443,18.86,18.176z M18.181,19.619
	c-0.076,0.178-0.181,0.334-0.314,0.469c-0.134,0.134-0.291,0.24-0.47,0.319s-0.371,0.118-0.577,0.118s-0.398-0.039-0.577-0.118
	s-0.335-0.186-0.469-0.319c-0.134-0.135-0.241-0.291-0.32-0.469c-0.078-0.18-0.118-0.371-0.118-0.578
	c0-0.206,0.038-0.398,0.113-0.577c0.076-0.179,0.181-0.335,0.314-0.47c0.134-0.133,0.292-0.24,0.475-0.318
	c0.182-0.08,0.376-0.119,0.582-0.119s0.398,0.039,0.577,0.119c0.179,0.078,0.336,0.186,0.47,0.318
	c0.134,0.135,0.238,0.291,0.314,0.47c0.075,0.179,0.113,0.371,0.113,0.577C18.294,19.248,18.256,19.439,18.181,19.619z"/>
</svg>
