<svg version="1.1" id="master" xmlns="http://www.w3.org/2000/svg" xmlns:xlink="http://www.w3.org/1999/xlink" x="0px" y="0px" width="24px" height="24px" viewBox="0 0 24 24" enable-background="new 0 0 24 24" xml:space="preserve">
<rect fill="none" width="24" height="24"/>
<path d="M14.935,4.935l1.372,1.372l-3.328,3.329l-0.027-4.701H14.935z M16.981,6.307l-3.999,4l0.004,0.708l0.707,0.004l4-4l1.372,1.373V4.935h-3.456L16.981,6.307z M11.022,9.636l0.027-4.701H9.065L7.693,6.307L11.022,9.636z M9.542,4.458h1.987l-0.033,5.651L12,10.614l0.504-0.504l-0.032-5.651h1.986L12,2L9.542,4.458z M9.636,12.979l-4.701-0.027v1.983l1.372,1.372L9.636,12.979z M22,12l-2.458-2.458v1.986l-5.652-0.033L13.386,12l0.504,0.504l5.652-0.032v1.986L22,12z M2,12l2.458,2.458v-1.986l5.651,0.032L10.614,12l-0.504-0.504l-5.651,0.033V9.542L2,12z M19.065,9.065l-1.372-1.372l-3.329,3.329l4.701,0.027V9.065z M14.458,19.542h-1.986l0.032-5.652L12,13.386l-0.504,0.504l0.033,5.652H9.542L12,22L14.458,19.542z M12.979,14.364l-0.027,4.701h1.983l1.372-1.372L12.979,14.364z M19.065,15.609l-1.372,1.372l-4-3.999l-0.707,0.004l-0.004,0.707l3.999,4l-1.372,1.372h3.456V15.609z M17.693,16.307l1.372-1.372v-1.983l-4.701,0.027L17.693,16.307z M4.935,8.391l1.372-1.372l3.999,4l0.708-0.004l0.004-0.708l-4-3.999l1.372-1.372H4.935V8.391z M6.307,7.693L4.935,9.065v1.984l4.701-0.027L6.307,7.693z M7.019,17.693l4-4l-0.004-0.707l-0.708-0.004l-4,3.999l-1.372-1.372v3.456h3.456L7.019,17.693z M11.049,19.065l-0.027-4.701l-3.329,3.329l1.372,1.372H11.049z"/>
</svg>
