<svg version="1.1" id="master" xmlns="http://www.w3.org/2000/svg" xmlns:xlink="http://www.w3.org/1999/xlink" x="0px" y="0px" width="24px" height="24px" viewBox="0 0 24 24" enable-background="new 0 0 24 24" xml:space="preserve">
<rect fill="none" width="24" height="24"/>
<path d="M17.313,5.861c0.186,0.069,0.354,0.163,0.508,0.282c0.154,0.119,0.286,0.255,0.396,0.408c0.109,0.154,0.195,0.323,0.256,0.509c0.062,0.186,0.092,0.377,0.092,0.574v3.513c0,0.203-0.03,0.404-0.092,0.604c-0.061,0.2-0.145,0.389-0.252,0.565s-0.237,0.335-0.392,0.474c-0.153,0.14-0.326,0.25-0.517,0.331v7c0,0.255-0.05,0.495-0.148,0.722c-0.099,0.226-0.233,0.425-0.404,0.596s-0.369,0.307-0.596,0.408C15.939,21.949,15.698,22,15.443,22H7.33c-0.261,0-0.506-0.049-0.734-0.147c-0.229-0.099-0.429-0.232-0.6-0.4c-0.172-0.168-0.308-0.366-0.409-0.596c-0.102-0.229-0.152-0.474-0.152-0.734V3.878c0-0.261,0.051-0.505,0.152-0.734s0.237-0.428,0.409-0.596c0.171-0.168,0.37-0.302,0.6-0.4C6.824,2.049,7.069,2,7.33,2h8.113c0.255,0,0.496,0.051,0.722,0.152c0.227,0.102,0.425,0.237,0.596,0.408s0.306,0.371,0.404,0.601c0.099,0.229,0.148,0.468,0.148,0.717V5.861z M6.687,11.374h9.992c0.174,0,0.322-0.063,0.447-0.188c0.125-0.124,0.188-0.273,0.188-0.447V7.191c0-0.081-0.02-0.158-0.057-0.23c-0.038-0.072-0.087-0.136-0.148-0.191c-0.061-0.055-0.13-0.099-0.208-0.131c-0.079-0.031-0.155-0.048-0.23-0.048c-0.029,0-0.056,0-0.079,0c-0.022,0-0.049,0.006-0.078,0.018c-1.147,0.325-2.285,0.657-3.413,0.996c-1.127,0.339-2.262,0.68-3.404,1.021L7.861,9.165C7.67,9.224,7.476,9.282,7.278,9.344c-0.197,0.061-0.395,0.114-0.592,0.16V11.374z M6.695,3.878v2.496h4.365V3.252H7.33c-0.174,0-0.323,0.062-0.447,0.183C6.758,3.557,6.695,3.704,6.695,3.878z M6.695,7v1.844l4.365-1.278V7H6.695z M15.443,3.252h-3.757v3.122h3.409c0.012,0,0.065-0.013,0.161-0.039s0.199-0.057,0.313-0.092c0.113-0.034,0.219-0.066,0.317-0.096c0.099-0.028,0.159-0.049,0.183-0.061V3.878c0-0.174-0.061-0.321-0.183-0.443C15.766,3.313,15.617,3.252,15.443,3.252z M11.687,7.383L12.974,7h-1.287V7.383z"/>
</svg>
