<svg version="1.1" id="master" xmlns="http://www.w3.org/2000/svg" xmlns:xlink="http://www.w3.org/1999/xlink" x="0px" y="0px" width="24px" height="24px" viewBox="0 0 24 24" enable-background="new 0 0 24 24" xml:space="preserve">
<rect fill="none" width="24" height="24"/>
<path d="M6.286,7.714c0-0.786,0.643-1.429,1.429-1.429c0.785,0,1.429,0.643,1.429,1.429c0,0.785-0.644,1.429-1.429,1.429C6.929,9.143,6.286,8.5,6.286,7.714z M17.714,7.714c0-0.786-0.643-1.429-1.429-1.429c-0.785,0-1.428,0.643-1.428,1.429c0,0.785,0.643,1.429,1.428,1.429C17.071,9.143,17.714,8.5,17.714,7.714z M17.714,16.285c0-0.785-0.643-1.428-1.429-1.428c-0.785,0-1.428,0.643-1.428,1.428c0,0.786,0.643,1.429,1.428,1.429C17.071,17.714,17.714,17.071,17.714,16.285z M20.571,2H9.143v3.1c0.514,0.271,0.914,0.671,1.186,1.186h3.343c0.6-1.114,1.899-1.828,3.342-1.5C18.085,5.057,18.957,5.929,19.2,7c0.442,1.971-1.029,3.7-2.929,3.7c-1.143,0-2.115-0.628-2.614-1.557h-3.329c-0.6,1.143-1.9,1.828-3.343,1.471C5.942,10.371,5.071,9.5,4.814,8.442C4.458,6.986,5.143,5.7,6.286,5.1V2H3.429C2.643,2,2,2.643,2,3.429v17.143C2,21.356,2.643,22,3.429,22l7.143-7.143h3.101c0.6-1.114,1.899-1.828,3.342-1.5c1.071,0.271,1.943,1.143,2.187,2.214c0.442,1.972-1.029,3.7-2.929,3.7c-1.143,0-2.115-0.628-2.614-1.558h-1.671L7.714,22h12.857C21.356,22,22,21.356,22,20.571V3.429C22,2.643,21.356,2,20.571,2z"/>
</svg>
