<svg version="1.1" id="master" xmlns="http://www.w3.org/2000/svg" xmlns:xlink="http://www.w3.org/1999/xlink" x="0px" y="0px"
	 width="24px" height="24px" viewBox="0 0 24 24" enable-background="new 0 0 24 24" xml:space="preserve">
<rect fill="none" width="24" height="24"/>
<path d="M9.47,12c0-1.32,1.07-2.379,2.379-2.379c1.312,0,2.381,1.07,2.381,2.379c0,1.311-1.069,2.38-2.381,2.38
	C10.541,14.38,9.47,13.311,9.47,12z M11.849,2C7.18,2,3.269,5.2,2.159,9.521C2.15,9.551,2.15,9.579,2.15,9.621
	c0,0.261,0.21,0.48,0.479,0.48h4.029c0.191,0,0.36-0.109,0.431-0.278c0.831-1.8,2.65-3.06,4.76-3.06c2.889,0,5.239,2.35,5.239,5.239
	c0,2.891-2.351,5.242-5.242,5.242c-2.108,0-3.929-1.25-4.759-3.061c-0.081-0.159-0.241-0.28-0.431-0.28H2.63
	c-0.26,0-0.479,0.211-0.479,0.479c0,0.031,0.012,0.061,0.012,0.101C3.263,18.8,7.179,22,11.849,22c5.521,0,10.001-4.479,10.001-10
	C21.85,6.481,17.369,2,11.849,2z"/>
</svg>
