<svg version="1.1" id="master" xmlns="http://www.w3.org/2000/svg" xmlns:xlink="http://www.w3.org/1999/xlink" x="0px" y="0px" width="24px" height="24px" viewBox="0 0 24 24" enable-background="new 0 0 24 24" xml:space="preserve">
<rect fill="none" width="24" height="24"/>
<path d="M3.839,6.188c3.226-4.496,9.487-5.526,13.983-2.3c2.619,1.88,4.175,4.906,4.178,8.131c0,5.284-5.558,4.54-5.558,4.54c2.48-2.502,2.464-6.541-0.038-9.022c-1.834-1.82-4.586-2.353-6.968-1.35C6.344,4.427,3.839,6.188,3.839,6.188 M20.16,17.813c-3.226,4.496-9.485,5.525-13.981,2.299C3.558,18.232,2.003,15.205,2,11.98c0-5.284,5.558-4.54,5.558-4.54c-2.481,2.501-2.464,6.541,0.038,9.021c1.835,1.82,4.586,2.354,6.968,1.351C17.655,19.573,20.16,17.813,20.16,17.813 M10.297,7.01c2.761-0.945,5.765,0.526,6.71,3.287c0.752,2.196-0.018,4.626-1.896,5.989c-1.448,0.117-2.661-4.228-2.857-4.893C12.059,10.728,11.511,8.301,10.297,7.01 M8.849,16.286c-2.362-1.714-2.888-5.018-1.175-7.38c0.346-0.477,0.77-0.894,1.254-1.231c1.409,0.744,2.309,3.522,2.309,3.522S9.123,15.189,8.849,16.286 M10.141,16.99c0,0,1.487,0.704,3.483,0.078c-1.174-0.979-1.878-4.345-2.074-4.814C11.276,12.803,9.867,15.659,10.141,16.99"/>
</svg>
