<svg version="1.1" id="master" xmlns="http://www.w3.org/2000/svg" xmlns:xlink="http://www.w3.org/1999/xlink" x="0px" y="0px" width="24px" height="24px" viewBox="0 0 24 24" enable-background="new 0 0 24 24" xml:space="preserve">
<rect fill="none" width="24" height="24"/>
<path d="M8.964,6.136c0.9-0.504,1.932-0.803,3.036-0.803c3.034,0,5.559,2.16,6.125,5.035C20.292,10.518,22,12.3,22,14.5c0,1.279-0.59,2.41-1.498,3.174l-1.177-1.177c0.609-0.456,1.008-1.177,1.008-1.997c0-1.383-1.116-2.5-2.5-2.5h-1.25v-0.417C16.583,9.05,14.533,7,12,7c-0.64,0-1.24,0.144-1.792,0.38L8.964,6.136z M19.172,22l-3.334-3.334H7c-2.758,0-5-2.24-5-4.998c0-2.404,1.706-4.395,3.971-4.869L2,4.828l1.414-1.414l3.968,3.968l1.185,1.185L17,17l1.59,1.59l1.996,1.996L19.172,22z M14.172,17l-6.665-6.665H7c-1.841,0-3.333,1.491-3.333,3.333C3.667,15.508,5.158,17,7,17H14.172z"/>
</svg>
