<svg version="1.1" id="master" xmlns="http://www.w3.org/2000/svg" xmlns:xlink="http://www.w3.org/1999/xlink" x="0px" y="0px" width="24px" height="24px" viewBox="0 0 24 24" enable-background="new 0 0 24 24" xml:space="preserve">
<rect fill="none" width="24" height="24"/>
<path d="M18.125,10.368C17.559,7.493,15.034,5.333,12,5.333c-2.408,0-4.5,1.367-5.542,3.367C3.95,8.967,2,11.092,2,13.668c0,2.758,2.242,4.998,5,4.998h10.833c2.3,0,4.167-1.865,4.167-4.166C22,12.3,20.292,10.518,18.125,10.368z M17.833,17H7c-1.842,0-3.333-1.492-3.333-3.332c0-1.842,1.492-3.333,3.333-3.333h0.592C8.142,8.41,9.9,7,12,7c2.533,0,4.583,2.05,4.583,4.583V12h1.25c1.384,0,2.5,1.117,2.5,2.5S19.217,17,17.833,17z"/>
</svg>
