<svg version="1.1" id="master" xmlns="http://www.w3.org/2000/svg" xmlns:xlink="http://www.w3.org/1999/xlink" x="0px" y="0px"
	 width="24px" height="24px" viewBox="0 0 24 24" enable-background="new 0 0 24 24" xml:space="preserve">
<rect fill="none" width="24" height="24"/>
<path d="M20.502,17.674L8.964,6.136c0.9-0.504,1.932-0.803,3.036-0.803c3.034,0,5.559,2.159,6.125,5.034
	C20.292,10.517,22,12.3,22,14.5C22,15.779,21.41,16.91,20.502,17.674z M7.382,7.382L3.414,3.414L2,4.828l3.971,3.971
	C3.706,9.273,2,11.264,2,13.667c0,2.759,2.242,4.999,5,4.999h8.838L19.172,22l1.414-1.414L18.59,18.59L7.382,7.382z"/>
</svg>
