<svg version="1.1" id="master" xmlns="http://www.w3.org/2000/svg" xmlns:xlink="http://www.w3.org/1999/xlink" x="0px" y="0px" width="24px" height="24px" viewBox="0 0 24 24" enable-background="new 0 0 24 24" xml:space="preserve">
<rect fill="none" width="24" height="24"/>
<path d="M9.304,6.477L6.486,3.662C8.068,2.614,9.962,2,12,2c5.52,0,10,4.48,10,10c0,2.035-0.612,3.927-1.658,5.507l-4.182-4.178c-0.305-0.579-0.788-1.007-1.351-1.35l-4.211-4.208c0.388-0.19,0.885-0.301,1.481-0.301c1.58,0,2.17,0.76,2.22,1.87h1.96c-0.06-1.53-0.99-2.94-2.85-3.39V4h-2.67v1.93C10.219,6.042,9.735,6.231,9.304,6.477z M19.07,19.069l1.516,1.516l-1.414,1.414l-1.66-1.66C15.931,21.387,14.037,22,12,22C6.48,22,2,17.52,2,12c0-2.037,0.613-3.931,1.661-5.512L2,4.828l1.414-1.414l9.935,9.934c0.001,0.001,0.003,0.001,0.004,0.002l1.036,1.036c0,0.001,0,0.002,0,0.003l1.846,1.845c0-0.001,0.001-0.001,0.001-0.002l2.838,2.835C19.072,19.067,19.071,19.068,19.07,19.069z M14.785,17.612l-1.315-1.315c-0.347,0.145-0.79,0.243-1.39,0.243c-1.83,0-2.55-0.819-2.65-1.87H7.47c0.11,1.939,1.56,3.04,3.27,3.4V20h2.67v-1.91C13.914,17.994,14.369,17.824,14.785,17.612z"/>
</svg>
