<svg version="1.1" id="master" xmlns="http://www.w3.org/2000/svg" xmlns:xlink="http://www.w3.org/1999/xlink" x="0px" y="0px" width="24px" height="24px" viewBox="0 0 24 24" enable-background="new 0 0 24 24" xml:space="preserve">
<rect fill="none" width="24" height="24"/>
<path d="M4.044,14.146c0.099,0,0.194-0.021,0.283-0.065c0.089-0.043,0.17-0.098,0.243-0.163c0.199-0.166,0.386-0.347,0.562-0.542s0.353-0.386,0.532-0.571l3.944-4.024c0.125-0.132,0.255-0.258,0.387-0.377c0.133-0.119,0.255-0.249,0.368-0.387l0.02-0.03c0.066-0.08,0.118-0.151,0.154-0.214c0.037-0.063,0.055-0.144,0.055-0.243c0-0.1-0.021-0.194-0.064-0.283c-0.043-0.09-0.098-0.17-0.164-0.244c-0.212-0.225-0.452-0.429-0.72-0.611s-0.551-0.334-0.85-0.457C8.496,5.812,8.186,5.717,7.865,5.651c-0.321-0.066-0.634-0.1-0.939-0.1c-0.649,0-1.27,0.126-1.863,0.378C4.47,6.181,3.948,6.522,3.498,6.953C3.047,7.383,2.688,7.89,2.42,8.473c-0.268,0.583-0.402,1.202-0.402,1.858c0,0.305,0.035,0.625,0.104,0.963c0.069,0.338,0.172,0.667,0.308,0.989c0.136,0.321,0.298,0.624,0.487,0.909c0.189,0.285,0.403,0.526,0.641,0.726c0.073,0.065,0.146,0.12,0.219,0.163C3.849,14.125,3.938,14.146,4.044,14.146z M5.584,16.282c0.192,0,0.359-0.069,0.501-0.209C6.229,15.935,6.3,15.769,6.3,15.577c0-0.199-0.07-0.368-0.208-0.507c-0.139-0.14-0.308-0.209-0.507-0.209c-0.192,0-0.358,0.071-0.497,0.214c-0.139,0.143-0.208,0.31-0.208,0.502c0,0.191,0.07,0.357,0.208,0.496C5.227,16.213,5.392,16.282,5.584,16.282z M9.896,14.752c0-0.066-0.003-0.134-0.01-0.203c-0.006-0.07-0.023-0.135-0.049-0.194c-0.027-0.06-0.065-0.109-0.114-0.148c-0.05-0.04-0.118-0.06-0.204-0.06c-0.152,0-0.252,0.053-0.298,0.158c-0.046,0.106-0.069,0.226-0.069,0.358c0,0.072,0.003,0.146,0.01,0.218c0.007,0.073,0.01,0.136,0.01,0.189c0,0.225-0.046,0.369-0.139,0.432c-0.093,0.063-0.215,0.095-0.368,0.095c-0.086,0-0.176-0.003-0.269-0.01s-0.195-0.01-0.308-0.01c-0.146,0-0.283,0.027-0.412,0.084c-0.129,0.057-0.243,0.133-0.343,0.229c-0.099,0.096-0.177,0.209-0.233,0.338s-0.084,0.267-0.084,0.412s0.028,0.283,0.084,0.412c0.056,0.13,0.134,0.244,0.233,0.343c0.1,0.1,0.214,0.178,0.343,0.233c0.129,0.057,0.267,0.085,0.412,0.085c0.08,0,0.158-0.003,0.234-0.01s0.154-0.01,0.233-0.01c0.066,0,0.134,0.003,0.204,0.01s0.134,0.023,0.194,0.05s0.109,0.064,0.149,0.114s0.06,0.117,0.06,0.203s-0.02,0.154-0.06,0.204s-0.089,0.088-0.149,0.114s-0.125,0.043-0.194,0.05c-0.069,0.006-0.138,0.01-0.204,0.01c-0.08,0-0.157-0.004-0.233-0.01c-0.076-0.007-0.154-0.011-0.234-0.011c-0.146,0-0.283,0.028-0.412,0.085c-0.129,0.057-0.243,0.134-0.343,0.233c-0.099,0.1-0.177,0.214-0.233,0.343s-0.084,0.267-0.084,0.412s0.028,0.283,0.084,0.412c0.056,0.13,0.134,0.244,0.233,0.343c0.1,0.1,0.214,0.178,0.343,0.234c0.129,0.056,0.267,0.084,0.412,0.084h0.716c0.159,0,0.26,0.058,0.303,0.174s0.064,0.243,0.064,0.383c0,0.06-0.001,0.117-0.005,0.174c-0.003,0.056-0.005,0.107-0.005,0.154c0,0.065,0.003,0.13,0.01,0.193c0.007,0.063,0.021,0.119,0.045,0.169c0.023,0.05,0.06,0.091,0.109,0.124s0.114,0.05,0.194,0.05c0.159,0,0.261-0.063,0.308-0.188c0.046-0.126,0.07-0.266,0.07-0.418c0-0.093-0.003-0.179-0.01-0.258c-0.006-0.08-0.01-0.146-0.01-0.199c0-0.146-0.028-0.283-0.084-0.412s-0.134-0.243-0.233-0.343c-0.1-0.1-0.214-0.177-0.343-0.233c-0.129-0.057-0.267-0.084-0.412-0.084c-0.08,0-0.158,0.003-0.234,0.01c-0.076,0.006-0.154,0.01-0.233,0.01c-0.066,0-0.134-0.004-0.204-0.01c-0.069-0.007-0.134-0.023-0.194-0.05S7.83,19.755,7.79,19.705s-0.06-0.118-0.06-0.204s0.02-0.153,0.06-0.203s0.089-0.088,0.149-0.114s0.125-0.043,0.194-0.05s0.138-0.01,0.204-0.01c0.08,0,0.157,0.003,0.233,0.01s0.154,0.01,0.234,0.01c0.146,0,0.283-0.028,0.412-0.084c0.129-0.057,0.243-0.135,0.343-0.234c0.099-0.099,0.177-0.213,0.233-0.343c0.056-0.129,0.084-0.267,0.084-0.412s-0.028-0.283-0.084-0.412s-0.134-0.243-0.233-0.343c-0.1-0.1-0.214-0.177-0.343-0.233c-0.129-0.057-0.267-0.085-0.412-0.085c-0.08,0-0.158,0.004-0.234,0.011c-0.076,0.006-0.154,0.01-0.233,0.01c-0.066,0-0.134-0.004-0.204-0.01c-0.069-0.007-0.134-0.023-0.194-0.05S7.83,16.894,7.79,16.844s-0.06-0.118-0.06-0.204c0-0.159,0.061-0.262,0.184-0.308c0.123-0.047,0.26-0.069,0.413-0.069c0.093,0,0.18,0.003,0.263,0.01s0.154,0.01,0.214,0.01c0.238,0,0.43-0.043,0.576-0.129c0.146-0.086,0.256-0.2,0.333-0.343s0.126-0.307,0.149-0.492C9.885,15.133,9.896,14.944,9.896,14.752z M9.161,12.716c0.192,0,0.359-0.071,0.502-0.214c0.142-0.143,0.213-0.31,0.213-0.502s-0.071-0.359-0.213-0.502c-0.143-0.142-0.31-0.213-0.502-0.213c-0.199,0-0.368,0.069-0.507,0.208S8.446,11.801,8.446,12s0.069,0.368,0.208,0.507C8.793,12.646,8.962,12.716,9.161,12.716z M10.155,5.89c0.417-0.199,0.783-0.462,1.098-0.79c0.315-0.328,0.568-0.7,0.76-1.118c0.192,0.417,0.445,0.79,0.76,1.118c0.314,0.328,0.681,0.591,1.098,0.79c0.126-0.086,0.252-0.167,0.378-0.243s0.255-0.147,0.388-0.214c-0.338-0.106-0.646-0.26-0.924-0.462s-0.517-0.437-0.716-0.706c-0.198-0.268-0.353-0.564-0.462-0.889c-0.109-0.324-0.164-0.662-0.164-1.013c0-0.1-0.035-0.184-0.104-0.253c-0.07-0.07-0.154-0.104-0.253-0.104c-0.1,0-0.184,0.035-0.253,0.104c-0.069,0.069-0.104,0.154-0.104,0.253c0,0.351-0.055,0.689-0.164,1.013c-0.109,0.325-0.264,0.621-0.462,0.889c-0.199,0.269-0.436,0.503-0.71,0.706c-0.275,0.202-0.582,0.356-0.919,0.462C9.532,5.499,9.661,5.57,9.787,5.646S10.036,5.804,10.155,5.89z M12.013,10.569c0.199,0,0.368-0.07,0.507-0.208c0.139-0.139,0.208-0.308,0.208-0.507c0-0.192-0.07-0.358-0.213-0.497c-0.143-0.139-0.31-0.209-0.502-0.209c-0.192,0-0.359,0.07-0.502,0.209c-0.142,0.139-0.213,0.305-0.213,0.497c0,0.199,0.069,0.368,0.208,0.507C11.645,10.5,11.814,10.569,12.013,10.569z M12.013,14.861c0.199,0,0.368-0.069,0.507-0.209c0.139-0.139,0.208-0.308,0.208-0.506c0-0.199-0.069-0.368-0.208-0.507c-0.139-0.14-0.308-0.209-0.507-0.209s-0.368,0.069-0.507,0.209c-0.139,0.139-0.208,0.308-0.208,0.507c0,0.198,0.069,0.367,0.208,0.506C11.645,14.792,11.814,14.861,12.013,14.861z M12.013,19.144c0.199,0,0.368-0.069,0.507-0.209c0.139-0.139,0.208-0.308,0.208-0.507c0-0.198-0.069-0.367-0.208-0.506c-0.139-0.14-0.308-0.209-0.507-0.209s-0.368,0.069-0.507,0.209c-0.139,0.139-0.208,0.308-0.208,0.506c0,0.199,0.069,0.368,0.208,0.507C11.645,19.074,11.814,19.144,12.013,19.144z M13.801,18.428c0.159,0,0.26-0.058,0.304-0.174c0.043-0.115,0.064-0.243,0.064-0.382c0-0.06-0.002-0.118-0.005-0.174c-0.004-0.057-0.006-0.108-0.006-0.154c0-0.133,0.019-0.257,0.055-0.372c0.037-0.116,0.138-0.175,0.304-0.175h0.715c0.146,0,0.283-0.027,0.412-0.084c0.13-0.057,0.242-0.134,0.338-0.233c0.097-0.1,0.173-0.214,0.229-0.343c0.057-0.129,0.085-0.267,0.085-0.412c0-0.146-0.028-0.283-0.085-0.413c-0.056-0.129-0.132-0.241-0.229-0.337c-0.096-0.097-0.208-0.173-0.338-0.229c-0.129-0.057-0.267-0.085-0.412-0.085c-0.079,0-0.157,0.003-0.233,0.01s-0.154,0.01-0.233,0.01c-0.066,0-0.134-0.003-0.203-0.01c-0.07-0.007-0.135-0.022-0.194-0.05c-0.06-0.026-0.109-0.064-0.148-0.114c-0.04-0.049-0.061-0.117-0.061-0.203s0.021-0.154,0.061-0.204c0.039-0.05,0.089-0.088,0.148-0.114s0.124-0.043,0.194-0.05c0.069-0.006,0.137-0.01,0.203-0.01c0.079,0,0.157,0.004,0.233,0.01c0.076,0.007,0.154,0.011,0.233,0.011c0.146,0,0.283-0.028,0.412-0.085c0.13-0.057,0.242-0.134,0.338-0.233c0.097-0.1,0.173-0.214,0.229-0.343c0.057-0.129,0.085-0.267,0.085-0.412s-0.028-0.283-0.085-0.412c-0.056-0.13-0.132-0.244-0.229-0.343c-0.096-0.099-0.208-0.177-0.338-0.233C15.515,12.028,15.377,12,15.231,12h-0.715c-0.159,0-0.262-0.055-0.309-0.164c-0.046-0.109-0.069-0.23-0.069-0.362c0-0.073,0.004-0.144,0.01-0.214c0.007-0.069,0.01-0.131,0.01-0.184c0-0.133-0.02-0.25-0.06-0.353c-0.039-0.103-0.139-0.154-0.298-0.154s-0.262,0.061-0.308,0.184c-0.047,0.123-0.069,0.26-0.069,0.413c0,0.093,0.003,0.18,0.01,0.263s0.01,0.154,0.01,0.213c0,0.318,0.1,0.577,0.298,0.775c0.199,0.199,0.457,0.298,0.775,0.298c0.079,0,0.157-0.004,0.233-0.011c0.076-0.006,0.154-0.01,0.233-0.01c0.066,0,0.134,0.004,0.203,0.01c0.07,0.007,0.135,0.023,0.194,0.05s0.109,0.064,0.148,0.114c0.04,0.05,0.061,0.118,0.061,0.204s-0.021,0.153-0.061,0.203c-0.039,0.05-0.089,0.088-0.148,0.114s-0.124,0.043-0.194,0.05c-0.069,0.007-0.137,0.01-0.203,0.01c-0.079,0-0.157-0.003-0.233-0.01s-0.154-0.01-0.233-0.01c-0.152,0-0.293,0.028-0.423,0.085c-0.129,0.056-0.241,0.132-0.338,0.229c-0.096,0.096-0.172,0.21-0.229,0.343c-0.056,0.132-0.084,0.271-0.084,0.417s0.028,0.283,0.084,0.412c0.057,0.129,0.135,0.243,0.234,0.343c0.099,0.1,0.213,0.177,0.343,0.233c0.129,0.057,0.267,0.085,0.412,0.085c0.072,0,0.147-0.004,0.224-0.011c0.076-0.006,0.15-0.01,0.224-0.01c0.06,0,0.125,0.004,0.198,0.01c0.073,0.007,0.141,0.023,0.204,0.05c0.063,0.026,0.115,0.064,0.158,0.114s0.065,0.114,0.065,0.194c0,0.086-0.021,0.153-0.061,0.203c-0.039,0.05-0.089,0.088-0.148,0.114s-0.124,0.043-0.194,0.05c-0.069,0.007-0.137,0.01-0.203,0.01c-0.079,0-0.157-0.003-0.233-0.01s-0.154-0.01-0.233-0.01c-0.146,0-0.283,0.028-0.412,0.084c-0.13,0.057-0.244,0.135-0.343,0.234c-0.1,0.099-0.178,0.213-0.234,0.343c-0.056,0.129-0.084,0.266-0.084,0.412c0,0.079-0.003,0.157-0.01,0.233s-0.01,0.153-0.01,0.233c0,0.066,0.003,0.134,0.01,0.203c0.007,0.07,0.023,0.135,0.05,0.194s0.064,0.109,0.114,0.148C13.647,18.408,13.715,18.428,13.801,18.428z M13.443,7.529c0,0.112,0.02,0.202,0.06,0.268c0.04,0.066,0.093,0.139,0.159,0.219c0.146,0.179,0.303,0.344,0.472,0.497s0.333,0.312,0.492,0.477l3.745,3.815c0.179,0.186,0.356,0.374,0.531,0.566c0.176,0.192,0.363,0.374,0.562,0.547c0.073,0.065,0.152,0.12,0.238,0.163c0.087,0.044,0.18,0.065,0.278,0.065c0.106,0,0.195-0.021,0.269-0.065c0.073-0.043,0.146-0.098,0.219-0.163c0.238-0.199,0.453-0.44,0.646-0.726s0.354-0.588,0.487-0.909c0.132-0.321,0.234-0.649,0.308-0.984c0.073-0.334,0.109-0.657,0.109-0.968c0-0.663-0.134-1.283-0.402-1.863c-0.269-0.58-0.629-1.084-1.083-1.515c-0.454-0.43-0.977-0.771-1.569-1.023c-0.594-0.252-1.214-0.378-1.863-0.378c-0.298,0-0.607,0.033-0.929,0.1c-0.321,0.066-0.633,0.161-0.935,0.283c-0.301,0.123-0.588,0.275-0.859,0.457s-0.507,0.386-0.705,0.611c-0.066,0.073-0.121,0.154-0.164,0.244C13.465,7.335,13.443,7.43,13.443,7.529z M14.158,21.995c0.199,0,0.368-0.069,0.507-0.209c0.14-0.139,0.209-0.308,0.209-0.507c0-0.191-0.071-0.357-0.214-0.496c-0.143-0.14-0.31-0.209-0.502-0.209c-0.191,0-0.358,0.069-0.501,0.209c-0.143,0.139-0.214,0.305-0.214,0.496c0,0.199,0.069,0.368,0.209,0.507C13.791,21.926,13.96,21.995,14.158,21.995z M17.01,19.144c0.199,0,0.368-0.069,0.507-0.209c0.14-0.139,0.209-0.308,0.209-0.507c0-0.198-0.069-0.367-0.209-0.506c-0.139-0.14-0.308-0.209-0.507-0.209c-0.191,0-0.359,0.071-0.501,0.214c-0.143,0.143-0.214,0.31-0.214,0.501c0,0.192,0.071,0.359,0.214,0.502C16.65,19.072,16.818,19.144,17.01,19.144z M18.44,16.282c0.192,0,0.359-0.069,0.502-0.209c0.143-0.139,0.214-0.305,0.214-0.496c0-0.199-0.069-0.368-0.209-0.507c-0.139-0.14-0.308-0.209-0.507-0.209c-0.198,0-0.367,0.069-0.506,0.209c-0.14,0.139-0.209,0.308-0.209,0.507c0,0.191,0.071,0.357,0.214,0.496C18.081,16.213,18.249,16.282,18.44,16.282z"/>
</svg>
