<svg version="1.1" id="master" xmlns="http://www.w3.org/2000/svg" xmlns:xlink="http://www.w3.org/1999/xlink" x="0px" y="0px"
	 width="24px" height="24px" viewBox="0 0 24 24" enable-background="new 0 0 24 24" xml:space="preserve">
<rect fill="none" width="24" height="24"/>
<path d="M12,2C6.48,2,2,6.48,2,12c0,5.52,4.48,10,10,10c5.52,0,10-4.48,10-10C22,6.48,17.52,2,12,2z M8.46,14.45L7.1,13.83
	c0.28-0.609,0.41-1.24,0.4-1.86c-0.01-0.63-0.14-1.24-0.4-1.8l1.36-0.63c0.35,0.75,0.53,1.56,0.54,2.4
	C9.01,12.8,8.83,13.641,8.46,14.45z M11.53,16.01l-1.3-0.74c0.52-0.92,0.78-1.979,0.78-3.149c0-1.19-0.27-2.33-0.8-3.4l1.34-0.67
	c0.64,1.28,0.96,2.65,0.96,4.07C12.51,13.55,12.18,14.859,11.53,16.01z M14.67,17.33l-1.35-0.66c0.779-1.6,1.18-3.18,1.18-4.69
	c0-1.51-0.4-3.07-1.18-4.64l1.34-0.67c0.9,1.78,1.34,3.56,1.34,5.31C16,13.721,15.561,15.52,14.67,17.33z"/>
</svg>
