<svg version="1.1" id="master" xmlns="http://www.w3.org/2000/svg" xmlns:xlink="http://www.w3.org/1999/xlink" x="0px" y="0px" width="24px" height="24px" viewBox="0 0 24 24" enable-background="new 0 0 24 24" xml:space="preserve">
<rect fill="none" width="24" height="24"/>
<path d="M12,2.031C6.478,2.031,2,6.495,2,12s4.478,9.969,10,9.969c5.523,0,10-4.464,10-9.969S17.522,2.031,12,2.031z M11.549,6.031c1.591-0.108,3.23,0.329,4.527,1.612c1.188,1.197,2.092,2.867,2.073,4.431h1.777l-3.704,4.136l-3.703-4.136h1.928c-0.002-1.437-0.356-2.285-1.484-3.396c-1.104-1.113-2.222-1.758-4.148-1.919C9.674,6.349,10.601,6.103,11.549,6.031L11.549,6.031z M7.778,7.792l3.704,4.136H9.555c0,1.437,0.355,2.285,1.481,3.396c1.105,1.113,2.223,1.76,4.149,1.921c-2.237,1.057-5.184,1.165-7.259-0.887c-1.189-1.198-2.093-2.866-2.074-4.431H4.073L7.778,7.792z"/>
</svg>
