<svg version="1.1" id="master" xmlns="http://www.w3.org/2000/svg" xmlns:xlink="http://www.w3.org/1999/xlink" x="0px" y="0px" width="24px" height="24px" viewBox="0 0 24 24" enable-background="new 0 0 24 24" xml:space="preserve">
<rect fill="none" width="24" height="24"/>
<path d="M7.943,5.117L6.487,3.662C8.068,2.614,9.962,2,12,2c5.52,0,10,4.48,10,10c0,2.035-0.612,3.927-1.658,5.507l-1.456-1.455C19.589,14.861,20,13.479,20,12c0-4.41-3.59-8-8-8C10.519,4,9.135,4.412,7.943,5.117z M19.07,19.069l1.516,1.516l-1.414,1.414l-1.66-1.66C15.931,21.387,14.037,22,12,22C6.48,22,2,17.52,2,12c0-2.037,0.613-3.93,1.661-5.511L2,4.828l1.414-1.415l10.068,10.068V13.48l1.344,1.342c0,0.001-0.001,0.001-0.001,0.002l2.829,2.829c0.001-0.001,0.001-0.001,0.002-0.002l1.417,1.415C19.072,19.067,19.071,19.068,19.07,19.069z M10.061,12.889c0.01,0.084,0.008,0.169,0.021,0.252c0.049,0.33,0.16,0.629,0.299,0.879c0.14,0.252,0.341,0.461,0.591,0.621c0.229,0.15,0.529,0.219,0.889,0.229c0.057-0.003,0.112-0.01,0.167-0.016L10.061,12.889z M16.056,18.883l-2.784-2.784c-0.039,0.016-0.072,0.037-0.111,0.052c-0.41,0.149-0.85,0.229-1.32,0.229c-0.65,0-1.221-0.12-1.7-0.34c-0.48-0.22-0.88-0.53-1.2-0.91s-0.56-0.83-0.71-1.348C8.08,13.261,8,12.721,8,12.141V11.87c0-0.331,0.036-0.646,0.088-0.954L5.117,7.945C4.412,9.136,4,10.519,4,12c0,4.41,3.59,8,8,8C13.48,20,14.864,19.588,16.056,18.883z M13.24,7.84c-0.42-0.159-0.881-0.23-1.391-0.23c-0.453,0-0.853,0.075-1.226,0.186l1.359,1.358c0.189,0.016,0.367,0.05,0.528,0.118c0.199,0.09,0.381,0.21,0.52,0.36c0.142,0.151,0.25,0.33,0.343,0.53c0.069,0.158,0.103,0.329,0.121,0.502l0.138,0.137H15.3c-0.021-0.469-0.11-0.9-0.28-1.29C14.85,9.12,14.62,8.78,14.32,8.5C14.02,8.22,13.66,8,13.24,7.84z"/>
</svg>
