<svg version="1.1" id="master" xmlns="http://www.w3.org/2000/svg" xmlns:xlink="http://www.w3.org/1999/xlink" x="0px" y="0px" width="24px" height="24px" viewBox="0 0 24 24" enable-background="new 0 0 24 24" xml:space="preserve">
<rect fill="none" width="24" height="24"/>
<path d="M9.586,2.363c0.362-0.326,0.906-0.447,1.377-0.302c0.181,0.061,0.338,0.169,0.507,0.278c0.133,0.084,0.29,0.121,0.411,0.217c0.061,0.049,0.012,0.133,0.012,0.193c0.157,0.375,0.242,0.785,0.109,1.184c-0.109,0.133-0.302,0.169-0.459,0.229c-0.024,0.169,0.037,0.326,0.061,0.496c-0.037,0.024-0.061,0.048-0.097,0.072c0.229-0.012,0.459-0.061,0.688-0.109c0.085-0.084,0.217-0.036,0.327-0.048c0.012-0.169,0.072-0.326,0.072-0.495c0.023,0,0.072-0.012,0.097-0.024c0.012,0.121,0,0.242,0.036,0.363c0.06,0.048,0.156,0.024,0.229,0.036c0,0.048,0,0.097,0.012,0.145c1.4-0.012,2.814,0,4.215,0v0.206h0.134V4.018h0.157c0,0.217-0.013,0.422,0,0.64c0.016,0.015,0.038,0.023,0.06,0.024c0,0.024,0.013,0.072,0.013,0.097c0.049-0.048,0.108-0.084,0.181-0.061c0.013,0.036,0.024,0.072,0.036,0.121c-0.048,0.049-0.072,0.109-0.048,0.181c0.386,0.012,0.773,0,1.172,0c0.036-0.048,0.096-0.072,0.156-0.096c0.024,0.012,0.061,0.036,0.073,0.048h0.567c0.023,0.097,0.023,0.194,0.012,0.278h-0.579c-0.013,0.012-0.049,0.048-0.073,0.061c-0.061-0.036-0.109-0.061-0.169-0.097h-1.05c-0.206,0.061-0.424,0.048-0.629,0.012v0.229h-1.728c-0.072,0.06-0.145,0.097-0.241,0.109c0.036,0.181-0.17,0.229-0.241,0.362c-0.049,0.072-0.121,0.121-0.193,0.145c-0.061,0.374,0.072,0.725,0.169,1.075c-0.109,0.024-0.229,0.061-0.339,0.084c-0.06,0.242-0.12,0.495-0.169,0.737c-0.048,0.217-0.217,0.398-0.423,0.483c-0.145,0.169-0.337,0.338-0.566,0.351c-0.085,0.024-0.146-0.036-0.206-0.085c-0.302,0.024-0.58-0.121-0.846-0.242c-0.29-0.132-0.556-0.302-0.833-0.458c0.024,0.169-0.061,0.314-0.121,0.458c0.133,0.061,0.313,0.109,0.386,0.254c0.048,0.109,0.097,0.229,0.097,0.362c-0.012,0.435-0.061,0.87-0.084,1.305c0.012,0.314-0.145,0.628-0.362,0.857c-0.145-0.012-0.266-0.072-0.399-0.133c-0.048,0.108-0.157,0.218-0.096,0.35c0.048,0.157,0.048,0.326,0.121,0.471c0.411,0.435,0.761,0.917,1.015,1.461c0.253,0.52,0.447,1.063,0.652,1.606c0.037,0,0.109-0.012,0.146-0.012c0.049,0.156,0,0.338,0.098,0.483c0.083,0.132,0.06,0.29,0.06,0.446c-0.024,0.363-0.049,0.726-0.084,1.087c-0.024,0.254-0.085,0.508-0.122,0.762c0.013,0.192,0.098,0.386,0.085,0.58c-0.012,0.181-0.012,0.374-0.157,0.507c0.013,0.411-0.097,0.821,0.049,1.22c0.193,0.266,0.41,0.52,0.64,0.749c0.254,0.12,0.557,0.145,0.773,0.362c0.085,0.132,0.036,0.29,0.013,0.435c-0.518,0.072-1.041,0.072-1.559,0c-0.205-0.049-0.399-0.133-0.604-0.156c-0.278,0.012-0.604,0.12-0.857-0.073c-0.024-0.326,0.097-0.64,0.157-0.954c0.024-0.108,0.132-0.182,0.12-0.29c-0.024-0.374-0.048-0.761-0.072-1.135c-0.048-0.024-0.133-0.049-0.121-0.121c0-0.181-0.061-0.362-0.109-0.532c-0.084-0.459-0.121-0.929-0.133-1.4c-0.012-0.133,0.073-0.229,0.169-0.313c0.024-0.206,0.048-0.423,0.06-0.629c-0.036-0.108-0.121-0.192-0.169-0.289c-0.217,0.023-0.532,0.072-0.664-0.157c-0.314-0.472-0.64-0.954-0.954-1.426c-0.133-0.012-0.291,0-0.411-0.084c-0.133-0.146-0.218-0.338-0.302-0.52c-0.037,0.145-0.061,0.302-0.145,0.422c-0.072,0.121-0.193,0.205-0.278,0.314c-0.084,0.193-0.157,0.387-0.229,0.58c-0.085,0.241-0.206,0.483-0.229,0.748c-0.012,0.134-0.037,0.254-0.085,0.375c-0.06,0.098-0.169,0.133-0.266,0.182c-0.072,0.156-0.121,0.313-0.229,0.446c-0.072,0.085-0.193,0.109-0.242,0.218c-0.048,0.146-0.121,0.278-0.181,0.41c-0.024,0.146,0.073,0.303,0.024,0.448c-0.084,0.361-0.266,0.699-0.435,1.026c-0.084,0.241-0.145,0.495-0.266,0.725c-0.048,0.096-0.169,0.12-0.266,0.132c-0.108,0.267-0.229,0.521-0.302,0.798c-0.036,0.265-0.036,0.543-0.024,0.809c0,0.121,0.072,0.218,0.121,0.327c0.048,0.145,0.012,0.29-0.012,0.435c-0.471,0.061-0.954,0.108-1.413-0.036c-0.048-0.037-0.037-0.098-0.048-0.146c-0.036-0.217-0.061-0.446,0.012-0.651c0.157-0.568,0.29-1.137,0.447-1.703c-0.061-0.062-0.146-0.108-0.146-0.206c-0.012-0.156,0-0.326,0.037-0.482c0.073-0.267,0.266-0.472,0.362-0.726c0.036-0.108,0.024-0.217,0.036-0.325c0-0.254,0.145-0.459,0.253-0.678c0.109-0.181,0.193-0.374,0.339-0.53c0.096-0.085,0.096-0.218,0.168-0.326c0.073-0.133,0.193-0.242,0.193-0.398c0.024-0.193-0.048-0.387-0.024-0.581c0.048-0.566,0.157-1.123,0.253-1.69c-0.048-0.061-0.121-0.121-0.145-0.206c0.012-0.06,0.024-0.107,0.036-0.169l-0.109-0.181c0.048-0.072,0.097-0.157,0.145-0.229c-0.048-0.036-0.109-0.085-0.157-0.12c0.061-0.182,0.036-0.447,0.253-0.532c0.024,0.012,0.085,0.024,0.109,0.036c-0.036-0.313-0.036-0.64-0.072-0.954c-0.084-0.338-0.097-0.688-0.061-1.027C6.385,9.899,6.615,9.827,6.82,9.814C6.554,9.754,6.288,9.73,6.035,9.646C6.022,9.428,6.059,9.211,6.095,8.994c0.109-0.423,0.061-0.857,0.121-1.292C6.276,7.58,6.434,7.556,6.566,7.58C6.723,7.604,6.88,7.556,7.038,7.508c0-0.06,0.012-0.133,0-0.193c-0.097-0.423-0.073-0.857,0-1.268C7.134,5.515,7.351,4.996,7.75,4.621c0.266-0.254,0.652-0.375,1.014-0.362c0.121,0,0.193,0.121,0.29,0.193c0.049-0.048,0.097-0.097,0.133-0.145c-0.06-0.206-0.157-0.423-0.145-0.64C9.066,3.184,9.223,2.688,9.586,2.363 M13.354,5.781C13.379,5.805,13.379,5.805,13.354,5.781 M13.523,5.805c0.012,0.084,0.036,0.168-0.012,0.241c-0.062,0.024-0.133,0.024-0.193,0.061c0.169,0,0.338,0.012,0.507,0c0.133-0.036,0.084-0.206,0.084-0.302C13.825,5.708,13.645,5.769,13.523,5.805 M13.101,6.312c0.121,0.133,0.182,0.338,0.29,0.471c0.157-0.206,0.278-0.423,0.459-0.604c-0.217-0.012-0.435,0.012-0.652-0.012C13.161,6.215,13.137,6.264,13.101,6.312L13.101,6.312z"/>
</svg>
