<svg version="1.1" id="master" xmlns="http://www.w3.org/2000/svg" xmlns:xlink="http://www.w3.org/1999/xlink" x="0px" y="0px" width="24px" height="24px" viewBox="0 0 24 24" enable-background="new 0 0 24 24" xml:space="preserve">
<rect fill="none" width="24" height="24"/>
<path d="M20.661,7c-0.139-0.242-0.332-0.453-0.543-0.575l-7.348-4.242c-0.423-0.245-1.116-0.245-1.539,0L3.883,6.425C3.459,6.669,3.114,7.269,3.114,7.758v8.483c0,0.245,0.086,0.518,0.226,0.759c0.139,0.242,0.332,0.453,0.543,0.575l7.347,4.241c0.423,0.245,1.116,0.245,1.539,0l7.348-4.241c0.212-0.122,0.404-0.333,0.543-0.575c0.14-0.241,0.227-0.514,0.227-0.759V7.758C20.887,7.513,20.801,7.242,20.661,7z M12,17.925c-3.267,0-5.924-2.658-5.924-5.925S8.733,6.076,12,6.076c2.114,0.004,4.068,1.131,5.13,2.96l-2.563,1.484C14.036,9.604,13.058,9.039,12,9.037c-1.633,0-2.962,1.33-2.962,2.963c0,1.634,1.329,2.962,2.962,2.962c1.058-0.001,2.035-0.566,2.566-1.48l2.564,1.482C16.069,16.793,14.115,17.921,12,17.925z M17.925,12.329h-0.659v0.659h-0.658v-0.659h-0.658v-0.658h0.658v-0.659h0.658v0.659h0.659V12.329z M20.393,12.329h-0.658v0.659h-0.658v-0.659h-0.657v-0.658h0.657v-0.659h0.658v0.659h0.658V12.329z"/>
</svg>
