<svg version="1.1" id="master" xmlns="http://www.w3.org/2000/svg" xmlns:xlink="http://www.w3.org/1999/xlink" x="0px" y="0px"
	 width="24px" height="24px" viewBox="0 0 24 24" enable-background="new 0 0 24 24" xml:space="preserve">
<rect fill="none" width="24" height="24"/>
<path d="M16.18,9.663c0,0-0.322-2.748-3.301-2.825c-2.979-0.076-4.508,2.061-4.508,5.115c0,3.055,1.691,5.498,4.588,5.498
	c2.898,0,3.221-3.055,3.221-3.055l5.555,0.306c0,0,0.326,2.759-1.998,4.863c-2.324,2.105-5.178,2.449-7.17,2.435
	c-1.993-0.015-4.755,0.028-7.427-2.478c-2.669-2.505-3.125-4.938-3.125-7.33c0-2.392,0.507-5.559,3.684-7.961
	C7.856,2.601,10.045,2,12.234,2c9.137-0.001,9.75,7.716,9.75,7.716L16.18,9.663z"/>
</svg>
