<svg version="1.1" id="master" xmlns="http://www.w3.org/2000/svg" xmlns:xlink="http://www.w3.org/1999/xlink" x="0px" y="0px" width="24px" height="24px" viewBox="0 0 24 24" enable-background="new 0 0 24 24" xml:space="preserve">
<rect fill="none" width="24" height="24"/>
<path d="M17.661,10.339l-1.332,0.698c-0.308-0.664-0.843-0.808-1.108-0.808c-0.685,0-1.061,0.372-1.229,0.933l-1.229-1.229c0.535-0.662,1.334-1.035,2.248-1.035C16.13,8.898,17.096,9.309,17.661,10.339z M12.014,3.808c2.25,0,4.251,0.85,5.816,2.411c1.535,1.534,2.357,3.563,2.357,5.781c0,1.56-0.392,2.982-1.141,4.214l1.325,1.324C21.441,15.947,22,14.059,22,12c0-2.712-0.988-5.178-2.882-7.069C17.198,3.014,14.729,2,11.986,2C9.932,2,8.063,2.569,6.471,3.647L7.796,4.97C9.035,4.21,10.457,3.808,12.014,3.808z M17.693,13.54l-1.241-0.632c-0.077,0.186-0.168,0.327-0.267,0.445l0.926,0.926C17.337,14.064,17.536,13.818,17.693,13.54z M19.077,19.076l1.509,1.509l-1.414,1.414l-1.665-1.665C15.846,21.425,13.939,22,11.986,22c-2.634,0-5.13-1.042-7.051-2.958C3.014,17.124,2,14.658,2,12c0-1.959,0.58-3.858,1.669-5.503L2,4.828l1.414-1.414l7.174,7.173l0.283,0.283l0,0l1.218,1.218c0,0,0,0,0-0.001l3.016,3.013c-0.001,0-0.002,0-0.003,0l2.687,2.687c0.001-0.001,0.001-0.001,0.002-0.002l1.29,1.288C19.079,19.074,19.078,19.075,19.077,19.076z M8.101,12.001c0,1.006,0.421,1.771,1.342,1.771c0.411,0,0.754-0.124,1.018-0.483L8.243,11.07C8.147,11.338,8.101,11.653,8.101,12.001z M16.177,19.004l-4.781-4.781c-0.545,0.547-1.281,0.881-2.107,0.881c-1.763,0-2.984-1.121-2.984-3.104c0-0.895,0.277-1.616,0.731-2.137L4.995,7.823C4.231,9.089,3.81,10.517,3.81,12c0,2.137,0.878,4.191,2.441,5.754s3.594,2.411,5.762,2.411C13.472,20.165,14.9,19.76,16.177,19.004z"/>
</svg>
