<svg version="1.1" id="master" xmlns="http://www.w3.org/2000/svg" xmlns:xlink="http://www.w3.org/1999/xlink" x="0px" y="0px" width="24px" height="24px" viewBox="0 0 24 24" enable-background="new 0 0 24 24" xml:space="preserve">
<rect fill="none" width="24" height="24"/>
<path d="M15.433,16.826c-0.503,0.009-0.994-0.156-1.389-0.469c-0.455-0.362-0.837-0.908-0.849-1.548c-0.007-0.323,0.345-0.323,0.345-0.323l0.849-0.007c0.276,0.007,0.357,0.393,0.37,0.488c0.107,0.867,0.598,1.247,0.974,1.419c0.228,0.103,0.171,0.427-0.302,0.439H15.433z M10.687,12.421l-1.603-0.211c-0.723-0.178-0.703-0.818-0.673-1.039c0.09-0.634,0.322-1.239,0.678-1.771c0.454-0.67,1.086-1.256,1.909-1.727c1.546-0.896,3.708-1.395,6.092-1.395c1.741,0,3.546,0.225,3.574,0.225c0.164,0.021,0.273,0.178,0.278,0.364c0.007,0.172-0.125,0.318-0.297,0.328l-0.767-0.008c-2.418,0-4.141,0.328-5.421,1.04c-1.272,0.697-2.142,1.764-2.74,3.343c-0.063,0.136-0.279,0.933-1.033,0.852H10.687z M12.798,18.939c-1.2,0-2.331-0.518-3.188-1.455c-0.725-0.8-1.164-1.608-1.244-2.637c-0.05-0.677,0.25-0.911,0.657-0.869l1.657,0.182c0.375,0.077,0.625,0.283,0.688,0.712c0.331,2.28,1.768,3.178,2.625,3.371c0.15,0.035,0.243,0.131,0.235,0.304c-0.002,0.159-0.113,0.298-0.268,0.332C13.577,18.94,13.18,18.939,12.798,18.939z M9.38,20.955c-0.645-0.008-1.288-0.067-1.922-0.179c-1.001-0.179-1.84-0.484-2.56-0.942c-1.722-1.089-2.762-3.014-2.886-5.295c-0.031-0.541-0.092-1.574,1.189-1.497c0.532,0.027,1.377,0.285,1.974,0.456c0.739,0.206,1.095,0.778,1.095,1.34c0,3.216,2.912,5.34,4.184,5.34c0.545,0,0.345,0.584,0.105,0.649C10.14,20.941,9.6,20.955,9.38,20.955L9.38,20.955z M4.938,11.515c-0.504-0.091-0.995-0.298-1.474-0.417C1.985,10.732,2.237,9.24,2.375,8.83c1.348-3.964,5.622-5.292,9.072-5.645c3.248-0.333,6.648-0.076,9.815,0.806c0.258,0.069,1.057,0.272,0.598,0.743c-0.292,0.298-1.416-0.013-1.728-0.034c-1.858-0.139-3.694-0.16-5.547,0.125c-1.957,0.297-3.973,0.916-5.591,2.221C8.213,7.677,7.528,8.481,7.067,9.434c-0.12,0.25-0.213,0.5-0.295,0.75c-0.091,0.272-0.392,1.592-1.846,1.333L4.938,11.515z M13.221,12.279c0.277-1.24,1.509-3.207,5.32-3.071c0.876,0.027,0.476,0.624,0.044,0.609c-2.154-0.075-3.18,1.315-3.714,2.724c-0.183,0.456-0.566,0.522-1.06,0.443C13.466,12.922,13.091,12.882,13.221,12.279L13.221,12.279z"/>
</svg>
