<svg version="1.1" id="master" xmlns="http://www.w3.org/2000/svg" xmlns:xlink="http://www.w3.org/1999/xlink" x="0px" y="0px" width="24px" height="24px" viewBox="0 0 24 24" enable-background="new 0 0 24 24" xml:space="preserve">
<rect fill="none" width="24" height="24"/>
<path d="M21.97,14.722l-7.238,7.224c-0.029,0.029-0.073,0.044-0.102,0.029l-9.888-2.649c-0.043-0.015-0.073-0.043-0.073-0.072L2.006,9.38c-0.015-0.044,0-0.072,0.029-0.102l7.239-7.224c0.029-0.029,0.072-0.043,0.101-0.029l9.888,2.649c0.043,0.015,0.071,0.044,0.071,0.073l2.649,9.873C22.014,14.664,21.999,14.692,21.97,14.722z M12.27,6.861L2.556,9.452c-0.015,0-0.029,0.029-0.015,0.043L9.65,16.59c0.014,0.014,0.043,0.014,0.043-0.016l2.605-9.699C12.313,6.875,12.285,6.846,12.27,6.861L12.27,6.861z"/>
</svg>
