<svg version="1.1" id="master" xmlns="http://www.w3.org/2000/svg" xmlns:xlink="http://www.w3.org/1999/xlink" x="0px" y="0px" width="24px" height="24px" viewBox="0 0 24 24" enable-background="new 0 0 24 24" xml:space="preserve">
<rect fill="none" width="24" height="24"/>
<path d="M6.289,17.716c0.172-0.358,0.35-0.716,0.532-1.073c0.182-0.358,0.363-0.716,0.542-1.074L9.5,14.505l-2.137-1.073l-1.074-2.147l-1.073,2.147c-0.358,0.186-0.716,0.366-1.074,0.542c-0.358,0.175-0.716,0.353-1.074,0.531l2.147,1.063L6.289,17.716z M7.363,4.853C7.204,4.78,7.043,4.704,6.881,4.624c-0.163-0.079-0.32-0.162-0.472-0.248L5.932,3.432L5.454,4.376L4.5,4.853L5.454,5.33c0.073,0.159,0.151,0.318,0.234,0.477c0.083,0.159,0.164,0.318,0.244,0.477L6.409,5.33L7.363,4.853z M18.078,19.147c-0.357,0.438-0.78,0.785-1.267,1.043c-0.487,0.259-1.02,0.388-1.596,0.388H9.5c-0.577,0-1.107-0.129-1.59-0.388c-0.484-0.258-0.905-0.605-1.263-1.043v1.431c0.358,0.432,0.782,0.775,1.272,1.034S8.937,22,9.5,22h5.716c0.569,0,1.1-0.128,1.591-0.383c0.49-0.255,0.914-0.602,1.271-1.039V19.147z M20.623,8.292c-0.205-0.729-0.493-1.412-0.864-2.048S18.941,5.03,18.422,4.51c-0.521-0.52-1.099-0.965-1.735-1.337c-0.636-0.371-1.318-0.659-2.047-0.865C13.91,2.103,13.151,2,12.363,2c-0.981,0-1.929,0.158-2.843,0.472C8.605,2.787,7.767,3.256,7.005,3.879c0.106,0.04,0.22,0.088,0.343,0.144c0.123,0.056,0.238,0.124,0.348,0.204S7.896,4.397,7.969,4.5c0.073,0.103,0.109,0.22,0.109,0.353c0,0.139-0.037,0.26-0.109,0.363C7.896,5.318,7.807,5.408,7.701,5.484C7.595,5.561,7.477,5.627,7.348,5.683C7.219,5.739,7.101,5.791,6.995,5.837l-0.06,0.03l-0.02,0.06C6.869,6.033,6.818,6.148,6.761,6.274C6.705,6.4,6.637,6.517,6.558,6.622c-0.08,0.106-0.17,0.196-0.273,0.269C6.182,6.964,6.064,7,5.932,7C5.806,7,5.696,6.972,5.604,6.916S5.429,6.788,5.36,6.702C5.29,6.616,5.23,6.52,5.181,6.414c-0.05-0.106-0.095-0.209-0.134-0.308C4.629,6.781,4.314,7.497,4.103,8.252C3.89,9.008,3.784,9.78,3.784,10.568c0,0.438,0.033,0.874,0.1,1.308c0.066,0.434,0.166,0.859,0.298,1.277l0.507-0.259l0.964-1.928c0.06-0.12,0.147-0.215,0.263-0.289c0.116-0.073,0.24-0.109,0.373-0.109c0.133,0,0.257,0.037,0.373,0.109c0.116,0.073,0.204,0.169,0.263,0.289l0.964,1.928l1.928,0.964c0.126,0.066,0.224,0.156,0.293,0.269c0.07,0.113,0.104,0.239,0.104,0.378c0,0.14-0.035,0.266-0.104,0.378c-0.069,0.112-0.167,0.198-0.293,0.259L7.89,16.105l-0.666,1.332c0.742,0.563,1.552,0.989,2.431,1.277c0.878,0.288,1.781,0.433,2.709,0.433c0.788,0,1.547-0.104,2.276-0.309c0.729-0.205,1.411-0.493,2.047-0.864c0.637-0.371,1.215-0.819,1.735-1.343c0.52-0.523,0.966-1.103,1.337-1.739c0.371-0.636,0.659-1.318,0.864-2.048c0.206-0.729,0.309-1.487,0.309-2.276C20.932,9.78,20.829,9.021,20.623,8.292z M16.647,7.716l-0.716,1.431l-0.716-1.431L13.794,7l1.422-0.716l0.716-1.431l0.716,1.431L18.078,7L16.647,7.716z"/>
</svg>
