<svg version="1.1" id="master" xmlns="http://www.w3.org/2000/svg" xmlns:xlink="http://www.w3.org/1999/xlink" x="0px" y="0px" width="24px" height="24px" viewBox="0 0 24 24" enable-background="new 0 0 24 24" xml:space="preserve">
<rect fill="none" width="24" height="24"/>
<path d="M12,22c-4.729,0-8.571-1.286-8.571-2.857v-2.857c0-0.242,0.128-0.484,0.3-0.714C4.686,16.8,8.014,17.714,12,17.714c3.986,0,7.314-0.914,8.271-2.143c0.186,0.229,0.3,0.472,0.3,0.714v2.857C20.571,20.714,16.729,22,12,22z M12,16.285c-4.729,0-8.571-1.285-8.571-2.856v-2.857c0-0.157,0.057-0.3,0.128-0.443c0.043-0.086,0.1-0.186,0.171-0.271C4.686,11.085,8.014,12,12,12c3.986,0,7.314-0.915,8.271-2.143c0.071,0.086,0.128,0.186,0.172,0.271c0.071,0.143,0.128,0.3,0.128,0.443v2.857C20.571,15,16.729,16.285,12,16.285z M12,10.571c-4.729,0-8.571-1.286-8.571-2.857V4.857C3.429,3.286,7.271,2,12,2s8.571,1.286,8.571,2.857v2.857C20.571,9.286,16.729,10.571,12,10.571z M12,3.429c-3.157,0-5.714,0.643-5.714,1.428c0,0.786,2.557,1.429,5.714,1.429s5.715-0.643,5.715-1.429C17.715,4.072,15.157,3.429,12,3.429z"/>
</svg>
