<svg version="1.1" id="master" xmlns="http://www.w3.org/2000/svg" xmlns:xlink="http://www.w3.org/1999/xlink" x="0px" y="0px" width="24px" height="24px" viewBox="0 0 24 24" enable-background="new 0 0 24 24" xml:space="preserve" fill="#D70751">
<rect fill="none" width="24" height="24"/>
<path d="M18.267,10.583c0.019,0.518-0.141,0.8-0.282,1.271c-0.471,0.141-0.377,0.659-0.424,0.8c-0.282,0.141-1.646,1.6-1.176,0.8c-0.471,0.329-0.377,0.471-1.13,0.706l-0.019-0.048c-1.835,0.848-4.423-0.847-4.423-3.2c-0.02,0.141-0.047,0.094-0.094,0.141c-0.047-2.635,3.012-4.141,4.8-2.541c-1.177-1.365-3.67-1.459-4.518,0.188c-0.471,0.282-0.565,1.223-0.753,1.365c-0.235,4.141,3.529,6.824,7.059,3.67c0.377-0.282,0.753-0.753,0.895-0.8c-0.142,0.269,0.028,0.094-0.095,0.329c0.283-0.471,0.048-1.459,0.565-0.762c0.037-0.895,1.035-2.73,0.518-1.083c0.141-0.564,0.047-1.694,0.282-0.659c-0.142-0.564,0.141-0.988,0.235-1.317c-0.282-0.706-0.848-2.024-0.188-1.083c-1.364-2.824,0.047-1.647,0.564,0.235c-0.047-0.509-0.23-0.998-0.376-1.459c0.094,0.047-0.188-1.035,0.141-0.282c-0.423-1.553-1.788-2.917-3.059-3.671c0.848,0.847-2.447-0.706-3.247-0.988c0.564,0.329-2.871,0.329-0.965,0.038C11.918,2.188,11.072,2.423,11.872,2c-0.508,0.028-1.176,0.282-0.988,0.047c-0.988,0.518-4,2.542-3.153,1.459C6.648,4.494,5.989,5.2,5.424,6.518C1.707,11.741,5.331,19.6,11.213,21.812C11.73,22,12.577,22,13.283,22c-0.8-0.235-0.941-0.094-1.741-0.377c-0.564-0.234-0.706-0.564-1.129-0.94c-0.033,0.376-1.129-0.023-0.753-0.471c-0.235-0.019-0.659-0.424-0.8-0.659c-0.424,0.095-0.8-0.658-0.8-0.941c-0.047,0.142-1.741-1.553-0.753-1.082c-0.235-0.235-0.564-0.282-0.282-0.564c-0.235-0.659-0.847-0.941-0.141-0.706c-1.035-0.706-1.647-1.835-1.176-1.882c-0.235-0.283-0.235-0.519-0.188-0.895c-0.8-1.741,0.047-3.906,0.659-5.365C5.189,8.212,7.966,5.765,8.719,5.765C8.625,5.388,9.236,4.917,9.989,4.682c-0.047-0.047,2.635-1.223,1.506-0.376C14.648,3.271,18.131,6,18.318,8.824c0.188,0.047-0.023,2.118-0.047,2.259"/>
</svg>
