<svg version="1.1" id="master" xmlns="http://www.w3.org/2000/svg" xmlns:xlink="http://www.w3.org/1999/xlink" x="0px" y="0px"
	 width="24px" height="24px" viewBox="0 0 24 24" enable-background="new 0 0 24 24" xml:space="preserve">
<rect fill="none" width="24" height="24"/>
<path d="M18.224,14.963V9.037h1.374v4.721H22v1.202h-3.776V14.963z M15.22,13.758V9.039h-1.373l-0.003,2.23l-3.178,2.576l-0.684-0.6
	c1.063-0.824,2.123-1.653,3.174-2.49c-0.315-0.257-0.629-0.516-0.944-0.772l-3.174,2.488l-0.686-0.601l3.175-2.403
	c-0.316-0.257-0.629-0.516-0.945-0.772L7.237,11.27c-0.167-0.627-0.531-1.201-1.041-1.606C5.698,9.265,5.081,9.045,4.442,9.039H2
	v5.922h2.118c0.206,0,0.414,0.006,0.619-0.021c0.357-0.04,0.708-0.144,1.028-0.309c0.74-0.373,1.311-1.084,1.473-1.902l3.348,2.574
	c1.116-0.857,2.23-1.717,3.348-2.574v2.231h3.775v-1.203H15.22z M5.522,13.256c-0.282,0.357-0.708,0.573-1.163,0.588l-1.07,0.001
	v-3.604l0.773-0.003c0.189,0.003,0.383-0.01,0.569,0.036c0.473,0.115,0.872,0.427,1.095,0.86C6.084,11.82,6.005,12.651,5.522,13.256
	z"/>
</svg>
