<svg version="1.1" id="master" xmlns="http://www.w3.org/2000/svg" xmlns:xlink="http://www.w3.org/1999/xlink" x="0px" y="0px" width="24px" height="24px" viewBox="0 0 24 24" enable-background="new 0 0 24 24" xml:space="preserve">
<rect fill="none" width="24" height="24"/>
<path d="M20.073,6.108c-0.906-1.236-2.082-2.25-3.438-2.964C15.245,2.413,13.701,2.021,12.131,2H11.85c-1.482,0.024-2.939,0.38-4.265,1.043C5.995,3.839,4.642,5.038,3.66,6.52C2.609,8.101,2.033,9.951,2,11.85v0.301c0.016,0.988,0.177,1.968,0.48,2.908c0.475,1.465,1.281,2.803,2.355,3.906C5.839,20,7.054,20.807,8.396,21.328c1.103,0.427,2.273,0.654,3.455,0.672h0.301c2.714-0.035,5.297-1.175,7.153-3.156c1.702-1.816,2.664-4.203,2.695-6.694v-0.3C21.971,9.782,21.297,7.775,20.073,6.108z M16.587,14.166h-2.802V12.51c-0.829,0.637-1.656,1.274-2.484,1.91l-2.484-1.91c-0.12,0.607-0.544,1.135-1.093,1.412c-0.238,0.122-0.498,0.199-0.763,0.229c-0.152,0.02-0.306,0.016-0.459,0.016H4.93V9.771h1.812c0.474,0.005,0.932,0.168,1.302,0.464c0.378,0.3,0.648,0.726,0.772,1.192l2.483-1.91c0.234,0.19,0.466,0.382,0.701,0.573l-2.356,1.783l0.509,0.446l2.355-1.847c0.234,0.19,0.467,0.382,0.701,0.573c-0.781,0.621-1.567,1.236-2.356,1.848l0.508,0.445l2.358-1.912l0.002-1.655h1.02v3.502h1.847V14.166z M19.771,14.165h-2.803V9.77h1.02v3.503h1.783V14.165z M5.887,10.663v2.675l0.794-0.001c0.338-0.011,0.654-0.171,0.863-0.437c0.358-0.448,0.417-1.065,0.152-1.574c-0.166-0.321-0.462-0.553-0.813-0.638c-0.138-0.034-0.282-0.025-0.422-0.027L5.887,10.663L5.887,10.663z"/>
</svg>
