<svg version="1.1" id="master" xmlns="http://www.w3.org/2000/svg" xmlns:xlink="http://www.w3.org/1999/xlink" x="0px" y="0px" width="24px" height="24px" viewBox="0 0 24 24" enable-background="new 0 0 24 24" xml:space="preserve" fill="#113228">
<rect fill="none" width="24" height="24"/>
<path d="M10.125,10.867c0.273,0,0.469,0.039,0.742,0.117v3.477c-0.352,0.078-0.547,0.078-0.781,0.078c-1.133,0-1.719-0.625-1.719-1.797S8.992,10.867,10.125,10.867z M22,5v14c0,1.657-1.343,3-3,3H5c-1.657,0-3-1.343-3-3V5c0-1.657,1.343-3,3-3h14C20.657,2,22,3.343,22,5z M10.203,16.297c0.898,0,1.719-0.117,2.852-0.313V5.945h-2.188v3.281c-0.352-0.078-0.625-0.078-0.977-0.078c-2.305,0-3.75,1.406-3.75,3.633C6.141,15.086,7.508,16.297,10.203,16.297z M16.531,9.266h-2.188v4.297c0,1.914-0.117,2.617-0.43,3.242c-0.273,0.586-0.742,1.016-1.719,1.445l2.031,0.977c0.977-0.508,1.445-0.938,1.797-1.641c0.391-0.703,0.508-1.523,0.508-3.281V9.266z M16.531,5.945h-2.188v2.227h2.188V5.945z"/>
</svg>
