<svg version="1.1" id="master" xmlns="http://www.w3.org/2000/svg" xmlns:xlink="http://www.w3.org/1999/xlink" x="0px" y="0px"
	 width="24px" height="24px" viewBox="0 0 24 24" enable-background="new 0 0 24 24" xml:space="preserve">
<rect fill="none" width="24" height="24"/>
<path d="M17.561,14.729L14.14,11.31C15.776,11.931,17.197,12.908,17.561,14.729z M12.101,6.333c1.977,0,2.709,0.945,2.777,2.333
	h2.455C17.256,6.755,16.089,5,13.768,4.433V2h-3.333v2.4c-0.84,0.182-1.611,0.51-2.245,0.963l1.621,1.62
	C10.326,6.577,11.103,6.333,12.101,6.333z M20.586,20.585l-3.293-3.293c0-0.001,0.001-0.002,0.001-0.003l-2.305-2.303
	c0,0.001,0,0.002,0.001,0.003l-1.324-1.324c0.001,0.001,0.003,0.001,0.004,0.002l-3.111-3.108L3.414,3.414L2,4.828l4.728,4.728
	c0.363,1.188,1.303,2.03,2.642,2.642l4.925,4.925c-0.458,0.315-1.144,0.544-2.194,0.544c-2.289,0-3.189-1.021-3.312-2.333H6.345
	c0.133,2.433,1.956,3.8,4.089,4.256V22h3.333v-2.391c0.813-0.154,1.561-0.432,2.179-0.836l3.226,3.226L20.586,20.585z"/>
</svg>
