<svg version="1.1" id="master" xmlns="http://www.w3.org/2000/svg" xmlns:xlink="http://www.w3.org/1999/xlink" x="0px" y="0px"
	 width="24px" height="24px" viewBox="0 0 24 24" enable-background="new 0 0 24 24" xml:space="preserve">
<rect fill="none" width="24" height="24"/>
<path d="M9.187,7.716C9.167,7.59,9.153,7.462,9.147,7.333C9.141,7.204,9.137,7.073,9.137,6.94c0-0.113,0.002-0.222,0.006-0.328
	c0.003-0.106,0.005-0.215,0.005-0.328H3.432c0,0.199,0.036,0.384,0.109,0.557c0.072,0.172,0.174,0.323,0.303,0.453
	c0.13,0.129,0.28,0.232,0.452,0.308c0.173,0.076,0.358,0.114,0.557,0.114H9.187z M9.147,4.137c0,0.066,0.001,0.134,0.005,0.204
	c0.003,0.07,0.005,0.141,0.005,0.214c0,0.119-0.007,0.237-0.021,0.353c-0.013,0.116-0.043,0.22-0.089,0.313
	c-0.047,0.093-0.114,0.17-0.204,0.233C8.755,5.518,8.637,5.555,8.491,5.568h1.372c0,0.192-0.004,0.385-0.011,0.577
	c-0.006,0.192-0.01,0.384-0.01,0.577c0,0.179,0.005,0.358,0.015,0.537c0.011,0.179,0.028,0.354,0.055,0.527
	c0.061,0.378,0.166,0.736,0.318,1.074s0.343,0.648,0.571,0.929c0.229,0.282,0.494,0.53,0.796,0.746s0.631,0.386,0.989,0.512
	c0.132,0.053,0.274,0.101,0.427,0.144s0.302,0.064,0.447,0.064c0.073,0,0.143-0.013,0.209-0.04s0.1-0.083,0.1-0.169
	c0-0.073-0.021-0.143-0.06-0.209c-0.04-0.066-0.08-0.129-0.119-0.189c-0.245-0.358-0.437-0.737-0.572-1.138
	c-0.136-0.401-0.203-0.82-0.203-1.257c0-0.431,0.064-0.846,0.193-1.248c0.129-0.401,0.316-0.78,0.562-1.138
	c0.404,0.159,0.774,0.375,1.108,0.646c0.335,0.272,0.621,0.582,0.86,0.93c0.238,0.348,0.422,0.727,0.552,1.138
	c0.129,0.411,0.193,0.835,0.193,1.272V12c0,0.59-0.076,1.158-0.229,1.705s-0.368,1.059-0.646,1.535
	c-0.278,0.478-0.614,0.912-1.009,1.303s-0.828,0.727-1.302,1.009s-0.984,0.499-1.531,0.651s-1.115,0.229-1.704,0.229H9.147v-0.716
	h0.716c0.788,0,1.528-0.151,2.222-0.452c0.692-0.302,1.297-0.711,1.813-1.229c0.517-0.516,0.927-1.121,1.228-1.813
	c0.302-0.692,0.452-1.433,0.452-2.222V9.843c0-0.305-0.041-0.604-0.124-0.899s-0.198-0.575-0.348-0.84s-0.33-0.507-0.542-0.726
	c-0.212-0.219-0.45-0.408-0.716-0.567c-0.212,0.458-0.317,0.935-0.317,1.432c0,0.377,0.055,0.727,0.164,1.048
	c0.108,0.322,0.27,0.638,0.481,0.95c0.086,0.126,0.159,0.253,0.219,0.382c0.06,0.129,0.09,0.273,0.09,0.433
	c0,0.146-0.03,0.275-0.09,0.388s-0.138,0.207-0.233,0.283s-0.207,0.134-0.333,0.174c-0.126,0.04-0.259,0.06-0.397,0.06v0.755
	c0,0.59-0.113,1.145-0.338,1.665c-0.226,0.52-0.532,0.975-0.92,1.361c-0.388,0.389-0.842,0.695-1.361,0.92
	C10.292,16.887,9.737,17,9.147,17h-0.09c-0.079-0.318-0.209-0.607-0.388-0.869s-0.391-0.488-0.636-0.677s-0.518-0.335-0.815-0.437
	c-0.298-0.104-0.609-0.154-0.935-0.154v2.494l1.073,1.074l-1.073,1.073V22c0.325,0,0.637-0.051,0.935-0.154
	c0.298-0.103,0.57-0.248,0.815-0.438c0.245-0.188,0.457-0.414,0.636-0.676s0.309-0.551,0.388-0.869h0.806
	c0.854,0,1.678-0.111,2.47-0.334c0.792-0.222,1.531-0.535,2.217-0.939c0.686-0.403,1.313-0.887,1.879-1.451
	c0.566-0.563,1.05-1.189,1.451-1.879c0.4-0.688,0.712-1.43,0.935-2.221c0.222-0.792,0.333-1.616,0.333-2.471
	c0-0.908-0.135-1.776-0.403-2.604c-0.268-0.829-0.66-1.614-1.178-2.356c0.285-0.245,0.594-0.451,0.925-0.616
	s0.676-0.292,1.033-0.378c0.12-0.026,0.242-0.043,0.368-0.05c0.126-0.006,0.245-0.023,0.358-0.049
	c0.093-0.026,0.169-0.066,0.229-0.12c0.06-0.053,0.089-0.132,0.089-0.238c0-0.06-0.012-0.111-0.034-0.154
	c-0.023-0.043-0.055-0.084-0.095-0.124c-0.192-0.186-0.411-0.352-0.656-0.497c-0.245-0.146-0.504-0.269-0.775-0.368
	c-0.271-0.099-0.55-0.174-0.835-0.224c-0.285-0.049-0.56-0.074-0.825-0.074c-0.391,0-0.775,0.048-1.152,0.144
	c-0.378,0.096-0.739,0.24-1.084,0.433C13.72,2.431,12.205,2,10.568,2c-0.51,0-1.011,0.064-1.501,0.194S8.116,2.51,7.686,2.755
	s-0.826,0.545-1.188,0.9s-0.671,0.754-0.93,1.198H5.151c-0.152,0-0.302,0.006-0.447,0.02C4.558,4.886,4.421,4.917,4.291,4.967
	c-0.129,0.05-0.25,0.123-0.362,0.219C3.815,5.282,3.713,5.41,3.62,5.568h4.752C8.187,5.555,8.03,5.479,7.904,5.34
	S7.716,5.039,7.716,4.853c0-0.06-0.002-0.125-0.005-0.194c-0.004-0.07-0.005-0.141-0.005-0.214c0-0.126,0.008-0.249,0.024-0.368
	c0.017-0.12,0.05-0.227,0.1-0.323c0.05-0.096,0.122-0.174,0.219-0.233c0.096-0.06,0.224-0.089,0.383-0.089
	c0.192,0,0.359,0.069,0.502,0.208S9.147,3.945,9.147,4.137z"/>
</svg>
