<svg version="1.1" id="master" xmlns="http://www.w3.org/2000/svg" xmlns:xlink="http://www.w3.org/1999/xlink" x="0px" y="0px"
	 width="24px" height="24px" viewBox="0 0 24 24" enable-background="new 0 0 24 24" xml:space="preserve">
<rect fill="none" width="24" height="24"/>
<path d="M12,2.939c0.667,0,1.323,0.048,1.97,0.144c0.646,0.095,1.285,0.244,1.917,0.447c0.511,0.168,1.017,0.373,1.518,0.613
	c0.502,0.24,0.979,0.521,1.431,0.839s0.871,0.673,1.256,1.061c0.386,0.389,0.721,0.812,1.005,1.27s0.506,0.948,0.665,1.47
	S22,9.854,22,10.435v3.13c0,0.586-0.08,1.14-0.239,1.661s-0.38,1.011-0.661,1.466s-0.614,0.876-1,1.265
	c-0.385,0.389-0.806,0.742-1.261,1.061c-0.455,0.319-0.933,0.601-1.435,0.844c-0.501,0.244-1.007,0.446-1.518,0.609
	c-0.632,0.202-1.271,0.352-1.917,0.447s-1.303,0.144-1.97,0.144s-1.323-0.048-1.97-0.144s-1.285-0.245-1.917-0.447
	c-0.517-0.163-1.023-0.365-1.522-0.609c-0.498-0.243-0.975-0.524-1.43-0.844c-0.455-0.318-0.876-0.672-1.261-1.061
	c-0.386-0.389-0.719-0.81-1-1.265s-0.502-0.944-0.661-1.466S2,14.15,2,13.564v-3.13c0-0.58,0.08-1.131,0.239-1.652
	s0.381-1.012,0.665-1.47s0.619-0.881,1.005-1.27c0.385-0.388,0.804-0.742,1.256-1.061s0.929-0.6,1.431-0.844
	C7.097,3.896,7.603,3.692,8.113,3.53c0.632-0.203,1.271-0.353,1.917-0.447C10.677,2.987,11.333,2.939,12,2.939z M12,19.809
	c0.603,0,1.198-0.044,1.787-0.131c0.588-0.087,1.172-0.22,1.752-0.399c0.423-0.134,0.847-0.299,1.27-0.496s0.828-0.426,1.213-0.687
	c0.386-0.262,0.745-0.554,1.078-0.879c0.334-0.324,0.622-0.675,0.865-1.052c0.244-0.377,0.436-0.783,0.574-1.218
	c0.14-0.435,0.209-0.896,0.209-1.383v-0.626c0-0.156-0.009-0.313-0.026-0.469c-0.018-0.157-0.04-0.313-0.069-0.47
	c-0.134,0.626-0.376,1.198-0.727,1.717c-0.351,0.52-0.767,0.98-1.247,1.383c-0.481,0.403-1.008,0.749-1.579,1.039
	c-0.57,0.29-1.146,0.521-1.726,0.695c-0.551,0.163-1.107,0.283-1.67,0.361s-1.13,0.117-1.704,0.117s-1.142-0.039-1.704-0.117
	s-1.119-0.198-1.67-0.361c-0.58-0.174-1.155-0.405-1.726-0.695c-0.571-0.29-1.098-0.636-1.579-1.039
	c-0.48-0.402-0.896-0.863-1.247-1.383C3.724,13.198,3.481,12.626,3.348,12c-0.046,0.22-0.074,0.441-0.082,0.665
	c-0.009,0.223-0.014,0.447-0.014,0.674v0.226c0,0.487,0.069,0.948,0.209,1.383c0.139,0.435,0.33,0.841,0.574,1.218
	c0.243,0.377,0.531,0.728,0.865,1.052c0.333,0.325,0.692,0.617,1.078,0.879c0.385,0.261,0.79,0.489,1.213,0.687
	s0.847,0.362,1.27,0.496c0.58,0.18,1.164,0.313,1.752,0.399C10.802,19.765,11.397,19.809,12,19.809z M5.435,10.443
	c-0.087,0-0.159,0.029-0.217,0.087l-0.627,0.626c-0.063,0.063-0.095,0.136-0.095,0.218c0,0.087,0.03,0.16,0.091,0.222
	c0.061,0.061,0.135,0.091,0.222,0.091c0.093,0,0.168-0.029,0.227-0.087l0.626-0.626c0.058-0.058,0.087-0.131,0.087-0.218
	s-0.03-0.16-0.092-0.222C5.596,10.474,5.521,10.443,5.435,10.443z M6.991,7c0,0.058,0.018,0.114,0.053,0.169
	C7.078,7.225,7.12,7.276,7.17,7.326c0.049,0.049,0.1,0.096,0.151,0.139c0.053,0.044,0.099,0.086,0.14,0.126
	C7.524,7.655,7.594,7.729,7.67,7.813c0.075,0.084,0.165,0.126,0.27,0.126c0.081,0,0.151-0.031,0.213-0.096
	c0.061-0.063,0.091-0.136,0.091-0.217c0-0.064-0.013-0.116-0.039-0.156C8.179,7.429,8.142,7.386,8.096,7.339L7.53,6.782
	C7.473,6.725,7.4,6.695,7.313,6.695S7.15,6.725,7.087,6.782S6.991,6.913,6.991,7z M8.557,13.564c-0.087,0-0.159,0.029-0.218,0.087
	l-0.626,0.627c-0.063,0.063-0.096,0.139-0.096,0.226s0.032,0.159,0.096,0.218c0.063,0.058,0.14,0.087,0.227,0.087
	s0.159-0.029,0.217-0.087l0.626-0.626c0.059-0.059,0.087-0.131,0.087-0.218s-0.03-0.161-0.091-0.222S8.644,13.564,8.557,13.564z
	 M15.044,10.852c0.052-0.127,0.078-0.267,0.078-0.417c0-0.227-0.053-0.431-0.157-0.613c-0.104-0.183-0.241-0.342-0.413-0.479
	c-0.171-0.136-0.366-0.253-0.587-0.352c-0.22-0.099-0.446-0.18-0.678-0.244c-0.232-0.063-0.46-0.109-0.683-0.139
	C12.381,8.579,12.18,8.564,12,8.564s-0.381,0.015-0.604,0.044c-0.223,0.029-0.45,0.075-0.683,0.139
	c-0.231,0.064-0.458,0.146-0.678,0.244C9.814,9.09,9.619,9.207,9.448,9.343c-0.172,0.137-0.31,0.296-0.413,0.479
	c-0.104,0.183-0.157,0.387-0.157,0.613c0,0.15,0.026,0.29,0.078,0.417c0.203-0.186,0.425-0.343,0.666-0.474
	c0.24-0.131,0.492-0.237,0.756-0.321s0.533-0.146,0.809-0.188c0.275-0.04,0.547-0.061,0.813-0.061s0.538,0.021,0.813,0.061
	c0.275,0.041,0.545,0.104,0.809,0.188s0.516,0.19,0.756,0.321C14.619,10.509,14.841,10.666,15.044,10.852z M12,12.313
	c0.231,0,0.471-0.016,0.718-0.048c0.246-0.031,0.488-0.085,0.726-0.16c0.238-0.076,0.464-0.171,0.679-0.287
	c0.214-0.116,0.405-0.261,0.573-0.436v-0.008c-0.174-0.163-0.368-0.304-0.582-0.422c-0.215-0.119-0.439-0.218-0.674-0.296
	c-0.235-0.078-0.475-0.135-0.718-0.17c-0.243-0.034-0.484-0.052-0.722-0.052c-0.231,0-0.471,0.018-0.718,0.052
	c-0.246,0.035-0.489,0.092-0.73,0.17c-0.24,0.078-0.468,0.177-0.683,0.296c-0.214,0.118-0.405,0.262-0.573,0.43
	c0.162,0.169,0.352,0.313,0.569,0.431c0.218,0.119,0.446,0.215,0.687,0.287c0.241,0.072,0.486,0.126,0.735,0.161
	C11.536,12.295,11.773,12.313,12,12.313z M12.617,5.756c0-0.081-0.03-0.153-0.091-0.217c-0.062-0.064-0.132-0.096-0.213-0.096
	c-0.093,0-0.169,0.029-0.227,0.087L11.47,6.156c-0.063,0.063-0.096,0.136-0.096,0.218c0,0.087,0.03,0.16,0.091,0.222
	c0.062,0.061,0.135,0.091,0.222,0.091s0.16-0.029,0.218-0.087l0.626-0.626C12.589,5.916,12.617,5.843,12.617,5.756z M12.939,16.061
	c0.081,0,0.151-0.03,0.213-0.091c0.061-0.062,0.091-0.132,0.091-0.214c0-0.093-0.028-0.168-0.087-0.226l-0.626-0.626
	c-0.058-0.059-0.13-0.087-0.217-0.087s-0.163,0.028-0.227,0.087c-0.063,0.058-0.096,0.133-0.096,0.226
	c0,0.081,0.032,0.154,0.096,0.218l0.626,0.626C12.771,16.031,12.847,16.061,12.939,16.061z M15.435,7.313
	c-0.081,0-0.153,0.032-0.217,0.096c-0.064,0.064-0.096,0.137-0.096,0.218s0.031,0.153,0.096,0.217l0.626,0.627
	c0.063,0.063,0.136,0.095,0.217,0.095s0.154-0.031,0.218-0.095c0.063-0.064,0.096-0.137,0.096-0.218
	c0-0.093-0.029-0.168-0.087-0.227l-0.626-0.626C15.603,7.342,15.527,7.313,15.435,7.313z M16.687,12.938
	c-0.087,0-0.159,0.029-0.217,0.087l-0.626,0.626c-0.064,0.064-0.096,0.14-0.096,0.227c0,0.081,0.031,0.153,0.096,0.218
	c0.063,0.063,0.136,0.096,0.217,0.096c0.087,0,0.163-0.032,0.227-0.096l0.617-0.626c0.058-0.059,0.087-0.131,0.087-0.218
	s-0.029-0.161-0.087-0.222S16.773,12.938,16.687,12.938z M18.557,9.817c-0.081,0-0.153,0.031-0.218,0.096
	c-0.063,0.063-0.096,0.136-0.096,0.217s0.032,0.154,0.096,0.218l0.626,0.626c0.059,0.058,0.134,0.087,0.227,0.087
	c0.081,0,0.152-0.03,0.213-0.091c0.061-0.062,0.092-0.132,0.092-0.214c0-0.093-0.029-0.168-0.088-0.226l-0.626-0.626
	C18.725,9.846,18.649,9.817,18.557,9.817z"/>
</svg>
