<svg version="1.1" id="master" xmlns="http://www.w3.org/2000/svg" xmlns:xlink="http://www.w3.org/1999/xlink" x="0px" y="0px" width="24px" height="24px" viewBox="0 0 24 24" enable-background="new 0 0 24 24" xml:space="preserve">
<rect fill="none" width="24" height="24"/>
<path d="M12,2C6.477,2,2,6.477,2,12c0,5.523,4.477,10,10,10c5.523,0,10-4.477,10-10C22,6.477,17.523,2,12,2z M12,2.851c4.149,0,7.766,2.819,8.776,6.702c-1.358,2.857-3.595,5.207-6.383,6.702c-0.957,0.426-2.021,0.639-2.979,0.586c-0.851,0-1.596-0.213-2.234-0.586c1.755-0.957,3.404-2.34,4.681-3.83c0.904-1.01,1.649-2.127,1.915-3.457c0.16-0.692,0.16-1.383,0.106-2.021c-0.159-0.585-0.479-1.276-0.904-1.702c-0.426-0.532-1.063-0.851-1.702-1.011C12.691,4.021,12,4.021,11.309,4.181c-1.224,0.213-2.34,0.958-3.351,1.862c-1.542,1.649-2.606,3.936-2.34,6.277c0.099,1.392,0.639,2.715,1.542,3.776c-0.958,0.319-1.915,0.585-2.926,0.691C1.59,12.481,2.938,6.848,7.243,4.204C8.674,3.325,10.32,2.856,12,2.851z M12.053,4.713c0.638,0,1.277,0.212,1.808,0.585c0.426,0.373,0.798,0.798,0.958,1.436c0.213,0.479,0.319,1.117,0.213,1.702c-0.106,1.117-0.745,2.128-1.383,3.139c-1.399,1.792-3.229,3.203-5.32,4.095c-0.425-0.372-0.745-0.744-1.01-1.276c-0.526-0.976-0.731-2.093-0.585-3.191c0.053-1.117,0.426-2.181,0.958-3.138c0.585-1.117,1.383-2.234,2.5-2.819C10.83,4.873,11.415,4.713,12.053,4.713z M21.096,10.83L21.149,12c-0.003,5.053-4.101,9.146-9.153,9.146c-2.739-0.001-5.334-1.229-7.071-3.348C5.989,17.585,7,17.213,7.958,16.841c1.735,1.181,3.931,1.458,5.904,0.744c1.489-0.532,2.767-1.436,3.884-2.446C19.074,13.861,20.191,12.373,21.096,10.83z"/>
</svg>
