<svg version="1.1" id="master" xmlns="http://www.w3.org/2000/svg" xmlns:xlink="http://www.w3.org/1999/xlink" x="0px" y="0px" width="24px" height="24px" viewBox="0 0 24 24" enable-background="new 0 0 24 24" xml:space="preserve">
<rect fill="none" width="24" height="24"/>
<path d="M9.098,6.27l-1.44-1.441C8.399,3.165,10.062,2,12,2c2.629,0,4.764,2.133,4.762,4.762v1.905h0.953c1.047,0,1.904,0.856,1.904,1.905v6.22l-8.124-8.125h3.458l-0.001-1.905c0-1.629-1.324-2.953-2.952-2.953C10.54,3.809,9.333,4.876,9.098,6.27z M20.586,20.584L3.415,3.414L2,4.828l3.884,3.884c-0.855,0.187-1.503,0.95-1.503,1.86v9.524C4.381,21.143,5.237,22,6.286,22h11.429c0.409,0,0.788-0.135,1.1-0.356L19.171,22L20.586,20.584z"/>
</svg>
