<svg version="1.1" id="master" xmlns="http://www.w3.org/2000/svg" xmlns:xlink="http://www.w3.org/1999/xlink" x="0px" y="0px"
	 width="24px" height="24px" viewBox="0 0 24 24" enable-background="new 0 0 24 24" xml:space="preserve">
<rect fill="none" width="24" height="24"/>
<path d="M22,6.284V5.568H2v0.716l10,5L22,6.284z M2,7.08v10.338l6.889-6.889L2,7.08z M2,18.432h20l-7.564-7.565
	c-0.411,0.199-0.82,0.396-1.228,0.591C12.8,11.654,12.397,11.864,12,12.089c-0.397-0.225-0.8-0.436-1.208-0.631
	c-0.407-0.195-0.816-0.393-1.228-0.591L2,18.432z M15.111,10.529L22,17.418V7.08L15.111,10.529z"/>
</svg>
