<svg version="1.1" id="master" xmlns="http://www.w3.org/2000/svg" xmlns:xlink="http://www.w3.org/1999/xlink" x="0px" y="0px"
	 width="24px" height="24px" viewBox="0 0 24 24" enable-background="new 0 0 24 24" xml:space="preserve">
<rect fill="none" width="24" height="24"/>
<path d="M8.047,9.61l3.799-2.193c0.095-0.054,0.212-0.054,0.307,0l3.799,2.193c0.095,0.055,0.153,0.157,0.152,0.267v4.386
	c0,0.109-0.059,0.21-0.152,0.266l-3.799,2.193c-0.095,0.055-0.212,0.055-0.307,0l-3.799-2.193c-0.095-0.056-0.154-0.157-0.153-0.267
	V9.877C7.893,9.767,7.952,9.665,8.047,9.61 M21.875,11.608l-4.537-7.896c-0.165-0.286-0.471-0.497-0.801-0.497H7.462
	c-0.33,0-0.635,0.211-0.8,0.497l-4.539,7.878c-0.165,0.289-0.165,0.642,0,0.931l4.539,7.831c0.164,0.286,0.469,0.432,0.799,0.432
	h9.077c0.329,0,0.634-0.142,0.8-0.427l4.538-7.844c0.164-0.28,0.164-0.626,0-0.905 M18.118,15.405
	c-0.003,0.117-0.067,0.225-0.17,0.281l-5.782,3.335c-0.101,0.059-0.226,0.059-0.327,0l-5.786-3.335
	c-0.103-0.057-0.167-0.164-0.171-0.281V8.733c0-0.117,0.069-0.224,0.17-0.282l5.78-3.334c0.1-0.059,0.227-0.059,0.327,0l5.785,3.335
	c0.103,0.057,0.169,0.164,0.172,0.282L18.118,15.405z"/>
</svg>
