<svg version="1.1" id="master" xmlns="http://www.w3.org/2000/svg" xmlns:xlink="http://www.w3.org/1999/xlink" x="0px" y="0px" width="24px" height="24px" viewBox="0 0 24 24" enable-background="new 0 0 24 24" xml:space="preserve" fill="#FF3034">
<rect fill="none" width="24" height="24"/>
<path d="M19,2H5C3.343,2,2,3.343,2,5v14c0,1.657,1.343,3,3,3h14c1.657,0,3-1.343,3-3V5C22,3.343,20.657,2,19,2z M17.771,17.53c-0.005,0.005-0.009,0.009-0.014,0.014c-3.109,3.109-8.151,3.109-11.26,0s-3.109-8.151,0-11.261C6.62,6.171,6.81,6.18,6.922,6.302c0.105,0.115,0.105,0.292,0,0.406c-2.875,2.875-2.875,7.536,0,10.411c2.875,2.876,7.537,2.875,10.412,0c0.113-0.121,0.303-0.127,0.424-0.014C17.879,17.22,17.885,17.41,17.771,17.53z M7.977,11.102c-0.219-0.025-0.42,0.125-0.457,0.343c-0.038,0.226,0.114,0.439,0.34,0.478c0.589,0.051,1.162,0.215,1.689,0.482c2.27,1.153,3.174,3.928,2.022,6.197l-1.27-0.195l-0.82-0.547c0.167-0.266,0.281-0.559,0.337-0.867c0.245-1.337-0.641-2.619-1.978-2.863c-0.146-0.008-0.292-0.027-0.435-0.06c-1.402-0.313-2.284-1.705-1.97-3.107C5.75,9.56,7.141,8.678,8.543,8.992C8.656,9.009,8.769,9.028,8.881,9.05c4.13,0.8,6.829,4.797,6.029,8.927l-1.035,0.391l-1.211-0.352c0.082-0.294,0.14-0.594,0.173-0.897C13.155,14.114,10.98,11.421,7.977,11.102z M8.973,16.092v0.039c-0.011,0.545-0.45,0.985-0.996,0.996c-0.561,0.011-1.024-0.436-1.035-0.996c-0.011-0.561,0.435-1.023,0.996-1.035C8.499,15.085,8.962,15.531,8.973,16.092z M17.977,15.047c-0.002-0.01-0.004-0.02-0.006-0.029c-0.237,0.574-0.594,1.09-1.049,1.514h-1.016c0-0.013,0-0.026,0-0.039c-0.021-4.66-3.817-8.42-8.477-8.398V7.078C7.871,6.643,8.378,6.28,8.934,6.004c4.678,0.67,8.354,4.34,9.037,9.014c0.002-0.003,0.004-0.007,0.006-0.01V15.047z M18.719,12.586l-0.43,0.156c-1.184-3.286-3.777-5.867-7.07-7.031l0.156-0.469c0.437-0.043,0.877-0.043,1.314,0C16.383,5.605,19.082,8.893,18.719,12.586z"/>
</svg>
