<svg version="1.1" id="master" xmlns="http://www.w3.org/2000/svg" xmlns:xlink="http://www.w3.org/1999/xlink" x="0px" y="0px" width="24px" height="24px" viewBox="0 0 24 24" enable-background="new 0 0 24 24" xml:space="preserve" fill="#FF3034">
<rect fill="none" width="24" height="24"/>
<path d="M20.61,18.801c-0.009,0.008-0.014,0.013-0.021,0.02c-4.239,4.239-11.116,4.239-15.356,0s-4.24-11.116,0-15.357C5.402,3.31,5.661,3.323,5.813,3.489c0.144,0.157,0.144,0.398,0,0.554c-3.921,3.921-3.921,10.278,0,14.199c3.921,3.922,10.28,3.921,14.201,0c0.154-0.165,0.412-0.174,0.578-0.019C20.757,18.38,20.765,18.638,20.61,18.801z M7.252,10.035c-0.299-0.034-0.572,0.17-0.623,0.467c-0.052,0.309,0.155,0.599,0.463,0.652c0.804,0.07,1.585,0.294,2.303,0.657c3.096,1.573,4.329,5.357,2.758,8.451l-1.732-0.265L9.303,19.25c0.228-0.361,0.383-0.762,0.459-1.181c0.334-1.823-0.875-3.572-2.698-3.905c-0.199-0.011-0.398-0.036-0.593-0.081c-1.912-0.428-3.114-2.325-2.686-4.238c0.429-1.913,2.327-3.116,4.238-2.688C8.178,7.18,8.332,7.207,8.485,7.236c5.632,1.091,9.314,6.543,8.223,12.174l-1.412,0.534l-1.651-0.48c0.112-0.399,0.191-0.81,0.235-1.223C14.313,14.143,11.348,10.47,7.252,10.035z M8.611,16.84v0.054c-0.016,0.743-0.614,1.344-1.359,1.358c-0.765,0.016-1.396-0.595-1.412-1.358c-0.015-0.765,0.593-1.396,1.358-1.412C7.964,15.467,8.595,16.075,8.611,16.84z M20.89,15.415c-0.003-0.014-0.005-0.026-0.008-0.04c-0.322,0.783-0.81,1.486-1.431,2.065h-1.385c0-0.018,0-0.036,0-0.053C18.037,11.032,12.86,5.904,6.505,5.935V4.547c0.603-0.593,1.294-1.089,2.052-1.465c6.379,0.914,11.394,5.918,12.325,12.292c0.003-0.003,0.005-0.01,0.008-0.014V15.415z M21.901,12.059l-0.586,0.213c-1.613-4.481-5.151-8.001-9.643-9.589l0.213-0.639c0.596-0.059,1.197-0.059,1.793,0C18.716,2.539,22.397,7.022,21.901,12.059z"/>
</svg>
