<svg version="1.1" id="master" xmlns="http://www.w3.org/2000/svg" xmlns:xlink="http://www.w3.org/1999/xlink" x="0px" y="0px"
	 width="24px" height="24px" viewBox="0 0 24 24" enable-background="new 0 0 24 24" xml:space="preserve">
<rect fill="none" width="24" height="24"/>
<path d="M11.655,3.379C8.608,3.38,6.138,5.85,6.137,8.896V9.54c1.185,0.593,2.151,1.547,2.758,2.724V8.896
	c-0.003-1.52,1.225-2.755,2.745-2.758c0.004,0,0.009,0,0.013,0c0.759,0,1.379-0.621,1.379-1.379C13.033,4,12.413,3.38,11.655,3.379
	L11.655,3.379z M3.378,9.586C2.621,9.586,2,10.207,2,10.965s0.621,1.379,1.379,1.379c1.52-0.003,2.755,1.225,2.759,2.746
	c0,0.005,0,0.009,0,0.013v4.139c0,0.759,0.621,1.379,1.379,1.379c0.758,0,1.379-0.62,1.379-1.379v-4.139
	C8.895,12.056,6.425,9.586,3.378,9.586L3.378,9.586z M16.482,9.586c-3.045,0-5.518,2.472-5.518,5.519
	c0,3.045,2.473,5.518,5.518,5.518c1.019,0.001,2.019-0.282,2.885-0.816c0.22,0.482,0.701,0.816,1.253,0.816
	c0.761-0.004,1.377-0.619,1.38-1.381v-8.275c-0.003-0.761-0.619-1.377-1.38-1.379c-0.563,0-1.033,0.333-1.253,0.816
	C18.501,9.867,17.501,9.585,16.482,9.586L16.482,9.586z M16.482,12.345c1.528,0,2.759,1.23,2.759,2.759
	c0,1.528-1.23,2.758-2.759,2.758c-1.529,0-2.759-1.229-2.759-2.758C13.724,13.575,14.954,12.345,16.482,12.345z"/>
</svg>
