<svg version="1.1" id="master" xmlns="http://www.w3.org/2000/svg" xmlns:xlink="http://www.w3.org/1999/xlink" x="0px" y="0px"
	 width="24px" height="24px" viewBox="0 0 24 24" enable-background="new 0 0 24 24" xml:space="preserve">
<rect fill="none" width="24" height="24"/>
<path d="M12,2C6.479,2,2.004,6.474,2,11.994v7.738C2.003,20.985,3.02,22,4.273,22h7.73C17.525,21.998,22,17.521,22,12
	C22,6.478,17.522,2,12,2z M15.83,6.647c-0.316,0-0.431-0.061-0.894-0.061c-1.367,0-2.476,1.107-2.479,2.474v2.153
	c0,0.193,0.157,0.35,0.351,0.35l0,0h1.627c0.606,0,1.098,0.483,1.098,1.092c0,0.612-0.496,1.094-1.109,1.094h-1.965v2.487
	c0,2.592-2.101,4.692-4.693,4.692c0,0,0,0,0,0c-0.351,0.003-0.7-0.044-1.037-0.14c-0.53-0.138-0.964-0.573-0.964-1.08
	c0-0.611,0.444-1.056,1.108-1.056c0.315,0,0.43,0.06,0.893,0.06c1.367,0,2.475-1.106,2.478-2.474v-2.152
	c0-0.193-0.157-0.35-0.35-0.35H8.265c-0.606,0-1.096-0.483-1.096-1.092c0-0.611,0.495-1.093,1.108-1.093h1.964V9.064
	c0-2.592,2.101-4.693,4.693-4.693l0,0c0.394,0,0.673,0.044,1.037,0.139c0.53,0.139,0.965,0.575,0.965,1.08
	c0,0.613-0.444,1.058-1.108,1.058H15.83z"/>
</svg>
