<svg version="1.1" id="master" xmlns="http://www.w3.org/2000/svg" xmlns:xlink="http://www.w3.org/1999/xlink" x="0px" y="0px"
	 width="24px" height="24px" viewBox="0 0 24 24" enable-background="new 0 0 24 24" xml:space="preserve">
<rect fill="none" width="24" height="24"/>
<path d="M13.55,3.657c-0.84-0.857-2.217-0.871-3.075-0.03c-0.01,0.01-0.02,0.02-0.03,0.03L2.64,11.606
	c-0.853,0.881-0.853,2.281,0,3.163l5.57,5.674c0.399,0.355,0.915,0.552,1.45,0.553h4.677c0.588-0.001,1.151-0.238,1.561-0.659
	l5.462-5.563c0.854-0.881,0.854-2.282,0-3.163L13.55,3.657L13.55,3.657z M13.333,18.176l-0.778,0.792
	c-0.059,0.061-0.14,0.095-0.224,0.095h-0.667c-0.076,0-0.149-0.029-0.206-0.08l-0.795-0.808c-0.122-0.126-0.122-0.326,0-0.452
	l1.114-1.134c0.119-0.122,0.314-0.124,0.437-0.006c0.002,0.002,0.004,0.004,0.006,0.006l1.115,1.135
	c0.122,0.126,0.122,0.326,0,0.452H13.333z M13.333,13.417l-3.114,3.173c-0.059,0.061-0.139,0.093-0.223,0.093H9.33
	c-0.076,0-0.15-0.027-0.208-0.078l-0.792-0.807c-0.123-0.127-0.123-0.327,0-0.454l3.449-3.512c0.12-0.122,0.316-0.124,0.438-0.004
	c0.001,0.001,0.002,0.003,0.004,0.004l1.114,1.135c0.123,0.125,0.123,0.325,0,0.45H13.333z M13.333,8.661l-5.45,5.549
	c-0.059,0.062-0.139,0.095-0.224,0.095H6.993c-0.076,0.001-0.15-0.027-0.208-0.078l-0.794-0.81c-0.122-0.126-0.122-0.325,0-0.45
	l5.786-5.892c0.12-0.122,0.316-0.124,0.439-0.004c0.001,0.001,0.002,0.002,0.004,0.004l1.115,1.134c0.122,0.125,0.122,0.326,0,0.452
	H13.333z"/>
</svg>
