<svg version="1.1" id="master" xmlns="http://www.w3.org/2000/svg" xmlns:xlink="http://www.w3.org/1999/xlink" x="0px" y="0px"
	 width="24px" height="24px" viewBox="0 0 24 24" enable-background="new 0 0 24 24" xml:space="preserve">
<rect fill="none" width="24" height="24"/>
<path d="M20.998,19.996c0,0.186-0.063,0.344-0.19,0.473c-0.126,0.131-0.282,0.195-0.468,0.195c-0.192,0-0.352-0.063-0.479-0.189
	c-0.126-0.127-0.189-0.287-0.189-0.479v-2.662c0.216-0.291,0.382-0.607,0.496-0.951c0.114-0.343,0.172-0.693,0.172-1.053
	c0-0.358-0.058-0.708-0.172-1.048c-0.114-0.341-0.28-0.655-0.496-0.946v-0.668h1.326V19.996z M20.998,12h-1.326V9.996
	c0-0.612-0.081-1.201-0.241-1.767c-0.161-0.566-0.385-1.096-0.673-1.591c-0.287-0.495-0.636-0.945-1.044-1.35
	s-0.857-0.753-1.35-1.043c-0.491-0.291-1.021-0.515-1.591-0.673c-0.568-0.158-1.159-0.236-1.771-0.236
	c-0.798,0-1.538,0.122-2.222,0.366C10.097,3.947,9.446,4.319,8.827,4.82C8.691,4.931,8.563,5.044,8.442,5.159
	C8.322,5.273,8.2,5.389,8.076,5.506c-0.05,0.05-0.104,0.088-0.162,0.116c-0.06,0.028-0.122,0.042-0.19,0.042
	c-0.087,0-0.172-0.023-0.255-0.069C7.385,5.548,7.308,5.489,7.236,5.418c-0.071-0.071-0.128-0.15-0.172-0.237
	C7.021,5.095,7,5.012,7,4.931c0-0.08,0.021-0.161,0.064-0.241c0.044-0.08,0.098-0.159,0.163-0.236
	C7.292,4.376,7.363,4.305,7.44,4.24S7.588,4.115,7.649,4.06l0.056-0.046c0.779-0.656,1.599-1.155,2.458-1.499S11.969,2,13.002,2
	c0.735,0,1.444,0.096,2.124,0.288c0.681,0.192,1.317,0.461,1.911,0.807s1.133,0.762,1.619,1.248
	c0.485,0.486,0.901,1.025,1.247,1.619c0.347,0.594,0.615,1.231,0.808,1.911c0.191,0.68,0.287,1.388,0.287,2.124V12z M19.463,14.311
	c-0.139-0.328-0.329-0.613-0.57-0.854c-0.241-0.242-0.524-0.434-0.849-0.576c-0.325-0.142-0.673-0.213-1.044-0.213
	c-0.365,0-0.71,0.069-1.034,0.209c-0.325,0.139-0.607,0.329-0.849,0.57s-0.432,0.523-0.571,0.849
	c-0.139,0.325-0.208,0.669-0.208,1.034c0,0.371,0.069,0.719,0.208,1.044c0.14,0.325,0.33,0.607,0.571,0.849s0.522,0.432,0.844,0.57
	s0.668,0.209,1.039,0.209c0.358,0,0.7-0.07,1.025-0.209c0.324-0.139,0.608-0.328,0.854-0.566c0.244-0.237,0.438-0.518,0.579-0.839
	c0.143-0.321,0.214-0.665,0.214-1.03C19.672,14.986,19.602,14.638,19.463,14.311z M16.527,13.531
	c0.13-0.131,0.287-0.195,0.473-0.195s0.343,0.064,0.473,0.195c0.13,0.129,0.195,0.287,0.195,0.473c0,0.18-0.066,0.334-0.199,0.464
	S17.18,14.662,17,14.662s-0.336-0.064-0.469-0.194s-0.199-0.284-0.199-0.464C16.332,13.818,16.397,13.66,16.527,13.531z
	 M15.664,15.998c-0.18,0-0.334-0.066-0.464-0.199s-0.194-0.289-0.194-0.469s0.064-0.336,0.194-0.469s0.284-0.199,0.464-0.199
	s0.336,0.066,0.469,0.199s0.199,0.289,0.199,0.469c0,0.186-0.064,0.344-0.194,0.473C16.008,15.934,15.85,15.998,15.664,15.998z
	 M17.473,17.139c-0.13,0.131-0.287,0.195-0.473,0.195s-0.343-0.064-0.473-0.195c-0.13-0.129-0.195-0.287-0.195-0.473
	s0.065-0.344,0.195-0.473c0.13-0.131,0.287-0.195,0.473-0.195s0.343,0.064,0.473,0.195c0.13,0.129,0.195,0.287,0.195,0.473
	S17.603,17.01,17.473,17.139z M18.809,15.803c-0.13,0.131-0.287,0.195-0.473,0.195s-0.344-0.064-0.474-0.195
	c-0.13-0.129-0.194-0.287-0.194-0.473c0-0.18,0.066-0.336,0.199-0.469s0.289-0.199,0.469-0.199s0.335,0.066,0.469,0.199
	c0.133,0.133,0.199,0.289,0.199,0.469C19.004,15.516,18.938,15.674,18.809,15.803z M12.228,12.306
	c-0.065-0.309-0.161-0.602-0.288-0.876c-0.127-0.275-0.279-0.544-0.459-0.807c-0.18-0.263-0.384-0.537-0.612-0.821l-0.027-0.037
	L9.004,8.141V6.462H7.668v2.867H7v4.007c0.618,0,1.107,0.178,1.466,0.533s0.538,0.843,0.538,1.461v0.668H7v2.672h2.699l0.074,0.102
	c0.111,0.148,0.203,0.277,0.273,0.385c0.071,0.109,0.127,0.217,0.167,0.325c0.041,0.108,0.07,0.23,0.089,0.366
	c0.019,0.137,0.027,0.307,0.027,0.51v0.307H4.996v-0.668c0-0.136,0.021-0.263,0.061-0.381c0.04-0.117,0.091-0.229,0.153-0.333
	c0.062-0.105,0.13-0.208,0.204-0.306c0.074-0.1,0.148-0.201,0.223-0.307l1.021-1.494c-0.291-0.29-0.577-0.568-0.858-0.834
	s-0.53-0.547-0.747-0.84c-0.216-0.294-0.391-0.613-0.524-0.961c-0.133-0.346-0.199-0.748-0.199-1.205
	c0-0.501,0.076-0.936,0.228-1.304c0.151-0.368,0.353-0.702,0.603-1.001c0.251-0.3,0.537-0.584,0.858-0.854S6.666,9.625,7,9.329
	V6.462H5.664V8.67C5.287,9.016,4.936,9.35,4.611,9.671c-0.324,0.322-0.606,0.664-0.844,1.025c-0.238,0.362-0.426,0.754-0.562,1.178
	c-0.136,0.423-0.204,0.91-0.204,1.461c0,0.439,0.043,0.838,0.13,1.196s0.213,0.696,0.38,1.011c0.167,0.316,0.37,0.619,0.608,0.91
	c0.237,0.291,0.508,0.584,0.812,0.881l-0.158,0.223c-0.167,0.234-0.319,0.456-0.459,0.663c-0.139,0.208-0.258,0.419-0.357,0.636
	c-0.099,0.217-0.175,0.448-0.227,0.695c-0.053,0.248-0.079,0.532-0.079,0.854c0,0.266,0.003,0.532,0.009,0.798
	C3.667,21.469,3.67,21.734,3.67,22h7.996c0-0.254,0.002-0.504,0.005-0.752c0.003-0.246,0.005-0.497,0.005-0.751
	c0-0.34-0.022-0.634-0.065-0.882c-0.043-0.246-0.108-0.475-0.194-0.682c-0.087-0.207-0.195-0.41-0.325-0.611
	s-0.281-0.422-0.454-0.664l-0.232-0.324c0.297-0.291,0.564-0.581,0.803-0.872c0.238-0.29,0.44-0.597,0.607-0.919
	c0.167-0.32,0.294-0.662,0.38-1.024c0.087-0.362,0.13-0.756,0.13-1.183C12.324,12.959,12.292,12.615,12.228,12.306z M9.473,12.468
	c-0.134,0.133-0.29,0.2-0.469,0.2H8.336c-0.186,0-0.344-0.064-0.474-0.195c-0.13-0.13-0.194-0.288-0.194-0.473
	s0.064-0.343,0.194-0.473s0.288-0.195,0.474-0.195h0.668c0.179,0,0.335,0.066,0.469,0.2C9.605,11.665,9.672,11.821,9.672,12
	C9.672,12.18,9.605,12.335,9.473,12.468z"/>
</svg>
