<svg version="1.1" id="master" xmlns="http://www.w3.org/2000/svg" xmlns:xlink="http://www.w3.org/1999/xlink" x="0px" y="0px" width="24px" height="24px" viewBox="0 0 24 24" enable-background="new 0 0 24 24" xml:space="preserve">
<rect fill="none" width="24" height="24"/>
<path d="M13.082,3.521c0,0.813-0.676,1.487-1.488,1.487c-0.811,0-1.487-0.675-1.487-1.487c0-0.811,0.678-1.488,1.487-1.488C12.406,2.033,13.082,2.711,13.082,3.521z M11.594,6.223c-0.877,0-1.553,0.675-1.553,1.555c0,0.877,0.675,1.554,1.554,1.554c0.877,0,1.554-0.676,1.554-1.554c0-0.878-0.687-1.555-1.563-1.555H11.594z M11.594,10.414c-0.877,0-1.621,0.742-1.621,1.621c0,0.878,0.745,1.62,1.623,1.62c0.877,0,1.622-0.742,1.622-1.62c0-0.879-0.745-1.621-1.622-1.621H11.594z M11.594,14.67c-0.877,0-1.553,0.675-1.553,1.554c0,0.878,0.675,1.555,1.554,1.555c0.877,0,1.554-0.676,1.554-1.555c0-0.811-0.687-1.554-1.563-1.554H11.594z M11.594,18.995c-0.811,0-1.487,0.675-1.487,1.488c0,0.807,0.678,1.483,1.487,1.483c0.814,0,1.488-0.675,1.488-1.487C13.082,19.669,12.406,18.995,11.594,18.995z M15.717,6.02c-0.946,0-1.757,0.813-1.757,1.759c0,0.945,0.812,1.756,1.757,1.756c0.946,0,1.755-0.813,1.755-1.756c0-0.946-0.811-1.757-1.755-1.757V6.02z M15.717,10.211c-1.014,0-1.825,0.811-1.825,1.825c0,1.013,0.813,1.823,1.825,1.823c1.012,0,1.823-0.81,1.823-1.824C17.54,11.021,16.729,10.211,15.717,10.211z M15.717,14.468c-0.946,0-1.757,0.813-1.757,1.756c0,0.945,0.812,1.757,1.757,1.757c0.946,0,1.755-0.813,1.755-1.757S16.663,14.468,15.717,14.468z M19.972,10.007c-1.08,0-2.025,0.879-2.025,2.028c0,1.08,0.877,2.027,2.025,2.027c1.151,0,2.028-0.888,2.028-2.037C21.932,10.874,21.055,10,19.972,10V10.007z M7.405,6.427c-0.743,0-1.35,0.608-1.35,1.353c0,0.743,0.607,1.35,1.35,1.35c0.744,0,1.349-0.607,1.349-1.35c0-0.744-0.605-1.35-1.349-1.35V6.427z M7.405,10.616c-0.811,0-1.419,0.607-1.419,1.419c0,0.813,0.601,1.419,1.413,1.419c0.812,0,1.412-0.607,1.412-1.419c0-0.813-0.612-1.419-1.425-1.419H7.405z M7.405,14.871c-0.743,0-1.35,0.609-1.35,1.351c0,0.746,0.607,1.353,1.35,1.353c0.744,0,1.349-0.612,1.349-1.362s-0.605-1.351-1.349-1.351V14.871z M3.217,10.819C2.54,10.819,2,11.357,2,12.035c0,0.675,0.54,1.216,1.217,1.216c0.675,0,1.216-0.54,1.216-1.216S3.893,10.819,3.217,10.819z"/>
</svg>
