<svg version="1.1" id="master" xmlns="http://www.w3.org/2000/svg" xmlns:xlink="http://www.w3.org/1999/xlink" x="0px" y="0px"
	 width="24px" height="24px" viewBox="0 0 24 24" enable-background="new 0 0 24 24" xml:space="preserve">
<rect fill="none" width="24" height="24"/>
<path d="M14,9H3c-0.553,0-1,0.447-1,1v4c0,0.553,0.447,1,1,1h11l0.504,0.336c1.348,0.898,2.895,1.427,4.496,1.59V7.074
	c-1.602,0.163-3.148,0.691-4.496,1.59L14,9z M11,13h-1c-0.553,0-1-0.447-1-1s0.447-1,1-1h1c0.553,0,1,0.447,1,1S11.553,13,11,13z
	 M21,7h-1v10h1c0.553,0,1-0.447,1-1V8C22,7.447,21.553,7,21,7z"/>
</svg>
