<svg version="1.1" id="master" xmlns="http://www.w3.org/2000/svg" xmlns:xlink="http://www.w3.org/1999/xlink" x="0px" y="0px"
	 width="24px" height="24px" viewBox="0 0 24 24" enable-background="new 0 0 24 24" xml:space="preserve">
<rect fill="none" width="24" height="24"/>
<path d="M22,8v8c0,0.553-0.447,1-1,1h-1V7h1C21.553,7,22,7.447,22,8z M16.227,16.226l4.359,4.359l-1.414,1.414L12.173,15H3
	c-0.553,0-1-0.447-1-1v-4c0-0.553,0.447-1,1-1h3.172L2,4.828l1.414-1.414l7.199,7.199L11.001,11l0,0L12,11.999c0,0,0,0,0-0.001
	l4.233,4.23C16.23,16.228,16.229,16.227,16.227,16.226z M10.173,13l-1.144-1.144C9.021,11.905,9,11.949,9,12c0,0.553,0.447,1,1,1
	H10.173z M19,7.074c-1.602,0.163-3.148,0.691-4.496,1.59L14,9h-2.171L19,16.167V7.074z"/>
</svg>
