<svg version="1.1" id="master" xmlns="http://www.w3.org/2000/svg" xmlns:xlink="http://www.w3.org/1999/xlink" x="0px" y="0px" width="24px" height="24px" viewBox="0 0 24 24" enable-background="new 0 0 24 24" xml:space="preserve">
<rect fill="none" width="24" height="24"/>
<path d="M22,12.318c0-0.172-0.03-0.334-0.09-0.487s-0.144-0.287-0.253-0.403c-0.109-0.116-0.237-0.207-0.383-0.273c-0.146-0.066-0.309-0.1-0.487-0.1h-1.799l-0.189,0.368c0.073,0.133,0.149,0.275,0.229,0.428c0.08,0.152,0.12,0.308,0.12,0.467c0,0.246-0.087,0.454-0.259,0.626s-0.385,0.259-0.636,0.259c-0.093,0-0.194,0.002-0.304,0.004c-0.109,0.004-0.224,0.006-0.343,0.006c-0.159,0-0.318-0.01-0.478-0.029c-0.159-0.021-0.3-0.061-0.422-0.12c-0.123-0.06-0.224-0.149-0.304-0.269c-0.079-0.119-0.119-0.277-0.119-0.477l0.01-0.099c-0.828,0.179-1.663,0.269-2.505,0.269c-0.636,0-1.263-0.052-1.879-0.154s-1.226-0.253-1.829-0.452L2.576,9.376C2.523,9.562,2.464,9.758,2.397,9.967c-0.066,0.208-0.129,0.419-0.188,0.631C2.149,10.811,2.1,11.024,2.06,11.24S2,11.662,2,11.861c0,0.471,0.096,0.918,0.288,1.342c0.119,0.244,0.262,0.48,0.428,0.705v0.716h5v-0.716c0.133,0,0.286-0.003,0.462-0.01c0.176-0.006,0.347-0.01,0.512-0.01c0.087,0,0.168,0.002,0.244,0.005s0.144,0.009,0.203,0.015c0.425,0.053,0.846,0.119,1.263,0.199c0.418,0.08,0.837,0.157,1.258,0.233s0.842,0.143,1.263,0.198c0.42,0.057,0.846,0.085,1.277,0.085h2.008c0.431,0,0.856-0.032,1.277-0.099s0.836-0.152,1.247-0.259s0.818-0.229,1.223-0.368s0.809-0.278,1.213-0.418c0.066-0.025,0.126-0.053,0.179-0.079s0.106-0.06,0.159-0.099c0.152-0.119,0.273-0.264,0.363-0.434C21.955,12.701,22,12.518,22,12.318z M18.432,12.318c0-0.02-0.021-0.073-0.06-0.159c-0.04-0.086-0.085-0.177-0.135-0.273s-0.098-0.189-0.144-0.278c-0.047-0.089-0.076-0.151-0.09-0.184c0.02-0.026,0.053-0.084,0.1-0.174c0.046-0.089,0.095-0.184,0.144-0.283c0.05-0.1,0.093-0.192,0.13-0.278c0.036-0.086,0.055-0.139,0.055-0.159c0-0.053-0.017-0.096-0.05-0.129c-0.033-0.033-0.076-0.049-0.129-0.049h-1.084c-0.053,0-0.095,0.018-0.124,0.055C17.015,10.441,17,10.482,17,10.529c0,0.02,0.019,0.071,0.055,0.154s0.079,0.174,0.129,0.273c0.05,0.1,0.098,0.194,0.145,0.284c0.046,0.089,0.079,0.147,0.1,0.174c-0.073,0.139-0.142,0.28-0.204,0.422s-0.134,0.28-0.214,0.413L17,12.278c0,0.053,0.012,0.101,0.035,0.144c0.022,0.043,0.058,0.065,0.104,0.065h1.144c0.04,0,0.074-0.019,0.104-0.055C18.416,12.396,18.432,12.358,18.432,12.318z"/>
</svg>
