<svg version="1.1" id="master" xmlns="http://www.w3.org/2000/svg" xmlns:xlink="http://www.w3.org/1999/xlink" x="0px" y="0px" width="24px" height="24px" viewBox="0 0 24 24" enable-background="new 0 0 24 24" xml:space="preserve">
<rect fill="none" width="24" height="24"/>
<path d="M2.857,15.215c0,1.971,1.601,3.571,3.572,3.571c0.756,0,1.441-0.229,2.028-0.63l-0.029,0.272C8.429,20.4,10.029,22,12,22c1.972,0,3.571-1.6,3.571-3.571l-0.029-0.272c0.572,0.401,1.272,0.63,2.03,0.63c1.969,0,3.57-1.601,3.57-3.571c0-1.43-0.842-2.644-2.041-3.215c1.2-0.571,2.041-1.785,2.041-3.214c0-1.971-1.6-3.571-3.57-3.571c-0.758,0-1.443,0.228-2.03,0.628l0.029-0.271C15.571,3.6,13.972,2,12,2c-1.971,0-3.571,1.6-3.571,3.571l0.029,0.271c-0.572-0.4-1.271-0.628-2.028-0.628c-1.971,0-3.572,1.599-3.572,3.571c0,1.428,0.843,2.643,2.043,3.214C3.701,12.57,2.857,13.785,2.857,15.215z M12,8.429c1.972,0,3.571,1.601,3.571,3.571s-1.6,3.571-3.571,3.571c-1.971,0-3.571-1.601-3.571-3.571S10.029,8.429,12,8.429z"/>
</svg>
