<svg version="1.1" id="master" xmlns="http://www.w3.org/2000/svg" xmlns:xlink="http://www.w3.org/1999/xlink" x="0px" y="0px" width="24px" height="24px" viewBox="0 0 24 24" enable-background="new 0 0 24 24" xml:space="preserve">
<rect fill="none" width="24" height="24"/>
<path d="M7.714,14.143L12,18.429l4.285-4.286h-2.856V5.571h-2.857v8.571H7.714z M2,14.143c0,0.785,0.643,1.429,1.429,1.429H7l-1.429-1.429H4.143L7,11.286h2.143V9.857H7L4.143,7h5V5.571H3.429C2.643,5.571,2,6.214,2,7l3.571,3.571L2,14.143z M17,11.286h-2.143V9.857H17L19.857,7h-5V5.571h5.714C21.356,5.571,22,6.214,22,7l-3.571,3.571L22,14.143c0,0.785-0.644,1.429-1.429,1.429H17l1.429-1.429h1.429L17,11.286z"/>
</svg>
