<svg version="1.1" id="master" xmlns="http://www.w3.org/2000/svg" xmlns:xlink="http://www.w3.org/1999/xlink" x="0px" y="0px"
	 width="24px" height="24px" viewBox="0 0 24 24" enable-background="new 0 0 24 24" xml:space="preserve">
<rect fill="none" width="24" height="24"/>
<path d="M15,10.526l1.273,3.397h-2.547L15,10.526z M22,8v10c0,1.109-0.891,2-2,2H4c-1.11,0-2-0.891-2-2L2.01,6c0-1.11,0.88-2,1.99-2
	h6l2,2h8C21.109,6,22,6.89,22,8z M18.717,17l-3.143-8h-1.146l-3.146,8h1.286l0.691-1.846h3.471L17.432,17H18.717z"/>
</svg>
