<svg version="1.1" id="master" xmlns="http://www.w3.org/2000/svg" xmlns:xlink="http://www.w3.org/1999/xlink" x="0px" y="0px" width="24px" height="24px" viewBox="0 0 24 24" enable-background="new 0 0 24 24" xml:space="preserve">
<rect fill="none" width="24" height="24"/>
<path d="M16.285,9.857L12,5.571L7.714,9.857h2.857v8.572h2.857V9.857H16.285z M22,9.857c0-0.785-0.644-1.428-1.429-1.428H17l1.429,1.428h1.429L17,12.715h-2.143v1.428H17L19.857,17h-5v1.429h5.714C21.356,18.429,22,17.785,22,17l-3.571-3.571L22,9.857z M7,12.715h2.143v1.428H7L4.143,17h5v1.429H3.429C2.643,18.429,2,17.785,2,17l3.571-3.571L2,9.857c0-0.785,0.643-1.428,1.429-1.428H7L5.571,9.857H4.143L7,12.715z"/>
</svg>
