<svg version="1.1" id="master" xmlns="http://www.w3.org/2000/svg" xmlns:xlink="http://www.w3.org/1999/xlink" x="0px" y="0px"
	 width="24px" height="24px" viewBox="0 0 24 24" enable-background="new 0 0 24 24" xml:space="preserve">
<rect fill="none" width="24" height="24"/>
<path d="M20,6h-8l-2-2H4C2.89,4,2.01,4.89,2.01,6L2,18c0,1.109,0.89,2,2,2h16c1.109,0,2-0.891,2-2V8C22,6.89,21.109,6,20,6z
	 M19,16.2c0,0.439-0.359,0.8-0.799,0.8H11.8c-0.439,0-0.8-0.36-0.8-0.8V9.8c0-0.44,0.36-0.8,0.8-0.8h6.401C18.641,9,19,9.36,19,9.8
	V16.2z M15.373,10.4h-0.744l-2.045,5.2h0.836l0.449-1.199h2.256L16.58,15.6h0.836L15.373,10.4z M14.172,13.6L15,11.392l0.828,2.208
	H14.172z"/>
</svg>
