<svg version="1.1" id="master" xmlns="http://www.w3.org/2000/svg" xmlns:xlink="http://www.w3.org/1999/xlink" x="0px" y="0px" width="24px" height="24px" viewBox="0 0 24 24" enable-background="new 0 0 24 24" xml:space="preserve">
<rect fill="none" width="24" height="24"/>
<path d="M16.772,4.887L16.326,7.22c-0.053,0.252-0.37,0.519-0.667,0.519h-4.151c-0.468,0-0.803,0.326-0.803,0.788v0.511c0,0.475,0.338,0.8,0.805,0.8h3.524c0.33,0,0.654,0.363,0.581,0.712l-0.445,2.301c-0.043,0.199-0.262,0.523-0.654,0.523h-2.881c-0.525,0-0.682,0.077-1.032,0.502c-0.35,0.436-3.505,4.224-3.505,4.224c-0.031,0.038-0.062,0.024-0.062-0.012V4.85c0-0.299,0.259-0.65,0.646-0.65h8.562c0.313,0,0.608,0.296,0.527,0.684V4.887z M17.148,14.038c0.121-0.482,1.455-7.32,1.9-9.488 M17.405,2H6.736C5.265,2,4.833,3.107,4.833,3.803v16.95c0,0.783,0.42,1.076,0.657,1.172c0.237,0.097,0.891,0.178,1.284-0.273c0,0,5.037-5.846,5.122-5.932c0.138-0.131,0.138-0.131,0.263-0.131h3.262c1.375,0,1.588-0.975,1.738-1.55c0.125-0.475,1.462-7.312,1.899-9.487C19.396,2.9,18.971,2,17.408,2H17.405z"/>
</svg>
