<svg version="1.1" id="master" xmlns="http://www.w3.org/2000/svg" xmlns:xlink="http://www.w3.org/1999/xlink" x="0px" y="0px"
	 width="24px" height="24px" viewBox="0 0 24 24" enable-background="new 0 0 24 24" xml:space="preserve">
<rect fill="none" width="24" height="24"/>
<path d="M21.94,4.455c-5.966-2.122-12.452-2.297-18.524-0.5C2.424,4.194,1.813,5.193,2.052,6.186c0.005,0.02,0.01,0.04,0.016,0.06
	c0.333,1.333,0.816,2.865,1.399,4.257c0.008,0.033,0.025,0.017,0.025-0.017C3.409,9.835,3.908,9.011,4.891,8.71
	c4.722-1.501,9.803-1.434,14.484,0.192c0.717,0.25,1.517-0.142,1.75-0.883c0.583-1.874,0.815-3.148,0.874-3.465
	C22.007,4.497,21.958,4.471,21.94,4.455z M7.548,8.578C6.832,8.727,5.84,8.961,5.099,9.21c-1.482,0.508-1.416,2.316-0.625,2.891
	c0.058-0.333,0.417-0.792,0.816-0.941c1.483-0.583,3.074-0.933,4.681-1.074C9.156,9.752,8.356,9.277,7.557,8.578 M19.358,12.192
	c-4.307-2.022-9.249-2.218-13.701-0.542c-0.708,0.267-1.149,1.125-0.708,1.941c0.773,1.396,1.65,2.733,2.624,3.998
	c-0.142-0.483,0.108-1.383,1.058-1.674c2.624-0.808,5.381-0.467,7.213,0.273c0.517,0.209,1.249,0.084,1.657-0.531
	c0.703-1.077,1.339-2.196,1.908-3.349C19.434,12.259,19.409,12.217,19.358,12.192 M15.104,18.664
	c-0.77-0.389-1.471-0.894-2.083-1.499c-0.283-0.284-0.7-0.691-1.141-1.175c-1,0-1.974,0.101-3.016,0.434
	c-0.966,0.3-1.058,1.416-0.633,1.999c0.716,0.891,1.216,1.374,2.016,2.198c0.881,0.866,2.292,0.874,3.182,0.018
	c0.624-0.625,1.008-1.042,1.715-1.841C15.187,18.755,15.169,18.681,15.104,18.664"/>
</svg>
