<svg version="1.1" id="master" xmlns="http://www.w3.org/2000/svg" xmlns:xlink="http://www.w3.org/1999/xlink" x="0px" y="0px" width="24px" height="24px" viewBox="0 0 24 24" enable-background="new 0 0 24 24" xml:space="preserve">
<rect fill="none" width="24" height="24"/>
<path d="M15.801,4.5c-2.009,0-3.768,1.034-4.9,2.475v3.158c1.516-4.208,4.9-3.9,4.9-3.9c2.449,0,4.399,1.917,4.399,4.267c0,2.367-1.95,4.275-4.399,4.275c-1.157,0.003-2.27-0.444-3.101-1.25l-2.134-2.334c-0.948-0.92-2.22-1.432-3.542-1.425C4.25,9.767,2,11.942,2,14.634c0,2.7,2.25,4.866,5.025,4.866c1.558,0,2.958-0.676,3.875-1.758v-2.526c-1.5,2.859-3.875,2.551-3.875,2.551c-1.775,0-3.217-1.399-3.217-3.133c0-1.718,1.442-3.117,3.217-3.117c0.883,0,1.683,0.35,2.267,0.9l2.133,2.342c1.172,1.138,2.741,1.771,4.376,1.766c3.424,0,6.199-2.7,6.199-6.024C22,7.175,19.225,4.5,15.801,4.5z"/>
</svg>
