<svg version="1.1" id="master" xmlns="http://www.w3.org/2000/svg" xmlns:xlink="http://www.w3.org/1999/xlink" x="0px" y="0px"
	 width="24px" height="24px" viewBox="0 0 24 24" enable-background="new 0 0 24 24" xml:space="preserve">
<rect fill="none" width="24" height="24"/>
<path d="M21.727,3.601l-7.226,7.225v0.845L4.824,2h16.239C21.896,2,22.313,3.012,21.727,3.601z M14.501,14.498l-3.268-3.266
	L3.414,3.414L3.412,3.416L2.278,2.283C1.945,2.625,1.88,3.204,2.275,3.601l0.476,0.476L2,4.828l7.5,7.5v6.547
	c0,0.307,0.149,0.593,0.4,0.77l3.125,2.187c0.617,0.431,1.476-0.006,1.476-0.769v-3.734l4.671,4.671l1.414-1.414L14.501,14.5V14.498
	z"/>
</svg>
