<svg version="1.1" id="master" xmlns="http://www.w3.org/2000/svg" xmlns:xlink="http://www.w3.org/1999/xlink" x="0px" y="0px" width="24px" height="24px" viewBox="0 0 24 24" enable-background="new 0 0 24 24" xml:space="preserve">
<rect fill="none" width="24" height="24"/>
<path d="M18.878,5.122c0.261,0,0.505,0.049,0.73,0.148c0.227,0.099,0.424,0.233,0.592,0.404s0.301,0.37,0.399,0.596s0.148,0.47,0.148,0.73v1.982c0,0.197-0.03,0.387-0.092,0.57c-0.061,0.183-0.145,0.351-0.252,0.504c-0.107,0.153-0.237,0.29-0.392,0.409c-0.153,0.119-0.323,0.213-0.509,0.283v9.374c0,0.261-0.049,0.504-0.147,0.73c-0.099,0.226-0.233,0.424-0.404,0.596c-0.171,0.171-0.369,0.306-0.596,0.404C18.131,21.951,17.887,22,17.626,22H6.374c-0.261,0-0.505-0.049-0.73-0.147c-0.227-0.099-0.423-0.233-0.592-0.404c-0.168-0.172-0.301-0.37-0.399-0.596c-0.099-0.227-0.148-0.47-0.148-0.73v-9.374c-0.18-0.07-0.346-0.164-0.5-0.283c-0.153-0.119-0.285-0.255-0.396-0.409C3.499,9.903,3.411,9.735,3.348,9.552S3.252,9.18,3.252,8.982V7c0-0.261,0.05-0.504,0.148-0.73s0.233-0.425,0.404-0.596S4.174,5.368,4.4,5.27c0.226-0.099,0.469-0.148,0.73-0.148v-1.27c0-0.261,0.053-0.503,0.16-0.726s0.25-0.418,0.427-0.587c0.177-0.168,0.381-0.3,0.612-0.396C6.563,2.048,6.806,2,7.061,2c0.07,0,0.148,0.006,0.235,0.018S7.47,2.045,7.557,2.065c0.087,0.02,0.171,0.046,0.252,0.078s0.15,0.068,0.209,0.108l2.521,1.8c0.191-0.093,0.395-0.148,0.608-0.166c0.215-0.017,0.424-0.026,0.626-0.026h0.392c0.221,0,0.44,0.01,0.661,0.03c0.22,0.021,0.432,0.077,0.635,0.17l2.53-1.809c0.058-0.04,0.128-0.077,0.209-0.108s0.165-0.058,0.252-0.078c0.087-0.021,0.174-0.036,0.261-0.048S16.878,2,16.948,2c0.267,0,0.517,0.049,0.752,0.148c0.234,0.099,0.438,0.233,0.613,0.404c0.174,0.171,0.312,0.374,0.413,0.608c0.101,0.235,0.151,0.486,0.151,0.752V5.122z M4.504,8.87c0,0.174,0.062,0.322,0.183,0.443c0.122,0.122,0.27,0.183,0.444,0.183h5.617V6.374H5.131c-0.175,0-0.322,0.061-0.444,0.183C4.565,6.678,4.504,6.826,4.504,7V8.87z M6.374,20.748h4.374v-9.965h-5v9.339c0,0.168,0.063,0.314,0.187,0.438C6.06,20.686,6.206,20.748,6.374,20.748z M19.504,8.87V7c0-0.174-0.061-0.322-0.183-0.443c-0.121-0.122-0.27-0.183-0.443-0.183h-5.626v3.122h5.626c0.174,0,0.322-0.061,0.443-0.183C19.443,9.191,19.504,9.043,19.504,8.87z M18.252,20.122v-9.339h-5v9.965h4.374c0.174,0,0.322-0.062,0.443-0.183C18.191,20.443,18.252,20.296,18.252,20.122z"/>
</svg>
