<svg version="1.1" id="master" xmlns="http://www.w3.org/2000/svg" xmlns:xlink="http://www.w3.org/1999/xlink" x="0px" y="0px" width="24px" height="24px" viewBox="0 0 24 24" enable-background="new 0 0 24 24" xml:space="preserve">
<rect fill="none" width="24" height="24"/>
<path d="M21.65,4c-0.803,1.005-2.125,5.396-9.551,5.592c-3.544,0.093-5.3-3.943-5.3-3.943l-0.278,6.476c-0.692-0.868-1.621-1.421-2.512-1.45c-0.431-0.021-0.855,0.109-1.201,0.368c-0.553,0.418-0.814,1.121-0.809,1.9c0.005,0.778,0.275,1.638,0.809,2.413c0.533,0.776,1.23,1.323,1.937,1.576c0.38,0.137,0.764,0.178,1.125,0.131C10.895,21.068,24.331,24.131,21.65,4z M9.003,9.375c1.054,0,1.928,0.783,2.178,1.83c0.403-0.992,1.345-1.689,2.443-1.689c1.465,0,2.648,1.242,2.648,2.769c0,1.528-1.184,2.778-2.648,2.778c-1.276,0-2.342-0.949-2.596-2.203c-0.364,0.814-1.127,1.389-2.025,1.389c-0.763,0-1.43-0.414-1.836-1.039c-0.071-0.162-0.152-0.319-0.241-0.473c-0.113-0.296-0.171-0.61-0.171-0.927C6.755,10.473,7.753,9.374,9.003,9.375L9.003,9.375z M9.003,9.675c-1.07,0-1.942,0.949-1.942,2.134c0,1.186,0.872,2.132,1.942,2.132c0.178,0,0.348-0.035,0.512-0.084c-0.75-0.029-1.344-0.676-1.345-1.464c0-0.81,0.625-1.465,1.397-1.465c0.653,0,1.219,0.476,1.362,1.145c0.01-0.088,0.024-0.173,0.024-0.264C10.953,10.624,10.073,9.676,9.003,9.675L9.003,9.675z M13.624,9.784c-1.313,0-2.384,1.112-2.384,2.5c0,1.39,1.07,2.507,2.384,2.507c0.492,0,0.95-0.156,1.33-0.427c-0.226,0.104-0.47,0.157-0.716,0.158c-0.986-0.001-1.786-0.841-1.786-1.876c0-1.036,0.8-1.876,1.786-1.877c0.864,0,1.604,0.646,1.761,1.538l0.003-0.021C16.002,10.896,14.938,9.785,13.624,9.784L13.624,9.784z M4.002,10.942c0.865,0.029,1.838,0.642,2.507,1.613c0.505,0.735,0.762,1.556,0.767,2.272c0.005,0.718-0.235,1.324-0.705,1.681c-0.47,0.354-1.092,0.399-1.735,0.171c-0.643-0.23-1.303-0.736-1.808-1.471c-0.504-0.734-0.759-1.556-0.764-2.273c-0.006-0.718,0.235-1.324,0.704-1.68C3.266,11.035,3.632,10.924,4.002,10.942L4.002,10.942z M13.744,11.146c-0.463,0-0.838,0.394-0.838,0.88c0,0,0,0.001,0,0.002c0.001,0.485,0.376,0.879,0.838,0.879c0.463-0.001,0.837-0.395,0.838-0.879c0.002-0.486-0.373-0.881-0.836-0.883C13.746,11.146,13.745,11.146,13.744,11.146z M9.041,11.33c-0.305,0-0.551,0.259-0.552,0.578c-0.001,0.32,0.245,0.58,0.55,0.581c0,0,0.001,0,0.002,0c0.305,0,0.551-0.259,0.551-0.579c0,0,0-0.001,0-0.002C9.591,11.589,9.344,11.331,9.041,11.33L9.041,11.33z M3.695,11.516c-0.515-0.001-0.932,0.524-0.933,1.171c0,0.001,0,0.001,0,0.001c0,0.647,0.417,1.173,0.932,1.173c0,0,0.001,0,0.001,0c0.514,0,0.93-0.525,0.93-1.173C4.625,12.041,4.209,11.517,3.695,11.516z M15.509,14.848c0,0,1.239,0.362,1.676,0.954c0.437,0.591,0.162,0.954,0.048,1.708c-0.168-0.439-0.34-0.785-0.518-0.985c-0.676,1.05-2.587,1.548-5.15,1.3c1.15-0.061,2.043-0.24,2.751-0.487c-1.167,0.075-2.678-0.226-4.471-0.89c3.552,0.746,5.36,0.053,6.419-0.805C15.984,15.264,15.509,14.848,15.509,14.848z"/>
</svg>
