<svg version="1.1" id="master" xmlns="http://www.w3.org/2000/svg" xmlns:xlink="http://www.w3.org/1999/xlink" x="0px" y="0px" width="24px" height="24px" viewBox="0 0 24 24" enable-background="new 0 0 24 24" xml:space="preserve">
<rect fill="none" width="24" height="24"/>
<path d="M19.692,2H4.308C3.462,2,2.77,2.692,2.77,3.539v16.923C2.77,21.308,3.462,22,4.308,22h15.385c0.846,0,1.538-0.692,1.538-1.538V3.539C21.23,2.692,20.538,2,19.692,2z M10.847,14.692l-1.154,1.153L5.847,12l3.846-3.846l1.154,1.154L8.154,12L10.847,14.692z M14.308,15.846l-1.153-1.153L15.847,12l-2.692-2.692l1.153-1.154L18.154,12L14.308,15.846z"/>
</svg>
