<svg version="1.1" id="master" xmlns="http://www.w3.org/2000/svg" xmlns:xlink="http://www.w3.org/1999/xlink" x="0px" y="0px" width="24px" height="24px" viewBox="0 0 24 24" enable-background="new 0 0 24 24" xml:space="preserve">
<rect fill="none" width="24" height="24"/>
<path d="M7.747,10.741l2.841,8.742L3.77,10.741 M13.417,19.484l2.722-8.382l0.117-0.363h3.98l-6.168,7.901 M18.594,3.547l1.997,6.146h-3.994 M15.16,10.736l-1.98,6.09L12,20.453l-3.154-9.717 M5.41,3.547l2,6.146H3.417 M2.115,14.316c-0.098-0.072-0.139-0.199-0.102-0.313l0.875-2.692l6.423,8.235 M21.886,14.316l-7.198,5.227l0.023-0.031l6.398-8.2l0.876,2.692C22.024,14.117,21.984,14.244,21.886,14.316"/>
</svg>
