<svg version="1.1" id="master" xmlns="http://www.w3.org/2000/svg" xmlns:xlink="http://www.w3.org/1999/xlink" x="0px" y="0px" width="24px" height="24px" viewBox="0 0 24 24" enable-background="new 0 0 24 24" xml:space="preserve">
<rect fill="none" width="24" height="24"/>
<path d="M21.941,13.111l-1.05-3.222c-0.006-0.03-0.015-0.059-0.025-0.087l-2.104-6.479c-0.115-0.343-0.437-0.573-0.8-0.57c-0.359-0.002-0.681,0.23-0.789,0.575l-2.006,6.173H8.836L6.827,3.329C6.719,2.985,6.401,2.752,6.041,2.753H6.036c-0.362,0-0.683,0.232-0.797,0.575L3.133,9.815c0,0.006-0.005,0.011-0.006,0.017l-1.068,3.281c-0.161,0.493,0.014,1.033,0.435,1.34l9.227,6.704c0.167,0.12,0.393,0.12,0.558-0.003l9.228-6.701C21.927,14.146,22.102,13.606,21.941,13.111 M8.149,10.45l2.572,7.915L4.547,10.45 M13.283,18.367l2.465-7.589l0.106-0.329h3.604l-5.585,7.155 M17.971,3.936l1.808,5.566h-3.617 M14.861,10.446l-1.792,5.514L12,19.244l-2.856-8.798 M6.032,3.936l1.811,5.566H4.228 M3.049,13.688c-0.089-0.065-0.126-0.181-0.092-0.284l0.793-2.437l5.816,7.457 M20.952,13.688l-6.519,4.732l0.022-0.028l5.794-7.425l0.793,2.437C21.077,13.508,21.041,13.623,20.952,13.688"/>
</svg>
