<svg version="1.1" id="master" xmlns="http://www.w3.org/2000/svg" xmlns:xlink="http://www.w3.org/1999/xlink" x="0px" y="0px" width="24px" height="24px" viewBox="0 0 24 24" enable-background="new 0 0 24 24" xml:space="preserve">
<rect fill="none" width="24" height="24"/>
<path d="M12.014,2c-5.514,0-10,4.486-10,10c0,5.514,4.486,10,10,10c0.687,0,1.344-0.071,1.973-0.201c-0.242-0.114-0.287-1.042-0.029-1.557c0.272-0.586,1.157-2.07,0.286-2.569c-0.872-0.501-0.629-0.715-1.158-1.301c-0.527-0.586-0.313-0.672-0.356-0.828c-0.114-0.486,0.515-1.272,0.558-1.344c0.028-0.085,0.028-0.387,0-0.472c0-0.114-0.387-0.313-0.485-0.328c-0.087,0-0.157,0.156-0.287,0.185c-0.128,0.029-0.714-0.357-0.843-0.472c-0.128-0.113-0.2-0.328-0.386-0.484c-0.186-0.186-0.2-0.043-0.472-0.157c-0.271-0.115-1.143-0.443-1.828-0.686c-0.686-0.271-0.742-0.671-0.742-0.943c-0.029-0.285-0.43-0.671-0.601-0.957C7.442,9.6,7.414,9.214,7.356,9.3C7.3,9.386,7.714,10.415,7.643,10.457c-0.071,0.029-0.229-0.285-0.429-0.542c-0.2-0.271,0.2-0.128-0.429-1.357c-0.628-1.229,0.2-1.857,0.243-2.5C7.071,5.415,7.571,6.3,7.3,5.872C7.028,5.443,7.3,4.6,7.1,4.286C6.914,3.971,5.843,4.643,5.843,4.643C5.871,4.329,6.828,3.814,7.5,3.329C8.171,2.843,8.614,3.243,9.156,3.4c0.558,0.186,0.586,0.128,0.4-0.071c-0.186-0.186,0.086-0.243,0.515-0.186c0.4,0.072,0.542,0.586,1.186,0.515c0.672-0.043,0.071,0.128,0.157,0.314S11.328,4.129,10.871,4.4c-0.429,0.285,0.028,0.314,0.785,0.871C12.414,5.829,12.2,4.915,12.1,4.486C12,4.057,12.657,4.4,12.657,4.4c0.472,0.314,0.387,0.028,0.714,0.114c0.328,0.085,1.301,0.914,1.301,0.914c-1.187,0.629-0.442,0.686-0.243,0.844c0.199,0.157-0.4,0.428-0.4,0.428c-0.242-0.243-0.271,0.028-0.428,0.114c-0.158,0.086-0.029,0.314-0.029,0.314c-0.8,0.129-0.628,0.985-0.601,1.186c0,0.2-0.543,0.514-0.671,0.829c-0.129,0.286,0.357,0.914,0.086,0.943C12.114,10.128,11.9,9.143,10.514,9.5c-0.428,0.114-1.343,0.586-0.843,1.543c0.515,0.986,1.314-0.271,1.586-0.128c0.271,0.143-0.086,0.757-0.028,0.786c0.057,0.028,0.757,0.028,0.8,0.871c0.043,0.844,1.101,0.757,1.313,0.786c0.243,0,1.002-0.629,1.101-0.644c0.086-0.042,0.543-0.399,1.473,0.129c0.942,0.515,1.4,0.443,1.713,0.672c0.315,0.229,0.114,0.67,0.401,0.829c0.285,0.156,1.513-0.045,1.828,0.442c0.315,0.485-1.257,2.985-1.744,3.258c-0.485,0.271-0.685,0.913-1.2,1.313c-0.513,0.399-1.156,0.914-1.813,1.301c-0.586,0.327-0.671,0.942-0.942,1.141c4.486-0.999,7.829-5,7.829-9.77c0-5.514-4.487-10-10.001-10L12.014,2z M14.357,11.372c-0.128,0.042-0.4,0.314-1.114-0.114c-0.686-0.429-1.157-0.329-1.229-0.4c0,0-0.071-0.158,0.243-0.2c0.629-0.072,1.4,0.586,1.586,0.586s0.272-0.186,0.586-0.072C14.743,11.286,14.5,11.357,14.357,11.372z M11.071,3c-0.072-0.043,0.043-0.115,0.128-0.2c0.044-0.043,0.029-0.157,0.072-0.2c0.157-0.157,0.871-0.357,0.742,0.043C11.856,3.029,11.186,3.071,11.071,3z M12.829,4.271C12.558,4.243,12,4.2,12.086,4.072c0.428-0.4-0.129-0.543-0.486-0.543C11.243,3.5,11.114,3.3,11.285,3.257c0.172-0.042,0.871,0.029,1.001,0.115c0.113,0.085,0.743,0.357,0.785,0.542C13.1,4.1,13.071,4.271,12.829,4.271z M14.929,4.2c-0.2,0.128-1.185-0.586-1.357-0.743c-0.8-0.686-1.271-0.443-1.429-0.586S12.028,2.6,12.3,2.386s0.986,0.086,1.429,0.128C14.157,2.557,14.672,2.9,14.672,3.3c0.029,0.357,0.472,0.714,0.271,0.9H14.929z"/>
</svg>
