<svg version="1.1" id="master" xmlns="http://www.w3.org/2000/svg" xmlns:xlink="http://www.w3.org/1999/xlink" x="0px" y="0px" width="24px" height="24px" viewBox="0 0 24 24" enable-background="new 0 0 24 24" xml:space="preserve">
<rect fill="none" width="24" height="24"/>
<path d="M12,2C8.13,2,5,5.13,5,9s3.13,7,7,7s7-3.13,7-7S15.87,2,12,2z M10,9C9.448,9,9,8.552,9,8s0.448-1,1-1s1,0.448,1,1S10.552,9,10,9z M12,7c-0.552,0-1-0.448-1-1s0.448-1,1-1c0.553,0,1,0.448,1,1S12.553,7,12,7z M14,9c-0.553,0-1-0.448-1-1s0.447-1,1-1s1,0.448,1,1S14.553,9,14,9z M7,19h2c1.1,0,2,0.9,2,2v1h2v-1c0-1.1,0.9-2,2-2h2v-2H7V19z"/>
</svg>
