<svg version="1.1" id="master" xmlns="http://www.w3.org/2000/svg" xmlns:xlink="http://www.w3.org/1999/xlink" x="0px" y="0px" width="24px" height="24px" viewBox="0 0 24 24" enable-background="new 0 0 24 24" xml:space="preserve" fill="#DD5044">
<rect fill="none" width="24" height="24"/>
<path d="M12.926,16.499c-1.13,1.151-2.433,1.856-4.68,1.856C4.798,18.355,2,15.511,2,12c0-3.51,2.796-6.355,6.246-6.355l0,0c1.725,0,3.226,0.51,4.396,1.637l0.004,0.002l-1.759,1.759c-0.712-0.655-1.614-0.955-2.648-0.955c-2.124,0-3.846,1.752-3.846,3.914c0,2.163,1.723,3.914,3.846,3.914c1.385,0,2.187-0.436,2.881-1.145c0.389-0.396,0.637-0.904,0.782-1.467h-3.58v-2.247h3.199h0.464h2.436c0.03,0.264,0.048,0.529,0.048,0.797C14.469,13.611,14.057,15.35,12.926,16.499z M20.167,12.927v1.833h-1.791v-1.833h-1.833v-1.79h1.833V9.304h1.791v1.833H22v1.79H20.167z"/>
</svg>
