<svg version="1.1" id="master" xmlns="http://www.w3.org/2000/svg" xmlns:xlink="http://www.w3.org/1999/xlink" x="0px" y="0px" width="24px" height="24px" viewBox="0 0 24 24" enable-background="new 0 0 24 24" xml:space="preserve" fill="#1B4EED">
<rect fill="none" width="24" height="24"/>
<path d="M20.91,4.26c0.07-0.132-2-1.498-4.859-1.987c-2.505-0.429-5.635-0.5-8.304,0.911c-0.668,0.353-1.17,0.692-1.635,1.043c-1.266,0.959-1.915,1.9-2.439,2.646c-0.556,0.792-0.975,1.98-1.148,2.521c-0.211,0.659-0.254,1.294-0.35,1.975c-0.063,0.443-0.051,0.922-0.028,1.422c0.051,1.121,0.294,2.342,0.828,3.463c0.401,0.844,0.926,1.637,1.433,2.356c0.828,1.176,2.189,1.937,2.985,2.346c0.625,0.322,1.399,0.67,2.719,0.887c1.497,0.246,3.705,0.241,7.24-0.313c0.979-0.153,2.049-0.474,3.246-0.721c0.1-0.021,0.161-0.053,0.24-0.074c0.074-0.019,0.139-0.008,0.136-0.062c-0.075-1.567-0.047-3.323-0.016-4.111c0.005-0.12,0.034-0.491,0.035-0.648c0.001-0.14,0.074-0.123,0.148-0.188l0.731-0.722l-5.729-0.083l-2.007,1.129l3.983-0.167v4.423c0,0-1.616,0.673-3.774,0.627c-1.588-0.034-3.498-0.4-5.343-1.788c-2.896-2.178-3.912-5.193-3.929-7.37c-0.008-1.097-0.037-1.936,0.05-2.291c0.077-0.312,0.2-1.071,0.531-1.891c0.449-1.113,1.208-2.271,2.605-3.222c0.857-0.584,2.009-1.125,3.367-1.244c1.562-0.136,2.667,0.041,3.589,0.399c2.275,0.884,2.731,1.627,3.06,1.885c0.017,0.013,0.09,0.067,0.063,0.106c-0.032,0.046-0.036,0.098-0.052,0.125c-0.145,0.262-0.555,0.945-0.555,0.945L18.6,6.497L20.91,4.26L20.91,4.26z"/>
</svg>
