<svg version="1.1" id="master" xmlns="http://www.w3.org/2000/svg" xmlns:xlink="http://www.w3.org/1999/xlink" x="0px" y="0px"
	 width="24px" height="24px" viewBox="0 0 24 24" enable-background="new 0 0 24 24" xml:space="preserve">
<rect fill="none" width="24" height="24"/>
<path d="M12.158,3.983C8.577,3.9,5.401,6.271,4.463,9.727c0.044-0.017-0.046,0.011,0,0c-3.229,2.126-3.268,6.757-0.206,9.117
	l0.005-0.006l-0.006,0.024c0.978,0.739,2.171,1.137,3.397,1.131h4.311l0.025,0.025h4.327c5.573,0.044,7.814-7.172,3.196-10.292
	c-0.398-1.466-1.215-2.784-2.352-3.793L17.125,5.97l0.006-0.042C15.755,4.714,13.994,4.025,12.158,3.983z M11.859,7.438
	c1.037-0.034,2.099,0.307,2.906,0.958c1.005,0.839,1.575,2.089,1.551,3.398v0.432c2.941-0.058,2.941,4.384,0,4.327h-4.328
	l-0.007,0.009v-0.034H7.654c-0.307,0-0.61-0.065-0.889-0.191h0c-1.088-0.493-1.571-1.775-1.079-2.864
	c0.493-1.088,1.775-1.571,2.864-1.078c0.479,0.216,0.862,0.6,1.079,1.078l2.51-2.51c-0.834-1.087-2.037-1.833-3.382-2.095
	c0.015-0.009,0.033-0.022,0.045-0.02c0.787-0.864,1.89-1.372,3.058-1.409L11.859,7.438z"/>
</svg>
