<svg version="1.1" id="master" xmlns="http://www.w3.org/2000/svg" xmlns:xlink="http://www.w3.org/1999/xlink" x="0px" y="0px" width="24px" height="24px" viewBox="0 0 24 24" enable-background="new 0 0 24 24" xml:space="preserve" fill="#4387FD">
<rect fill="none" width="24" height="24"/>
<path d="M21.759,11.102l-4.102-7.104c-0.321-0.556-0.914-0.898-1.556-0.898H7.898c-0.642,0-1.235,0.343-1.556,0.898l-4.102,7.104c-0.321,0.556-0.321,1.241,0,1.797l4.102,7.104c0.321,0.556,0.915,0.898,1.556,0.898h8.204c0.642,0,1.234-0.343,1.556-0.898l4.102-7.104C22.081,12.343,22.081,11.657,21.759,11.102z M10.317,10.561c-0.088,0.114-0.219,0.192-0.375,0.192c-0.266,0-0.48-0.215-0.48-0.48s0.215-0.48,0.48-0.48c0.155,0,0.287,0.078,0.375,0.192h2.444l0.288,0.288l-0.288,0.288H10.317z M12.625,12c0,0.345-0.279,0.625-0.625,0.625c-0.345,0-0.625-0.28-0.625-0.625s0.28-0.625,0.625-0.625C12.345,11.375,12.625,11.655,12.625,12z M11.258,13.439h2.414c0.088-0.114,0.219-0.192,0.375-0.192c0.266,0,0.48,0.216,0.48,0.48c0,0.266-0.215,0.48-0.48,0.48c-0.155,0-0.286-0.078-0.374-0.191h-2.415l-0.289-0.289L11.258,13.439z M14.058,10.897c-0.345,0-0.625-0.28-0.625-0.625s0.28-0.625,0.625-0.625s0.625,0.28,0.625,0.625S14.403,10.897,14.058,10.897z M8.713,7.68C8.868,7.68,9,7.758,9.087,7.872l4.904,0.001l0.289,0.287l-0.289,0.288H9.087C9,8.563,8.868,8.641,8.713,8.641c-0.266,0-0.48-0.215-0.48-0.48C8.232,7.896,8.447,7.68,8.713,7.68z M8.708,16.464c-0.345,0-0.625-0.279-0.625-0.624s0.28-0.625,0.625-0.625c0.345,0,0.625,0.28,0.625,0.625S9.054,16.464,8.708,16.464z M9.342,13.728c0-0.345,0.279-0.624,0.625-0.624c0.345,0,0.625,0.279,0.625,0.624s-0.28,0.625-0.625,0.625C9.621,14.353,9.342,14.072,9.342,13.728z M15.292,16.32c-0.155,0-0.287-0.078-0.375-0.192H9.995L9.707,15.84l0.288-0.288h4.922c0.087-0.114,0.219-0.192,0.375-0.192c0.265,0,0.48,0.215,0.48,0.48S15.556,16.32,15.292,16.32z M15.289,8.785c-0.345,0-0.624-0.28-0.624-0.625s0.279-0.624,0.624-0.624c0.346,0,0.625,0.279,0.625,0.624S15.634,8.785,15.289,8.785z"/>
</svg>
