<svg version="1.1" id="master" xmlns="http://www.w3.org/2000/svg" xmlns:xlink="http://www.w3.org/1999/xlink" x="0px" y="0px"
	 width="24px" height="24px" viewBox="0 0 24 24" enable-background="new 0 0 24 24" xml:space="preserve">
<rect fill="none" width="24" height="24"/>
<path d="M11.105,3.669C10.646,3.976,8.41,5.46,6.136,6.971C3.859,8.48,2,9.729,2,9.744C2,9.76,2.114,9.836,2.255,9.911
	c0.14,0.081,2.385,1.325,4.991,2.771l4.733,2.63l0.121-0.063c0.068-0.033,1.814-1.031,3.884-2.21l3.76-2.149l0.023,6.65H22V9.756
	l-2.896-1.941c-3.902-2.614-7.022-4.674-7.1-4.691C11.967,3.117,11.564,3.364,11.105,3.669 M6.439,15.877l0.012,1.679l2.77,1.662
	l2.77,1.658l2.792-1.673l2.788-1.679v-1.658c0-0.914-0.011-1.66-0.022-1.66s-1.104,0.655-2.427,1.457l-2.767,1.671l-0.36,0.214
	l-1.105-0.662c-0.918-0.549-1.834-1.101-2.75-1.656l-1.678-1.012C6.443,14.211,6.436,14.957,6.439,15.877"/>
</svg>
