<svg version="1.1" id="master" xmlns="http://www.w3.org/2000/svg" xmlns:xlink="http://www.w3.org/1999/xlink" x="0px" y="0px" width="24px" height="24px" viewBox="0 0 24 24" enable-background="new 0 0 24 24" xml:space="preserve">
<rect fill="none" width="24" height="24"/>
<path d="M7.455,12l4.546-4.546L16.546,12l-4.545,4.545L7.455,12z M21.602,11.039L12.965,2.4c-0.531-0.533-1.394-0.533-1.927-0.001c0,0-0.001,0.001-0.001,0.001l-8.639,8.639c-0.53,0.53-0.531,1.389-0.001,1.92c0,0,0,0,0.001,0l8.642,8.644c0.53,0.53,1.39,0.53,1.92,0l0,0l8.642-8.644c0.531-0.529,0.531-1.389,0.002-1.919C21.603,11.039,21.603,11.039,21.602,11.039z M12,19.271l-7.273-7.273L12,4.725l7.273,7.273L12,19.271z"/>
</svg>
