<svg version="1.1" id="master" xmlns="http://www.w3.org/2000/svg" xmlns:xlink="http://www.w3.org/1999/xlink" x="0px" y="0px" width="24px" height="24px" viewBox="0 0 24 24" enable-background="new 0 0 24 24" xml:space="preserve">
<rect fill="none" width="24" height="24"/>
<path d="M18.609,16.406c1.221,0,2.204,0.983,2.204,2.203c0,1.221-0.983,2.204-2.204,2.204c-1.22,0-2.203-0.983-2.203-2.204C16.406,17.39,17.39,16.406,18.609,16.406 M12,8.102c2.152,0,3.898,1.746,3.898,3.898S14.152,15.898,12,15.898S8.102,14.152,8.102,12S9.848,8.102,12,8.102 M7.576,19.22c-1.542,0-2.797-1.254-2.797-2.796v-2.22H2v2.22C2,19.508,4.491,22,7.576,22h2.221v-2.78H7.576 M4.779,7.576c0-1.542,1.255-2.797,2.797-2.797h2.221V2H7.576C4.491,2,2,4.491,2,7.576v2.221h2.779V7.576 M16.424,4.779c1.542,0,2.796,1.255,2.796,2.797v2.221H22V7.576C22,4.491,19.508,2,16.424,2h-2.22v2.779H16.424L16.424,4.779z"/>
</svg>
