<svg version="1.1" id="master" xmlns="http://www.w3.org/2000/svg" xmlns:xlink="http://www.w3.org/1999/xlink" x="0px" y="0px"
	 width="24px" height="24px" viewBox="0 0 24 24" enable-background="new 0 0 24 24" xml:space="preserve">
<rect fill="none" width="24" height="24"/>
<path d="M3.252,10.065c-0.692,0-1.25,0.558-1.25,1.25v1.358c0,0.69,0.56,1.25,1.25,1.25s1.249-0.56,1.249-1.25v-1.358
	C4.501,10.623,3.943,10.065,3.252,10.065z M20.748,10.065c-0.691,0-1.25,0.558-1.25,1.25v1.358c0,0.69,0.56,1.25,1.25,1.25
	s1.25-0.56,1.25-1.25v-1.358C21.998,10.623,21.439,10.065,20.748,10.065z M7.567,14.155c-0.691,0-1.249,0.558-1.249,1.249v1.359
	c0,0.69,0.559,1.25,1.249,1.25s1.25-0.56,1.25-1.25v-1.351c0-0.692-0.559-1.249-1.25-1.249V14.155z M7.567,5.974
	c-0.691,0-1.249,0.558-1.249,1.25v4.465c0,0.69,0.559,1.25,1.249,1.25s1.25-0.56,1.25-1.25V7.215c0-0.691-0.559-1.25-1.25-1.25
	V5.974z M16.433,5.974c-0.691,0-1.25,0.558-1.25,1.25V8.59c0,0.689,0.56,1.25,1.25,1.25s1.25-0.56,1.25-1.25V7.224
	C17.683,6.532,17.124,5.974,16.433,5.974z M12,2c-0.692,0-1.25,0.558-1.25,1.25v1.358c0,0.69,0.56,1.25,1.25,1.25
	s1.25-0.56,1.25-1.25V3.25C13.25,2.558,12.691,2,12,2z M12,18.129c-0.692,0-1.25,0.558-1.25,1.249v1.367
	c-0.002,0.69,0.556,1.252,1.246,1.255c0.689,0.002,1.252-0.557,1.254-1.246v-1.366c0-0.684-0.559-1.249-1.25-1.249V18.129z
	 M16.433,11.081c-0.691,0-1.25,0.567-1.25,1.25v4.441c0,0.69,0.56,1.25,1.25,1.25s1.25-0.56,1.25-1.25v-4.441
	C17.683,11.639,17.124,11.081,16.433,11.081z M12,7.107c-0.692,0-1.25,0.566-1.25,1.25v7.272c0,0.691,0.56,1.25,1.25,1.25
	s1.25-0.559,1.25-1.25V8.365c0-0.692-0.559-1.25-1.25-1.25V7.107z"/>
</svg>
