<svg version="1.1" id="master" xmlns="http://www.w3.org/2000/svg" xmlns:xlink="http://www.w3.org/1999/xlink" x="0px" y="0px" width="24px" height="24px" viewBox="0 0 24 24" enable-background="new 0 0 24 24" xml:space="preserve">
<rect fill="none" width="24" height="24"/>
<path d="M3.364,3.364C2.61,3.364,2,3.974,2,4.728v14.544c0,0.754,0.61,1.365,1.364,1.365h17.272c0.754,0,1.364-0.611,1.364-1.365V4.728c0-0.753-0.61-1.364-1.364-1.364H3.364z M3.818,5.182h16.364v13.637H17.91V17.91h-4.092v0.908h-10V5.182L3.818,5.182z M12,8.818c-0.754,0-1.364,0.61-1.364,1.364s0.61,1.364,1.364,1.364s1.363-0.61,1.363-1.364S12.754,8.818,12,8.818z M8.364,10.41c-0.564,0-1.023,0.458-1.023,1.022s0.459,1.022,1.023,1.022c0.564,0,1.022-0.458,1.022-1.022S8.928,10.41,8.364,10.41z M15.636,10.41c-0.564,0-1.021,0.458-1.021,1.022s0.457,1.022,1.021,1.022c0.565,0,1.024-0.458,1.024-1.022S16.201,10.41,15.636,10.41z M12,12.454c-0.982,0-2.011,0.335-2.624,0.838c-0.32-0.099-0.67-0.156-1.013-0.156c-1.094,0-2.273,0.579-2.273,1.3v0.746h11.82v-0.746c0-0.721-1.18-1.3-2.274-1.3c-0.342,0-0.692,0.058-1.012,0.156C14.01,12.789,12.982,12.454,12,12.454z"/>
</svg>
