<svg version="1.1" id="master" xmlns="http://www.w3.org/2000/svg" xmlns:xlink="http://www.w3.org/1999/xlink" x="0px" y="0px" width="24px" height="24px" viewBox="0 0 24 24" enable-background="new 0 0 24 24" xml:space="preserve" fill="#1643EC">
<rect fill="none" width="24" height="24"/>
<path d="M12.796,2c-0.236,0-0.792,0.013-1.454,0.133C9.776,2.416,7.612,3.449,7,5.602c-0.946,3.33,1.491,4.652,1.491,4.652s0.854,0.501,1.207,0.6c1.061,0.296,2.188,0.158,2.188,0.158s-0.449,1.488,0.452,2.54c0.215,0.251,0.059,0.26,0.059,0.26S8.457,13.71,6.592,15.69c-1.865,1.979-0.854,3.803-0.854,3.803s0.978,2.383,5.195,2.503c4.237,0.121,6.857-2.388,7.087-4.282c0.114-0.952-0.016-1.844-0.492-2.624c-0.464-0.759-1.261-1.412-2.039-2.049c-0.483-0.396-0.82-0.599-1.037-0.826c-0.204-0.215-0.239-0.491-0.231-0.699c0.01-0.29,0.162-0.646,0.671-1.234c0.928-1.074,1.163-0.94,1.724-1.745c0.168-0.241,0.292-0.593,0.464-1.118c0.104-0.315,0.087-0.643,0.087-0.947c0-0.657-0.158-1.284-0.421-1.813c-0.488-0.982-1.327-1.62-1.343-1.668h1.47l1.665-0.975L12.92,2C12.92,2,12.875,2,12.796,2z M11.589,2.913c0.857,0.006,2.144,0.449,2.915,2.763c1.323,3.971-1.448,4.578-1.448,4.578s-3.176,0.488-3.76-3.042c-0.595-3.597,0.854-3.792,1.421-4.146C10.717,3.065,11.075,2.909,11.589,2.913z M13.344,14.61c0,0,2.528,1.55,2.767,2.686c0.266,1.273,0.284,2.2-1.646,3.216c-0.57,0.299-1.57,0.334-2.2,0.337c-1.548,0.007-2.718-0.59-3.296-0.888c-0.3-0.156-1.968-2.029-0.732-3.704c0.311-0.422,0.654-0.608,0.975-0.823c0.681-0.457,1.349-0.67,2.608-0.78C12.237,14.617,12.795,14.647,13.344,14.61z"/>
</svg>
