<svg version="1.1" id="master" xmlns="http://www.w3.org/2000/svg" xmlns:xlink="http://www.w3.org/1999/xlink" x="0px" y="0px"
	 width="24px" height="24px" viewBox="0 0 24 24" enable-background="new 0 0 24 24" xml:space="preserve">
<rect fill="none" width="24" height="24"/>
<path d="M20.907,5.596c-1.25-1.25-3.167-1.25-4.418-0.083c-0.084,0.083-0.084,0.167-0.084,0.25s0,0.167,0.084,0.25l0.417,0.417
	c0.083,0.083,0.25,0.083,0.417,0c0.333-0.25,0.667-0.333,1.083-0.333c1.001,0,1.835,0.833,1.835,1.834c0,0.5-0.167,0.917-0.501,1.25
	c-2.501,2.501-5.919-4.502-13.505-0.917c-0.5,0.25-0.75,0.833-0.5,1.334v0.083l1.25,2.251c0.25,0.5,0.917,0.667,1.417,0.417
	l0.583-0.333c0.667-0.417,1.25-0.833,1.834-1.334c0.083-0.083,0.333-0.083,0.417,0c0.167,0.083,0.167,0.25,0.083,0.417l-0.083,0.083
	c-0.584,0.5-1.25,1-1.918,1.417l-0.583,0.25c-0.25,0.167-0.5,0.25-0.833,0.25c-0.584,0-1.167-0.333-1.417-0.834l-1.25-2.167
	c-2.334,1.667-3.835,4.919-3.001,9.004c0,0.167,0.167,0.25,0.334,0.25h1.417c0.167,0,0.25-0.083,0.333-0.25
	c0.167-1.167,1.167-1.917,2.334-1.75c0.917,0.083,1.667,0.834,1.751,1.75c0,0.167,0.167,0.25,0.333,0.25h1.334
	c0.167,0,0.25-0.083,0.333-0.25c0.167-1.167,1.167-1.917,2.334-1.75c0.917,0.083,1.668,0.834,1.751,1.75
	c0,0.167,0.167,0.25,0.334,0.25h1.333c0.167,0,0.334-0.167,0.334-0.333c0-1.918,0.583-4.085,2-5.169
	C23.409,10.015,22.074,6.764,20.907,5.596z M15.738,11.349l-1-0.5c0-0.333,0.25-0.583,0.583-0.583c0.334,0,0.584,0.25,0.584,0.583
	C15.988,11.099,15.905,11.266,15.738,11.349z"/>
</svg>
