<svg version="1.1" id="master" xmlns="http://www.w3.org/2000/svg" xmlns:xlink="http://www.w3.org/1999/xlink" x="0px" y="0px" width="24px" height="24px" viewBox="0 0 24 24" enable-background="new 0 0 24 24" xml:space="preserve">
<rect fill="none" width="24" height="24"/>
<path d="M18.979,6.271c0.26-1.146-0.365-2.084-0.365-2.084c-1.041-0.104-1.771,0.312-1.979,0.521c-0.677-0.313-1.354-0.469-2.029-0.574C14.135,2.625,12.781,2,12.781,2c-0.861,0.533-1.493,1.369-1.771,2.343c-0.833,0.261-1.615,0.626-2.239,1.094c-1.25-0.52-2.76-0.468-4.011,0.104C4.605,7.78,5.594,9.186,5.802,9.395c-0.26,0.729-0.468,1.511-0.52,2.188c-1.926,0.99-2.5,2.917-2.5,2.917c0.833,0.885,2.24,1.978,3.489,1.978c0.364,0.626,0.781,1.146,1.25,1.666c-0.573,1.667,0.052,3.021,0.052,3.021c1.822,0.104,2.969-0.78,3.229-0.937c0.989,0.26,1.927,0.47,2.917,0.418c0.574,0.729,1.407,1.196,2.344,1.354c0.574-0.833,1.094-1.719,1.094-2.552c0.729-0.521,1.354-1.197,1.821-1.927c1.146,0.104,2.03-0.729,2.03-0.729c-0.156-0.729-0.521-1.562-1.146-1.979c0.156-1.196-0.104-2.395-0.677-3.384c-0.989-1.563-2.656-2.448-4.427-2.448c-1.196,0-2.291,0.574-3.02,1.407c-0.807,0.928-1.1,2.196-0.782,3.385c0.26,0.989,1.094,1.822,1.979,2.029c0.885,0.208,1.771,0.104,2.239-0.363c0.156-0.156-0.052-0.418-0.261-0.311c-0.363,0.154-0.729,0.207-1.145,0.154c-3.073-0.47-2.344-4.478,0.522-4.635c0.573-0.104,1.354,0.156,1.821,0.364c1.667,1.094,2.03,2.708,1.355,4.375c-0.754,1.525-2.26,2.536-3.959,2.655c-0.937,0-1.822-0.26-2.551-0.625c-1.771-1.041-2.917-2.76-3.021-4.791c-0.158-3.96,2.134-5.731,4.686-6.304c1.51-0.313,3.177-0.156,4.53,0.521c1.875,0.937,3.177,2.708,3.75,4.739c0.052,0.208,0.313,0.208,0.313-0.052C21.218,9.551,20.332,7.624,18.979,6.271z"/>
</svg>
