<svg version="1.1" id="master" xmlns="http://www.w3.org/2000/svg" xmlns:xlink="http://www.w3.org/1999/xlink" x="0px" y="0px" width="24px" height="24px" viewBox="0 0 24 24" enable-background="new 0 0 24 24" xml:space="preserve">
<rect fill="none" width="24" height="24"/>
<path d="M19,2H5C3.343,2,2,3.343,2,5v14c0,1.657,1.343,3,3,3h14c1.657,0,3-1.343,3-3V5C22,3.343,20.657,2,19,2z M18.68,11.688c-0.43-1.523-1.406-2.852-2.813-3.555c-1.016-0.508-2.266-0.625-3.398-0.391c-1.914,0.43-3.633,1.758-3.516,4.727c0.078,1.523,0.938,2.813,2.266,3.594c0.547,0.273,1.211,0.469,1.914,0.469c1.273-0.09,2.403-0.848,2.969-1.992c0.508-1.25,0.234-2.461-1.016-3.281c-0.352-0.156-0.938-0.352-1.367-0.273c-2.148,0.117-2.695,3.125-0.391,3.477c0.313,0.039,0.586,0,0.859-0.117c0.156-0.078,0.313,0.117,0.195,0.234c-0.352,0.352-1.016,0.43-1.68,0.273s-1.289-0.781-1.484-1.523c-0.239-0.892-0.02-1.843,0.586-2.539c0.547-0.625,1.367-1.055,2.266-1.055c1.328,0,2.578,0.664,3.32,1.836c0.43,0.742,0.625,1.641,0.508,2.539c0.469,0.313,0.742,0.938,0.859,1.484c0,0-0.664,0.625-1.523,0.547c-0.352,0.547-0.82,1.055-1.367,1.445c0,0.625-0.391,1.289-0.82,1.914c-0.703-0.117-1.328-0.469-1.758-1.016c-0.742,0.039-1.445-0.117-2.188-0.313c-0.195,0.117-1.055,0.781-2.422,0.703c0,0-0.469-1.016-0.039-2.266c-0.352-0.391-0.664-0.781-0.938-1.25c-0.938,0-1.992-0.82-2.617-1.484c0,0,0.43-1.445,1.875-2.188C7,11.18,7.156,10.594,7.352,10.047C7.195,9.891,6.453,8.836,6.57,7.156c0.938-0.43,2.07-0.469,3.008-0.078c0.469-0.352,1.055-0.625,1.68-0.82C11.466,5.527,11.94,4.9,12.586,4.5c0,0,1.016,0.469,1.367,1.602c0.508,0.078,1.016,0.195,1.523,0.43c0.156-0.156,0.703-0.469,1.484-0.391c0,0,0.469,0.703,0.273,1.563c1.016,1.016,1.68,2.461,1.68,3.945C18.914,11.844,18.719,11.844,18.68,11.688z"/>
</svg>
