<svg version="1.1" id="master" xmlns="http://www.w3.org/2000/svg" xmlns:xlink="http://www.w3.org/1999/xlink" x="0px" y="0px" width="24px" height="24px" viewBox="0 0 24 24" enable-background="new 0 0 24 24" xml:space="preserve">
<rect fill="none" width="24" height="24"/>
<path d="M21.656,13.295l-8.419-4.859l0,0V6.826h-0.62V6.341c0.946-0.274,1.597-1.141,1.597-2.126C14.214,2.991,13.223,2,12,2S9.786,2.991,9.786,4.215h1.233c0-0.542,0.439-0.98,0.98-0.98c0.542,0,0.98,0.438,0.98,0.98c0,0.541-0.482,0.972-0.98,1c-0.133,0.008-0.617,0.028-0.617,0.028v1.583h-0.62v1.609l-8.419,4.859c-0.405,0.233-0.239,0.854,0.229,0.854h5.172v6.427h0.571V22h1.237v-1.424h1.237V22h1.237v-1.424h1.237V22h1.237v-1.424h0.494v-1.879h1.612v-4.548h4.818C21.895,14.149,22.062,13.528,21.656,13.295z M14.997,12.916v-0.008H7.745v0.008H5.469L12,9.146l6.531,3.771H14.997z"/>
</svg>
