<svg version="1.1" id="master" xmlns="http://www.w3.org/2000/svg" xmlns:xlink="http://www.w3.org/1999/xlink" x="0px" y="0px"
	 width="24px" height="24px" viewBox="0 0 24 24" enable-background="new 0 0 24 24" xml:space="preserve">
<rect fill="none" width="24" height="24"/>
<path d="M19.175,2H4.825c-1.001,0-1.8,0.8-1.8,1.8v16.401c0,0.998,0.799,1.799,1.8,1.799h14.35c1.001,0,1.8-0.801,1.8-1.799V3.8
	C20.975,2.8,20.176,2,19.175,2z M19.976,20.201c0,0.449-0.352,0.8-0.801,0.8H4.825c-0.45,0-0.8-0.351-0.8-0.8V3.8
	C4.025,3.35,4.375,3,4.825,3h14.35c0.449,0,0.801,0.351,0.801,0.801V20.201z M7.525,18.999L9.775,17l-2.25-2V18.999z M15.625,10.9
	c-0.399-0.4-1.149-0.9-2.399-0.9c-1.351,0-2.75,0.351-3.75,0.7V5h-2v8.65l1.4-0.65c0,0,2.3-1.05,4.3-1.05c1,0,1.25,0.549,1.25,1.05
	v6h2v-6C16.475,12.852,16.475,11.75,15.625,10.9z M12.975,8.25h2.001C15.875,7.2,16.324,6.149,16.475,5h-1.999
	C14.275,6.149,13.774,7.2,12.975,8.25z"/>
</svg>
