<svg version="1.1" id="master" xmlns="http://www.w3.org/2000/svg" xmlns:xlink="http://www.w3.org/1999/xlink" x="0px" y="0px"
	 width="24px" height="24px" viewBox="0 0 24 24" enable-background="new 0 0 24 24" xml:space="preserve">
<rect fill="none" width="24" height="24"/>
<path d="M12,22h-0.333l2.083-5.584h2.833c0.5,0,1.001-0.416,1.167-0.833L20,9.5c0.333-1-0.25-1.833-1.25-1.833h-3.916l-3.25,9
	L9.75,21.75C5.25,20.667,2,16.75,2,12c0-4.583,3.083-8.417,7.333-9.667L7.417,7.667l-3.25,8.75H6.25L8.917,9H10.5l-2.667,7.416
	h2.083l2.5-6.916c0.333-1-0.167-1.833-1.25-1.833H9.5L11.583,2H12c5.5,0,10,4.5,10,10S17.5,22,12,22z M18.083,8.917H16.5L14.25,15
	h1.583L18.083,8.917z"/>
</svg>
