<svg version="1.1" id="master" xmlns="http://www.w3.org/2000/svg" xmlns:xlink="http://www.w3.org/1999/xlink" x="0px" y="0px" width="24px" height="24px" viewBox="0 0 24 24" enable-background="new 0 0 24 24" xml:space="preserve">
<rect fill="none" width="24" height="24"/>
<path d="M2,7.005v3.568h2.137c0.842,0,1.612,0.142,2.312,0.423c0.699,0.282,1.301,0.675,1.805,1.178c0.503,0.504,0.896,1.105,1.178,1.805c0.281,0.699,0.422,1.47,0.422,2.311v2.147H21.9c-0.112-0.471-0.298-0.868-0.557-1.193c-0.258-0.324-0.597-0.603-1.014-0.835l-4.046-2.266h-2.853L5.568,3.427c-0.192,0-0.383,0.019-0.571,0.055S4.621,3.563,4.436,3.615C3.601,3.867,2.985,4.28,2.592,4.853C2.197,5.426,2,6.144,2,7.005z M4.296,12.721c0.61,0,1.132,0.074,1.566,0.224c0.434,0.149,0.788,0.373,1.063,0.671c0.274,0.299,0.476,0.67,0.601,1.113c0.126,0.444,0.189,0.965,0.189,1.561v4.284H22v-1.421H9.137v-2.863c0-0.59-0.079-1.163-0.238-1.72c-0.146-0.497-0.371-0.945-0.676-1.347c-0.305-0.4-0.664-0.745-1.078-1.034c-0.415-0.288-0.865-0.51-1.353-0.666c-0.487-0.155-0.982-0.233-1.485-0.233H2v9.284h2.137v-7.853H4.296z"/>
</svg>
