<svg version="1.1" id="master" xmlns="http://www.w3.org/2000/svg" xmlns:xlink="http://www.w3.org/1999/xlink" x="0px" y="0px"
	 width="24px" height="24px" viewBox="0 0 24 24" enable-background="new 0 0 24 24" xml:space="preserve">
<rect fill="none" width="24" height="24"/>
<path d="M15.644,11.691h1.982c0.603,0,1.17,0.114,1.7,0.343s0.994,0.542,1.392,0.939c0.396,0.397,0.71,0.861,0.938,1.392
	C21.886,14.896,22,15.463,22,16.064v3.123H10.6l-0.626-1.253H9.496v1.253H2V6.691c0-0.261,0.049-0.504,0.147-0.73
	s0.233-0.425,0.404-0.596c0.172-0.171,0.37-0.306,0.596-0.404c0.227-0.099,0.47-0.148,0.73-0.148h6.557
	c0.302,0,0.584,0.058,0.848,0.174c0.264,0.116,0.496,0.272,0.696,0.47s0.357,0.427,0.474,0.691c0.116,0.264,0.174,0.546,0.174,0.848
	v1.669L15.644,11.691z M3.252,16.064h17.496c0-0.22-0.021-0.428-0.062-0.625H3.252V16.064z M10.435,6.065H9.496v1.87
	c0,0.168-0.062,0.314-0.183,0.439C9.191,8.499,9.046,8.561,8.878,8.561H4.496v3.13c0,0.585,0.109,1.144,0.33,1.674
	c0.22,0.53,0.521,1.014,0.904,1.447h14.757c-0.122-0.283-0.283-0.541-0.483-0.773c-0.199-0.232-0.424-0.43-0.674-0.592
	c-0.249-0.162-0.519-0.287-0.809-0.378c-0.29-0.09-0.588-0.135-0.896-0.135h-2.504l-1.34-1.339c0.059-0.058,0.087-0.13,0.087-0.217
	c0-0.087-0.03-0.161-0.091-0.222c-0.061-0.061-0.135-0.091-0.222-0.091s-0.159,0.029-0.218,0.087l-0.809-0.809
	c0.059-0.058,0.087-0.13,0.087-0.217s-0.028-0.161-0.087-0.222c-0.058-0.061-0.13-0.091-0.217-0.091
	c-0.093,0-0.169,0.029-0.227,0.087l-0.4-0.4c0-0.087-0.03-0.161-0.091-0.222c-0.061-0.061-0.135-0.091-0.222-0.091V8.561
	c0.087,0,0.161-0.031,0.222-0.091c0.061-0.061,0.091-0.135,0.091-0.222c0-0.087-0.03-0.161-0.091-0.222
	c-0.061-0.061-0.135-0.091-0.222-0.091V7.309c0.087,0,0.161-0.03,0.222-0.091s0.091-0.135,0.091-0.222
	c0-0.11-0.036-0.188-0.108-0.235s-0.158-0.069-0.257-0.069c-0.063-0.186-0.177-0.336-0.339-0.452
	C10.82,6.123,10.638,6.065,10.435,6.065z M10.435,7.309c-0.087,0-0.161-0.03-0.222-0.091s-0.091-0.135-0.091-0.222
	c0-0.081,0.031-0.152,0.096-0.213c0.063-0.061,0.136-0.091,0.217-0.091s0.154,0.03,0.218,0.091c0.063,0.061,0.096,0.132,0.096,0.213
	c0,0.087-0.03,0.161-0.092,0.222C10.596,7.278,10.521,7.309,10.435,7.309z M10.435,8.561c-0.087,0-0.161-0.031-0.222-0.091
	c-0.061-0.061-0.091-0.135-0.091-0.222c0-0.087,0.03-0.161,0.091-0.222c0.061-0.061,0.135-0.091,0.222-0.091
	s0.161,0.031,0.222,0.091c0.062,0.061,0.092,0.135,0.092,0.222c0,0.087-0.03,0.161-0.092,0.222
	C10.596,8.53,10.521,8.561,10.435,8.561z M10.435,9.813c-0.087,0-0.161-0.03-0.222-0.091S10.122,9.587,10.122,9.5
	s0.03-0.161,0.091-0.222c0.061-0.061,0.135-0.091,0.222-0.091s0.161,0.03,0.222,0.091c0.062,0.061,0.092,0.135,0.092,0.222
	s-0.03,0.161-0.092,0.222C10.596,9.783,10.521,9.813,10.435,9.813z M12,10.752c0,0.082-0.032,0.154-0.096,0.218
	c-0.063,0.063-0.136,0.095-0.218,0.095c-0.081,0-0.153-0.032-0.217-0.095c-0.063-0.064-0.096-0.136-0.096-0.218
	c0-0.087,0.03-0.161,0.091-0.222c0.062-0.061,0.135-0.091,0.222-0.091s0.161,0.031,0.223,0.091C11.97,10.591,12,10.665,12,10.752z
	 M13.252,12.004c0,0.081-0.031,0.152-0.096,0.213c-0.063,0.061-0.136,0.091-0.217,0.091c-0.087,0-0.161-0.03-0.222-0.091
	c-0.062-0.061-0.092-0.132-0.092-0.213c0-0.087,0.03-0.161,0.092-0.222c0.061-0.061,0.135-0.091,0.222-0.091s0.16,0.03,0.222,0.091
	C13.222,11.843,13.252,11.917,13.252,12.004z"/>
</svg>
