<svg version="1.1" id="master" xmlns="http://www.w3.org/2000/svg" xmlns:xlink="http://www.w3.org/1999/xlink" x="0px" y="0px" width="24px" height="24px" viewBox="0 0 24 24" enable-background="new 0 0 24 24" xml:space="preserve">
<rect fill="none" width="24" height="24"/>
<path d="M5.058,7.117c0,0-1.542,1.475-1.625,3.033v0.292c0.066,1.259,1.016,2,1.016,2c1.525,1.493,5.217,3.368,6.083,3.792c0,0,0.05,0.024,0.083-0.009l0.017-0.034v-0.024v-0.008C8.267,11,5.058,7.117,5.058,7.117z M10.042,17.499c-0.017-0.066-0.083-0.066-0.083-0.066l-6.15,0.217c0.667,1.191,1.792,2.109,2.967,1.834c0.8-0.208,2.633-1.483,3.233-1.917c0.05-0.042,0.034-0.075,0.034-0.075V17.499z M10.108,16.85c-2.7-1.825-7.933-4.617-7.933-4.617C2.05,12.617,2.008,12.983,2,13.316v0.059c0,0.893,0.333,1.518,0.333,1.518C3,16.3,4.284,16.725,4.284,16.725c0.583,0.251,1.167,0.259,1.167,0.259c0.1,0.017,3.666,0,4.616,0c0.042,0,0.066-0.042,0.066-0.042v-0.05C10.133,16.866,10.108,16.85,10.108,16.85z M9.55,4.659c-1.213,0.31-2.082,1.375-2.142,2.625v0.342C7.433,8.125,7.542,8.5,7.542,8.5c0.55,2.417,3.216,6.375,3.792,7.208c0.042,0.042,0.083,0.025,0.083,0.025c0.033-0.015,0.053-0.048,0.05-0.084c0.883-8.833-0.925-11.183-0.925-11.183C10.275,4.484,9.55,4.659,9.55,4.659z M16.466,6.55c0,0-0.407-1.5-2.032-1.9c0,0-0.476-0.117-0.976-0.184c0,0-1.817,2.342-0.933,11.191c0.009,0.059,0.049,0.067,0.049,0.067c0.059,0.024,0.084-0.026,0.084-0.026c0.6-0.857,3.25-4.799,3.792-7.199C16.45,8.5,16.75,7.333,16.466,6.55z M14.033,17.44c0,0-0.058,0-0.075,0.043c0,0-0.008,0.059,0.025,0.083c0.583,0.425,2.375,1.666,3.233,1.917c0,0,0.133,0.041,0.357,0.05h0.117c0.574-0.018,1.584-0.309,2.5-1.884l-6.167-0.209H14.033z M20.558,10.434c0.117-1.717-1.616-3.309-1.616-3.316c0,0-3.208,3.883-5.558,8.999c0,0-0.025,0.066,0.016,0.108l0.034,0.009h0.049c0.884-0.442,4.551-2.308,6.067-3.783C19.55,12.45,20.508,11.675,20.558,10.434z M21.824,12.216c0,0-5.232,2.808-7.933,4.625c0,0-0.041,0.032-0.024,0.091c0,0,0.024,0.051,0.059,0.051c0.967,0,4.633,0,4.725-0.017c0,0,0.475-0.018,1.058-0.242c0,0,1.301-0.417,1.975-1.891C21.683,14.834,22.291,13.625,21.824,12.216z"/>
</svg>
