<svg version="1.1" id="master" xmlns="http://www.w3.org/2000/svg" xmlns:xlink="http://www.w3.org/1999/xlink" x="0px" y="0px" width="24px" height="24px" viewBox="0 0 24 24" enable-background="new 0 0 24 24" xml:space="preserve">
<rect fill="none" width="24" height="24"/>
<path d="M5.455,21.996c0.1-0.386,0.192-0.75,0.286-1.115c0.577-2.261,1.102-4.533,1.517-6.83c0.204-1.125,0.371-2.258,0.527-3.395c0.119-0.857,0.181-1.72,0.166-2.587c-0.009-0.464-0.029-0.93-0.161-1.379c-0.058-0.2-0.145-0.394-0.25-0.572C7.401,5.891,7.18,5.803,6.914,5.812c-0.735,0.021-1.36,0.302-1.893,0.8C4.415,7.178,4.019,7.884,3.726,8.648C3.588,9.011,3.49,9.388,3.375,9.757C3.358,9.812,3.353,9.859,3.279,9.859C2.867,9.854,2.455,9.854,2.042,9.854c-0.011,0-0.02-0.007-0.03-0.008c0-0.161-0.017-0.321,0.002-0.477C2.303,6.992,3.323,4.98,5.071,3.348C5.726,2.736,6.5,2.312,7.385,2.119c1.296-0.281,2.33,0.215,2.945,1.4c0.313,0.6,0.482,1.247,0.592,1.911c0.175,1.072,0.181,2.155,0.146,3.237c-0.011,0.35-0.033,0.7-0.052,1.05c-0.001,0.045,0,0.09,0,0.147c0.048,0.002,0.087,0.006,0.129,0.006c0.754,0,1.508-0.001,2.264,0.004c0.104,0,0.133-0.04,0.15-0.133c0.479-2.594,1.138-5.141,1.991-7.638C15.569,2.042,15.592,2,15.672,2c0.934,0.003,1.866,0.003,2.802,0.003c0.015,0,0.029,0.003,0.059,0.006l-0.161,0.628c-0.63,2.446-1.196,4.904-1.654,7.386c-0.24,1.288-0.444,2.584-0.575,3.887c-0.072,0.729-0.117,1.46-0.094,2.191c0.013,0.441,0.044,0.885,0.183,1.309c0.053,0.167,0.133,0.333,0.228,0.483c0.14,0.216,0.354,0.304,0.616,0.296c0.967-0.028,1.702-0.491,2.288-1.225c0.59-0.733,0.944-1.583,1.195-2.483c0.023-0.083,0.05-0.169,0.063-0.255c0.011-0.068,0.045-0.087,0.108-0.087c0.39,0.002,0.777,0.004,1.166,0c0.086-0.001,0.101,0.036,0.098,0.108c-0.012,0.67-0.131,1.319-0.324,1.956c-0.491,1.606-1.298,3.028-2.493,4.217c-0.678,0.674-1.469,1.172-2.4,1.421c-0.563,0.152-1.129,0.177-1.688-0.023c-0.634-0.225-1.063-0.68-1.383-1.253c-0.335-0.604-0.511-1.26-0.625-1.936c-0.199-1.171-0.199-2.353-0.144-3.534c0.035-0.741,0.105-1.481,0.16-2.222c0.013-0.158,0.014-0.158-0.145-0.158c-0.712,0-1.424,0.002-2.138-0.001c-0.087,0-0.128,0.02-0.142,0.113c-0.225,1.511-0.531,3.006-0.895,4.489C9.4,18.852,8.966,20.37,8.456,21.866C8.419,21.973,8.369,22,8.261,22c-0.887-0.005-1.775-0.003-2.664-0.003L5.455,21.996L5.455,21.996z"/>
</svg>
