<svg version="1.1" id="master" xmlns="http://www.w3.org/2000/svg" xmlns:xlink="http://www.w3.org/1999/xlink" x="0px" y="0px" width="24px" height="24px" viewBox="0 0 24 24" enable-background="new 0 0 24 24" xml:space="preserve">
<rect fill="none" width="24" height="24"/>
<path d="M2,15.453h3.889v0.557H2V15.453z M2,14.385h3.889v0.559H2V14.385z M3.108,13.318h1.669v0.56H3.108V13.318z M3.108,12.254h1.669v0.559H3.108V12.254z M3.108,11.187h1.669v0.559H3.108V11.187z M3.108,10.12h1.669v0.559H3.108V10.12z M2,9.055h3.889v0.558H2V9.055z M2,7.989h3.889v0.558H2V7.989z M6.443,14.943h5.981c0.1-0.172,0.176-0.361,0.222-0.559H6.444L6.443,14.943L6.443,14.943z M11.958,12.254H7.556v0.559h4.869c-0.123-0.211-0.28-0.399-0.465-0.559H11.958z M7.555,11.187v0.559h4.404c0.186-0.157,0.342-0.345,0.466-0.559H7.555z M12.424,9.055H6.443v0.558h6.203C12.596,9.418,12.521,9.23,12.424,9.055z M10.586,7.989H6.443v0.558h5.571C11.625,8.188,11.115,7.988,10.586,7.989z M7.555,10.12h1.667v0.559H7.555V10.12z M10.889,10.679h1.744c0.049-0.178,0.074-0.367,0.074-0.559h-1.818V10.679z M7.555,13.318h1.666v0.56H7.554L7.555,13.318z M10.889,13.318v0.56h1.818c0-0.192-0.025-0.381-0.074-0.56H10.889z M6.443,16.006l4.142,0.006c0.556,0,1.057-0.215,1.431-0.559H6.443V16.006z M13.111,15.453h2.777v0.557h-2.777V15.453z M13.111,14.385h2.777v0.559h-2.777V14.385z M14.221,13.318h1.667v0.56h-1.667V13.318z M14.221,12.254h1.667v0.559h-1.667V12.254z M16.662,9.055h-3.551v0.558h3.742L16.662,9.055z M16.293,7.989h-3.182v0.558h3.373L16.293,7.989z M19.221,15.453H22v0.557h-2.779V15.453z M19.221,14.385H22v0.559h-2.779V14.385z M19.221,13.318h1.667v0.56h-1.667V13.318z M19.221,12.254h1.667v0.559h-1.667V12.254z M19.221,11.746h1.667v-0.559h-3.176l-0.157,0.452l-0.156-0.452h-3.178v0.559h1.667v-0.513l0.177,0.513h2.979l0.177-0.513V11.746z M20.889,10.12H18.08l-0.191,0.559h3V10.12z M18.819,7.989l-0.192,0.558H22V7.989H18.819z M17.555,16.006l0.191-0.553h-0.384L17.555,16.006z M17.187,14.943h0.737l0.197-0.559H16.99L17.187,14.943z M16.813,13.878h1.484l0.196-0.56h-1.878L16.813,13.878z M16.439,12.813h2.232l0.19-0.559h-2.614L16.439,12.813z M14.221,10.679h3.002l-0.193-0.559h-2.809V10.679z M18.258,9.613H22V9.055h-3.552L18.258,9.613z"/>
</svg>
