<svg version="1.1" id="master" xmlns="http://www.w3.org/2000/svg" xmlns:xlink="http://www.w3.org/1999/xlink" x="0px" y="0px"
	 width="24px" height="24px" viewBox="0 0 24 24" enable-background="new 0 0 24 24" xml:space="preserve">
<rect fill="none" width="24" height="24"/>
<path d="M19.57,14.572c0.016,0.044,0.04,0.085,0.071,0.123c-0.278,0.733-0.651,1.407-1.119,2.021
	c-0.469,0.613-1.004,1.148-1.608,1.604c-0.604,0.455-1.267,0.822-1.987,1.101s-1.471,0.449-2.248,0.512
	c0,0.19,0.034,0.37,0.104,0.541c0.07,0.171,0.166,0.317,0.29,0.441c0.123,0.123,0.267,0.221,0.432,0.294
	c0.164,0.072,0.345,0.109,0.54,0.109h1.357c0.189,0,0.351,0.067,0.483,0.203c0.133,0.137,0.199,0.296,0.199,0.479H7.907
	c0-0.184,0.066-0.343,0.199-0.479c0.133-0.136,0.294-0.203,0.483-0.203h1.366c0.19,0,0.367-0.035,0.531-0.104
	c0.165-0.07,0.309-0.166,0.432-0.29c0.124-0.123,0.22-0.27,0.29-0.44c0.069-0.171,0.104-0.354,0.104-0.551
	c-0.664-0.057-1.301-0.188-1.911-0.394c-0.61-0.205-1.183-0.475-1.717-0.807c-0.535-0.332-1.024-0.722-1.471-1.171
	c-0.446-0.449-0.834-0.941-1.167-1.476s-0.601-1.106-0.807-1.717s-0.336-1.248-0.394-1.912h14.278v1.025
	c0,0.139,0.026,0.27,0.08,0.394c0.054,0.123,0.128,0.232,0.223,0.327c0.096,0.095,0.204,0.169,0.328,0.223
	c0.123,0.054,0.254,0.081,0.394,0.081c0.12,0,0.246-0.025,0.379-0.076C19.54,14.48,19.555,14.527,19.57,14.572z M20.173,10.407
	c-0.164,0-0.297,0.036-0.398,0.109c-0.102,0.072-0.194,0.151-0.28,0.237c-0.085,0.085-0.179,0.162-0.279,0.232
	c-0.102,0.069-0.234,0.104-0.398,0.104c-0.165,0-0.298-0.035-0.398-0.104c-0.102-0.07-0.196-0.147-0.285-0.232
	c-0.088-0.086-0.183-0.165-0.284-0.237c-0.102-0.073-0.234-0.109-0.398-0.109s-0.297,0.036-0.398,0.109
	c-0.102,0.072-0.194,0.151-0.28,0.237c-0.085,0.085-0.179,0.162-0.279,0.232c-0.102,0.069-0.237,0.104-0.408,0.104
	c-0.164,0-0.297-0.035-0.398-0.104c-0.102-0.07-0.194-0.147-0.28-0.232c-0.085-0.086-0.179-0.165-0.279-0.237
	c-0.102-0.073-0.234-0.109-0.398-0.109c-0.165,0-0.298,0.036-0.398,0.109c-0.102,0.072-0.196,0.151-0.285,0.237
	c-0.088,0.085-0.185,0.162-0.289,0.232c-0.104,0.069-0.235,0.104-0.394,0.104c-0.164,0-0.297-0.035-0.398-0.104
	c-0.102-0.07-0.196-0.147-0.284-0.232c-0.089-0.086-0.184-0.165-0.285-0.237c-0.101-0.073-0.234-0.109-0.398-0.109
	c-0.164,0-0.297,0.036-0.398,0.109c-0.101,0.072-0.194,0.151-0.28,0.237c-0.085,0.085-0.179,0.162-0.28,0.232
	c-0.101,0.069-0.237,0.104-0.408,0.104c-0.165,0-0.297-0.035-0.398-0.104c-0.102-0.07-0.195-0.147-0.28-0.232
	c-0.085-0.086-0.179-0.165-0.28-0.237c-0.101-0.073-0.234-0.109-0.398-0.109s-0.297,0.036-0.398,0.109
	c-0.101,0.072-0.196,0.151-0.285,0.237c-0.088,0.085-0.183,0.162-0.284,0.232c-0.102,0.069-0.234,0.104-0.398,0.104
	c-0.165,0-0.297-0.035-0.398-0.104c-0.102-0.07-0.196-0.147-0.285-0.232c-0.089-0.086-0.184-0.165-0.285-0.237
	c-0.101-0.073-0.234-0.109-0.398-0.109s-0.297,0.036-0.398,0.109c-0.101,0.072-0.195,0.151-0.28,0.237
	c-0.085,0.085-0.179,0.162-0.28,0.232c-0.101,0.069-0.237,0.104-0.408,0.104c-0.165,0-0.297-0.035-0.398-0.104
	c-0.101-0.07-0.194-0.147-0.28-0.232c-0.085-0.086-0.179-0.165-0.28-0.237c-0.101-0.073-0.234-0.109-0.398-0.109
	c-0.184,0-0.343,0.068-0.479,0.204c-0.136,0.136-0.204,0.296-0.204,0.479c0,0.189,0.066,0.351,0.199,0.483s0.294,0.199,0.484,0.199
	h14.315c0.184,0,0.342,0.068,0.475,0.204s0.199,0.296,0.199,0.479v1.025c0,0.095,0.033,0.175,0.1,0.241s0.147,0.1,0.242,0.1
	c0.151,0,0.248-0.055,0.289-0.166c0.041-0.11,0.062-0.232,0.062-0.365c0-0.057-0.001-0.112-0.005-0.166
	c-0.003-0.054-0.005-0.103-0.005-0.146c0-0.063,0.004-0.125,0.01-0.186c0.007-0.06,0.021-0.115,0.043-0.166s0.057-0.092,0.104-0.123
	c0.047-0.031,0.108-0.048,0.185-0.048c0.082,0,0.148,0.02,0.199,0.058s0.089,0.085,0.114,0.142c0.025,0.058,0.041,0.12,0.047,0.19
	c0.007,0.069,0.01,0.136,0.01,0.199c0,0.146-0.01,0.291-0.028,0.437c-0.02,0.145-0.028,0.29-0.028,0.436
	c0,0.07,0.003,0.14,0.009,0.209c0.007,0.069,0.022,0.133,0.048,0.189c0.025,0.058,0.063,0.104,0.114,0.138
	c0.05,0.035,0.116,0.053,0.199,0.053c0.088,0,0.166-0.035,0.232-0.104s0.1-0.148,0.1-0.237v-3.073c0-0.184-0.066-0.344-0.199-0.479
	S20.356,10.407,20.173,10.407z M20.656,4.08l-2.894,2.893l0.076,0.096c0.342,0.436,0.638,0.902,0.887,1.398
	c0.25,0.497,0.438,1.014,0.564,1.552c-0.019,0.019-0.052,0.049-0.1,0.09c-0.047,0.041-0.095,0.084-0.142,0.128
	c-0.048,0.045-0.094,0.084-0.138,0.119c-0.044,0.034-0.076,0.052-0.095,0.052c-0.025,0-0.076-0.034-0.152-0.104
	c-0.075-0.069-0.174-0.146-0.294-0.232c-0.12-0.085-0.258-0.164-0.412-0.237c-0.155-0.072-0.324-0.108-0.508-0.108
	s-0.353,0.036-0.508,0.108c-0.154,0.073-0.292,0.152-0.412,0.237c-0.12,0.086-0.219,0.163-0.295,0.232
	c-0.075,0.07-0.126,0.104-0.151,0.104s-0.074-0.034-0.147-0.104c-0.072-0.069-0.166-0.146-0.279-0.232
	c-0.114-0.085-0.25-0.164-0.408-0.237c-0.158-0.072-0.332-0.108-0.521-0.108s-0.364,0.036-0.521,0.108
	c-0.158,0.073-0.296,0.152-0.413,0.237c-0.117,0.086-0.212,0.163-0.284,0.232c-0.073,0.07-0.122,0.104-0.147,0.104
	c-0.031,0-0.084-0.034-0.156-0.104c-0.073-0.069-0.166-0.146-0.28-0.232c-0.113-0.085-0.25-0.164-0.408-0.237
	c-0.158-0.072-0.332-0.108-0.521-0.108c-0.183,0-0.353,0.036-0.507,0.108c-0.155,0.073-0.292,0.152-0.413,0.237
	c-0.12,0.086-0.218,0.163-0.294,0.232c-0.076,0.07-0.126,0.104-0.151,0.104c-0.025,0-0.075-0.034-0.147-0.104
	c-0.073-0.069-0.166-0.146-0.28-0.232c-0.114-0.085-0.25-0.164-0.408-0.237C9.636,9.761,9.462,9.725,9.272,9.725
	c-0.189,0-0.364,0.036-0.521,0.108C8.593,9.906,8.455,9.985,8.338,10.07c-0.117,0.086-0.212,0.163-0.285,0.232
	c-0.073,0.07-0.122,0.104-0.147,0.104c-0.025,0-0.076-0.034-0.152-0.104c-0.076-0.069-0.174-0.146-0.294-0.232
	C7.34,9.985,7.203,9.906,7.048,9.833C6.893,9.761,6.724,9.725,6.541,9.725c-0.184,0-0.353,0.036-0.508,0.108
	C5.878,9.906,5.74,9.985,5.62,10.07c-0.12,0.086-0.218,0.163-0.294,0.232c-0.076,0.07-0.126,0.104-0.152,0.104
	c-0.019,0-0.051-0.018-0.095-0.052c-0.044-0.035-0.092-0.074-0.143-0.119c-0.05-0.044-0.098-0.088-0.142-0.133
	C4.75,10.06,4.719,10.031,4.7,10.019c0.107-0.418,0.245-0.824,0.413-1.22C5.28,8.404,5.484,8.026,5.725,7.666l-0.003,0.01
	C6.566,6.338,7.827,5.29,9.32,4.711c0-0.011-0.002-0.022-0.002-0.033c0-0.372,0.071-0.719,0.214-1.042
	c0.142-0.321,0.334-0.604,0.576-0.846c0.241-0.241,0.523-0.434,0.846-0.576C11.276,2.072,11.624,2,11.995,2
	c0.372,0,0.72,0.072,1.042,0.214c0.321,0.143,0.604,0.335,0.846,0.576c0.242,0.242,0.435,0.524,0.576,0.846
	c0.143,0.323,0.214,0.67,0.214,1.042c0,0.012-0.001,0.021-0.001,0.031c0.789,0.306,1.514,0.742,2.146,1.283l2.88-2.88
	c0.133-0.133,0.291-0.199,0.475-0.199s0.345,0.067,0.483,0.204c0.14,0.136,0.209,0.295,0.209,0.479S20.796,3.94,20.656,4.08z
	 M8.589,7.343L8.248,7.002L7.907,7.343l0.341,0.342L8.589,7.343z M8.589,5.977L8.248,5.636L7.907,5.977l0.341,0.342L8.589,5.977z
	 M9.956,5.977L9.614,5.636L9.272,5.977l0.342,0.342L9.956,5.977z M13.361,4.409c0-0.189-0.036-0.366-0.109-0.531
	c-0.072-0.164-0.171-0.309-0.294-0.432s-0.267-0.222-0.432-0.294c-0.164-0.072-0.341-0.109-0.531-0.109
	c-0.189,0-0.367,0.037-0.531,0.109c-0.164,0.072-0.308,0.171-0.432,0.294c-0.123,0.123-0.221,0.268-0.294,0.432
	c-0.073,0.165-0.109,0.342-0.109,0.531c0,0.019,0.001,0.038,0.004,0.057c0.003,0.02,0.005,0.038,0.005,0.058
	c0.443-0.076,0.895-0.114,1.356-0.114c0.228,0,0.456,0.011,0.684,0.033c0.228,0.022,0.452,0.049,0.673,0.081
	C13.358,4.498,13.361,4.46,13.361,4.409z"/>
</svg>
