<svg version="1.1" id="master" xmlns="http://www.w3.org/2000/svg" xmlns:xlink="http://www.w3.org/1999/xlink" x="0px" y="0px" width="24px" height="24px" viewBox="0 0 24 24" enable-background="new 0 0 24 24" xml:space="preserve">
<rect fill="none" width="24" height="24"/>
<path d="M19.57,14.572c0.016,0.044,0.039,0.085,0.07,0.123c-0.277,0.732-0.65,1.406-1.119,2.021c-0.469,0.613-1.004,1.148-1.607,1.604c-0.604,0.455-1.268,0.822-1.987,1.101c-0.72,0.279-1.471,0.449-2.247,0.513c0,0.189,0.033,0.369,0.104,0.541c0.07,0.17,0.166,0.316,0.29,0.44c0.122,0.123,0.267,0.221,0.432,0.294c0.164,0.072,0.345,0.109,0.54,0.109h1.357c0.188,0,0.351,0.066,0.482,0.203c0.133,0.137,0.199,0.295,0.199,0.479H7.907c0-0.184,0.066-0.343,0.199-0.479c0.133-0.137,0.294-0.203,0.483-0.203h1.366c0.19,0,0.367-0.035,0.531-0.104c0.165-0.069,0.309-0.166,0.432-0.29c0.124-0.123,0.22-0.27,0.29-0.439c0.069-0.172,0.104-0.354,0.104-0.551c-0.664-0.058-1.301-0.188-1.911-0.395c-0.61-0.205-1.183-0.475-1.717-0.807C7.149,18.4,6.66,18.01,6.213,17.561c-0.446-0.449-0.834-0.94-1.167-1.476s-0.601-1.106-0.807-1.717c-0.206-0.611-0.336-1.248-0.394-1.912h14.278v1.024c0,0.14,0.025,0.271,0.08,0.395c0.054,0.123,0.128,0.232,0.223,0.327c0.096,0.095,0.204,0.169,0.328,0.223c0.123,0.054,0.254,0.081,0.395,0.081c0.119,0,0.246-0.025,0.379-0.076C19.54,14.48,19.555,14.527,19.57,14.572z M20.173,10.407c-0.164,0-0.297,0.036-0.397,0.109c-0.103,0.072-0.194,0.151-0.28,0.237c-0.085,0.085-0.179,0.162-0.279,0.232c-0.102,0.069-0.233,0.104-0.397,0.104c-0.166,0-0.299-0.035-0.398-0.104c-0.102-0.07-0.195-0.147-0.285-0.232c-0.088-0.086-0.183-0.165-0.283-0.237c-0.103-0.073-0.234-0.109-0.398-0.109s-0.297,0.036-0.398,0.109c-0.102,0.072-0.193,0.151-0.279,0.237c-0.086,0.085-0.18,0.162-0.279,0.232c-0.102,0.069-0.237,0.104-0.408,0.104c-0.164,0-0.297-0.035-0.398-0.104c-0.102-0.07-0.193-0.147-0.279-0.232c-0.085-0.086-0.18-0.165-0.279-0.237c-0.102-0.073-0.234-0.109-0.398-0.109s-0.297,0.036-0.397,0.109c-0.103,0.072-0.196,0.151-0.285,0.237c-0.088,0.085-0.185,0.162-0.289,0.232c-0.104,0.069-0.235,0.104-0.394,0.104c-0.164,0-0.297-0.035-0.398-0.104c-0.102-0.07-0.195-0.147-0.283-0.232c-0.09-0.086-0.185-0.165-0.286-0.237c-0.101-0.073-0.234-0.109-0.398-0.109s-0.297,0.036-0.398,0.109c-0.101,0.072-0.194,0.151-0.28,0.237c-0.085,0.085-0.179,0.162-0.28,0.232c-0.101,0.069-0.237,0.104-0.408,0.104c-0.165,0-0.297-0.035-0.398-0.104c-0.102-0.07-0.195-0.147-0.28-0.232c-0.085-0.086-0.179-0.165-0.28-0.237c-0.101-0.073-0.234-0.109-0.398-0.109c-0.164,0-0.297,0.036-0.398,0.109c-0.101,0.072-0.196,0.151-0.285,0.237c-0.088,0.085-0.183,0.162-0.284,0.232c-0.102,0.069-0.234,0.104-0.398,0.104c-0.165,0-0.297-0.035-0.398-0.104c-0.102-0.07-0.196-0.147-0.285-0.232c-0.089-0.086-0.184-0.165-0.285-0.237c-0.101-0.073-0.234-0.109-0.398-0.109s-0.297,0.036-0.398,0.109c-0.101,0.072-0.195,0.151-0.28,0.237c-0.085,0.085-0.179,0.162-0.28,0.232c-0.101,0.069-0.237,0.104-0.408,0.104c-0.165,0-0.297-0.035-0.398-0.104c-0.101-0.07-0.194-0.147-0.28-0.232c-0.085-0.086-0.179-0.165-0.28-0.237c-0.101-0.073-0.234-0.109-0.398-0.109c-0.184,0-0.343,0.068-0.479,0.204c-0.136,0.136-0.204,0.296-0.204,0.479c0,0.189,0.066,0.351,0.199,0.483c0.133,0.132,0.294,0.199,0.484,0.199h14.315c0.184,0,0.342,0.068,0.475,0.204c0.133,0.136,0.199,0.296,0.199,0.479v1.025c0,0.095,0.033,0.174,0.1,0.24s0.146,0.1,0.242,0.1c0.15,0,0.248-0.055,0.289-0.166c0.041-0.109,0.062-0.231,0.062-0.364c0-0.058-0.001-0.112-0.005-0.166c-0.003-0.054-0.005-0.103-0.005-0.146c0-0.063,0.004-0.125,0.01-0.187c0.007-0.06,0.021-0.115,0.043-0.166s0.058-0.092,0.104-0.123c0.047-0.031,0.107-0.048,0.185-0.048c0.082,0,0.148,0.02,0.199,0.059c0.051,0.037,0.089,0.084,0.114,0.141c0.025,0.059,0.041,0.121,0.047,0.191c0.007,0.068,0.01,0.135,0.01,0.198c0,0.146-0.01,0.291-0.027,0.437c-0.021,0.146-0.029,0.291-0.029,0.437c0,0.069,0.004,0.14,0.01,0.209c0.007,0.069,0.021,0.133,0.048,0.188c0.024,0.059,0.063,0.104,0.114,0.139c0.05,0.035,0.115,0.053,0.199,0.053c0.088,0,0.166-0.035,0.231-0.104c0.066-0.069,0.101-0.148,0.101-0.237v-3.073c0-0.184-0.066-0.344-0.199-0.479C20.525,10.478,20.355,10.407,20.173,10.407z M20.865,3.596c0-0.184-0.069-0.343-0.209-0.479c-0.139-0.137-0.299-0.204-0.483-0.204c-0.184,0-0.342,0.066-0.475,0.199l-2.88,2.88c-0.633-0.541-1.357-0.977-2.146-1.283c0-0.01,0.001-0.019,0.001-0.031c0-0.372-0.071-0.719-0.214-1.042c-0.141-0.322-0.334-0.604-0.576-0.846c-0.242-0.241-0.525-0.433-0.846-0.576C12.715,2.072,12.367,2,11.995,2c-0.371,0-0.719,0.072-1.041,0.214c-0.323,0.142-0.605,0.335-0.846,0.576C9.866,3.032,9.674,3.315,9.532,3.636c-0.143,0.323-0.214,0.67-0.214,1.042c0,0.011,0.002,0.022,0.002,0.033C7.827,5.29,6.566,6.338,5.722,7.676l0.003-0.01C5.484,8.026,5.28,8.404,5.113,8.799C4.945,9.195,4.807,9.601,4.7,10.019c0.019,0.012,0.05,0.041,0.094,0.083c0.044,0.045,0.092,0.089,0.142,0.133c0.051,0.045,0.099,0.084,0.143,0.119c0.044,0.034,0.076,0.052,0.095,0.052c0.026,0,0.076-0.034,0.152-0.104C5.402,10.233,5.5,10.156,5.62,10.07c0.12-0.085,0.258-0.164,0.413-0.237c0.155-0.072,0.324-0.108,0.508-0.108c0.183,0,0.352,0.036,0.507,0.108C7.203,9.906,7.34,9.985,7.46,10.07c0.12,0.086,0.218,0.163,0.294,0.232c0.076,0.07,0.127,0.104,0.152,0.104c0.025,0,0.074-0.034,0.147-0.104c0.073-0.069,0.168-0.146,0.285-0.232c0.117-0.085,0.255-0.164,0.413-0.237c0.157-0.072,0.332-0.108,0.521-0.108c0.19,0,0.364,0.036,0.525,0.11c0.158,0.073,0.294,0.152,0.408,0.237c0.114,0.086,0.207,0.163,0.28,0.232c0.072,0.07,0.122,0.104,0.147,0.104c0.025,0,0.075-0.034,0.151-0.104c0.076-0.069,0.174-0.146,0.294-0.232c0.121-0.085,0.258-0.164,0.413-0.237c0.154-0.072,0.324-0.108,0.507-0.108c0.189,0,0.363,0.036,0.521,0.108c0.158,0.073,0.295,0.152,0.408,0.237c0.114,0.086,0.207,0.163,0.28,0.232c0.071,0.07,0.125,0.104,0.155,0.104c0.025,0,0.074-0.034,0.147-0.104c0.072-0.069,0.167-0.146,0.284-0.232c0.117-0.085,0.255-0.164,0.413-0.237c0.157-0.072,0.332-0.108,0.521-0.108c0.189,0,0.363,0.036,0.521,0.108c0.158,0.073,0.294,0.152,0.408,0.237c0.113,0.086,0.207,0.163,0.279,0.232c0.072,0.07,0.121,0.104,0.146,0.104s0.076-0.034,0.15-0.104c0.076-0.069,0.176-0.146,0.295-0.232c0.121-0.085,0.259-0.164,0.412-0.237c0.156-0.072,0.324-0.108,0.509-0.108c0.184,0,0.353,0.036,0.508,0.108c0.153,0.073,0.292,0.152,0.412,0.237c0.12,0.086,0.219,0.163,0.294,0.232c0.076,0.07,0.127,0.104,0.152,0.104c0.019,0,0.051-0.018,0.095-0.052c0.044-0.035,0.09-0.074,0.138-0.119c0.047-0.044,0.096-0.087,0.143-0.128s0.08-0.071,0.1-0.09c-0.126-0.538-0.314-1.055-0.564-1.552c-0.248-0.496-0.545-0.962-0.887-1.398l-0.076-0.096l2.895-2.893C20.796,3.94,20.865,3.78,20.865,3.596z M8.248,7.685L7.907,7.343l0.341-0.341l0.341,0.341L8.248,7.685z M8.248,6.319L7.907,5.977l0.341-0.341l0.341,0.341L8.248,6.319z M9.614,6.319L9.272,5.977l0.342-0.341l0.342,0.341L9.614,6.319z"/>
</svg>
