<svg version="1.1" id="master" xmlns="http://www.w3.org/2000/svg" xmlns:xlink="http://www.w3.org/1999/xlink" x="0px" y="0px" width="24px" height="24px" viewBox="0 0 24 24" enable-background="new 0 0 24 24" xml:space="preserve">
<rect fill="none" width="24" height="24"/>
<path d="M19.997,2.02c-1.103,0.001-1.995,0.896-1.995,1.999c0.002,0.951,0.672,1.769,1.604,1.956c1.081,0.219,2.135-0.479,2.354-1.56c0.22-1.081-0.479-2.135-1.56-2.354C20.268,2.034,20.133,2.021,19.997,2.02L19.997,2.02z M12.014,4.015c-4.408,0-7.984,3.575-7.984,7.984c0,1.784,0.585,3.433,1.575,4.763l2.154-2.154c-1.44-2.35-0.703-5.422,1.647-6.862c1.6-0.98,3.613-0.98,5.214,0l2.154-2.154C15.398,4.565,13.729,4.013,12.014,4.015z M18.421,7.236l-2.153,2.155c1.441,2.348,0.705,5.421-1.643,6.862c-1.601,0.982-3.618,0.982-5.219,0l-2.154,2.152c1.375,1.025,3.046,1.579,4.762,1.577c4.409,0,7.982-3.573,7.982-7.983C19.996,10.215,19.41,8.568,18.421,7.236L18.421,7.236z M3.996,17.986c-1.103,0-1.997,0.896-1.996,1.999c0.001,0.951,0.672,1.77,1.604,1.956c1.084,0.215,2.137-0.49,2.351-1.574c0.051-0.257,0.051-0.521,0-0.777C5.767,18.657,4.947,17.986,3.996,17.986L3.996,17.986z"/>
</svg>
