<svg version="1.1" id="master" xmlns="http://www.w3.org/2000/svg" xmlns:xlink="http://www.w3.org/1999/xlink" x="0px" y="0px"
	 width="24px" height="24px" viewBox="0 0 24 24" enable-background="new 0 0 24 24" xml:space="preserve">
<rect fill="none" width="24" height="24"/>
<path d="M14.788,12.421l1.975,2.609c0.165,0.219,0.176,0.575,0.021,0.801l-0.099,0.148c-0.151,0.225-0.459,0.537-0.679,0.691
	l-0.238,0.168c-0.221,0.163-0.58,0.163-0.796-0.013l-2.612-1.975c-0.213-0.163-0.568-0.163-0.783,0l-2.614,1.975
	c-0.215,0.176-0.574,0.176-0.796,0.024l-0.173-0.112c-0.225-0.15-0.534-0.463-0.687-0.675L7.155,15.85
	C7,15.625,7.005,15.276,7.17,15.05l1.981-2.624c0.163-0.213,0.163-0.563,0-0.788L7.164,9.025C7.002,8.806,6.995,8.45,7.153,8.228
	L7.32,7.99c0.156-0.22,0.467-0.524,0.69-0.679l0.146-0.099c0.225-0.163,0.585-0.151,0.801,0.012l2.612,1.975
	c0.217,0.163,0.57,0.163,0.785,0l2.613-1.988c0.215-0.162,0.581-0.188,0.815-0.051l0.275,0.163C16.29,7.461,16.59,7.76,16.72,7.999
	l0.101,0.175c0.128,0.237,0.103,0.601-0.063,0.825l-1.976,2.613c-0.162,0.212-0.162,0.563,0,0.788L14.788,12.421z M12,2
	C6.475,2,2,6.478,2,12s4.475,10,10,10c5.522,0,10-4.478,10-10S17.522,2,12,2z"/>
</svg>
