<svg version="1.1" id="master" xmlns="http://www.w3.org/2000/svg" xmlns:xlink="http://www.w3.org/1999/xlink" x="0px" y="0px"
	 width="24px" height="24px" viewBox="0 0 24 24" enable-background="new 0 0 24 24" xml:space="preserve">
<rect fill="none" width="24" height="24"/>
<path d="M20.125,4.5H3.875C2.839,4.5,2,5.339,2,6.375v11.25C2,18.66,2.839,19.5,3.875,19.5h16.25C21.16,19.5,22,18.66,22,17.625
	V6.375C22,5.339,21.16,4.5,20.125,4.5z M6.444,7.487c0.959,0,1.737,0.777,1.737,1.735s-0.778,1.737-1.737,1.737
	c-0.958,0-1.736-0.775-1.736-1.736C4.708,8.264,5.486,7.487,6.444,7.487z M18.944,16.167H5.056v-2.084l1.715-1.714
	c0.204-0.204,0.533-0.204,0.737,0l1.714,1.714l5.187-5.187c0.204-0.203,0.533-0.203,0.737,0l3.798,3.798V16.167z"/>
</svg>
