<svg version="1.1" id="master" xmlns="http://www.w3.org/2000/svg" xmlns:xlink="http://www.w3.org/1999/xlink" x="0px" y="0px"
	 width="24px" height="24px" viewBox="0 0 24 24" enable-background="new 0 0 24 24" xml:space="preserve">
<rect fill="none" width="24" height="24"/>
<path d="M13.926,9.99v0.004c-0.065-0.04-0.189-0.059-0.351-0.059v4.013c0.225,0,0.366-0.051,0.417-0.138s0.078-0.338,0.078-0.737
	v-2.388c0-0.275-0.003-0.45-0.027-0.525C14.024,10.08,13.987,10.024,13.926,9.99L13.926,9.99z M20.68,2H3.35
	C2.619,2.05,2.05,2.62,2,3.33v17.32c0.05,0.728,0.593,1.284,1.296,1.348C3.308,22,3.321,22,3.333,22h17.371
	c0.733-0.073,1.292-0.688,1.296-1.425V3.425C22,2.683,21.421,2.058,20.68,2z M5.993,15.021H4.406V8.883h1.587V15.021z M11.443,15.02
	h-1.385v-4.142L9.5,15.02H8.51l-0.581-4.05l-0.006,4.05H6.533V8.883H8.59c0.069,0.436,0.133,0.874,0.191,1.312l0.225,1.559
	l0.368-2.87h2.069L11.443,15.02L11.443,15.02z M15.591,13.203c0,0.547-0.036,0.912-0.087,1.1c-0.052,0.185-0.142,0.334-0.271,0.434
	c-0.125,0.108-0.283,0.182-0.476,0.222c-0.186,0.038-0.474,0.063-0.85,0.063l-0.003-0.001h-1.921V8.883h1.188
	c0.762,0,1.208,0.04,1.475,0.107c0.271,0.075,0.479,0.187,0.621,0.35c0.138,0.15,0.227,0.337,0.261,0.538
	c0.042,0.196,0.063,0.588,0.063,1.168L15.591,13.203L15.591,13.203z M19.711,13.6c0,0.375-0.037,0.637-0.075,0.824
	c-0.05,0.187-0.163,0.337-0.338,0.474c-0.188,0.138-0.4,0.2-0.649,0.2c-0.184,0-0.416-0.05-0.566-0.113
	c-0.159-0.079-0.299-0.198-0.43-0.355l-0.097,0.391h-1.431V8.883l-0.017-0.002h1.5v2c0.125-0.146,0.263-0.258,0.425-0.333
	c0.163-0.069,0.389-0.106,0.575-0.106c0.188-0.002,0.375,0.03,0.55,0.096c0.142,0.058,0.267,0.154,0.363,0.275
	c0.075,0.104,0.125,0.225,0.15,0.35c0.025,0.115,0.036,0.358,0.036,0.725V13.6H19.711z M17.9,11.337c-0.101,0-0.162,0.034-0.188,0.1
	s-0.051,0.242-0.051,0.52v1.622c0,0.27,0.025,0.444,0.051,0.519c0.032,0.072,0.107,0.117,0.188,0.112
	c0.101,0,0.228-0.039,0.25-0.117c0.025-0.08,0.039-0.267,0.039-0.562l0.024-0.001v-1.575c0-0.252-0.013-0.423-0.05-0.503
	c-0.036-0.083-0.162-0.116-0.263-0.116L17.9,11.337z"/>
</svg>
