<svg version="1.1" id="master" xmlns="http://www.w3.org/2000/svg" xmlns:xlink="http://www.w3.org/1999/xlink" x="0px" y="0px"
	 width="24px" height="24px" viewBox="0 0 24 24" enable-background="new 0 0 24 24" xml:space="preserve">
<rect fill="none" width="24" height="24"/>
<path d="M19.385,4.789c-0.002-0.103-0.063-0.167-0.172-0.175c-0.156-0.016-0.313-0.03-0.469-0.041l-0.148-0.009
	c-0.332-0.022-0.664-0.036-0.994-0.042l-0.199-0.004c-0.158-0.003-0.32-0.003-0.488-0.003l-0.172-0.001
	c-0.271,0-0.553,0.002-0.844,0.009l-0.098,0.003c-0.266,0.006-0.529,0.014-0.797,0.023l-0.217,0.009
	c-0.307,0.012-0.619,0.026-0.941,0.045l-0.012,0c-0.328,0.02-0.662,0.042-1.004,0.065l-0.252,0.019
	c-0.279,0.021-0.558,0.044-0.842,0.07l-0.229,0.02c-0.348,0.032-0.702,0.067-1.06,0.105c-0.073,0.008-0.147,0.018-0.222,0.025
	C9.932,4.938,9.637,4.973,9.34,5.009L9.038,5.048c-0.37,0.047-0.739,0.096-1.111,0.15C7.878,5.205,7.83,5.219,7.786,5.239
	c-0.034,0.017-0.064,0.04-0.089,0.068L7.694,5.309c-0.042,0.05-0.043,0.11,0.003,0.165C7.7,5.477,7.7,5.48,7.702,5.484l3.197,3.167
	l-6.076,6.046c-0.063,0.062-0.063,0.151,0,0.231c0.785,1.001,1.32,1.644,1.964,2.283c0.641,0.645,1.281,1.18,2.285,1.964
	c0.034,0.03,0.077,0.045,0.121,0.047c0.041,0,0.081-0.017,0.109-0.047l6.047-6.075l3.168,3.196c0.023,0.026,0.057,0.042,0.092,0.043
	c0.088,0,0.172-0.107,0.195-0.268C19.488,11.361,19.613,6.86,19.385,4.789z M14.547,24l5.828-5.826l0.023-0.025l0.143-0.142
	l-0.006-0.005c0.408-0.434,0.67-0.981,0.754-1.568c0.736-5.07,0.828-9.709,0.6-11.873c-0.051-0.627-0.322-1.215-0.764-1.662
	c-0.447-0.447-1.037-0.724-1.666-0.784C18.754,2.039,17.854,2,16.791,2c-2.748,0-6.11,0.26-9.224,0.712
	c-0.665,0.092-1.277,0.414-1.73,0.908L0,9.459V24H14.547z M15.949,17.852c-0.139,0-0.518,0.371-0.518,0.563
	c0,0.05-0.039,0.09-0.09,0.092c-0.051-0.002-0.09-0.042-0.09-0.092c0-0.191-0.377-0.563-0.518-0.563
	c-0.051,0-0.092-0.041-0.092-0.091c0-0.049,0.041-0.09,0.092-0.09c0.141,0,0.518-0.371,0.518-0.563c0-0.05,0.039-0.09,0.09-0.09
	c0.049,0,0.09,0.04,0.09,0.09c0,0.192,0.379,0.563,0.518,0.563c0.049,0.006,0.084,0.054,0.078,0.103
	C16.02,17.814,15.988,17.847,15.949,17.852z M4.95,8.458c0.18,0,0.674-0.484,0.674-0.734c0-0.064,0.053-0.117,0.117-0.118
	c0.065,0,0.117,0.053,0.117,0.118c0,0.25,0.494,0.734,0.674,0.734c0.065,0,0.117,0.053,0.117,0.118S6.597,8.692,6.532,8.692l0,0
	c-0.18,0-0.674,0.484-0.674,0.734c0,0.065-0.052,0.118-0.117,0.118S5.624,9.492,5.624,9.427c0-0.25-0.494-0.734-0.674-0.734
	c-0.064,0-0.117-0.053-0.117-0.117C4.833,8.51,4.886,8.458,4.95,8.458z M1.293,11.446c0-0.06,0.052-0.09,0.109-0.108
	c0.632-0.209,1.163-0.734,1.286-1.425c0.01-0.059,0.049-0.108,0.108-0.108c0.061,0,0.098,0.049,0.109,0.108
	c0.122,0.691,0.651,1.216,1.284,1.425c0.057,0.018,0.108,0.048,0.108,0.108s-0.051,0.089-0.108,0.109
	c-0.633,0.208-1.163,0.732-1.286,1.423c-0.01,0.059-0.048,0.109-0.109,0.109c-0.06,0-0.097-0.049-0.108-0.109
	c-0.123-0.691-0.653-1.215-1.286-1.423C1.344,11.535,1.293,11.506,1.293,11.446z M2.727,19.979c-0.103,0-0.385,0.276-0.385,0.42
	c0,0.037-0.031,0.067-0.068,0.067c-0.037,0-0.067-0.03-0.068-0.067c0-0.144-0.281-0.42-0.385-0.42c-0.037,0-0.067-0.03-0.067-0.067
	c0-0.036,0.031-0.067,0.067-0.067c0.104,0,0.385-0.276,0.385-0.419c0-0.038,0.03-0.067,0.068-0.067c0.037,0,0.068,0.029,0.068,0.067
	c0,0.143,0.282,0.419,0.385,0.419c0.037,0,0.067,0.031,0.067,0.067C2.794,19.948,2.764,19.979,2.727,19.979z M3.248,17.186
	c-0.128,0-0.478,0.344-0.478,0.52c0.005,0.047-0.029,0.088-0.075,0.093s-0.088-0.028-0.093-0.075c0-0.006,0-0.011,0-0.018
	c0-0.176-0.349-0.52-0.478-0.52c-0.046,0-0.083-0.037-0.083-0.082c0-0.001,0-0.001,0-0.002c0-0.047,0.038-0.084,0.083-0.084
	c0.128,0,0.478-0.344,0.478-0.52c0-0.047,0.037-0.084,0.083-0.084c0,0,0.001,0,0.001,0c0.046,0,0.083,0.036,0.084,0.081
	c0,0.001,0,0.001,0,0.003c0,0.176,0.349,0.52,0.478,0.52c0.046,0,0.083,0.037,0.083,0.084C3.331,17.147,3.293,17.186,3.248,17.186z
	 M6.304,21.201c-0.186,0-0.695,0.5-0.695,0.758c0,0.067-0.055,0.122-0.121,0.122c-0.067,0-0.122-0.055-0.122-0.122
	c0-0.258-0.508-0.758-0.695-0.758C4.604,21.2,4.55,21.146,4.549,21.08c0-0.067,0.054-0.122,0.122-0.122
	c0.187,0,0.695-0.499,0.695-0.759c0-0.064,0.055-0.12,0.122-0.12c0.067,0,0.121,0.056,0.121,0.12c0,0.26,0.509,0.759,0.695,0.759
	c0.067,0,0.122,0.055,0.122,0.122C6.426,21.146,6.371,21.201,6.304,21.201L6.304,21.201z M8.066,20.463
	c-0.995-0.78-1.713-1.374-2.432-2.096c-0.723-0.72-1.316-1.437-2.096-2.435c-0.574-0.732-0.519-1.738,0.132-2.389l0.001-0.001
	l0.001-0.001l4.911-4.887l-2.03-2.011L6.551,6.641L6.549,6.639C6.072,6.162,5.907,5.474,6.116,4.843
	c0.136-0.41,0.425-0.735,0.795-0.961c0.107-0.07,0.221-0.128,0.34-0.174c0.138-0.057,0.282-0.097,0.429-0.12
	c0.004,0,0.008-0.003,0.013-0.004c3.075-0.447,6.389-0.704,9.098-0.704h0.002c1.031,0,1.898,0.038,2.584,0.111
	c0.43,0.042,0.826,0.229,1.125,0.528c0.301,0.303,0.48,0.703,0.516,1.134c0.221,2.118,0.131,6.649-0.598,11.655
	c-0.002,0.01-0.006,0.014-0.006,0.022c-0.029,0.186-0.086,0.367-0.166,0.537c-0.004,0.013-0.008,0.025-0.018,0.039
	c-0.305,0.64-0.916,1.065-1.621,1.065c-0.469,0-0.91-0.183-1.246-0.521l-0.002-0.001l-0.004-0.003l-2.01-2.03l-4.889,4.911l0,0.002
	h-0.001c-0.334,0.338-0.789,0.526-1.263,0.525C8.791,20.855,8.39,20.717,8.066,20.463L8.066,20.463z M10.427,22.378
	c-0.127,0-0.475,0.343-0.475,0.52c0,0.046-0.037,0.082-0.082,0.082c0,0,0,0-0.001,0c-0.046,0-0.083-0.036-0.083-0.082l0,0
	c0-0.177-0.347-0.52-0.476-0.52c-0.046,0-0.083-0.036-0.083-0.082c0-0.045,0.037-0.082,0.083-0.082h0
	c0.127,0,0.476-0.343,0.476-0.52c0-0.045,0.037-0.082,0.083-0.082l0,0c0.045,0,0.083,0.037,0.083,0.082
	c0,0.177,0.348,0.52,0.475,0.52c0.046,0,0.084,0.035,0.084,0.082S10.474,22.378,10.427,22.378L10.427,22.378z M12.366,20.145
	c0.228,0,0.845-0.606,0.845-0.92c0-0.08,0.066-0.146,0.148-0.146c0.08,0,0.146,0.066,0.146,0.146c0,0.313,0.619,0.92,0.846,0.92
	c0.082,0,0.146,0.066,0.146,0.147c0.002,0.081-0.064,0.147-0.146,0.148l0,0c-0.227,0-0.846,0.605-0.846,0.92
	c0,0.083-0.066,0.148-0.146,0.149c-0.082-0.001-0.148-0.066-0.148-0.149c0-0.314-0.617-0.92-0.845-0.92
	c-0.081,0-0.148-0.067-0.148-0.148C12.217,20.21,12.285,20.145,12.366,20.145L12.366,20.145z"/>
</svg>
