<svg version="1.1" id="master" xmlns="http://www.w3.org/2000/svg" xmlns:xlink="http://www.w3.org/1999/xlink" x="0px" y="0px"
	 width="24px" height="24px" viewBox="0 0 24 24" enable-background="new 0 0 24 24" xml:space="preserve">
<rect fill="none" width="24" height="24"/>
<path d="M21,7v2h-6v3.171L9.829,7H21z M12,6c1.1,0,2-0.9,2-2s-0.9-2-2-2c-1.1,0-2,0.9-2,2S10.9,6,12,6z M7,7L7,7L3.414,3.414
	L2,4.828L4.172,7H3v2h3.172L9,11.828V22h2v-6h2v6h2v-4.172L19.172,22l1.414-1.414L10.128,10.128L7,7z"/>
</svg>
