<svg version="1.1" id="master" xmlns="http://www.w3.org/2000/svg" xmlns:xlink="http://www.w3.org/1999/xlink" x="0px" y="0px" width="24px" height="24px" viewBox="0 0 24 24" enable-background="new 0 0 24 24" xml:space="preserve">
<rect fill="none" width="24" height="24"/>
<path d="M15.024,10.016c1.184,1.19,2.149,3.138,1.597,4.293c-1.481,3.096-12.533,8.521-13.474,7.583C2.21,20.955,7.64,9.897,10.734,8.414c1.157-0.55,3.104,0.425,4.293,1.6l-0.004,0.012L15.024,10.016L15.024,10.016z M20.881,8.711c-0.192-0.712-0.685-1.431-1.417-1.517c-1.341-0.155-3.458,2.219-3.309,2.782c0.15,0.575,3.138,1.563,4.25,0.763c0.576-0.412,0.65-1.3,0.464-2.012L20.881,8.711L20.881,8.711z M16.722,2.132c0.998,0.27,2.006,0.957,2.126,1.985c0.218,1.882-3.11,4.849-3.9,4.637c-0.79-0.209-2.182-4.403-1.058-5.968c0.579-0.81,1.834-0.922,2.833-0.657L16.722,2.132L16.722,2.132z"/>
</svg>
