<svg version="1.1" id="master" xmlns="http://www.w3.org/2000/svg" xmlns:xlink="http://www.w3.org/1999/xlink" x="0px" y="0px"
	 width="24px" height="24px" viewBox="0 0 24 24" enable-background="new 0 0 24 24" xml:space="preserve">
<rect fill="none" width="24" height="24"/>
<path d="M12,8.667c1.841,0,3.333,1.492,3.333,3.333S13.841,15.333,12,15.333S8.667,13.841,8.667,12S10.159,8.667,12,8.667z
	 M21.939,7.878c-0.049-1.064-0.219-1.792-0.465-2.428c-0.254-0.658-0.6-1.216-1.152-1.771c-0.557-0.556-1.113-0.899-1.772-1.154
	c-0.637-0.248-1.362-0.416-2.427-0.465C15.057,2.01,14.717,2,12,2C9.284,2,8.944,2.013,7.878,2.06
	C6.813,2.11,6.087,2.277,5.45,2.525C4.792,2.78,4.234,3.123,3.679,3.679c-0.556,0.555-0.9,1.113-1.154,1.771
	C2.277,6.087,2.109,6.813,2.06,7.878C2.01,8.944,2,9.284,2,12c0,2.717,0.013,3.057,0.06,4.123c0.05,1.064,0.218,1.79,0.465,2.427
	c0.255,0.657,0.598,1.216,1.154,1.772c0.556,0.555,1.113,0.898,1.771,1.152c0.638,0.246,1.363,0.416,2.428,0.465
	C8.944,21.99,9.284,22,12,22c2.717,0,3.057-0.014,4.123-0.061c1.064-0.049,1.79-0.219,2.427-0.465
	c0.657-0.254,1.216-0.6,1.772-1.152c0.555-0.557,0.898-1.113,1.152-1.772c0.246-0.637,0.416-1.362,0.465-2.427
	C21.99,15.057,22,14.717,22,12C22,9.284,21.986,8.944,21.939,7.878z M12,17.135c-2.835,0-5.135-2.298-5.135-5.135
	c0-2.835,2.298-5.135,5.135-5.135c2.835,0,5.135,2.298,5.135,5.135C17.135,14.835,14.837,17.135,12,17.135z M17.339,7.863
	c-0.663,0-1.2-0.539-1.2-1.2c0-0.662,0.537-1.199,1.2-1.199c0.66-0.002,1.199,0.536,1.199,1.199S18,7.863,17.339,7.863z"/>
</svg>
