<svg version="1.1" id="master" xmlns="http://www.w3.org/2000/svg" xmlns:xlink="http://www.w3.org/1999/xlink" x="0px" y="0px"
	 width="24px" height="24px" viewBox="0 0 24 24" enable-background="new 0 0 24 24" xml:space="preserve">
<rect fill="none" width="24" height="24"/>
<path d="M19.5,2h-15C3.119,2,2,3.119,2,4.5v15C2,20.882,3.119,22,4.5,22h15c1.382,0,2.5-1.118,2.5-2.5v-15C22,3.119,20.882,2,19.5,2
	z M14.666,5.666c0-0.367,0.3-0.667,0.668-0.667c0.367,0,0.667,0.3,0.667,0.667v8.906c0,0.369-0.3,0.668-0.667,0.668
	c-0.368,0-0.668-0.299-0.668-0.668V5.666z M11.333,5.329c0-0.367,0.297-0.667,0.667-0.667s0.666,0.3,0.666,0.667v9.667
	c0,0.367-0.297,0.668-0.666,0.668s-0.667-0.301-0.667-0.668V5.329z M8,5.666c0-0.367,0.299-0.667,0.666-0.667
	c0.369,0,0.668,0.3,0.668,0.667v8.906c0,0.369-0.3,0.668-0.668,0.668C8.299,15.24,8,14.941,8,14.572V5.666z M4.666,7
	c0-0.368,0.3-0.667,0.668-0.667C5.701,6.333,6,6.632,6,7v5.996c0,0.367-0.299,0.666-0.666,0.666c-0.369,0-0.668-0.3-0.668-0.666V7z
	 M19.1,17.168c-0.103,0.088-2.571,2.161-7.1,2.161c-4.527,0-6.998-2.072-7.101-2.161c-0.279-0.239-0.313-0.659-0.072-0.939
	c0.238-0.278,0.658-0.313,0.938-0.075c0.039,0.034,2.244,1.843,6.234,1.843c4.041,0,6.214-1.822,6.233-1.839
	c0.278-0.241,0.698-0.209,0.938,0.071C19.412,16.509,19.38,16.929,19.1,17.168z M19.334,12.996c0,0.367-0.3,0.666-0.667,0.666
	c-0.368,0-0.668-0.3-0.668-0.666V7c0-0.368,0.302-0.667,0.668-0.667c0.367,0,0.667,0.297,0.667,0.667V12.996z"/>
</svg>
