<svg version="1.1" id="master" xmlns="http://www.w3.org/2000/svg" xmlns:xlink="http://www.w3.org/1999/xlink" x="0px" y="0px" width="24px" height="24px" viewBox="0 0 24 24" enable-background="new 0 0 24 24" xml:space="preserve" fill="#F7DF1E">
<path d="M2,2l5.773,10L2,22h20V2H2z M12.542,19.177c-0.294,0.6-0.857,0.987-1.51,1.176c-1.002,0.225-1.96,0.087-2.672-0.338c-0.479-0.287-0.849-0.739-1.104-1.264l1.521-0.938c0.014,0,0.053,0.075,0.106,0.163c0.194,0.324,0.361,0.549,0.691,0.713c0.322,0.101,1.03,0.174,1.305-0.4c0.167-0.29,0.115-1.232,0.115-2.259c0-1.618,0.008-3.223,0.008-4.838h1.874l-0.004,0.047c0,1.725,0.011,3.438,0,5.149C12.877,17.452,12.967,18.401,12.542,19.177z M20.262,18.549c-0.651,2.226-4.275,2.301-5.726,0.837c-0.3-0.35-0.5-0.524-0.676-0.924l1.525-0.876c0.413,0.625,0.787,0.963,1.463,1.113c0.913,0.112,1.839-0.2,1.639-1.175c-0.213-0.801-1.876-0.987-3.014-1.838c-1.149-0.774-1.424-2.649-0.474-3.726c0.324-0.4,0.861-0.7,1.425-0.837l0.587-0.075c1.138-0.025,1.837,0.275,2.362,0.862c0.151,0.148,0.263,0.3,0.488,0.649c-0.602,0.374-0.602,0.374-1.463,0.938c-0.188-0.399-0.488-0.649-0.813-0.75c-0.5-0.149-1.138,0.013-1.262,0.551c-0.05,0.162-0.037,0.313,0.038,0.587c0.203,0.463,0.884,0.663,1.497,0.95c1.763,0.715,2.357,1.481,2.503,2.394l-0.038-0.056C20.462,17.962,20.286,18.475,20.262,18.549z"/>
</svg>
