<svg version="1.1" id="master" xmlns="http://www.w3.org/2000/svg" xmlns:xlink="http://www.w3.org/1999/xlink" x="0px" y="0px" width="24px" height="24px" viewBox="0 0 24 24" enable-background="new 0 0 24 24" xml:space="preserve">
<rect fill="none" width="24" height="24"/>
<path d="M13.422,10.568v2.263c0.246,0.04,0.533,0.11,0.86,0.21s0.639,0.234,0.936,0.4c0.298,0.167,0.55,0.367,0.756,0.601c0.207,0.233,0.311,0.504,0.311,0.812c0,0.166-0.031,0.32-0.095,0.46s-0.148,0.269-0.256,0.386c-0.106,0.116-0.225,0.223-0.355,0.32c-0.13,0.096-0.258,0.185-0.385,0.265c-0.228,0.134-0.473,0.245-0.736,0.335c-0.263,0.09-0.533,0.164-0.811,0.221c-0.276,0.057-0.556,0.097-0.836,0.12S12.26,16.995,12,16.995s-0.532-0.012-0.816-0.035s-0.564-0.063-0.841-0.12s-0.547-0.131-0.811-0.221c-0.264-0.09-0.509-0.201-0.736-0.335c-0.134-0.073-0.264-0.158-0.391-0.255c-0.126-0.098-0.242-0.205-0.345-0.326c-0.104-0.119-0.187-0.25-0.25-0.39c-0.063-0.14-0.095-0.294-0.095-0.46c0-0.308,0.102-0.578,0.305-0.812s0.454-0.434,0.751-0.601c0.297-0.166,0.609-0.301,0.936-0.4c0.327-0.1,0.614-0.17,0.861-0.21v-2.263L2,14.854c1.675,0.84,3.342,1.676,5,2.507s3.325,1.663,5,2.497c1.675-0.84,3.342-1.676,5-2.507s3.325-1.663,5-2.497L13.422,10.568z M6.995,14.854c0,0.14-0.055,0.254-0.166,0.345c-0.11,0.09-0.24,0.163-0.39,0.22c-0.15,0.057-0.305,0.096-0.465,0.115c-0.16,0.021-0.294,0.03-0.4,0.03c-0.1,0-0.232-0.01-0.396-0.03c-0.164-0.02-0.322-0.059-0.476-0.115s-0.285-0.13-0.396-0.22c-0.11-0.091-0.165-0.205-0.165-0.345v-0.711c0-0.141,0.055-0.258,0.165-0.351c0.11-0.094,0.242-0.167,0.396-0.22c0.153-0.055,0.311-0.092,0.471-0.115s0.293-0.035,0.4-0.035c0.106,0,0.24,0.012,0.4,0.035s0.315,0.061,0.465,0.115c0.15,0.053,0.28,0.126,0.39,0.22c0.11,0.093,0.166,0.21,0.166,0.351V14.854z M12,4.142c-0.394,0-0.764,0.075-1.111,0.225c-0.347,0.15-0.65,0.354-0.911,0.611S9.513,5.537,9.362,5.884c-0.15,0.347-0.225,0.717-0.225,1.111c0,0.394,0.075,0.764,0.225,1.111c0.15,0.347,0.355,0.651,0.616,0.911s0.564,0.465,0.911,0.616c0.347,0.15,0.718,0.225,1.111,0.225s0.764-0.075,1.111-0.225c0.347-0.15,0.648-0.355,0.905-0.616c0.258-0.26,0.461-0.564,0.611-0.911c0.149-0.347,0.225-0.717,0.225-1.111c0-0.394-0.075-0.764-0.225-1.111c-0.15-0.347-0.354-0.649-0.611-0.906c-0.257-0.257-0.559-0.46-0.905-0.611C12.764,4.217,12.394,4.142,12,4.142z M12.711,10.499c-0.228,0.047-0.467,0.07-0.721,0.07c-0.121,0-0.241-0.005-0.361-0.015c-0.12-0.01-0.237-0.028-0.35-0.055v4.355c0,0.072,0.028,0.131,0.085,0.174c0.057,0.044,0.124,0.08,0.2,0.111c0.077,0.029,0.155,0.049,0.235,0.06c0.08,0.01,0.147,0.015,0.2,0.015s0.12-0.005,0.2-0.015c0.08-0.011,0.159-0.03,0.235-0.06c0.076-0.031,0.142-0.067,0.195-0.111c0.053-0.043,0.08-0.102,0.08-0.174V10.499z"/>
</svg>
