<svg version="1.1" id="master" xmlns="http://www.w3.org/2000/svg" xmlns:xlink="http://www.w3.org/1999/xlink" x="0px" y="0px" width="24px" height="24px" viewBox="0 0 24 24" enable-background="new 0 0 24 24" xml:space="preserve">
<rect fill="none" width="24" height="24"/>
<path d="M19.563,11.376c0.009-0.118,0.019-0.231,0.019-0.349c0-3.235-2.661-5.859-5.946-5.859C11.354,5.16,9.27,6.458,8.269,8.509C7.79,8.141,7.202,7.941,6.596,7.941c-1.517,0-2.745,1.208-2.745,2.7c0,0.282,0.044,0.552,0.125,0.806C2.757,12.151,2.003,13.449,2,14.857c0,2.168,1.77,3.931,3.965,3.962H17.84c0.075,0,0.15,0.013,0.225,0.013c2.175,0,3.936-1.735,3.936-3.885c-0.01-1.572-0.967-2.982-2.425-3.571H19.563z M7.366,15.834c-0.399-0.361-0.649-0.799-0.748-1.316c-0.034-0.179-0.051-0.361-0.051-0.543c0-0.737,0.269-1.344,0.806-1.823c0.537-0.48,1.218-0.72,2.045-0.72c0.85,0,1.649,0.319,2.359,0.955c0.175,0.157,0.348,0.337,0.512,0.534l0.909,1.069c0.156,0.217,0.324,0.4,0.5,0.56c0.469,0.42,0.975,0.63,1.404,0.63c0.365,0,0.668-0.112,0.912-0.335c0.206-0.19,0.335-0.449,0.361-0.729l0.007-0.123c0.002-0.117-0.018-0.234-0.053-0.347c-0.189-0.516-0.687-0.853-1.237-0.833c-0.452,0-0.901,0.151-1.393,0.628l-0.806-0.949l-0.088-0.107c0.713-0.691,1.412-0.949,2.361-0.949c0.837,0,1.523,0.237,2.034,0.711l0.013,0.013c0.539,0.474,0.8,1.088,0.8,1.839c0,0.176-0.014,0.363-0.049,0.526c-0.102,0.511-0.351,0.936-0.737,1.299c-0.398,0.362-0.893,0.597-1.424,0.675c-0.188,0.024-0.375,0.038-0.588,0.038c-0.861,0-1.673-0.313-2.36-0.938c-0.195-0.176-0.374-0.369-0.538-0.574l-0.911-1.062c-0.143-0.203-0.305-0.394-0.487-0.562c-0.463-0.426-0.975-0.625-1.424-0.625c-0.13,0-0.261,0.017-0.387,0.051c-0.196,0.049-0.377,0.147-0.524,0.287c-0.232,0.216-0.365,0.519-0.363,0.837c0,0.324,0.112,0.599,0.35,0.823l0.013,0.014c0.25,0.226,0.563,0.337,0.924,0.337c0.462,0,0.911-0.161,1.398-0.637l0.8,0.936l0.087,0.1c-0.725,0.7-1.423,0.962-2.335,0.962c-0.837,0-1.523-0.236-2.048-0.711L7.366,15.834z"/>
</svg>
