<svg version="1.1" id="master" xmlns="http://www.w3.org/2000/svg" xmlns:xlink="http://www.w3.org/1999/xlink" x="0px" y="0px" width="24px" height="24px" viewBox="0 0 24 24" enable-background="new 0 0 24 24" xml:space="preserve">
<rect fill="none" width="24" height="24"/>
<path d="M13.584,5.001c-2.292,0-4.253,1.287-5.292,3.149c-0.446-0.264-0.949-0.45-1.505-0.45c-1.651,0-3,1.338-3,2.982c0,0.219,0.053,0.428,0.098,0.635C2.76,12.075,2,13.335,2,14.787c0,2.302,1.868,4.176,4.173,4.211c0.002,0,0.004,0,0.007,0h11.667C20.135,19.013,22,17.16,22,14.885c0-1.622-0.961-3.002-2.332-3.676c0.002-0.052,0.008-0.096,0.008-0.153C19.676,7.716,16.942,5.001,13.584,5.001L13.584,5.001z M13.584,5.704c2.982,0,5.391,2.394,5.391,5.352c0,0.096-0.01,0.202-0.016,0.323c-0.01,0.149,0.078,0.288,0.216,0.345c1.282,0.526,2.12,1.775,2.122,3.162c0.001,1.884-1.525,3.412-3.41,3.413c-0.012,0-0.023-0.001-0.036-0.001c-0.001,0-0.001,0-0.003,0H6.183c-1.932-0.03-3.48-1.586-3.48-3.51c0-1.288,0.695-2.403,1.733-3.017c0.141-0.083,0.206-0.252,0.156-0.408c-0.069-0.22-0.104-0.448-0.104-0.679c0.002-1.261,1.027-2.282,2.288-2.28c0.003,0,0.007,0,0.01,0c0.509,0,1.003,0.168,1.405,0.48c0.153,0.118,0.374,0.09,0.492-0.063c0.015-0.019,0.027-0.04,0.038-0.062C9.619,6.889,11.51,5.701,13.584,5.704L13.584,5.704z M9.142,11.435c-1.322,0-2.425,1.011-2.425,2.281c0,1.269,1.103,2.28,2.425,2.28c1.176,0,1.818-0.776,2.08-1.055c0.133-0.142,0.127-0.363-0.014-0.497c-0.141-0.133-0.363-0.127-0.496,0.015h0c-0.315,0.335-0.683,0.835-1.569,0.835c-0.968,0-1.723-0.716-1.723-1.578s0.755-1.579,1.723-1.579c0.444,0,0.921,0.248,1.405,0.642c0.31,0.253,0.614,0.557,0.915,0.869c0.017,0.038,0.041,0.073,0.071,0.103c0.444,0.46,0.935,1.004,1.478,1.447c0.544,0.441,1.155,0.799,1.848,0.799c1.321,0,2.425-1.012,2.425-2.28c0-1.27-1.104-2.281-2.425-2.281c-1.176,0-1.818,0.776-2.08,1.055c-0.134,0.141-0.127,0.364,0.015,0.497c0.141,0.133,0.362,0.127,0.496-0.014v-0.001c0.314-0.335,0.683-0.835,1.569-0.835c0.968,0,1.724,0.717,1.724,1.579s-0.756,1.578-1.724,1.578c-0.444,0-0.921-0.247-1.405-0.642c-0.31-0.252-0.613-0.559-0.915-0.87c-0.017-0.037-0.041-0.071-0.071-0.101c-0.444-0.46-0.935-1.007-1.478-1.449C10.446,11.791,9.834,11.435,9.142,11.435z"/>
</svg>
