<svg version="1.1" id="master" xmlns="http://www.w3.org/2000/svg" xmlns:xlink="http://www.w3.org/1999/xlink" x="0px" y="0px" width="24px" height="24px" viewBox="0 0 24 24" enable-background="new 0 0 24 24" xml:space="preserve">
<rect fill="none" width="24" height="24"/>
<path d="M12.036,21.974c0.399-0.003,0.794-0.023,1.188-0.078c0.9-0.115,1.785-0.36,2.622-0.72c1.174-0.501,2.248-1.226,3.161-2.119c0.835-0.824,1.534-1.792,2.032-2.855c0.425-0.914,0.725-1.895,0.851-2.896c0.124-0.966,0.112-1.955-0.037-2.916c-0.125-0.8-0.35-1.58-0.662-2.323c-0.199-0.467-0.437-0.917-0.711-1.347c-0.974-1.531-2.385-2.762-4.008-3.584c-0.578-0.296-1.186-0.538-1.811-0.724h-0.004c0.1,0.053,0.2,0.11,0.288,0.167c0.1,0.062,0.199,0.122,0.292,0.188c0.475,0.32,0.911,0.689,1.299,1.108c0.886,0.954,1.498,2.123,1.849,3.367c0.236,0.818,0.361,1.665,0.412,2.514c0.037,0.619,0.037,1.242-0.039,1.857c-0.124,1.059-0.461,2.091-1.023,2.997c-0.412,0.669-0.949,1.265-1.586,1.736c-1.037,0.773-2.397,1.234-3.696,0.929c-0.212-0.051-0.425-0.122-0.624-0.215c-0.226-0.104-0.45-0.231-0.649-0.375c-0.388-0.259-0.738-0.571-1.037-0.921c-0.363-0.434-0.662-0.926-0.874-1.457c-0.262-0.671-0.399-1.393-0.412-2.116c-0.024-1.061,0.188-2.127,0.712-3.058c0.35-0.62,0.824-1.163,1.386-1.598c0.188-0.148,0.387-0.278,0.587-0.399l0.013-0.006c-0.388-0.087-0.8-0.126-1.201-0.1c-0.348,0.024-0.686,0.087-1.023,0.199c-0.299,0.1-0.587,0.226-0.85,0.375c-0.212,0.125-0.423,0.263-0.61,0.413c-0.176,0.15-0.35,0.299-0.512,0.462c-0.936,0.96-1.474,2.235-1.685,3.546c-0.125,0.811-0.125,1.634-0.076,2.459c0.087,1.161,0.326,2.321,0.788,3.384c0.287,0.661,0.661,1.272,1.123,1.811c0.712,0.822,1.612,1.461,2.61,1.859c0.562,0.226,1.161,0.388,1.76,0.449C11.941,22,12.003,22,12.053,22L12.036,21.974z M9.591,21.643c-0.137-0.059-0.262-0.125-0.375-0.19c-0.125-0.069-0.25-0.141-0.375-0.216c-0.487-0.302-0.923-0.656-1.324-1.063c-0.912-0.948-1.522-2.139-1.872-3.401c-0.237-0.86-0.363-1.751-0.413-2.643c-0.037-0.586-0.024-1.16,0.038-1.735c0.113-1.047,0.413-2.084,0.937-2.983C6.582,8.75,7.093,8.164,7.693,7.701c0.412-0.312,0.874-0.575,1.361-0.75c0.687-0.249,1.423-0.324,2.136-0.225c0.275,0.038,0.548,0.101,0.799,0.188c0.024,0,0.024,0,0.038,0.025c0.012,0.013,0.038,0.013,0.05,0.025c0.038,0.013,0.086,0.037,0.137,0.061c0.2,0.1,0.399,0.226,0.587,0.351c0.749,0.524,1.36,1.248,1.748,2.085c0.35,0.762,0.512,1.611,0.525,2.448c0.012,0.899-0.15,1.797-0.538,2.622c-0.462,0.986-1.248,1.822-2.198,2.359c0.075,0.024,0.15,0.038,0.225,0.063c0.188,0.037,0.375,0.062,0.574,0.062c1.223,0.037,2.409-0.549,3.282-1.372c0.163-0.149,0.313-0.313,0.451-0.487c0.188-0.226,0.361-0.449,0.511-0.687c0.199-0.313,0.363-0.625,0.512-0.962c0.188-0.448,0.337-0.911,0.425-1.386c0.162-0.836,0.176-1.685,0.123-2.521c-0.112-1.685-0.56-3.371-1.534-4.77c-0.15-0.211-0.3-0.412-0.463-0.599C16.171,3.917,15.87,3.63,15.56,3.368c-0.351-0.288-0.737-0.549-1.137-0.763c-0.41-0.186-0.897-0.373-1.41-0.498l-0.249-0.05c-0.175-0.025-0.35-0.037-0.528-0.05c-0.271-0.012-0.558-0.008-0.846,0.013c-0.586,0.038-1.177,0.133-1.76,0.281C6.833,3.023,4.386,4.972,3.083,7.558c-0.417,0.825-0.712,1.705-0.885,2.61C2,11.204,1.974,12.27,2.112,13.313c0.1,0.851,0.312,1.686,0.649,2.48c0.189,0.475,0.425,0.937,0.687,1.373c0.912,1.485,2.236,2.696,3.758,3.533c0.573,0.326,1.173,0.575,1.797,0.787c0.188,0.063,0.375,0.125,0.574,0.175L9.591,21.643z"/>
</svg>
