<svg version="1.1" id="master" xmlns="http://www.w3.org/2000/svg" xmlns:xlink="http://www.w3.org/1999/xlink" x="0px" y="0px" width="24px" height="24px" viewBox="0 0 24 24" enable-background="new 0 0 24 24" xml:space="preserve">
<rect fill="none" width="24" height="24"/>
<path d="M20.75,5.125H3.25C2.563,5.125,2,5.687,2,6.375v11.25c0,0.688,0.562,1.25,1.25,1.25h17.5c0.688,0,1.25-0.563,1.25-1.25V6.375C22,5.688,21.438,5.125,20.75,5.125z M13.25,7.625h1.25v1.25h-1.25V7.625z M12,11.375v-1.25h1.25v1.25H12z M13.25,12.625v1.25H12v-1.25H13.25z M10.75,7.625H12v1.25h-1.25V7.625z M9.5,11.375v-1.25h1.25v1.25H9.5z M10.75,12.625v1.25H9.5v-1.25H10.75z M8.25,7.625H9.5v1.25H8.25V7.625z M4.5,7.625H7v1.25H4.5V7.625z M8.25,10.125v1.25H7v-1.25H8.25z M4.5,10.125h1.25v1.25H4.5V10.125z M4.5,12.625h1.25v1.25H4.5V12.625z M7,16.375H4.5v-1.25H7V16.375z M7,12.625h1.25v1.25H7V12.625z M15.75,16.375h-7.5v-1.25h7.5V16.375z M15.75,13.875H14.5v-1.25h1.25V13.875z M15.75,11.375H14.5v-1.25h1.25V11.375z M15.75,7.625H17v1.25h-1.25V7.625z M19.5,16.375H17v-1.25h2.5V16.375z M19.5,13.875H17v-3.75h2.5V13.875z M19.5,8.875h-1.25v-1.25h1.25V8.875z"/>
</svg>
