<svg version="1.1" id="master" xmlns="http://www.w3.org/2000/svg" xmlns:xlink="http://www.w3.org/1999/xlink" x="0px" y="0px" width="24px" height="24px" viewBox="0 0 24 24" enable-background="new 0 0 24 24" xml:space="preserve">
<rect fill="none" width="24" height="24"/>
<path d="M14.5,8.875h-1.25v-1.25h1.25V8.875z M5.75,10.125H4.5v1.25h1.25V10.125z M12,7.625h-1.25v1.25H12V7.625z M7,7.625H4.5v1.25H7V7.625z M17,16.375h2.5v-1.25H17V16.375z M12,11.375h1.25v-1.25H12V11.375z M7,15.125H4.5v1.25H7V15.125z M17,7.625h-1.25v1.25H17V7.625z M19.5,7.625h-1.25v1.25h1.25V7.625z M17,13.875h2.5v-3.75H17V13.875z M22,6.375v11.25c0,0.688-0.563,1.25-1.25,1.25H3.25c-0.688,0-1.25-0.563-1.25-1.25V6.375c0-0.688,0.563-1.25,1.25-1.25h17.5C21.438,5.125,22,5.688,22,6.375z M20.75,6.375H3.25v11.25h17.5V6.375z M9.5,11.375h1.25v-1.25H9.5V11.375z M9.5,7.625H8.25v1.25H9.5V7.625z M7,11.375h1.25v-1.25H7V11.375z M8.25,16.375h7.5v-1.25h-7.5V16.375z M14.5,11.375h1.25v-1.25H14.5V11.375z M5.75,12.625H4.5v1.25h1.25V12.625z M12,12.625v1.25h1.25v-1.25H12z M9.5,12.625v1.25h1.25v-1.25H9.5z M8.25,12.625H7v1.25h1.25V12.625z M14.5,13.875h1.25v-1.25H14.5V13.875z"/>
</svg>
