<svg version="1.1" id="master" xmlns="http://www.w3.org/2000/svg" xmlns:xlink="http://www.w3.org/1999/xlink" x="0px" y="0px"
	 width="24px" height="24px" viewBox="0 0 24 24" enable-background="new 0 0 24 24" xml:space="preserve">
<rect fill="none" width="24" height="24"/>
<path d="M19.852,18.004l-4.316-6.943V5.5h-2.36v5.893c0,0.254,0.082,0.486,0.216,0.677l1.773,2.859H8.829l1.774-2.859
	c0.137-0.191,0.213-0.427,0.213-0.677V5.5H8.464v5.561l-4.316,6.943C3.067,19.738,4.313,22,6.361,22h11.276
	C19.69,22,20.931,19.735,19.852,18.004z M7.625,4.5h8.75C16.721,4.5,17,4.221,17,3.875v-1.25C17,2.28,16.721,2,16.375,2h-8.75
	C7.28,2,7,2.28,7,2.625v1.25C7,4.221,7.28,4.5,7.625,4.5z"/>
</svg>
