<svg version="1.1" id="master" xmlns="http://www.w3.org/2000/svg" xmlns:xlink="http://www.w3.org/1999/xlink" x="0px" y="0px"
	 width="24px" height="24px" viewBox="0 0 24 24" enable-background="new 0 0 24 24" xml:space="preserve">
<rect fill="none" width="24" height="24"/>
<path d="M2.357,12h1.422c0.066,0,0.129-0.018,0.188-0.055c0.06-0.036,0.106-0.084,0.14-0.144c0.219-0.438,0.433-0.883,0.641-1.337
	c0.209-0.454,0.439-0.893,0.691-1.317H4.853c-0.066,0-0.127,0.017-0.184,0.05s-0.101,0.08-0.134,0.139l-0.975,1.948H2.357
	c-0.099,0-0.184,0.035-0.253,0.104C2.035,11.458,2,11.543,2,11.642c0,0.1,0.035,0.184,0.104,0.253C2.174,11.965,2.259,12,2.357,12z
	 M4.853,20.937c0-0.026-0.015-0.098-0.044-0.214c-0.03-0.115-0.066-0.256-0.109-0.418c-0.044-0.162-0.093-0.338-0.149-0.526
	S4.44,19.41,4.391,19.242c-0.05-0.17-0.093-0.318-0.129-0.447c-0.037-0.13-0.062-0.218-0.075-0.264l0.746-0.746
	c-0.054-0.119-0.103-0.238-0.149-0.357c-0.046-0.119-0.093-0.242-0.139-0.368l-1.113,1.124c-0.073,0.072-0.109,0.155-0.109,0.248
	c0,0.033,0.015,0.105,0.044,0.219c0.03,0.112,0.066,0.245,0.109,0.397s0.092,0.317,0.145,0.497c0.053,0.179,0.103,0.348,0.149,0.507
	c0.046,0.159,0.089,0.302,0.129,0.427c0.04,0.127,0.066,0.216,0.079,0.27l-1.173,0.576c-0.06,0.033-0.107,0.08-0.144,0.139
	c-0.037,0.061-0.055,0.123-0.055,0.189c0,0.1,0.038,0.182,0.114,0.248S2.98,22,3.073,22c0.06,0,0.163-0.033,0.309-0.1
	s0.302-0.141,0.467-0.224c0.166-0.083,0.325-0.165,0.478-0.249c0.152-0.082,0.262-0.141,0.328-0.174
	C4.786,21.188,4.853,21.082,4.853,20.937z M4.495,4.853c-0.1,0-0.184,0.036-0.254,0.109C4.172,5.035,4.137,5.121,4.137,5.221
	c0,0.046,0.017,0.139,0.05,0.278s0.071,0.29,0.114,0.452C4.345,6.114,4.386,6.27,4.426,6.418c0.039,0.149,0.066,0.253,0.079,0.313
	c0.02,0.106,0.083,0.183,0.188,0.229l1.71,0.854c0.086-0.093,0.173-0.184,0.259-0.273c0.086-0.09,0.176-0.178,0.269-0.264
	l-1.77-0.885L4.843,5.131c-0.02-0.08-0.062-0.146-0.124-0.199C4.655,4.879,4.581,4.853,4.495,4.853z M8.779,2
	C8.687,2,8.604,2.035,8.531,2.104C8.458,2.174,8.422,2.258,8.422,2.358c0,0.093,0.036,0.176,0.109,0.249l1.183,1.183
	c0.119-0.053,0.24-0.103,0.362-0.149c0.123-0.046,0.251-0.086,0.383-0.119L9.038,2.1C8.972,2.033,8.886,2,8.779,2z M8.432,7.716
	c-0.245,0-0.438-0.1-0.577-0.298C7.364,7.795,6.932,8.236,6.558,8.74C6.184,9.243,5.87,9.78,5.618,10.35
	c-0.252,0.57-0.442,1.165-0.571,1.784s-0.194,1.235-0.194,1.844c0,0.629,0.068,1.252,0.204,1.868s0.331,1.208,0.587,1.774
	c0.255,0.566,0.569,1.099,0.944,1.596c0.374,0.497,0.8,0.936,1.277,1.316c0.477,0.382,1.002,0.696,1.575,0.945
	c0.573,0.248,1.188,0.408,1.844,0.482V7.716H8.432z M7.104,15.762c-0.176-0.108-0.325-0.25-0.447-0.422
	c-0.123-0.172-0.216-0.363-0.278-0.571c-0.063-0.209-0.095-0.416-0.095-0.622c0-0.205,0.031-0.414,0.095-0.625
	c0.063-0.213,0.154-0.404,0.273-0.577s0.269-0.313,0.447-0.423c0.179-0.109,0.384-0.164,0.616-0.164
	c0.226,0,0.428,0.055,0.606,0.164c0.179,0.109,0.328,0.25,0.447,0.423s0.21,0.364,0.273,0.577c0.063,0.211,0.094,0.42,0.094,0.625
	c0,0.199-0.031,0.404-0.094,0.617c-0.063,0.212-0.154,0.404-0.273,0.576s-0.269,0.313-0.447,0.422
	c-0.179,0.109-0.381,0.164-0.606,0.164C7.483,15.926,7.28,15.871,7.104,15.762z M9.654,19.659c-0.133,0.136-0.305,0.204-0.518,0.204
	c-0.172,0-0.344-0.042-0.517-0.125c-0.172-0.082-0.324-0.19-0.457-0.322c-0.133-0.133-0.24-0.283-0.323-0.453
	c-0.083-0.168-0.124-0.343-0.124-0.521c0-0.212,0.066-0.387,0.198-0.521c0.133-0.137,0.306-0.204,0.518-0.204
	c0.172,0,0.343,0.042,0.512,0.124c0.169,0.083,0.321,0.19,0.457,0.323c0.136,0.132,0.245,0.283,0.328,0.452s0.124,0.343,0.124,0.521
	C9.853,19.35,9.786,19.523,9.654,19.659z M9.645,10.36c-0.14,0.139-0.309,0.208-0.508,0.208c-0.191,0-0.357-0.071-0.496-0.213
	c-0.14-0.143-0.209-0.31-0.209-0.502s0.069-0.358,0.209-0.497c0.139-0.139,0.305-0.209,0.496-0.209c0.192,0,0.36,0.07,0.503,0.209
	c0.142,0.139,0.213,0.305,0.213,0.497C9.853,10.052,9.783,10.221,9.645,10.36z M9.973,4.495c-0.146,0-0.29,0.035-0.433,0.104
	C9.397,4.669,9.27,4.758,9.157,4.868C9.044,4.977,8.953,5.103,8.884,5.246S8.779,5.532,8.779,5.678c0,0.179,0.057,0.325,0.169,0.438
	s0.259,0.169,0.438,0.169c0.146,0,0.29-0.035,0.433-0.104c0.143-0.069,0.269-0.159,0.378-0.268c0.108-0.109,0.198-0.235,0.268-0.378
	c0.07-0.143,0.104-0.287,0.104-0.432c0-0.172-0.055-0.316-0.164-0.433C10.295,4.553,10.151,4.495,9.973,4.495z M14.027,4.495
	c-0.186,0-0.331,0.056-0.437,0.169c-0.106,0.113-0.159,0.258-0.159,0.438c0,0.146,0.034,0.288,0.104,0.427
	c0.069,0.139,0.159,0.265,0.268,0.378c0.109,0.113,0.235,0.204,0.378,0.273c0.143,0.07,0.287,0.104,0.433,0.104
	c0.179,0,0.323-0.055,0.433-0.164s0.164-0.257,0.164-0.442c0-0.146-0.035-0.29-0.104-0.432s-0.161-0.269-0.273-0.378
	S14.595,4.669,14.455,4.6C14.316,4.53,14.174,4.495,14.027,4.495z M15.211,2c-0.1,0-0.183,0.033-0.249,0.1l-1.421,1.421
	c0.132,0.033,0.26,0.073,0.383,0.119c0.122,0.046,0.243,0.096,0.362,0.149l1.183-1.183c0.066-0.066,0.1-0.149,0.1-0.249
	c0-0.1-0.034-0.184-0.104-0.253C15.395,2.035,15.311,2,15.211,2z M18.382,10.35c-0.504-1.107-1.249-2.084-2.236-2.933
	c-0.14,0.199-0.332,0.298-0.577,0.298h-2.853v14.245c0.656-0.074,1.271-0.234,1.844-0.482c0.573-0.249,1.097-0.565,1.57-0.949
	c0.475-0.385,0.898-0.826,1.272-1.322c0.375-0.497,0.689-1.029,0.944-1.596s0.451-1.16,0.587-1.779s0.203-1.24,0.203-1.863
	C19.137,12.662,18.886,11.457,18.382,10.35z M14.355,9.356c0.14-0.139,0.306-0.209,0.497-0.209c0.192,0,0.359,0.07,0.502,0.209
	s0.214,0.305,0.214,0.497c0,0.199-0.069,0.368-0.209,0.507c-0.139,0.139-0.308,0.208-0.507,0.208c-0.191,0-0.357-0.071-0.497-0.213
	c-0.139-0.143-0.208-0.31-0.208-0.502S14.217,9.495,14.355,9.356z M16.16,18.958c-0.083,0.173-0.19,0.325-0.323,0.458
	c-0.133,0.132-0.283,0.24-0.452,0.322c-0.169,0.083-0.343,0.125-0.521,0.125c-0.213,0-0.385-0.068-0.518-0.204
	c-0.132-0.136-0.198-0.31-0.198-0.522c0-0.179,0.041-0.353,0.124-0.521s0.19-0.32,0.323-0.452c0.132-0.133,0.284-0.24,0.457-0.323
	c0.172-0.082,0.345-0.124,0.517-0.124c0.212,0,0.385,0.065,0.518,0.198c0.132,0.133,0.198,0.309,0.198,0.527
	C16.284,18.613,16.243,18.786,16.16,18.958z M17.621,14.769c-0.063,0.208-0.155,0.399-0.278,0.571
	c-0.122,0.172-0.273,0.313-0.452,0.422c-0.179,0.109-0.381,0.164-0.606,0.164c-0.231,0-0.436-0.055-0.611-0.164
	c-0.176-0.108-0.324-0.25-0.447-0.422c-0.122-0.172-0.215-0.363-0.278-0.571c-0.063-0.209-0.095-0.416-0.095-0.622
	c0-0.205,0.032-0.414,0.095-0.625c0.063-0.213,0.156-0.404,0.278-0.577c0.123-0.173,0.271-0.313,0.447-0.423
	c0.176-0.109,0.38-0.164,0.611-0.164c0.232,0,0.438,0.055,0.616,0.164c0.179,0.109,0.328,0.25,0.447,0.423s0.211,0.364,0.273,0.577
	c0.063,0.211,0.095,0.42,0.095,0.625C17.716,14.353,17.685,14.56,17.621,14.769z M18.839,6.394l-1.77,0.885
	c0.093,0.086,0.183,0.174,0.269,0.264c0.086,0.089,0.173,0.18,0.259,0.273l1.71-0.854c0.039-0.02,0.077-0.051,0.114-0.095
	c0.036-0.043,0.061-0.088,0.074-0.134c0.02-0.08,0.05-0.19,0.09-0.333c0.039-0.142,0.079-0.292,0.119-0.447
	c0.039-0.155,0.074-0.303,0.104-0.442c0.029-0.139,0.044-0.238,0.044-0.298c0-0.093-0.033-0.176-0.099-0.249
	c-0.066-0.073-0.149-0.109-0.249-0.109c-0.086,0-0.16,0.026-0.224,0.08c-0.063,0.053-0.104,0.119-0.124,0.199L18.839,6.394z
	 M20.221,12h1.422c0.099,0,0.184-0.035,0.253-0.104C21.965,11.826,22,11.742,22,11.642c0-0.099-0.035-0.184-0.104-0.253
	c-0.069-0.07-0.154-0.104-0.253-0.104h-1.203l-0.975-1.948c-0.065-0.125-0.172-0.189-0.317-0.189h-0.587
	c0.106,0.172,0.199,0.348,0.278,0.527c0.08,0.179,0.166,0.358,0.259,0.537l0.795,1.59C19.959,11.934,20.068,12,20.221,12z
	 M20.578,18.432c0-0.093-0.036-0.176-0.109-0.248l-1.113-1.124c-0.046,0.126-0.093,0.249-0.139,0.368
	c-0.047,0.119-0.096,0.238-0.149,0.357l0.746,0.746c-0.014,0.046-0.038,0.134-0.075,0.264c-0.036,0.129-0.079,0.277-0.129,0.447
	c-0.05,0.168-0.103,0.348-0.159,0.536s-0.105,0.364-0.149,0.526c-0.043,0.162-0.079,0.303-0.109,0.418
	c-0.029,0.116-0.044,0.188-0.044,0.214c0,0.146,0.066,0.251,0.198,0.317c0.066,0.033,0.174,0.092,0.323,0.174
	c0.149,0.084,0.307,0.166,0.473,0.249c0.165,0.083,0.321,0.157,0.467,0.224s0.248,0.1,0.308,0.1c0.1,0,0.186-0.033,0.259-0.1
	s0.109-0.148,0.109-0.248c0-0.152-0.066-0.262-0.198-0.328l-1.163-0.576c0.013-0.054,0.039-0.143,0.079-0.27
	c0.04-0.125,0.083-0.268,0.129-0.427c0.047-0.159,0.097-0.328,0.149-0.507c0.053-0.18,0.102-0.345,0.145-0.497
	s0.079-0.285,0.109-0.397C20.563,18.537,20.578,18.465,20.578,18.432z"/>
</svg>
