<svg version="1.1" id="master" xmlns="http://www.w3.org/2000/svg" xmlns:xlink="http://www.w3.org/1999/xlink" x="0px" y="0px" width="24px" height="24px" viewBox="0 0 24 24" enable-background="new 0 0 24 24" xml:space="preserve" fill="#FB503B">
<rect fill="none" width="24" height="24"/>
<path d="M21.942,11.569l-2.305-2.853c-0.329-0.384-0.438-0.329-0.658-0.274L16.182,8.88c-0.274,0.055-0.439,0.165-0.274,0.384l2.03,2.853l-6.09,1.482L7.019,5.534C6.854,5.259,6.8,5.149,6.361,5.149l-4.005,0.33c-0.22,0-0.494,0.109-0.274,0.713l4.17,8.944c0.11,0.219,0.384,0.658,1.042,0.493l4.17-1.097l2.249,3.95c0.33,0.494,0.549,0.384,1.098,0.274l6.475-2.359c0.274-0.109,0.438-0.165,0.274-0.439l-2.47-3.347l2.688-0.713c0.274-0.055,0.274-0.22,0.11-0.33H21.942z M10.915,13.818l-3.621,0.878l-0.22-0.055c-1.34-2.875-2.693-5.746-4.06-8.614l3.292-0.329c1.536,2.688,3.071,5.377,4.609,8.065V13.818z M20.516,15.629c0.055,0.056,0.11,0.11-0.055,0.165L14.59,17.77c-0.109,0.055-0.219,0.055-0.329-0.11l-1.975-3.347l5.925-1.536c0.165-0.055,0.165-0.055,0.274,0.055L20.516,15.629z M20.845,11.404l-2.249,0.549l-1.811-2.414c-0.055-0.055-0.11-0.11,0.055-0.165l2.194-0.384c0.11,0,0.22-0.055,0.329,0.11l1.701,2.14C21.119,11.35,21.01,11.404,20.845,11.404z"/>
</svg>
