<svg version="1.1" id="master" xmlns="http://www.w3.org/2000/svg" xmlns:xlink="http://www.w3.org/1999/xlink" x="0px" y="0px" width="24px" height="24px" viewBox="0 0 24 24" enable-background="new 0 0 24 24" xml:space="preserve">
<rect fill="none" width="24" height="24"/>
<path d="M12,2.008c-5.526,0-10,4.473-10,9.994c0,5.522,4.474,9.99,10,9.99c5.519,0,10-4.468,10-9.99C22,6.48,17.519,2.008,12,2.008z M12.002,3.627c0.095,0,0.293,0.007,0.398,0.012v0.779c-0.099-0.006-0.311-0.005-0.398-0.005c-2.013-0.006-3.946,0.793-5.367,2.22c-1.43,1.419-2.232,3.352-2.228,5.365c-0.007,2.015,0.796,3.946,2.229,5.361c1.419,1.43,3.352,2.23,5.366,2.224c4.009,0,7.304-3.123,7.567-7.066c0.004-0.022,0.004-0.104,0.004-0.121h-5.181v-0.771h5.979v0.373c0.006,2.222-0.879,4.354-2.456,5.92c-1.566,1.57-3.695,2.451-5.913,2.446c-2.24,0-4.342-0.871-5.925-2.446c-1.573-1.567-2.455-3.699-2.448-5.92C3.63,7.385,7.387,3.627,12.002,3.627z M8.807,7.61c0.663,0.001,1.199,0.538,1.198,1.2s-0.538,1.198-1.2,1.198c-0.663,0-1.199-0.537-1.199-1.2C7.607,8.146,8.144,7.61,8.807,7.61z M11.599,7.616h0.802v7.979h1.984v0.788h-2.787L11.599,7.616z"/>
</svg>
