<svg version="1.1" id="master" xmlns="http://www.w3.org/2000/svg" xmlns:xlink="http://www.w3.org/1999/xlink" x="0px" y="0px" width="24px" height="24px" viewBox="0 0 24 24" enable-background="new 0 0 24 24" xml:space="preserve">
<rect fill="none" width="24" height="24"/>
<path d="M12.002,2.003c0.114,0,0.35,0.008,0.475,0.015v0.93c-0.118-0.007-0.372-0.006-0.475-0.006C9.598,2.935,7.289,3.889,5.591,5.594C3.883,7.289,2.924,9.598,2.93,12.003c-0.009,2.408,0.951,4.714,2.662,6.405c1.696,1.708,4.004,2.663,6.411,2.656c4.789,0,8.726-3.73,9.039-8.44c0.006-0.026,0.006-0.125,0.006-0.146h-6.188v-0.921H22v0.446c0.007,2.655-1.05,5.201-2.934,7.072c-1.87,1.876-4.414,2.928-7.064,2.922c-2.676,0-5.187-1.04-7.078-2.922C3.045,17.204,1.992,14.656,2,12.003C2.001,6.492,6.49,2.003,12.002,2.003z M8.186,6.761c0.792,0.001,1.432,0.643,1.431,1.434C9.616,8.985,8.974,9.625,8.184,9.625c-0.792,0-1.433-0.641-1.433-1.433C6.752,7.401,7.394,6.761,8.186,6.761z M11.521,6.769h0.958v9.532h2.37v0.94H11.52L11.521,6.769z"/>
</svg>
