<svg version="1.1" id="master" xmlns="http://www.w3.org/2000/svg" xmlns:xlink="http://www.w3.org/1999/xlink" x="0px" y="0px"
	 width="24px" height="24px" viewBox="0 0 24 24" enable-background="new 0 0 24 24" xml:space="preserve">
<rect fill="none" width="24" height="24"/>
<path d="M9.16,10.565c0.625,0.018,1.117,0.537,1.1,1.161c-0.016,0.602-0.499,1.084-1.1,1.102c-0.624-0.001-1.13-0.508-1.13-1.132
	c0-0.095,0.012-0.188,0.036-0.281c0.099,0.244,0.376,0.359,0.619,0.262c0.18-0.073,0.297-0.247,0.296-0.441
	c0-0.255-0.201-0.465-0.456-0.475C8.711,10.634,8.934,10.564,9.16,10.565z M14.899,10.565c0.625,0.018,1.117,0.537,1.101,1.161
	c-0.017,0.602-0.5,1.084-1.101,1.102c-0.623,0-1.129-0.507-1.131-1.13c0-0.097,0.012-0.19,0.037-0.283
	c0.098,0.243,0.375,0.358,0.618,0.261c0.242-0.1,0.359-0.377,0.261-0.619c-0.069-0.172-0.234-0.287-0.42-0.295
	C14.452,10.634,14.674,10.564,14.899,10.565z M21.866,8.688c-0.12-0.481-0.307-0.922-0.592-1.313
	c-0.276-0.378-0.707-0.805-1.415-0.836c-0.128-0.014-0.258-0.014-0.386,0.002c-0.3,0.049-0.586,0.158-0.842,0.319
	c-0.416,0.257-0.549,0.515-0.689,0.74c-0.045,0.074-0.074,0.136-0.114,0.207c-1.347-1.188-3.396-1.752-5.822-1.752
	c-2.428,0-4.481,0.565-5.829,1.759C6.136,7.74,6.107,7.677,6.061,7.603c-0.142-0.228-0.273-0.486-0.69-0.743
	C5.113,6.696,4.826,6.587,4.524,6.538C4.398,6.523,4.269,6.523,4.142,6.537C3.433,6.568,3.004,6.995,2.727,7.373
	C2.439,7.765,2.254,8.205,2.134,8.688c-0.237,0.962-0.241,2.209,0.675,3.14c0.479,0.489,1.042,0.719,1.552,0.854
	c0.099,0.028,0.186,0.034,0.28,0.055c0.332,1.576,1.316,2.91,2.632,3.65h0.001c0.774,0.437,1.508,0.635,2.06,0.846
	c0.77,0.297,1.583,0.625,2.53,0.709l0.05,0.004h0.125c1.088,0,1.914-0.438,2.627-0.713c0.546-0.207,1.283-0.4,2.063-0.84
	c0.36-0.203,0.696-0.449,0.998-0.732c0.821-0.771,1.394-1.774,1.64-2.875c0.696-0.113,1.336-0.45,1.823-0.959
	C22.106,10.896,22.103,9.649,21.866,8.688z M8.796,14.227c-0.03,0-0.061,0-0.092,0c-1.406-0.026-2.524-1.186-2.498-2.591
	c0.025-1.405,1.185-2.523,2.589-2.498c1.37,0.025,2.474,1.129,2.499,2.498C11.319,13.041,10.202,14.201,8.796,14.227z
	 M11.673,14.669c-0.152,0.022-0.152,0.048-0.152,0.126c0,0.076,0.09,0.107,0.108,0.113c0.053,0.011,0.091,0.059,0.091,0.113
	c0,0.066-0.053,0.121-0.119,0.121c-0.2,0-0.315-0.129-0.315-0.305c0-0.275,0.115-0.379,0.314-0.396
	c0.071-0.006,0.129,0.016,0.15,0.078C11.771,14.581,11.738,14.659,11.673,14.669z M12.452,15.143c-0.054,0-0.102-0.039-0.115-0.092
	c-0.016-0.064,0.024-0.129,0.088-0.144c0.02-0.005,0.11-0.037,0.11-0.113c0-0.078,0-0.104-0.153-0.126
	c-0.065-0.009-0.098-0.087-0.078-0.148c0.02-0.063,0.079-0.084,0.15-0.078c0.198,0.018,0.315,0.121,0.315,0.396
	C12.769,15.014,12.653,15.143,12.452,15.143z M15.256,14.227c-1.403,0-2.544-1.14-2.544-2.545c0-1.404,1.141-2.544,2.544-2.544
	c1.405,0,2.544,1.139,2.544,2.544S16.661,14.227,15.256,14.227z"/>
</svg>
