<svg version="1.1" id="master" xmlns="http://www.w3.org/2000/svg" xmlns:xlink="http://www.w3.org/1999/xlink" x="0px" y="0px" width="24px" height="24px" viewBox="0 0 24 24" enable-background="new 0 0 24 24" xml:space="preserve">
<rect fill="none" width="24" height="24"/>
<path d="M12,2.464c-5.511,0-10,3.642-10,8.124c0,4.009,3.557,7.372,8.362,8.01c1.171,0.249,1.035,0.677,0.773,2.261c-0.044,0.241-0.204,0.981,0.863,0.538c1.068-0.442,5.759-3.395,7.859-5.809c1.45-1.602,2.142-3.209,2.142-5C22,6.106,17.514,2.464,12,2.464z M8.47,12.97c0,0.112-0.087,0.2-0.196,0.2H5.472c-0.055,0-0.099-0.025-0.136-0.054c-0.037-0.042-0.055-0.081-0.055-0.142v-4.36c0-0.108,0.086-0.195,0.195-0.195h0.701c0.111,0,0.196,0.088,0.196,0.195v3.461H8.28c0.104,0,0.189,0.093,0.189,0.195V12.97z M10.163,12.975c0,0.113-0.087,0.2-0.196,0.2h-0.7c-0.111,0-0.196-0.087-0.196-0.2v-4.36c0-0.108,0.086-0.195,0.196-0.195h0.7c0.109,0,0.194,0.095,0.196,0.195V12.975z M14.992,12.975c0,0.113-0.087,0.2-0.197,0.2h-0.7c-0.071,0-0.133-0.039-0.159-0.08l-1.998-2.704v2.589c0,0.114-0.087,0.194-0.196,0.194h-0.699c-0.11,0-0.196-0.08-0.196-0.194V8.62c0-0.106,0.085-0.195,0.196-0.195h0.693c0.061,0,0.13,0.034,0.16,0.087l2,2.696V8.62c0-0.106,0.086-0.195,0.195-0.195h0.7c0.111-0.005,0.201,0.09,0.201,0.19V12.975z M18.867,9.312c0,0.114-0.088,0.201-0.196,0.201h-1.905v0.731h1.905c0.108,0,0.196,0.086,0.196,0.201v0.705c0,0.108-0.088,0.194-0.196,0.194h-1.905v0.739h1.905c0.108,0,0.196,0.088,0.196,0.195v0.698c0,0.113-0.088,0.2-0.196,0.2h-2.803c-0.108,0-0.194-0.093-0.194-0.2v-4.36c0-0.108,0.092-0.195,0.194-0.195h2.803c0.104,0,0.191,0.095,0.196,0.195V9.312z"/>
</svg>
