<svg version="1.1" id="master" xmlns="http://www.w3.org/2000/svg" xmlns:xlink="http://www.w3.org/1999/xlink" x="0px" y="0px"
	 width="24px" height="24px" viewBox="0 0 24 24" enable-background="new 0 0 24 24" xml:space="preserve">
<rect fill="none" width="24" height="24"/>
<path d="M14.878,12.227l6.574,6.573c0.174,0.174,0.309,0.376,0.404,0.604C21.952,19.634,22,19.872,22,20.122
	c0,0.261-0.049,0.506-0.147,0.734c-0.099,0.229-0.232,0.428-0.4,0.596s-0.366,0.302-0.596,0.4C20.628,21.951,20.383,22,20.122,22
	c-0.25,0-0.488-0.048-0.718-0.144c-0.229-0.096-0.431-0.23-0.604-0.404l-6.583-6.583c-0.51,0.296-1.048,0.517-1.613,0.661
	c-0.565,0.146-1.141,0.218-1.726,0.218c-0.632,0-1.241-0.083-1.826-0.248s-1.132-0.397-1.639-0.695
	c-0.507-0.299-0.971-0.657-1.391-1.074c-0.42-0.417-0.78-0.881-1.079-1.392c-0.298-0.51-0.53-1.057-0.695-1.639
	C2.083,10.117,2,9.51,2,8.878s0.083-1.24,0.248-1.826c0.165-0.585,0.397-1.133,0.695-1.643C3.242,4.898,3.6,4.435,4.018,4.018
	C4.435,3.6,4.898,3.242,5.409,2.943c0.51-0.298,1.058-0.53,1.644-0.695C7.638,2.083,8.247,2,8.878,2s1.239,0.083,1.822,0.248
	c0.583,0.165,1.129,0.397,1.639,0.695c0.51,0.299,0.974,0.658,1.391,1.079s0.775,0.884,1.074,1.391
	c0.298,0.508,0.53,1.054,0.695,1.639c0.165,0.586,0.248,1.194,0.248,1.826c0,0.586-0.074,1.163-0.222,1.73
	C15.378,11.177,15.162,11.716,14.878,12.227z M3.27,9.183c0,0.284,0.032,0.563,0.096,0.839s0.145,0.544,0.244,0.805
	c0.208,0.557,0.49,1.061,0.843,1.513s0.759,0.84,1.217,1.161s0.959,0.569,1.504,0.743s1.113,0.261,1.705,0.261
	c0.041,0,0.081-0.001,0.122-0.004s0.081-0.007,0.122-0.013c-0.649-0.047-1.255-0.211-1.817-0.491
	C6.742,13.715,6.252,13.35,5.835,12.9c-0.417-0.449-0.745-0.966-0.983-1.548c-0.238-0.583-0.356-1.199-0.356-1.849
	c0-0.521,0.099-1.01,0.296-1.465c0.197-0.455,0.465-0.853,0.804-1.191C5.935,6.509,6.332,6.24,6.787,6.044
	C7.242,5.847,7.73,5.748,8.252,5.748c0.348,0,0.673,0.065,0.974,0.195c0.301,0.131,0.565,0.309,0.792,0.535
	c0.226,0.226,0.404,0.491,0.535,0.795c0.13,0.305,0.196,0.631,0.196,0.979c0,0.174-0.034,0.337-0.1,0.487
	c-0.067,0.15-0.157,0.282-0.27,0.396c-0.113,0.113-0.245,0.203-0.396,0.27c-0.15,0.066-0.313,0.1-0.487,0.1s-0.32-0.062-0.439-0.187
	C8.938,9.192,8.878,9.047,8.878,8.878c-0.174,0-0.322,0.062-0.444,0.183C8.313,9.183,8.252,9.33,8.252,9.504
	c0,0.175,0.032,0.337,0.096,0.487c0.064,0.151,0.152,0.282,0.266,0.396c0.113,0.113,0.245,0.202,0.396,0.266
	c0.15,0.063,0.313,0.096,0.487,0.096c0.348,0,0.674-0.065,0.979-0.196c0.304-0.13,0.569-0.309,0.795-0.534
	c0.226-0.227,0.404-0.49,0.535-0.791C11.935,8.925,12,8.6,12,8.252c0-0.516-0.099-1.001-0.295-1.456
	c-0.197-0.455-0.465-0.853-0.805-1.191C10.561,5.266,10.164,4.997,9.708,4.8s-0.94-0.295-1.457-0.295
	c-0.539,0-1.055,0.082-1.547,0.244C6.211,4.91,5.759,5.139,5.348,5.435S4.574,6.087,4.261,6.504
	C3.948,6.922,3.702,7.383,3.522,7.887c-0.076,0.209-0.136,0.422-0.183,0.64C3.293,8.743,3.27,8.962,3.27,9.183z M9.496,8.252
	c0-0.174-0.032-0.336-0.096-0.486C9.336,7.614,9.248,7.482,9.135,7.369C9.022,7.257,8.89,7.167,8.739,7.1
	C8.588,7.033,8.426,7,8.252,7C7.904,7,7.578,7.065,7.274,7.195C6.97,7.326,6.705,7.504,6.478,7.73
	C6.252,7.956,6.074,8.222,5.943,8.526c-0.13,0.304-0.195,0.63-0.195,0.978c0,0.517,0.098,1.002,0.295,1.457s0.465,0.853,0.804,1.191
	c0.339,0.339,0.736,0.607,1.191,0.804c0.455,0.197,0.94,0.296,1.457,0.296c0.539,0,1.055-0.081,1.548-0.243s0.946-0.393,1.361-0.691
	c0.414-0.299,0.778-0.656,1.092-1.074c0.313-0.417,0.559-0.878,0.738-1.382c0.076-0.209,0.137-0.422,0.183-0.64
	c0.047-0.218,0.07-0.437,0.07-0.656c0-0.278-0.032-0.556-0.096-0.831c-0.064-0.274-0.146-0.543-0.244-0.804
	c-0.202-0.551-0.48-1.053-0.834-1.505c-0.354-0.452-0.762-0.839-1.222-1.161c-0.461-0.322-0.964-0.571-1.509-0.748
	S9.47,3.252,8.878,3.252c-0.041,0-0.082,0.001-0.122,0.004C8.716,3.26,8.675,3.261,8.635,3.261c0.649,0.052,1.255,0.219,1.817,0.5
	s1.051,0.645,1.465,1.092c0.415,0.446,0.741,0.961,0.978,1.543c0.238,0.583,0.356,1.201,0.356,1.856
	c0,0.521-0.099,1.011-0.296,1.466c-0.196,0.455-0.465,0.852-0.804,1.191c-0.339,0.339-0.736,0.605-1.191,0.8S10.018,12,9.496,12
	c-0.342,0-0.665-0.065-0.97-0.195c-0.304-0.131-0.569-0.309-0.795-0.535c-0.226-0.226-0.404-0.491-0.535-0.796
	C7.065,10.17,7,9.847,7,9.504C7,9.33,7.032,9.168,7.096,9.018c0.063-0.151,0.152-0.283,0.265-0.396
	c0.113-0.113,0.247-0.203,0.4-0.27c0.154-0.067,0.317-0.101,0.491-0.101c0.174,0,0.322,0.063,0.444,0.188
	C8.817,8.563,8.878,8.71,8.878,8.878c0.174,0,0.32-0.061,0.439-0.183C9.436,8.574,9.496,8.426,9.496,8.252z"/>
</svg>
