<svg version="1.1" id="master" xmlns="http://www.w3.org/2000/svg" xmlns:xlink="http://www.w3.org/1999/xlink" x="0px" y="0px" width="24px" height="24px" viewBox="0 0 24 24" enable-background="new 0 0 24 24" xml:space="preserve">
<rect fill="none" width="24" height="24"/>
<path d="M2,20.296L3.704,22l5.717-5.707v-0.902l0.308-0.32c1.306,1.121,2.998,1.796,4.838,1.796c4.105,0,7.434-3.328,7.434-7.433S18.672,2,14.566,2c-4.104,0-7.432,3.328-7.434,7.432c0,1.84,0.676,3.532,1.797,4.837l-0.32,0.309H7.706L2,20.296z M9.421,9.432c0-2.848,2.298-5.146,5.146-5.146c2.849,0,5.146,2.298,5.146,5.146c0,2.848-2.298,5.146-5.146,5.146C11.72,14.578,9.421,12.28,9.421,9.432z"/>
</svg>
