<svg version="1.1" id="master" xmlns="http://www.w3.org/2000/svg" xmlns:xlink="http://www.w3.org/1999/xlink" x="0px" y="0px" width="24px" height="24px" viewBox="0 0 24 24" enable-background="new 0 0 24 24" xml:space="preserve" fill="#FFE01B">
<rect fill="none" width="24" height="24"/>
<path d="M12.893,3.74c0,0-5.384,2.584-7.161,7.968c-0.754,0-1.669,1.023-1.669,1.023C0.402,10.956,10.686-0.835,12.893,3.74z M6.54,16.824c-2.746-0.27-3.016-4.038-0.646-4.414C8.263,12.034,8.854,17.04,6.54,16.824z M7.404,15.459c0.008,0.02,0.008,0.037,0.004,0.057c-0.013,0.046-0.089,0.054-0.384-0.091c-0.646-0.323,0.808-1.4-0.323-2.101c-1.13-0.697-1.777,1.023-1.508,1.185c0.269,0.162,0-1.076,0.969-0.754c0.969,0.323,0.161,1.615,0.539,1.885c0.314,0.224,0.681,0.038,0.708-0.124C7.412,15.503,7.412,15.48,7.404,15.459c-0.005-0.011,0.008-0.023-0.002-0.034C7.361,15.384,7.387,15.419,7.404,15.459z M15.8,6.434c0,0-0.594-0.539-1.992-0.593l0.431-0.432c-1.237,0-2.369,0.862-2.369,0.862l0.323-0.808c0,0-1.562,0.861-2.746,2.315C12.516,5.463,15.8,6.434,15.8,6.434z M20.699,14.671l-0.323-0.916c0,0,1.346-2.045-1.992-2.746c0,0,0.216-2.53-0.969-3.714c2.584-2.53,1.992-6.353-3.877-3.877c-3.016-5.762-14.645,7.753-9.798,9.906c-0.485,0.646-0.485,3.878,2.853,4.2c2.262,4.847,7.753,5.169,10.93,3.715C20.7,19.785,22.529,15.155,20.699,14.671z M15.423,20.055c-3.931-0.054-5.169-4.092-3.016-6.3c0.432-0.431-1.562-1.292-1.184-3.177c0.161-0.808,0.861-1.992,2.638-1.669c1.776,0.322,2.153-1.293,3.338-0.7c1.185,0.592,0.485,2.853,0.646,3.177c0.161,0.324,1.885,0.376,2.207,1.293c0.326,0.916-2.207,2.907-6.136,2.369c-0.916-0.108-1.455,1.076-0.862,1.83c1.184,1.723,6.03,0.593,6.838-1.076c-2.046,1.563-6.245,2.154-6.569,0.485c1.185,0.54,3.178,0.216,3.178,0c0-0.214-1.131,0.321-3.178-0.375c0.161-1.131,2.584,0.969,6.623-1.777l0.322,1.13C21.776,14.994,20.269,20.108,15.423,20.055z M17.092,11.871c-0.323,0-0.323,0.7,0,0.7v0.054C17.415,12.625,17.415,11.871,17.092,11.871z M16.769,11.439h0.433c0,0,0.214-1.615-0.486-1.562C16.015,9.932,16.769,11.439,16.769,11.439z M16.392,12.786c0.162-0.322-0.484-0.646-0.646-0.322C15.584,12.787,16.23,13.109,16.392,12.786z M14.669,12.301c-0.107-0.431-1.346,0.054-1.346,0.162c0,0.108,0.321-0.054,0.646-0.107C14.292,12.301,14.723,12.41,14.669,12.301z M13.538,11.656c0.7-0.108,1.131,0.969,1.185,0.215s-1.938-0.969-2.154-0.108C12.516,11.979,13.054,11.71,13.538,11.656z"/>
</svg>
