<svg version="1.1" id="master" xmlns="http://www.w3.org/2000/svg" xmlns:xlink="http://www.w3.org/1999/xlink" x="0px" y="0px" width="24px" height="24px" viewBox="0 0 24 24" enable-background="new 0 0 24 24" xml:space="preserve" fill="#FFE01B">
<rect fill="none" width="24" height="24"/>
<path d="M12.664,6.023c0,0-3.906,1.875-5.195,5.781c-0.547,0-1.211,0.742-1.211,0.742C3.602,11.258,11.063,2.703,12.664,6.023z M8.055,15.516c-1.992-0.195-2.188-2.93-0.469-3.203S9.734,15.672,8.055,15.516z M8.682,14.526c0.006,0.013,0.006,0.026,0.003,0.041C8.676,14.599,8.62,14.606,8.406,14.5c-0.469-0.234,0.586-1.016-0.234-1.523s-1.289,0.742-1.094,0.859s0-0.781,0.703-0.547s0.117,1.172,0.391,1.367c0.228,0.163,0.494,0.028,0.514-0.089C8.688,14.556,8.688,14.541,8.682,14.526C8.678,14.518,8.688,14.508,8.68,14.5C8.651,14.471,8.67,14.496,8.682,14.526z M14.773,7.977c0,0-0.43-0.391-1.445-0.43l0.313-0.313c-0.898,0-1.719,0.625-1.719,0.625l0.234-0.586c0,0-1.133,0.625-1.992,1.68C12.391,7.273,14.773,7.977,14.773,7.977z M22,5v14c0,1.657-1.343,3-3,3H5c-1.657,0-3-1.343-3-3V5c0-1.657,1.343-3,3-3h14C20.657,2,22,3.343,22,5z M18.328,13.953l-0.234-0.664c0,0,0.977-1.484-1.445-1.992c0,0,0.156-1.836-0.703-2.695c1.875-1.836,1.445-4.609-2.813-2.813c-2.188-4.18-10.625,5.625-7.109,7.188c-0.352,0.469-0.352,2.813,2.07,3.047c1.641,3.516,5.625,3.75,7.93,2.695S19.656,14.305,18.328,13.953z M14.5,17.859c-2.852-0.039-3.75-2.969-2.188-4.57c0.313-0.313-1.133-0.938-0.859-2.305c0.117-0.586,0.625-1.445,1.914-1.211s1.563-0.938,2.422-0.508s0.352,2.07,0.469,2.305s1.367,0.273,1.602,0.938s-1.602,2.109-4.453,1.719c-0.664-0.078-1.055,0.781-0.625,1.328c0.859,1.25,4.375,0.43,4.961-0.781c-1.484,1.133-4.531,1.563-4.766,0.352c0.859,0.391,2.305,0.156,2.305,0s-0.82,0.234-2.305-0.273c0.117-0.82,1.875,0.703,4.805-1.289l0.234,0.82C19.109,14.188,18.016,17.898,14.5,17.859z M15.711,11.922c-0.234,0-0.234,0.508,0,0.508v0.039C15.945,12.469,15.945,11.922,15.711,11.922z M15.477,11.609h0.313c0,0,0.156-1.172-0.352-1.133S15.477,11.609,15.477,11.609z M15.203,12.586c0.117-0.234-0.352-0.469-0.469-0.234S15.086,12.82,15.203,12.586z M13.953,12.234c-0.078-0.313-0.977,0.039-0.977,0.117s0.234-0.039,0.469-0.078S13.992,12.313,13.953,12.234z M13.133,11.766c0.508-0.078,0.82,0.703,0.859,0.156s-1.406-0.703-1.563-0.078C12.391,12,12.781,11.805,13.133,11.766z"/>
</svg>
