<svg version="1.1" id="master" xmlns="http://www.w3.org/2000/svg" xmlns:xlink="http://www.w3.org/1999/xlink" x="0px" y="0px" width="24px" height="24px" viewBox="0 0 24 24" enable-background="new 0 0 24 24" xml:space="preserve">
<rect fill="none" width="24" height="24"/>
<path fill="#FFE01B" d="M20.699,14.671l-0.323-0.916c0,0,1.347-2.045-1.992-2.746c0,0,0.216-2.53-0.969-3.714c2.584-2.53,1.992-6.353-3.877-3.877c-3.016-5.762-14.645,7.753-9.798,9.906c-0.485,0.646-0.485,3.878,2.853,4.199c2.262,4.848,7.753,5.17,10.931,3.716C20.7,19.785,22.529,15.154,20.699,14.671z M6.54,16.824c-2.746-0.27-3.016-4.038-0.646-4.414C8.263,12.034,8.854,17.04,6.54,16.824z M5.732,11.708c-0.754,0-1.669,1.022-1.669,1.022c-3.661-1.774,6.623-13.565,8.83-8.99C12.893,3.74,7.509,6.324,5.732,11.708z M12.193,5.463L11.87,6.271c0,0,1.132-0.862,2.369-0.862l-0.431,0.432C15.206,5.895,15.8,6.434,15.8,6.434s-3.284-0.971-6.353,1.344C10.631,6.324,12.193,5.463,12.193,5.463z M15.423,20.055c-3.931-0.054-5.169-4.092-3.016-6.3c0.432-0.431-1.562-1.292-1.184-3.177c0.161-0.808,0.861-1.992,2.638-1.669c1.775,0.322,2.152-1.293,3.338-0.7c1.185,0.592,0.484,2.853,0.646,3.177c0.16,0.324,1.885,0.376,2.206,1.294c0.326,0.916-2.206,2.906-6.136,2.368c-0.916-0.108-1.455,1.076-0.861,1.83c1.184,1.724,6.029,0.593,6.838-1.076c-2.047,1.563-6.246,2.154-6.569,0.485c1.185,0.54,3.178,0.216,3.178,0c0-0.214-1.131,0.32-3.178-0.375c0.161-1.131,2.584,0.969,6.622-1.777l0.322,1.131C21.775,14.994,20.27,20.107,15.423,20.055z M7.404,15.459c0.008,0.02,0.008,0.037,0.004,0.057c-0.013,0.047-0.089,0.055-0.384-0.091c-0.646-0.323,0.808-1.399-0.323-2.101c-1.13-0.697-1.777,1.023-1.508,1.185c0.269,0.162,0-1.075,0.969-0.754c0.969,0.323,0.161,1.615,0.539,1.886c0.314,0.224,0.681,0.037,0.708-0.125C7.412,15.503,7.412,15.48,7.404,15.459c-0.005-0.011,0.008-0.023-0.002-0.034C7.361,15.384,7.387,15.419,7.404,15.459z M17.092,11.871c-0.322,0-0.322,0.699,0,0.699v0.055C17.415,12.625,17.415,11.871,17.092,11.871z M16.77,11.439h0.433c0,0,0.214-1.615-0.486-1.562C16.016,9.932,16.77,11.439,16.77,11.439z M16.393,12.786c0.162-0.322-0.484-0.646-0.646-0.322C15.584,12.787,16.23,13.109,16.393,12.786z M14.669,12.301c-0.106-0.431-1.346,0.054-1.346,0.162c0,0.107,0.321-0.054,0.646-0.107C14.292,12.301,14.723,12.41,14.669,12.301z M13.538,11.656c0.7-0.108,1.131,0.969,1.185,0.215c0.055-0.754-1.938-0.969-2.154-0.108C12.516,11.979,13.055,11.71,13.538,11.656z"/>
</svg>
