<svg version="1.1" id="master" xmlns="http://www.w3.org/2000/svg" xmlns:xlink="http://www.w3.org/1999/xlink" x="0px" y="0px" width="24px" height="24px" viewBox="0 0 24 24" enable-background="new 0 0 24 24" xml:space="preserve">
<rect fill="none" width="24" height="24"/>
<path d="M11.149,14.452h1.708l2.025,3.131h-1.711l-0.22-0.341h-1.898l-0.22,0.342H9.123L11.149,14.452z M12.003,15.759l-0.382,0.593h0.763L12.003,15.759L12.003,15.759z M2,16.477C2,10.919,6.477,6.416,12,6.416s10,4.504,10,10.062c0,0.374-0.02,0.743-0.061,1.106h-1.123c0.045-0.363,0.068-0.731,0.068-1.106c0-4.937-3.978-8.939-8.885-8.939c-4.908,0-8.884,4.002-8.884,8.939c0,0.375,0.023,0.743,0.067,1.106H2.061C2.021,17.216,2,16.847,2,16.477z M3.864,14.45h1.525l1.017,1.024l1.017-1.022h1.526v3.131H7.302v-1.15l-0.896,0.902L5.51,16.433v1.15H3.864v-3.131V14.45z M15.048,14.45h1.605l1.809,1.352V14.45h1.646v3.133h-1.618l-1.797-1.337v1.337h-1.646L15.048,14.45z"/>
</svg>
