<svg version="1.1" id="master" xmlns="http://www.w3.org/2000/svg" xmlns:xlink="http://www.w3.org/1999/xlink" x="0px" y="0px" width="24px" height="24px" viewBox="0 0 24 24" enable-background="new 0 0 24 24" xml:space="preserve">
<rect fill="none" width="24" height="24"/>
<path d="M2,10.221v4.284h19.931c-0.086-0.417-0.237-0.8-0.452-1.147c-0.216-0.349-0.478-0.65-0.786-0.905c-0.308-0.255-0.655-0.454-1.043-0.596s-0.794-0.214-1.218-0.214h-2.147l-0.666-0.666l-1.432,1.432c-0.099,0.099-0.215,0.175-0.348,0.229c-0.133,0.053-0.269,0.079-0.407,0.079c-0.305,0-0.561-0.103-0.766-0.308s-0.309-0.461-0.309-0.766c0-0.139,0.027-0.275,0.08-0.408c0.053-0.132,0.129-0.249,0.229-0.348l1.432-1.432l-0.627-0.626L12.04,10.26c-0.1,0.1-0.216,0.178-0.349,0.234c-0.132,0.056-0.268,0.084-0.407,0.084c-0.146,0-0.283-0.028-0.412-0.084c-0.13-0.056-0.244-0.134-0.343-0.234c-0.1-0.099-0.178-0.213-0.234-0.343c-0.056-0.129-0.084-0.267-0.084-0.413c0-0.146,0.028-0.285,0.084-0.417c0.057-0.132,0.135-0.249,0.234-0.348l1.431-1.422l-0.676-0.676c-0.298,0-0.576,0.056-0.835,0.169S9.964,7.078,9.769,7.273s-0.35,0.422-0.462,0.681c-0.113,0.259-0.17,0.537-0.17,0.835c0,0.298-0.056,0.577-0.169,0.835c-0.112,0.259-0.265,0.486-0.457,0.681s-0.417,0.35-0.676,0.462S7.298,10.937,7,10.937H3.7c-0.159-0.332-0.318-0.661-0.478-0.989S2.895,9.296,2.716,8.978C2.49,9.104,2.314,9.28,2.188,9.505C2.063,9.73,2,9.969,2,10.221z M7.716,15.937h2.137l1.432,1.421H22v-2.137H2v2.137h4.284L7.716,15.937z M3.422,8.789l0.715,1.432H7c0.199,0,0.385-0.038,0.557-0.114S7.88,9.927,8.009,9.798c0.129-0.129,0.23-0.28,0.304-0.453c0.072-0.172,0.109-0.357,0.109-0.557H3.422z M11.284,9.863c0.093,0,0.176-0.036,0.249-0.109l1.431-1.431c0.073-0.073,0.109-0.156,0.109-0.249s-0.036-0.176-0.109-0.249c-0.072-0.073-0.155-0.109-0.248-0.109c-0.1,0-0.186,0.036-0.259,0.109l-1.421,1.421c-0.073,0.073-0.109,0.159-0.109,0.258c0,0.093,0.036,0.176,0.109,0.249C11.108,9.827,11.191,9.863,11.284,9.863z M13.432,12c0.1,0,0.182-0.033,0.248-0.1l1.432-1.431c0.066-0.066,0.1-0.149,0.1-0.249c0-0.106-0.033-0.192-0.1-0.258c-0.066-0.066-0.152-0.1-0.259-0.1c-0.099,0-0.182,0.033-0.248,0.1l-1.432,1.431c-0.066,0.066-0.1,0.149-0.1,0.249c0,0.106,0.033,0.192,0.1,0.258C13.239,11.967,13.325,12,13.432,12z"/>
</svg>
