<svg version="1.1" id="master" xmlns="http://www.w3.org/2000/svg" xmlns:xlink="http://www.w3.org/1999/xlink" x="0px" y="0px"
	 width="24px" height="24px" viewBox="0 0 24 24" enable-background="new 0 0 24 24" xml:space="preserve">
<rect fill="none" width="24" height="24"/>
<path d="M17,2.741l-5,2.137L7,2.741L2,4.878V21.26l5-2.146l5,2.146l5-2.146l5,2.146V4.878L17,2.741z M6.284,16.975l-2.147,0.895
	v-1.432l2.147-0.895V16.975z M10.207,8.406c-0.09,0.093-0.171,0.192-0.244,0.298c-0.073,0.107-0.11,0.243-0.11,0.408V9.47
	c0,0.1-0.034,0.184-0.104,0.253C9.68,9.792,9.596,9.827,9.496,9.827c-0.093,0-0.164-0.021-0.214-0.065
	C9.231,9.72,9.195,9.667,9.172,9.604S9.134,9.472,9.127,9.396c-0.006-0.076-0.01-0.147-0.01-0.213c0-0.146,0.007-0.29,0.02-0.433
	c0.013-0.143,0.02-0.287,0.02-0.433c0-0.066-0.004-0.136-0.01-0.208C9.14,8.036,9.124,7.967,9.097,7.904
	C9.07,7.841,9.034,7.789,8.988,7.746C8.941,7.703,8.875,7.681,8.789,7.681c-0.112,0-0.192,0.035-0.238,0.104
	c-0.047,0.07-0.08,0.158-0.1,0.264S8.416,8.271,8.406,8.396c-0.01,0.126-0.034,0.242-0.074,0.348S8.226,8.938,8.133,9.007
	C8.04,9.078,7.901,9.111,7.716,9.111H7.487c-0.119,0-0.23,0.02-0.333,0.06C7.052,9.211,7,9.311,7,9.47
	c0,0.1,0.035,0.184,0.104,0.253c0.069,0.07,0.154,0.104,0.253,0.104c0.126,0,0.211-0.037,0.254-0.109
	c0.043-0.072,0.078-0.154,0.104-0.244c0.026-0.09,0.06-0.172,0.1-0.249c0.039-0.075,0.126-0.113,0.258-0.113
	c0.1,0,0.185,0.035,0.254,0.104c0.069,0.07,0.105,0.155,0.105,0.254c0,0.126,0.036,0.21,0.109,0.253
	C8.613,9.766,8.695,9.8,8.784,9.827c0.09,0.026,0.171,0.061,0.244,0.104c0.072,0.043,0.108,0.127,0.108,0.253
	c0,0.093-0.034,0.175-0.104,0.249c-0.07,0.073-0.151,0.109-0.244,0.109c-0.152,0-0.293,0.028-0.422,0.084
	c-0.13,0.056-0.242,0.132-0.338,0.229C7.933,10.953,7.856,11.066,7.8,11.2c-0.056,0.133-0.084,0.272-0.084,0.417
	c0,0.1-0.035,0.184-0.104,0.253c-0.069,0.07-0.154,0.104-0.254,0.104c-0.132,0-0.218-0.036-0.258-0.109
	C7.06,11.792,7.027,11.71,7,11.621c-0.026-0.089-0.062-0.172-0.104-0.249c-0.043-0.076-0.128-0.114-0.253-0.114
	c-0.1,0-0.185,0.035-0.254,0.104c-0.069,0.07-0.104,0.154-0.104,0.253c0,0.133,0.036,0.219,0.109,0.259
	c0.073,0.04,0.154,0.073,0.243,0.099c0.09,0.026,0.173,0.062,0.249,0.104C6.962,12.119,7,12.207,7,12.333
	c0,0.1,0.035,0.185,0.104,0.253c0.069,0.07,0.154,0.105,0.253,0.105h0.527c0.139,0,0.252,0.006,0.338,0.02
	c0.086,0.014,0.169,0.041,0.248,0.084c0.08,0.043,0.166,0.109,0.259,0.199c0.093,0.09,0.216,0.211,0.368,0.363l0.039,0.039
	C9.25,13.51,9.338,13.617,9.4,13.721c0.063,0.102,0.095,0.232,0.095,0.393c0,0.125-0.026,0.238-0.08,0.338
	c-0.053,0.1-0.119,0.193-0.198,0.283c-0.08,0.09-0.164,0.182-0.254,0.277c-0.089,0.096-0.174,0.203-0.253,0.318
	c-0.08,0.115-0.146,0.248-0.199,0.396c-0.053,0.148-0.079,0.328-0.079,0.531v0.717c-0.199,0-0.368-0.068-0.507-0.209
	c-0.14-0.141-0.209-0.309-0.209-0.508v-1.072c0-0.166-0.038-0.303-0.114-0.408s-0.159-0.207-0.249-0.303
	c-0.089-0.098-0.17-0.197-0.243-0.305C7.037,14.064,7,13.926,7,13.754v-0.357c0-0.066,0.019-0.109,0.055-0.129
	c0.036-0.02,0.078-0.037,0.124-0.051c0.047-0.012,0.088-0.029,0.124-0.049c0.037-0.02,0.055-0.061,0.055-0.119
	c0-0.1-0.034-0.184-0.104-0.254C7.184,12.727,7.1,12.691,7,12.691c-0.199,0-0.385-0.039-0.557-0.115
	c-0.172-0.077-0.323-0.18-0.452-0.308c-0.129-0.129-0.232-0.28-0.309-0.453c-0.076-0.172-0.114-0.358-0.114-0.557V9.828
	c0-0.199-0.069-0.368-0.209-0.507C5.221,9.182,5.052,9.111,4.853,9.111c-0.172,0-0.31,0.038-0.412,0.114
	c-0.102,0.076-0.2,0.159-0.293,0.249c-0.093,0.09-0.193,0.171-0.299,0.244C3.743,9.792,3.601,9.828,3.422,9.828v-0.04
	C3.428,9.668,3.47,9.59,3.546,9.555c0.076-0.036,0.157-0.066,0.243-0.089c0.086-0.023,0.166-0.055,0.239-0.095
	C4.1,9.331,4.136,9.246,4.136,9.112V8.725c0-0.125,0.007-0.252,0.021-0.378C4.17,8.221,4.202,8.107,4.252,8.008
	C4.301,7.91,4.372,7.83,4.465,7.771c0.093-0.059,0.223-0.089,0.388-0.089c0.173,0,0.31,0.038,0.413,0.114
	c0.103,0.076,0.2,0.159,0.293,0.249c0.093,0.089,0.192,0.17,0.298,0.243c0.106,0.072,0.248,0.108,0.427,0.108
	c0.133,0,0.221-0.036,0.264-0.109c0.043-0.073,0.076-0.154,0.1-0.243c0.022-0.09,0.055-0.172,0.094-0.249
	C6.781,7.718,6.867,7.681,7,7.681c0.179,0,0.321-0.037,0.428-0.109c0.105-0.073,0.205-0.154,0.298-0.244
	c0.093-0.09,0.19-0.17,0.293-0.244c0.104-0.073,0.24-0.109,0.413-0.109h1.421c0.192,0,0.359,0.07,0.502,0.209
	s0.214,0.305,0.214,0.497c0,0.179-0.038,0.321-0.114,0.427S10.296,8.313,10.207,8.406z M19.145,15.9
	c0,0.101-0.035,0.186-0.104,0.254c-0.068,0.07-0.154,0.104-0.254,0.104c-0.086,0-0.155-0.019-0.209-0.055
	c-0.053-0.037-0.102-0.078-0.148-0.125c-0.046-0.046-0.096-0.088-0.148-0.124S18.159,15.9,18.072,15.9
	c-0.086,0-0.155,0.019-0.208,0.055c-0.054,0.036-0.104,0.078-0.149,0.124c-0.046,0.047-0.096,0.088-0.148,0.125
	c-0.053,0.036-0.123,0.055-0.209,0.055c-0.1,0-0.185-0.034-0.254-0.104C17.035,16.086,17,16.001,17,15.9
	c0-0.145,0.027-0.283,0.085-0.416c0.056-0.133,0.132-0.246,0.229-0.344c0.096-0.096,0.207-0.172,0.338-0.229
	c0.129-0.057,0.27-0.084,0.422-0.084h0.357c0.198,0,0.367,0.068,0.504,0.209c0.14,0.139,0.209,0.309,0.209,0.507V15.9z
	 M19.044,14.011c-0.069,0.07-0.153,0.104-0.254,0.104c-0.086,0-0.155-0.02-0.209-0.055c-0.052-0.037-0.103-0.078-0.147-0.125
	c-0.047-0.047-0.097-0.088-0.149-0.125c-0.054-0.035-0.122-0.055-0.209-0.055c-0.086,0-0.155,0.02-0.208,0.055
	c-0.053,0.037-0.104,0.078-0.149,0.125s-0.096,0.088-0.149,0.125c-0.053,0.035-0.121,0.055-0.209,0.055
	c-0.145,0-0.282-0.028-0.411-0.086c-0.13-0.055-0.243-0.131-0.343-0.229c-0.1-0.096-0.178-0.209-0.233-0.338
	c-0.058-0.129-0.085-0.266-0.085-0.412c0-0.1,0.035-0.184,0.104-0.254c0.069-0.07,0.154-0.104,0.254-0.104
	c0.125,0,0.211,0.035,0.254,0.108c0.041,0.072,0.078,0.153,0.104,0.243c0.025,0.089,0.061,0.171,0.104,0.243
	c0.043,0.073,0.129,0.108,0.254,0.108c0.086,0,0.156-0.018,0.209-0.055c0.052-0.035,0.102-0.076,0.148-0.119
	c0.045-0.043,0.096-0.082,0.149-0.119c0.053-0.037,0.122-0.055,0.208-0.055c0.08,0,0.146,0.016,0.199,0.045s0.104,0.07,0.158,0.124
	c0.053,0.054,0.121,0.093,0.203,0.119c0.083,0.026,0.163,0.056,0.239,0.085s0.142,0.069,0.194,0.122
	c0.054,0.049,0.08,0.121,0.08,0.213C19.148,13.857,19.113,13.941,19.044,14.011z M19.148,9.47c0,0.1-0.035,0.184-0.104,0.253
	c-0.069,0.07-0.153,0.104-0.254,0.104c-0.133,0-0.22-0.037-0.258-0.109c-0.04-0.073-0.073-0.154-0.101-0.244
	c-0.027-0.09-0.062-0.172-0.104-0.249c-0.042-0.077-0.128-0.114-0.254-0.114c-0.152,0-0.25,0.048-0.293,0.144
	c-0.043,0.096-0.064,0.21-0.064,0.343v0.229c0,0.133,0.036,0.219,0.109,0.258c0.072,0.04,0.154,0.073,0.242,0.1
	c0.091,0.026,0.174,0.061,0.25,0.104s0.113,0.128,0.113,0.254c0,0.172-0.037,0.312-0.113,0.417s-0.159,0.207-0.25,0.303
	c-0.088,0.096-0.17,0.197-0.242,0.303c-0.073,0.106-0.109,0.242-0.109,0.408c0,0.1-0.035,0.184-0.104,0.253
	c-0.069,0.07-0.154,0.104-0.254,0.104s-0.185,0.035-0.254,0.104C17.035,12.507,17,12.592,17,12.691c-0.126,0-0.21-0.037-0.254-0.109
	c-0.043-0.073-0.077-0.155-0.104-0.244c-0.027-0.089-0.063-0.172-0.104-0.249c-0.042-0.077-0.128-0.114-0.254-0.114
	c-0.198,0-0.368,0.07-0.507,0.209c-0.141,0.139-0.209,0.308-0.209,0.507c-0.127,0-0.211-0.037-0.254-0.109
	c-0.043-0.073-0.078-0.155-0.104-0.244s-0.063-0.172-0.104-0.249c-0.043-0.077-0.129-0.114-0.254-0.114
	c-0.127,0-0.209,0.038-0.248,0.114c-0.041,0.076-0.073,0.159-0.101,0.249c-0.026,0.09-0.062,0.171-0.104,0.244
	c-0.043,0.072-0.127,0.109-0.252,0.109c0,0.19-0.039,0.336-0.114,0.432c-0.076,0.096-0.159,0.188-0.249,0.273
	s-0.171,0.188-0.243,0.309c-0.073,0.119-0.108,0.301-0.108,0.547v0.219c0,0.146-0.029,0.283-0.086,0.412
	c-0.056,0.129-0.134,0.244-0.232,0.344c-0.1,0.1-0.215,0.176-0.344,0.232s-0.267,0.085-0.413,0.085
	c-0.099,0-0.184-0.035-0.253-0.104C12.035,15.369,12,15.285,12,15.186v-1.072c0-0.192-0.071-0.359-0.214-0.502
	c-0.143-0.144-0.31-0.215-0.502-0.215c-0.192,0-0.359-0.068-0.502-0.209c-0.143-0.139-0.214-0.305-0.214-0.496
	c0-0.198,0.037-0.384,0.109-0.557c0.073-0.172,0.174-0.323,0.304-0.452c0.129-0.129,0.281-0.232,0.457-0.309
	C11.614,11.298,11.8,11.26,12,11.26v-0.179c-0.1,0.119-0.219,0.179-0.357,0.179c-0.1,0-0.185-0.035-0.254-0.104
	c-0.069-0.07-0.104-0.154-0.104-0.254c0-0.073,0.03-0.132,0.09-0.179c0.06-0.047,0.089-0.106,0.089-0.179
	c0-0.073-0.029-0.133-0.089-0.179c-0.06-0.046-0.09-0.106-0.09-0.179c0-0.126,0.036-0.21,0.109-0.253
	c0.073-0.043,0.154-0.078,0.243-0.104c0.09-0.026,0.173-0.06,0.249-0.1C11.962,9.689,12,9.603,12,9.47
	c0-0.1,0.035-0.184,0.104-0.253c0.069-0.07,0.154-0.104,0.253-0.104c0.1,0,0.185-0.035,0.254-0.104
	c0.068-0.069,0.104-0.154,0.104-0.253c0-0.099,0.035-0.184,0.104-0.253c0.07-0.069,0.154-0.104,0.254-0.104
	c0.06,0,0.109,0.014,0.148,0.04c0.04,0.026,0.078,0.058,0.114,0.094c0.036,0.037,0.076,0.068,0.119,0.095s0.095,0.04,0.153,0.04
	c0.066,0,0.113-0.01,0.14-0.03s0.062-0.046,0.101-0.08l0.029-0.02c0.053-0.046,0.116-0.081,0.188-0.104
	c0.074-0.023,0.142-0.046,0.205-0.07c0.063-0.023,0.116-0.058,0.164-0.104c0.045-0.046,0.068-0.119,0.068-0.219
	c0-0.125,0.036-0.21,0.109-0.253c0.072-0.043,0.154-0.076,0.242-0.099c0.09-0.023,0.172-0.055,0.244-0.095
	c0.072-0.04,0.109-0.125,0.109-0.258c0-0.1,0.034-0.184,0.104-0.253c0.069-0.07,0.153-0.104,0.254-0.104
	c0.172,0,0.31,0.037,0.412,0.109c0.104,0.073,0.2,0.154,0.293,0.244c0.094,0.09,0.192,0.17,0.299,0.244
	C16.68,7.645,16.82,7.681,17,7.681s0.32-0.037,0.428-0.109c0.105-0.073,0.205-0.154,0.299-0.244c0.092-0.09,0.189-0.17,0.293-0.244
	c0.104-0.073,0.239-0.109,0.412-0.109c0.192,0,0.359,0.07,0.502,0.209c0.144,0.139,0.215,0.305,0.215,0.497V9.47z"/>
</svg>
