<svg version="1.1" id="master" xmlns="http://www.w3.org/2000/svg" xmlns:xlink="http://www.w3.org/1999/xlink" x="0px" y="0px" width="24px" height="24px" viewBox="0 0 24 24" enable-background="new 0 0 24 24" xml:space="preserve">
<rect fill="none" width="24" height="24"/>
<path d="M21.036,7.749c-0.659-1.422-1.646-2.668-2.881-3.635l0.104,2.146l0.115,0.151c1.27,1.691,1.749,3.847,1.317,5.917c-0.785,4.09-4.739,6.768-8.83,5.981c-0.166-0.032-0.33-0.068-0.493-0.112C6.63,17.259,4.13,13.426,4.838,9.635c0.557-2.995,2.328-4.989,5.203-6l0.104-0.041l0.084-0.063l1.046-1.51c-4.873,0.33-8.784,4.151-9.229,9.015C1.555,16.117,4.98,20.75,9.983,21.77c5.054,1.051,10.072-1.934,11.563-6.875c0.745-2.432,0.572-4.833-0.505-7.15L21.036,7.749z M8.745,10.963c0.192,1.995,1.966,3.457,3.961,3.265c0.044-0.004,0.085-0.01,0.127-0.016c1.998-0.249,3.415-2.072,3.165-4.069c-0.007-0.055-0.015-0.11-0.024-0.165c-0.297-1.573-0.631-3.141-0.947-4.708l-0.407-1.984l-0.104,0.088l-2.094,2.057l-2.552,2.5c-0.838,0.772-1.255,1.9-1.12,3.032H8.745z"/>
</svg>
