<svg version="1.1" id="master" xmlns="http://www.w3.org/2000/svg" xmlns:xlink="http://www.w3.org/1999/xlink" x="0px" y="0px" width="24px" height="24px" viewBox="0 0 24 24" enable-background="new 0 0 24 24" xml:space="preserve">
<rect fill="none" width="24" height="24"/>
<path d="M16.369,4.505c1.722,0,3.118,7.262,3.118,16.231H22c0-9.656-2.535-17.473-5.638-17.473c-1.772,0-3.341,2.342-4.374,6.022c-1.034-3.681-2.601-6.022-4.359-6.022C4.526,3.264,2,11.073,2,20.73h2.512c0-8.97,1.381-16.226,3.103-16.226c1.722,0,3.118,6.709,3.118,14.983h2.498c0-8.274,1.403-14.983,3.125-14.983H16.369z"/>
</svg>
