<svg version="1.1" id="master" xmlns="http://www.w3.org/2000/svg" xmlns:xlink="http://www.w3.org/1999/xlink" x="0px" y="0px" width="24px" height="24px" viewBox="0 0 24 24" enable-background="new 0 0 24 24" xml:space="preserve">
<rect fill="none" width="24" height="24"/>
<path d="M2,2v20h20V2H2z M10.803,6.141c0.557-0.039,0.835,0.055,1.326,0.202l0.363,0.108l0.126,0.039l0.464,0.142c0.305,0.083,0.624,0.087,0.93,0.014c0.414-0.109,0.855-0.058,1.233,0.145c0.341,0.194,0.569,0.54,0.614,0.929c0.04,0.344,0.24,0.65,0.54,0.824c0.447,0.244,0.913,0.448,1.394,0.613c0.339,0.13,0.679,0.276,1.016,0.407c0.166,0.064,0.314,0.169,0.428,0.308c0.096,0.116,0.153,0.259,0.164,0.408c0.021,0.299,0.057,0.602,0.072,0.903h-0.002c0.023,0.417-0.066,0.831-0.264,1.199c-0.072,0.137-0.152,0.268-0.22,0.405c-0.09,0.207-0.305,0.332-0.528,0.307c-0.084-0.004-0.166,0.022-0.231,0.074c-0.205,0.135-0.414,0.268-0.625,0.393c-0.292,0.161-0.642,0.18-0.95,0.051c-0.508-0.193-1.047-0.293-1.591-0.293c-0.547-0.018-1.07,0.222-1.417,0.646c-0.14,0.194-0.246,0.411-0.316,0.641c-0.186,0.459-0.345,3.199-0.345,3.896c0,0-2.634-0.512-5.108-3.043l0.645-1.692H6.5l1.462-1.546H5.45l1.46-1.548H4.524l2.656-2.819c0.814-0.808,1.839-1.371,2.958-1.625C10.403,6.182,10.618,6.153,10.803,6.141z"/>
</svg>
