<svg version="1.1" id="master" xmlns="http://www.w3.org/2000/svg" xmlns:xlink="http://www.w3.org/1999/xlink" x="0px" y="0px"
	 width="24px" height="24px" viewBox="0 0 24 24" enable-background="new 0 0 24 24" xml:space="preserve">
<rect fill="none" width="24" height="24"/>
<path d="M10.399,3.737c0.744-0.052,1.117,0.074,1.773,0.27l0.485,0.145l0.17,0.051l0.62,0.189c0.408,0.11,0.835,0.117,1.244,0.019
	c0.554-0.146,1.145-0.077,1.649,0.194c0.456,0.26,0.762,0.723,0.822,1.243c0.054,0.46,0.321,0.87,0.723,1.103
	c0.598,0.327,1.221,0.6,1.864,0.821c0.453,0.174,0.907,0.369,1.358,0.544c0.222,0.085,0.421,0.226,0.572,0.412
	c0.128,0.155,0.205,0.346,0.22,0.546c0.028,0.4,0.075,0.805,0.097,1.208h-0.003c0.031,0.558-0.089,1.111-0.353,1.604
	c-0.097,0.184-0.204,0.358-0.294,0.541c-0.12,0.277-0.408,0.444-0.707,0.41c-0.112-0.005-0.222,0.03-0.31,0.1
	c-0.274,0.18-0.554,0.357-0.836,0.525c-0.391,0.215-0.858,0.24-1.271,0.067c-0.68-0.259-1.4-0.392-2.128-0.392
	c-0.731-0.023-1.432,0.297-1.896,0.865c-0.188,0.26-0.329,0.55-0.424,0.856c-0.248,0.614-0.461,4.28-0.461,5.213
	c0,0-3.524-0.685-6.834-4.071l0.863-2.264H4.643l1.956-2.068h-3.36l1.953-2.072H2l3.554-3.772c1.089-1.081,2.46-1.834,3.957-2.174
	C9.865,3.792,10.152,3.754,10.399,3.737z"/>
</svg>
