<svg version="1.1" id="master" xmlns="http://www.w3.org/2000/svg" xmlns:xlink="http://www.w3.org/1999/xlink" x="0px" y="0px"
	 width="24px" height="24px" viewBox="0 0 24 24" enable-background="new 0 0 24 24" xml:space="preserve">
<rect fill="none" width="24" height="24"/>
<path d="M2,2v20h20V2H2z M18.614,6.738l-1.072,1.028c-0.093,0.071-0.139,0.187-0.119,0.302v7.557c-0.02,0.113,0.027,0.229,0.119,0.3
	l1.048,1.028v0.226h-5.269v-0.225l1.086-1.055c0.105-0.106,0.105-0.137,0.105-0.299V9.492l-3.016,7.663h-0.408L7.575,9.492v5.135
	c-0.029,0.217,0.042,0.434,0.194,0.589l1.412,1.713v0.226H5.179V16.93l1.412-1.714c0.151-0.156,0.219-0.374,0.182-0.589V8.689
	C6.79,8.524,6.728,8.361,6.604,8.25L5.349,6.738V6.513h3.895l3.011,6.602l2.647-6.603h3.712V6.738z"/>
</svg>
