<svg version="1.1" id="master" xmlns="http://www.w3.org/2000/svg" xmlns:xlink="http://www.w3.org/1999/xlink" x="0px" y="0px" width="24px" height="24px" viewBox="0 0 24 24" enable-background="new 0 0 24 24" xml:space="preserve">
<rect fill="none" width="24" height="24"/>
<path d="M21.98,10.441c0.039,0.597-0.067,1.197-0.291,1.773c-0.558,1.449-1.575,2.422-3.055,2.906c-0.845,0.276-1.711,0.282-2.576,0.165c-0.484-0.064-0.971-0.168-1.435-0.317c-0.29-0.093-0.565-0.274-0.806-0.47c-0.295-0.243-0.273-0.557-0.017-0.84c0.658-0.727,0.868-1.812,0.416-2.722c-0.594-1.193-2.095-1.792-3.37-1.098c-0.799,0.435-1.262,1.124-1.284,2.049c-0.031,1.281,0.42,2.394,1.248,3.36c1.163,1.356,2.668,2.088,4.406,2.36c1.671,0.263,3.267-0.004,4.779-0.76c0.157-0.078,0.298-0.076,0.424,0.051c0.123,0.123,0.147,0.295,0.033,0.455c-0.306,0.426-0.604,0.861-0.945,1.26c-0.856,0.996-1.891,1.77-3.067,2.352c-1.082,0.535-2.228,0.848-3.428,0.979c-1.203,0.133-2.386,0.027-3.551-0.275c-1.385-0.359-2.644-0.986-3.753-1.893c-1.603-1.311-2.708-2.959-3.292-4.946c-0.21-0.716-0.324-1.447-0.381-2.19c-0.096-1.256,0.073-2.477,0.442-3.671c0.317-1.029,0.806-1.975,1.438-2.85c0.667-0.922,1.472-1.701,2.4-2.351c0.658-0.46,1.37-0.825,2.121-1.112c0.866-0.331,1.764-0.529,2.683-0.613c1.21-0.11,2.408-0.002,3.59,0.276c1.155,0.272,2.246,0.706,3.248,1.347c0.721,0.46,1.366,1.008,1.939,1.647c0.729,0.812,1.265,1.733,1.656,2.742C21.852,8.812,22.018,9.598,21.98,10.441z"/>
</svg>
