<svg version="1.1" id="master" xmlns="http://www.w3.org/2000/svg" xmlns:xlink="http://www.w3.org/1999/xlink" x="0px" y="0px" width="24px" height="24px" viewBox="0 0 24 24" enable-background="new 0 0 24 24" xml:space="preserve">
<rect fill="none" width="24" height="24"/>
<path d="M19.757,5.695v12.592c0,0.955-0.651,1.787-1.585,2.035l-5.776,1.621l0.008-0.017c-0.533,0.136-1.116,0.096-1.665-0.206l-3.472-2.225c-0.401-0.232-0.619-0.731-0.482-1.229c0.126-0.463,0.561-0.758,1.018-0.758h6.448V5.65L9.229,7.395C8.637,7.63,8.247,8.217,8.247,8.871v5.876c0,0.567-0.295,1.091-0.773,1.374l-1.702,0.75c-0.682,0.402-1.529-0.106-1.529-0.916V7.45c0-0.769,0.406-1.476,1.059-1.847l5.92-3.347c0.478-0.271,0.991-0.311,1.459-0.193l-0.005-0.012l0.084,0.024c0.011,0.003,0.022,0.007,0.034,0.01l5.403,1.58C19.12,3.92,19.757,4.75,19.757,5.695z"/>
</svg>
