<svg version="1.1" id="master" xmlns="http://www.w3.org/2000/svg" xmlns:xlink="http://www.w3.org/1999/xlink" x="0px" y="0px" width="24px" height="24px" viewBox="0 0 24 24" enable-background="new 0 0 24 24" xml:space="preserve">
<rect fill="none" width="24" height="24"/>
<path fill="#1976D2" d="M12.785,8.075c-2.814-0.539-5.249,1.896-4.71,4.71c0.301,1.572,1.569,2.84,3.142,3.14c2.813,0.536,5.244-1.896,4.708-4.708C15.625,9.645,14.357,8.376,12.785,8.075z M12,13.5c-0.829,0-1.5-0.672-1.5-1.5c0-0.829,0.671-1.5,1.5-1.5c0.828,0,1.5,0.671,1.5,1.5C13.5,12.828,12.828,13.5,12,13.5z M19.004,4.868L15.9,7.2L17.1,8.8l1.574-1.181C19.506,8.878,20,10.378,20,12c0,4.418-3.582,8-8,8c-4.418,0-8-3.582-8-8c0-4.418,3.582-8,8-8c1.311,0,2.543,0.321,3.635,0.879l1.748-1.298C15.828,2.585,13.984,2,12,2C6.477,2,2,6.477,2,12c0,5.523,4.477,10,10,10c5.523,0,10-4.477,10-10C22,9.206,20.852,6.683,19.004,4.868z"/>
</svg>
