<svg version="1.1" id="master" xmlns="http://www.w3.org/2000/svg" xmlns:xlink="http://www.w3.org/1999/xlink" x="0px" y="0px" width="24px" height="24px" viewBox="0 0 24 24" enable-background="new 0 0 24 24" xml:space="preserve">
<rect fill="none" width="24" height="24"/>
<path d="M22,8.684v11.043c-0.811-0.249-4.386-1.296-9.524-1.296c-2.394,0-4.688,0.253-6.579,0.545c5.37-1.639,11.327-1.497,11.327-1.497c0.128,0.003,0.253-0.045,0.346-0.135c0.093-0.089,0.145-0.214,0.145-0.342v-4.383C19.232,11.502,20.67,10.172,22,8.684z M16.762,16.525v-4.04c-0.013-0.062-0.013-0.124,0-0.186V6.116c-0.142,0.261-0.068,0.207-0.264,0.52C15.639,8.011,14.223,9.868,12,11.87v3.227c0,0.218-0.147,0.408-0.357,0.462c0,0-2.805,0.736-5.9,2.435C10.663,16.482,15.778,16.507,16.762,16.525z M11.048,11.771c-0.013-0.065-0.013-0.133,0-0.195V4.273c-0.376,1.081-0.778,2.245-1.427,3.67C8.023,11.455,5.551,15.573,2,18.168v1.243c4.001-3.19,8.529-4.51,9.048-4.648V11.771z"/>
</svg>
