<svg version="1.1" id="master" xmlns="http://www.w3.org/2000/svg" xmlns:xlink="http://www.w3.org/1999/xlink" x="0px" y="0px" width="24px" height="24px" viewBox="0 0 24 24" enable-background="new 0 0 24 24" xml:space="preserve">
<rect fill="none" width="24" height="24"/>
<path d="M14.174,7.611h0.652c0.044,0,0.133,0.037,0.177,0.081l0.991,1.006c0.087,0.087,0.087,0.172,0,0.258L15.655,9.31c-0.087,0.087-0.172,0.087-0.259,0l-0.489-0.435h-0.733v2.378c0.837,0.781,1.663,1.354,1.44,1.576c-0.143,0.143-0.768-0.163-1.44-0.612v2.908h0.476c1.26-0.914,2.305-2.601,2.608-2.296c0.391,0.304-2.087,3.475-2.391,3.519h-0.693v1.305H22V6.348h-7.826V7.611z M20.655,16.131c0,0.13-0.128,0.258-0.259,0.258h-2.527c-0.044,0-0.132-0.037-0.176-0.082l-0.992-1.005c-0.087-0.087-0.087-0.172,0-0.258l0.34-0.354c0.086-0.087,0.171-0.087,0.258,0l0.489,0.435h1.644v-1.386c-0.913-1.261-2.654-2.265-2.351-2.568c0.022-0.022,0.066-0.025,0.109-0.027c0.64-0.021,3.465,2.093,3.465,2.419V16.131z M17.788,7.652h2.649c0.131,0,0.258,0.125,0.258,0.299v2.445c0,0.044-0.037,0.119-0.081,0.163l-1.006,1.006c-0.086,0.086-0.171,0.086-0.258,0l-0.354-0.354c-0.086-0.087-0.086-0.172,0-0.259l0.435-0.435V8.875h-1.426c-1.261,0.913-2.305,2.6-2.609,2.296C15.049,10.867,17.484,7.696,17.788,7.652z M2,19.731l11.305,2.188v-3.737c-0.013-0.058-0.013-0.118,0-0.176V6.035c-0.025-0.085-0.025-0.173,0-0.258V2.081L2,4.228V19.731z M5.519,8.005L9.473,7.57v1.604L7.041,9.351v1.82L9.31,11.13v1.563l-2.269-0.041v1.875l2.568,0.122v1.617l-4.09-0.395V8.005z"/>
</svg>
