<svg version="1.1" id="master" xmlns="http://www.w3.org/2000/svg" xmlns:xlink="http://www.w3.org/1999/xlink" x="0px" y="0px"
	 width="24px" height="24px" viewBox="0 0 24 24" enable-background="new 0 0 24 24" xml:space="preserve">
<rect fill="none" width="24" height="24"/>
<path d="M18.161,15.332l-1.265-1.265c0.43-0.753,0.682-1.628,0.682-2.593h1.791C19.369,12.897,18.916,14.219,18.161,15.332z
	 M15.146,11.474l0.012-6.316C15.158,3.41,13.748,2,12,2c-1.748,0-3.158,1.41-3.158,3.158v0.855l6.208,6.208
	C15.107,11.98,15.146,11.733,15.146,11.474z M20.585,20.586l-3.764-3.764l0.001-0.001l-1.236-1.235c0,0,0,0-0.001,0l-1.642-1.642
	c0.001,0,0.001,0,0.001,0L8.842,8.842v0.001L3.414,3.415L2,4.829l6.864,6.864c0.109,1.569,1.347,2.808,2.917,2.916l1.951,1.951
	c-0.555,0.176-1.136,0.281-1.731,0.281c-2.905,0-5.579-2.21-5.579-5.368h-1.79c0,3.6,2.863,6.559,6.316,7.074V22h2.105v-3.452
	c0.715-0.104,1.402-0.318,2.046-0.62L19.171,22L20.585,20.586z"/>
</svg>
