<svg version="1.1" id="master" xmlns="http://www.w3.org/2000/svg" xmlns:xlink="http://www.w3.org/1999/xlink" x="0px" y="0px" width="24px" height="24px" viewBox="0 0 24 24" enable-background="new 0 0 24 24" xml:space="preserve">
<rect fill="none" width="24" height="24"/>
<path d="M20.75,7.875L12,2L3.25,7.875c-0.375,0.238-0.625,0.563-0.625,1V22L12,17l9.375,5V8.875C21.375,8.45,21.125,8.113,20.75,7.875z M20.125,20.125l-7.5-4.063V14.5h-1.25v1.563l-7.5,4.063V8.875l7.5-5V9.5h1.25V3.875l7.5,5V20.125z M8.875,10.75h6.25v-2.5l3.75,3.75l-3.75,3.75v-2.5h-6.25v2.5L5.125,12l3.75-3.75V10.75z"/>
</svg>
