<svg version="1.1" id="master" xmlns="http://www.w3.org/2000/svg" xmlns:xlink="http://www.w3.org/1999/xlink" x="0px" y="0px"
	 width="24px" height="24px" viewBox="0 0 24 24" enable-background="new 0 0 24 24" xml:space="preserve">
<rect fill="none" width="24" height="24"/>
<path fill="#DB1F29" d="M17.84,2H7.76C4.579,2,2,4.579,2,7.76v12.303V22h2.22h12.02C19.421,22,22,19.421,22,16.24V4.463V2H17.84z
	 M16.186,4.161c0.472,0,0.853,2.089,0.853,2.56c0,0.472-0.382,0.853-0.853,0.853c-0.471,0-0.853-0.381-0.853-0.853
	C15.333,6.25,15.715,4.161,16.186,4.161z M18.746,16.958c0,0,0,1.706-1.706,1.706s-10.237,0-10.237,0
	c-1.706,0-1.706-1.706-1.706-1.706s0-6.825,0-8.531S6.802,6.72,6.802,6.72s1.706,0,3.413,0s3.412,1.707,3.412,1.707
	c0-4.97,1.57,1.843,3.413,0c1.207-1.207,1.706,5.972,1.706,5.972l-1.706-0.853c0,0,0-1.706-2.559-3.412
	c-3.175-2.117-6.825-0.722-6.825,2.559C7.655,19.386,18.746,16.958,18.746,16.958z"/>
</svg>
