<svg version="1.1" id="master" xmlns="http://www.w3.org/2000/svg" xmlns:xlink="http://www.w3.org/1999/xlink" x="0px" y="0px" width="24px" height="24px" viewBox="0 0 24 24" enable-background="new 0 0 24 24" xml:space="preserve">
<rect fill="none" width="24" height="24"/>
<path d="M16.368,6.505l-0.241,0.031l-0.23,0.042l-0.221,0.063l-0.208,0.072l-0.209,0.074l-0.198,0.095l-0.188,0.104l-0.178,0.115l-0.178,0.126l-0.168,0.135L14.193,7.51l-0.147,0.157L13.91,7.832l-0.136,0.179l-0.115,0.178l-0.115,0.198l-0.104,0.198l-0.094,0.221l-0.084-0.229l-0.103-0.22l-0.105-0.21l-0.128-0.198L12.791,7.77l-0.146-0.167l-0.157-0.157l-0.156-0.146l-0.179-0.135l-0.177-0.116l-0.199-0.114L11.589,6.84L11.38,6.757l-0.209-0.073l-0.21-0.063l-0.22-0.053l-0.229-0.042l-0.23-0.021l-0.229-0.021H9.603l-0.22,0.021l-0.21,0.021L8.964,6.558L8.766,6.609L8.577,6.661L8.389,6.726L8.201,6.799L8.034,6.883L7.855,6.965L7.699,7.069L7.542,7.175L7.396,7.289L7.249,7.414L7.113,7.55L6.987,7.687L6.862,7.832L6.748,7.99L6.643,8.157L6.549,8.324v-1.62H2v2.321h1.434v6.127H2v2.364h6.618v-2.364H6.549v-3.984l0.01-0.22l0.031-0.209l0.031-0.198l0.041-0.188l0.053-0.188l0.063-0.166L6.853,9.83l0.082-0.147l0.094-0.146l0.115-0.125L7.26,9.296l0.126-0.104l0.146-0.094l0.157-0.085l0.156-0.063l0.178-0.053l0.2-0.041l0.198-0.021l0.218-0.01h0.179l0.167,0.021l0.168,0.031L9.299,8.92l0.146,0.053l0.136,0.063l0.126,0.073L9.82,9.202l0.104,0.104l0.104,0.114l0.084,0.125l0.084,0.146l0.063,0.169l0.063,0.166l0.053,0.199l0.043,0.198l0.029,0.221l0.031,0.239l0.012,0.261v6.368h4.495V15.15h-1.432v-3.764l0.01-0.22l0.011-0.22l0.021-0.21l0.04-0.197l0.044-0.188l0.051-0.188l0.064-0.167l0.073-0.168l0.083-0.146l0.094-0.146l0.105-0.125l0.126-0.116L14.4,9.19l0.148-0.092l0.146-0.085l0.168-0.063l0.176-0.052l0.2-0.041l0.198-0.021l0.22-0.01h0.179l0.167,0.02l0.166,0.031l0.146,0.042l0.146,0.053l0.135,0.063l0.127,0.073l0.115,0.094l0.104,0.104l0.095,0.114l0.093,0.125l0.084,0.146l0.062,0.169l0.065,0.166l0.051,0.199l0.042,0.198l0.03,0.221l0.031,0.239l0.012,0.261v6.368H22V15.15h-1.432v-4.936L20.56,9.841l-0.043-0.345l-0.063-0.335l-0.081-0.314l-0.105-0.292l-0.126-0.272l-0.146-0.251l-0.167-0.239l-0.188-0.209l-0.188-0.199l-0.221-0.167L19.011,7.06l-0.24-0.136l-0.25-0.125L18.26,6.704L17.999,6.62l-0.284-0.063l-0.272-0.042l-0.29-0.031h-0.546L16.368,6.505z"/>
</svg>
