<svg version="1.1" id="master" xmlns="http://www.w3.org/2000/svg" xmlns:xlink="http://www.w3.org/1999/xlink" x="0px" y="0px" width="24px" height="24px" viewBox="0 0 24 24" enable-background="new 0 0 24 24" xml:space="preserve">
<rect fill="none" width="24" height="24"/>
<path d="M2,22V2h20v20H2z M15.659,7.633l-0.192,0.025l-0.184,0.034l-0.175,0.05L14.941,7.8l-0.166,0.059l-0.158,0.075l-0.15,0.083l-0.142,0.092l-0.142,0.1L14.05,8.317l-0.124,0.117l-0.117,0.125L13.7,8.691l-0.108,0.142L13.5,8.975l-0.092,0.158l-0.083,0.158L13.25,9.467l-0.066-0.183l-0.083-0.175l-0.083-0.167l-0.102-0.159l-0.107-0.142l-0.117-0.133l-0.125-0.125l-0.125-0.117L12.3,8.158l-0.142-0.092L12,7.975L11.85,7.9l-0.166-0.066l-0.167-0.058l-0.167-0.05l-0.175-0.042L10.992,7.65l-0.184-0.017l-0.183-0.017h-0.358l-0.175,0.017L9.925,7.65L9.758,7.675L9.6,7.717L9.45,7.758L9.3,7.809L9.15,7.867L9.017,7.934L8.875,8L8.75,8.083L8.625,8.167L8.508,8.258l-0.117,0.1L8.283,8.466l-0.1,0.109l-0.1,0.116L7.992,8.817L7.908,8.95L7.833,9.083V7.792H4.208v1.85H5.35v4.883H4.208v1.884h5.275v-1.884h-1.65V11.35l0.008-0.175l0.025-0.167l0.025-0.158l0.033-0.15l0.042-0.15l0.05-0.133l0.059-0.134l0.066-0.117l0.075-0.116l0.091-0.1L8.4,9.858l0.1-0.083L8.617,9.7l0.125-0.067l0.125-0.05l0.142-0.042l0.159-0.033l0.158-0.017L9.5,9.483h0.142L9.775,9.5l0.134,0.025l0.116,0.033L10.142,9.6l0.108,0.05l0.1,0.058l0.091,0.075l0.083,0.083l0.083,0.091l0.067,0.1l0.066,0.117l0.05,0.134l0.05,0.133l0.042,0.158l0.034,0.159l0.024,0.175l0.025,0.191l0.009,0.208v5.075h3.583v-1.884h-1.142v-2.999l0.008-0.175l0.009-0.175l0.017-0.167l0.032-0.158l0.034-0.15l0.042-0.15l0.05-0.133l0.059-0.134l0.066-0.117l0.075-0.116l0.083-0.1l0.101-0.092l0.1-0.083L14.209,9.7l0.116-0.067l0.134-0.05L14.6,9.542l0.159-0.033l0.158-0.017l0.175-0.008h0.142L15.367,9.5L15.5,9.525l0.116,0.033L15.733,9.6l0.107,0.05l0.102,0.058l0.091,0.075l0.083,0.083l0.075,0.091l0.075,0.1l0.067,0.117l0.049,0.134l0.051,0.133l0.041,0.158l0.034,0.159l0.024,0.175l0.025,0.191l0.009,0.208v5.075h3.582v-1.884h-1.141v-3.933L19,10.292l-0.034-0.275l-0.05-0.267L18.851,9.5l-0.084-0.233l-0.1-0.217l-0.117-0.2l-0.133-0.191l-0.15-0.167l-0.15-0.158L17.941,8.2l-0.175-0.125l-0.192-0.108l-0.199-0.1l-0.208-0.075l-0.208-0.067l-0.226-0.05l-0.217-0.033l-0.232-0.025H15.85L15.659,7.633z"/>
</svg>
