<svg version="1.1" id="master" xmlns="http://www.w3.org/2000/svg" xmlns:xlink="http://www.w3.org/1999/xlink" x="0px" y="0px"
	 width="24px" height="24px" viewBox="0 0 24 24" enable-background="new 0 0 24 24" xml:space="preserve">
<rect fill="none" width="24" height="24"/>
<path d="M13.252,2c0.8,0,1.572,0.104,2.317,0.313c0.745,0.209,1.442,0.503,2.092,0.883c0.649,0.379,1.24,0.836,1.773,1.37
	s0.99,1.125,1.37,1.773c0.379,0.649,0.674,1.347,0.882,2.092C21.896,9.176,22,9.948,22,10.748v0.626
	c0,0.348-0.065,0.674-0.195,0.979c-0.131,0.304-0.309,0.569-0.535,0.795c-0.226,0.227-0.491,0.404-0.796,0.535
	c-0.304,0.131-0.63,0.195-0.978,0.195h-3.975l1.374,4.913c0.029,0.116,0.054,0.233,0.074,0.353S17,19.383,17,19.504
	c0,0.343-0.066,0.664-0.2,0.966c-0.133,0.302-0.314,0.565-0.543,0.791c-0.229,0.227-0.496,0.406-0.801,0.539
	c-0.304,0.134-0.624,0.2-0.96,0.2h-5c-0.343,0-0.666-0.065-0.97-0.195c-0.305-0.131-0.57-0.309-0.796-0.535
	c-0.227-0.226-0.404-0.491-0.535-0.796C7.065,20.17,7,19.847,7,19.504c0-0.127,0.012-0.253,0.035-0.378
	c0.022-0.125,0.052-0.248,0.087-0.369l1.356-4.879H4.496c-0.343,0-0.664-0.066-0.966-0.199c-0.302-0.134-0.565-0.314-0.791-0.544
	c-0.227-0.229-0.406-0.494-0.539-0.796C2.066,12.038,2,11.716,2,11.374c0-0.423,0.012-0.845,0.035-1.266
	c0.022-0.42,0.081-0.839,0.174-1.256c0.145-0.667,0.362-1.299,0.652-1.896C3.15,6.359,3.499,5.808,3.904,5.3
	c0.406-0.507,0.862-0.964,1.369-1.369c0.508-0.406,1.054-0.752,1.64-1.04C7.499,2.604,8.114,2.384,8.761,2.23
	C9.407,2.077,10.069,2,10.748,2H13.252z"/>
</svg>
