<svg version="1.1" id="master" xmlns="http://www.w3.org/2000/svg" xmlns:xlink="http://www.w3.org/1999/xlink" x="0px" y="0px" width="24px" height="24px" viewBox="0 0 24 24" enable-background="new 0 0 24 24" xml:space="preserve">
<rect fill="none" width="24" height="24"/>
<path d="M16.969,19.145C16.989,19.264,17,19.383,17,19.504c0,0.344-0.066,0.664-0.2,0.967c-0.133,0.301-0.313,0.564-0.543,0.79c-0.229,0.228-0.496,0.406-0.801,0.539c-0.304,0.134-0.624,0.2-0.96,0.2h-5c-0.343,0-0.666-0.064-0.97-0.195c-0.305-0.131-0.57-0.309-0.796-0.535c-0.227-0.226-0.404-0.49-0.535-0.795C7.065,20.17,7,19.848,7,19.504c0-0.127,0.012-0.253,0.035-0.378c0.022-0.125,0.052-0.248,0.087-0.369L8.2,14.878h7.601l1.094,3.913C16.924,18.907,16.949,19.023,16.969,19.145z M21.686,8.431c-0.207-0.745-0.502-1.443-0.881-2.092c-0.381-0.648-0.838-1.239-1.371-1.773c-0.533-0.534-1.123-0.991-1.772-1.37c-0.65-0.38-1.347-0.674-2.093-0.883C14.824,2.104,14.052,2,13.252,2h-2.504c-0.679,0-1.341,0.077-1.987,0.23C8.114,2.384,7.499,2.604,6.913,2.891c-0.586,0.288-1.132,0.634-1.64,1.04C4.766,4.336,4.31,4.793,3.904,5.3C3.499,5.808,3.15,6.359,2.861,6.956c-0.29,0.597-0.507,1.229-0.652,1.896c-0.093,0.417-0.152,0.836-0.174,1.256C2.012,10.529,2,10.951,2,11.374c0,0.342,0.066,0.664,0.2,0.965c0.133,0.302,0.312,0.567,0.539,0.796c0.226,0.23,0.489,0.41,0.791,0.545c0.302,0.133,0.623,0.198,0.966,0.198h2.357h1.625h7.043h1.332h2.643c0.348,0,0.674-0.063,0.979-0.194c0.305-0.132,0.569-0.309,0.795-0.535c0.227-0.227,0.404-0.491,0.535-0.795C21.936,12.048,22,11.722,22,11.374v-0.626C22,9.948,21.896,9.176,21.686,8.431z"/>
</svg>
