<svg version="1.1" id="master" xmlns="http://www.w3.org/2000/svg" xmlns:xlink="http://www.w3.org/1999/xlink" x="0px" y="0px" width="24px" height="24px" viewBox="0 0 24 24" enable-background="new 0 0 24 24" xml:space="preserve">
<rect fill="none" width="24" height="24"/>
<path d="M11.653,2L3.181,6.861v10.277L11.653,22c0.007-3.836-0.022-7.768-0.032-11.648l-3.718,2.203v2.998c0,0.02,0,0.038,0,0.059c0,0,0.017,0.232,0,0.277c-0.082,0.362-0.445,0.673-0.829,0.928c-0.673,0.447-1.466,0.424-1.811-0.095c-0.344-0.517-0.117-1.358,0.556-1.805c0.376-0.251,0.751-0.336,1.111-0.278V7.614c0.002-0.018,0.003-0.036,0.006-0.056c0.001-0.012,0.002-0.025,0.005-0.037c0.003-0.013,0.008-0.025,0.012-0.038C6.958,7.47,6.962,7.458,6.968,7.445c0.005-0.012,0.012-0.023,0.018-0.034c0.007-0.012,0.013-0.024,0.021-0.035c0.009-0.011,0.018-0.021,0.026-0.031s0.017-0.021,0.026-0.03c0.009-0.008,0.02-0.016,0.029-0.023c0.011-0.01,0.023-0.019,0.036-0.027C7.127,7.263,7.129,7.26,7.133,7.258l4.496-2.743C11.635,3.669,11.642,2.831,11.653,2z M12.347,2v5.139c0.386,0.021,0.877,0.1,1.39,0.322c0.173,0.003,0.874-0.023,1.381-0.597c-0.194-0.28-0.202-0.65-0.021-0.938c0.156-0.248,0.425-0.396,0.72-0.396c0.16,0,0.317,0.045,0.452,0.131c0.194,0.122,0.327,0.312,0.377,0.534c0.05,0.22,0.009,0.45-0.111,0.64c-0.155,0.247-0.427,0.396-0.719,0.396c-0.084,0-0.166-0.013-0.245-0.037c-0.331,0.393-0.731,0.6-1.08,0.708c0.279,0.215,0.528,0.474,0.742,0.773c0.218-0.05,0.455-0.016,0.647,0.104c0.397,0.252,0.516,0.779,0.266,1.175c-0.156,0.247-0.429,0.396-0.721,0.396c-0.16,0-0.318-0.046-0.454-0.132c-0.395-0.25-0.514-0.776-0.265-1.173c0.017-0.026,0.034-0.051,0.054-0.075c-0.315-0.432-0.717-0.76-1.195-0.978c0,0-0.002,0-0.002,0c-0.444-0.201-0.877-0.277-1.216-0.297v3.333c0.716,0.052,1.052,0.412,1.302,0.698c0.188,0.214,0.295,0.327,0.48,0.336c0.269,0.014,0.475,0.006,0.674,0c0.24-0.009,0.461-0.017,0.733,0.016c0.788-0.013,1.057-0.186,1.338-0.37c0.227-0.147,0.48-0.312,0.949-0.379c0.022-0.077,0.056-0.151,0.098-0.219c0.026-0.041,0.056-0.079,0.088-0.115c0.019-0.02,0.04-0.037,0.061-0.055c-0.155-0.569-0.184-1.375,0.005-2.002c-0.004-0.003-0.008-0.005-0.01-0.008c-0.303-0.277-0.363-0.732-0.144-1.079c0.156-0.248,0.425-0.396,0.72-0.396c0.159,0,0.317,0.045,0.452,0.131c0.192,0.121,0.328,0.313,0.377,0.534c0.05,0.219,0.009,0.45-0.111,0.639c-0.155,0.247-0.427,0.397-0.719,0.396c-0.016,0-0.032-0.001-0.047-0.003c-0.133,0.486-0.104,1.126-0.005,1.565c0.017-0.001,0.034-0.002,0.053-0.002c0.159,0,0.317,0.045,0.452,0.131c0.192,0.121,0.328,0.313,0.377,0.534c0.05,0.221,0.01,0.448-0.111,0.639c-0.155,0.247-0.427,0.397-0.719,0.396c-0.16,0-0.318-0.046-0.454-0.132c-0.014-0.009-0.027-0.018-0.039-0.027c-0.131-0.092-0.232-0.22-0.293-0.368c-0.312,0.052-0.477,0.158-0.675,0.287c-0.161,0.104-0.334,0.217-0.586,0.305c0.631,0.463,1.477,1.333,1.833,1.915c0.069-0.019,0.142-0.026,0.214-0.026c0.16,0,0.317,0.045,0.453,0.131c0.192,0.12,0.327,0.313,0.376,0.533c0.051,0.219,0.01,0.45-0.11,0.639c-0.155,0.248-0.428,0.397-0.72,0.396c-0.177,0-0.349-0.055-0.493-0.158c-0.367-0.259-0.466-0.764-0.225-1.146c0.013-0.021,0.028-0.04,0.044-0.06c-0.371-0.646-1.69-1.899-2.053-1.989c-0.472-0.117-0.744-0.107-1.09-0.094c-0.202,0.006-0.43,0.014-0.724-0.002c-0.428-0.023-0.662-0.289-0.868-0.525c-0.218-0.247-0.426-0.467-0.884-0.509v5.834c0.071-0.015,0.191-0.039,0.356-0.112c0.016-0.01,0.032-0.018,0.05-0.023c0.465-0.223,1.183-0.76,1.745-2.04c-0.159-0.116-0.272-0.284-0.32-0.476c-0.056-0.219-0.021-0.451,0.094-0.645c0.153-0.256,0.434-0.414,0.731-0.414c0.152,0,0.304,0.041,0.436,0.119c0.402,0.242,0.534,0.764,0.295,1.166c-0.148,0.247-0.413,0.403-0.7,0.413c-0.357,0.834-0.784,1.399-1.192,1.782c0.241,0.047,0.413,0.146,0.576,0.257c0.128,0.087,0.195,0.129,0.309,0.135c0.149,0.005,0.47-0.088,0.741-0.186c-0.034-0.273,0.064-0.557,0.289-0.748c0.356-0.307,0.893-0.266,1.198,0.091l0,0c0.148,0.173,0.221,0.393,0.203,0.618c-0.017,0.225-0.122,0.435-0.294,0.581c-0.154,0.132-0.351,0.204-0.554,0.204c-0.222,0-0.437-0.087-0.595-0.243c-0.257,0.098-0.683,0.239-0.976,0.239c-0.014,0-0.028,0-0.043-0.001c-0.273-0.014-0.45-0.134-0.592-0.229c-0.218-0.148-0.425-0.287-1.167-0.099c-0.329,0.148-0.552,0.162-0.591,0.165V22l8.473-4.861V6.861L12.347,2z M15.816,6.086c-0.101,0-0.195,0.051-0.248,0.136c-0.084,0.132-0.05,0.306,0.077,0.396l0.013,0.009c0.137,0.085,0.322,0.042,0.405-0.091c0.042-0.065,0.056-0.145,0.039-0.22c-0.018-0.077-0.063-0.143-0.13-0.185C15.926,6.102,15.872,6.086,15.816,6.086z M11.619,7.714L7.903,9.917v1.667l3.716-2.202C11.618,8.823,11.619,8.269,11.619,7.714z M18.641,8.012c-0.102,0-0.194,0.051-0.248,0.136c-0.084,0.131-0.05,0.306,0.077,0.396l0.013,0.008c0.136,0.086,0.322,0.042,0.405-0.091c0.086-0.136,0.046-0.317-0.091-0.404v0C18.749,8.027,18.695,8.012,18.641,8.012z M15.427,9.205c-0.101,0-0.194,0.051-0.249,0.135c-0.086,0.138-0.046,0.319,0.091,0.406c0.047,0.03,0.102,0.045,0.155,0.045c0.103,0,0.196-0.052,0.25-0.137c0.087-0.137,0.046-0.319-0.092-0.406C15.536,9.22,15.481,9.205,15.427,9.205L15.427,9.205z M18.641,11.271c-0.102-0.001-0.194,0.051-0.248,0.136c-0.084,0.131-0.05,0.306,0.077,0.396l0.013,0.009c0.136,0.086,0.322,0.042,0.405-0.09c0.042-0.066,0.056-0.145,0.039-0.221c-0.018-0.076-0.064-0.143-0.13-0.185C18.749,11.286,18.695,11.27,18.641,11.271z M15.003,14.264c-0.104,0-0.2,0.055-0.253,0.144c-0.083,0.139-0.037,0.318,0.102,0.401c0,0,0,0,0,0.001c0.045,0.026,0.098,0.041,0.151,0.041c0.103,0.001,0.199-0.055,0.252-0.144c0.082-0.139,0.037-0.319-0.103-0.402C15.106,14.277,15.056,14.264,15.003,14.264z M18.641,14.923c-0.102,0-0.194,0.052-0.248,0.137c-0.084,0.132-0.05,0.307,0.077,0.396l0.013,0.009c0.136,0.086,0.322,0.042,0.405-0.09c0.086-0.137,0.046-0.317-0.091-0.404c0-0.001,0-0.001,0-0.001C18.749,14.939,18.695,14.923,18.641,14.923z M16.31,16.997c-0.07-0.001-0.139,0.024-0.191,0.069c-0.123,0.106-0.138,0.292-0.031,0.415c0.055,0.064,0.137,0.103,0.223,0.102c0.07,0.001,0.139-0.024,0.19-0.07c0.06-0.051,0.096-0.122,0.102-0.2c0.007-0.078-0.019-0.154-0.069-0.213C16.477,17.034,16.395,16.997,16.31,16.997z"/>
</svg>
