<svg version="1.1" id="master" xmlns="http://www.w3.org/2000/svg" xmlns:xlink="http://www.w3.org/1999/xlink" x="0px" y="0px"
	 width="24px" height="24px" viewBox="0 0 24 24" enable-background="new 0 0 24 24" xml:space="preserve">
<rect fill="none" width="24" height="24"/>
<path d="M12.001,13.084l2.73,3.183l-0.625,0.75l-1.777-2.101l-0.942-1.115L12.001,13.084z M22,4.008v15.985
	c0,0.546-0.442,0.988-0.988,0.988H2.988C2.442,20.981,2,20.539,2,19.993c0,0,0,0,0-0.001V4.008C2,3.461,2.443,3.02,2.988,3.02
	h18.023C21.558,3.02,22,3.461,22,4.008L22,4.008z M20.133,18.25l-1.764-2.118l-1.763-2.117l-0.488,0.586l-2.709-3.156l4.096-4.775
	l-0.98-0.84l-3.966,4.624L8.605,5.848L6.983,7.239l4.167,4.856l-0.608,0.708l-1.033-1.22l-2.82,3.333L3.868,18.25H20.133z"/>
</svg>
