<svg version="1.1" id="master" xmlns="http://www.w3.org/2000/svg" xmlns:xlink="http://www.w3.org/1999/xlink" x="0px" y="0px"
	 width="24px" height="24px" viewBox="0 0 24 24" enable-background="new 0 0 24 24" xml:space="preserve">
<rect fill="none" width="24" height="24"/>
<path d="M3.475,3.466C4.352,2.547,5.563,2.019,6.833,2h10.501c1.141,0,2.207,0.5,3.191,1.466C21.45,4.31,21.983,5.499,22,6.75
	v10.643c0,1.116-0.467,2.148-1.399,3.107c-0.885,0.934-2.106,1.474-3.393,1.5H6.892c-1.259-0.012-2.471-0.477-3.417-1.309
	c-0.9-0.816-1.392-2-1.475-3.583V6.775C1.986,5.51,2.525,4.302,3.475,3.466z M8.683,10.383l6.609,8.383h1.767
	c0.408-0.05,0.733-0.167,0.975-0.358c0.25-0.191,0.417-0.467,0.533-0.834v-4.116c0.066-0.792,0.559-1.283,1.476-1.458
	c-0.917-0.333-1.409-0.85-1.476-1.55V6.517c-0.1-0.367-0.275-0.667-0.533-0.892c-0.25-0.228-0.57-0.366-0.908-0.392h-1.792v8.5
	l-6.65-8.508H6.825c-0.467,0.083-0.809,0.25-1.042,0.5S5.4,6.375,5.333,6.917v4.042C5.042,11.533,4.583,11.875,3.958,12
	c0.708,0.133,1.167,0.508,1.375,1.133v3.976c0.017,0.458,0.167,0.833,0.45,1.142c0.275,0.3,0.583,0.441,0.917,0.417h1.966
	L8.683,10.383z"/>
</svg>
