<svg version="1.1" id="master" xmlns="http://www.w3.org/2000/svg" xmlns:xlink="http://www.w3.org/1999/xlink" x="0px" y="0px" width="24px" height="24px" viewBox="0 0 24 24" enable-background="new 0 0 24 24" xml:space="preserve">
<rect fill="none" width="24" height="24"/>
<path d="M15.546,5.428c-0.154,0-0.291,0.082-0.373,0.209l-0.063,0.136L10.4,16.363c-0.146,0.265-0.237,0.556-0.237,0.874c0,1.008,0.818,1.827,1.828,1.827c0.873,0,1.608-0.618,1.781-1.445l0.01-0.028L16,5.882C16,5.628,15.8,5.428,15.546,5.428z M2,9.064l1.818,1.818c2.618-2.618,6.172-3.709,9.572-3.291l1.083-2.436C10.082,4.373,5.4,5.673,2,9.064z M20.182,10.882L22,9.064c-1.491-1.491-3.228-2.563-5.082-3.245l-0.481,2.563C17.8,8.946,19.072,9.773,20.182,10.882z M16.546,14.519l1.817-1.818c-0.727-0.727-1.545-1.291-2.418-1.718l-0.5,2.654C15.827,13.882,16.2,14.173,16.546,14.519z M5.636,12.7l1.818,1.818c1.027-1.027,2.327-1.627,3.664-1.818l1.164-2.618C9.891,10.01,7.463,10.874,5.636,12.7z"/>
</svg>
