<svg version="1.1" id="master" xmlns="http://www.w3.org/2000/svg" xmlns:xlink="http://www.w3.org/1999/xlink" x="0px" y="0px" width="24px" height="24px" viewBox="0 0 24 24" enable-background="new 0 0 24 24" xml:space="preserve">
<rect fill="none" width="24" height="24"/>
<path d="M19.727,14.346h-0.082c-0.621,1.708-1.945,3.067-3.635,3.736v-3.736l2.037-1.818l-2.037-1.818V8.164c1.781,0.005,3.236-1.419,3.273-3.2c0-2.191-2.092-2.963-3.273-2.963c-0.307-0.006-0.611,0.027-0.908,0.1V2.21h0.461c0.668-0.118,1.305,0.328,1.424,0.996C16.992,3.243,16.998,3.281,17,3.319c-0.027,0.657-0.584,1.167-1.24,1.139c-0.016-0.001-0.033-0.001-0.051-0.004c-2.037,0-4.436-1.654-7.044-1.654C6.623,2.692,4.874,4.243,4.737,6.283C4.674,7.559,5.548,8.693,6.8,8.955v-0.1C6.417,8.609,6.201,8.173,6.237,7.718c0.062-0.846,0.798-1.482,1.645-1.42C7.89,6.299,7.9,6.3,7.909,6.301c2.191,0,5.728,1.818,7.917,1.818h0.082v2.618l-2.035,1.818l2.035,1.819v3.79c-0.814,0.269-1.668,0.4-2.527,0.391c-1.394,0.07-2.765-0.38-3.845-1.263l3.692-1.654V8.209l-5.165,2.272c0.494-1.458,1.579-2.641,2.991-3.254V7.146C7.291,7.982,4.273,10.682,4.273,14.4c0,4.327,3.354,7.6,8.182,7.6c5.01,0,7.272-3.636,7.272-7.346V14.346z M9.382,17.154c-1.136-1.134-1.742-2.695-1.672-4.3c-0.013-0.733,0.091-1.463,0.31-2.163L9.728,9.91v7.063L9.382,17.154z"/>
</svg>
