<svg version="1.1" id="master" xmlns="http://www.w3.org/2000/svg" xmlns:xlink="http://www.w3.org/1999/xlink" x="0px" y="0px" width="24px" height="24px" viewBox="0 0 24 24" enable-background="new 0 0 24 24" xml:space="preserve">
<rect fill="none" width="24" height="24"/>
<path d="M9.294,2C7.277,2,4.14,2.01,3.545,2.041c-0.88,0.048-1.469,0.688-1.508,1.513c-0.04,0.818-0.054,16.035,0,16.863c0.052,0.819,0.676,1.438,1.508,1.487c0.917,0.055,3.89,0.066,4.744,0.066c-1.525-1.057-1.735-3.047-1.878-6.745c-0.085-2.19-0.007-9.866,0-10.191l0.041-2.092l8.023,8.051v2.521L8.092,7.108c-0.017,1.266-0.033,2.921-0.033,4.431c0,1.472,0.023,2.803,0.066,3.505c0.239,4.029,0.614,5.923,2.71,6.663c0.641,0.226,1.234,0.275,2.232,0.289c0.822,0.01,6.561,0.004,7.389-0.042c0.879-0.046,1.466-0.688,1.508-1.513c0.039-0.816,0.051-15.992,0-16.821c-0.055-0.819-0.676-1.438-1.508-1.487c-0.918-0.055-3.891-0.1-4.745-0.1c1.525,1.058,1.735,3.04,1.879,6.736c0.085,2.19,0.006,9.867,0,10.192l-0.042,2.1l-8.023-8.051v-2.521l6.384,6.397c0.017-1.265,0.033-2.92,0.033-4.43c0-1.473-0.024-2.803-0.066-3.506c-0.239-4.027-0.615-5.913-2.71-6.653C12.524,2.07,11.93,2.013,10.934,2H9.294z"/>
</svg>
