<svg version="1.1" id="master" xmlns="http://www.w3.org/2000/svg" xmlns:xlink="http://www.w3.org/1999/xlink" x="0px" y="0px"
	 width="24px" height="24px" viewBox="0 0 24 24" enable-background="new 0 0 24 24" xml:space="preserve">
<rect fill="none" width="24" height="24"/>
<path d="M8.289,21.971c-1.525-1.058-1.735-3.048-1.878-6.746c-0.085-2.189-0.007-9.866,0-10.19l0.041-2.092l8.022,8.051v2.521
	L8.092,7.108c-0.017,1.266-0.033,2.921-0.033,4.431c0,1.472,0.023,2.803,0.066,3.505c0.239,4.029,0.614,5.923,2.71,6.663
	c0.641,0.227,1.234,0.275,2.231,0.289h0.021V22 M10.934,2c0.996,0.013,1.589,0.07,2.232,0.297c2.096,0.74,2.471,2.626,2.71,6.653
	c0.042,0.703,0.065,2.033,0.065,3.506c0,1.51-0.016,3.165-0.032,4.431l-6.384-6.397v2.521l8.023,8.051l0.042-2.1
	c0.006-0.325,0.085-8.002,0-10.192c-0.145-3.696-0.354-5.678-1.879-6.736"/>
</svg>
