<svg version="1.1" id="master" xmlns="http://www.w3.org/2000/svg" xmlns:xlink="http://www.w3.org/1999/xlink" x="0px" y="0px"
	 width="24px" height="24px" viewBox="0 0 24 24" enable-background="new 0 0 24 24" xml:space="preserve">
<rect fill="none" width="24" height="24"/>
<path d="M7.68,14.604l3.919,2.262V12.34l-3.921-2.262v4.527L7.68,14.604z M5.992,15.578l5.608,3.235v3.184L3.234,17.17V7.514
	l2.758,1.591V15.578L5.992,15.578z M12,7.121L8.081,9.386L12,11.648l3.92-2.264L12,7.121L12,7.121z M12,5.177l4.716,2.729
	l2.759-1.591L12,2L3.646,6.824L6.4,8.413L12,5.177z M18.006,15.578v-3.289l-1.686,0.972v1.345l-3.919,2.262v0.005v-4.529
	l8.365-4.827v9.655L12.4,22v-3.182L18.006,15.578L18.006,15.578z"/>
</svg>
