<svg version="1.1" id="master" xmlns="http://www.w3.org/2000/svg" xmlns:xlink="http://www.w3.org/1999/xlink" x="0px" y="0px" width="24px" height="24px" viewBox="0 0 24 24" enable-background="new 0 0 24 24" xml:space="preserve">
<rect fill="none" width="24" height="24"/>
<path d="M11.999,22c-0.268,0-0.534-0.069-0.769-0.205l-2.446-1.448c-0.365-0.203-0.187-0.276-0.066-0.319c0.487-0.169,0.586-0.208,1.106-0.503c0.054-0.03,0.126-0.02,0.182,0.015l1.88,1.115c0.068,0.037,0.164,0.037,0.227,0l7.329-4.229c0.067-0.039,0.111-0.117,0.111-0.199V7.768c0-0.083-0.044-0.16-0.114-0.201l-7.325-4.227c-0.067-0.039-0.157-0.039-0.226,0L4.563,7.567c-0.07,0.041-0.116,0.121-0.116,0.201v8.458c0,0.082,0.046,0.158,0.116,0.197l2.007,1.159c1.09,0.545,1.757-0.097,1.757-0.741V8.489c0-0.118,0.096-0.21,0.214-0.21H9.47c0.116,0,0.213,0.093,0.213,0.21v8.352c0,1.453-0.792,2.287-2.17,2.287c-0.424,0-0.758,0-1.688-0.459L3.9,17.563c-0.475-0.274-0.768-0.786-0.768-1.337V7.768c0-0.549,0.294-1.063,0.768-1.336l7.33-4.235c0.464-0.262,1.079-0.262,1.539,0l7.328,4.235c0.476,0.274,0.77,0.787,0.77,1.336v8.458c0,0.551-0.294,1.062-0.77,1.337l-7.328,4.232C12.536,21.931,12.271,22,11.999,22z M17.917,13.661c0-1.583-1.071-2.005-3.324-2.303c-2.274-0.301-2.506-0.457-2.506-0.989c0-0.439,0.195-1.027,1.882-1.027c1.505,0,2.06,0.324,2.288,1.339c0.021,0.096,0.107,0.166,0.206,0.166h0.951c0.059,0,0.114-0.026,0.154-0.068c0.041-0.045,0.062-0.103,0.057-0.164c-0.147-1.748-1.31-2.563-3.656-2.563c-2.091,0-3.337,0.881-3.337,2.361c0,1.604,1.24,2.047,3.245,2.246c2.4,0.235,2.586,0.586,2.586,1.059c0,0.818-0.657,1.168-2.201,1.168c-1.939,0-2.366-0.487-2.509-1.451c-0.017-0.104-0.105-0.18-0.211-0.18h-0.948c-0.117,0-0.211,0.093-0.211,0.21c0,1.236,0.672,2.707,3.879,2.707C16.585,16.173,17.917,15.259,17.917,13.661z"/>
</svg>
