<svg version="1.1" id="master" xmlns="http://www.w3.org/2000/svg" xmlns:xlink="http://www.w3.org/1999/xlink" x="0px" y="0px"
	 width="24px" height="24px" viewBox="0 0 24 24" enable-background="new 0 0 24 24" xml:space="preserve">
<rect fill="none" width="24" height="24"/>
<path d="M9.667,6.839L8.189,5.361c0.643-0.517,1.394-0.916,2.272-1.125V3.539C10.461,2.687,11.149,2,12,2
	c0.852,0,1.538,0.687,1.538,1.539v0.697c2.944,0.697,4.616,3.334,4.616,6.482v4.608l-2.051-2.051v-2.558
	c0-2.543-1.549-4.615-4.104-4.615C11.082,6.103,10.3,6.378,9.667,6.839z M12,22c1.128,0,2.052-0.924,2.052-2.052H9.949
	C9.949,21.076,10.872,22,12,22z M19.172,22l-3.077-3.077h-12.3v-1.024l2.051-2.053v-5.128c0-0.637,0.083-1.245,0.219-1.824L2,4.828
	l1.415-1.415l17.171,17.172L19.172,22z M14.044,16.872l-6.147-6.147v6.147H14.044z"/>
</svg>
