<svg version="1.1" id="master" xmlns="http://www.w3.org/2000/svg" xmlns:xlink="http://www.w3.org/1999/xlink" x="0px" y="0px" width="24px" height="24px" viewBox="0 0 24 24" enable-background="new 0 0 24 24" xml:space="preserve">
<rect fill="none" width="24" height="24"/>
<path d="M18.154,15.325L8.188,5.359c0.642-0.517,1.393-0.915,2.273-1.123V3.539C10.461,2.687,11.149,2,12,2c0.852,0,1.538,0.687,1.538,1.539v0.697c2.933,0.697,4.616,3.334,4.616,6.482V15.325z M12,22c1.128,0,2.052-0.924,2.052-2.052H9.949C9.949,21.076,10.862,22,12,22z M20.586,20.586l-1.663-1.663L6.87,6.87L3.414,3.414L2,4.828l4.065,4.065c-0.136,0.58-0.219,1.188-0.219,1.825v5.128l-2.051,2.053v1.024h12.299L19.171,22L20.586,20.586z"/>
</svg>
