<svg version="1.1" id="master" xmlns="http://www.w3.org/2000/svg" xmlns:xlink="http://www.w3.org/1999/xlink" x="0px" y="0px" width="24px" height="24px" viewBox="0 0 24 24" enable-background="new 0 0 24 24" xml:space="preserve">
<rect fill="none" width="24" height="24"/>
<path d="M12.245,2.003c5.521,0.135,9.888,4.72,9.752,10.242c-0.135,5.521-4.72,9.888-10.242,9.752c-5.521-0.135-9.887-4.72-9.752-10.242l0.001-0.021C2.151,6.221,6.732,1.868,12.245,2.003z M12.245,3.035c-4.951-0.137-9.075,3.767-9.211,8.717c-0.137,4.952,3.766,9.075,8.717,9.211c4.951,0.137,9.075-3.767,9.211-8.718l0.001-0.021C21.088,7.282,17.188,3.17,12.245,3.035z M12.922,8.771c-0.396,0.377-0.24,1.228,0.373,1.873s1.454,0.846,1.851,0.454c0.396-0.391,0.254-1.241-0.359-1.887c-0.614-0.646-1.473-0.832-1.869-0.454L12.922,8.771z M17.922,6.367c0.783,0.818,1.382,1.792,1.76,2.859c0,0,0.245,0.728-0.568,0.728h-2c0,0-0.632-0.05-0.668,0.486c-0.047,0.673-0.028,1.241-0.028,1.241c0.027,0.39,0.171,0.762,0.414,1.068l2.06,2.173c0.32,0.314,0.362,0.816,0.099,1.182c-1.038,1.777-2.71,3.094-4.681,3.687c-0.609,0.182-0.664-0.313-0.641-0.646c0-0.214,0.245-5,0.245-5c0.072-0.521-0.095-1.045-0.454-1.429c-0.649-0.681-1.05-1.131-1.05-1.131s-0.454-0.454-1.109-1.141c-0.364-0.376-0.878-0.569-1.4-0.522h-5c-0.332,0-0.823-0.078-0.609-0.672C4.985,7.31,6.389,5.707,8.218,4.762C8.596,4.52,9.094,4.589,9.391,4.925l2.059,2.173c0.295,0.253,0.659,0.412,1.045,0.454c0,0,0.563,0.045,1.241,0.037c0.537,0,0.522-0.641,0.522-0.641s0.083-1.328,0.118-1.996c-0.038-0.279,0.156-0.536,0.435-0.574c0.107-0.015,0.217,0.005,0.312,0.056c1.054,0.449,2.006,1.11,2.796,1.941L17.922,6.367z"/>
</svg>
