<svg version="1.1" id="master" xmlns="http://www.w3.org/2000/svg" xmlns:xlink="http://www.w3.org/1999/xlink" x="0px" y="0px" width="24px" height="24px" viewBox="0 0 24 24" enable-background="new 0 0 24 24" xml:space="preserve">
<rect fill="none" width="24" height="24"/>
<path d="M20.375,8.049c0.162-0.4,0.688-1.987-0.162-4.138c0,0-1.313-0.412-4.301,1.625c-1.25-0.351-2.587-0.4-3.912-0.4s-2.662,0.05-3.912,0.4c-2.988-2.05-4.3-1.625-4.3-1.625c-0.85,2.15-0.325,3.738-0.163,4.138C2.613,9.137,2,10.537,2,12.237c0,6.438,4.163,7.888,9.975,7.888c5.812,0,10.025-1.45,10.025-7.888C22,10.537,21.387,9.137,20.375,8.049z M12,18.899c-4.125,0-7.475-0.187-7.475-4.188c0-0.949,0.475-1.85,1.275-2.587c1.337-1.225,3.625-0.575,6.2-0.575c2.588,0,4.85-0.65,6.2,0.575c0.812,0.738,1.275,1.625,1.275,2.587C19.476,18.699,16.125,18.899,12,18.899z M8.863,12.637c-0.825,0-1.5,1.001-1.5,2.226c0,1.226,0.675,2.237,1.5,2.237c0.825,0,1.5-1,1.5-2.237C10.362,13.624,9.688,12.637,8.863,12.637z M15.137,12.637c-0.824,0-1.499,0.987-1.499,2.226c0,1.237,0.675,2.237,1.499,2.237c0.826,0,1.501-1,1.501-2.237C16.638,13.624,15.975,12.637,15.137,12.637z"/>
</svg>
