<svg version="1.1" id="master" xmlns="http://www.w3.org/2000/svg" xmlns:xlink="http://www.w3.org/1999/xlink" x="0px" y="0px"
	 width="24px" height="24px" viewBox="0 0 24 24" enable-background="new 0 0 24 24" xml:space="preserve">
<rect fill="none" width="24" height="24"/>
<path d="M12,22C6.486,22,2,17.515,2,12C2,6.486,6.486,2,12,2c5.515,0,10,4.486,10,10C22,17.515,17.515,22,12,22z M12,2.924
	c-5.004,0-9.075,4.072-9.075,9.076S6.996,21.075,12,21.075s9.075-4.071,9.075-9.075S17.004,2.924,12,2.924z M7.152,6.992
	c0.293-1.415,1.252-2.691,2.542-3.33C9.469,3.889,9.198,4.064,8.99,4.312c-0.85,0.917-1.233,2.243-1,3.464
	c0.296,1.862,2.046,3.383,3.943,3.356c1.47,0.066,2.905-0.781,3.624-2.057c1.54,0.053,3.037,0.847,3.916,2.123
	c0.45,0.666,0.803,1.446,0.826,2.259c-0.284-1.079-1.002-2.038-1.979-2.579c-0.945-0.532-2.106-0.668-3.144-0.354
	c-1.3,0.373-2.374,1.436-2.744,2.743c-0.314,1.042-0.18,2.191,0.314,3.145c-0.688,1.19-1.929,2.041-3.276,2.296
	c-1.036,0.218-2.125,0.05-3.091-0.387c0.863,0.253,1.801,0.297,2.659-0.009c1.151-0.381,2.102-1.306,2.521-2.445
	c0.463-1.242,0.287-2.718-0.493-3.784c-0.583-0.839-1.502-1.431-2.501-1.641c-0.316-0.057-0.636-0.082-0.957-0.111
	c-0.509-1.026-0.695-2.217-0.44-3.33L7.152,6.992z"/>
</svg>
