<svg version="1.1" id="master" xmlns="http://www.w3.org/2000/svg" xmlns:xlink="http://www.w3.org/1999/xlink" x="0px" y="0px"
	 width="24px" height="24px" viewBox="0 0 24 24" enable-background="new 0 0 24 24" xml:space="preserve">
<rect fill="none" width="24" height="24"/>
<path d="M12,2C6.486,2,2,6.486,2,12c0,5.516,4.486,10,10,10c5.516,0,10-4.484,10-10C22,6.486,17.516,2,12,2z M18.32,10.878
	c-0.945-0.532-2.106-0.668-3.145-0.354c-1.3,0.373-2.374,1.436-2.744,2.744c-0.314,1.041-0.18,2.19,0.314,3.145
	c-0.688,1.189-1.929,2.041-3.276,2.296c-1.036,0.218-2.125,0.05-3.091-0.388c0.863,0.254,1.801,0.298,2.659-0.008
	c1.151-0.381,2.102-1.307,2.521-2.445c0.463-1.242,0.287-2.719-0.493-3.784c-0.583-0.839-1.502-1.431-2.501-1.641
	c-0.316-0.057-0.636-0.082-0.957-0.111c-0.509-1.026-0.695-2.217-0.44-3.33L7.152,6.992c0.293-1.415,1.252-2.691,2.542-3.33
	C9.469,3.889,9.198,4.064,8.99,4.312c-0.85,0.917-1.233,2.243-1,3.464c0.296,1.862,2.046,3.383,3.943,3.356
	c1.469,0.066,2.905-0.781,3.624-2.057c1.541,0.053,3.037,0.847,3.916,2.123c0.45,0.666,0.803,1.446,0.826,2.259
	C20.016,12.378,19.297,11.419,18.32,10.878z"/>
</svg>
