<svg version="1.1" id="master" xmlns="http://www.w3.org/2000/svg" xmlns:xlink="http://www.w3.org/1999/xlink" x="0px" y="0px"
	 width="24px" height="24px" viewBox="0 0 24 24" enable-background="new 0 0 24 24" xml:space="preserve">
<rect fill="none" width="24" height="24"/>
<path d="M18.262,11.458C17.989,10.692,17.569,10,17,9.381c0.178-0.337,0.315-0.691,0.413-1.062c0.095-0.371,0.144-0.753,0.144-1.144
	c0-0.538-0.093-1.058-0.277-1.562c-0.186-0.504-0.447-0.971-0.784-1.397h0.32c0.206,0,0.398-0.039,0.577-0.113
	c0.178-0.076,0.334-0.18,0.47-0.315c0.135-0.134,0.241-0.291,0.319-0.47c0.08-0.179,0.12-0.371,0.12-0.577
	c0-0.034,0-0.083,0.005-0.145c0.004-0.062,0.005-0.127,0.005-0.196c0-0.103-0.012-0.195-0.036-0.278C18.251,2.042,18.2,2,18.116,2
	c-0.083,0-0.136,0.04-0.161,0.119c-0.024,0.079-0.049,0.165-0.076,0.258c-0.025,0.093-0.074,0.177-0.144,0.253
	c-0.07,0.076-0.188,0.114-0.361,0.114h-2.69c-0.475-0.248-0.967-0.433-1.479-0.557c-0.513-0.123-1.033-0.185-1.562-0.185
	c-0.536,0-1.063,0.062-1.578,0.185C9.549,2.31,9.054,2.495,8.581,2.743H5.889c-0.172,0-0.292-0.038-0.36-0.114
	C5.46,2.554,5.409,2.47,5.382,2.378C5.354,2.285,5.33,2.199,5.305,2.12c-0.023-0.078-0.077-0.119-0.16-0.119
	c-0.055,0-0.1,0.017-0.134,0.051C4.977,2.088,4.96,2.131,4.96,2.188v0.557c0,0.207,0.039,0.398,0.119,0.578
	C5.158,3.5,5.264,3.657,5.398,3.791c0.134,0.134,0.29,0.239,0.47,0.315c0.179,0.075,0.371,0.113,0.577,0.113h0.32
	C6.428,4.646,6.168,5.11,5.981,5.617c-0.187,0.502-0.28,1.023-0.28,1.56c0,0.391,0.049,0.772,0.145,1.144S6.08,9.046,6.259,9.383
	C5.688,10,5.268,10.692,4.996,11.459S4.59,13.024,4.59,13.856c0,0.486,0.067,0.966,0.2,1.438c0.134,0.47,0.313,0.926,0.536,1.366
	c0.223,0.438,0.481,0.859,0.773,1.262c0.292,0.401,0.595,0.773,0.913,1.118h0.545c0-0.199,0.038-0.392,0.114-0.573
	s0.183-0.342,0.32-0.479C7.62,17.371,7.332,16.707,7.126,16c-0.207-0.71-0.31-1.423-0.31-2.146c0-0.507,0.061-1.008,0.18-1.5
	c0.121-0.491,0.311-0.957,0.571-1.396c0.571,0.474,1.207,0.829,1.908,1.063c0.701,0.233,1.419,0.35,2.154,0.35
	c0.735,0,1.453-0.118,2.154-0.35c0.701-0.234,1.337-0.588,1.907-1.063c0.261,0.44,0.451,0.907,0.572,1.403
	c0.118,0.496,0.179,0.996,0.179,1.505c0,0.66-0.085,1.308-0.258,1.948c-0.173,0.639-0.412,1.251-0.721,1.835
	c0.26,0.097,0.479,0.25,0.653,0.458c0.177,0.211,0.28,0.453,0.316,0.728c0.295-0.336,0.578-0.699,0.85-1.089
	c0.272-0.386,0.511-0.791,0.717-1.215c0.206-0.423,0.369-0.859,0.488-1.31c0.122-0.45,0.181-0.905,0.181-1.365
	C18.669,13.023,18.534,12.225,18.262,11.458z M15.679,9.748c-0.335,0.148-0.696,0.222-1.081,0.222c-0.365,0-0.713-0.069-1.042-0.207
	c-0.328-0.137-0.625-0.329-0.887-0.577l-1.04,2.072l-1.041-2.072c-0.261,0.248-0.556,0.439-0.887,0.577
	C9.372,9.901,9.025,9.97,8.661,9.97c-0.385,0-0.746-0.075-1.082-0.222C7.242,9.601,6.947,9.4,6.696,9.15
	C6.446,8.9,6.248,8.606,6.104,8.269C5.959,7.932,5.887,7.571,5.887,7.186c0-0.385,0.072-0.746,0.217-1.083
	c0.145-0.336,0.344-0.631,0.597-0.887C6.956,4.963,7.251,4.763,7.588,4.62S8.285,4.402,8.67,4.402c0.378,0,0.735,0.075,1.072,0.222
	c0.336,0.147,0.631,0.346,0.886,0.598c0.255,0.25,0.454,0.546,0.598,0.886c0.144,0.34,0.216,0.7,0.216,1.078
	c0,0.419-0.088,0.818-0.267,1.196l0.454-0.453l0.453,0.453c-0.178-0.378-0.268-0.777-0.268-1.196c0-0.385,0.072-0.746,0.217-1.083
	c0.145-0.336,0.344-0.631,0.597-0.887c0.255-0.253,0.55-0.454,0.882-0.597c0.333-0.145,0.692-0.217,1.076-0.217
	c0.385,0,0.748,0.072,1.089,0.217c0.339,0.145,0.635,0.344,0.887,0.597c0.25,0.254,0.449,0.55,0.593,0.887
	c0.146,0.337,0.215,0.698,0.215,1.083c0,0.385-0.071,0.746-0.215,1.083c-0.144,0.336-0.343,0.63-0.593,0.882
	C16.312,9.4,16.017,9.601,15.679,9.748z M10.711,6.319c-0.117-0.268-0.276-0.502-0.479-0.706C10.03,5.411,9.794,5.251,9.526,5.134
	C9.258,5.018,8.972,4.96,8.67,4.96S8.081,5.018,7.81,5.134C7.538,5.251,7.301,5.409,7.099,5.608C6.896,5.809,6.734,6.042,6.615,6.31
	c-0.12,0.268-0.18,0.556-0.18,0.866c0,0.309,0.058,0.598,0.175,0.87s0.276,0.508,0.479,0.711C7.292,8.959,7.529,9.119,7.8,9.235
	c0.271,0.117,0.562,0.176,0.871,0.176c0.302,0,0.588-0.058,0.856-0.176c0.268-0.117,0.503-0.276,0.706-0.479
	c0.203-0.203,0.363-0.44,0.479-0.711c0.117-0.271,0.175-0.559,0.175-0.86C10.887,6.877,10.829,6.589,10.711,6.319z M9.855,7.691
	C9.787,7.849,9.694,7.986,9.577,8.104C9.459,8.221,9.326,8.313,9.17,8.382c-0.155,0.068-0.321,0.103-0.5,0.103
	c-0.179,0-0.347-0.035-0.504-0.103C8.007,8.313,7.87,8.221,7.752,8.104C7.635,7.986,7.544,7.85,7.476,7.691
	C7.406,7.532,7.373,7.365,7.373,7.186c0-0.178,0.034-0.346,0.103-0.505c0.069-0.159,0.161-0.296,0.278-0.413
	c0.117-0.116,0.253-0.21,0.413-0.277c0.157-0.069,0.326-0.104,0.505-0.104c0.178,0,0.346,0.035,0.505,0.104
	C9.334,6.06,9.473,6.152,9.589,6.269c0.117,0.118,0.208,0.255,0.272,0.413c0.065,0.158,0.098,0.326,0.098,0.505
	C9.958,7.365,9.925,7.533,9.855,7.691z M10.516,19.041c0-0.206-0.073-0.382-0.217-0.525c-0.145-0.146-0.32-0.218-0.526-0.218H9.032
	c-0.199,0-0.371,0.074-0.516,0.222c-0.145,0.148-0.217,0.322-0.217,0.521v0.74c0,0.199,0.073,0.373,0.217,0.521
	s0.316,0.224,0.516,0.224v-0.682c0.014,0.186,0.093,0.347,0.237,0.479c0.145,0.134,0.313,0.202,0.505,0.202v-0.682
	c0.014,0.186,0.094,0.347,0.237,0.479c0.145,0.134,0.313,0.202,0.505,0.202V19.041z M15.701,13.854c0,0.646-0.092,1.285-0.272,1.917
	c-0.183,0.632-0.439,1.228-0.769,1.783h-0.433c-0.206,0-0.398,0.041-0.577,0.12c-0.178,0.079-0.335,0.186-0.469,0.319
	c-0.134,0.135-0.24,0.291-0.32,0.47c-0.079,0.179-0.119,0.371-0.119,0.577v2.228h0.835c-0.13,0.073-0.276,0.156-0.438,0.24
	c-0.162,0.086-0.328,0.167-0.5,0.238c-0.171,0.072-0.345,0.131-0.52,0.18C11.943,21.975,11.779,22,11.629,22
	c-0.157,0-0.322-0.025-0.494-0.073c-0.172-0.049-0.344-0.108-0.516-0.18c-0.172-0.072-0.339-0.152-0.5-0.238
	c-0.161-0.084-0.307-0.167-0.438-0.24h1.578v-2.228c0-0.206-0.039-0.398-0.119-0.577c-0.079-0.178-0.186-0.334-0.32-0.47
	c-0.134-0.134-0.291-0.24-0.47-0.319c-0.179-0.079-0.371-0.12-0.577-0.12H9.032c-0.138,0-0.271,0.021-0.402,0.063
	c-0.336-0.557-0.6-1.161-0.789-1.81c-0.189-0.649-0.284-1.3-0.284-1.952c0-0.31,0.025-0.613,0.072-0.908s0.123-0.587,0.226-0.876
	c0.57,0.35,1.175,0.612,1.814,0.784c0.639,0.172,1.292,0.257,1.958,0.257c0.666,0,1.321-0.085,1.964-0.257s1.247-0.433,1.809-0.784
	c0.103,0.289,0.179,0.582,0.226,0.882C15.677,13.253,15.701,13.554,15.701,13.854z M16.639,6.319
	c-0.117-0.268-0.276-0.502-0.479-0.706c-0.202-0.203-0.438-0.362-0.706-0.479c-0.27-0.117-0.555-0.174-0.855-0.174
	c-0.311,0-0.6,0.058-0.872,0.174c-0.271,0.117-0.506,0.275-0.704,0.474c-0.202,0.199-0.359,0.436-0.475,0.707
	c-0.117,0.271-0.176,0.562-0.176,0.87c0,0.31,0.058,0.597,0.176,0.865c0.117,0.268,0.275,0.503,0.479,0.707
	c0.203,0.203,0.438,0.362,0.706,0.479C14,9.353,14.29,9.411,14.598,9.411s0.598-0.058,0.865-0.176
	c0.267-0.117,0.501-0.276,0.7-0.479c0.201-0.203,0.358-0.44,0.475-0.711c0.117-0.271,0.174-0.559,0.174-0.86
	C16.813,6.877,16.756,6.589,16.639,6.319z M15.783,7.691c-0.069,0.157-0.162,0.295-0.279,0.412c-0.116,0.117-0.252,0.21-0.406,0.279
	c-0.155,0.068-0.321,0.103-0.5,0.103c-0.18,0-0.348-0.035-0.505-0.103c-0.159-0.069-0.296-0.162-0.414-0.279S13.469,7.85,13.4,7.691
	c-0.066-0.159-0.102-0.327-0.102-0.505c0-0.178,0.033-0.346,0.102-0.505c0.069-0.159,0.162-0.296,0.278-0.413
	c0.118-0.116,0.255-0.21,0.414-0.277c0.157-0.069,0.325-0.104,0.505-0.104c0.179,0,0.348,0.035,0.505,0.104
	c0.158,0.069,0.295,0.161,0.412,0.277c0.118,0.118,0.208,0.255,0.273,0.413s0.097,0.326,0.097,0.505S15.852,7.533,15.783,7.691z
	 M15.701,19.041c0-0.194-0.063-0.354-0.187-0.486c-0.123-0.13-0.273-0.213-0.453-0.248c-0.041-0.012-0.082-0.019-0.123-0.019
	c-0.042,0-0.085,0-0.134,0c-0.068,0-0.138,0-0.207,0.005c-0.068,0.002-0.133,0.005-0.194,0.005h-0.248
	c-0.118,0-0.218,0.025-0.299,0.076c-0.082,0.052-0.152,0.12-0.206,0.201c-0.055,0.082-0.097,0.174-0.123,0.273
	c-0.027,0.1-0.042,0.197-0.042,0.294v1.38c0.192,0,0.362-0.067,0.506-0.201c0.144-0.132,0.224-0.294,0.236-0.479v0.68
	c0.193,0,0.361-0.067,0.5-0.201c0.141-0.132,0.22-0.294,0.232-0.479v0.68c0.199,0,0.372-0.074,0.52-0.222
	c0.148-0.147,0.223-0.322,0.223-0.52L15.701,19.041L15.701,19.041z M5.65,19.041l1.299,1.484h-3.69
	c-0.199,0-0.373-0.076-0.521-0.224c-0.147-0.146-0.222-0.321-0.222-0.521c0-0.206,0.072-0.381,0.217-0.524
	c0.145-0.145,0.32-0.216,0.525-0.216H5.65z M21.483,19.781c0,0.199-0.074,0.373-0.223,0.521c-0.147,0.147-0.32,0.224-0.52,0.224
	H16.31l1.301-1.484h3.132c0.206,0,0.38,0.071,0.526,0.216C21.412,19.4,21.483,19.578,21.483,19.781z"/>
</svg>
