<svg version="1.1" id="master" xmlns="http://www.w3.org/2000/svg" xmlns:xlink="http://www.w3.org/1999/xlink" x="0px" y="0px"
	 width="24px" height="24px" viewBox="0 0 24 24" enable-background="new 0 0 24 24" xml:space="preserve">
<rect fill="none" width="24" height="24"/>
<path d="M17.282,11.543c-0.229-0.646-0.584-1.23-1.064-1.752c0.15-0.284,0.267-0.583,0.348-0.896s0.121-0.635,0.121-0.965
	c0-0.453-0.078-0.892-0.234-1.317c-0.156-0.426-0.377-0.819-0.661-1.179h0.27c0.174,0,0.337-0.032,0.487-0.095
	c0.15-0.064,0.282-0.152,0.396-0.266c0.113-0.113,0.203-0.245,0.27-0.396s0.101-0.313,0.101-0.487c0-0.029,0.001-0.07,0.004-0.122
	c0.003-0.052,0.004-0.107,0.004-0.165c0-0.087-0.01-0.165-0.03-0.235c-0.02-0.069-0.064-0.104-0.135-0.104
	c-0.069,0-0.114,0.033-0.135,0.1c-0.021,0.067-0.042,0.139-0.065,0.218c-0.022,0.078-0.063,0.149-0.121,0.213
	c-0.059,0.064-0.159,0.096-0.305,0.096h-2.27c-0.399-0.209-0.815-0.365-1.248-0.47c-0.432-0.104-0.871-0.156-1.317-0.156
	c-0.452,0-0.896,0.052-1.331,0.156s-0.852,0.261-1.252,0.47h-2.27c-0.145,0-0.246-0.032-0.304-0.096S6.44,3.961,6.417,3.883
	C6.394,3.804,6.373,3.732,6.352,3.665c-0.02-0.066-0.065-0.1-0.135-0.1c-0.046,0-0.084,0.014-0.113,0.043
	C6.075,3.638,6.061,3.675,6.061,3.722v0.47c0,0.174,0.033,0.336,0.1,0.487c0.067,0.151,0.157,0.283,0.27,0.396
	c0.113,0.113,0.245,0.202,0.396,0.266c0.151,0.063,0.313,0.095,0.487,0.095h0.27c-0.284,0.36-0.504,0.752-0.661,1.179
	C6.765,7.039,6.687,7.478,6.687,7.931c0,0.33,0.041,0.652,0.122,0.965s0.197,0.612,0.348,0.896
	c-0.481,0.521-0.836,1.105-1.065,1.752s-0.343,1.32-0.343,2.022c0,0.411,0.056,0.815,0.169,1.213
	c0.113,0.397,0.264,0.781,0.452,1.152s0.406,0.726,0.652,1.065c0.246,0.339,0.502,0.653,0.77,0.943h0.46
	c0-0.168,0.032-0.329,0.096-0.483c0.064-0.153,0.154-0.288,0.27-0.404c-0.313-0.521-0.556-1.081-0.73-1.678
	c-0.174-0.598-0.261-1.2-0.261-1.809c0-0.429,0.051-0.851,0.152-1.266c0.102-0.414,0.262-0.807,0.482-1.178
	c0.481,0.4,1.018,0.699,1.609,0.896c0.591,0.197,1.197,0.295,1.817,0.295s1.226-0.099,1.817-0.295
	c0.592-0.197,1.128-0.496,1.609-0.896c0.22,0.371,0.381,0.765,0.482,1.183s0.152,0.84,0.152,1.27c0,0.557-0.072,1.104-0.218,1.644
	c-0.145,0.539-0.348,1.055-0.608,1.548c0.22,0.081,0.404,0.21,0.552,0.387c0.148,0.177,0.236,0.381,0.266,0.613
	c0.249-0.284,0.488-0.59,0.717-0.918c0.229-0.327,0.431-0.669,0.604-1.026c0.174-0.356,0.312-0.725,0.413-1.104
	c0.102-0.38,0.152-0.764,0.152-1.152C17.626,12.863,17.512,12.19,17.282,11.543z M15.104,10.1c-0.284,0.125-0.589,0.187-0.913,0.187
	c-0.308,0-0.601-0.058-0.878-0.174c-0.278-0.116-0.528-0.278-0.748-0.487l-0.878,1.748l-0.878-1.748
	c-0.22,0.209-0.469,0.371-0.748,0.487c-0.278,0.116-0.571,0.174-0.878,0.174c-0.325,0-0.629-0.063-0.913-0.187
	S7.738,9.807,7.526,9.596c-0.211-0.211-0.378-0.459-0.5-0.744C6.904,8.568,6.843,8.264,6.843,7.939S6.904,7.31,7.026,7.026
	c0.122-0.284,0.29-0.533,0.504-0.748c0.215-0.214,0.464-0.383,0.748-0.504s0.588-0.183,0.913-0.183c0.319,0,0.62,0.063,0.904,0.187
	s0.533,0.292,0.748,0.504c0.215,0.211,0.383,0.461,0.504,0.748c0.122,0.287,0.183,0.59,0.183,0.909c0,0.354-0.075,0.69-0.226,1.009
	l0.383-0.382l0.382,0.382c-0.15-0.319-0.226-0.655-0.226-1.009c0-0.325,0.061-0.629,0.183-0.913c0.122-0.284,0.29-0.533,0.504-0.748
	c0.215-0.214,0.463-0.383,0.743-0.504c0.281-0.122,0.585-0.183,0.909-0.183s0.631,0.061,0.917,0.183
	c0.287,0.122,0.537,0.29,0.748,0.504c0.212,0.214,0.379,0.464,0.5,0.748C16.47,7.31,16.53,7.614,16.53,7.939
	s-0.061,0.629-0.183,0.913c-0.121,0.284-0.288,0.532-0.5,0.744C15.637,9.807,15.389,9.976,15.104,10.1z M10.913,7.208
	c-0.099-0.226-0.233-0.424-0.404-0.595s-0.37-0.306-0.596-0.405C9.687,6.11,9.446,6.061,9.191,6.061
	c-0.255,0-0.497,0.049-0.726,0.147c-0.229,0.099-0.429,0.232-0.6,0.4C7.694,6.777,7.558,6.974,7.457,7.2s-0.152,0.469-0.152,0.73
	c0,0.261,0.049,0.505,0.148,0.734c0.099,0.229,0.233,0.429,0.404,0.6s0.371,0.306,0.6,0.404s0.474,0.148,0.735,0.148
	c0.255,0,0.496-0.049,0.722-0.148s0.425-0.233,0.596-0.404s0.306-0.371,0.404-0.6c0.099-0.229,0.148-0.471,0.148-0.726
	C11.061,7.678,11.012,7.435,10.913,7.208z M10.191,8.365c-0.058,0.133-0.136,0.249-0.235,0.348S9.744,8.89,9.613,8.948
	C9.482,9.006,9.342,9.035,9.191,9.035c-0.151,0-0.293-0.029-0.426-0.087C8.632,8.89,8.516,8.812,8.417,8.713
	S8.241,8.499,8.183,8.365S8.096,8.09,8.096,7.939c0-0.15,0.029-0.292,0.087-0.426s0.136-0.25,0.235-0.348
	c0.099-0.098,0.214-0.177,0.348-0.234c0.133-0.058,0.275-0.087,0.426-0.087c0.15,0,0.292,0.029,0.426,0.087
	c0.133,0.058,0.25,0.136,0.348,0.234c0.099,0.099,0.175,0.215,0.23,0.348c0.055,0.133,0.083,0.275,0.083,0.426
	C10.278,8.09,10.25,8.232,10.191,8.365z M10.748,17.939c0-0.174-0.061-0.322-0.183-0.443c-0.122-0.122-0.27-0.183-0.444-0.183H9.496
	c-0.168,0-0.313,0.062-0.435,0.187c-0.122,0.125-0.183,0.271-0.183,0.439v0.626c0,0.168,0.061,0.314,0.183,0.438
	c0.122,0.125,0.267,0.188,0.435,0.188v-0.574c0.012,0.156,0.078,0.292,0.2,0.404c0.122,0.113,0.264,0.17,0.426,0.17v-0.574
	c0.012,0.156,0.079,0.292,0.2,0.404c0.122,0.113,0.264,0.17,0.426,0.17V17.939z M15.122,13.565c0,0.545-0.077,1.084-0.23,1.617
	c-0.154,0.533-0.37,1.035-0.648,1.504h-0.365c-0.174,0-0.336,0.034-0.486,0.101c-0.151,0.066-0.283,0.156-0.396,0.27
	c-0.113,0.113-0.203,0.245-0.27,0.396c-0.067,0.15-0.101,0.313-0.101,0.487v1.878h0.704c-0.109,0.063-0.233,0.132-0.369,0.204
	c-0.137,0.072-0.277,0.14-0.422,0.2c-0.145,0.061-0.291,0.111-0.439,0.152c-0.148,0.04-0.286,0.061-0.413,0.061
	c-0.133,0-0.272-0.021-0.417-0.061c-0.145-0.041-0.29-0.092-0.435-0.152c-0.145-0.061-0.286-0.128-0.422-0.2
	s-0.259-0.141-0.37-0.204h1.331v-1.878c0-0.174-0.033-0.337-0.1-0.487s-0.157-0.282-0.27-0.396c-0.113-0.113-0.245-0.203-0.396-0.27
	c-0.151-0.066-0.313-0.101-0.487-0.101H9.496c-0.116,0-0.229,0.018-0.339,0.053c-0.284-0.47-0.506-0.979-0.666-1.526
	c-0.159-0.548-0.239-1.097-0.239-1.647c0-0.261,0.021-0.517,0.061-0.766s0.104-0.496,0.191-0.739
	c0.481,0.295,0.991,0.516,1.53,0.661s1.09,0.218,1.652,0.218s1.115-0.073,1.657-0.218s1.051-0.365,1.525-0.661
	c0.087,0.243,0.151,0.491,0.191,0.744C15.102,13.057,15.122,13.311,15.122,13.565z M15.913,7.208
	c-0.099-0.226-0.233-0.424-0.404-0.595s-0.37-0.306-0.596-0.405c-0.227-0.098-0.467-0.147-0.722-0.147
	c-0.261,0-0.506,0.049-0.735,0.147c-0.229,0.099-0.427,0.232-0.595,0.4c-0.169,0.168-0.302,0.367-0.4,0.596
	s-0.148,0.474-0.148,0.734c0,0.261,0.049,0.504,0.148,0.73s0.233,0.425,0.404,0.596s0.369,0.306,0.596,0.404
	c0.226,0.099,0.47,0.148,0.73,0.148s0.504-0.049,0.73-0.148c0.226-0.099,0.423-0.233,0.591-0.404c0.169-0.171,0.302-0.371,0.4-0.6
	c0.099-0.229,0.147-0.471,0.147-0.726C16.061,7.678,16.012,7.435,15.913,7.208z M15.191,8.365c-0.058,0.133-0.137,0.249-0.235,0.348
	c-0.098,0.099-0.213,0.177-0.343,0.235c-0.131,0.058-0.271,0.087-0.422,0.087s-0.293-0.029-0.426-0.087
	c-0.134-0.058-0.25-0.136-0.349-0.235s-0.177-0.214-0.234-0.348s-0.087-0.275-0.087-0.426c0-0.15,0.029-0.292,0.087-0.426
	s0.136-0.25,0.234-0.348c0.099-0.098,0.215-0.177,0.349-0.234c0.133-0.058,0.275-0.087,0.426-0.087s0.293,0.029,0.426,0.087
	c0.134,0.058,0.249,0.136,0.348,0.234c0.099,0.099,0.176,0.215,0.23,0.348c0.056,0.133,0.083,0.275,0.083,0.426
	C15.278,8.09,15.249,8.232,15.191,8.365z M15.122,17.939c0-0.163-0.053-0.299-0.157-0.409c-0.104-0.11-0.231-0.18-0.382-0.209
	c-0.035-0.011-0.07-0.017-0.104-0.017c-0.035,0-0.072,0-0.113,0c-0.058,0-0.116,0.001-0.174,0.004s-0.113,0.005-0.165,0.005h-0.209
	c-0.099,0-0.183,0.021-0.252,0.064c-0.069,0.044-0.128,0.101-0.174,0.17c-0.047,0.069-0.081,0.146-0.104,0.23
	s-0.035,0.167-0.035,0.248v1.165c0.162,0,0.305-0.057,0.427-0.17c0.121-0.112,0.188-0.248,0.199-0.404v0.574
	c0.163,0,0.304-0.057,0.422-0.17c0.119-0.112,0.185-0.248,0.196-0.404v0.574c0.168,0,0.314-0.063,0.438-0.188
	c0.125-0.124,0.188-0.271,0.188-0.438V17.939z M6.643,17.939l1.096,1.252H2.626c-0.168,0-0.314-0.063-0.439-0.188
	C2.063,18.88,2,18.733,2,18.565c0-0.174,0.061-0.322,0.183-0.443c0.122-0.122,0.27-0.183,0.443-0.183H6.643z M22,18.565
	c0,0.168-0.063,0.314-0.187,0.438c-0.125,0.125-0.271,0.188-0.439,0.188h-5.738l1.096-1.252h4.643c0.174,0,0.321,0.061,0.443,0.183
	C21.939,18.243,22,18.392,22,18.565z"/>
</svg>
