<svg version="1.1" id="master" xmlns="http://www.w3.org/2000/svg" xmlns:xlink="http://www.w3.org/1999/xlink" x="0px" y="0px"
	 width="24px" height="24px" viewBox="0 0 24 24" enable-background="new 0 0 24 24" xml:space="preserve">
<rect fill="none" width="24" height="24"/>
<path d="M7.716,2H2.507l5,5h5.209L7.716,2z M10.568,2l5,5h5.716l-5-5H10.568z M2,2.507v13.777l5,5V7.507L2,2.507z M6.284,18.432
	l-2.147-2.147v-2.853l2.147,2.137V18.432z M16.284,7.716v2.137h-2.853V7.716H7.716V22H22V7.716H16.284z M20.568,20.578H17v-0.715
	h3.568V20.578z M20.568,18.432h-2.137v-0.716h2.137V18.432z"/>
</svg>
