<svg version="1.1" id="master" xmlns="http://www.w3.org/2000/svg" xmlns:xlink="http://www.w3.org/1999/xlink" x="0px" y="0px" width="24px" height="24px" viewBox="0 0 24 24" enable-background="new 0 0 24 24" xml:space="preserve">
<rect fill="none" width="24" height="24"/>
<path d="M2,20.628c0,0.192,0.04,0.373,0.119,0.542s0.184,0.314,0.313,0.438c0.129,0.122,0.28,0.219,0.452,0.288S3.239,22,3.432,22c0.073,0,0.149-0.005,0.229-0.015s0.152-0.028,0.219-0.055l9.294-3.986c0.298-0.126,0.535-0.3,0.711-0.521c0.176-0.223,0.264-0.502,0.264-0.841c0-0.191-0.038-0.374-0.114-0.546c-0.076-0.173-0.181-0.325-0.313-0.458L8.432,10.29c-0.146-0.146-0.297-0.253-0.453-0.323C7.823,9.897,7.64,9.863,7.427,9.863c-0.338,0-0.616,0.086-0.835,0.258c-0.219,0.173-0.394,0.411-0.527,0.716l-3.976,9.274c-0.033,0.079-0.056,0.162-0.069,0.248C2.007,20.446,2,20.535,2,20.628z M4.853,7c0,0.199,0.069,0.368,0.208,0.507S5.37,7.716,5.568,7.716c0.199,0,0.368-0.07,0.507-0.209S6.284,7.199,6.284,7S6.215,6.632,6.076,6.493S5.768,6.284,5.568,6.284c-0.199,0-0.368,0.07-0.507,0.209S4.853,6.801,4.853,7z M7.716,14.147c-0.199,0-0.368-0.07-0.507-0.209C7.07,13.799,7,13.63,7,13.432c0-0.199,0.07-0.368,0.209-0.507c0.139-0.14,0.308-0.209,0.507-0.209c0.192,0,0.359,0.071,0.502,0.214s0.214,0.31,0.214,0.502s-0.071,0.359-0.214,0.502S7.908,14.147,7.716,14.147z M7.716,4.495c0,0.152,0.028,0.293,0.084,0.422C7.856,5.047,7.933,5.16,8.029,5.255c0.096,0.096,0.209,0.172,0.338,0.229c0.129,0.057,0.27,0.084,0.422,0.084c0.073,0,0.149-0.003,0.229-0.01c0.08-0.006,0.156-0.01,0.229-0.01c0.066,0,0.134,0.003,0.204,0.01c0.07,0.007,0.134,0.023,0.194,0.05s0.109,0.064,0.149,0.114c0.04,0.05,0.06,0.118,0.06,0.204c0,0.086-0.02,0.154-0.06,0.204c-0.04,0.049-0.09,0.088-0.149,0.114S9.52,6.288,9.45,6.294c-0.069,0.006-0.137,0.01-0.204,0.01c-0.073,0-0.149-0.003-0.229-0.01c-0.08-0.007-0.156-0.01-0.229-0.01c-0.152,0-0.293,0.028-0.422,0.084C8.238,6.425,8.125,6.501,8.029,6.598C7.933,6.693,7.856,6.808,7.8,6.94C7.744,7.073,7.716,7.212,7.716,7.358S7.744,7.641,7.8,7.771c0.056,0.129,0.134,0.244,0.233,0.343c0.1,0.1,0.214,0.177,0.343,0.233c0.129,0.057,0.267,0.085,0.412,0.085h0.706c0.159,0,0.26,0.058,0.303,0.174s0.064,0.244,0.064,0.383c0,0.06-0.001,0.118-0.005,0.174S9.853,9.27,9.853,9.316c0,0.066,0.003,0.131,0.01,0.194c0.007,0.063,0.021,0.12,0.045,0.169c0.023,0.05,0.06,0.091,0.109,0.125c0.049,0.033,0.114,0.05,0.194,0.05c0.159,0,0.262-0.063,0.308-0.189s0.069-0.265,0.069-0.417c0-0.093-0.003-0.179-0.01-0.258c-0.007-0.08-0.01-0.146-0.01-0.199c0-0.146-0.028-0.285-0.084-0.417c-0.056-0.132-0.132-0.247-0.229-0.343c-0.096-0.096-0.21-0.172-0.343-0.229C9.78,7.744,9.641,7.716,9.495,7.716c-0.073,0-0.149,0.003-0.229,0.01c-0.08,0.007-0.156,0.01-0.229,0.01c-0.066,0-0.136-0.003-0.208-0.01C8.756,7.719,8.69,7.703,8.63,7.676c-0.06-0.026-0.108-0.064-0.144-0.114C8.45,7.512,8.432,7.444,8.432,7.358S8.45,7.204,8.486,7.154C8.522,7.104,8.571,7.066,8.63,7.04C8.69,7.013,8.756,6.997,8.829,6.99c0.073-0.007,0.143-0.01,0.208-0.01c0.073,0,0.149,0.003,0.229,0.01C9.346,6.997,9.422,7,9.495,7C9.641,7,9.78,6.972,9.913,6.916c0.132-0.056,0.247-0.132,0.343-0.229s0.172-0.209,0.229-0.338c0.057-0.129,0.084-0.27,0.084-0.423c0-0.146-0.028-0.283-0.084-0.412c-0.056-0.129-0.134-0.244-0.233-0.343c-0.1-0.099-0.214-0.177-0.343-0.233C9.778,4.881,9.641,4.853,9.495,4.853c-0.073,0-0.149,0.003-0.229,0.01c-0.08,0.007-0.156,0.01-0.229,0.01c-0.066,0-0.136-0.003-0.208-0.01C8.756,4.856,8.69,4.84,8.63,4.813c-0.06-0.026-0.108-0.064-0.144-0.114C8.45,4.649,8.432,4.581,8.432,4.495c0-0.159,0.066-0.262,0.199-0.308c0.132-0.046,0.275-0.07,0.427-0.07c0.086,0,0.167,0.003,0.244,0.01c0.076,0.006,0.141,0.01,0.194,0.01c0.238,0,0.431-0.043,0.577-0.129c0.146-0.086,0.256-0.2,0.333-0.343c0.076-0.143,0.125-0.307,0.149-0.492c0.023-0.186,0.035-0.374,0.035-0.566c0-0.066-0.003-0.134-0.01-0.204c-0.007-0.069-0.023-0.134-0.05-0.193c-0.026-0.06-0.064-0.109-0.114-0.149C10.365,2.02,10.297,2,10.211,2c-0.153,0-0.252,0.053-0.298,0.159s-0.07,0.225-0.07,0.358c0,0.073,0.003,0.146,0.01,0.218c0.006,0.073,0.01,0.136,0.01,0.189c0,0.133-0.021,0.25-0.064,0.353C9.755,3.38,9.654,3.432,9.495,3.432H8.789c-0.146,0-0.283,0.028-0.412,0.084C8.248,3.572,8.133,3.647,8.034,3.74C7.935,3.833,7.856,3.945,7.8,4.078C7.744,4.21,7.716,4.35,7.716,4.495z M9.853,17c-0.192,0-0.36-0.071-0.502-0.214c-0.143-0.143-0.214-0.31-0.214-0.502s0.071-0.357,0.214-0.497c0.142-0.139,0.31-0.209,0.502-0.209c0.192,0,0.359,0.07,0.502,0.209c0.143,0.14,0.213,0.305,0.213,0.497c0,0.199-0.069,0.368-0.208,0.507C10.221,16.931,10.052,17,9.853,17z M15.927,9.147c-0.497,0-0.981,0.068-1.451,0.204c-0.471,0.136-0.912,0.328-1.322,0.576c-0.411,0.249-0.786,0.552-1.124,0.91s-0.623,0.755-0.855,1.193l0.537,0.527c0.186-0.411,0.426-0.782,0.721-1.113s0.626-0.615,0.994-0.85c0.367-0.235,0.764-0.417,1.188-0.546c0.424-0.129,0.861-0.194,1.313-0.194c0.099,0,0.184-0.035,0.253-0.104c0.069-0.07,0.104-0.154,0.104-0.253c0-0.093-0.036-0.174-0.109-0.244C16.103,9.182,16.02,9.147,15.927,9.147z M12,7.716c-0.199,0-0.368,0.069-0.507,0.208s-0.209,0.308-0.209,0.507c0,0.192,0.071,0.359,0.214,0.502S11.808,9.147,12,9.147s0.359-0.071,0.502-0.213s0.214-0.31,0.214-0.502c0-0.199-0.069-0.368-0.209-0.507C12.368,7.785,12.199,7.716,12,7.716z M12.716,4.853c-0.199,0-0.368,0.069-0.507,0.208S12,5.37,12,5.568c0,0.199,0.07,0.368,0.209,0.507s0.308,0.208,0.507,0.208c0.198,0,0.368-0.069,0.507-0.208c0.14-0.139,0.209-0.308,0.209-0.507c0-0.199-0.069-0.368-0.209-0.507C13.084,4.922,12.914,4.853,12.716,4.853z M21.394,14.167c0.066,0,0.135-0.003,0.204-0.01s0.134-0.023,0.193-0.05s0.109-0.064,0.149-0.114S22,13.875,22,13.789c0-0.152-0.053-0.252-0.159-0.298c-0.105-0.047-0.226-0.069-0.357-0.069c-0.073,0-0.145,0.003-0.214,0.01s-0.131,0.01-0.184,0.01c-0.232,0-0.38-0.047-0.442-0.14c-0.063-0.093-0.095-0.215-0.095-0.367c0-0.086,0.003-0.176,0.01-0.269s0.01-0.195,0.01-0.308c0-0.146-0.028-0.283-0.084-0.413c-0.057-0.129-0.133-0.244-0.229-0.343c-0.097-0.1-0.209-0.177-0.338-0.234c-0.13-0.056-0.268-0.084-0.413-0.084s-0.283,0.028-0.412,0.084c-0.13,0.057-0.244,0.134-0.344,0.234c-0.099,0.099-0.177,0.213-0.233,0.343c-0.056,0.129-0.084,0.267-0.084,0.413c0,0.08,0.003,0.158,0.01,0.234s0.01,0.153,0.01,0.233c0,0.066-0.003,0.134-0.01,0.204c-0.007,0.069-0.023,0.134-0.05,0.193s-0.064,0.109-0.114,0.149c-0.05,0.039-0.117,0.06-0.204,0.06c-0.086,0-0.153-0.021-0.203-0.06c-0.05-0.04-0.088-0.09-0.114-0.149c-0.027-0.06-0.044-0.124-0.05-0.193c-0.007-0.07-0.01-0.138-0.01-0.204c0-0.08,0.003-0.157,0.01-0.233c0.006-0.076,0.01-0.154,0.01-0.234c0-0.146-0.028-0.283-0.085-0.413c-0.056-0.129-0.134-0.244-0.233-0.343c-0.1-0.1-0.214-0.177-0.343-0.234c-0.129-0.056-0.267-0.084-0.412-0.084c-0.146,0-0.284,0.028-0.413,0.084c-0.129,0.057-0.243,0.134-0.343,0.234c-0.1,0.099-0.178,0.213-0.233,0.343c-0.057,0.129-0.085,0.267-0.085,0.413v0.715c0,0.159-0.058,0.261-0.174,0.304s-0.243,0.064-0.383,0.064c-0.06,0-0.117-0.002-0.174-0.005c-0.057-0.004-0.107-0.005-0.154-0.005c-0.066,0-0.131,0.003-0.193,0.01c-0.063,0.007-0.119,0.021-0.169,0.045s-0.092,0.06-0.124,0.109c-0.033,0.05-0.05,0.114-0.05,0.193c0,0.159,0.063,0.262,0.188,0.309c0.126,0.046,0.265,0.069,0.418,0.069c0.093,0,0.179-0.003,0.258-0.01c0.08-0.007,0.146-0.01,0.199-0.01c0.146,0,0.283-0.028,0.412-0.085c0.13-0.057,0.244-0.134,0.343-0.233c0.1-0.1,0.178-0.214,0.234-0.343c0.056-0.13,0.084-0.267,0.084-0.413c0-0.079-0.003-0.157-0.01-0.233s-0.01-0.154-0.01-0.233c0-0.066,0.003-0.134,0.01-0.204c0.007-0.069,0.023-0.134,0.05-0.193c0.026-0.06,0.064-0.109,0.114-0.149c0.05-0.04,0.117-0.06,0.204-0.06c0.086,0,0.153,0.02,0.203,0.06c0.05,0.04,0.088,0.089,0.114,0.149c0.026,0.06,0.043,0.124,0.05,0.193c0.007,0.07,0.01,0.138,0.01,0.204c0,0.079-0.003,0.157-0.01,0.233S17,12.994,17,13.073c0,0.146,0.028,0.283,0.085,0.413c0.056,0.129,0.134,0.243,0.233,0.343s0.214,0.177,0.343,0.233s0.267,0.085,0.412,0.085c0.146,0,0.283-0.028,0.413-0.085c0.129-0.057,0.243-0.134,0.343-0.233s0.177-0.214,0.233-0.343c0.057-0.13,0.085-0.267,0.085-0.413c0-0.079-0.004-0.157-0.011-0.233c-0.006-0.076-0.01-0.154-0.01-0.233c0-0.066,0.004-0.134,0.01-0.204c0.007-0.069,0.023-0.134,0.05-0.193c0.027-0.06,0.065-0.109,0.114-0.149c0.05-0.04,0.118-0.06,0.204-0.06c0.152,0,0.252,0.062,0.298,0.184c0.047,0.123,0.07,0.26,0.07,0.413c0,0.093-0.004,0.181-0.01,0.263c-0.007,0.083-0.011,0.154-0.011,0.214c0,0.239,0.045,0.431,0.135,0.577c0.089,0.146,0.205,0.257,0.348,0.333s0.307,0.126,0.492,0.148C21.013,14.155,21.201,14.167,21.394,14.167z M17,17c0.199,0,0.368-0.069,0.507-0.209c0.14-0.139,0.209-0.308,0.209-0.507c0-0.192-0.071-0.357-0.214-0.497c-0.143-0.139-0.31-0.209-0.502-0.209s-0.359,0.07-0.502,0.209c-0.143,0.14-0.214,0.305-0.214,0.497c0,0.199,0.069,0.368,0.209,0.507C16.632,16.931,16.801,17,17,17z M18.432,8.432c-0.199,0-0.368,0.069-0.507,0.208c-0.14,0.139-0.209,0.308-0.209,0.507c0,0.192,0.071,0.358,0.214,0.497s0.31,0.209,0.502,0.209s0.359-0.07,0.502-0.209s0.214-0.305,0.214-0.497c0-0.199-0.07-0.368-0.209-0.507C18.799,8.501,18.63,8.432,18.432,8.432z"/>
</svg>
