<svg version="1.1" id="master" xmlns="http://www.w3.org/2000/svg" xmlns:xlink="http://www.w3.org/1999/xlink" x="0px" y="0px" width="24px" height="24px" viewBox="0 0 24 24" enable-background="new 0 0 24 24" xml:space="preserve">
<rect fill="none" width="24" height="24"/>
<path d="M6.003,10.418H4.879l-0.614,3.16h1c0.663,0,1.156-0.126,1.48-0.376c0.325-0.251,0.543-0.667,0.656-1.251c0.11-0.561,0.06-0.956-0.147-1.187C7.044,10.534,6.629,10.418,6.003,10.418z M8.069,13.916c-0.312,0.296-0.685,0.522-1.093,0.657c-0.4,0.128-0.913,0.195-1.532,0.195h-1.41l-0.389,2.004H2l1.466-7.543h3.16c0.951,0,1.643,0.249,2.08,0.748c0.437,0.5,0.567,1.195,0.394,2.09c-0.066,0.354-0.189,0.695-0.363,1.01C8.566,13.382,8.344,13.662,8.069,13.916z M12.866,14.769l0.647-3.338c0.077-0.381,0.046-0.64-0.081-0.777c-0.127-0.139-0.401-0.208-0.819-0.208h-1.302l-0.838,4.323H8.842l1.467-7.544h1.629l-0.389,2.005h1.452c0.915,0,1.542,0.16,1.891,0.478c0.347,0.318,0.45,0.834,0.314,1.55l-0.684,3.512H12.866L12.866,14.769z M21.926,12.067c-0.065,0.354-0.188,0.695-0.363,1.01c-0.172,0.305-0.393,0.585-0.669,0.839c-0.313,0.296-0.685,0.52-1.096,0.657c-0.398,0.128-0.912,0.195-1.531,0.195h-1.409l-0.389,2.007h-1.642l1.466-7.546h3.16c0.948,0,1.642,0.249,2.077,0.748C21.968,10.476,22.1,11.173,21.926,12.067z M18.831,10.418h-1.124l-0.616,3.16h0.999c0.665,0,1.16-0.126,1.481-0.376c0.324-0.251,0.542-0.667,0.657-1.251c0.108-0.561,0.059-0.956-0.149-1.187C19.872,10.534,19.455,10.418,18.831,10.418L18.831,10.418z"/>
</svg>
