<svg version="1.1" id="master" xmlns="http://www.w3.org/2000/svg" xmlns:xlink="http://www.w3.org/1999/xlink" x="0px" y="0px" width="24px" height="24px" viewBox="0 0 24 24" enable-background="new 0 0 24 24" xml:space="preserve" fill="#BD081B">
<rect fill="none" width="24" height="24"/>
<path d="M13.54,16.465c-1.253,0-2.402-0.679-2.768-1.462l-0.835,3.186c-0.471,1.827-1.984,3.603-2.089,3.76L7.691,22c-0.295-1.479-0.33-2.999-0.104-4.491l1.515-6.266c0,0-0.365-0.731-0.365-1.775c0-1.723,0.939-3.029,2.193-3.029c1.096,0,1.566,0.835,1.566,1.775c0,1.044-0.679,2.611-0.992,4.021c-0.313,1.253,0.574,2.193,1.775,2.193c2.193,0,3.655-2.715,3.655-6.057c0-2.506-1.671-4.438-4.805-4.438c-3.498,0-5.64,2.611-5.64,5.535c0,0.992,0.313,1.671,0.783,2.246c0.157,0.261,0.209,0.313,0.104,0.626l-0.156,0.94c-0.104,0.261-0.365,0.365-0.627,0.261c-1.618-0.626-2.35-2.402-2.35-4.334C4.245,5.917,7.013,2,12.443,2c4.387,0,7.312,3.133,7.312,6.58C19.755,13.123,17.248,16.465,13.54,16.465z"/>
</svg>
