<svg version="1.1" id="master" xmlns="http://www.w3.org/2000/svg" xmlns:xlink="http://www.w3.org/1999/xlink" x="0px" y="0px" width="24px" height="24px" viewBox="0 0 24 24" enable-background="new 0 0 24 24" xml:space="preserve">
<rect fill="none" width="24" height="24"/>
<path d="M13.111,6.444h-2.223v11.111h2.223V6.444z M12,2C6.477,2,2,6.477,2,12c0,5.522,4.477,10,10,10c5.522,0,10-4.478,10-10C22,6.477,17.522,2,12,2z M12,19.8c-4.308,0-7.8-3.493-7.8-7.8c0-4.308,3.492-7.8,7.8-7.8c4.307,0,7.8,3.492,7.8,7.8C19.8,16.307,16.307,19.8,12,19.8z"/>
</svg>
