<svg version="1.1" id="master" xmlns="http://www.w3.org/2000/svg" xmlns:xlink="http://www.w3.org/1999/xlink" x="0px" y="0px" width="24px" height="24px" viewBox="0 0 24 24" enable-background="new 0 0 24 24" xml:space="preserve">
<rect fill="none" width="24" height="24"/>
<path d="M19,8h-8.171l9,9H22v-6C22,9.34,20.66,8,19,8z M19,12c-0.55,0-1-0.45-1-1s0.45-1,1-1s1,0.45,1,1S19.55,12,19,12z M9.829,7L6,3.171V3h12v4H9.829z M18,17.999l-2-2V16l-2-2h0.001L9.646,9.646L3.415,3.414L2,4.828L5.172,8H5c-1.66,0-3,1.34-3,3v6h4v4h12v-0.172L19.172,22l1.414-1.414L18,17.999L18,17.999z M16,19H8v-5h3.172L16,18.828V19z"/>
</svg>
