<svg version="1.1" id="master" xmlns="http://www.w3.org/2000/svg" xmlns:xlink="http://www.w3.org/1999/xlink" x="0px" y="0px" width="24px" height="24px" viewBox="0 0 24 24" enable-background="new 0 0 24 24" xml:space="preserve" fill="#8A90C7">
<rect fill="none" width="24" height="24"/>
<path d="M19.149,21.386c0,0-0.335,0.614-0.949,0.614H5.8c-0.949,0-0.949-0.614-0.949-0.614v-6.703l5.418,3.798l1.899,0.671l1.563-0.615l5.418-3.854V21.386z M12.168,2.002c0,0-6.033-0.335-7.317,6.368v4.413c0,0,0,0.67,1.284,1.62c1.564,0.949,5.083,3.798,6.033,3.798c0.949,0,4.133-2.849,5.697-3.854c1.284-0.895,1.284-1.564,1.284-1.564V8.371C17.865,1.667,12.168,2.002,12.168,2.002z M15.966,10.884H8.034V8.371c0.614-3.184,4.134-3.184,4.134-3.184s3.184,0,3.798,3.184V10.884z"/>
</svg>
