<svg version="1.1" id="master" xmlns="http://www.w3.org/2000/svg" xmlns:xlink="http://www.w3.org/1999/xlink" x="0px" y="0px"
	 width="24px" height="24px" viewBox="0 0 24 24" enable-background="new 0 0 24 24" xml:space="preserve">
<rect fill="none" width="24" height="24"/>
<path d="M17.971,5.833l-1.033,1.033l3.309,3.309l-3.309,3.309l1.033,1.033l3.816-3.833
	c0.284-0.283,0.284-0.742,0-1.025L17.971,5.833z M7.796,7.617l1.558,1.458h6.858l-1.559-1.458H7.796z M6.046,9.483l-3.834,3.833
	c-0.283,0.283-0.283,0.742,0,1.025l3.834,3.825l1.025-1.034l-3.309-3.308l3.309-3.309L6.038,9.483H6.046z M9.354,11.267
	l-1.558,1.467h6.858l1.559-1.467H9.354z M7.796,14.926l1.558,1.457h6.858l-1.559-1.457H7.796z"/>
</svg>
