<svg version="1.1" id="master" xmlns="http://www.w3.org/2000/svg" xmlns:xlink="http://www.w3.org/1999/xlink" x="0px" y="0px" width="24px" height="24px" viewBox="0 0 24 24" enable-background="new 0 0 24 24" xml:space="preserve">
<rect fill="none" width="24" height="24"/>
<path d="M21.935,13.316v3.261l-2.81,1.023l-0.064,0.046l0.042,0.03l2.876-1.046L22,16.6v-3.33l-0.044-0.031L21.935,13.316L21.935,13.316z M21.685,6.682L19.15,7.604v3.26l2.783-1.013V6.591L21.685,6.682z M21.934,13.214V9.953l-2.78,1.013v3.261L21.934,13.214z M19.059,14.258V11l-2.75,1v3.261L19.059,14.258z M16.195,18.663v-3.26l-2.762,1.005v3.26L16.195,18.663z M16.309,15.381v3.223l2.762-1.005v-3.224L16.309,15.381L16.309,15.381z M18.053,16.949c-0.306,0.111-0.553-0.062-0.553-0.386s0.247-0.679,0.553-0.789c0.304-0.11,0.551,0.062,0.551,0.387C18.604,16.484,18.356,16.839,18.053,16.949z M13.021,9.763l0.305-0.11l-2.737-0.998l-2.77,1.009l0.085,0.031l2.653,0.967L13.021,9.763z M19.089,10.887V7.626l-2.78,1.011v3.262L19.089,10.887z M16.216,11.932V8.671l-2.753,1.001v3.261L16.216,11.932z M13.369,9.705l-2.78,1.012v3.262l2.78-1.013V9.705z M7.756,12.971l2.769,1.008v-3.262L7.756,9.71V12.971z M10.617,8.561l2.734,0.994V6.332l-2.733-0.995L10.617,8.561z M19.089,4.262l-2.765,1.006v3.262l2.765-1.006V4.262z M16.125,5.252l-2.688-0.978l-2.725,0.992l2.687,0.978L16.125,5.252z M14.805,5.838l-1.354,0.494v3.223l2.765-1.006V5.326L14.805,5.838z M14.479,8.153c-0.306,0.111-0.552-0.062-0.552-0.387s0.246-0.678,0.552-0.788c0.305-0.111,0.552,0.062,0.552,0.387C15.03,7.689,14.783,8.042,14.479,8.153z M10.524,17.342V14.08l-2.769-1.008v3.262L10.524,17.342z M13.398,16.318v-3.261l-2.809,1.022v3.261L13.398,16.318z M13.463,16.295l2.751-1v-3.262l-2.751,1V16.295z M13.398,19.681l-2.809,1.022v-3.26h-0.065v3.26l-2.769-1.008v-3.26l-0.044-0.049l-0.021-0.05l-2.78-1.009v-3.29l0.028,0.011l2.739,0.997l0.013-0.065l-2.718-0.989l2.717-0.988v-0.092l-2.46-0.895L4.974,9.923l2.717-0.99v0.731l0.066-0.046V7.641l2.714,0.987l0.049-0.051L7.903,7.625L7.818,7.594l2.7-0.982V6.542L7.712,7.563v0.016L7.691,7.594v1.27L4.867,9.892v0.017L4.846,9.922v3.34l-2.825,1.027v0.016L2,14.32v3.329l0.021,0.031l2.833,1.03l0.007-0.005l0.006,0.008L7.7,19.746l0.007-0.005l0.005,0.008l2.833,1.031l0.012-0.008l0.01,0.009l2.876-1.047l0.021-0.031L13.398,19.681z M4.911,9.969l2.714,0.987l-2.714,0.989V9.969L4.911,9.969z M4.833,18.633l-2.768-1.006v-3.262l1.967,0.718l0.8,0.29L4.833,18.633L4.833,18.633z M4.846,15.309l-2.566-0.934L2.127,14.32l2.718-0.989V15.309L4.846,15.309z M7.678,19.668L4.911,18.66V15.4l2.767,1.007V19.668z M21.826,6.528L19.15,5.554v1.948L21.826,6.528z M18.989,4.202l-2.7-0.983l-2.725,0.992l2.705,0.984L18.989,4.202z"/>
</svg>
