<svg version="1.1" id="master" xmlns="http://www.w3.org/2000/svg" xmlns:xlink="http://www.w3.org/1999/xlink" x="0px" y="0px"
	 width="24px" height="24px" viewBox="0 0 24 24" enable-background="new 0 0 24 24" xml:space="preserve">
<rect fill="none" width="24" height="24"/>
<path d="M12,2C6.483,2,2,6.483,2,12s4.483,10,10,10s10-4.484,10-10C22,6.485,17.517,2,12,2z M12,10.26
	c0.962,0,1.739,0.778,1.739,1.74c0,0.962-0.777,1.739-1.739,1.739c-0.962,0-1.74-0.777-1.74-1.739
	C10.26,11.038,11.038,10.26,12,10.26z M4.221,12c-0.499,0-0.923-0.419-0.863-0.918c0.25-2.37,1.461-4.447,3.233-5.859
	c0.413-0.332,1.022-0.244,1.305,0.206l2.266,3.629C9.179,9.673,8.521,10.761,8.521,12H4.221z M15.796,19.799
	c-1.15,0.565-2.433,0.896-3.797,0.896c-1.364,0-2.646-0.331-3.793-0.896C7.759,19.577,7.623,19,7.891,18.576l2.272-3.636
	c0.532,0.337,1.168,0.538,1.839,0.538c0.674,0,1.303-0.201,1.837-0.538l2.272,3.636C16.374,19,16.244,19.577,15.796,19.799z
	 M19.776,12h-4.298c0-1.239-0.657-2.327-1.636-2.936l2.267-3.631c0.282-0.452,0.892-0.538,1.306-0.206
	c1.766,1.414,2.98,3.489,3.231,5.859C20.695,11.581,20.277,12,19.776,12z"/>
</svg>
