<svg version="1.1" id="master" xmlns="http://www.w3.org/2000/svg" xmlns:xlink="http://www.w3.org/1999/xlink" x="0px" y="0px"
	 width="24px" height="24px" viewBox="0 0 24 24" enable-background="new 0 0 24 24" xml:space="preserve">
<rect fill="none" width="24" height="24"/>
<path d="M5.844,14.693h13.083c0.429,0,0.828-0.081,1.199-0.242c0.371-0.16,0.696-0.379,0.975-0.658
	c0.278-0.277,0.498-0.603,0.658-0.975C21.92,12.448,22,12.048,22,11.62c0-0.421-0.08-0.819-0.241-1.194
	c-0.16-0.375-0.38-0.702-0.658-0.98s-0.604-0.5-0.975-0.664s-0.771-0.246-1.199-0.246h-0.771c0-0.743-0.141-1.44-0.423-2.093
	c-0.282-0.653-0.667-1.224-1.156-1.713c-0.489-0.489-1.06-0.874-1.713-1.156c-0.653-0.282-1.351-0.423-2.094-0.423
	c-0.635,0-1.24,0.105-1.814,0.316S9.86,3.97,9.393,4.345C8.926,4.72,8.529,5.166,8.204,5.683C7.88,6.201,7.649,6.766,7.514,7.38
	c-0.535-0.25-1.092-0.375-1.67-0.375c-0.535,0-1.035,0.1-1.499,0.3S3.474,7.78,3.124,8.129C2.774,8.479,2.5,8.886,2.3,9.35
	C2.1,9.814,2,10.313,2,10.849c0,0.528,0.1,1.026,0.3,1.494s0.475,0.876,0.824,1.226s0.759,0.625,1.227,0.824
	C4.817,14.593,5.315,14.693,5.844,14.693z M4.688,17.776c0.157,0,0.307-0.03,0.449-0.091c0.144-0.061,0.267-0.143,0.37-0.246
	s0.186-0.225,0.246-0.365c0.061-0.139,0.091-0.29,0.091-0.454v-1.157c-0.2,0-0.398-0.01-0.595-0.031s-0.387-0.061-0.572-0.118
	l-0.524,0.278c-0.186,0.101-0.336,0.245-0.45,0.434c-0.114,0.189-0.171,0.388-0.171,0.595c0,0.157,0.03,0.306,0.091,0.444
	s0.145,0.262,0.252,0.369c0.106,0.107,0.229,0.191,0.369,0.252C4.382,17.746,4.53,17.776,4.688,17.776z M8.156,19.693v-1.917
	l-1.691,0.899c-0.186,0.1-0.336,0.24-0.45,0.423c-0.114,0.182-0.171,0.38-0.171,0.595c0,0.164,0.03,0.315,0.091,0.455
	c0.061,0.139,0.143,0.26,0.246,0.363s0.226,0.186,0.364,0.246C6.685,20.818,6.836,20.85,7,20.85c0.157,0,0.305-0.031,0.444-0.092
	s0.263-0.145,0.369-0.252c0.107-0.106,0.191-0.229,0.252-0.369C8.126,19.998,8.156,19.85,8.156,19.693z M10.844,17.776
	c0.157,0,0.307-0.03,0.449-0.091c0.144-0.061,0.267-0.143,0.37-0.246s0.186-0.225,0.246-0.365C11.97,16.936,12,16.784,12,16.62
	v-1.157h-1.445l-0.246,0.129c-0.186,0.101-0.336,0.245-0.45,0.434c-0.114,0.189-0.171,0.388-0.171,0.595
	c0,0.157,0.03,0.306,0.091,0.444s0.145,0.262,0.252,0.369c0.106,0.107,0.229,0.191,0.369,0.252
	C10.538,17.746,10.687,17.776,10.844,17.776z M14.313,19.693v-1.917l-1.691,0.899c-0.186,0.1-0.336,0.24-0.45,0.423
	C12.057,19.28,12,19.479,12,19.693c0,0.164,0.03,0.315,0.091,0.455c0.061,0.139,0.143,0.26,0.246,0.363s0.226,0.186,0.364,0.246
	c0.14,0.061,0.291,0.092,0.455,0.092c0.157,0,0.306-0.031,0.444-0.092c0.14-0.061,0.263-0.145,0.369-0.252
	c0.107-0.106,0.191-0.229,0.252-0.369C14.282,19.998,14.313,19.85,14.313,19.693z M18.156,16.62v-1.157h-1.445l-0.246,0.129
	c-0.186,0.101-0.336,0.243-0.45,0.429s-0.171,0.386-0.171,0.6c0,0.157,0.03,0.306,0.091,0.444s0.145,0.262,0.252,0.369
	c0.106,0.107,0.229,0.191,0.369,0.252s0.287,0.091,0.444,0.091s0.307-0.03,0.449-0.091c0.144-0.061,0.267-0.143,0.37-0.246
	s0.186-0.225,0.246-0.365C18.126,16.936,18.156,16.784,18.156,16.62z"/>
</svg>
