<svg version="1.1" id="master" xmlns="http://www.w3.org/2000/svg" xmlns:xlink="http://www.w3.org/1999/xlink" x="0px" y="0px"
	 width="24px" height="24px" viewBox="0 0 24 24" enable-background="new 0 0 24 24" xml:space="preserve">
<rect fill="none" width="24" height="24"/>
<path d="M7.886,14.751c-1.015-0.663-1.197-2.147-0.408-3.326c0.787-1.166,2.249-1.59,3.263-0.942l-0.002,0.015
	c1.009,0.661,1.195,2.146,0.411,3.312C10.362,14.989,8.9,15.412,7.886,14.751z M5.673,11.556c-1.816,1.02-1.502,3.298-0.521,4.082
	v-0.012C6.042,16.021,6.767,11.266,5.673,11.556z M6.013,15.905c-0.451,0.336-0.535,1.49,0.109,2.624
	c0.953,1.348,2.296,1.484,2.849,1.156c0.582-0.433,0.265-1.89-0.437-2.719C7.732,16.045,6.688,15.499,6.013,15.905z M7.732,7.342
	c0.636,0.04,2.385-0.013,2.717-1.338C9.798,5.289,8.606,4.454,6.565,3.419l0.035,0.014c1.591,0.531,3.023,1.246,4.225,2.228
	c1.412-0.664,0.437-2.32-0.25-2.969c-0.036,0.172-0.075,0.291-0.119,0.317c-0.225-0.238-0.408-0.478-0.697-0.716
	c0,0.133,0.068,0.292-0.104,0.398C9.501,2.479,9.294,2.293,9.015,2.134c0.131,0.226,0.022,0.292-0.05,0.397
	C8.753,2.332,8.553,2.146,8.17,2c0.105,0.133,0.265,0.266,0.105,0.412C8.064,2.28,7.839,2.146,7.323,2.04
	c0.119,0.133,0.357,0.266,0.21,0.398C7.254,2.332,6.949,2.251,6.619,2.211c0.159,0.133,0.302,0.256,0.169,0.358
	C6.482,2.463,6.075,2.344,5.678,2.45L5.929,2.7c0.027,0.033-0.582,0.027-0.992,0.031c0.146,0.2,0.298,0.398,0.386,0.754
	c-0.041,0.041-0.239,0.015-0.427,0c0.199,0.399,0.529,0.505,0.607,0.678c-0.119,0.085-0.278,0.067-0.463,0
	C5.186,4.442,5.478,4.641,5.703,4.88C5.637,4.92,5.543,4.946,5.292,4.912C5.503,5.144,5.755,5.35,6.06,5.536
	C6.007,5.598,5.82,5.597,5.637,5.603c0.278,0.269,0.637,0.41,0.968,0.586c-0.173,0.12-0.292,0.092-0.412,0.092
	C6.417,6.481,6.83,6.572,7.2,6.692C7.12,6.811,7.056,6.837,6.896,6.864c0.397,0.225,0.953,0.12,1.112,0.238
	C7.97,7.208,7.864,7.288,7.732,7.342z M9.886,8.735c-0.003,0.602,0.892,1.216,2.219,1.233c1.366,0.008,2.228-0.495,2.241-1.114
	c0.015-0.703-1.233-1.449-2.229-1.438h-0.019V7.415C10.971,7.387,9.886,8.24,9.886,8.735z M14.607,7.953
	c-0.698,0.118,3.335,3.59,3.398,2.808C18.069,8.748,16.495,7.647,14.607,7.953z M13.178,5.713c1.117-0.906,2.458-1.583,3.929-2.103
	c0.113-0.059,0.219-0.117,0.337-0.178L17.404,3.5c-0.102,0.034-0.197,0.076-0.298,0.111c-1.831,0.964-2.932,1.746-3.545,2.42
	c0.332,1.326,2.072,1.379,2.709,1.337c-0.13-0.053-0.241-0.131-0.278-0.237c0.158-0.106,0.726-0.014,1.121-0.226
	c-0.152-0.026-0.224-0.054-0.292-0.172c0.372-0.12,0.774-0.213,1.012-0.412c-0.128,0-0.246,0.026-0.414-0.08
	c0.333-0.171,0.688-0.317,0.968-0.581c-0.173,0-0.358,0-0.412-0.067c0.307-0.186,0.562-0.384,0.774-0.622
	c-0.24,0.04-0.345,0.014-0.401-0.026c0.23-0.225,0.525-0.423,0.663-0.717c-0.18,0.067-0.347,0.081-0.462,0
	c0.08-0.17,0.415-0.277,0.609-0.688c-0.19,0.026-0.39,0.041-0.43,0c0.087-0.344,0.238-0.542,0.386-0.755
	c-0.405,0-1.018,0-0.989-0.025l0.249-0.252C17.979,2.4,17.576,2.52,17.282,2.612c-0.132-0.092,0-0.226,0.163-0.359
	c-0.345,0.055-0.648,0.121-0.915,0.226c-0.146-0.133,0.094-0.251,0.213-0.385c-0.531,0.106-0.742,0.239-0.968,0.372
	c-0.158-0.146-0.013-0.277,0.092-0.397c-0.397,0.145-0.596,0.331-0.81,0.501c-0.078-0.092-0.185-0.158-0.052-0.397
	c-0.278,0.16-0.489,0.345-0.647,0.557c-0.174-0.118-0.107-0.264-0.107-0.397c-0.291,0.238-0.479,0.477-0.702,0.717
	c-0.055-0.028-0.094-0.133-0.118-0.306C12.741,3.408,11.758,5.065,13.178,5.713z M9.384,7.899L9.383,7.886
	c-1.888-0.306-3.46,0.796-3.398,2.823C6.047,11.491,10.08,8.02,9.384,7.899z M15.661,16.711v-0.01
	c-0.757,0.875-1.178,2.467-0.626,2.981c0.527,0.396,1.947,0.345,2.994-1.089c0.76-0.954,0.503-2.558,0.071-2.981
	C17.455,15.121,16.527,15.758,15.661,16.711z M18.329,11.503V11.49c-1.097-0.291-0.374,4.465,0.518,4.081
	C19.829,14.802,20.145,12.524,18.329,11.503z M12.145,14.604c-1.35,0.017-2.442,1.009-2.436,2.24v0.025
	c0.009,1.233,1.109,2.227,2.461,2.212c1.351,0,2.437-1.005,2.426-2.227V16.83l0.009-0.013C14.598,15.586,13.499,14.59,12.145,14.604
	z M16.334,14.631c1.017-0.649,1.198-2.134,0.409-3.313c-0.787-1.179-2.249-1.604-3.264-0.94v-0.013
	c-1.015,0.664-1.199,2.146-0.41,3.313C13.859,14.843,15.318,15.281,16.334,14.631z M12.17,19.758l-0.004-0.012
	c-0.976-0.022-2.475,0.391-2.455,0.912c-0.016,0.357,1.177,1.393,2.393,1.34c1.174,0.025,2.388-1.007,2.371-1.458
	C14.473,20.076,13.15,19.72,12.17,19.758z"/>
</svg>
