<svg version="1.1" id="master" xmlns="http://www.w3.org/2000/svg" xmlns:xlink="http://www.w3.org/1999/xlink" x="0px" y="0px" width="24px" height="24px" viewBox="0 0 24 24" enable-background="new 0 0 24 24" xml:space="preserve">
<rect fill="none" width="24" height="24"/>
<path d="M9.209,12.23c0.126,0.547-0.474,0.962-0.94,0.671l-1.591-0.995l-1.987,3.18C4.171,15.917,4.772,17,5.75,17h2.03c0.259,0,0.469,0.21,0.469,0.469v1.563c0,0.259-0.21,0.469-0.469,0.469H5.754c-2.943,0-4.738-3.244-3.18-5.737l1.984-3.18L2.968,9.589C2.497,9.294,2.619,8.575,3.16,8.45l4.306-0.994c0.336-0.078,0.672,0.132,0.75,0.468L9.209,12.23L9.209,12.23z M13.059,5.085l1.613,2.581L13.08,8.661c-0.471,0.294-0.352,1.014,0.19,1.139l4.307,0.994c0.339,0.078,0.672-0.135,0.749-0.469L19.32,6.02c0.125-0.541-0.468-0.966-0.939-0.671l-1.59,0.993L15.18,3.761c-1.466-2.345-4.891-2.351-6.36,0L8.118,4.884c-0.137,0.22-0.07,0.509,0.149,0.646l1.325,0.828c0.22,0.137,0.509,0.07,0.646-0.149l0.702-1.123C11.436,4.292,12.579,4.317,13.059,5.085L13.059,5.085z M21.425,13.763l-1.075-1.722c-0.137-0.22-0.426-0.286-0.646-0.149l-1.323,0.827c-0.22,0.137-0.286,0.426-0.149,0.646l1.077,1.723c0.518,0.829-0.08,1.913-1.06,1.913h-3.75v-1.874c0-0.556-0.673-0.836-1.066-0.442l-3.125,3.124c-0.244,0.244-0.244,0.64,0,0.884l3.125,3.125c0.391,0.391,1.066,0.117,1.066-0.442V19.5h3.745C21.185,19.5,22.984,16.258,21.425,13.763z"/>
</svg>
