<svg version="1.1" id="master" xmlns="http://www.w3.org/2000/svg" xmlns:xlink="http://www.w3.org/1999/xlink" x="0px" y="0px" width="24px" height="24px" viewBox="0 0 24 24" enable-background="new 0 0 24 24" xml:space="preserve">
<rect fill="none" width="24" height="24"/>
<path d="M15.341,13.154c1.314,0,3.217-0.271,3.217-1.834c0.003-0.121-0.008-0.242-0.033-0.359l-0.784-3.4c-0.18-0.748-0.338-1.087-1.65-1.744c-1.021-0.521-3.24-1.382-3.897-1.382c-0.611,0-0.789,0.789-1.518,0.789c-0.702,0-1.223-0.588-1.879-0.588c-0.631,0-1.042,0.429-1.358,1.313c0,0-0.883,2.492-0.997,2.854C6.421,8.868,6.413,8.937,6.416,9.006c0,0.968,3.814,4.145,8.925,4.145 M18.758,11.955c0.183,0.86,0.183,0.95,0.183,1.063c0,1.472-1.654,2.288-3.828,2.288c-4.913,0.004-9.217-2.875-9.217-4.778c0-0.265,0.054-0.527,0.159-0.771C4.289,9.846,2,10.162,2,12.181c0,3.308,7.837,7.385,14.043,7.385c4.758,0,5.957-2.152,5.957-3.851c0-1.337-1.155-2.854-3.239-3.76"/>
</svg>
