<svg version="1.1" id="master" xmlns="http://www.w3.org/2000/svg" xmlns:xlink="http://www.w3.org/1999/xlink" x="0px" y="0px"
	 width="24px" height="24px" viewBox="0 0 24 24" enable-background="new 0 0 24 24" xml:space="preserve">
<rect fill="none" width="24" height="24"/>
<path d="M22,7.855v8.29l-1.514,1.514l-7.375-7.375V6.444h-2.223v1.617L6.342,3.513L7.855,2h8.29L22,7.855z M3.415,3.414
	l17.171,17.17L19.171,22l-1.513-1.514L16.145,22h-8.29L2,16.145v-8.29l1.513-1.513L2,4.828L3.415,3.414z M13.424,16.253L12.19,15.02
	C12.127,15.011,12.065,15,12,15c-0.8,0-1.443,0.645-1.443,1.445c0,0.8,0.644,1.443,1.443,1.443c0.801,0,1.443-0.645,1.443-1.445
	C13.443,16.378,13.433,16.316,13.424,16.253z"/>
</svg>
