<svg version="1.1" id="master" xmlns="http://www.w3.org/2000/svg" xmlns:xlink="http://www.w3.org/1999/xlink" x="0px" y="0px" width="24px" height="24px" viewBox="0 0 24 24" enable-background="new 0 0 24 24" xml:space="preserve">
<rect fill="none" width="24" height="24"/>
<path d="M19.016,16.182L8.857,6.031C10.489,3.719,12,2,12,2s7.143,8.096,7.143,12.857C19.143,15.311,19.096,15.753,19.016,16.182z M20.586,20.585l-2.31-2.31c0.001-0.001,0.001-0.002,0.002-0.003l-7.439-7.434L3.414,3.414L2,4.828l4.665,4.665c-1.035,1.878-1.808,3.801-1.808,5.365C4.857,18.811,8.048,22,12,22c1.984,0,3.771-0.81,5.063-2.11l2.109,2.109L20.586,20.585z"/>
</svg>
