<svg version="1.1" id="master" xmlns="http://www.w3.org/2000/svg" xmlns:xlink="http://www.w3.org/1999/xlink" x="0px" y="0px"
	 width="24px" height="24px" viewBox="0 0 24 24" enable-background="new 0 0 24 24" xml:space="preserve">
<rect fill="none" width="24" height="24"/>
<path d="M18.546,11.818h-6.364V5.455c0-0.8-0.654-1.447-1.455-1.447L3.455,4C2.655,4,2,4.655,2,5.455v13.091
	C2,19.346,2.655,20,3.455,20H4l0,0.545C4,21.346,4.655,22,5.455,22h13.091c0.8,0,1.454-0.654,1.454-1.455v-7.271
	C20,12.474,19.346,11.818,18.546,11.818z M3.455,17.091V6.909h7.272v4.91H5.455c-0.8,0-1.447,0.655-1.447,1.455l-0.004,3.817H3.455z
	 M17.091,20.545H6.909V20v-2.909v-3.817h3.818h1.455h4.909V20.545z M22,9l-2,2l-2-2h1.5c0-2.485-2.015-4.5-4.5-4.5V6l-2-2l2-2v1.5
	c3.037,0,5.5,2.462,5.5,5.5H22z"/>
</svg>
