<svg version="1.1" id="master" xmlns="http://www.w3.org/2000/svg" xmlns:xlink="http://www.w3.org/1999/xlink" x="0px" y="0px"
	 width="24px" height="24px" viewBox="0 0 24 24" enable-background="new 0 0 24 24" xml:space="preserve">
<rect fill="none" width="24" height="24"/>
<path d="M16.443,4.555c1.334,0,2.668,0.556,3.668,1.556L19.223,7c-0.779-0.778-1.777-1.111-2.779-1.111c-1,0-2,0.333-2.776,1.111
	l-0.89-0.889C13.777,5.111,15.111,4.555,16.443,4.555z M19.777,13.111h-2.223V8.667h-2.224v3.836L22,19.171v-3.838
	C22,14.111,21,13.111,19.777,13.111z M16.443,3.333c1.668,0,3.334,0.667,4.668,1.889L22,4.333C20.443,2.778,18.443,2,16.443,2
	s-4,0.778-5.555,2.333l0.889,0.889C13.111,4,14.777,3.333,16.443,3.333z M20.586,20.586l0.762,0.762
	C20.943,21.75,20.389,22,19.777,22H4.222C3,22,2,21,2,19.777v-4.444c0-1.222,1-2.222,2.222-2.222h6.061L2,4.828l1.414-1.414
	L20.586,20.586L20.586,20.586z M7.555,16.443H5.333v2.224h2.222V16.443z M11.444,16.443H9.222v2.224h2.222V16.443z M15.333,18.161
	l-1.718-1.718h-0.504v2.224h2.222V18.161z"/>
</svg>
