<svg version="1.1" id="master" xmlns="http://www.w3.org/2000/svg" xmlns:xlink="http://www.w3.org/1999/xlink" x="0px" y="0px"
	 width="24px" height="24px" viewBox="0 0 24 24" enable-background="new 0 0 24 24" xml:space="preserve">
<rect fill="none" width="24" height="24"/>
<path fill="#040000" d="M21.503,12.716c-0.212-0.258-0.471-0.471-0.775-0.636l-1.979-0.994l-0.357,0.716
	C18.325,11.934,18.22,12,18.073,12c-0.093,0-0.176-0.035-0.248-0.104c-0.073-0.069-0.109-0.154-0.109-0.253
	c0-0.04,0.017-0.099,0.05-0.179s0.071-0.164,0.114-0.253s0.088-0.174,0.134-0.253c0.047-0.08,0.08-0.143,0.1-0.189l-0.795-0.397
	l-0.358,0.715c-0.066,0.133-0.172,0.199-0.317,0.199c-0.1,0-0.185-0.035-0.254-0.104c-0.069-0.07-0.104-0.151-0.104-0.244
	c0-0.046,0.017-0.109,0.05-0.189s0.071-0.164,0.114-0.253s0.088-0.174,0.134-0.253c0.047-0.08,0.08-0.143,0.1-0.189l-0.795-0.388
	l-0.348,0.706c-0.066,0.132-0.176,0.199-0.328,0.199c-0.106,0-0.192-0.033-0.259-0.1c-0.066-0.066-0.1-0.152-0.1-0.258
	c0-0.04,0.017-0.1,0.05-0.179c0.033-0.079,0.071-0.164,0.114-0.253s0.088-0.174,0.135-0.253c0.046-0.08,0.079-0.143,0.1-0.189
	l-0.786-0.388l-0.357,0.716c-0.066,0.126-0.173,0.189-0.318,0.189c-0.105,0-0.192-0.033-0.258-0.1c-0.066-0.066-0.1-0.152-0.1-0.258
	c0-0.046,0.017-0.109,0.05-0.189s0.071-0.162,0.114-0.249c0.043-0.086,0.086-0.167,0.129-0.243s0.074-0.138,0.095-0.184
	l-0.785-0.397l-0.358,0.715c-0.066,0.133-0.172,0.199-0.318,0.199c-0.099,0-0.184-0.037-0.253-0.109C12.035,8.965,12,8.882,12,8.79
	c0-0.04,0.017-0.1,0.05-0.179s0.073-0.164,0.119-0.253c0.047-0.089,0.091-0.175,0.134-0.258c0.044-0.083,0.075-0.144,0.095-0.184
	L12,7.716h-0.666c-0.483,0-0.897,0.071-1.242,0.214S9.44,8.248,9.172,8.457C8.903,8.665,8.658,8.894,8.437,9.142
	S7.985,9.62,7.751,9.828c-0.235,0.209-0.492,0.384-0.771,0.527s-0.606,0.214-0.984,0.214c-0.278,0-0.544-0.043-0.795-0.129
	c-0.252-0.086-0.48-0.207-0.687-0.363C4.31,9.921,4.131,9.734,3.979,9.515S3.71,9.055,3.63,8.79C3.563,8.584,3.47,8.413,3.347,8.277
	c-0.122-0.136-0.3-0.204-0.531-0.204c-0.232,0-0.426,0.078-0.582,0.233C2.078,8.463,2,8.657,2,8.889v1.81v0.586v3.579v0.111v0.236
	c0,0.152,0.028,0.293,0.085,0.422c0.056,0.13,0.132,0.242,0.229,0.338c0.096,0.097,0.208,0.173,0.338,0.229
	c0.129,0.057,0.27,0.085,0.422,0.085h17.854c0.146,0,0.284-0.028,0.417-0.085c0.133-0.056,0.247-0.132,0.343-0.229
	c0.097-0.096,0.173-0.208,0.229-0.338C21.972,15.504,22,15.363,22,15.211v-0.348L21.503,12.716z M2.565,14.863v-3.579h1.571
	c0.398,0,0.771,0.075,1.119,0.224c0.348,0.149,0.65,0.353,0.909,0.611c0.259,0.258,0.462,0.562,0.611,0.91S7,13.75,7,14.147v0.716
	H2.565z M13.432,14.863v-0.716c0-0.199,0.036-0.385,0.109-0.558c0.072-0.172,0.174-0.322,0.303-0.451
	c0.13-0.129,0.28-0.232,0.452-0.309c0.173-0.076,0.358-0.114,0.557-0.114h6.085v2.147H13.432z"/>
</svg>
