<svg version="1.1" id="master" xmlns="http://www.w3.org/2000/svg" xmlns:xlink="http://www.w3.org/1999/xlink" x="0px" y="0px"
	 width="24px" height="24px" viewBox="0 0 24 24" enable-background="new 0 0 24 24" xml:space="preserve">
<rect fill="none" width="24" height="24"/>
<path d="M11.217,11.217l1.564,1.564L7.536,16.46L11.217,11.217z M22,12c0,5.522-4.478,10-10,10C6.478,22,2,17.522,2,12
	C2,6.478,6.478,2,12,2C17.522,2,22,6.478,22,12z M14.827,4.769c-0.044,0.115,0.014,0.244,0.129,0.287
	C15.071,5.1,15.2,5.042,15.243,4.927l0.349-0.818c0.047-0.113-0.007-0.243-0.119-0.291c-0.114-0.048-0.243,0.005-0.291,0.117
	l-0.347,0.818C14.831,4.758,14.829,4.764,14.827,4.769z M11.778,4.222c0,0.123,0.099,0.222,0.222,0.222s0.222-0.099,0.222-0.222
	V3.333c0-0.123-0.099-0.222-0.222-0.222s-0.222,0.099-0.222,0.222V4.222z M8.548,4.048L8.88,4.872
	c0.046,0.114,0.176,0.169,0.29,0.124c0.114-0.045,0.168-0.176,0.122-0.29L8.959,3.882C8.913,3.768,8.784,3.712,8.67,3.758
	C8.556,3.805,8.501,3.934,8.548,4.048z M5.714,6.029l0.628,0.629c0.087,0.087,0.228,0.087,0.315,0s0.087-0.228,0-0.315L6.028,5.715
	c-0.087-0.087-0.228-0.087-0.314,0C5.627,5.802,5.627,5.942,5.714,6.029z M3.333,12.222h0.888c0.123,0,0.222-0.099,0.222-0.222
	s-0.099-0.222-0.222-0.222H3.333c-0.123,0-0.222,0.099-0.222,0.222S3.21,12.222,3.333,12.222z M4.995,14.829
	c-0.047-0.113-0.176-0.169-0.289-0.122l-0.823,0.335c-0.006,0.002-0.011,0.004-0.015,0.004c-0.112,0.05-0.162,0.184-0.112,0.294
	c0.05,0.112,0.181,0.163,0.293,0.112l0.824-0.333C4.986,15.073,5.041,14.941,4.995,14.829z M4.927,8.756L4.109,8.408
	C3.996,8.36,3.866,8.414,3.818,8.527C3.77,8.641,3.823,8.771,3.936,8.819l0.818,0.345c0.108,0.042,0.23-0.007,0.279-0.113
	C5.086,8.94,5.038,8.808,4.927,8.756z M9.048,18.956c-0.113-0.05-0.243,0.004-0.291,0.116L8.411,19.89
	c-0.042,0.109,0.008,0.232,0.113,0.28c0.111,0.051,0.243,0.005,0.295-0.105l0.346-0.818C9.213,19.134,9.161,19.002,9.048,18.956z
	 M12.222,19.778c0-0.124-0.099-0.223-0.222-0.223s-0.222,0.099-0.222,0.223v0.889c0,0.123,0.099,0.222,0.222,0.222
	s0.222-0.099,0.222-0.222V19.778z M13.098,13.098l4.511-6.42c0.016-0.01,0.035-0.006,0.048-0.02l0.629-0.629
	c0.088-0.087,0.088-0.228,0-0.314c-0.085-0.086-0.227-0.086-0.314,0l-0.629,0.628c-0.014,0.014-0.011,0.033-0.02,0.048L10.9,10.9
	l-4.511,6.423c-0.015,0.008-0.033,0.006-0.045,0.019l-0.628,0.629c-0.006,0.007-0.013,0.013-0.019,0.02
	c-0.081,0.092-0.072,0.231,0.019,0.313c0.091,0.082,0.231,0.073,0.313-0.019l0.629-0.627c0-0.002,0-0.002,0-0.002
	c0.014-0.014,0.012-0.034,0.021-0.051L13.098,13.098z M15.452,19.95l-0.333-0.823c-0.046-0.113-0.176-0.169-0.29-0.123
	c-0.112,0.048-0.168,0.178-0.122,0.29l0.335,0.822c0.002,0.006,0.004,0.011,0.006,0.016c0.048,0.112,0.18,0.162,0.293,0.112
	C15.452,20.193,15.502,20.063,15.452,19.95z M18.285,17.971l-0.629-0.629c-0.085-0.087-0.228-0.087-0.314,0s-0.087,0.229,0,0.316
	l0.629,0.627c0.007,0.007,0.013,0.013,0.02,0.019c0.092,0.082,0.231,0.073,0.313-0.019C18.386,18.196,18.377,18.054,18.285,17.971z
	 M20.191,15.469c0.044-0.114-0.014-0.244-0.127-0.287l-0.818-0.345c-0.112-0.049-0.244,0.004-0.29,0.115
	c-0.05,0.113,0.004,0.244,0.115,0.292l0.818,0.348c0.004,0.002,0.011,0.005,0.016,0.006C20.021,15.642,20.147,15.583,20.191,15.469z
	 M20.667,11.778h-0.889c-0.124,0-0.223,0.099-0.223,0.222s0.099,0.222,0.223,0.222h0.889c0.123,0,0.222-0.099,0.222-0.222
	S20.79,11.778,20.667,11.778z M19.129,8.88c-0.113,0.046-0.169,0.176-0.123,0.289c0.046,0.114,0.178,0.168,0.29,0.122l0.823-0.333
	c0.113-0.046,0.168-0.176,0.122-0.289c-0.045-0.113-0.175-0.169-0.289-0.122L19.129,8.88z"/>
</svg>
