<svg version="1.1" id="master" xmlns="http://www.w3.org/2000/svg" xmlns:xlink="http://www.w3.org/1999/xlink" x="0px" y="0px" width="24px" height="24px" viewBox="0 0 24 24" enable-background="new 0 0 24 24" xml:space="preserve">
<rect fill="none" width="24" height="24"/>
<path d="M20.27,4.377l0.079,0.074c-0.598-2.354-4.498-3.127-8.189-1.815C9.966,3.417,7.588,4.641,5.88,6.239c-2.033,1.899-2.356,3.554-2.224,4.246c0.472,2.44,3.814,4.036,5.189,5.22v0.006c-0.406,0.199-3.372,1.688-4.068,3.227c-0.745,1.624,0.117,2.784,0.68,2.93c1.738,0.482,3.526-0.396,4.484-1.817c0.926-1.392,0.844-3.18,0.446-4.056c0.548-0.149,1.191-0.217,2.019-0.114c2.319,0.265,2.782,1.721,2.679,2.315c-0.097,0.595-0.575,0.942-0.743,1.042c-0.166,0.102-0.214,0.134-0.199,0.199c0.018,0.099,0.101,0.099,0.231,0.083c0.183-0.033,1.21-0.498,1.259-1.624c0.05-1.422-1.31-3.011-3.724-2.979c-0.993,0.018-1.623,0.1-2.069,0.281c-0.033-0.049-0.067-0.082-0.116-0.116c-1.489-1.605-4.252-2.731-4.137-4.866c0.033-0.777,0.315-2.829,5.296-5.312c4.089-2.035,7.352-1.472,7.915-0.23c0.809,1.77-1.737,5.065-5.991,5.543c-1.622,0.181-2.465-0.447-2.683-0.679C9.893,9.29,9.86,9.274,9.777,9.326c-0.133,0.066-0.051,0.28,0,0.414c0.132,0.331,0.646,0.91,1.541,1.208c0.776,0.249,2.68,0.396,4.964-0.497C18.847,9.458,20.848,6.695,20.27,4.377z M9.294,16.499l0.121-0.064c0.193,0.711,0.172,1.377-0.028,1.977l-0.072,0.198c-0.027,0.067-0.057,0.133-0.086,0.194c-0.155,0.317-0.36,0.616-0.612,0.893c-0.771,0.837-1.846,1.155-2.307,0.888c-0.497-0.289-0.249-1.473,0.646-2.417c0.959-1.012,2.337-1.662,2.337-1.662V16.499z"/>
</svg>
