<svg version="1.1" id="master" xmlns="http://www.w3.org/2000/svg" xmlns:xlink="http://www.w3.org/1999/xlink" x="0px" y="0px" width="24px" height="24px" viewBox="0 0 24 24" enable-background="new 0 0 24 24" xml:space="preserve">
<rect fill="none" width="24" height="24"/>
<path d="M22,12v6.111c0,0.312-0.066,0.607-0.184,0.877l-2.039-2.039v-2.172h-2.172l-3.334-3.333h3.951l-6.189-2.239L8.315,5.487L20.666,10C21.443,10.222,22,11.111,22,12z M20.273,20.273l0.313,0.313L19.171,22l-1.666-1.666H4.222C3,20.334,2,19.332,2,18.111v-4.445c0-1.221,1-2.222,2.222-2.222h4.393L3.17,5.999L2.556,5.777l0.105-0.286L2,4.829l1.415-1.415l0.445,0.445l3.743,3.743l3.842,3.842l3.333,3.333L17,17L20.273,20.273z M6.444,14.777H4.222V17h2.222V14.777z M14.171,17l-2.223-2.223H8.667V17H14.171z"/>
</svg>
