<svg version="1.1" id="master" xmlns="http://www.w3.org/2000/svg" xmlns:xlink="http://www.w3.org/1999/xlink" x="0px" y="0px"
	 width="24px" height="24px" viewBox="0 0 24 24" enable-background="new 0 0 24 24" xml:space="preserve">
<rect fill="none" width="24" height="24"/>
<path d="M10,4h2v4h-1.171L20,17.171V4c0-1.1-0.9-2-2-2h-8L7.419,4.59L10,7.171V4z M16,4h2v4h-2V4z M13,4h2v4h-2V4z M19.171,22
	l-0.241-0.241C18.65,21.907,18.337,22,18,22H6c-1.1,0-2-0.9-2-2L4.02,8l0.575-0.576L2,4.829l1.414-1.414l2.592,2.592l0.001,0
	L20,19.999V20v0.001l0.585,0.585L19.171,22z"/>
</svg>
