<svg version="1.1" id="master" xmlns="http://www.w3.org/2000/svg" xmlns:xlink="http://www.w3.org/1999/xlink" x="0px" y="0px" width="24px" height="24px" viewBox="0 0 24 24" enable-background="new 0 0 24 24" xml:space="preserve">
<rect fill="none" width="24" height="24"/>
<path d="M19.69,5.45l-0.005,2.775h-8.833c-0.183,0-0.331,0.151-0.331,0.333c0,0.184,0.15,0.333,0.331,0.333l2.3-0.014c3.621,0,6.557,2.938,6.557,6.558c0,3.623-2.936,6.558-6.558,6.558L4.29,22l0.004-2.813h8.863c2.072,0,3.753-1.68,3.753-3.753c0-2.075-1.681-3.755-3.756-3.755l-2.309-0.025c-1.716,0-3.105-1.389-3.105-3.1c0-1.717,1.388-3.105,3.102-3.105L19.69,5.45L19.69,5.45z M4.303,18.535L4.299,15.76h8.841c0.176,0,0.319-0.146,0.319-0.322c0-0.178-0.144-0.32-0.319-0.32h-2.287c-3.621,0-6.556-2.938-6.556-6.56C4.296,4.936,7.231,2,10.853,2l8.833,0.002l0.005,2.792l-8.836,0.003c-2.075,0-3.75,1.682-3.75,3.755c0,2.075,1.687,3.754,3.763,3.754l2.312,0.025c1.714,0,3.101,1.39,3.101,3.104c0,1.712-1.387,3.099-3.101,3.099H4.304L4.303,18.535z"/>
</svg>
