<svg version="1.1" id="master" xmlns="http://www.w3.org/2000/svg" xmlns:xlink="http://www.w3.org/1999/xlink" x="0px" y="0px" width="24px" height="24px" viewBox="0 0 24 24" enable-background="new 0 0 24 24" xml:space="preserve" fill="#221F20">
<rect fill="none" width="24" height="24"/>
<path d="M13.618,3.994C13.113,3.1,11.98,2.785,11.087,3.289c-0.295,0.167-0.539,0.411-0.705,0.705L7.746,8.608l0.659,0.359c3.772,2.167,6.205,6.083,6.471,10.425h-1.857c-0.262-3.669-2.328-6.968-5.513-8.808l-0.659-0.419L4.33,14.479l0.719,0.359c1.645,0.978,2.75,2.656,2.996,4.554H3.791c-0.164-0.019-0.282-0.167-0.264-0.332c0.003-0.03,0.011-0.06,0.024-0.087l1.198-2.037c-0.407-0.343-0.875-0.607-1.378-0.779l-1.139,2.037c-0.497,0.897-0.172,2.027,0.725,2.524c0.256,0.142,0.542,0.222,0.833,0.232h5.872v-0.779c-0.019-2.476-1.222-4.792-3.236-6.231l0.959-1.618c2.578,1.782,4.123,4.713,4.134,7.849v0.779h4.913v-0.779c0.004-4.908-2.477-9.486-6.591-12.164l1.917-3.235c0.099-0.132,0.287-0.159,0.419-0.06c0.022,0.017,0.043,0.038,0.06,0.06l8.208,14.201c0.067,0.152-0.002,0.328-0.152,0.395c-0.047,0.02-0.097,0.029-0.146,0.024h-1.918v1.559h1.978c1.024-0.038,1.826-0.899,1.79-1.923c-0.011-0.292-0.09-0.578-0.232-0.834L13.618,3.994z"/>
</svg>
