<svg version="1.1" id="master" xmlns="http://www.w3.org/2000/svg" xmlns:xlink="http://www.w3.org/1999/xlink" x="0px" y="0px"
	 width="24px" height="24px" viewBox="0 0 24 24" enable-background="new 0 0 24 24" xml:space="preserve">
<rect fill="none" width="24" height="24"/>
<path d="M21.612,4.008c-0.02-0.04-0.053-0.08-0.1-0.119c-0.198-0.192-0.419-0.361-0.661-0.507c-0.241-0.146-0.497-0.269-0.765-0.368
	c-0.269-0.099-0.542-0.174-0.82-0.224c-0.278-0.049-0.554-0.074-0.825-0.074h-4.075c-0.544-0.239-1.104-0.417-1.681-0.537
	C12.109,2.06,11.522,2,10.927,2c-0.689,0-1.389,0.04-2.098,0.119S7.416,2.318,6.717,2.477S5.332,2.835,4.659,3.074
	C3.986,3.312,3.342,3.59,2.726,3.909C2.48,4.035,2.357,4.237,2.357,4.515c0,0.113,0.032,0.217,0.095,0.313
	C2.516,4.924,2.595,5.016,2.69,5.102c0.097,0.086,0.201,0.164,0.313,0.233c0.112,0.07,0.219,0.131,0.318,0.184l0.089,0.049
	c0.491,0.325,1.01,0.608,1.556,0.85C5.514,6.661,6.069,6.874,6.632,7.06l0.03-0.04c0.231-0.239,0.502-0.421,0.811-0.547
	C7.78,6.347,8.1,6.284,8.432,6.284c0.1,0,0.184,0.035,0.253,0.104c0.07,0.069,0.104,0.154,0.104,0.253
	c0,0.1-0.034,0.184-0.104,0.253C8.615,6.965,8.531,7,8.432,7C8.259,7,8.09,7.025,7.925,7.075C7.759,7.124,7.6,7.195,7.447,7.288
	c0.411,0.106,0.823,0.191,1.237,0.254s0.834,0.111,1.258,0.144c0.112-0.252,0.226-0.464,0.338-0.636s0.23-0.33,0.353-0.472
	c0.123-0.143,0.256-0.283,0.398-0.422c0.142-0.139,0.303-0.309,0.481-0.507c0.397,0.1,0.772,0.221,1.123,0.363
	c0.352,0.143,0.68,0.315,0.984,0.517s0.587,0.441,0.845,0.716c0.259,0.275,0.494,0.591,0.706,0.949l0.478,0.805
	c-0.232,0.066-0.444,0.124-0.637,0.174s-0.378,0.108-0.557,0.174c-0.179,0.066-0.354,0.149-0.526,0.249
	c-0.173,0.1-0.352,0.232-0.537,0.398c0.133,0.318,0.232,0.646,0.298,0.984c0.066,0.338,0.1,0.68,0.1,1.024v0.716
	c0,0.597-0.112,1.155-0.338,1.675c-0.226,0.521-0.531,0.975-0.919,1.361c-0.388,0.389-0.844,0.693-1.367,0.915S10.085,17,9.495,17
	H9.147l-5.149-5.547c-0.1-0.112-0.232-0.169-0.397-0.169c-0.146,0-0.271,0.051-0.378,0.154c-0.106,0.103-0.159,0.23-0.159,0.383
	c0,0.033,0.035,0.141,0.104,0.323c0.069,0.183,0.162,0.411,0.278,0.686s0.25,0.586,0.402,0.935c0.152,0.348,0.309,0.704,0.468,1.068
	s0.317,0.726,0.477,1.083C4.952,16.274,5.1,16.603,5.235,16.9c0.136,0.299,0.252,0.555,0.349,0.771
	c0.096,0.216,0.16,0.362,0.193,0.442c-0.026,0.073-0.076,0.199-0.149,0.378c-0.072,0.179-0.157,0.386-0.253,0.621
	c-0.097,0.235-0.195,0.483-0.299,0.745c-0.103,0.262-0.197,0.506-0.283,0.73c-0.086,0.227-0.157,0.42-0.214,0.582
	c-0.056,0.162-0.084,0.264-0.084,0.303c0,0.152,0.053,0.279,0.159,0.379C4.76,21.95,4.886,22,5.032,22
	c0.112,0,0.215-0.029,0.308-0.09l2.933-2.047h1.938c0.854,0,1.678-0.111,2.47-0.334c0.792-0.222,1.533-0.535,2.222-0.939
	c0.689-0.403,1.315-0.887,1.879-1.451c0.563-0.563,1.047-1.189,1.451-1.879c0.404-0.688,0.718-1.43,0.939-2.221
	c0.222-0.792,0.333-1.616,0.333-2.471c0-0.801-0.109-1.587-0.328-2.355c-0.219-0.769-0.543-1.495-0.974-2.177
	c0.317-0.351,0.679-0.646,1.083-0.885c0.404-0.238,0.835-0.414,1.292-0.527c0.126-0.033,0.251-0.054,0.373-0.064
	c0.123-0.01,0.247-0.025,0.373-0.044c0.093-0.014,0.169-0.05,0.229-0.109c0.06-0.06,0.09-0.139,0.09-0.239
	C21.643,4.101,21.632,4.048,21.612,4.008z M8.575,4.639c-0.143,0.143-0.31,0.214-0.502,0.214c-0.198,0-0.367-0.07-0.507-0.209
	C7.428,4.505,7.357,4.336,7.357,4.137c0-0.192,0.071-0.358,0.214-0.497s0.311-0.208,0.502-0.208c0.192,0,0.359,0.069,0.502,0.208
	s0.214,0.305,0.214,0.497S8.718,4.497,8.575,4.639z M11.731,6.443C11.261,6.9,10.89,7.391,10.618,7.915s-0.407,1.12-0.407,1.789
	c0,0.417,0.063,0.825,0.188,1.223c0.126,0.398,0.309,0.766,0.547,1.104c0.04,0.053,0.093,0.116,0.159,0.189s0.136,0.109,0.209,0.109
	c0.046,0,0.084-0.017,0.114-0.05c0.029-0.033,0.056-0.073,0.079-0.119s0.042-0.095,0.055-0.144c0.014-0.05,0.023-0.095,0.03-0.134
	c0.072-0.404,0.193-0.784,0.362-1.138s0.381-0.676,0.637-0.964c0.255-0.288,0.548-0.535,0.879-0.741
	c0.332-0.205,0.693-0.364,1.084-0.477c-0.312-0.523-0.711-0.971-1.198-1.342C12.87,6.848,12.328,6.589,11.731,6.443z"/>
</svg>
