<svg version="1.1" id="master" xmlns="http://www.w3.org/2000/svg" xmlns:xlink="http://www.w3.org/1999/xlink" x="0px" y="0px" width="24px" height="24px" viewBox="0 0 24 24" enable-background="new 0 0 24 24" xml:space="preserve">
<rect fill="none" width="24" height="24"/>
<path d="M6.028,12.721h11.934L11.995,22L6.028,12.721z M17.753,3.79c0.066-0.066,0.14-0.134,0.219-0.204c0.08-0.07,0.154-0.145,0.225-0.224c0.069-0.08,0.126-0.164,0.169-0.253s0.064-0.188,0.064-0.293c0-0.199-0.069-0.368-0.209-0.507C18.082,2.169,17.912,2.1,17.714,2.1c-0.113,0-0.216,0.025-0.309,0.074c-0.093,0.05-0.181,0.111-0.264,0.184c-0.083,0.073-0.162,0.153-0.238,0.239c-0.076,0.086-0.147,0.166-0.214,0.239c0.192,0.146,0.374,0.298,0.547,0.458C17.408,3.452,17.581,3.618,17.753,3.79z M18.977,9.956c-0.172,0.192-0.358,0.343-0.557,0.453c-0.199,0.109-0.435,0.164-0.706,0.164c-0.206,0-0.39-0.036-0.553-0.109c-0.162-0.073-0.305-0.154-0.427-0.244c-0.123-0.089-0.223-0.172-0.299-0.249s-0.128-0.114-0.154-0.114s-0.078,0.038-0.154,0.114s-0.174,0.159-0.293,0.249s-0.261,0.171-0.423,0.244c-0.162,0.073-0.347,0.109-0.552,0.109c-0.206,0-0.392-0.036-0.557-0.109c-0.166-0.073-0.311-0.154-0.433-0.244c-0.123-0.089-0.221-0.172-0.294-0.249s-0.122-0.114-0.149-0.114c-0.033,0-0.086,0.038-0.159,0.114c-0.072,0.076-0.169,0.159-0.288,0.249s-0.26,0.171-0.423,0.244c-0.162,0.073-0.35,0.109-0.562,0.109s-0.399-0.036-0.562-0.109c-0.163-0.073-0.304-0.154-0.423-0.244c-0.12-0.089-0.216-0.172-0.289-0.249c-0.072-0.076-0.126-0.114-0.159-0.114c-0.026,0-0.077,0.038-0.153,0.114c-0.077,0.076-0.175,0.159-0.294,0.249s-0.26,0.171-0.423,0.244c-0.162,0.073-0.346,0.109-0.552,0.109c-0.205,0-0.391-0.036-0.557-0.109c-0.166-0.073-0.311-0.154-0.433-0.244c-0.123-0.089-0.221-0.172-0.294-0.249C7.785,9.895,7.735,9.857,7.709,9.857c-0.027,0-0.078,0.038-0.154,0.114S7.381,10.13,7.261,10.22c-0.119,0.089-0.262,0.171-0.428,0.244c-0.165,0.073-0.351,0.109-0.557,0.109c-0.232,0-0.426-0.035-0.582-0.104c-0.155-0.069-0.286-0.147-0.393-0.233c-0.106-0.086-0.188-0.166-0.249-0.239C4.993,9.923,4.943,9.88,4.904,9.867c0.013,0.093,0.043,0.249,0.089,0.467c0.047,0.219,0.102,0.444,0.164,0.676c0.063,0.232,0.133,0.446,0.209,0.642c0.076,0.196,0.147,0.317,0.214,0.363h12.84c0.159-0.345,0.297-0.695,0.412-1.049c0.116-0.354,0.201-0.721,0.254-1.099c-0.026,0.014-0.046,0.026-0.06,0.04C19.013,9.92,18.996,9.937,18.977,9.956z M18.166,5.541c-0.309-0.53-0.682-1.013-1.119-1.447c-0.438-0.434-0.92-0.807-1.446-1.119c-0.527-0.312-1.096-0.552-1.706-0.721C13.284,2.084,12.651,2,11.995,2s-1.288,0.084-1.895,0.253c-0.606,0.169-1.176,0.41-1.706,0.721c-0.53,0.312-1.013,0.685-1.446,1.119C6.514,4.528,6.141,5.01,5.829,5.541C5.518,6.071,5.277,6.64,5.107,7.246C4.938,7.853,4.854,8.484,4.854,9.141c0.166,0,0.3,0.039,0.402,0.114c0.103,0.077,0.202,0.159,0.299,0.249c0.096,0.089,0.197,0.17,0.303,0.244C5.965,9.82,6.104,9.857,6.276,9.857c0.166,0,0.304-0.037,0.413-0.109c0.109-0.073,0.21-0.154,0.303-0.244c0.093-0.09,0.192-0.172,0.299-0.249c0.106-0.076,0.245-0.114,0.418-0.114c0.165,0,0.303,0.039,0.412,0.114C8.23,9.332,8.332,9.414,8.425,9.504c0.093,0.089,0.192,0.17,0.298,0.244C8.829,9.82,8.969,9.857,9.141,9.857c0.173,0,0.312-0.037,0.418-0.109c0.105-0.073,0.205-0.154,0.298-0.244c0.093-0.09,0.192-0.172,0.299-0.249c0.106-0.076,0.242-0.114,0.407-0.114c0.166,0,0.304,0.039,0.413,0.114c0.109,0.077,0.211,0.159,0.304,0.249c0.093,0.089,0.192,0.17,0.298,0.244c0.106,0.073,0.245,0.109,0.418,0.109c0.166,0,0.304-0.037,0.413-0.109c0.109-0.073,0.21-0.154,0.303-0.244c0.093-0.09,0.192-0.172,0.299-0.249c0.105-0.076,0.245-0.114,0.417-0.114c0.166,0,0.304,0.039,0.413,0.114c0.109,0.077,0.211,0.159,0.304,0.249c0.093,0.089,0.192,0.17,0.298,0.244c0.106,0.073,0.245,0.109,0.418,0.109c0.166,0,0.3-0.037,0.402-0.109c0.104-0.073,0.202-0.154,0.299-0.244c0.096-0.09,0.197-0.172,0.303-0.249c0.106-0.076,0.246-0.114,0.418-0.114c0.166,0,0.304,0.039,0.413,0.114c0.109,0.077,0.21,0.159,0.303,0.249c0.094,0.089,0.192,0.17,0.299,0.244c0.106,0.073,0.245,0.109,0.418,0.109c0.165,0,0.303-0.037,0.412-0.109c0.109-0.073,0.211-0.154,0.304-0.244c0.093-0.09,0.192-0.172,0.298-0.249c0.106-0.076,0.246-0.114,0.418-0.114c0-0.656-0.086-1.288-0.259-1.895C18.715,6.64,18.475,6.071,18.166,5.541z"/>
</svg>
