<svg version="1.1" id="master" xmlns="http://www.w3.org/2000/svg" xmlns:xlink="http://www.w3.org/1999/xlink" x="0px" y="0px"
	 width="24px" height="24px" viewBox="0 0 24 24" enable-background="new 0 0 24 24" xml:space="preserve">
<rect fill="none" width="24" height="24"/>
<path d="M21.324,9.549l-6.267,7.757l6.51-6.577l0.011,0.022C21.835,11.32,22,12.126,22,12.771c0,0.515-0.024,0.721-0.165,1.267
	l-3.597,2.632l-0.472,3.754h-4.527l-0.523,0.398c-0.202,0.161-0.487,0.27-0.69,0.27c-0.201,0-0.487-0.108-0.689-0.27l-0.524-0.401
	h-4.53L5.83,16.769l-3.669-2.7C2.05,13.629,2,13.23,2,12.793c0-0.729,0.16-1.507,0.432-2.076l0.013-0.024l6.525,6.628L2.668,9.483
	C2.92,8.409,3.552,7.37,4.326,6.739l5.607,9.892L4.924,5.922C5.484,5.1,6.39,4.45,7.498,4.074l3.466,12.211L8.337,3.611l0.056-0.029
	c0.824-0.455,1.617-0.666,2.487-0.666c0.196,0,0.289,0.003,0.534,0.03l0.594,13.203l0.465-13.211
	c0.227-0.027,0.313-0.029,0.562-0.029c0.91,0,1.797,0.227,2.54,0.657l-2.493,12.695l3.46-12.205
	c1.071,0.365,1.885,0.952,2.537,1.836l0.026,0.034l-4.96,10.74l5.638-9.827l0.033,0.031C20.582,7.586,21.076,8.455,21.324,9.549z"/>
</svg>
