<svg version="1.1" id="master" xmlns="http://www.w3.org/2000/svg" xmlns:xlink="http://www.w3.org/1999/xlink" x="0px" y="0px"
	 width="24px" height="24px" viewBox="0 0 24 24" enable-background="new 0 0 24 24" xml:space="preserve">
<rect fill="none" width="24" height="24"/>
<path d="M14.781,21.982l6.013-1.301c0,0-2.17-14.677-2.188-14.775c-0.015-0.097-0.095-0.16-0.176-0.16
	c-0.08,0-1.607-0.113-1.607-0.113s-1.062-1.062-1.198-1.176c-0.038-0.031-0.063-0.047-0.102-0.062l-0.762,17.586H14.781z
	 M11.758,11.421c0,0-0.675-0.354-1.478-0.354c-1.206,0-1.253,0.755-1.253,0.951c0,1.026,2.7,1.429,2.7,3.856
	c0,1.913-1.2,3.135-2.838,3.135c-1.962,0-2.95-1.222-2.95-1.222l0.539-1.738c0,0,1.038,0.889,1.899,0.889
	c0.563,0,0.813-0.454,0.813-0.776c0-1.35-2.212-1.412-2.212-3.633C6.949,10.665,8.287,8.849,11,8.849
	c1.048,0,1.563,0.301,1.563,0.301l-0.788,2.263L11.758,11.421z M11.309,2.692c0.113,0,0.226,0.032,0.337,0.112
	c-0.82,0.388-1.72,1.366-2.09,3.327C9.009,6.308,8.479,6.468,7.982,6.613C8.414,5.125,9.459,2.7,11.309,2.7V2.692z M12.337,5.149
	v0.113c-0.628,0.193-1.319,0.403-1.995,0.613c0.389-1.481,1.111-2.204,1.738-2.476C12.241,3.817,12.337,4.379,12.337,5.149z
	 M12.786,3.288c0.579,0.062,0.951,0.723,1.191,1.462c-0.291,0.095-0.612,0.193-0.965,0.305v-0.21c0-0.627-0.08-1.143-0.227-1.56
	V3.288z M15.279,4.362c-0.016,0-0.049,0.017-0.064,0.017c-0.015,0-0.241,0.063-0.595,0.175c-0.353-1.027-0.98-1.975-2.09-1.975
	h-0.096C12.112,2.174,11.724,2,11.388,2C8.799,2,7.563,5.231,7.175,6.872c-0.995,0.304-1.719,0.529-1.8,0.562
	C4.813,7.611,4.797,7.626,4.731,8.158c-0.062,0.385-1.524,11.72-1.524,11.72L14.508,22L15.279,4.362L15.279,4.362z"/>
</svg>
