<svg version="1.1" id="master" xmlns="http://www.w3.org/2000/svg" xmlns:xlink="http://www.w3.org/1999/xlink" x="0px" y="0px"
	 width="24px" height="24px" viewBox="0 0 24 24" enable-background="new 0 0 24 24" xml:space="preserve">
<rect fill="none" width="24" height="24"/>
<path d="M21.091,9.718h-4.354l-3.981-5.963C12.582,3.5,12.291,3.373,12,3.373S11.418,3.5,11.246,3.764L7.264,9.718H2.909
	c-0.5,0-0.909,0.41-0.909,0.909c0,0.082,0.009,0.164,0.037,0.246L4.346,19.3c0.209,0.765,0.909,1.327,1.745,1.327h11.818
	c0.836,0,1.536-0.563,1.754-1.327l2.312-8.427L22,10.627C22,10.128,21.591,9.718,21.091,9.718z M12,5.719l2.729,3.999H9.273
	L12,5.719z M16,17.76l-1.414,1.414L12,16.588l-2.586,2.586L8,17.76l2.586-2.586L8,12.588l1.414-1.414L12,13.76l2.586-2.586
	L16,12.588l-2.586,2.586L16,17.76z"/>
</svg>
