<svg version="1.1" id="master" xmlns="http://www.w3.org/2000/svg" xmlns:xlink="http://www.w3.org/1999/xlink" x="0px" y="0px"
	 width="24px" height="24px" viewBox="0 0 24 24" enable-background="new 0 0 24 24" xml:space="preserve">
<rect fill="none" width="24" height="24"/>
<path d="M22,10.15c0-0.185-0.04-0.36-0.119-0.526c-0.08-0.166-0.186-0.312-0.318-0.438s-0.283-0.224-0.452-0.293
	s-0.347-0.104-0.532-0.104H3.432c-0.199,0-0.387,0.036-0.562,0.109C2.694,8.972,2.542,9.072,2.412,9.201
	c-0.129,0.13-0.229,0.28-0.303,0.453C2.036,9.826,2,10.012,2,10.211h17.147v4.294h-2.773c0.285,0.014,0.553,0.078,0.805,0.194
	c0.252,0.115,0.471,0.27,0.656,0.462s0.331,0.416,0.438,0.671c0.105,0.255,0.159,0.525,0.159,0.811h0.716v5h1.431
	c0.199,0,0.385-0.037,0.557-0.109c0.173-0.073,0.323-0.175,0.453-0.304c0.129-0.129,0.229-0.28,0.303-0.452S22,20.42,22,20.221
	V10.15z M18.432,10.926H2v2.147h16.432V10.926z M2.716,16.643c0-0.285,0.053-0.556,0.159-0.811c0.105-0.255,0.252-0.479,0.438-0.671
	s0.402-0.347,0.65-0.462c0.249-0.116,0.516-0.181,0.801-0.194H2v2.138H2.716z M2,21.643h16.432v-3.569H2V21.643z M4.386,8.073h3.628
	C7.663,8.061,7.343,7.956,7.055,7.76c-0.288-0.195-0.499-0.455-0.631-0.78L4.386,8.073z M4.942,14.505
	c0.285,0.014,0.554,0.078,0.805,0.194c0.252,0.115,0.471,0.27,0.656,0.462s0.332,0.416,0.438,0.671C6.947,16.087,7,16.357,7,16.643
	h3.479c-0.285-0.007-0.552-0.07-0.801-0.189c-0.248-0.119-0.465-0.274-0.651-0.467c-0.186-0.192-0.331-0.416-0.437-0.671
	c-0.106-0.256-0.159-0.525-0.159-0.811H4.942z M7,6.284c0,0.152,0.028,0.293,0.085,0.422c0.056,0.13,0.132,0.242,0.229,0.339
	c0.096,0.096,0.208,0.172,0.338,0.229c0.129,0.056,0.27,0.084,0.422,0.084h3.569c0.344,0,0.669-0.066,0.974-0.198
	c0.305-0.133,0.57-0.312,0.795-0.537c0.226-0.226,0.404-0.49,0.537-0.795s0.199-0.63,0.199-0.975c0-0.331-0.065-0.647-0.194-0.949
	s-0.303-0.566-0.521-0.795s-0.476-0.411-0.771-0.547s-0.611-0.204-0.949-0.204c-0.371,0-0.699,0.057-0.984,0.169
	c-0.285,0.113-0.563,0.295-0.835,0.547L7.318,5.519c-0.106,0.1-0.186,0.217-0.239,0.353C7.026,6.008,7,6.145,7,6.284z
	 M14.147,16.643c0-0.285,0.053-0.556,0.159-0.811c0.105-0.255,0.251-0.479,0.437-0.671s0.403-0.347,0.651-0.462
	c0.249-0.116,0.516-0.181,0.801-0.194h-3.479c0,0.285-0.053,0.555-0.159,0.811c-0.106,0.255-0.252,0.48-0.438,0.676
	s-0.404,0.351-0.656,0.467s-0.52,0.178-0.805,0.185H14.147z M15.568,2.357l-1.054,1.054c0.066,0.113,0.119,0.235,0.159,0.368H17
	l-1.263,1.272c-0.132,0.133-0.279,0.24-0.442,0.322c-0.162,0.083-0.333,0.142-0.512,0.175c-0.073,0.357-0.205,0.688-0.397,0.988
	c-0.192,0.302-0.423,0.565-0.69,0.791c-0.269,0.225-0.57,0.402-0.905,0.531c-0.334,0.13-0.681,0.201-1.038,0.214h8.826
	c0.033,0,0.065,0,0.095,0c0.03,0,0.062,0.004,0.095,0.01L17,2.983c-0.066-0.093-0.157-0.175-0.273-0.248S16.484,2.6,16.349,2.547
	c-0.136-0.054-0.273-0.097-0.412-0.13C15.797,2.384,15.675,2.364,15.568,2.357z"/>
</svg>
