<svg version="1.1" id="master" xmlns="http://www.w3.org/2000/svg" xmlns:xlink="http://www.w3.org/1999/xlink" x="0px" y="0px" width="24px" height="24px" viewBox="0 0 24 24" enable-background="new 0 0 24 24" xml:space="preserve">
<rect fill="none" width="24" height="24"/>
<path d="M3.563,18.25h1.875v3.125C5.438,21.721,5.159,22,4.813,22H4.188c-0.346,0-0.625-0.279-0.625-0.625V18.25z M22,12v4.375C22,16.721,21.721,17,21.375,17h-1.541l-6.255-6.25H17V7h-1.875C14.779,7,14.5,6.721,14.5,6.375V4.5H7.325L5.06,2.236C5.26,2.099,5.489,2,5.75,2h10.732c0.33,0,0.649,0.132,0.884,0.366l1.768,1.768C19.368,4.369,19.5,4.686,19.5,5.018V9.5C20.881,9.5,22,10.619,22,12z M19.813,12.625c0-0.519-0.42-0.938-0.938-0.938s-0.938,0.42-0.938,0.938c0,0.518,0.42,0.938,0.938,0.938S19.813,13.143,19.813,12.625z M7.313,21.375C7.313,21.721,7.592,22,7.938,22h0.625c0.346,0,0.625-0.279,0.625-0.625V18.25H7.313V21.375z M11.063,21.375c0,0.346,0.279,0.625,0.625,0.625h0.625c0.345,0,0.625-0.279,0.625-0.625V18.25h-1.875V21.375z M20.586,20.584l-0.148,0.148v0.643c0,0.346-0.279,0.625-0.625,0.625h-0.625c-0.006,0-0.01-0.003-0.016-0.003l-0.001,0.001l-0.002-0.002c-0.329-0.01-0.593-0.272-0.603-0.603l-1.879-1.879v1.86c0,0.346-0.279,0.625-0.625,0.625h-0.625c-0.345,0-0.625-0.279-0.625-0.625V18.25h0.61L14.173,17H2.625C2.279,17,2,16.721,2,16.375V12c0-1.381,1.119-2.5,2.5-2.5V7.328L2,4.828l1.414-1.415l8.739,8.738L17.005,17h-0.003l1.561,1.561v-0.004l1.875,1.873v0.006L20.586,20.584z M7.922,10.75L7,9.828v0.922H7.922z"/>
</svg>
