<svg version="1.1" id="master" xmlns="http://www.w3.org/2000/svg" xmlns:xlink="http://www.w3.org/1999/xlink" x="0px" y="0px" width="24px" height="24px" viewBox="0 0 24 24" enable-background="new 0 0 24 24" xml:space="preserve">
<rect fill="none" width="24" height="24"/>
<path d="M16.997,13.244v-2.499H12V8.247h4.997V5.748l4.997,3.748L16.997,13.244z M14.498,16.991H9.501V5.748L4.504,3.25h9.994v3.748h1.25V3.25c0-0.688-0.563-1.25-1.25-1.25H3.255C2.568,2,2.006,2.562,2.006,3.25v14.216c0,0.486,0.275,0.911,0.687,1.137L9.501,22v-3.76h4.997c0.688,0,1.25-0.563,1.25-1.249v-4.997h-1.25V16.991z"/>
</svg>
