<svg version="1.1" id="master" xmlns="http://www.w3.org/2000/svg" xmlns:xlink="http://www.w3.org/1999/xlink" x="0px" y="0px" width="24px" height="24px" viewBox="0 0 24 24" enable-background="new 0 0 24 24" xml:space="preserve">
<rect fill="none" width="24" height="24"/>
<path d="M15,12.171L7.414,4.586L10,2h8c1.1,0,1.99,0.9,1.99,2l0.008,13.17L17,14.171V11h-2V12.171z M19.171,22l-0.238-0.238C18.655,21.908,18.345,22,18.01,22H6c-1.1,0-2-0.9-2-2V8l0.586-0.586L2,4.828l1.414-1.414L6,6l0,0l3.606,3.606l10.979,10.979L19.171,22z M9,17H7v2h2V17z M9,15v-3.171L8.171,11H7v4H9z M13,19v-3.171L12.171,15H11v4H13z M16.171,19L15,17.829V19H16.171z"/>
</svg>
