<svg version="1.1" id="master" xmlns="http://www.w3.org/2000/svg" xmlns:xlink="http://www.w3.org/1999/xlink" x="0px" y="0px" width="24px" height="24px" viewBox="0 0 24 24" enable-background="new 0 0 24 24" xml:space="preserve">
<rect fill="none" width="24" height="24"/>
<path d="M12,12v-1.25c-2.07,0-3.75-1.68-3.75-3.75S9.93,3.25,12,3.25c2.07,0,3.75,1.68,3.75,3.75H17c0-2.76-2.239-5-5-5C9.24,2,7,4.24,7,7S9.24,12,12,12z M14.531,12.688c2.381,1.397,3.18,4.463,1.781,6.845h1.4c0.352-0.795,0.534-1.656,0.535-2.525c0.003-3.453-2.793-6.254-6.245-6.258V12C12.893,12,13.765,12.238,14.531,12.688z M12.002,10.75H12H12.002 M7.69,19.533C7.25,18.79,7,17.925,7,17v-0.024H5.75V17c-0.001,0.872,0.182,1.736,0.538,2.533H7.69z M14.5,20.75v-5h1.25V14.5h-7.5v1.25H9.5v5H5.75V22h12.5v-1.25H14.5z M13.25,20.75h-2.5v-5h2.5V20.75z M9.565,6.935C9.529,8.317,10.619,9.464,12,9.5c1.332-0.033,2.399-1.105,2.435-2.435C14.471,5.683,13.381,4.536,12,4.5C10.669,4.533,9.6,5.605,9.565,6.935z M13.25,7.001c0,0.69-0.56,1.25-1.25,1.25c-0.692,0-1.25-0.561-1.25-1.251c0-0.692,0.558-1.25,1.25-1.25c0.69,0,1.25,0.56,1.25,1.25V7.001z"/>
</svg>
