<svg version="1.1" id="master" xmlns="http://www.w3.org/2000/svg" xmlns:xlink="http://www.w3.org/1999/xlink" x="0px" y="0px" width="24px" height="24px" viewBox="0 0 24 24" enable-background="new 0 0 24 24" xml:space="preserve">
<rect fill="none" width="24" height="24"/>
<path d="M12,3.042l5.625,5.531V3.667L12,3.042z M12,3.042L6.958,8.875h10.083L12,3.042z M12,3.042L6.375,3.667v4.906L12,3.042z M6.375,3.667L2,9.5l3.68-0.567L6.375,3.667z M2,9.5l9.966,11.42l0.006-0.012L5.702,9.5H2z M17.625,3.667l0.695,5.267L22,9.5L17.625,3.667z M22,9.5h-3.755l-6.269,11.408L12,20.959L22,9.5z M12,20.959l-0.026-0.049l-0.007,0.01L12,20.959z M6.53,9.5l5.444,11.404L17.471,9.5H6.53z"/>
</svg>
