<svg version="1.1" id="master" xmlns="http://www.w3.org/2000/svg" xmlns:xlink="http://www.w3.org/1999/xlink" x="0px" y="0px"
	 width="24px" height="24px" viewBox="0 0 24 24" enable-background="new 0 0 24 24" xml:space="preserve">
<rect fill="none" width="24" height="24"/>
<path d="M10.748,3.878c0.632,0,1.24,0.081,1.826,0.244c0.585,0.162,1.133,0.393,1.644,0.691c0.51,0.298,0.974,0.657,1.391,1.078
	c0.418,0.42,0.775,0.884,1.074,1.391c0.299,0.508,0.53,1.054,0.695,1.64c0.166,0.586,0.248,1.194,0.248,1.826
	s-0.081,1.24-0.243,1.826c-0.162,0.585-0.393,1.133-0.691,1.644c-0.299,0.51-0.658,0.975-1.078,1.396
	c-0.421,0.42-0.886,0.779-1.396,1.078c-0.511,0.299-1.059,0.529-1.644,0.691c-0.586,0.162-1.194,0.243-1.826,0.243
	s-1.241-0.082-1.826-0.248c-0.586-0.165-1.132-0.396-1.64-0.695c-0.507-0.299-0.971-0.656-1.391-1.074
	c-0.421-0.417-0.78-0.881-1.078-1.391c-0.299-0.511-0.529-1.059-0.691-1.644c-0.163-0.586-0.244-1.194-0.244-1.826
	s0.081-1.24,0.244-1.826c0.162-0.586,0.393-1.132,0.691-1.64c0.298-0.507,0.657-0.971,1.078-1.391
	c0.42-0.421,0.884-0.78,1.391-1.078c0.508-0.299,1.054-0.529,1.64-0.691C9.507,3.959,10.116,3.878,10.748,3.878z M21.813,18.548
	c-0.125-0.308-0.307-0.58-0.544-0.817l-2.826-2.817c0.348-0.644,0.61-1.316,0.787-2.018s0.266-1.417,0.266-2.147
	c0-0.806-0.104-1.581-0.313-2.326S18.68,6.981,18.3,6.335s-0.836-1.236-1.369-1.77c-0.533-0.534-1.123-0.99-1.77-1.37
	c-0.646-0.38-1.343-0.674-2.087-0.883C12.329,2.104,11.554,2,10.748,2S9.167,2.104,8.422,2.313c-0.745,0.209-1.44,0.503-2.087,0.883
	c-0.646,0.379-1.236,0.836-1.77,1.37c-0.533,0.533-0.99,1.123-1.37,1.77C2.816,6.981,2.521,7.677,2.313,8.422
	C2.104,9.167,2,9.942,2,10.748s0.104,1.581,0.313,2.326c0.208,0.744,0.503,1.441,0.882,2.091c0.38,0.649,0.835,1.241,1.365,1.774
	s1.121,0.989,1.77,1.369c0.649,0.38,1.347,0.674,2.092,0.883s1.521,0.313,2.326,0.313c0.73,0,1.446-0.09,2.147-0.27
	s1.371-0.443,2.009-0.791l2.826,2.826c0.231,0.231,0.501,0.412,0.809,0.539C18.847,21.937,19.165,22,19.496,22
	c0.348,0,0.674-0.065,0.978-0.195c0.305-0.131,0.57-0.309,0.796-0.535c0.227-0.226,0.404-0.49,0.535-0.791
	C21.935,20.177,22,19.853,22,19.504C22,19.174,21.938,18.855,21.813,18.548z M17.896,13.03c-0.237,0.739-0.582,1.428-1.034,2.065
	l-1.774,1.766c-0.638,0.452-1.324,0.797-2.061,1.034c-0.736,0.238-1.496,0.356-2.278,0.356c-0.69,0-1.354-0.09-1.991-0.27
	s-1.235-0.432-1.792-0.756c-0.556-0.325-1.062-0.717-1.517-1.175c-0.455-0.457-0.846-0.965-1.17-1.521s-0.577-1.153-0.757-1.791
	s-0.27-1.302-0.27-1.991c0-0.69,0.09-1.354,0.27-1.991s0.433-1.235,0.757-1.792c0.324-0.556,0.715-1.062,1.17-1.517
	s0.961-0.846,1.517-1.17c0.557-0.325,1.154-0.577,1.792-0.756s1.301-0.27,1.991-0.27c0.689,0,1.354,0.09,1.991,0.27
	s1.234,0.432,1.791,0.756c0.557,0.324,1.063,0.715,1.521,1.17s0.85,0.961,1.175,1.517c0.324,0.557,0.576,1.154,0.756,1.792
	s0.27,1.301,0.27,1.991C18.252,11.53,18.134,12.291,17.896,13.03z M19.935,19.939c-0.124,0.121-0.271,0.183-0.438,0.183
	c-0.169,0-0.313-0.062-0.436-0.183c-0.121-0.122-0.183-0.267-0.183-0.436c0-0.168,0.062-0.314,0.183-0.438
	c0.122-0.125,0.267-0.188,0.436-0.188c0.174,0,0.321,0.062,0.443,0.183c0.121,0.122,0.183,0.27,0.183,0.443
	C20.122,19.673,20.06,19.817,19.935,19.939z"/>
</svg>
