<svg version="1.1" id="master" xmlns="http://www.w3.org/2000/svg" xmlns:xlink="http://www.w3.org/1999/xlink" x="0px" y="0px"
	 width="24px" height="24px" viewBox="0 0 24 24" enable-background="new 0 0 24 24" xml:space="preserve">
<rect fill="none" width="24" height="24"/>
<path d="M20.123,8.516c0.284,0.122,0.542,0.281,0.773,0.478c0.231,0.197,0.429,0.42,0.591,0.669s0.288,0.52,0.378,0.812
	S22,11.067,22,11.375c0,0.313-0.045,0.614-0.135,0.903c-0.09,0.291-0.217,0.559-0.382,0.808s-0.362,0.473-0.591,0.669
	c-0.229,0.197-0.485,0.359-0.77,0.487v2.754c0,0.521-0.063,1.015-0.19,1.48c-0.128,0.467-0.314,0.896-0.561,1.286
	c-0.246,0.392-0.555,0.74-0.926,1.047c-0.37,0.308-0.799,0.562-1.285,0.765c-0.325,0.133-0.658,0.236-1,0.309
	c-0.341,0.072-0.686,0.108-1.033,0.108H2.018c0-0.18-0.003-0.357-0.009-0.534S2,21.1,2,20.914c0-0.168,0.045-0.372,0.135-0.613
	c0.09-0.24,0.201-0.481,0.334-0.725c0.134-0.244,0.275-0.471,0.426-0.682c0.151-0.212,0.287-0.379,0.408-0.5
	c-0.417-0.563-0.735-1.176-0.955-1.842c-0.221-0.666-0.33-1.35-0.33-2.051c0-0.684,0.094-1.328,0.282-1.934
	c0.188-0.604,0.452-1.162,0.791-1.672c0.338-0.509,0.741-0.967,1.207-1.373c0.467-0.405,0.978-0.749,1.533-1.03
	C6.388,8.213,6.977,7.999,7.6,7.852C8.222,7.704,8.86,7.63,9.516,7.63c0.463,0,0.909,0.038,1.338,0.113
	c-0.168-0.226-0.3-0.437-0.396-0.634c-0.096-0.197-0.167-0.398-0.213-0.604c-0.047-0.206-0.077-0.418-0.092-0.639
	c-0.014-0.22-0.021-0.466-0.021-0.738c0-0.429,0.083-0.833,0.248-1.212c0.165-0.379,0.39-0.709,0.673-0.99
	c0.284-0.281,0.615-0.504,0.995-0.669c0.379-0.165,0.783-0.248,1.212-0.248c0.492,0,0.957,0.11,1.395,0.33s0.804,0.527,1.099,0.921
	c0.296-0.394,0.663-0.701,1.104-0.921s0.906-0.33,1.399-0.33c0.428,0,0.832,0.083,1.212,0.248c0.379,0.165,0.709,0.388,0.99,0.669
	c0.281,0.281,0.504,0.611,0.669,0.99c0.165,0.379,0.247,0.784,0.247,1.212v0.625c0,0.243-0.031,0.483-0.095,0.721
	c-0.064,0.237-0.151,0.464-0.261,0.682c-0.11,0.217-0.242,0.423-0.396,0.617c-0.153,0.194-0.32,0.369-0.5,0.525V8.516z
	 M18.881,13.251c0.261,0,0.504-0.049,0.729-0.147c0.227-0.099,0.423-0.233,0.591-0.404c0.168-0.17,0.302-0.369,0.4-0.595
	c0.098-0.226,0.147-0.469,0.147-0.73s-0.05-0.504-0.147-0.73c-0.099-0.226-0.232-0.422-0.4-0.591
	c-0.168-0.168-0.364-0.301-0.591-0.399c-0.226-0.099-0.469-0.148-0.729-0.148V7.63c0.168-0.087,0.327-0.197,0.478-0.33
	c0.151-0.133,0.283-0.281,0.396-0.443c0.113-0.162,0.203-0.337,0.27-0.525s0.1-0.381,0.1-0.578V5.128
	c0-0.261-0.049-0.504-0.147-0.73s-0.231-0.423-0.399-0.591s-0.365-0.301-0.591-0.4c-0.226-0.098-0.47-0.147-0.729-0.147
	c-0.261,0-0.504,0.049-0.73,0.147c-0.226,0.099-0.424,0.232-0.595,0.4s-0.306,0.365-0.404,0.591s-0.147,0.469-0.147,0.73v0.625
	c0,0.203,0.032,0.396,0.096,0.582s0.151,0.36,0.265,0.525s0.246,0.313,0.399,0.443c0.154,0.13,0.317,0.239,0.491,0.326
	c0,0.272-0.046,0.524-0.139,0.756c-0.093,0.232-0.222,0.43-0.387,0.595s-0.363,0.294-0.596,0.387
	c-0.231,0.092-0.483,0.139-0.756,0.139c-0.271,0-0.522-0.046-0.751-0.139c-0.229-0.093-0.426-0.223-0.591-0.391
	s-0.294-0.366-0.387-0.595c-0.093-0.229-0.139-0.479-0.139-0.751c0.168-0.087,0.327-0.197,0.478-0.33s0.282-0.281,0.396-0.443
	c0.112-0.162,0.202-0.337,0.269-0.525c0.067-0.188,0.101-0.381,0.101-0.578V5.128c0-0.261-0.05-0.504-0.147-0.73
	c-0.099-0.226-0.232-0.423-0.4-0.591s-0.364-0.301-0.591-0.4C13.764,3.309,13.521,3.26,13.26,3.26s-0.504,0.049-0.729,0.147
	c-0.227,0.099-0.425,0.232-0.596,0.4s-0.306,0.365-0.403,0.591c-0.099,0.226-0.148,0.469-0.148,0.73v0.625
	c0,0.203,0.032,0.396,0.096,0.582s0.152,0.36,0.266,0.525c0.112,0.165,0.246,0.313,0.399,0.443s0.317,0.239,0.49,0.326v2.024
	c0.44,0.237,0.852,0.527,1.234,0.869c0.382,0.342,0.714,0.721,0.994,1.138c0.281,0.417,0.501,0.866,0.661,1.347
	c0.159,0.48,0.238,0.979,0.238,1.494H13.26c0,0.725-0.125,1.391-0.374,1.998c-0.249,0.608-0.596,1.136-1.042,1.582
	c-0.446,0.445-0.975,0.793-1.586,1.042s-1.275,0.374-1.994,0.374c-0.544,0-1.074-0.072-1.59-0.217
	c-0.515-0.146-0.99-0.383-1.425-0.713c-0.22,0.092-0.436,0.215-0.646,0.365c-0.212,0.15-0.407,0.319-0.587,0.508
	c-0.18,0.188-0.335,0.393-0.465,0.612s-0.225,0.449-0.282,0.687h11.859c0.231,0,0.462-0.023,0.69-0.069s0.453-0.107,0.674-0.183
	c0.805-0.277,1.404-0.72,1.798-1.324c0.394-0.605,0.591-1.328,0.591-2.168V13.251z M5.137,14.189c0,0.348,0.049,0.682,0.147,1.004
	c0.099,0.32,0.239,0.619,0.421,0.895c0.183,0.275,0.404,0.52,0.665,0.734c0.261,0.214,0.55,0.391,0.869,0.529
	c0.185,0.082,0.376,0.146,0.573,0.195c0.196,0.05,0.399,0.074,0.608,0.074c0.26,0,0.514-0.02,0.76-0.061s0.491-0.11,0.734-0.209
	c0.313-0.127,0.598-0.301,0.855-0.521c0.258-0.22,0.478-0.469,0.66-0.746c0.183-0.279,0.324-0.58,0.426-0.904
	s0.152-0.654,0.152-0.99c0-0.475-0.09-0.921-0.27-1.338s-0.424-0.782-0.734-1.095c-0.31-0.313-0.673-0.559-1.09-0.739
	c-0.417-0.179-0.863-0.269-1.338-0.269c-0.476,0-0.921,0.09-1.338,0.269c-0.417,0.18-0.782,0.426-1.095,0.739
	c-0.313,0.313-0.56,0.678-0.739,1.095C5.227,13.269,5.137,13.715,5.137,14.189z M8.577,16.996c-0.389,0-0.753-0.074-1.095-0.223
	c-0.342-0.146-0.641-0.347-0.896-0.599s-0.456-0.549-0.604-0.891s-0.222-0.706-0.222-1.095s0.074-0.753,0.222-1.095
	s0.349-0.64,0.604-0.895s0.554-0.456,0.896-0.604c0.342-0.148,0.706-0.222,1.095-0.222c0.388,0,0.753,0.074,1.095,0.222
	c0.342,0.147,0.639,0.349,0.891,0.604s0.451,0.553,0.599,0.895c0.148,0.342,0.222,0.706,0.222,1.095
	c0,0.383-0.075,0.742-0.226,1.082c-0.15,0.338-0.354,0.635-0.608,0.891c-0.255,0.254-0.552,0.457-0.891,0.607
	S8.959,16.996,8.577,16.996z M7.639,14.189c0,0.133,0.024,0.256,0.074,0.369c0.049,0.113,0.117,0.21,0.204,0.291
	s0.187,0.146,0.3,0.195c0.112,0.049,0.232,0.074,0.36,0.074c0.127,0,0.247-0.025,0.36-0.074s0.211-0.115,0.295-0.199
	s0.151-0.183,0.2-0.296c0.049-0.112,0.074-0.233,0.074-0.36s-0.025-0.248-0.074-0.361c-0.049-0.112-0.114-0.212-0.195-0.299
	s-0.18-0.155-0.296-0.205c-0.115-0.049-0.237-0.073-0.364-0.073c-0.134,0-0.257,0.024-0.369,0.073
	c-0.113,0.05-0.212,0.117-0.296,0.201s-0.15,0.184-0.199,0.299C7.663,13.94,7.639,14.063,7.639,14.189z M13.886,5.128v0.625
	c0,0.168-0.063,0.314-0.188,0.438c-0.124,0.125-0.271,0.187-0.438,0.187c-0.174,0-0.321-0.061-0.443-0.183
	c-0.121-0.122-0.183-0.269-0.183-0.443V5.128c0-0.168,0.063-0.313,0.188-0.435c0.124-0.122,0.271-0.183,0.438-0.183
	s0.314,0.061,0.438,0.183C13.823,4.815,13.886,4.96,13.886,5.128z M13.886,17.621c0.168,0,0.313,0.063,0.434,0.188
	c0.122,0.124,0.183,0.27,0.183,0.438s-0.061,0.314-0.183,0.439c-0.121,0.125-0.266,0.187-0.434,0.187
	c-0.174,0-0.322-0.061-0.443-0.183c-0.122-0.121-0.183-0.27-0.183-0.443s0.061-0.32,0.183-0.442
	C13.563,17.682,13.712,17.621,13.886,17.621z M16.066,16.996c0.127,0,0.249,0.024,0.364,0.073c0.116,0.05,0.216,0.116,0.3,0.2
	s0.15,0.184,0.2,0.299c0.049,0.117,0.073,0.238,0.073,0.365c0,0.128-0.024,0.248-0.073,0.361c-0.05,0.113-0.117,0.213-0.204,0.299
	c-0.087,0.088-0.188,0.155-0.3,0.205c-0.113,0.049-0.233,0.073-0.36,0.073c-0.128,0-0.248-0.024-0.361-0.073
	c-0.112-0.05-0.213-0.117-0.3-0.205c-0.086-0.086-0.154-0.186-0.204-0.299c-0.049-0.113-0.073-0.233-0.073-0.361
	c0-0.127,0.024-0.247,0.073-0.36c0.05-0.112,0.118-0.213,0.204-0.3c0.087-0.086,0.188-0.154,0.3-0.204
	C15.818,17.021,15.938,16.996,16.066,16.996z M16.379,15.119c0.168,0,0.314,0.063,0.438,0.187c0.125,0.125,0.187,0.271,0.187,0.438
	c0,0.174-0.061,0.322-0.182,0.443c-0.122,0.121-0.27,0.183-0.443,0.183s-0.321-0.062-0.443-0.183
	c-0.121-0.121-0.183-0.27-0.183-0.443c0-0.168,0.063-0.313,0.188-0.438C16.064,15.182,16.211,15.119,16.379,15.119z M18.881,5.128
	v0.625c0,0.168-0.063,0.314-0.187,0.438c-0.125,0.125-0.271,0.187-0.438,0.187c-0.174,0-0.322-0.061-0.443-0.183
	C17.69,6.075,17.63,5.927,17.63,5.753V5.128c0-0.168,0.063-0.313,0.187-0.435c0.125-0.122,0.271-0.183,0.439-0.183
	s0.313,0.061,0.438,0.183C18.818,4.815,18.881,4.96,18.881,5.128z"/>
</svg>
