<svg version="1.1" id="master" xmlns="http://www.w3.org/2000/svg" xmlns:xlink="http://www.w3.org/1999/xlink" x="0px" y="0px" width="24px" height="24px" viewBox="0 0 24 24" enable-background="new 0 0 24 24" xml:space="preserve">
<rect fill="none" width="24" height="24"/>
<path d="M5.825,6.456C5.507,6.343,5.189,6.287,4.871,6.287c-0.397,0-0.77,0.075-1.118,0.224C3.406,6.66,3.103,6.863,2.845,7.122S2.382,7.683,2.233,8.031S2.01,8.751,2.01,9.148c0,0.292,0.043,0.573,0.129,0.845s0.208,0.526,0.368,0.765C3.394,9.91,4.255,9.051,5.09,8.18c0.834-0.871,1.696-1.73,2.583-2.578c-0.1-0.02-0.202-0.03-0.308-0.03c-0.318,0-0.614,0.078-0.889,0.233C6.201,5.961,5.984,6.178,5.825,6.456z M2.715,17.713c0.186,0,0.346-0.06,0.482-0.179s0.213-0.271,0.233-0.457c-0.232-0.232-0.479-0.467-0.74-0.705c-0.262-0.239-0.488-0.494-0.681-0.766v1.391c0,0.192,0.07,0.359,0.209,0.502S2.523,17.713,2.715,17.713z M7.007,20.574c0.119,0,0.232-0.029,0.338-0.09c0.106-0.06,0.192-0.139,0.258-0.238c-0.384-0.053-0.747-0.165-1.088-0.338c-0.341-0.172-0.651-0.397-0.929-0.675l-2.156-2.156v3.497c0,0.199,0.038,0.384,0.114,0.557c0.076,0.172,0.179,0.322,0.308,0.452c0.129,0.129,0.28,0.229,0.452,0.303c0.172,0.073,0.357,0.109,0.556,0.109s0.384-0.036,0.557-0.109c0.172-0.073,0.323-0.174,0.452-0.303c0.129-0.13,0.232-0.28,0.308-0.452c0.076-0.173,0.114-0.357,0.114-0.557v-0.715c0,0.191,0.071,0.358,0.214,0.501C6.648,20.503,6.815,20.574,7.007,20.574z M19.437,7.246c-0.086-0.262-0.215-0.522-0.388-0.78c-0.072-0.105-0.164-0.22-0.272-0.343C18.667,6,18.551,5.878,18.428,5.755c-0.122-0.123-0.244-0.24-0.367-0.353c-0.122-0.113-0.23-0.215-0.323-0.308c-0.377-0.377-0.751-0.753-1.122-1.127s-0.749-0.75-1.133-1.128c-0.278-0.271-0.586-0.478-0.924-0.621s-0.702-0.214-1.093-0.214c-0.397,0-0.762,0.071-1.093,0.214c-0.331,0.143-0.643,0.349-0.934,0.621c-0.199,0.192-0.396,0.388-0.591,0.586c-0.196,0.199-0.389,0.394-0.582,0.586L4.434,9.844c-0.245,0.245-0.49,0.485-0.735,0.72c-0.245,0.235-0.483,0.479-0.715,0.73l-0.139,0.149c-0.272,0.292-0.48,0.599-0.626,0.924C2.073,12.692,2,13.057,2,13.461c0,0.391,0.073,0.755,0.219,1.093c0.146,0.338,0.354,0.646,0.626,0.924c0.324,0.338,0.65,0.667,0.979,0.988c0.328,0.321,0.657,0.647,0.988,0.979c0.245,0.252,0.489,0.5,0.73,0.745s0.492,0.483,0.75,0.716c0.245,0.219,0.527,0.384,0.845,0.497c0.318,0.112,0.643,0.168,0.974,0.168c0.371,0,0.706-0.061,1.003-0.184c0.298-0.122,0.589-0.296,0.875-0.521c0.192-0.152,0.379-0.328,0.561-0.526c0.182-0.199,0.359-0.384,0.532-0.557l1.888-1.888c0.967-0.967,1.929-1.926,2.886-2.876c0.958-0.951,1.916-1.913,2.877-2.886c0.271-0.278,0.479-0.586,0.621-0.924c0.142-0.338,0.213-0.702,0.213-1.093C19.565,7.797,19.522,7.508,19.437,7.246z M14.598,5.06c-0.092-0.036-0.185-0.055-0.277-0.055c-0.199,0-0.368,0.07-0.507,0.208c-0.795,0.795-1.586,1.585-2.375,2.37c-0.788,0.785-1.576,1.579-2.364,2.38l-2.633,2.623c-0.205,0.206-0.412,0.409-0.621,0.611c-0.209,0.202-0.409,0.409-0.601,0.621c-0.073,0.072-0.126,0.147-0.159,0.224s-0.05,0.167-0.05,0.273c0,0.198,0.066,0.364,0.199,0.496c-0.139-0.139-0.283-0.278-0.432-0.417c-0.149-0.14-0.29-0.281-0.422-0.428c-0.139-0.152-0.208-0.321-0.208-0.506c0-0.106,0.018-0.197,0.055-0.273s0.088-0.154,0.154-0.233c0.172-0.192,0.354-0.38,0.547-0.562c0.192-0.182,0.381-0.366,0.566-0.552l6.975-6.964c0.086-0.086,0.17-0.176,0.253-0.269s0.171-0.179,0.264-0.258c0.072-0.066,0.148-0.118,0.229-0.154c0.079-0.036,0.169-0.055,0.268-0.055c0.199,0,0.368,0.069,0.507,0.208l0.864,0.864C14.767,5.148,14.69,5.097,14.598,5.06z M8.428,21.995c0.199,0,0.368-0.068,0.507-0.204s0.208-0.306,0.208-0.512c0-0.198-0.069-0.365-0.208-0.501s-0.308-0.204-0.507-0.204c-0.192,0-0.358,0.069-0.497,0.209c-0.139,0.139-0.209,0.305-0.209,0.496c0,0.192,0.07,0.359,0.209,0.502C8.07,21.924,8.236,21.995,8.428,21.995z M13.068,21.181c0.105,0.065,0.229,0.099,0.367,0.099c0.192,0,0.357-0.069,0.497-0.208c0.139-0.14,0.208-0.305,0.208-0.497s-0.069-0.359-0.208-0.502c-0.14-0.143-0.305-0.213-0.497-0.213c-0.198,0-0.369,0.069-0.512,0.208c-0.143,0.14-0.214,0.309-0.214,0.507c0,0.014,0.002,0.03,0.006,0.05c0.003,0.02,0.005,0.036,0.005,0.05c-0.106-0.066-0.226-0.1-0.358-0.1c-0.192,0-0.359,0.069-0.502,0.209c-0.143,0.139-0.213,0.305-0.213,0.496c0,0.199,0.069,0.368,0.208,0.507c0.139,0.14,0.308,0.209,0.507,0.209c0.192,0,0.359-0.071,0.501-0.214s0.214-0.31,0.214-0.502c0-0.013-0.002-0.029-0.005-0.049C13.069,21.21,13.068,21.193,13.068,21.181z M17.718,17.653c0.119,0.04,0.238,0.06,0.357,0.06c0.146,0,0.285-0.028,0.418-0.085c0.132-0.056,0.246-0.134,0.343-0.233c0.096-0.099,0.172-0.213,0.229-0.343c0.056-0.129,0.084-0.267,0.084-0.412s-0.028-0.284-0.084-0.417c-0.057-0.133-0.135-0.245-0.233-0.338c-0.1-0.093-0.216-0.167-0.349-0.224c-0.132-0.057-0.271-0.084-0.417-0.084s-0.283,0.027-0.412,0.084s-0.242,0.133-0.338,0.229s-0.172,0.209-0.229,0.338s-0.084,0.267-0.084,0.412c0,0.119,0.02,0.238,0.06,0.357h-0.05c-0.192,0-0.361,0.07-0.507,0.209c-0.146,0.14-0.219,0.308-0.219,0.507c0,0.198,0.069,0.367,0.209,0.507c0.139,0.139,0.308,0.208,0.507,0.208c0.198,0,0.367-0.07,0.506-0.213c0.14-0.143,0.209-0.313,0.209-0.512V17.653z M20.569,14.861c0.192,0,0.359-0.071,0.502-0.214c0.143-0.142,0.213-0.31,0.213-0.501c0-0.199-0.069-0.368-0.208-0.507c-0.14-0.14-0.309-0.209-0.507-0.209c-0.192,0-0.359,0.071-0.502,0.214s-0.214,0.31-0.214,0.502c0,0.191,0.071,0.359,0.214,0.501C20.21,14.79,20.377,14.861,20.569,14.861z M21.284,13.431c0.199,0,0.368-0.069,0.507-0.209C21.931,13.083,22,12.914,22,12.716c0-0.199-0.071-0.368-0.214-0.507S21.477,12,21.284,12c-0.198,0-0.367,0.069-0.506,0.208c-0.14,0.139-0.209,0.308-0.209,0.507c0,0.198,0.069,0.367,0.209,0.506C20.917,13.361,21.086,13.431,21.284,13.431z"/>
</svg>
