<svg version="1.1" id="master" xmlns="http://www.w3.org/2000/svg" xmlns:xlink="http://www.w3.org/1999/xlink" x="0px" y="0px" width="24px" height="24px" viewBox="0 0 24 24" enable-background="new 0 0 24 24" xml:space="preserve">
<rect fill="none" width="24" height="24"/>
<path d="M10.332,3.221c-0.073,0-0.147,0.033-0.2,0.086l-8.047,8.039c-0.113,0.107-0.113,0.287,0,0.4l7.627,7.612c0.053,0.06,0.127,0.088,0.2,0.088s0.145-0.034,0.199-0.088l1.141-1.153c0.113-0.107,0.113-0.287,0-0.4l-5.977-5.979c-0.153-0.152-0.153-0.398-0.001-0.552c0-0.001,0.001-0.001,0.001-0.002l7.565-7.565c0.1-0.1,0.094-0.227,0.061-0.313c-0.034-0.08-0.121-0.173-0.261-0.173H10.332z M14.107,4.547c-0.073,0-0.146,0.035-0.2,0.088l-1.16,1.161c-0.113,0.106-0.113,0.287,0,0.4l5.976,5.984c0.074,0.073,0.114,0.173,0.114,0.273s-0.04,0.2-0.114,0.273l-7.564,7.565c-0.1,0.1-0.094,0.227-0.06,0.314c0.033,0.08,0.12,0.172,0.26,0.172v-0.006h2.309c0.073,0,0.146-0.027,0.2-0.08l8.046-8.045C21.973,12.595,22,12.521,22,12.447c0-0.072-0.033-0.146-0.087-0.199l-7.605-7.613C14.255,4.575,14.181,4.547,14.107,4.547z M11.528,7.178c-0.094,0.004-0.18,0.084-0.176,0.198c0.12,1.848-2.202,2.303-2.202,5.205v0.02c0,1.769,1.335,3.202,2.983,3.202s2.982-1.434,2.982-3.202v-0.019c0-0.821-0.307-1.603-0.62-2.19c-0.061-0.113-0.241-0.072-0.222,0.034c0.561,2.496-0.846,4.043-0.846,2.121c0-3.275-1.163-4.764-1.776-5.324C11.618,7.192,11.573,7.176,11.528,7.178z"/>
</svg>
