<svg version="1.1" id="master" xmlns="http://www.w3.org/2000/svg" xmlns:xlink="http://www.w3.org/1999/xlink" x="0px" y="0px" width="24px" height="24px" viewBox="0 0 24 24" enable-background="new 0 0 24 24" xml:space="preserve">
<rect fill="none" width="24" height="24"/>
<path d="M16.906,14.075L19,16.167V4c0-1.1-0.9-2-2-2H7C6.405,2,5.875,2.269,5.508,2.684l7.414,7.409C14.94,10.471,16.527,12.057,16.906,14.075z M10,6c0-1.1,0.89-2,2-2c1.1,0,2,0.9,2,2s-0.9,2-2,2C10.89,8,10,7.1,10,6z M20.586,20.585L19,18.999v-0.005l-2.312-2.311c0,0.001-0.001,0.002-0.001,0.003L15,14.999c0-0.001,0-0.002,0-0.003L12.001,12c0,0,0,0,0,0L3.414,3.414L2,4.828l3,3V20c0,1.1,0.9,1.99,2,1.99L17,22c0.594,0,1.123-0.268,1.49-0.683l0.682,0.682L20.586,20.585z M12,20c-2.76,0-5-2.24-5-5c0-1.426,0.609-2.697,1.57-3.603L9.972,12.8C9.378,13.347,9,14.126,9,15c0,1.66,1.34,3,3,3c0.874,0,1.653-0.378,2.2-0.972l1.402,1.401C14.697,19.391,13.426,20,12,20z"/>
</svg>
