<svg version="1.1" id="master" xmlns="http://www.w3.org/2000/svg" xmlns:xlink="http://www.w3.org/1999/xlink" x="0px" y="0px" width="24px" height="24px" viewBox="0 0 24 24" enable-background="new 0 0 24 24" xml:space="preserve">
<rect fill="none" width="24" height="24"/>
<path d="M17.637,2H10C9.101,2,8.364,2.736,8.364,3.636v13.091c0,0.899,0.736,1.627,1.636,1.627l7.637,0.009c0.899,0,1.636-0.736,1.636-1.636V3.636C19.272,2.736,18.536,2,17.637,2z M13.818,3.818c0.999,0,1.818,0.809,1.818,1.818c0,1.009-0.819,1.818-1.818,1.818c-1,0-1.818-0.809-1.818-1.818C12,4.627,12.818,3.818,13.818,3.818z M13.818,16.091c-2.009,0-3.637-1.627-3.637-3.636s1.628-3.636,3.637-3.636s3.636,1.627,3.636,3.636S15.827,16.091,13.818,16.091z M13.818,10.182c1.255,0,2.272,1.018,2.272,2.273s-1.018,2.273-2.272,2.273c-1.256,0-2.272-1.018-2.272-2.273S12.563,10.182,13.818,10.182z M6.546,5.636H4.728v14.545c0,1,0.81,1.818,1.818,1.818h9.091v-1.818H6.546V5.636z"/>
</svg>
