<svg version="1.1" id="master" xmlns="http://www.w3.org/2000/svg" xmlns:xlink="http://www.w3.org/1999/xlink" x="0px" y="0px" width="24px" height="24px" viewBox="0 0 24 24" enable-background="new 0 0 24 24" xml:space="preserve">
<rect fill="none" width="24" height="24"/>
<path d="M4.42,15.961l2.42-2.419c-0.129,0.429-0.204,0.863-0.226,1.306L5.073,16.39v4.851c0,0.207-0.077,0.385-0.23,0.535S4.509,22,4.302,22v-5.771C4.302,16.129,4.341,16.04,4.42,15.961z M7.578,12c0.093-0.122,0.188-0.241,0.284-0.359c0.096-0.118,0.194-0.23,0.294-0.337v-0.075H6.229c-0.036,0-0.15,0.043-0.343,0.128c-0.193,0.086-0.427,0.197-0.701,0.332c-0.275,0.136-0.569,0.284-0.884,0.444c-0.313,0.161-0.613,0.314-0.899,0.46c-0.285,0.146-0.537,0.275-0.755,0.386s-0.362,0.185-0.434,0.22C2.071,13.264,2,13.377,2,13.542v4.614c0.207,0,0.388-0.076,0.541-0.23c0.153-0.153,0.229-0.333,0.229-0.541v-3.607L6.325,12H7.578z M8.188,8.713c0.057,0.107,0.153,0.181,0.289,0.22S8.73,9.009,8.831,9.045l0.096-0.118V8.263L8.81,8.221L7.386,5.373V2.771c0-0.214-0.075-0.396-0.226-0.546C7.011,2.075,6.829,2,6.614,2v3.458c0,0.064,0.015,0.122,0.043,0.171L8.188,8.713z M6.229,10.458h2.002c0.05-0.25,0.132-0.506,0.246-0.771H6.39L4.259,7.557L3.756,6.068C3.699,5.904,3.604,5.776,3.472,5.683C3.34,5.59,3.188,5.544,3.018,5.544c-0.086,0-0.165,0.011-0.236,0.032c0.021,0.064,0.054,0.164,0.097,0.3c0.043,0.135,0.091,0.289,0.145,0.46c0.054,0.171,0.11,0.352,0.171,0.541c0.062,0.189,0.12,0.364,0.177,0.524c0.058,0.161,0.111,0.3,0.161,0.417c0.05,0.118,0.089,0.191,0.117,0.22l2.313,2.313C6.033,10.422,6.122,10.458,6.229,10.458z M11.229,4.398V3.531c-0.215,0-0.414,0.041-0.6,0.123s-0.349,0.192-0.487,0.332c-0.14,0.14-0.25,0.302-0.332,0.487c-0.082,0.186-0.123,0.386-0.123,0.6v0.278c0.207-0.229,0.44-0.424,0.701-0.589C10.649,4.598,10.93,4.477,11.229,4.398z M15.667,10.062c0.039,0.128,0.073,0.261,0.102,0.396h2.002c0.114,0,0.207-0.036,0.278-0.107l2.303-2.313c0.028-0.028,0.067-0.102,0.117-0.22c0.05-0.118,0.104-0.257,0.161-0.417c0.057-0.161,0.115-0.335,0.177-0.524c0.061-0.189,0.117-0.37,0.171-0.541c0.054-0.171,0.102-0.325,0.145-0.46c0.043-0.136,0.075-0.236,0.097-0.3c-0.079-0.021-0.157-0.032-0.236-0.032c-0.171,0-0.322,0.046-0.454,0.139c-0.133,0.093-0.228,0.221-0.284,0.385l-0.503,1.488L17.61,9.688h-2.088C15.579,9.809,15.628,9.934,15.667,10.062z M14.313,5.351V5.073c0-0.214-0.041-0.414-0.123-0.6c-0.082-0.186-0.192-0.348-0.332-0.487c-0.139-0.139-0.302-0.25-0.487-0.332s-0.385-0.123-0.6-0.123v0.867c0.3,0.079,0.58,0.2,0.841,0.364C13.872,4.927,14.105,5.123,14.313,5.351z M15.522,8.933c0.136-0.039,0.232-0.112,0.289-0.22l1.531-3.083c0.028-0.05,0.043-0.107,0.043-0.171V2c-0.215,0-0.396,0.075-0.546,0.225c-0.15,0.15-0.226,0.332-0.226,0.546v2.602L15.19,8.221l-0.106,0.042v0.664l0.085,0.118C15.27,9.009,15.387,8.972,15.522,8.933z M21.797,13.199c-0.071-0.035-0.216-0.109-0.434-0.22s-0.47-0.239-0.755-0.386c-0.286-0.146-0.587-0.299-0.905-0.46c-0.317-0.161-0.613-0.309-0.889-0.444c-0.274-0.135-0.508-0.246-0.701-0.332c-0.192-0.085-0.307-0.128-0.343-0.128h-1.927v0.075c0.107,0.107,0.207,0.219,0.3,0.337c0.093,0.118,0.186,0.237,0.278,0.359h1.264l3.555,1.777v3.607c0,0.208,0.074,0.388,0.225,0.541c0.149,0.154,0.328,0.23,0.535,0.23v-4.614C22,13.385,21.933,13.271,21.797,13.199z M17.16,13.542c0.129,0.429,0.204,0.863,0.226,1.306l1.541,1.542v4.851c0,0.207,0.077,0.385,0.23,0.535S19.491,22,19.698,22v-5.771c0-0.1-0.039-0.188-0.118-0.268L17.16,13.542z M16.219,13.199c0.264,0.6,0.396,1.228,0.396,1.885v2.494c0,0.193-0.018,0.387-0.054,0.584c-0.035,0.195-0.082,0.387-0.139,0.572c-0.15,0.486-0.369,0.928-0.658,1.328c-0.289,0.399-0.628,0.742-1.018,1.027c-0.389,0.285-0.817,0.509-1.284,0.67C12.994,21.92,12.511,22,12.011,22c-0.636,0-1.235-0.119-1.799-0.359c-0.563-0.238-1.055-0.566-1.472-0.984c-0.418-0.418-0.748-0.906-0.991-1.467c-0.242-0.561-0.363-1.162-0.363-1.805v-2.547c0-0.293,0.039-0.59,0.117-0.889c0.079-0.301,0.188-0.59,0.327-0.867c0.139-0.279,0.303-0.541,0.492-0.788c0.189-0.246,0.391-0.466,0.604-0.659V11.24c0-0.385,0.064-0.748,0.193-1.086c0.128-0.339,0.317-0.659,0.567-0.958c0-0.178-0.002-0.357-0.006-0.535C9.679,8.481,9.677,8.303,9.677,8.124c0-0.135,0.002-0.269,0.005-0.401c0.004-0.132,0.01-0.262,0.017-0.391c0.014-0.3,0.069-0.575,0.166-0.825c0.096-0.25,0.248-0.485,0.455-0.707c0.214-0.229,0.467-0.407,0.76-0.535s0.6-0.193,0.921-0.193s0.621,0.061,0.899,0.182s0.522,0.288,0.733,0.498c0.211,0.211,0.377,0.455,0.498,0.733c0.121,0.279,0.182,0.579,0.182,0.899v1.81c0.164,0.186,0.296,0.373,0.396,0.562c0.1,0.189,0.179,0.382,0.235,0.578c0.057,0.197,0.095,0.402,0.112,0.616c0.018,0.214,0.027,0.443,0.027,0.685C15.576,12.079,15.954,12.6,16.219,13.199z M11.229,6.208c0-0.1-0.04-0.186-0.118-0.257s-0.168-0.107-0.268-0.107s-0.189,0.039-0.268,0.118c-0.079,0.079-0.118,0.168-0.118,0.268V7c0,0.1,0.039,0.189,0.118,0.268c0.078,0.079,0.168,0.118,0.268,0.118c0.107,0,0.198-0.037,0.273-0.112C11.191,7.198,11.229,7.107,11.229,7V6.208z M13.542,6.229c0-0.107-0.038-0.198-0.112-0.273c-0.075-0.075-0.166-0.112-0.273-0.112s-0.198,0.038-0.273,0.112c-0.074,0.075-0.112,0.166-0.112,0.273V7c0,0.107,0.038,0.198,0.112,0.273c0.075,0.075,0.166,0.112,0.273,0.112s0.198-0.037,0.273-0.112C13.504,7.198,13.542,7.107,13.542,7V6.229z"/>
</svg>
