<svg version="1.1" id="master" xmlns="http://www.w3.org/2000/svg" xmlns:xlink="http://www.w3.org/1999/xlink" x="0px" y="0px" width="24px" height="24px" viewBox="0 0 24 24" enable-background="new 0 0 24 24" xml:space="preserve">
<rect fill="none" width="24" height="24"/>
<path d="M21.745,11.597c-0.075-0.031-0.157-0.048-0.246-0.051c-0.088-0.003-0.177-0.005-0.265-0.005l-2.707-5.414l1.134-1.144c0.095-0.095,0.143-0.204,0.143-0.327c0-0.129-0.044-0.238-0.133-0.327c-0.088-0.088-0.197-0.133-0.327-0.133c-0.129,0-0.238,0.044-0.326,0.133l-1.145,1.144L12.46,2.766c0-0.088-0.002-0.177-0.006-0.266c-0.003-0.088-0.02-0.17-0.051-0.245c-0.03-0.075-0.076-0.136-0.138-0.184C12.204,2.024,12.116,2,12,2s-0.204,0.024-0.266,0.071c-0.062,0.048-0.107,0.109-0.138,0.184c-0.031,0.075-0.048,0.157-0.051,0.245c-0.004,0.088-0.006,0.177-0.006,0.266L6.127,5.473L4.982,4.329C4.895,4.241,4.785,4.196,4.656,4.196c-0.13,0-0.239,0.044-0.327,0.133C4.24,4.417,4.196,4.526,4.196,4.656S4.24,4.894,4.329,4.982l1.144,1.144l-2.707,5.414c-0.088,0-0.177,0.001-0.265,0.005c-0.089,0.003-0.171,0.021-0.246,0.051c-0.074,0.03-0.136,0.077-0.184,0.138C2.023,11.796,2,11.884,2,12s0.023,0.204,0.071,0.266c0.048,0.061,0.109,0.107,0.184,0.138c0.075,0.031,0.157,0.048,0.246,0.051c0.088,0.003,0.177,0.005,0.265,0.005l2.707,5.414l-1.144,1.145c-0.089,0.088-0.133,0.197-0.133,0.326c0,0.13,0.046,0.237,0.138,0.322s0.199,0.127,0.322,0.127c0.129,0,0.238-0.043,0.326-0.133l1.145-1.133l5.413,2.707c0,0.088,0.002,0.177,0.006,0.265c0.003,0.089,0.02,0.171,0.051,0.246c0.03,0.074,0.076,0.136,0.138,0.184S11.884,22,12,22s0.204-0.023,0.266-0.071s0.107-0.109,0.138-0.184c0.031-0.075,0.048-0.157,0.051-0.246c0.004-0.088,0.006-0.177,0.006-0.265l5.413-2.707l1.145,1.133c0.088,0.09,0.197,0.133,0.326,0.133c0.123,0,0.23-0.042,0.322-0.127s0.138-0.192,0.138-0.322c0-0.129-0.044-0.238-0.133-0.326l-1.144-1.145l2.707-5.414c0.088,0,0.177-0.001,0.265-0.005c0.089-0.003,0.171-0.021,0.246-0.051c0.074-0.03,0.136-0.077,0.184-0.138C21.977,12.204,22,12.116,22,12s-0.023-0.204-0.071-0.266C21.881,11.673,21.819,11.627,21.745,11.597z M6.055,6.699l0.889,0.889l-1.971,3.953H3.706L6.055,6.699z M8.108,12.459h2.788l-1.858,1.849L8.108,12.459z M8.415,14.941L7.577,15.77l-1.665-3.31h1.257L8.415,14.941z M8.108,11.541l0.939-1.849l1.849,1.849H8.108z M7.169,11.541H5.912l1.665-3.32l0.838,0.837L7.169,11.541z M6.096,17.26l-2.39-4.8h1.267l1.971,3.943L6.096,17.26z M11.54,20.294l-4.801-2.39l0.848-0.848l3.953,1.971V20.294z M11.54,18.088l-3.31-1.665l0.828-0.837l2.481,1.246V18.088z M11.54,15.892l-1.849-0.929l1.849-1.859V15.892z M11.54,10.897L9.691,9.048l1.849-0.939V10.897z M11.54,7.168L9.059,8.415L8.221,7.577l3.319-1.665V7.168z M11.54,4.973L7.587,6.944L6.698,6.055l4.842-2.349V4.973z M12.46,3.706l4.79,2.39l-0.857,0.858L12.46,4.973V3.706z M15.892,12.459l-0.93,1.859l-1.858-1.859H15.892z M13.104,11.541l1.879-1.87l0.909,1.87H13.104z M16.831,12.459h1.257l-1.645,3.34l-0.858-0.858L16.831,12.459z M16.831,11.541l-1.246-2.482l0.828-0.827l1.675,3.31H16.831z M12.46,5.912l3.31,1.675l-0.828,0.827L12.46,7.168V5.912z M12.46,8.108l1.869,0.909l-1.869,1.879V8.108z M12.46,13.104l1.858,1.859l-1.858,0.929V13.104z M12.46,16.832l2.481-1.246l0.858,0.857l-3.34,1.645V16.832z M12.46,20.294v-1.267l3.953-1.971l0.868,0.867L12.46,20.294z M17.925,17.281l-0.868-0.879l1.971-3.943h1.267L17.925,17.281z M19.027,11.541l-1.961-3.953l0.838-0.838l2.39,4.791H19.027z"/>
</svg>
