<svg version="1.1" id="master" xmlns="http://www.w3.org/2000/svg" xmlns:xlink="http://www.w3.org/1999/xlink" x="0px" y="0px" width="24px" height="24px" viewBox="0 0 24 24" enable-background="new 0 0 24 24" xml:space="preserve">
<rect fill="none" width="24" height="24"/>
<path d="M20.125,20.492c-0.629,0.437-1.278,0.661-1.979,0.665c-2.513,0.016-5.025,0-7.538,0.013c-0.324,0.002-0.473-0.13-0.595-0.406c-1.475-3.323-2.958-6.643-4.441-9.961C4.397,8.173,3.217,5.546,2,2.83c0.141,0.092,6.014,5.838,8.88,8.656C13.735,14.292,19.876,20.269,20.125,20.492z M4.313,3.059c5.633,5.396,11.266,10.792,16.917,16.207c0.512-0.692,0.762-1.385,0.762-2.164c0-1.68-0.011-3.359,0.009-5.039c0.004-0.348-0.107-0.52-0.42-0.672c-4.803-2.338-9.599-4.69-14.396-7.039C6.246,3.894,5.309,3.436,4.371,2.977C4.352,3.005,4.332,3.032,4.313,3.059z M8.557,20.768c-1.034-2.316-2.066-4.634-3.104-6.949c-0.371-0.827-0.754-1.649-1.132-2.474c-0.058-0.147-0.117-0.294-0.175-0.441c-0.023,0.006-0.047,0.013-0.071,0.019c0,0.145,0,0.29,0,0.435c-0.006,1.818-0.031,3.638-0.013,5.456c0.014,1.379,0.58,2.518,1.656,3.385c0.859,0.693,1.847,1.006,2.994,0.957C8.649,20.995,8.607,20.88,8.557,20.768z M21.986,7.404C21.985,7.203,21.942,7,21.904,6.801c-0.438-2.267-2.492-3.583-4.164-3.569c-2.857,0.025-5.715-0.001-8.573-0.004c-0.25,0-0.501,0.014-0.751,0.021c-0.107,0-0.214,0-0.322,0C8.092,3.272,8.09,3.296,8.088,3.32c0.109,0.04,0.424,0.197,0.479,0.224c4.348,2.134,8.696,4.268,13.045,6.399c0.107,0.053,0.225,0.086,0.379,0.144C21.99,9.159,21.996,8.282,21.986,7.404z"/>
</svg>
