<svg version="1.1" id="master" xmlns="http://www.w3.org/2000/svg" xmlns:xlink="http://www.w3.org/1999/xlink" x="0px" y="0px" width="24px" height="24px" viewBox="0 0 24 24" enable-background="new 0 0 24 24" xml:space="preserve">
<rect fill="none" width="24" height="24"/>
<path d="M21.934,12.848l-1.574-6.311c-0.205-0.823-0.75-1.53-1.491-1.938c-0.746-0.408-1.632-0.49-2.438-0.22L15.9,4.555c-0.291,0.097-0.448,0.412-0.352,0.703l0.176,0.527c0.098,0.291,0.412,0.448,0.702,0.352l0.459-0.153c0.378-0.125,0.798-0.124,1.15,0.06c0.358,0.187,0.61,0.505,0.708,0.896l1.335,5.341c-0.771-0.237-1.729-0.433-2.819-0.433c-1.208,0-2.568,0.244-3.986,0.929h-2.542c-1.419-0.687-2.78-0.929-3.988-0.929c-1.091,0-2.049,0.196-2.82,0.433L5.257,6.94c0.097-0.391,0.35-0.71,0.708-0.896c0.352-0.184,0.773-0.186,1.151-0.06l0.457,0.153c0.291,0.097,0.605-0.061,0.702-0.352l0.176-0.527C8.549,4.967,8.391,4.652,8.1,4.555L7.57,4.379c-0.806-0.271-1.692-0.188-2.437,0.22C4.39,5.007,3.845,5.713,3.64,6.536l-1.574,6.312C2.022,13.021,2,13.203,2,13.384v2.439c0,2.185,1.791,3.954,4,3.954h1.289c2.093,0,3.832-1.596,3.989-3.658l0.102-1.342h1.242l0.103,1.342c0.155,2.063,1.896,3.658,3.987,3.658H18c2.209,0,4-1.771,4-3.954v-2.438C22,13.203,21.979,13.021,21.934,12.848z"/>
</svg>
