<svg version="1.1" id="master" xmlns="http://www.w3.org/2000/svg" xmlns:xlink="http://www.w3.org/1999/xlink" x="0px" y="0px" width="24px" height="24px" viewBox="0 0 24 24" enable-background="new 0 0 24 24" xml:space="preserve">
<rect fill="none" width="24" height="24"/>
<path d="M22,6.687v3.696c0,0.435-0.074,0.858-0.222,1.27s-0.361,0.786-0.64,1.121c0.278,0.331,0.492,0.697,0.64,1.101S22,14.693,22,15.121v2.505c0,0.481-0.08,0.925-0.239,1.331c-0.159,0.405-0.378,0.77-0.656,1.091s-0.602,0.604-0.97,0.848s-0.761,0.448-1.179,0.613c-0.417,0.165-0.846,0.288-1.286,0.37C17.229,21.959,16.797,22,16.374,22c-0.389,0-0.784-0.033-1.188-0.1c-0.402-0.066-0.798-0.168-1.187-0.305s-0.758-0.307-1.108-0.514c-0.351-0.205-0.668-0.447-0.952-0.726s-0.525-0.591-0.722-0.938c-0.197-0.349-0.334-0.73-0.409-1.148c-0.417,0.156-0.854,0.234-1.313,0.234c-0.296,0-0.583-0.031-0.861-0.096c-0.278-0.063-0.548-0.162-0.809-0.295l-3.757-1.879c-0.324-0.162-0.614-0.36-0.869-0.596c-0.255-0.234-0.472-0.496-0.648-0.787c-0.177-0.289-0.313-0.601-0.408-0.934C2.048,13.584,2,13.238,2,12.879V9.191c0-0.168,0.026-0.336,0.078-0.504c0.053-0.168,0.123-0.326,0.213-0.474c0.09-0.147,0.199-0.282,0.326-0.404c0.128-0.122,0.267-0.22,0.418-0.295L13.661,2.2C13.928,2.067,14.206,2,14.496,2c0.295,0,0.576,0.067,0.843,0.2l5.626,2.809c0.313,0.156,0.564,0.388,0.753,0.696C21.906,6.012,22,6.339,22,6.687z M20.748,10.383V8.617c0-0.168-0.02-0.334-0.057-0.5c-0.038-0.165-0.089-0.326-0.152-0.482c-0.023,0.012-0.045,0.026-0.065,0.043c-0.02,0.018-0.045,0.032-0.073,0.043L9.782,13.035c-0.093,0.046-0.188,0.069-0.286,0.069c-0.059,0-0.148-0.023-0.27-0.069c-0.122-0.047-0.26-0.105-0.413-0.179c-0.154-0.072-0.317-0.151-0.492-0.239c-0.174-0.087-0.34-0.172-0.5-0.256c-0.159-0.084-0.304-0.161-0.435-0.23c-0.13-0.069-0.23-0.122-0.3-0.156L4.4,10.635c-0.163-0.081-0.329-0.157-0.5-0.226c-0.172-0.069-0.323-0.168-0.457-0.295c-0.127,0.29-0.191,0.603-0.191,0.939v1.827c0,0.486,0.122,0.927,0.365,1.321c0.244,0.394,0.583,0.701,1.018,0.921l3.748,1.87c0.359,0.18,0.73,0.27,1.113,0.27c0.202,0,0.394-0.021,0.573-0.065c0.18-0.043,0.362-0.111,0.548-0.204L12,16.305v-1.184c0-0.354,0.066-0.676,0.2-0.969c0.133-0.293,0.312-0.555,0.534-0.787c0.224-0.232,0.483-0.434,0.778-0.604c0.296-0.171,0.606-0.313,0.931-0.426c0.325-0.113,0.653-0.197,0.987-0.252C15.764,12.027,16.078,12,16.374,12c0.492,0,0.976,0.058,1.447,0.174c0.473,0.116,0.921,0.299,1.344,0.548c0.493-0.244,0.88-0.553,1.161-0.93S20.748,10.945,20.748,10.383z M7,7.939v1.87C7,9.896,7.03,9.97,7.092,10.03c0.061,0.061,0.135,0.091,0.222,0.091s0.16-0.03,0.222-0.091C7.596,9.97,7.626,9.896,7.626,9.809v-1.87c0-0.087-0.03-0.161-0.091-0.222C7.474,7.657,7.4,7.626,7.313,7.626S7.152,7.657,7.092,7.717C7.03,7.778,7,7.852,7,7.939z M10.122,6.687v3.748c0,0.087,0.03,0.161,0.091,0.222c0.061,0.061,0.135,0.091,0.222,0.091s0.161-0.031,0.222-0.091c0.062-0.061,0.092-0.135,0.092-0.222V6.687c0-0.087-0.03-0.161-0.092-0.222c-0.061-0.061-0.135-0.091-0.222-0.091s-0.161,0.03-0.222,0.091C10.152,6.526,10.122,6.6,10.122,6.687z M16.374,17.626c0.237,0,0.495-0.021,0.773-0.065c0.278-0.043,0.557-0.108,0.835-0.195s0.547-0.199,0.805-0.335s0.485-0.297,0.683-0.482s0.354-0.397,0.474-0.635s0.179-0.501,0.179-0.792c0-0.289-0.06-0.553-0.179-0.791c-0.119-0.237-0.278-0.449-0.479-0.635c-0.199-0.186-0.427-0.344-0.683-0.479c-0.255-0.133-0.521-0.242-0.8-0.33c-0.278-0.087-0.557-0.152-0.835-0.195s-0.536-0.065-0.773-0.065s-0.496,0.022-0.774,0.065s-0.556,0.108-0.834,0.195c-0.278,0.088-0.545,0.197-0.801,0.33c-0.255,0.135-0.482,0.293-0.683,0.479c-0.199,0.186-0.359,0.397-0.478,0.635c-0.119,0.238-0.179,0.502-0.179,0.791c0,0.291,0.06,0.555,0.179,0.792c0.118,0.237,0.276,0.449,0.474,0.635s0.425,0.347,0.683,0.482s0.526,0.248,0.805,0.335s0.556,0.152,0.834,0.195C15.878,17.604,16.137,17.626,16.374,17.626z M13.252,4.809v3.757c0,0.087,0.03,0.161,0.092,0.222c0.061,0.061,0.135,0.091,0.222,0.091c0.081,0,0.153-0.032,0.217-0.096c0.064-0.064,0.096-0.136,0.096-0.217V4.809c0-0.081-0.031-0.152-0.096-0.213c-0.063-0.061-0.136-0.091-0.217-0.091s-0.154,0.03-0.218,0.091S13.252,4.728,13.252,4.809z M16.374,13.879c0.18,0,0.378,0.022,0.596,0.068c0.217,0.047,0.422,0.121,0.613,0.223c0.19,0.102,0.351,0.23,0.478,0.387c0.128,0.156,0.191,0.345,0.191,0.564c0,0.221-0.063,0.41-0.191,0.57c-0.127,0.16-0.287,0.29-0.478,0.391c-0.191,0.102-0.396,0.176-0.613,0.223c-0.218,0.047-0.416,0.069-0.596,0.069s-0.378-0.022-0.596-0.069s-0.422-0.121-0.613-0.223c-0.191-0.101-0.351-0.23-0.479-0.391c-0.127-0.16-0.19-0.35-0.19-0.57c0-0.22,0.063-0.408,0.19-0.564c0.128-0.156,0.287-0.285,0.479-0.387s0.396-0.176,0.613-0.223C15.996,13.901,16.194,13.879,16.374,13.879z M16.374,5.435v1.878c0,0.087,0.03,0.161,0.091,0.222c0.062,0.061,0.135,0.091,0.222,0.091s0.161-0.03,0.223-0.091C16.97,7.474,17,7.4,17,7.313V5.435c0-0.081-0.032-0.153-0.096-0.217c-0.063-0.063-0.136-0.096-0.218-0.096c-0.081,0-0.153,0.032-0.217,0.096C16.406,5.281,16.374,5.354,16.374,5.435z M16.374,15.904c0.11,0,0.245-0.014,0.404-0.043s0.313-0.074,0.461-0.135c0.147-0.062,0.275-0.143,0.383-0.244c0.106-0.102,0.16-0.222,0.16-0.361c0-0.139-0.054-0.258-0.16-0.355c-0.107-0.1-0.235-0.179-0.383-0.24c-0.147-0.061-0.303-0.105-0.466-0.135c-0.162-0.028-0.295-0.043-0.399-0.043V15.904z"/>
</svg>
