<svg version="1.1" id="master" xmlns="http://www.w3.org/2000/svg" xmlns:xlink="http://www.w3.org/1999/xlink" x="0px" y="0px" width="24px" height="24px" viewBox="0 0 24 24" enable-background="new 0 0 24 24" xml:space="preserve">
<rect fill="none" width="24" height="24"/>
<path d="M12,2c-1.248,0-2.291,0.804-2.707,1.808c-0.148,0.375-0.216,0.777-0.198,1.18C8.823,4.691,8.491,4.455,8.122,4.293C7.735,4.136,7.319,4.063,6.902,4.08C6.161,4.103,5.456,4.407,4.93,4.93C4.047,5.812,3.877,7.118,4.293,8.122c0.149,0.36,0.392,0.684,0.683,0.962c-0.399-0.011-0.797,0.06-1.168,0.21C2.804,9.709,2,10.751,2,12c0,1.248,0.804,2.291,1.808,2.707c0.364,0.15,0.77,0.208,1.179,0.196c-0.298,0.282-0.542,0.61-0.693,0.976c-0.416,1.004-0.246,2.31,0.637,3.191c0.881,0.883,2.188,1.053,3.191,0.637c0.364-0.151,0.692-0.396,0.974-0.693c-0.012,0.408,0.047,0.814,0.198,1.178C9.709,21.195,10.752,22,12,22s2.291-0.805,2.707-1.809c0.148-0.375,0.215-0.777,0.197-1.18c0.282,0.297,0.609,0.544,0.975,0.695c1.004,0.416,2.31,0.246,3.191-0.637c0.883-0.882,1.053-2.188,0.637-3.191c-0.162-0.37-0.398-0.701-0.695-0.975c0.402,0.018,0.805-0.049,1.18-0.197C21.195,14.291,22,13.248,22,12c0-1.248-0.805-2.291-1.809-2.707c-0.375-0.147-0.775-0.214-1.178-0.197c0.297-0.282,0.541-0.61,0.693-0.975c0.416-1.004,0.246-2.31-0.637-3.191c-0.526-0.523-1.231-0.827-1.973-0.85c-0.417-0.017-0.833,0.056-1.219,0.213c-0.365,0.151-0.692,0.396-0.975,0.693c0.018-0.402-0.05-0.804-0.197-1.179C14.291,2.804,13.248,2,12,2z M11.966,3.344c0.875-0.019,1.601,0.675,1.619,1.55c0.01,0.432-0.157,0.85-0.464,1.155v3.244L15.415,7c0-0.875,0.71-1.585,1.585-1.585S18.585,6.125,18.585,7S17.875,8.585,17,8.585l0,0l-2.293,2.293h3.244c0.619-0.619,1.623-0.618,2.241,0.001c0.618,0.62,0.618,1.623-0.002,2.241c-0.618,0.618-1.62,0.618-2.239,0h-3.244L17,15.415c0.875,0,1.585,0.71,1.585,1.585s-0.71,1.585-1.585,1.585s-1.585-0.71-1.585-1.585l0,0l-2.294-2.293v3.244c0.619,0.619,0.618,1.623-0.001,2.241c-0.62,0.618-1.623,0.618-2.241-0.002c-0.618-0.618-0.618-1.62,0-2.239v-3.244L8.585,17c0,0.875-0.709,1.585-1.585,1.585S5.415,17.875,5.415,17S6.125,15.415,7,15.415l0,0l2.293-2.294H6.049c-0.62,0.619-1.623,0.618-2.242-0.001C3.189,12.5,3.19,11.497,3.81,10.878c0.619-0.618,1.621-0.618,2.24,0h3.244L7,8.585C6.125,8.585,5.415,7.875,5.415,7S6.125,5.415,7,5.415S8.585,6.125,8.585,7l0,0l2.294,2.293V6.049c-0.619-0.619-0.619-1.623,0-2.242C11.168,3.519,11.558,3.353,11.966,3.344z"/>
</svg>
