<svg version="1.1" id="master" xmlns="http://www.w3.org/2000/svg" xmlns:xlink="http://www.w3.org/1999/xlink" x="0px" y="0px"
	 width="24px" height="24px" viewBox="0 0 24 24" enable-background="new 0 0 24 24" xml:space="preserve">
<rect fill="none" width="24" height="24"/>
<path d="M11.961,2c1.011-0.021,1.849,0.78,1.87,1.791c0.013,0.499-0.182,0.982-0.536,1.334v3.748l2.65-2.649
	c0-1.011,0.82-1.831,1.831-1.831s1.831,0.82,1.831,1.831c0,1.011-0.82,1.831-1.831,1.831l0,0l-2.648,2.649h3.748
	c0.715-0.715,1.875-0.714,2.588,0.001c0.715,0.716,0.715,1.875-0.003,2.589c-0.713,0.715-1.87,0.715-2.585,0h-3.748l2.648,2.651
	c1.011,0,1.831,0.82,1.831,1.831s-0.82,1.831-1.831,1.831s-1.831-0.82-1.831-1.831l0,0l-2.65-2.648v3.748
	c0.716,0.715,0.715,1.875-0.001,2.588c-0.716,0.715-1.875,0.715-2.589-0.002c-0.714-0.714-0.714-1.871,0-2.586v-3.748l-2.65,2.648
	c0,1.011-0.819,1.831-1.831,1.831c-1.012,0-1.832-0.82-1.832-1.831s0.82-1.831,1.832-1.831l0,0l2.649-2.65H5.125
	c-0.716,0.716-1.875,0.715-2.59-0.001c-0.714-0.716-0.713-1.875,0.003-2.591c0.715-0.714,1.873-0.714,2.587,0h3.748l-2.65-2.649
	c-1.011,0-1.832-0.82-1.832-1.831c0-1.011,0.82-1.831,1.832-1.831c1.011,0,1.831,0.82,1.831,1.831l0,0l2.65,2.649V5.125
	c-0.715-0.715-0.715-1.875,0-2.59C11.039,2.202,11.49,2.011,11.961,2z"/>
</svg>
