<svg version="1.1" id="master" xmlns="http://www.w3.org/2000/svg" xmlns:xlink="http://www.w3.org/1999/xlink" x="0px" y="0px" width="24px" height="24px" viewBox="0 0 24 24" enable-background="new 0 0 24 24" xml:space="preserve">
<rect fill="none" width="24" height="24"/>
<path d="M11.293,2l-0.225,1.233c-0.537,0.057-1.059,0.162-1.563,0.311L8.827,2.491L7.52,3.033l0.265,1.224C7.316,4.513,6.874,4.81,6.46,5.144L5.429,4.429l-1,1l0.714,1.032C4.81,6.874,4.513,7.316,4.257,7.785L3.032,7.52L2.49,8.826l1.054,0.679c-0.15,0.511-0.254,1.034-0.31,1.563L2,11.293v1.414l1.233,0.225c0.058,0.537,0.162,1.059,0.311,1.563l-1.053,0.679l0.542,1.307l1.224-0.266c0.256,0.469,0.553,0.912,0.887,1.325l-0.714,1.03l1,1l1.032-0.714c0.413,0.333,0.855,0.631,1.324,0.887L7.52,20.969l1.307,0.541l0.678-1.053c0.504,0.148,1.027,0.252,1.564,0.309L11.293,22h1.414l0.225-1.233c0.529-0.056,1.053-0.159,1.563-0.31l0.679,1.053l1.307-0.543l-0.266-1.224c0.468-0.255,0.911-0.552,1.325-0.887l1.03,0.714l1-1l-0.714-1.031c0.333-0.412,0.631-0.855,0.887-1.324l1.226,0.266l0.541-1.307l-1.053-0.679c0.148-0.505,0.253-1.026,0.309-1.564L22,12.707v-1.414l-1.233-0.225c-0.056-0.529-0.16-1.053-0.311-1.563l1.054-0.679L20.967,7.52l-1.224,0.265c-0.255-0.468-0.552-0.911-0.887-1.325l0.714-1.031l-1-1l-1.031,0.714c-0.412-0.333-0.855-0.631-1.324-0.887l0.266-1.225L15.174,2.49l-0.679,1.053c-0.511-0.15-1.034-0.254-1.564-0.309L12.707,2H11.293z M12,4.337c4.232,0,7.663,3.431,7.663,7.664S16.232,19.664,12,19.664s-7.663-3.431-7.663-7.663S7.768,4.337,12,4.337z M12,5.144c-3.786-0.001-6.857,3.067-6.858,6.854c-0.001,3.787,3.067,6.857,6.854,6.858c0.001,0,0.003,0,0.005,0c3.786,0,6.855-3.07,6.854-6.857C18.854,8.213,15.785,5.145,12,5.144z M11.604,6.796c0.296,0,0.537,0.24,0.537,0.536c0,0.123-0.042,0.242-0.12,0.337l1.137,1.147c0.119-0.101,0.271-0.156,0.428-0.156c0.064,0,0.129,0.01,0.191,0.028l0.319-0.807c-0.176-0.093-0.286-0.275-0.286-0.474c0.001-0.296,0.24-0.536,0.537-0.536c0.296,0,0.536,0.24,0.537,0.536c0,0.296-0.24,0.537-0.537,0.537l0,0c-0.048,0-0.096-0.007-0.142-0.02l-0.32,0.808c0.227,0.113,0.37,0.345,0.371,0.599c0,0.37-0.3,0.67-0.671,0.67l0,0c-0.179,0-0.35-0.071-0.475-0.198l-1.012,0.844c0.178,0.233,0.275,0.519,0.276,0.813c0,0.361-0.146,0.708-0.405,0.96l0.729,0.816c0.166-0.131,0.371-0.202,0.582-0.202c0.519,0.001,0.938,0.421,0.939,0.938c-0.001,0.074-0.01,0.148-0.028,0.22l1.297,0.437c0.11-0.236,0.347-0.388,0.607-0.389c0.37,0.001,0.67,0.301,0.67,0.672c-0.001,0.369-0.3,0.669-0.67,0.67c-0.37,0-0.671-0.301-0.671-0.67c0-0.059,0.008-0.117,0.023-0.174l-1.291-0.434c-0.139,0.365-0.486,0.605-0.877,0.607c-0.152,0-0.303-0.038-0.438-0.109l-0.581,1.073c0.188,0.124,0.301,0.333,0.301,0.558c0.001,0.371-0.299,0.672-0.669,0.672s-0.671-0.3-0.671-0.67l0,0c0-0.371,0.3-0.672,0.671-0.672c0.091,0,0.182,0.02,0.266,0.056l0.583-1.079c-0.251-0.175-0.401-0.461-0.402-0.768c0-0.246,0.097-0.482,0.269-0.658l-0.729-0.817c-0.239,0.196-0.539,0.303-0.848,0.303c-0.262,0-0.518-0.077-0.736-0.221l-0.65,0.901c0.217,0.179,0.344,0.444,0.344,0.726c0,0.519-0.42,0.939-0.939,0.939c-0.519,0-0.939-0.421-0.939-0.939c0-0.519,0.421-0.938,0.939-0.938c0.177,0,0.351,0.05,0.5,0.145l0.65-0.902c-0.322-0.254-0.51-0.641-0.511-1.051c0.001-0.104,0.013-0.206,0.038-0.307l-1.4-0.394c-0.099,0.26-0.347,0.432-0.625,0.433c-0.37,0-0.67-0.3-0.671-0.67c0-0.37,0.3-0.67,0.67-0.671c0.371,0,0.671,0.3,0.671,0.671c0,0.042-0.004,0.084-0.012,0.125l1.397,0.393c0.181-0.55,0.695-0.921,1.273-0.922c0.377,0.001,0.736,0.16,0.99,0.439l1.011-0.844c-0.078-0.112-0.119-0.246-0.12-0.382c0-0.159,0.056-0.313,0.158-0.434l-1.135-1.146c-0.095,0.076-0.213,0.117-0.334,0.117c-0.296,0-0.537-0.24-0.537-0.537l0,0C11.068,7.036,11.308,6.796,11.604,6.796z"/>
</svg>
