<svg version="1.1" id="master" xmlns="http://www.w3.org/2000/svg" xmlns:xlink="http://www.w3.org/1999/xlink" x="0px" y="0px" width="24px" height="24px" viewBox="0 0 24 24" enable-background="new 0 0 24 24" xml:space="preserve">
<rect fill="none" width="24" height="24"/>
<path d="M17.4,8.215v0.615h-0.678v0.616h-0.615v0.615h-0.055c0.557,0.906,0.893,1.965,0.885,3.106c-0.018,3.264-2.676,5.895-5.937,5.877c-3.263-0.018-5.894-2.676-5.877-5.938C5.141,9.87,7.763,7.249,11,7.231h0.062c1.192,0.006,2.297,0.372,3.223,0.984h0.593V7.54h0.615V6.923h0.614V6.309h0.615V6.296c-1.521-1.255-3.473-2.012-5.599-2.02h-0.062C6.167,4.293,2.214,8.274,2.23,13.168c0.017,4.896,3.998,8.848,8.892,8.831c4.895-0.019,8.848-3.997,8.831-8.894c-0.008-2.077-0.735-3.983-1.938-5.491v0.6L17.4,8.215L17.4,8.215z M21.154,2h0.615v0.615h-0.615V2z M21.154,3.231h0.615v0.615h-0.615V3.231z M19.861,4.461h0.615v0.616h-0.615V4.461z M19.246,3.847h-0.615v1.231h0.615V4.461h0.615V3.847h0.615V3.231h-1.23V3.847z M18.016,5.078h0.615v0.615h-0.615V5.078z M17.4,4.461h0.615v0.616H17.4V4.461z M19.246,5.078h0.615v0.615h-0.615V5.078z M14.262,8.832h-0.615c-1.661,2.031-2.03,2.893-2.707,4.553c-0.738-1.476-1.6-2.522-3.139-3.199c-0.246-0.062-0.431-0.123-0.615,0.185C7,10.617,7.124,10.862,7.371,11.17c0.616,0.738,1.292,1.476,1.723,2.337c0.615,0.984,1.292,2.646,1.539,3.077c0.185,0.308,0.615,0.492,0.8,0.492c0.923-0.123,0.923-0.615,1.046-1.416c0.308-1.292,0.678-2.707,2.399-4.369v-0.616h0.615v-0.615h0.562c-0.451-0.736-1.05-1.369-1.77-1.846h-0.021v0.616H14.262z M20.477,2.616h0.678v0.616h-0.678V2.616z M18.631,6.309h-0.615V5.692h-1.293v0.604c0.479,0.393,0.907,0.837,1.293,1.319V7.54h0.615V6.923h0.615v-1.23h-0.615V6.309z"/>
</svg>
