<svg version="1.1" id="master" xmlns="http://www.w3.org/2000/svg" xmlns:xlink="http://www.w3.org/1999/xlink" x="0px" y="0px" width="24px" height="24px" viewBox="0 0 24 24" enable-background="new 0 0 24 24" xml:space="preserve">
<rect fill="none" width="24" height="24"/>
<path d="M17.833,2H6.166C5.017,2,4.083,2.934,4.083,4.083v15.833C4.083,21.066,5.017,22,6.166,22h11.667c1.15,0,2.084-0.934,2.084-2.083V4.083C19.917,2.934,18.983,2,17.833,2z M12,21.167c-0.692,0-1.25-0.559-1.25-1.25c0-0.692,0.558-1.25,1.25-1.25c0.691,0,1.25,0.558,1.25,1.25C13.25,20.608,12.691,21.167,12,21.167z M18.25,17.833H5.75V4.5h12.5V17.833z"/>
</svg>
