<svg version="1.1" id="master" xmlns="http://www.w3.org/2000/svg" xmlns:xlink="http://www.w3.org/1999/xlink" x="0px" y="0px" width="24px" height="24px" viewBox="0 0 24 24" enable-background="new 0 0 24 24" xml:space="preserve">
<rect fill="none" width="24" height="24"/>
<path d="M11.493,7.502C11.351,7.359,11.279,7.192,11.279,7V2.716c0-0.199,0.069-0.368,0.209-0.507C11.627,2.07,11.796,2,11.995,2c0.198,0,0.368,0.07,0.507,0.209c0.14,0.139,0.209,0.308,0.209,0.507V7c0,0.199-0.069,0.368-0.209,0.507c-0.139,0.139-0.309,0.209-0.507,0.209C11.803,7.716,11.636,7.645,11.493,7.502z M20.33,11.404c0.162,0.656,0.243,1.332,0.243,2.028c0,0.788-0.103,1.547-0.308,2.276c-0.206,0.729-0.494,1.411-0.865,2.048c-0.371,0.636-0.818,1.214-1.342,1.734s-1.104,0.966-1.739,1.337c-0.637,0.371-1.319,0.659-2.048,0.864C13.542,21.897,12.783,22,11.995,22c-0.789,0-1.548-0.103-2.276-0.309c-0.729-0.205-1.411-0.493-2.048-0.864c-0.636-0.371-1.214-0.816-1.734-1.337S4.971,18.392,4.6,17.756c-0.371-0.637-0.659-1.319-0.865-2.048c-0.205-0.729-0.308-1.488-0.308-2.276c0-0.637,0.069-1.259,0.208-1.869c0.14-0.609,0.34-1.196,0.602-1.759C4.498,9.24,4.819,8.71,5.201,8.213c0.381-0.497,0.813-0.951,1.297-1.362C6.896,6.95,7.3,7,7.711,7h2.853c0,0.199,0.038,0.384,0.114,0.557s0.179,0.323,0.309,0.452c0.129,0.129,0.279,0.232,0.452,0.308c0.172,0.076,0.357,0.115,0.557,0.115c0.198,0,0.384-0.039,0.557-0.115c0.172-0.076,0.323-0.179,0.452-0.308c0.129-0.129,0.232-0.28,0.309-0.452S13.427,7.199,13.427,7V4.972c0.688,0.113,1.344,0.303,1.963,0.572c0.62,0.268,1.194,0.6,1.725,0.994c0.53,0.395,1.009,0.845,1.437,1.352s0.79,1.055,1.089,1.645C19.938,10.125,20.168,10.748,20.33,11.404z M6.046,5.946c0.521,0.226,1.075,0.338,1.665,0.338h2.853V3.093c-0.02-0.033-0.046-0.061-0.079-0.084c-0.033-0.023-0.066-0.048-0.1-0.074c-0.212-0.153-0.421-0.287-0.626-0.403C9.553,2.416,9.343,2.318,9.127,2.239C8.912,2.159,8.688,2.1,8.456,2.06C8.225,2.02,7.976,2,7.711,2H3.427c0,0.59,0.112,1.145,0.338,1.665c0.225,0.521,0.531,0.974,0.919,1.362S5.525,5.721,6.046,5.946z"/>
</svg>
