<svg version="1.1" id="master" xmlns="http://www.w3.org/2000/svg" xmlns:xlink="http://www.w3.org/1999/xlink" x="0px" y="0px" width="24px" height="24px" viewBox="0 0 24 24" enable-background="new 0 0 24 24" xml:space="preserve">
<rect fill="none" width="24" height="24"/>
<path d="M13.74,13.25l3.75,7.5h-1.25l-2.5-5V22h-1.25v-7.5l-2.5,6.25H8.74l2.5-6.25L13.74,13.25z M12.49,2h-1.25v1.25h1.25V2z M9.99,5.75H8.74V7h1.25V5.75z M6.24,3.25H4.99V4.5h1.25V3.25z M4.528,13.25c-0.269,0.188-0.354,0.548-0.2,0.838l0.688,1.149c0.162,0.288,0.512,0.388,0.799,0.25l1.738-0.825l-1.45-2.5l-1.587,1.076L4.528,13.25z M14.391,6.512l-7.25,4.938l1.538,2.675l7.913-3.788l-2.213-3.825H14.391z M19.666,8.113l-1.838-3.15c-0.177-0.305-0.567-0.407-0.872-0.23c-0.009,0.006-0.019,0.012-0.027,0.018l-1.501,1.037l2.301,4l1.662-0.8C19.728,8.825,19.842,8.438,19.666,8.113z"/>
</svg>
