<svg version="1.1" id="master" xmlns="http://www.w3.org/2000/svg" xmlns:xlink="http://www.w3.org/1999/xlink" x="0px" y="0px" width="24px" height="24px" viewBox="0 0 24 24" enable-background="new 0 0 24 24" xml:space="preserve">
<rect fill="none" width="24" height="24"/>
<path d="M17,4.105H7c-2.761,0-5,2.356-5,5.263v5.263c0,2.906,2.239,5.263,5,5.263h10c2.762,0,5-2.356,5-5.263V9.369C22,6.462,19.762,4.105,17,4.105z M12,4.631c3.068,0,5.698,1.876,6.807,4.544H5.193C6.302,6.508,8.931,4.631,12,4.631z M12,19.368c-3.095,0-5.743-1.909-6.834-4.614h13.668C17.743,17.459,15.096,19.368,12,19.368z M19.057,14.123H4.943C4.742,13.45,4.632,12.738,4.632,12c0-0.764,0.116-1.5,0.332-2.193h14.073c0.216,0.692,0.332,1.429,0.332,2.193C19.368,12.738,19.259,13.45,19.057,14.123z"/>
</svg>
