<svg version="1.1" id="master" xmlns="http://www.w3.org/2000/svg" xmlns:xlink="http://www.w3.org/1999/xlink" x="0px" y="0px"
	 width="24px" height="24px" viewBox="0 0 24 24" enable-background="new 0 0 24 24" xml:space="preserve">
<rect fill="none" width="24" height="24"/>
<path d="M18.576,15.748L5.753,2.924C5.761,2.413,6.175,2,6.688,2h10.625c0.518,0,0.938,0.42,0.938,0.938v1.874
	c0,0.518-0.42,0.938-0.938,0.938h-1.648l0.479,4.62c1.875,0.872,3.357,2.442,3.36,4.442C19.503,15.326,19.089,15.74,18.576,15.748z
	 M20.586,20.586L3.414,3.414L2,4.828l5.652,5.652C5.86,11.376,4.5,12.904,4.5,14.813c0,0.519,0.42,0.938,0.938,0.938h5.313v4.063
	c0,0.049,0.011,0.097,0.033,0.14l0.938,1.875c0.115,0.229,0.444,0.229,0.56,0l0.938-1.875c0.021-0.043,0.031-0.091,0.031-0.14V16.08
	l5.92,5.92L20.586,20.586z"/>
</svg>
