<svg version="1.1" id="master" xmlns="http://www.w3.org/2000/svg" xmlns:xlink="http://www.w3.org/1999/xlink" x="0px" y="0px" width="24px" height="24px" viewBox="0 0 24 24" enable-background="new 0 0 24 24" xml:space="preserve">
<rect fill="none" width="24" height="24"/>
<path d="M3.073,20.216c0.146,0,0.285-0.028,0.418-0.085c0.133-0.056,0.245-0.134,0.338-0.233s0.167-0.214,0.224-0.343s0.084-0.267,0.084-0.412v-1.779c-0.265,0.132-0.524,0.272-0.78,0.422c-0.255,0.149-0.519,0.287-0.79,0.413c-0.172,0.093-0.31,0.224-0.412,0.393S2,18.943,2,19.143c0,0.152,0.028,0.293,0.085,0.422c0.056,0.129,0.132,0.242,0.229,0.338c0.096,0.097,0.208,0.173,0.338,0.229C2.78,20.188,2.921,20.216,3.073,20.216z M7,7.363c-0.49,0-0.952,0.094-1.387,0.283C5.18,7.835,4.8,8.09,4.476,8.412C4.15,8.733,3.896,9.111,3.71,9.545s-0.278,0.896-0.278,1.387c0,0.497,0.093,0.96,0.278,1.392c0.186,0.431,0.44,0.808,0.766,1.133c0.324,0.325,0.702,0.58,1.133,0.766S6.503,14.5,7,14.5h2.058c0.298-0.604,0.593-1.201,0.885-1.795c0.292-0.592,0.593-1.184,0.904-1.773h3.738l-1.432,2.853h3.429L15.867,14.5h3.28c0.391,0,0.76-0.074,1.108-0.224c0.348-0.149,0.65-0.353,0.909-0.611s0.462-0.562,0.611-0.909C21.926,12.408,22,12.038,22,11.647c0-0.391-0.074-0.76-0.224-1.108c-0.149-0.348-0.353-0.651-0.611-0.909c-0.259-0.259-0.562-0.464-0.909-0.617c-0.349-0.152-0.718-0.229-1.108-0.229h-0.716c0-0.689-0.131-1.337-0.393-1.943s-0.62-1.136-1.074-1.59c-0.453-0.454-0.983-0.812-1.59-1.074c-0.606-0.262-1.254-0.393-1.943-0.393c-0.59,0-1.151,0.096-1.686,0.289c-0.533,0.192-1.017,0.462-1.451,0.81C9.861,5.23,9.492,5.645,9.187,6.125c-0.305,0.48-0.52,1.009-0.646,1.585C8.057,7.479,7.543,7.363,7,7.363z M4.853,16.289c0,0.152,0.028,0.293,0.085,0.423c0.057,0.129,0.133,0.241,0.229,0.338c0.096,0.096,0.209,0.172,0.338,0.229s0.271,0.085,0.423,0.085c0.146,0,0.284-0.028,0.417-0.085s0.247-0.133,0.343-0.229c0.097-0.097,0.173-0.209,0.229-0.338C6.972,16.582,7,16.441,7,16.289v-1.073c-0.186,0-0.368-0.011-0.547-0.03s-0.357-0.057-0.537-0.109L5.43,15.335c-0.173,0.093-0.312,0.226-0.418,0.397C4.906,15.905,4.853,16.091,4.853,16.289z M5.568,19.143c0,0.152,0.028,0.293,0.085,0.422c0.056,0.129,0.132,0.242,0.229,0.338c0.096,0.097,0.209,0.173,0.338,0.229c0.129,0.057,0.27,0.085,0.423,0.085c0.146,0,0.283-0.028,0.412-0.085c0.129-0.056,0.243-0.134,0.343-0.233s0.178-0.214,0.233-0.343c0.057-0.129,0.085-0.267,0.085-0.412v-1.779l-1.57,0.835c-0.173,0.093-0.312,0.224-0.418,0.393C5.622,18.76,5.568,18.943,5.568,19.143z M8.789,16.647h2.138l-1.79,3.568l5.716-5.716H12l1.432-2.853h-2.147c-0.417,0.835-0.833,1.667-1.247,2.496S9.207,15.806,8.789,16.647z M13.789,20.216c0.146,0,0.285-0.028,0.418-0.085c0.132-0.056,0.245-0.134,0.338-0.233s0.167-0.214,0.224-0.343s0.084-0.267,0.084-0.412v-1.779l-1.561,0.835c-0.179,0.093-0.319,0.222-0.422,0.388c-0.104,0.165-0.154,0.351-0.154,0.557c0,0.152,0.028,0.293,0.084,0.422c0.057,0.129,0.133,0.242,0.229,0.338c0.096,0.097,0.208,0.173,0.338,0.229C13.496,20.188,13.637,20.216,13.789,20.216z M15.568,16.289c0,0.146,0.028,0.283,0.085,0.413c0.056,0.129,0.134,0.243,0.233,0.343s0.214,0.177,0.343,0.233s0.267,0.085,0.413,0.085c0.146,0,0.284-0.028,0.417-0.085s0.247-0.133,0.343-0.229c0.097-0.097,0.173-0.209,0.229-0.338c0.057-0.13,0.085-0.271,0.085-0.423v-1.073h-1.342l-0.229,0.119c-0.173,0.093-0.312,0.226-0.418,0.397C15.622,15.905,15.568,16.091,15.568,16.289z M18.432,19.143v-1.779l-1.571,0.835c-0.172,0.093-0.311,0.224-0.417,0.393s-0.159,0.353-0.159,0.552c0,0.152,0.028,0.293,0.085,0.422c0.056,0.129,0.132,0.242,0.229,0.338c0.096,0.097,0.209,0.173,0.338,0.229c0.129,0.057,0.27,0.085,0.422,0.085c0.146,0,0.285-0.028,0.418-0.085c0.133-0.056,0.247-0.132,0.343-0.229c0.097-0.096,0.173-0.209,0.229-0.338C18.403,19.436,18.432,19.295,18.432,19.143z"/>
</svg>
