<svg version="1.1" id="master" xmlns="http://www.w3.org/2000/svg" xmlns:xlink="http://www.w3.org/1999/xlink" x="0px" y="0px" width="24px" height="24px" viewBox="0 0 24 24" enable-background="new 0 0 24 24" xml:space="preserve">
<rect fill="none" width="24" height="24"/>
<path d="M21.886,6.443c-0.076-0.172-0.179-0.323-0.309-0.452c-0.129-0.129-0.279-0.232-0.452-0.309c-0.172-0.076-0.357-0.114-0.557-0.114H17l-0.904,1.203c-0.06,0.079-0.14,0.138-0.239,0.174C15.758,6.981,15.661,7,15.568,7s-0.187-0.02-0.283-0.06c-0.096-0.04-0.174-0.1-0.233-0.179l-0.904-1.193H3.422c-0.199,0-0.385,0.038-0.557,0.114c-0.173,0.076-0.323,0.18-0.453,0.309C2.283,6.12,2.183,6.271,2.109,6.443C2.036,6.616,2,6.801,2,7v10c0,0.199,0.036,0.385,0.109,0.557c0.073,0.173,0.174,0.323,0.303,0.452c0.13,0.13,0.28,0.232,0.453,0.309c0.172,0.076,0.357,0.114,0.557,0.114h10.726l0.904-1.193c0.06-0.079,0.136-0.139,0.229-0.179S15.469,17,15.568,17c0.093,0,0.189,0.021,0.288,0.064c0.1,0.043,0.18,0.102,0.239,0.174L17,18.432h3.568c0.199,0,0.385-0.036,0.557-0.109c0.173-0.073,0.323-0.174,0.452-0.304c0.13-0.129,0.232-0.281,0.309-0.457S22,17.199,22,17V7C22,6.801,21.962,6.616,21.886,6.443z M12.502,14.649c-0.143,0.143-0.31,0.214-0.502,0.214H4.137c-0.191,0-0.359-0.071-0.502-0.214c-0.142-0.143-0.213-0.31-0.213-0.502s0.071-0.359,0.213-0.502c0.143-0.143,0.311-0.214,0.502-0.214H12c0.199,0,0.368,0.069,0.507,0.209c0.14,0.139,0.209,0.308,0.209,0.507C12.716,14.34,12.645,14.507,12.502,14.649z M3.422,11.284c0-0.192,0.071-0.359,0.213-0.502c0.143-0.143,0.311-0.214,0.502-0.214h5.716c0.199,0,0.368,0.07,0.507,0.209c0.14,0.14,0.209,0.309,0.209,0.507c0,0.199-0.069,0.368-0.209,0.507C10.221,11.931,10.052,12,9.853,12H4.137c-0.191,0-0.359-0.071-0.502-0.214C3.493,11.644,3.422,11.477,3.422,11.284z M12.502,8.934C12.359,9.076,12.192,9.147,12,9.147H4.137c-0.191,0-0.359-0.071-0.502-0.214c-0.142-0.143-0.213-0.31-0.213-0.502S3.493,8.072,3.635,7.93c0.143-0.143,0.311-0.214,0.502-0.214H12c0.199,0,0.368,0.069,0.507,0.209c0.14,0.139,0.209,0.308,0.209,0.507C12.716,8.624,12.645,8.791,12.502,8.934z M16.07,15.359c-0.143,0.14-0.31,0.209-0.502,0.209s-0.359-0.069-0.502-0.209c-0.143-0.139-0.214-0.305-0.214-0.496c0-0.192,0.071-0.359,0.214-0.502s0.31-0.214,0.502-0.214c0.199,0,0.368,0.069,0.507,0.208c0.14,0.14,0.209,0.309,0.209,0.508C16.284,15.055,16.213,15.221,16.07,15.359z M16.075,12.507c-0.139,0.14-0.308,0.209-0.507,0.209c-0.192,0-0.359-0.071-0.502-0.214s-0.214-0.31-0.214-0.502s0.071-0.359,0.214-0.502s0.31-0.214,0.502-0.214c0.199,0,0.368,0.069,0.507,0.209c0.14,0.139,0.209,0.308,0.209,0.507S16.215,12.368,16.075,12.507z M16.07,9.645c-0.143,0.139-0.31,0.208-0.502,0.208s-0.359-0.069-0.502-0.208c-0.143-0.14-0.214-0.305-0.214-0.497s0.071-0.359,0.214-0.502s0.31-0.214,0.502-0.214c0.199,0,0.368,0.069,0.507,0.209c0.14,0.139,0.209,0.308,0.209,0.507C16.284,9.34,16.213,9.505,16.07,9.645z M20.359,16.07c-0.139,0.143-0.305,0.214-0.496,0.214h-1.432c-0.199,0-0.368-0.069-0.507-0.209c-0.14-0.139-0.209-0.308-0.209-0.507c0-0.192,0.071-0.357,0.214-0.497c0.143-0.139,0.31-0.208,0.502-0.208h1.432c0.191,0,0.357,0.069,0.496,0.208c0.14,0.14,0.209,0.305,0.209,0.497S20.499,15.928,20.359,16.07z M20.568,12.716c0,0.192-0.069,0.359-0.209,0.502c-0.139,0.143-0.305,0.214-0.496,0.214h-1.432c-0.199,0-0.368-0.069-0.507-0.209c-0.14-0.139-0.209-0.309-0.209-0.507V8.432c0-0.199,0.069-0.368,0.209-0.507c0.139-0.14,0.308-0.209,0.507-0.209h1.432c0.191,0,0.357,0.071,0.496,0.214c0.14,0.143,0.209,0.31,0.209,0.502V12.716z"/>
</svg>
