<svg version="1.1" id="master" xmlns="http://www.w3.org/2000/svg" xmlns:xlink="http://www.w3.org/1999/xlink" x="0px" y="0px"
	 width="24px" height="24px" viewBox="0 0 24 24" enable-background="new 0 0 24 24" xml:space="preserve">
<rect fill="none" width="24" height="24"/>
<path d="M9.924,7.095L8.459,5.63C9.539,5.138,10.736,4.857,12,4.857c2.02,0,3.877,0.705,5.352,1.884l1.354-1.352
	c0.486,0.4,0.934,0.857,1.343,1.343l-1.354,1.353c1.174,1.468,1.877,3.323,1.877,5.345c0,1.264-0.28,2.459-0.771,3.541l-1.466-1.467
	c0.214-0.652,0.333-1.35,0.333-2.074c0-3.687-2.981-6.667-6.667-6.667C11.274,6.762,10.578,6.881,9.924,7.095z M14.857,2H9.143
	v1.905h5.714V2z M12.952,10.123V8.667h-1.456L12.952,10.123z M19.171,22l-1.857-1.857C15.855,21.302,14.014,22,12,22
	c-4.743,0-8.57-3.838-8.57-8.57c0-2.01,0.698-3.853,1.858-5.313L2,4.829l1.414-1.415l3.287,3.287l0,0l1.358,1.357c0,0,0,0,0,0
	l2.989,2.99v-0.001l1.904,1.904v0.002l4.418,4.418l0.001-0.001l1.357,1.358l0,0l1.856,1.857L19.171,22z M15.952,18.781l-4.4-4.4
	h-0.504v-0.504l-4.4-4.4c-0.821,1.106-1.315,2.468-1.315,3.953c0,3.687,2.981,6.666,6.667,6.666
	C13.484,20.096,14.846,19.602,15.952,18.781z"/>
</svg>
