<svg version="1.1" id="master" xmlns="http://www.w3.org/2000/svg" xmlns:xlink="http://www.w3.org/1999/xlink" x="0px" y="0px"
	 width="24px" height="24px" viewBox="0 0 24 24" enable-background="new 0 0 24 24" xml:space="preserve">
<rect fill="none" width="24" height="24"/>
<path d="M9.764,9.876c0.038,0.061,0.103,0.1,0.177,0.1c0.05,0,0.097-0.018,0.132-0.047l0.012-0.01
	c0.325-0.271,0.618-0.55,0.893-0.848c2.675-2.902,1.112-6.466,1.1-6.499c-0.075-0.175-0.024-0.382,0.125-0.495
	c0.163-0.112,0.362-0.1,0.512,0.028c9.063,8.428,6.663,14.849,6.487,15.28c-0.725,2.618-3.611,4.512-7.036,4.608
	C12.051,22,11.964,22,11.863,22c-4.043,0-7.481-2.491-7.481-5.672v-0.051c0-4.414,3.996-8.768,4.174-8.953
	C8.67,7.2,8.844,7.162,8.994,7.237C9.145,7.3,9.242,7.449,9.237,7.612c-0.036,0.864,0.139,1.613,0.526,2.25v0.012L9.764,9.876z"/>
</svg>
