<svg version="1.1" id="master" xmlns="http://www.w3.org/2000/svg" xmlns:xlink="http://www.w3.org/1999/xlink" x="0px" y="0px"
	 width="24px" height="24px" viewBox="0 0 24 24" enable-background="new 0 0 24 24" xml:space="preserve">
<rect fill="none" width="24" height="24"/>
<path d="M12,2C6.478,2,2,6.475,2,12c0,5.525,4.478,10,10,10c5.525,0,10-4.475,10-10C22,6.475,17.525,2,12,2z M11.3,5.892h1.4v6.966
	h-1.4V5.892z M12,17.129c-2.7-0.002-4.888-2.191-4.887-4.89c0-2.2,1.473-4.13,3.595-4.713v1.425c-1.357,0.533-2.249,1.841-2.246,3.3
	c0,1.954,1.586,3.537,3.54,3.536c1.954-0.001,3.537-1.585,3.536-3.54c0-1.455-0.892-2.76-2.245-3.292V7.525
	c2.125,0.583,3.596,2.515,3.596,4.717C16.889,14.941,14.7,17.129,12,17.129L12,17.129z"/>
</svg>
