<svg version="1.1" id="master" xmlns="http://www.w3.org/2000/svg" xmlns:xlink="http://www.w3.org/1999/xlink" x="0px" y="0px" width="24px" height="24px" viewBox="0 0 24 24" enable-background="new 0 0 24 24" xml:space="preserve">
<rect fill="none" width="24" height="24"/>
<path d="M11.975,2c-0.007,0.008-0.292,0.292-0.623,0.632c-0.688,0.696-1.253,1.059-2.103,1.35c-0.485,0.171-0.697,0.203-1.247,0.17C7.646,4.135,7.267,4.096,7.169,4.056C7.007,4.008,6.983,4.022,6.983,4.201c0,0.275-0.209,0.85-0.436,1.197L6.352,5.69l0.204,0.25C6.661,6.086,6.79,6.199,6.831,6.199c0.04,0,0.258-0.146,0.493-0.324c0.615-0.469,1.699-1.01,2.54-1.261C10.528,4.403,10.689,4.386,12,4.386c1.311,0,1.471,0.018,2.136,0.229c0.841,0.25,1.925,0.792,2.54,1.261C16.91,6.054,17.129,6.2,17.169,6.2s0.17-0.114,0.274-0.252l0.203-0.258l-0.235-0.373c-0.149-0.256-0.267-0.531-0.347-0.817c-0.089-0.364-0.137-0.436-0.258-0.412c-0.09,0.017-0.445,0.047-0.81,0.063c-0.518,0.025-0.761,0.001-1.173-0.137c-0.859-0.292-1.521-0.704-2.201-1.392C12.275,2.276,11.983,1.992,11.975,2L11.975,2z M11.738,4.773c-0.088,0-0.176,0.006-0.264,0.019C10.333,4.969,9.387,5.527,8.805,6.36L8.577,6.685l0.228,0.323c0.251,0.364,0.671,0.728,1.504,1.31c0.688,0.486,1.319,1.173,1.489,1.642c0.081,0.203,0.161,0.365,0.193,0.357c0.025,0,0.146-0.209,0.267-0.46c0.252-0.534,0.705-1.021,1.441-1.539c0.801-0.566,1.26-0.97,1.496-1.31l0.219-0.316l-0.242-0.356c-0.475-0.662-1.154-1.148-1.934-1.383C12.863,4.848,12.183,4.77,11.738,4.773z M5.486,4.799L5.091,5.236C4.549,5.833,3.795,6.992,3.585,7.55c-0.525,1.417-0.387,2.605,0.446,3.738c0.664,0.898,1.964,1.804,3.413,2.378c0.373,0.138,0.672,0.283,0.672,0.315c0,0.024-0.105,0.073-0.242,0.105c-0.38,0.082-1.173,0.639-1.383,0.979c-0.154,0.242-0.194,0.42-0.186,0.801c0.008,1.125,0.809,2.104,2.362,2.896c0.501,0.252,0.986,0.461,1.076,0.461c0.267,0,0.923-0.729,1.231-1.383c0.583-1.197,0.833-2.84,0.76-4.927c-0.065-1.893-0.267-2.549-1.043-3.367C10.463,9.307,10,8.942,9.661,8.74C7,7.098,5.721,5.948,5.536,5.034L5.486,4.799L5.486,4.799z M18.515,4.877c-0.03-0.002-0.039,0.031-0.042,0.092c-0.008,0.8-1.439,2.104-4.134,3.771c-0.34,0.202-0.803,0.566-1.029,0.808c-0.776,0.817-0.978,1.474-1.043,3.367c-0.073,2.087,0.177,3.729,0.76,4.927c0.308,0.654,0.964,1.383,1.231,1.383c0.088,0,0.566-0.201,1.059-0.452c1.562-0.792,2.37-1.78,2.379-2.905c0.008-0.381-0.032-0.559-0.187-0.801c-0.21-0.34-1.003-0.896-1.384-0.979c-0.137-0.032-0.241-0.081-0.241-0.105c0-0.032,0.3-0.178,0.672-0.315c1.448-0.575,2.75-1.48,3.413-2.378c0.834-1.133,0.972-2.323,0.445-3.738c-0.218-0.583-0.979-1.74-1.521-2.323C18.67,4.985,18.564,4.882,18.515,4.877z M11.853,5.322l0.229,0.003c0.63,0.025,0.848,0.065,1.237,0.243c0.42,0.194,1.351,0.971,1.351,1.125c0,0.105-0.985,0.85-1.455,1.092C12.817,7.995,12.688,8.02,12,8.02c-0.736,0-0.792-0.017-1.335-0.309C10.323,7.525,10,7.306,9.701,7.057L9.298,6.708L9.5,6.467c0.3-0.373,0.833-0.753,1.343-0.964C11.196,5.354,11.371,5.318,11.853,5.322z M12.01,5.48c-0.202-0.003-0.401,0.046-0.577,0.145C10.316,6.215,10.729,7.898,12,7.898c1.238,0,1.675-1.626,0.599-2.242C12.42,5.549,12.218,5.488,12.01,5.48z M11.775,6.009c0.13-0.001,0.25,0.08,0.322,0.239c0.178,0.38-0.396,0.816-0.639,0.493c-0.187-0.234-0.187-0.389,0.008-0.583C11.545,6.07,11.656,6.016,11.775,6.009L11.775,6.009z M3.489,11.393c-0.032-0.016-0.065,0.469-0.065,1.076c0,2.161,0.559,3.69,1.982,5.389c1.222,1.457,3.568,3.01,5.882,3.875L11.991,22l0.673-0.267c3.471-1.375,6.18-3.616,7.264-6.019c0.445-0.972,0.584-1.611,0.623-2.898c0.024-0.655,0.024-1.253-0.008-1.326c-0.041-0.105-0.112-0.065-0.363,0.218c-0.299,0.34-0.309,0.381-0.355,1.084c-0.227,3.406-2.688,6.277-6.109,7.135c-0.832,0.211-2.758,0.188-3.607-0.039c-3.358-0.922-5.713-3.73-5.932-7.096c-0.048-0.688-0.065-0.745-0.332-1.052C3.682,11.563,3.53,11.401,3.489,11.393L3.489,11.393z"/>
</svg>
