<svg version="1.1" id="master" xmlns="http://www.w3.org/2000/svg" xmlns:xlink="http://www.w3.org/1999/xlink" x="0px" y="0px" width="24px" height="24px" viewBox="0 0 24 24" enable-background="new 0 0 24 24" xml:space="preserve" fill="#232323">
<rect fill="none" width="24" height="24"/>
<path d="M19.127,9.845h-2.154V6.972C16.973,4.226,14.746,2,12,2S7.028,4.226,7.028,6.972v2.873H4.873c-0.549,0-0.994,0.445-0.994,0.995v10.166C3.879,21.555,4.324,22,4.873,22h14.254c0.549,0,0.994-0.445,0.994-0.994V10.84C20.121,10.291,19.676,9.845,19.127,9.845z M13.326,19.514h-2.652c-0.441,0-0.828-0.331-0.828-0.773c0-1.268,0.604-2.094,1.594-2.426c-0.607-0.229-1.041-0.81-1.041-1.497c0-0.885,0.717-1.602,1.602-1.602s1.603,0.717,1.603,1.602c0,0.688-0.435,1.269-1.042,1.497c0.988,0.332,1.594,1.158,1.594,2.426C14.154,19.183,13.768,19.514,13.326,19.514z M12.11,11.779c0.332-0.497,0.607-1.049,0.663-1.712l0.021-0.048c-0.256,0.061-0.519,0.104-0.795,0.104c-1.8,0-3.26-1.385-3.26-3.094c0-1.709,1.46-3.094,3.26-3.094c1.413,0,2.604,0.859,3.057,2.054C15.971,8.116,14.018,10.645,12.11,11.779z"/>
</svg>
