<svg version="1.1" id="master" xmlns="http://www.w3.org/2000/svg" xmlns:xlink="http://www.w3.org/1999/xlink" x="0px" y="0px"
	 width="24px" height="24px" viewBox="0 0 24 24" enable-background="new 0 0 24 24" xml:space="preserve">
<rect fill="none" width="24" height="24"/>
<path d="M19.008,4.883c0.385-0.57,0.984-0.984,1.8-1.243c0.191-0.06,0.388-0.109,0.586-0.149c0.199-0.04,0.401-0.06,0.606-0.06V2
	h-7.137v15.656c0,0.199-0.037,0.388-0.109,0.566c-0.073,0.179-0.175,0.338-0.304,0.477c-0.129,0.14-0.28,0.249-0.452,0.328
	c-0.172,0.08-0.361,0.119-0.566,0.119c-0.206,0-0.395-0.039-0.566-0.119c-0.173-0.079-0.323-0.188-0.453-0.328
	c-0.129-0.139-0.229-0.298-0.303-0.477S12,17.855,12,17.656V2c-0.364,0-0.726,0.02-1.084,0.06c-0.357,0.04-0.712,0.106-1.063,0.199
	v14.026c0,0.198-0.036,0.384-0.109,0.557c-0.072,0.173-0.174,0.323-0.303,0.452s-0.28,0.232-0.452,0.309
	c-0.173,0.076-0.358,0.114-0.557,0.114c-0.199,0-0.387-0.036-0.562-0.109c-0.176-0.073-0.328-0.174-0.458-0.304
	c-0.129-0.129-0.229-0.281-0.303-0.457S7,16.482,7,16.284v-3.608c0.205-0.039,0.396-0.114,0.571-0.224s0.326-0.242,0.452-0.397
	s0.226-0.33,0.299-0.522c0.072-0.192,0.109-0.394,0.109-0.606c0-0.152,0.003-0.305,0.01-0.457s0.01-0.305,0.01-0.458
	c0-0.265-0.021-0.52-0.064-0.765S8.268,8.779,8.158,8.581S7.901,8.209,7.716,8.063C7.53,7.918,7.292,7.812,7,7.746V3.77
	C6.762,3.968,6.533,4.193,6.314,4.445S5.894,4.962,5.708,5.241S5.356,5.807,5.211,6.105C5.064,6.404,4.945,6.702,4.853,7
	C4.807,7.152,4.748,7.33,4.679,7.532s-0.15,0.409-0.243,0.622C4.343,8.365,4.238,8.572,4.122,8.774S3.877,9.157,3.734,9.316
	C3.592,9.475,3.437,9.604,3.268,9.704c-0.169,0.1-0.354,0.149-0.552,0.149c-0.192,0-0.359,0.071-0.502,0.213
	C2.071,10.209,2,10.376,2,10.568c0,0.186,0.035,0.327,0.104,0.423c0.069,0.096,0.157,0.164,0.264,0.204
	c0.105,0.04,0.222,0.063,0.348,0.07c0.126,0.006,0.242,0.02,0.348,0.04c0.106,0.02,0.194,0.053,0.264,0.1s0.104,0.125,0.104,0.238
	c0,0.086-0.019,0.154-0.055,0.204c-0.037,0.05-0.085,0.086-0.145,0.109c-0.06,0.023-0.126,0.037-0.198,0.04
	C2.961,11.999,2.892,12,2.825,12H2.716c-0.199,0-0.368,0.07-0.507,0.209C2.069,12.348,2,12.518,2,12.716s0.069,0.368,0.209,0.507
	c0.139,0.139,0.308,0.209,0.507,0.209c0.298,0,0.563,0.104,0.795,0.313c0.232,0.209,0.436,0.463,0.611,0.761
	s0.323,0.611,0.442,0.939s0.216,0.608,0.288,0.84c0.093,0.298,0.202,0.585,0.328,0.86c0.126,0.274,0.271,0.545,0.438,0.81
	c0.643,1.04,1.437,1.855,2.381,2.445s2.039,0.885,3.285,0.885v-2.138c0.146,0.186,0.333,0.363,0.562,0.532s0.446,0.31,0.651,0.423
	c0.689,0.391,1.425,0.711,2.207,0.959c0.781,0.248,1.584,0.442,2.405,0.582c0.821,0.139,1.646,0.233,2.476,0.283
	C20.413,21.975,21.218,22,22,22v-1.422c-0.205,0-0.407-0.02-0.606-0.059c-0.198-0.041-0.395-0.09-0.586-0.15
	c-0.815-0.258-1.415-0.674-1.8-1.247c-0.384-0.573-0.576-1.28-0.576-2.122v-2.854c0,0.491,0.093,0.953,0.278,1.387
	c0.186,0.435,0.44,0.814,0.766,1.139c0.324,0.324,0.704,0.58,1.138,0.766c0.435,0.186,0.896,0.278,1.387,0.278V6.284
	c-0.49,0-0.952,0.095-1.387,0.283c-0.434,0.189-0.812,0.444-1.133,0.766c-0.321,0.322-0.577,0.699-0.766,1.133
	c-0.189,0.434-0.283,0.896-0.283,1.387V7C18.432,6.159,18.624,5.453,19.008,4.883z M6.643,12c-0.153,0-0.294-0.028-0.423-0.084
	s-0.242-0.132-0.338-0.229c-0.097-0.096-0.173-0.209-0.229-0.338c-0.057-0.129-0.085-0.27-0.085-0.423V9.495
	c0-0.146,0.028-0.285,0.085-0.417C5.709,8.945,5.787,8.833,5.887,8.74s0.214-0.167,0.343-0.224c0.129-0.057,0.267-0.084,0.413-0.084
	c0.146,0,0.283,0.028,0.412,0.084c0.129,0.056,0.243,0.132,0.343,0.229s0.178,0.208,0.233,0.338C7.688,9.212,7.716,9.35,7.716,9.495
	v1.431c0,0.153-0.028,0.293-0.085,0.423c-0.056,0.129-0.132,0.242-0.229,0.338c-0.096,0.096-0.21,0.172-0.343,0.229
	S6.788,12,6.643,12z M18.347,4.202c-0.056,0.129-0.132,0.242-0.229,0.338c-0.096,0.096-0.21,0.173-0.343,0.229
	s-0.271,0.084-0.418,0.084c-0.152,0-0.293-0.028-0.422-0.084s-0.242-0.133-0.338-0.229c-0.097-0.096-0.173-0.208-0.229-0.338
	c-0.057-0.129-0.085-0.27-0.085-0.422c0-0.146,0.028-0.285,0.085-0.417c0.056-0.132,0.134-0.245,0.233-0.338
	s0.214-0.167,0.343-0.224s0.267-0.084,0.412-0.084c0.146,0,0.284,0.028,0.413,0.084s0.243,0.131,0.343,0.224
	s0.178,0.206,0.233,0.338c0.057,0.133,0.085,0.272,0.085,0.417C18.432,3.932,18.403,4.073,18.347,4.202z"/>
</svg>
