<svg version="1.1" id="master" xmlns="http://www.w3.org/2000/svg" xmlns:xlink="http://www.w3.org/1999/xlink" x="0px" y="0px"
	 width="24px" height="24px" viewBox="0 0 24 24" enable-background="new 0 0 24 24" xml:space="preserve">
<rect fill="none" width="24" height="24"/>
<path d="M12,2h10v20c-0.788,0-1.584-0.01-2.387-0.03s-1.601-0.077-2.392-0.17s-1.572-0.233-2.344-0.421
	c-0.771-0.189-1.521-0.451-2.252-0.787v0.782h-1.252c-0.835,0-1.611-0.13-2.33-0.392c-0.72-0.261-1.37-0.626-1.953-1.096
	c-0.582-0.469-1.088-1.027-1.517-1.674c-0.43-0.646-0.771-1.352-1.026-2.117c-0.047-0.139-0.093-0.281-0.139-0.426
	c-0.047-0.145-0.099-0.285-0.157-0.422c-0.058-0.137-0.124-0.269-0.2-0.396c-0.075-0.127-0.165-0.246-0.27-0.355
	c-0.249-0.012-0.482-0.068-0.699-0.17c-0.218-0.102-0.406-0.238-0.565-0.408c-0.159-0.172-0.286-0.367-0.379-0.588
	C2.046,13.11,2,12.875,2,12.626v-1.878c0-0.25,0.046-0.484,0.139-0.705s0.22-0.416,0.379-0.587s0.348-0.307,0.565-0.409
	C3.3,8.946,3.533,8.89,3.782,8.878c0.209-0.214,0.364-0.458,0.466-0.73S4.446,7.6,4.539,7.322c0.278-0.829,0.659-1.572,1.144-2.23
	c0.484-0.658,1.049-1.216,1.695-1.674s1.361-0.809,2.144-1.052C10.305,2.122,11.131,2,12,2z M20.748,17V7
	c-0.43,0-0.834,0.083-1.213,0.248c-0.38,0.165-0.711,0.388-0.991,0.669c-0.281,0.281-0.505,0.612-0.67,0.991
	c-0.165,0.38-0.248,0.784-0.248,1.213V7.626c0-0.736,0.168-1.354,0.505-1.852c0.336-0.499,0.86-0.861,1.573-1.087
	c0.168-0.052,0.34-0.096,0.514-0.13s0.351-0.052,0.53-0.052V3.252h-6.244v13.695c0,0.174-0.031,0.34-0.096,0.496
	c-0.063,0.156-0.151,0.296-0.265,0.418c-0.113,0.121-0.245,0.217-0.396,0.287c-0.151,0.068-0.316,0.104-0.496,0.104
	s-0.345-0.035-0.495-0.104c-0.151-0.07-0.283-0.166-0.396-0.287c-0.113-0.122-0.202-0.262-0.266-0.418S12,17.121,12,16.947V3.252
	c-0.318,0-0.635,0.018-0.948,0.052c-0.313,0.035-0.623,0.093-0.93,0.174v12.27c0,0.174-0.032,0.336-0.096,0.486
	c-0.064,0.151-0.152,0.283-0.266,0.396s-0.245,0.203-0.396,0.27S9.052,17,8.878,17s-0.337-0.031-0.491-0.096
	c-0.153-0.063-0.287-0.152-0.399-0.266c-0.113-0.113-0.202-0.246-0.266-0.399s-0.096-0.317-0.096-0.491v-3.156
	c0.18-0.035,0.347-0.101,0.5-0.196s0.285-0.211,0.396-0.348s0.197-0.288,0.261-0.457c0.064-0.168,0.096-0.345,0.096-0.53
	c0-0.133,0.003-0.267,0.009-0.4c0.006-0.133,0.009-0.266,0.009-0.4c0-0.231-0.019-0.455-0.057-0.669
	c-0.037-0.214-0.104-0.409-0.2-0.583C8.544,8.835,8.414,8.684,8.252,8.557s-0.371-0.22-0.626-0.278V4.8
	c-0.209,0.174-0.408,0.371-0.6,0.591c-0.191,0.221-0.368,0.452-0.53,0.696C6.333,6.331,6.188,6.583,6.061,6.843
	C5.934,7.104,5.829,7.365,5.748,7.626C5.707,7.76,5.656,7.915,5.596,8.091S5.464,8.449,5.383,8.635S5.21,9.001,5.108,9.178
	S4.895,9.513,4.77,9.652S4.509,9.904,4.361,9.991c-0.148,0.087-0.31,0.13-0.483,0.13c-0.168,0-0.314,0.063-0.438,0.187
	c-0.125,0.125-0.188,0.271-0.188,0.439c0,0.162,0.03,0.286,0.092,0.369c0.061,0.084,0.138,0.144,0.23,0.178
	c0.093,0.035,0.194,0.056,0.304,0.061c0.11,0.006,0.212,0.018,0.305,0.035c0.093,0.018,0.17,0.047,0.23,0.087
	c0.061,0.041,0.091,0.11,0.091,0.209c0,0.075-0.016,0.135-0.048,0.178c-0.031,0.043-0.073,0.075-0.126,0.096
	c-0.052,0.021-0.109,0.032-0.174,0.035C4.093,11.999,4.032,12,3.974,12H3.878c-0.174,0-0.321,0.061-0.443,0.183
	c-0.121,0.122-0.183,0.27-0.183,0.443s0.062,0.321,0.183,0.443c0.122,0.122,0.27,0.183,0.443,0.183c0.261,0,0.493,0.092,0.696,0.273
	c0.202,0.184,0.381,0.405,0.534,0.666c0.154,0.261,0.283,0.535,0.388,0.822C5.6,15.3,5.684,15.545,5.748,15.748
	c0.081,0.261,0.177,0.512,0.287,0.752c0.109,0.24,0.237,0.477,0.382,0.709c0.563,0.91,1.257,1.623,2.083,2.139
	s1.784,0.773,2.874,0.773v-1.869c0.127,0.162,0.291,0.317,0.491,0.465c0.2,0.148,0.39,0.271,0.569,0.37
	c0.604,0.343,1.247,0.622,1.931,0.839c0.684,0.218,1.386,0.387,2.104,0.509s1.44,0.204,2.165,0.248s1.429,0.065,2.113,0.065v-1.244
	c-0.18,0-0.356-0.018-0.53-0.052s-0.346-0.078-0.514-0.13c-0.713-0.227-1.237-0.59-1.573-1.092c-0.337-0.502-0.505-1.12-0.505-1.856
	v-2.495c0,0.428,0.081,0.833,0.243,1.213c0.163,0.379,0.386,0.711,0.67,0.995s0.616,0.507,0.996,0.669
	C19.914,16.919,20.318,17,20.748,17z M8.252,11.061c0,0.133-0.024,0.256-0.073,0.37c-0.05,0.113-0.116,0.211-0.2,0.295
	s-0.185,0.151-0.3,0.2C7.563,11.976,7.44,12,7.313,12c-0.134,0-0.257-0.024-0.37-0.074s-0.212-0.116-0.296-0.2
	s-0.15-0.183-0.199-0.295c-0.05-0.113-0.074-0.236-0.074-0.37V9.809c0-0.127,0.024-0.249,0.074-0.365
	c0.049-0.116,0.117-0.214,0.204-0.295s0.187-0.146,0.3-0.196s0.233-0.074,0.361-0.074c0.127,0,0.247,0.024,0.36,0.074
	s0.213,0.116,0.3,0.2s0.155,0.183,0.205,0.295c0.049,0.113,0.073,0.233,0.073,0.361V11.061z M16.687,3.878
	c0.128,0,0.248,0.024,0.361,0.074s0.213,0.115,0.3,0.196s0.155,0.18,0.204,0.295c0.05,0.116,0.074,0.238,0.074,0.365
	c0,0.134-0.024,0.257-0.074,0.37c-0.049,0.113-0.115,0.212-0.199,0.296s-0.185,0.151-0.301,0.2
	c-0.115,0.049-0.237,0.074-0.365,0.074c-0.133,0-0.256-0.025-0.369-0.074c-0.113-0.049-0.212-0.116-0.296-0.2s-0.15-0.183-0.2-0.296
	c-0.049-0.113-0.073-0.236-0.073-0.37c0-0.127,0.024-0.249,0.073-0.365c0.05-0.116,0.118-0.214,0.205-0.295s0.187-0.146,0.3-0.196
	S16.56,3.878,16.687,3.878z"/>
</svg>
