<svg version="1.1" id="master" xmlns="http://www.w3.org/2000/svg" xmlns:xlink="http://www.w3.org/1999/xlink" x="0px" y="0px" width="24px" height="24px" viewBox="0 0 24 24" enable-background="new 0 0 24 24" xml:space="preserve" fill="#399CDB">
<rect fill="none" width="24" height="24"/>
<path d="M6.447,3.112H7.56v1.1H6.447V3.112z M8.667,4.778v1.111H7.556V4.778H8.667z M7.556,6.136v1.111H6.444V6.136H7.556z M5.333,4.222h1.111v1.111H5.333V4.222z M5.333,7.802h1.111v1.111H5.333V7.802z M3.111,2h1.111v1.111H3.111V2z M3.111,14.104V5.025h1.111v6.071h1.113l0.002-1.101h1.111v2.456h1.113V8.344h1.113v8.016C8.674,20.175,12,22,12,22C6.41,22.012,3.111,18.619,3.111,14.104z M20.889,14.096c0,4.288-2.952,7.571-8,7.904l-0.662-0.366c-0.107-0.061-2.344-1.344-2.943-3.957c0.883,0.553,2.016,0.934,3.504,0.999c4.111,0.184,6.902-1.566,8.101-5.503V14.096z M20.889,11.634l-0.431,1.408l0.001-0.006c-0.886,2.879-2.628,4.529-5.311,5.075c0.115-0.579,0.175-1.167,0.175-1.757V5.778C15.323,3.927,15.848,2,20.889,2V11.634z"/>
</svg>
