<svg version="1.1" id="master" xmlns="http://www.w3.org/2000/svg" xmlns:xlink="http://www.w3.org/1999/xlink" x="0px" y="0px"
	 width="24px" height="24px" viewBox="0 0 24 24" enable-background="new 0 0 24 24" xml:space="preserve">
<rect fill="none" width="24" height="24"/>
<path d="M17.406,18.552c-0.884,0.508-1.187,1.642-0.676,2.525c0.509,0.884,1.642,1.186,2.522,0.673
	c0.885-0.508,1.188-1.641,0.676-2.525C19.421,18.344,18.291,18.041,17.406,18.552L17.406,18.552z M13.624,17.397
	c-0.813,0-1.584-0.179-2.274-0.501l-1.283,2.303c1.072,0.53,2.281,0.831,3.558,0.831c0.746,0,1.463-0.105,2.146-0.294
	c0.12-0.742,0.561-1.426,1.264-1.831s1.515-0.446,2.215-0.181c1.368-1.342,2.258-3.172,2.39-5.209l-2.636-0.038
	C18.759,15.235,16.445,17.397,13.624,17.397z M8.225,12c0-1.826,0.908-3.438,2.297-4.419L9.171,5.319
	c-1.62,1.073-2.822,2.733-3.325,4.655c0.585,0.465,0.959,1.193,0.959,2.007c0,0.813-0.374,1.523-0.959,2.007
	c0.503,1.923,1.705,3.58,3.325,4.652l1.349-2.266C9.133,15.429,8.225,13.817,8.225,12z M4.21,10.152
	c-1.021,0-1.848,0.828-1.848,1.848c0,1.02,0.827,1.849,1.848,1.849c1.021,0,1.847-0.829,1.847-1.849
	C6.057,10.98,5.231,10.152,4.21,10.152z M13.624,6.601c2.821,0,5.135,2.164,5.376,4.921l2.637-0.04
	c-0.131-2.035-1.021-3.864-2.389-5.21c-0.703,0.268-1.516,0.225-2.216-0.178c-0.703-0.406-1.143-1.09-1.265-1.835
	c-0.684-0.185-1.397-0.288-2.144-0.288c-1.28,0-2.486,0.299-3.558,0.83l1.283,2.303C12.041,6.781,12.813,6.601,13.624,6.601z
	 M17.406,5.446c0.883,0.509,2.015,0.209,2.525-0.674c0.507-0.883,0.207-2.014-0.679-2.526c-0.881-0.507-2.014-0.206-2.523,0.68
	C16.22,3.806,16.521,4.936,17.406,5.446z"/>
</svg>
