<svg version="1.1" id="master" xmlns="http://www.w3.org/2000/svg" xmlns:xlink="http://www.w3.org/1999/xlink" x="0px" y="0px" width="24px" height="24px" viewBox="0 0 24 24" enable-background="new 0 0 24 24" xml:space="preserve">
<rect fill="none" width="24" height="24"/>
<path d="M18,12l3.333,3.334c0,0.732-0.6,1.332-1.333,1.332h-5.333v-1.332h4.666l-2.666-2.668H7.334l-2.667,2.668h4.667v1.332H4c-0.732,0-1.333-0.6-1.333-1.332L6,12L2.667,8.667c0-0.733,0.601-1.333,1.333-1.333h5.334v1.333H4.667l2.667,2.667h9.333l2.666-2.667h-4.666V7.333H20c0.733,0,1.333,0.6,1.333,1.333L18,12z M10.667,10h2.667V6H16l-4-4L8,6h2.667V10z M13.334,14h-2.667v4H8l4,4l4-4h-2.666V14z"/>
</svg>
