<svg version="1.1" id="master" xmlns="http://www.w3.org/2000/svg" xmlns:xlink="http://www.w3.org/1999/xlink" x="0px" y="0px" width="24px" height="24px" viewBox="0 0 24 24" enable-background="new 0 0 24 24" xml:space="preserve">
<rect fill="none" width="24" height="24"/>
<path d="M2.167,2C2.075,2,2,2.075,2,2.167l0,0v19.667C2,21.925,2.075,22,2.167,22h19.667C21.926,22,22,21.926,22,21.834l0,0V2.167C22,2.075,21.926,2,21.834,2l0,0H2.167z M18.406,6.392c0.604,0,1.094,0.49,1.094,1.093c0,0.604-0.488,1.094-1.092,1.094c-0.002,0-0.002,0-0.002,0c-0.604-0.001-1.093-0.491-1.092-1.094C17.314,6.882,17.803,6.393,18.406,6.392L18.406,6.392z M4.625,7.042h1.663c0.085,0,0.128,0.042,0.128,0.126v6.242c0,0.76,0.185,1.37,0.555,1.823c0.37,0.455,0.934,0.68,1.694,0.68c0.316,0,0.607-0.039,0.873-0.125c0.263-0.084,0.492-0.227,0.687-0.422c0.195-0.196,0.349-0.455,0.461-0.775c0.112-0.322,0.167-0.725,0.167-1.211V7.186c0-0.012,0.002-0.02,0.004-0.029l-0.005-0.003c0-0.075,0.037-0.111,0.111-0.111h2.235c0.063,0,0.104,0.008,0.126,0.022c0.022,0.015,0.042,0.045,0.063,0.087c0.189,0.348,0.416,0.755,0.674,1.22c0.259,0.465,0.524,0.95,0.799,1.458l0.832,1.536c0.279,0.517,0.539,1.005,0.783,1.465c0.242,0.46,0.458,0.871,0.643,1.229c0.186,0.36,0.324,0.641,0.42,0.841h0.018c0-0.105-0.005-0.226-0.009-0.356c-0.007-0.158-0.013-0.316-0.017-0.476c-0.005-0.186-0.012-0.411-0.017-0.675c-0.007-0.263-0.009-0.58-0.009-0.95V9.768c0-0.086,0.047-0.127,0.143-0.127h1.52c0.096,0,0.143,0.048,0.143,0.143v7.525c0,0.094-0.052,0.142-0.156,0.142h-2.012c-0.096,0-0.166-0.038-0.207-0.112c-0.443-0.844-0.894-1.682-1.353-2.518c-0.601-1.09-1.188-2.186-1.768-3.288c-0.25-0.475-0.495-0.952-0.735-1.432c-0.105-0.212-0.209-0.425-0.31-0.64v4.012c0,0.74-0.108,1.369-0.325,1.893s-0.509,0.951-0.879,1.285c-0.381,0.338-0.833,0.586-1.323,0.727c-0.533,0.157-1.086,0.234-1.642,0.231c-0.574,0.007-1.146-0.079-1.693-0.253c-0.482-0.154-0.926-0.411-1.299-0.753c-0.358-0.333-0.633-0.753-0.823-1.259c-0.19-0.507-0.285-1.104-0.285-1.791V7.186C4.499,7.091,4.54,7.042,4.625,7.042L4.625,7.042z"/>
</svg>
