<svg version="1.1" id="master" xmlns="http://www.w3.org/2000/svg" xmlns:xlink="http://www.w3.org/1999/xlink" x="0px" y="0px" width="24px" height="24px" viewBox="0 0 24 24" enable-background="new 0 0 24 24" xml:space="preserve">
<rect fill="none" width="24" height="24"/>
<path d="M14.704,3.374c0.702,0.116,1.368,0.31,2,0.583s1.219,0.61,1.761,1.013s1.031,0.862,1.466,1.378c0.435,0.516,0.806,1.074,1.113,1.674c0.307,0.6,0.543,1.236,0.708,1.909S22,11.293,22,12v10H10.104l1.878-4.374H11.27l-0.557,0.548c-0.069,0.545-0.231,1.051-0.486,1.518c-0.256,0.467-0.576,0.871-0.961,1.213c-0.386,0.342-0.826,0.61-1.322,0.805C7.448,21.902,6.925,22,6.374,22c-0.603,0-1.17-0.114-1.7-0.344c-0.53-0.229-0.994-0.542-1.392-0.939c-0.396-0.396-0.71-0.86-0.938-1.391C2.114,18.795,2,18.229,2,17.626c0-0.399,0.054-0.776,0.161-1.13s0.253-0.705,0.438-1.053l2.174-4.069H3.356l0.592-1.669C4.018,9.513,4.1,9.331,4.195,9.157c0.096-0.174,0.2-0.345,0.313-0.513s0.229-0.335,0.348-0.5c0.119-0.166,0.23-0.332,0.335-0.5L2.496,4.931C2.333,4.768,2.21,4.581,2.126,4.37S2,3.939,2,3.713c0-0.237,0.045-0.461,0.135-0.669S2.348,2.654,2.504,2.5c0.157-0.153,0.34-0.275,0.548-0.365C3.261,2.045,3.484,2,3.722,2C4.093,2,4.429,2.11,4.73,2.331l3.018,2.191C8.2,4.191,8.687,3.923,9.209,3.717c0.521-0.206,1.063-0.343,1.626-0.413c0.063-0.191,0.155-0.368,0.273-0.53c0.119-0.162,0.257-0.3,0.413-0.413c0.157-0.113,0.329-0.201,0.518-0.265S12.423,2,12.626,2c0.243,0,0.461,0.042,0.652,0.126s0.368,0.191,0.53,0.322s0.316,0.277,0.461,0.439C14.414,3.049,14.56,3.212,14.704,3.374z M3.252,3.722c0,0.133,0.044,0.244,0.131,0.331l4.069,4.104c0.087,0.087,0.188,0.155,0.305,0.204C7.872,8.41,7.991,8.435,8.113,8.435c0.127,0,0.249-0.024,0.365-0.074c0.115-0.049,0.217-0.116,0.304-0.2c0.087-0.083,0.155-0.183,0.205-0.295c0.049-0.113,0.073-0.236,0.073-0.37c0-0.151-0.033-0.292-0.1-0.426C8.895,6.936,8.8,6.826,8.679,6.739c-0.54-0.383-1.071-0.764-1.596-1.144c-0.525-0.38-1.051-0.767-1.579-1.161C5.255,4.25,5.007,4.06,4.761,3.865S4.261,3.496,4,3.339C3.954,3.31,3.91,3.289,3.869,3.274c-0.04-0.014-0.09-0.022-0.147-0.022c-0.133,0-0.245,0.045-0.335,0.135C3.297,3.477,3.252,3.588,3.252,3.722z M12,20.748h4.982c0.4-0.302,0.712-0.668,0.935-1.1c0.224-0.433,0.335-0.898,0.335-1.396h-3.835c0.4-0.221,0.76-0.486,1.079-0.8c0.318-0.313,0.59-0.657,0.813-1.034c0.224-0.377,0.395-0.781,0.513-1.213C16.94,14.772,17,14.33,17,13.879v-5l-5-2.504c-0.11,0.278-0.269,0.564-0.474,0.856c-0.206,0.292-0.442,0.578-0.709,0.856S10.26,8.627,9.943,8.874C9.628,9.121,9.303,9.336,8.97,9.522S8.302,9.854,7.965,9.961C7.629,10.068,7.308,10.122,7,10.122H6.861l-3.183,5.948c-0.134,0.249-0.238,0.5-0.313,0.753c-0.075,0.252-0.113,0.52-0.113,0.804c0,0.429,0.081,0.833,0.244,1.214c0.162,0.379,0.385,0.711,0.669,0.995s0.616,0.507,0.996,0.669s0.784,0.244,1.213,0.244s0.833-0.083,1.213-0.248s0.71-0.389,0.991-0.67s0.505-0.611,0.67-0.99c0.165-0.381,0.248-0.785,0.248-1.214l1.252-1.243h3.13L12,20.748z M4.496,18.252c0.156-0.336,0.301-0.677,0.435-1.021c0.133-0.345,0.29-0.683,0.47-1.014c0.081-0.15,0.183-0.265,0.304-0.343c0.122-0.079,0.272-0.118,0.452-0.118c0.244,0,0.445,0.079,0.604,0.235C6.92,16.148,7,16.348,7,16.592c0,0.18-0.041,0.328-0.122,0.447S6.682,17.258,6.53,17.34c-0.324,0.18-0.661,0.337-1.009,0.473C5.174,17.949,4.832,18.096,4.496,18.252z M11.061,8.878c0.128,0,0.248,0.024,0.361,0.074s0.213,0.115,0.3,0.196s0.155,0.18,0.204,0.295C11.976,9.56,12,9.681,12,9.809v1.252c0,0.134-0.024,0.257-0.074,0.37c-0.049,0.112-0.115,0.212-0.199,0.296c-0.085,0.084-0.185,0.15-0.301,0.199C11.311,11.976,11.188,12,11.061,12c-0.127,0-0.247-0.024-0.36-0.074c-0.113-0.049-0.213-0.117-0.3-0.204s-0.155-0.187-0.205-0.3c-0.049-0.113-0.073-0.233-0.073-0.361V9.809c0-0.127,0.024-0.248,0.073-0.361c0.05-0.113,0.118-0.211,0.205-0.295s0.187-0.151,0.3-0.2S10.934,8.878,11.061,8.878z M12,3.878v0.626c0.186,0,0.368-0.003,0.548-0.009s0.362-0.009,0.548-0.009c0.168,0,0.335,0.004,0.5,0.013s0.332,0.025,0.5,0.048l-1-1.07c-0.063-0.069-0.134-0.125-0.209-0.165s-0.162-0.061-0.261-0.061c-0.174,0-0.321,0.061-0.443,0.183C12.061,3.557,12,3.705,12,3.878z"/>
</svg>
