<svg version="1.1" id="master" xmlns="http://www.w3.org/2000/svg" xmlns:xlink="http://www.w3.org/1999/xlink" x="0px" y="0px" width="24px" height="24px" viewBox="0 0 24 24" enable-background="new 0 0 24 24" xml:space="preserve">
<rect fill="none" width="24" height="24"/>
<path d="M12,20.037c0.623,0,1.274-0.066,1.953-0.199c0.68-0.133,1.33-0.338,1.953-0.616s1.189-0.635,1.7-1.068c0.51-0.435,0.908-0.956,1.192-1.565c-0.529,0.172-1.078,0.319-1.645,0.441c-0.566,0.123-1.14,0.221-1.72,0.294s-1.16,0.126-1.739,0.159c-0.58,0.033-1.146,0.049-1.695,0.049s-1.115-0.016-1.695-0.049c-0.579-0.033-1.159-0.086-1.739-0.159s-1.154-0.171-1.725-0.294c-0.569-0.122-1.116-0.27-1.64-0.441c0.284,0.609,0.683,1.131,1.192,1.565c0.511,0.434,1.077,0.79,1.7,1.068s1.273,0.483,1.953,0.616C10.726,19.971,11.377,20.037,12,20.037z M7.716,10.345c0.384-0.066,0.771-0.117,1.158-0.154c0.388-0.036,0.776-0.068,1.168-0.095C9.757,9.778,9.535,9.46,9.376,9.142C9.217,8.824,9.137,8.446,9.137,8.009c0-0.391,0.077-0.76,0.229-1.108C9.519,6.553,9.724,6.25,9.982,5.991c0.258-0.259,0.562-0.464,0.909-0.617C11.239,5.222,11.609,5.146,12,5.146c0.378,0,0.74,0.073,1.089,0.219c0.348,0.146,0.657,0.352,0.929,0.616c0.192-0.159,0.404-0.238,0.637-0.238h0.278c0.112,0,0.22,0.005,0.323,0.015c0.103,0.01,0.203,0.042,0.303,0.095c-0.404-0.597-0.918-1.061-1.541-1.392C13.395,4.129,12.723,3.963,12,3.963c-0.59,0-1.145,0.113-1.665,0.338S9.36,4.833,8.974,5.221c-0.388,0.388-0.694,0.842-0.92,1.362C7.828,7.103,7.716,7.658,7.716,8.248V10.345z M15.568,9.013h-0.895c-0.073,0.192-0.162,0.372-0.269,0.537l-0.208,1.043c-0.014,0.06-0.047,0.118-0.1,0.174c-0.054,0.056-0.114,0.104-0.185,0.144c-0.069,0.04-0.142,0.073-0.218,0.099c-0.077,0.027-0.142,0.04-0.194,0.04h-0.428c-0.026,0.026-0.048,0.053-0.064,0.08s-0.041,0.046-0.074,0.06c-0.259,0.258-0.57,0.388-0.935,0.388c-0.232,0-0.431-0.046-0.597-0.139c-0.165-0.093-0.324-0.222-0.477-0.388h-0.249c-0.205,0-0.399,0.038-0.581,0.114c-0.183,0.076-0.343,0.181-0.482,0.313c-0.139,0.133-0.25,0.289-0.333,0.467s-0.128,0.371-0.134,0.576c0.45,0.133,0.919,0.228,1.406,0.283c0.487,0.057,0.966,0.085,1.437,0.085c0.477,0,0.949-0.024,1.416-0.075c0.468-0.049,0.93-0.141,1.387-0.272c0.126-0.332,0.254-0.658,0.383-0.979c0.129-0.321,0.261-0.645,0.393-0.969V9.013z M10.37,8.049c0,0.066,0.022,0.123,0.069,0.169c0.046,0.046,0.103,0.069,0.169,0.069s0.122-0.023,0.169-0.069c0.046-0.046,0.069-0.103,0.069-0.169c0-0.066-0.023-0.123-0.069-0.169c-0.047-0.046-0.103-0.07-0.169-0.07s-0.123,0.023-0.169,0.07C10.393,7.926,10.37,7.982,10.37,8.049z M13.789,8.238c-0.007,0.119-0.033,0.23-0.079,0.333c-0.047,0.103-0.109,0.192-0.189,0.268c-0.079,0.076-0.17,0.136-0.273,0.179c-0.103,0.043-0.213,0.064-0.333,0.064c-0.032,0-0.07,0.001-0.114,0.005c-0.043,0.003-0.088,0.005-0.134,0.005c-0.079,0-0.15-0.01-0.214-0.03c-0.063-0.02-0.095-0.066-0.095-0.139V8.526c0-0.272,0.092-0.485,0.273-0.641c0.183-0.156,0.403-0.234,0.661-0.234c-0.033-0.112-0.05-0.212-0.05-0.298c0-0.139,0.033-0.278,0.1-0.417s0.159-0.249,0.278-0.328c-0.198-0.232-0.44-0.414-0.726-0.547C12.609,5.928,12.312,5.862,12,5.862c-0.298,0-0.576,0.056-0.835,0.169s-0.485,0.267-0.681,0.462s-0.35,0.422-0.463,0.681C9.909,7.433,9.853,7.711,9.853,8.009c0,0.278,0.049,0.536,0.145,0.771c0.096,0.235,0.233,0.456,0.412,0.661c0.007,0.013,0.014,0.021,0.021,0.025s0.017,0.011,0.029,0.025c0.08,0.093,0.166,0.192,0.259,0.298c0.093,0.106,0.188,0.212,0.283,0.318s0.192,0.208,0.288,0.308c0.097,0.099,0.188,0.189,0.273,0.269c0.126,0.119,0.271,0.179,0.438,0.179c0.093,0,0.172-0.015,0.238-0.045s0.133-0.074,0.199-0.134c0.079-0.073,0.193-0.188,0.343-0.343c0.149-0.155,0.3-0.321,0.452-0.497c0.152-0.175,0.295-0.348,0.428-0.517s0.226-0.303,0.278-0.403V8.387L13.789,8.238z M10.747,9.013c-0.105-0.046-0.198-0.109-0.278-0.188c-0.079-0.08-0.142-0.172-0.188-0.278c-0.046-0.106-0.069-0.219-0.069-0.338V7.81c0-0.106,0.053-0.159,0.159-0.159h0.397c0.245,0,0.452,0.084,0.621,0.254c0.169,0.169,0.254,0.376,0.254,0.621v0.397c0,0.106-0.054,0.159-0.159,0.159h-0.397C10.966,9.083,10.854,9.059,10.747,9.013z M12.631,9.962c-0.056,0.043-0.124,0.078-0.203,0.104c-0.08,0.027-0.159,0.046-0.239,0.06c-0.079,0.013-0.139,0.02-0.179,0.02c-0.046,0-0.109-0.006-0.188-0.02c-0.08-0.014-0.159-0.033-0.239-0.06c-0.079-0.026-0.148-0.06-0.208-0.099c-0.06-0.04-0.09-0.089-0.09-0.149c0-0.046,0.019-0.086,0.055-0.119s0.078-0.05,0.124-0.05c0.054,0,0.121,0.028,0.204,0.084C11.75,9.79,11.86,9.818,12,9.818c0.133,0,0.242-0.028,0.328-0.084c0.086-0.056,0.155-0.084,0.209-0.084c0.046,0,0.088,0.017,0.124,0.05s0.055,0.073,0.055,0.119C12.716,9.871,12.688,9.919,12.631,9.962z M13.313,8.049c0-0.066-0.023-0.123-0.07-0.169c-0.046-0.046-0.103-0.07-0.169-0.07s-0.122,0.023-0.169,0.07c-0.046,0.046-0.069,0.103-0.069,0.169c0,0.066,0.023,0.123,0.069,0.169c0.047,0.046,0.103,0.069,0.169,0.069s0.123-0.023,0.169-0.069C13.289,8.171,13.313,8.115,13.313,8.049z M14.336,7.144c-0.079,0-0.162,0.008-0.248,0.025c-0.087,0.017-0.13,0.078-0.13,0.184c0,0.033,0.026,0.081,0.08,0.144c0.053,0.063,0.115,0.129,0.188,0.199c0.073,0.07,0.147,0.136,0.224,0.199s0.135,0.111,0.174,0.144l0.03,0.03v0.229h0.914V6.916c0-0.066-0.021-0.121-0.064-0.164c-0.043-0.043-0.098-0.064-0.164-0.064c0-0.073-0.021-0.129-0.064-0.169c-0.043-0.04-0.098-0.06-0.164-0.06h-0.457c-0.106,0-0.174,0.04-0.204,0.12c-0.029,0.08-0.045,0.166-0.045,0.258c0,0.06,0.004,0.118,0.01,0.174c0.007,0.057,0.011,0.101,0.011,0.134H14.336z M21.717,12.477c-0.189-0.235-0.433-0.449-0.73-0.641c-0.299-0.192-0.633-0.364-1.004-0.517c-0.371-0.152-0.742-0.285-1.113-0.397s-0.723-0.207-1.054-0.283c-0.332-0.076-0.604-0.134-0.815-0.174v0.994c0,0.312-0.093,0.58-0.278,0.805c-0.186,0.226-0.428,0.418-0.726,0.577c-0.298,0.159-0.633,0.289-1.004,0.388c-0.371,0.1-0.74,0.178-1.108,0.233c-0.368,0.057-0.719,0.095-1.054,0.115c-0.335,0.02-0.611,0.029-0.83,0.029s-0.492-0.01-0.82-0.029c-0.328-0.021-0.678-0.059-1.049-0.115c-0.371-0.056-0.742-0.133-1.113-0.229s-0.707-0.224-1.009-0.383c-0.302-0.158-0.545-0.353-0.73-0.581C7.093,12.04,7,11.77,7,11.458v-0.994c-0.219,0.04-0.494,0.098-0.825,0.174s-0.683,0.17-1.054,0.283s-0.742,0.245-1.113,0.397c-0.371,0.153-0.706,0.325-1.004,0.517c-0.298,0.192-0.54,0.406-0.726,0.641C2.093,12.713,2,12.969,2,13.248c0,0.133,0.023,0.256,0.069,0.372c0.047,0.116,0.106,0.23,0.179,0.343c0.126,0.193,0.295,0.367,0.508,0.521c0.212,0.156,0.44,0.299,0.686,0.428c0.245,0.13,0.493,0.244,0.745,0.344s0.484,0.182,0.696,0.248c0.55,0.18,1.121,0.328,1.715,0.447c0.593,0.119,1.192,0.217,1.799,0.293s1.215,0.131,1.824,0.164s1.203,0.05,1.779,0.05c0.583,0,1.188-0.017,1.814-0.05c0.626-0.033,1.254-0.09,1.884-0.168c0.629-0.08,1.249-0.185,1.858-0.314c0.609-0.129,1.192-0.289,1.75-0.481c0.191-0.065,0.405-0.147,0.641-0.243s0.467-0.207,0.696-0.334c0.229-0.125,0.44-0.263,0.636-0.412c0.195-0.148,0.353-0.313,0.473-0.492c0.072-0.112,0.132-0.225,0.179-0.338C21.977,13.513,22,13.387,22,13.248C22,12.969,21.905,12.713,21.717,12.477z M5.359,13.039c-0.139,0.139-0.308,0.209-0.507,0.209c-0.191,0-0.359-0.072-0.502-0.215s-0.214-0.309-0.214-0.502c0-0.191,0.071-0.359,0.214-0.501s0.311-0.214,0.502-0.214c0.199,0,0.368,0.07,0.507,0.209c0.14,0.139,0.209,0.308,0.209,0.506C5.568,12.73,5.499,12.899,5.359,13.039z M12.502,15.182c-0.143,0.143-0.31,0.213-0.502,0.213s-0.359-0.07-0.502-0.213s-0.214-0.311-0.214-0.503c0-0.198,0.069-0.368,0.209-0.507c0.139-0.139,0.308-0.209,0.507-0.209s0.368,0.07,0.507,0.209c0.14,0.139,0.209,0.309,0.209,0.507C12.716,14.871,12.645,15.039,12.502,15.182z M19.649,13.033c-0.143,0.143-0.311,0.215-0.502,0.215c-0.199,0-0.368-0.07-0.507-0.209c-0.14-0.14-0.209-0.309-0.209-0.508c0-0.198,0.069-0.367,0.209-0.506c0.139-0.139,0.308-0.209,0.507-0.209c0.191,0,0.359,0.071,0.502,0.214s0.214,0.31,0.214,0.501C19.863,12.725,19.792,12.891,19.649,13.033z"/>
</svg>
