<svg version="1.1" id="master" xmlns="http://www.w3.org/2000/svg" xmlns:xlink="http://www.w3.org/1999/xlink" x="0px" y="0px" width="24px" height="24px" viewBox="0 0 24 24" enable-background="new 0 0 24 24" xml:space="preserve">
<rect fill="none" width="24" height="24"/>
<path d="M12,2C6.522,2,2.084,6.478,2.084,12c0,5.523,4.438,10,9.916,10c5.477,0,9.916-4.477,9.916-10C21.916,6.478,17.477,2,12,2z M14.957,17.625l-1.307-1.113l-0.033-0.029l-1.426,1.523c0,0-3.247-0.275-4.604-2.25c0,0,0.215,0.081,0.447,0.084C8.305,15.846,8.6,15.747,8.6,15.288v-4.639c0-0.011,0-0.022-0.001-0.033c-0.015-0.275-0.251-0.485-0.525-0.469c-0.32,0.001-0.789,0.218-1.415,0.865C5.336,12.38,4.786,13.68,4.786,13.68s-0.378-1.888,1.615-4.173c1.993-2.284,3.488-3.114,5.103-3.548c0,0-1.271,0.744-1.27,1.87c0,0.326,0.046,0.552,0.117,0.701c0.095,0.199,0.234,0.267,0.37,0.267c0.109-0.003,0.215-0.039,0.303-0.103v6.092c0.032,0.077,0.074,0.149,0.125,0.215c0.126,0.17,0.358,0.375,0.733,0.375c0.636,0,1.46-0.728,1.46-0.728V9.714c0-0.501-0.377-1.106-0.755-1.314c0,0,0.808-0.052,1.203,0.259c0,0,1.34-1.61,3.798-2.095c0,0-1.316,1.561-1.729,2.335c-0.072,0.005-0.084,1.469-0.071,2.932c0.012,1.412,0.044,2.821,0.063,2.92c0,0,0.142,0.21,0.498,0.214c0.403,0.001,1.084-0.263,2.147-1.391C18.497,13.574,17.346,16.206,14.957,17.625z"/>
</svg>
