<svg version="1.1" id="master" xmlns="http://www.w3.org/2000/svg" xmlns:xlink="http://www.w3.org/1999/xlink" x="0px" y="0px"
	 width="24px" height="24px" viewBox="0 0 24 24" enable-background="new 0 0 24 24" xml:space="preserve">
<rect fill="none" width="24" height="24"/>
<path d="M16.848,20.214l-1.902-1.62l-0.048-0.043l-2.076,2.218c0,0-4.727-0.4-6.703-3.275c0,0,0.313,0.118,0.651,0.122
	c0.395,0.009,0.824-0.135,0.824-0.803v-6.754c0-0.016,0-0.032-0.001-0.047C7.57,9.61,7.227,9.305,6.828,9.328
	c-0.466,0.001-1.149,0.317-2.06,1.259c-1.926,1.991-2.727,3.883-2.727,3.883s-0.55-2.748,2.351-6.075
	c2.901-3.324,5.078-4.533,7.429-5.165c0,0-1.85,1.083-1.849,2.722c0,0.474,0.067,0.803,0.17,1.02c0.138,0.29,0.34,0.389,0.539,0.389
	c0.158-0.004,0.313-0.057,0.44-0.15v8.87c0.047,0.112,0.108,0.217,0.182,0.313c0.183,0.247,0.521,0.546,1.067,0.546
	c0.926,0,2.125-1.06,2.125-1.06V8.697c0-0.729-0.549-1.61-1.099-1.913c0,0,1.176-0.075,1.752,0.377c0,0,1.95-2.344,5.528-3.05
	c0,0-1.916,2.272-2.517,3.399c-0.104,0.007-0.122,2.139-0.104,4.269c0.018,2.055,0.064,4.107,0.093,4.25
	c0,0,0.206,0.306,0.725,0.312c0.586,0.001,1.578-0.383,3.125-2.024C22.001,14.317,20.325,18.148,16.848,20.214z"/>
</svg>
