<svg version="1.1" id="master" xmlns="http://www.w3.org/2000/svg" xmlns:xlink="http://www.w3.org/1999/xlink" x="0px" y="0px" width="24px" height="24px" viewBox="0 0 24 24" enable-background="new 0 0 24 24" xml:space="preserve" fill="#6FDA44">
<rect fill="none" width="24" height="24"/>
<path d="M19.734,10.721c0,1.243-1.011,2.249-2.255,2.249c-0.92,0-1.785-0.389-2.564-1.021l0.189-0.897l0.005-0.032c0.174-0.952,0.709-2.553,2.37-2.553C18.724,8.466,19.734,9.477,19.734,10.721z M22,10.71c0.006-2.493-2.022-4.527-4.521-4.527c-2.121,0-3.759,1.374-4.431,3.641c-1.016-1.531-1.79-3.364-2.239-4.911H8.528v5.934c0,1.172-0.952,2.124-2.125,2.124s-2.125-0.952-2.125-2.124V4.907H2v5.933c0,2.428,1.974,4.423,4.402,4.423c2.429,0,4.403-1.995,4.403-4.423V9.845c0.443,0.925,0.984,1.86,1.644,2.683l-1.396,6.565h2.331l1.012-4.759c0.887,0.567,1.903,0.925,3.071,0.925C19.968,15.259,22,13.214,22,10.71z"/>
</svg>
