<svg version="1.1" id="master" xmlns="http://www.w3.org/2000/svg" xmlns:xlink="http://www.w3.org/1999/xlink" x="0px" y="0px" width="24px" height="24px" viewBox="0 0 24 24" enable-background="new 0 0 24 24" xml:space="preserve">
<rect fill="none" width="24" height="24"/>
<path d="M21.5,8H17v8h4.5c0.276,0,0.5-0.224,0.5-0.5v-7C22,8.224,21.776,8,21.5,8z M20.25,13.75c0,0.276-0.224,0.5-0.5,0.5h-0.5c-0.276,0-0.5-0.224-0.5-0.5v-0.5c0-0.276,0.224-0.5,0.5-0.5h0.5c0.276,0,0.5,0.224,0.5,0.5V13.75z M20.25,10.75c0,0.276-0.224,0.5-0.5,0.5h-0.5c-0.276,0-0.5-0.224-0.5-0.5v-0.5c0-0.276,0.224-0.5,0.5-0.5h0.5c0.276,0,0.5,0.224,0.5,0.5V10.75z M15.5,7H4C2.896,7,2,7.896,2,9v6c0,1.104,0.896,2,2,2h11.5c0.276,0,0.5-0.224,0.5-0.5v-9C16,7.224,15.776,7,15.5,7z"/>
</svg>
