<svg version="1.1" id="master" xmlns="http://www.w3.org/2000/svg" xmlns:xlink="http://www.w3.org/1999/xlink" x="0px" y="0px"
	 width="24px" height="24px" viewBox="0 0 24 24" enable-background="new 0 0 24 24" xml:space="preserve">
<rect fill="none" width="24" height="24"/>
<path d="M19.346,3.953l-0.008-0.002c-0.5-0.458-2.499-1.917-6.975-1.933c0.001-0.002-0.329-0.023-0.863-0.016
	C9.896,2.023,6.444,2.288,4.515,4.057C3.081,5.481,2.58,7.582,2.521,10.184c-0.05,2.592-0.108,7.458,4.583,8.783v2.017
	c0,0-0.032,0.81,0.501,0.976c0.658,0.209,1.033-0.416,1.658-1.082l1.167-1.317c3.208,0.269,5.667-0.349,5.95-0.439
	c0.647-0.208,4.315-0.676,4.916-5.542C21.913,8.552,20.996,5.385,19.346,3.953z M16.642,14.85v0.008
	c-0.19,0.342-0.449,0.664-0.774,0.957c-0.253,0.229-0.576,0.369-0.918,0.393c-0.108,0-0.216-0.018-0.332-0.05v-0.009
	c-0.399-0.116-1.068-0.399-2.168-1c-0.962-0.532-1.853-1.185-2.65-1.941l-0.025-0.023l-0.025-0.025l-0.033-0.024L9.69,13.1
	c-0.754-0.794-1.404-1.682-1.934-2.642c-0.408-0.686-0.743-1.412-1-2.167L6.74,8.283C6.693,8.138,6.678,7.984,6.698,7.832
	c0.033-0.259,0.159-0.524,0.383-0.791c0.3-0.334,0.615-0.584,0.957-0.784h0.01c0.155-0.09,0.336-0.125,0.513-0.1
	c0.166,0.031,0.315,0.119,0.42,0.251c0.485,0.553,0.915,1.154,1.283,1.791c0.241,0.425,0.083,0.859-0.142,1.042L9.655,9.616
	c-0.24,0.183-0.206,0.543-0.206,0.543s0.69,2.632,3.292,3.299l0.01-0.009c0,0,0.35,0.033,0.541-0.2l0.376-0.474
	c0.175-0.234,0.606-0.376,1.033-0.143c0.637,0.368,1.237,0.799,1.791,1.283C16.767,14.15,16.833,14.493,16.642,14.85z M12.291,7.399
	C12.152,7.4,12.041,7.288,12.04,7.15c-0.001-0.138,0.111-0.251,0.249-0.251c0.011-0.001,0.023-0.001,0.035,0
	c1.083,0.075,1.934,0.45,2.542,1.117c0.608,0.667,0.917,1.5,0.893,2.491c0,0.001,0,0.001,0,0.001c0,0.138-0.112,0.25-0.25,0.25
	l-0.009-0.01c-0.139,0-0.25-0.112-0.25-0.25c0.049-0.786-0.221-1.559-0.75-2.142C13.919,7.758,13.125,7.414,12.291,7.399z
	 M14.458,10.059c0.004,0.138-0.104,0.254-0.242,0.258h-0.009c-0.136,0-0.245-0.107-0.25-0.242c-0.049-0.859-0.449-1.275-1.274-1.317
	c-0.141-0.004-0.252-0.121-0.248-0.262s0.121-0.251,0.262-0.247c0.004-0.001,0.008-0.001,0.011,0c1.084,0.058,1.692,0.684,1.75,1.8
	C14.458,10.053,14.458,10.056,14.458,10.059z M16.831,11.266v0.008c-0.139,0-0.25-0.112-0.25-0.25
	c-0.016-1.55-0.459-2.733-1.367-3.616c-0.898-0.872-2.107-1.349-3.358-1.325c-0.138,0-0.25-0.112-0.25-0.25s0.112-0.249,0.25-0.249
	c1.476,0,2.727,0.5,3.718,1.467c1.025,1.059,1.569,2.493,1.507,3.966C17.08,11.153,16.969,11.266,16.831,11.266z"/>
</svg>
