<svg version="1.1" id="master" xmlns="http://www.w3.org/2000/svg" xmlns:xlink="http://www.w3.org/1999/xlink" x="0px" y="0px" width="24px" height="24px" viewBox="0 0 24 24" enable-background="new 0 0 24 24" xml:space="preserve">
<rect fill="none" width="24" height="24"/>
<path d="M19,16.167L17.833,15V7.833H19.5v8.334H19z M15.334,6.167v6.336L17,14.168V5.75c0-0.692-0.559-1.25-1.25-1.25h-7.5c-0.261,0-0.49,0.098-0.69,0.234l1.434,1.433H15.334z M20.333,9.5v5H22v-5H20.333z M2,14.5h1.667v-5H2V14.5z M17,16.999l3.586,3.586l-1.414,1.414l-2.733-2.733c-0.2,0.137-0.428,0.234-0.688,0.234h-7.5C7.558,19.5,7,18.941,7,18.25V9.828L6.167,8.995v7.172H4.5V7.833h0.505L2,4.828l1.414-1.414l11.92,11.919V15.33L17,16.995V16.999z M15.006,17.833l-6.339-6.338v6.338H15.006z"/>
</svg>
