<svg version="1.1" id="master" xmlns="http://www.w3.org/2000/svg" xmlns:xlink="http://www.w3.org/1999/xlink" x="0px" y="0px" width="24px" height="24px" viewBox="0 0 24 24" enable-background="new 0 0 24 24" xml:space="preserve">
<rect fill="none" width="24" height="24"/>
<path d="M10.544,7.715L8.575,5.746C9.651,5.383,10.801,5.182,12,5.182c4.546,0,8.427,2.827,10,6.818c-0.644,1.632-1.677,3.063-2.979,4.192l-2.736-2.736c0.157-0.459,0.261-0.943,0.261-1.456c0-2.509-2.038-4.545-4.546-4.545C11.488,7.455,11.004,7.559,10.544,7.715z M17.374,17.374l3.212,3.212L19.172,22l-3.761-3.761c-1.074,0.362-2.215,0.579-3.411,0.579c-4.545,0-8.427-2.827-10-6.818c0.644-1.632,1.678-3.063,2.981-4.191L2,4.828l1.414-1.414l3.212,3.212c0,0,0,0,0,0l2.16,2.161c0,0,0,0,0,0l1.283,1.283l0,0l3.86,3.86c0,0,0,0-0.001,0l1.283,1.283c0.001,0,0.001,0,0.001,0L17.374,17.374z M13.456,16.284l-1.567-1.566c-1.417-0.058-2.545-1.188-2.604-2.605l-1.569-1.569c-0.156,0.46-0.26,0.944-0.26,1.457c0,2.509,2.036,4.545,4.545,4.545C12.513,16.545,12.997,16.441,13.456,16.284z M14.717,11.889c-0.058-1.418-1.188-2.548-2.605-2.606L14.717,11.889z"/>
</svg>
