<svg version="1.1" id="master" xmlns="http://www.w3.org/2000/svg" xmlns:xlink="http://www.w3.org/1999/xlink" x="0px" y="0px" width="24px" height="24px" viewBox="0 0 24 24" enable-background="new 0 0 24 24" xml:space="preserve">
<rect fill="none" width="24" height="24"/>
<path d="M16.652,2.053c-0.317-0.004-0.625,0.113-0.86,0.327h-0.001c-0.015,0.012-0.027,0.024-0.041,0.038L9.106,9.763L5.229,6.584L4.89,6.292C4.652,6.094,4.323,6.045,4.037,6.164C4.034,6.165,4.03,6.167,4.027,6.168L2.513,6.793C2.491,6.802,2.47,6.812,2.449,6.823C2.436,6.83,2.422,6.837,2.41,6.846C2.399,6.852,2.388,6.858,2.378,6.864c-0.014,0.009-0.027,0.019-0.04,0.028C2.329,6.899,2.32,6.906,2.312,6.913c-0.012,0.01-0.024,0.02-0.036,0.03c-0.01,0.009-0.02,0.018-0.03,0.027c-0.009,0.01-0.018,0.02-0.027,0.029C2.21,7.009,2.201,7.02,2.192,7.031c-0.01,0.012-0.02,0.024-0.029,0.037c-0.007,0.01-0.014,0.019-0.02,0.029C2.133,7.11,2.125,7.124,2.116,7.139C2.11,7.148,2.104,7.157,2.099,7.167C2.092,7.18,2.085,7.195,2.08,7.208C2.073,7.221,2.068,7.233,2.063,7.246C2.058,7.258,2.053,7.271,2.049,7.283C2.044,7.295,2.04,7.309,2.036,7.322c-0.004,0.015-0.008,0.03-0.012,0.045C2.021,7.379,2.018,7.39,2.015,7.401C2.013,7.416,2.01,7.431,2.009,7.446C2.006,7.46,2.005,7.474,2.003,7.488C2.001,7.511,2,7.534,2,7.557v8.887c0.002,0.335,0.204,0.635,0.513,0.765l1.514,0.636c0.29,0.12,0.623,0.068,0.862-0.135l0.34-0.293l3.877-3.18l6.645,7.347c0.02,0.019,0.039,0.036,0.06,0.054c0.015,0.015,0.031,0.028,0.048,0.042c0.016,0.012,0.032,0.023,0.049,0.034c0.016,0.014,0.034,0.025,0.052,0.038c0.018,0.01,0.036,0.021,0.054,0.03c0.018,0.012,0.036,0.021,0.055,0.031c0.019,0.008,0.037,0.018,0.056,0.025c0.02,0.009,0.039,0.017,0.059,0.025c0.021,0.007,0.041,0.015,0.062,0.021c0.019,0.006,0.036,0.012,0.055,0.017c0.022,0.007,0.045,0.012,0.066,0.017c0.02,0.005,0.038,0.008,0.058,0.012c0.021,0.004,0.042,0.006,0.063,0.009c0.021,0.002,0.041,0.004,0.063,0.005c0.021,0.002,0.041,0.003,0.061,0.004c0.021,0,0.043,0,0.064,0c0.021-0.002,0.044-0.004,0.065-0.005c0.018-0.002,0.037-0.004,0.056-0.006c0.024-0.003,0.049-0.008,0.072-0.013c0.018-0.002,0.033-0.005,0.05-0.01c0.022-0.005,0.046-0.011,0.066-0.018c0.02-0.005,0.038-0.011,0.058-0.017c0.02-0.008,0.039-0.015,0.059-0.024c0.024-0.009,0.05-0.02,0.074-0.029l4.12-1.981c0.151-0.073,0.285-0.176,0.396-0.302c0.025-0.03,0.051-0.062,0.074-0.094c0.002-0.002,0.003-0.004,0.004-0.006c0.024-0.033,0.046-0.068,0.066-0.104c0.019-0.032,0.036-0.065,0.052-0.1c0.002-0.005,0.005-0.01,0.008-0.015c0.012-0.029,0.023-0.06,0.033-0.089c0.005-0.01,0.008-0.021,0.013-0.03c0.009-0.029,0.018-0.06,0.024-0.09c0.003-0.01,0.005-0.021,0.008-0.031c0.006-0.027,0.011-0.055,0.014-0.083c0.003-0.015,0.005-0.027,0.007-0.042c0.003-0.024,0.005-0.051,0.006-0.076c0.001-0.021,0.002-0.043,0.003-0.065V5.285c0,0,0,0,0-0.001c0-0.009,0-0.018,0-0.026c-0.001-0.042-0.004-0.083-0.009-0.125c-0.052-0.423-0.316-0.791-0.7-0.976l-4.119-1.98c-0.162-0.077-0.339-0.118-0.518-0.122L16.652,2.053z M17,7.766v8.469l-5.166-4.234L17,7.766z M4.5,9.146l2.582,2.856L4.5,14.855V9.146z"/>
</svg>
