<svg version="1.1" id="master" xmlns="http://www.w3.org/2000/svg" xmlns:xlink="http://www.w3.org/1999/xlink" x="0px" y="0px" width="24px" height="24px" viewBox="0 0 24 24" enable-background="new 0 0 24 24" xml:space="preserve" fill="#EF3939">
<rect fill="none" width="24" height="24"/>
<path d="M20.409,3.619C18.814,2.037,16.38,2.037,12,2.037c-4.381,0-6.814,0-8.409,1.586C2,5.209,2,7.635,2,12.002c0,4.367,0,6.792,1.591,8.378c1.595,1.582,4.028,1.582,8.409,1.582c4.38,0,6.814,0,8.409-1.586C22,18.79,22,16.365,22,11.998C22,7.63,22,5.205,20.409,3.619z M17.264,17.288c-2.927,2.917-7.667,2.917-10.589,0c-2.922-2.913-2.922-7.641,0-10.558c2.926-2.917,7.667-2.917,10.589,0C20.189,9.643,20.189,14.37,17.264,17.288z M16.982,9.331c0.044,0.294-0.018,0.571-0.167,0.83c-1.234,2.14-2.47,4.279-3.704,6.424c-0.229,0.399-0.563,0.637-1.02,0.672c-0.509,0.035-0.913-0.18-1.173-0.619c-0.782-1.34-1.555-2.689-2.328-4.033c-0.471-0.817-0.945-1.635-1.415-2.457c-0.475-0.826,0.062-1.832,1.011-1.88c0.501-0.026,0.888,0.207,1.143,0.642c0.347,0.593,0.689,1.195,1.036,1.792c0.251,0.431,0.492,0.866,0.747,1.288c0.369,0.619,0.914,0.967,1.639,1.011c1.023,0.062,1.978-0.682,2.101-1.767c0.009-0.079,0.013-0.163,0.018-0.202c-0.005-0.352-0.07-0.65-0.211-0.927c-0.383-0.764,0.026-1.621,0.856-1.806C16.191,8.149,16.895,8.646,16.982,9.331z"/>
</svg>
