<svg version="1.1" id="master" xmlns="http://www.w3.org/2000/svg" xmlns:xlink="http://www.w3.org/1999/xlink" x="0px" y="0px" width="24px" height="24px" viewBox="0 0 24 24" enable-background="new 0 0 24 24" xml:space="preserve" fill="#EF3939">
<rect fill="none" width="24" height="24"/>
<path d="M21.974,5.133c0.086,0.588-0.037,1.142-0.336,1.661c-2.468,4.281-4.939,8.56-7.409,12.852c-0.459,0.799-1.127,1.276-2.042,1.345c-1.018,0.07-1.826-0.36-2.346-1.237c-1.565-2.683-3.112-5.381-4.658-8.069c-0.941-1.636-1.89-3.272-2.831-4.917C1.402,5.114,2.475,3.102,4.375,3.006C5.376,2.954,6.151,3.42,6.661,4.291C7.355,5.477,8.04,6.681,8.734,7.876c0.502,0.861,0.984,1.732,1.494,2.577c0.738,1.239,1.829,1.935,3.28,2.022c2.046,0.123,3.956-1.365,4.203-3.536c0.02-0.159,0.027-0.327,0.037-0.404c-0.01-0.704-0.141-1.301-0.423-1.855c-0.768-1.529,0.053-3.243,1.714-3.614C20.392,2.768,21.798,3.762,21.974,5.133z"/>
</svg>
