<svg version="1.1" id="master" xmlns="http://www.w3.org/2000/svg" xmlns:xlink="http://www.w3.org/1999/xlink" x="0px" y="0px"
	 width="24px" height="24px" viewBox="0 0 24 24" enable-background="new 0 0 24 24" xml:space="preserve">
<rect fill="none" width="24" height="24"/>
<path d="M19.063,19.063l1.522,1.522L19.172,22l-1.682-1.682c-0.985,0.652-2.078,1.156-3.268,1.426v-2.289
	c0.592-0.176,1.149-0.428,1.671-0.733L12,14.828v6.061l-5.556-5.556H2V8.667h3.838L2,4.829l1.414-1.414l5.587,5.587L12,12l0,0
	l2.223,2.223l0,0l1.301,1.301l0,0l3.467,3.467L19.063,19.063L19.063,19.063z M17,12c0-1.967-1.133-3.655-2.777-4.478v3.873
	l2.424,2.424C16.868,13.254,17,12.645,17,12z M19.777,12c0,1.42-0.396,2.742-1.061,3.889l1.621,1.622C21.387,15.931,22,14.038,22,12
	c0-4.755-3.322-8.733-7.777-9.744v2.289C17.434,5.5,19.777,8.478,19.777,12z M12,3.111L8.969,6.142L12,9.172V3.111z"/>
</svg>
