<svg version="1.1" id="master" xmlns="http://www.w3.org/2000/svg" xmlns:xlink="http://www.w3.org/1999/xlink" x="0px" y="0px" width="24px" height="24px" viewBox="0 0 24 24" enable-background="new 0 0 24 24" xml:space="preserve">
<rect fill="none" width="24" height="24"/>
<path d="M11.391,11.354h-0.435v-0.286h1.726v0.286h-0.429v1.292h0.399c0.368,0,0.611-0.244,0.611-0.576h0.284v0.866h-2.591v-0.29h0.435L11.391,11.354z M13.502,11.355h-0.43v-0.287h1.874v0.287h-0.454l0.632,1.153l0.624-1.153h-0.373v-0.287h1.291v0.287h-0.43l-0.855,1.583l-1.008-0.001L13.502,11.355z M17.818,11.028c0.868,0,1.334,0.433,1.334,0.976c0,0.551-0.438,0.989-1.328,0.989s-1.332-0.438-1.332-0.989C16.492,11.461,16.953,11.029,17.818,11.028L17.818,11.028z M6.818,12.508l0.623-1.152H7.068v-0.287h1.29v0.287H7.929l-0.857,1.583l-1.008-0.001l-0.871-1.583H4.765v-0.287h1.873v0.287H6.185L6.818,12.508z M9.515,11.029c0.868,0,1.333,0.433,1.333,0.976c0,0.551-0.439,0.99-1.329,0.99s-1.333-0.439-1.333-0.99C8.188,11.462,8.647,11.03,9.515,11.029L9.515,11.029z M9.056,11.994c0.006-0.36,0.179-0.674,0.475-0.669c0.297,0.005,0.454,0.325,0.448,0.686c-0.007,0.339-0.147,0.692-0.473,0.687C9.189,12.691,9.05,12.341,9.056,11.994z M17.359,11.994c0.007-0.36,0.18-0.674,0.476-0.669c0.296,0.005,0.453,0.325,0.447,0.686c-0.006,0.339-0.146,0.692-0.472,0.687C17.493,12.691,17.354,12.341,17.359,11.994z M4.688,10.192C5.499,6.906,8.464,4.469,12,4.469s6.502,2.437,7.312,5.722L4.688,10.192z M19.312,13.811c-0.81,3.284-3.775,5.721-7.312,5.721s-6.501-2.437-7.312-5.721H19.312z M20.02,6.026l0.474-0.474c0.337,0.443,0.64,0.913,0.904,1.407h0.375V2.236h-4.722v0.37c0.489,0.264,0.957,0.567,1.397,0.901l-0.474,0.474C16.25,2.692,14.153,1.997,12,2C6.478,2,2,6.478,2,12s4.478,10,10,10s10-4.478,10-10C22,9.76,21.264,7.692,20.02,6.026L20.02,6.026z"/>
</svg>
