<svg version="1.1" id="master" xmlns="http://www.w3.org/2000/svg" xmlns:xlink="http://www.w3.org/1999/xlink" x="0px" y="0px" width="24px" height="24px" viewBox="0 0 24 24" enable-background="new 0 0 24 24" xml:space="preserve">
<rect fill="none" width="24" height="24"/>
<path d="M18,13.001h-0.68l-2,2h1.91l1.77,2H5l1.779-2h2.05l-2-2H6l-3,3v4C3,21.102,3.891,22,4.991,22H19c1.1,0,2-0.891,2-1.999v-4L18,13.001z M12.76,2.292l-6.37,6.37c-0.39,0.39-0.39,1.02,0,1.41l4.95,4.95c0.39,0.391,1.02,0.391,1.41,0l6.359-6.359c0.391-0.39,0.391-1.02,0-1.41l-4.949-4.95C13.779,1.902,13.15,1.902,12.76,2.292z"/>
</svg>
