<svg version="1.1" id="master" xmlns="http://www.w3.org/2000/svg" xmlns:xlink="http://www.w3.org/1999/xlink" x="0px" y="0px" width="24px" height="24px" viewBox="0 0 24 24" enable-background="new 0 0 24 24" xml:space="preserve">
<rect fill="none" width="24" height="24"/>
<path d="M21.995,17.695l-1.04-1.041l-1.051,1.041c-0.467,0.474-0.968,0.886-1.504,1.236c-0.535,0.35-1.093,0.643-1.673,0.88c-0.581,0.237-1.175,0.413-1.782,0.53s-1.221,0.176-1.838,0.176c-0.618,0-1.231-0.059-1.839-0.176s-1.201-0.291-1.781-0.525c-0.58-0.233-1.138-0.527-1.674-0.881c-0.535-0.354-1.036-0.764-1.504-1.23c-0.474-0.473-0.886-0.979-1.235-1.514c-0.351-0.535-0.644-1.094-0.881-1.674c-0.236-0.58-0.413-1.174-0.53-1.781c-0.116-0.607-0.175-1.22-0.175-1.838c0-0.618,0.059-1.23,0.175-1.838c0.117-0.607,0.294-1.201,0.53-1.782c0.237-0.58,0.53-1.138,0.881-1.673c0.35-0.536,0.762-1.04,1.235-1.514L7.351,3.04L6.31,2L5.26,3.04C4.717,3.583,4.241,4.165,3.833,4.786c-0.408,0.622-0.748,1.267-1.02,1.937C2.542,7.391,2.34,8.078,2.206,8.782s-0.201,1.409-0.201,2.116c0,0.714,0.067,1.421,0.201,2.122s0.336,1.385,0.607,2.055s0.609,1.313,1.015,1.932c0.405,0.617,0.879,1.197,1.421,1.74c0.543,0.542,1.124,1.018,1.746,1.426c0.621,0.408,1.267,0.748,1.936,1.02c0.67,0.271,1.354,0.475,2.055,0.607c0.7,0.135,1.407,0.201,2.122,0.201c0.707,0,1.412-0.066,2.116-0.201c0.703-0.133,1.391-0.336,2.06-0.607s1.313-0.611,1.931-1.02c0.618-0.408,1.198-0.884,1.741-1.426L21.995,17.695z M8.4,4.091l-1.05,1.05C6.554,5.938,5.958,6.835,5.563,7.834c-0.395,0.999-0.593,2.021-0.593,3.064c0,1.044,0.198,2.063,0.593,3.059c0.395,0.995,0.99,1.891,1.787,2.688c0.803,0.803,1.704,1.404,2.703,1.803s2.023,0.598,3.074,0.598c0.521,0,1.04-0.051,1.555-0.15s1.017-0.248,1.504-0.447s0.958-0.448,1.411-0.747c0.453-0.298,0.875-0.647,1.267-1.046l1.04-1.05L8.4,4.091z M9.193,15.842c-0.144,0.144-0.319,0.216-0.525,0.216c-0.205,0-0.381-0.072-0.524-0.216c-0.145-0.145-0.217-0.32-0.217-0.525c0-0.199,0.072-0.371,0.217-0.516c0.144-0.144,0.319-0.216,0.524-0.216c0.206,0,0.382,0.072,0.525,0.216c0.145,0.145,0.217,0.316,0.217,0.516C9.41,15.521,9.338,15.697,9.193,15.842z M9.193,11.403c-0.144,0.144-0.319,0.216-0.525,0.216c-0.205,0-0.381-0.072-0.524-0.216c-0.145-0.145-0.217-0.319-0.217-0.525s0.072-0.381,0.217-0.525c0.144-0.144,0.319-0.216,0.524-0.216c0.206,0,0.382,0.072,0.525,0.216c0.145,0.145,0.217,0.319,0.217,0.525S9.338,11.258,9.193,11.403z M9.193,7.706C9.05,7.85,8.874,7.922,8.668,7.922c-0.205,0-0.381-0.072-0.524-0.216C7.999,7.561,7.927,7.386,7.927,7.18s0.072-0.381,0.217-0.525c0.144-0.144,0.319-0.216,0.524-0.216c0.206,0,0.382,0.072,0.525,0.216C9.338,6.799,9.41,6.974,9.41,7.18S9.338,7.561,9.193,7.706z M13.633,15.842c-0.145,0.144-0.319,0.216-0.525,0.216s-0.382-0.072-0.525-0.216c-0.145-0.145-0.217-0.32-0.217-0.525c0-0.199,0.072-0.371,0.217-0.516c0.144-0.144,0.319-0.216,0.525-0.216s0.381,0.072,0.525,0.216c0.144,0.145,0.216,0.316,0.216,0.516C13.849,15.521,13.776,15.697,13.633,15.842z M13.633,11.403c-0.145,0.144-0.319,0.216-0.525,0.216s-0.382-0.072-0.525-0.216c-0.145-0.145-0.217-0.319-0.217-0.525s0.072-0.381,0.217-0.525c0.144-0.144,0.319-0.216,0.525-0.216s0.381,0.072,0.525,0.216c0.144,0.145,0.216,0.319,0.216,0.525S13.776,11.258,13.633,11.403z M18.071,15.842c-0.145,0.144-0.319,0.216-0.525,0.216s-0.381-0.072-0.525-0.216c-0.145-0.145-0.216-0.32-0.216-0.525c0-0.199,0.071-0.371,0.216-0.516c0.145-0.144,0.319-0.216,0.525-0.216s0.381,0.072,0.525,0.216c0.144,0.145,0.216,0.316,0.216,0.516C18.287,15.521,18.215,15.697,18.071,15.842z"/>
</svg>
