<svg version="1.1" id="master" xmlns="http://www.w3.org/2000/svg" xmlns:xlink="http://www.w3.org/1999/xlink" x="0px" y="0px" width="24px" height="24px" viewBox="0 0 24 24" enable-background="new 0 0 24 24" xml:space="preserve">
<rect fill="none" width="24" height="24"/>
<path d="M13.095,3.325c-0.188,0.002-0.375,0.011-0.563,0.025c-1.804,0.129-3.58,0.77-5.058,1.939c-1.829,1.443-2.747,3.604-2.914,5.875h0.001c-0.077,1.017-0.191,1.792-0.391,2.192c-0.198,0.399-0.35,0.531-1.033,0.532c-0.914-0.006-1.473,1.121-0.917,1.847c1.04,1.381,2.418,2.255,3.933,2.804c-0.018,0.101-0.027,0.203-0.027,0.306c0,1.012,0.821,1.831,1.833,1.831c0,0,0,0,0.001,0c0.84-0.002,1.571-0.575,1.773-1.391c1.089,0.101,2.173,0.117,3.187,0.084c0.304-0.01,0.609-0.037,0.912-0.077c0.205,0.813,0.936,1.382,1.772,1.384c1.012,0,1.833-0.818,1.833-1.83v-0.001c0-0.228-0.043-0.452-0.125-0.664c0.687-0.356,1.33-0.789,1.919-1.291c1.745-1.506,2.926-3.666,2.751-6.17c-0.093-1.436-0.634-2.749-1.456-3.84C18.74,4.496,15.918,3.289,13.095,3.325z M13.399,4.608c0.261,0.007,0.52,0.023,0.778,0.053c2.066,0.24,4.034,1.247,5.332,2.981v0.001c0.691,0.917,1.13,1.988,1.205,3.16v0.002c0.145,2.064-0.804,3.82-2.313,5.123c-0.601,0.513-1.266,0.943-1.979,1.279c-0.254-0.127-0.533-0.193-0.816-0.195c-0.674,0.001-1.293,0.371-1.611,0.965c-0.369,0.066-0.741,0.107-1.115,0.122c-1.105,0.04-2.211-0.002-3.31-0.123c-0.319-0.593-0.937-0.962-1.61-0.964c-0.407,0.001-0.802,0.137-1.123,0.387c-1.355-0.461-2.565-1.186-3.462-2.303c0.876-0.08,1.597-0.5,1.933-1.173c0.369-0.741,0.441-1.623,0.521-2.665v-0.001c0.146-1.993,0.925-3.78,2.434-4.97h0.001C9.738,5.118,11.578,4.569,13.399,4.608L13.399,4.608z M10.769,8.474c-0.573,0-1.043,0.482-1.043,1.082c0,0.6,0.47,1.081,1.043,1.081c0.574,0,1.043-0.481,1.043-1.081C11.812,8.963,11.343,8.474,10.769,8.474z M15.363,8.474c-0.572,0-1.041,0.482-1.041,1.082c-0.007,0.6,0.461,1.081,1.041,1.081c0.574,0,1.044-0.481,1.044-1.081C16.407,8.963,15.938,8.474,15.363,8.474z M10.034,11.817c-0.197,0.003-0.38,0.103-0.49,0.267c-0.091,0.13-0.125,0.293-0.091,0.449c0.287,1.486,1.813,2.607,3.554,2.607h0.104c0.881-0.025,1.688-0.285,2.347-0.768c0.64-0.463,1.075-1.097,1.231-1.781c0.033-0.156,0.005-0.319-0.078-0.456c-0.082-0.136-0.217-0.233-0.371-0.267c-0.319-0.078-0.642,0.117-0.72,0.436c-0.001,0.004-0.002,0.009-0.003,0.013c-0.184,0.775-1.082,1.583-2.445,1.617c-1.31,0.038-2.282-0.822-2.438-1.63C10.578,12.019,10.325,11.813,10.034,11.817z"/>
</svg>
