<svg version="1.1" id="master" xmlns="http://www.w3.org/2000/svg" xmlns:xlink="http://www.w3.org/1999/xlink" x="0px" y="0px" width="24px" height="24px" viewBox="0 0 24 24" enable-background="new 0 0 24 24" xml:space="preserve" fill="#654ff0">
<rect fill="none" width="24" height="24"/>
<path d="M14.289,2c0,0.035,0,0.071,0,0.109c0,1.266-1.028,2.292-2.294,2.292c-1.267,0-2.293-1.026-2.293-2.292c0-0.038,0-0.074,0-0.109H2.001v20h19.998V2H14.289z M11.545,19.859l-0.974-4.818h-0.016l-1.054,4.818H8.159l-1.52-7.08h1.326l0.906,4.818h0.017l1.093-4.818h1.239l0.981,4.878h0.017l1.034-4.878h1.302l-1.688,7.08H11.545z M18.841,19.859l-0.45-1.576h-2.385l-0.346,1.576h-1.328l1.715-7.08h2.09l2.082,7.08H18.841z M16.846,14.524l-0.579,2.599h1.799l-0.664-2.599H16.846z"/>
</svg>
