<svg version="1.1" id="master" xmlns="http://www.w3.org/2000/svg" xmlns:xlink="http://www.w3.org/1999/xlink" x="0px" y="0px" width="24px" height="24px" viewBox="0 0 24 24" enable-background="new 0 0 24 24" xml:space="preserve" fill="#00C70A">
<rect fill="none" width="24" height="24"/>
<path d="M8.289,8.367c-0.108-0.026-0.221-0.026-0.329,0C7.582,8.458,7.35,8.838,7.441,9.215c0.091,0.377,0.471,0.61,0.848,0.519c0.257-0.062,0.458-0.263,0.519-0.519C8.899,8.838,8.667,8.458,8.289,8.367z M11.766,9.734c0.257-0.062,0.458-0.263,0.519-0.519c0.091-0.377-0.142-0.757-0.519-0.848c-0.108-0.026-0.221-0.026-0.329,0c-0.378,0.091-0.61,0.471-0.519,0.848S11.388,9.825,11.766,9.734z M13.406,11.961c-0.1-0.026-0.202-0.026-0.301,0c-0.313,0.083-0.498,0.404-0.416,0.716c0.084,0.313,0.403,0.5,0.717,0.417c0.203-0.054,0.363-0.213,0.417-0.417C13.906,12.365,13.719,12.044,13.406,11.961z M16.297,11.961c-0.099-0.026-0.201-0.026-0.3,0c-0.313,0.083-0.499,0.404-0.416,0.716c0.083,0.313,0.403,0.5,0.716,0.417c0.203-0.054,0.363-0.213,0.417-0.417C16.797,12.365,16.609,12.044,16.297,11.961z M19,2H5C3.343,2,2,3.343,2,5v14c0,1.657,1.343,3,3,3h14c1.657,0,3-1.343,3-3V5C22,3.343,20.657,2,19,2z M8.328,14.5c-0.156-0.039-0.313,0-0.43,0.078l-1.172,0.664c-0.117,0.039-0.273-0.039-0.234-0.234l0.273-0.938c0.039-0.195-0.039-0.313-0.156-0.391c-1.094-0.781-1.758-1.954-1.758-3.243c0-2.383,2.305-4.336,5.156-4.336c2.578,0,4.728,1.602,5.117,3.633c-2.5-0.156-5.742,1.719-4.805,5C10.203,14.734,9.344,14.813,8.328,14.5z M17.703,16.414c-0.078,0.039-0.156,0.117-0.156,0.234l0.234,0.858c0.039,0.156-0.078,0.234-0.195,0.156l-0.977-0.547c-0.039-0.039-0.195-0.078-0.353-0.039c-0.43,0.116-0.897,0.194-1.405,0.194c-2.384,0-4.297-1.602-4.297-3.594c0-1.992,1.914-3.594,4.297-3.594c2.383,0,4.336,1.602,4.336,3.594C19.188,14.773,18.602,15.75,17.703,16.414z"/>
</svg>
