<svg version="1.1" id="master" xmlns="http://www.w3.org/2000/svg" xmlns:xlink="http://www.w3.org/1999/xlink" x="0px" y="0px" width="24px" height="24px" viewBox="0 0 24 24" enable-background="new 0 0 24 24" xml:space="preserve" fill="#00C70A">
<rect fill="none" width="24" height="24"/>
<path d="M6.796,7.077c-0.15-0.037-0.309-0.037-0.459,0C5.81,7.204,5.486,7.733,5.613,8.259C5.74,8.785,6.27,9.111,6.796,8.983C7.154,8.897,7.435,8.617,7.52,8.259C7.646,7.733,7.323,7.204,6.796,7.077z M11.646,8.983c0.358-0.086,0.639-0.366,0.724-0.724c0.126-0.526-0.198-1.056-0.724-1.182c-0.15-0.037-0.309-0.037-0.459,0c-0.527,0.126-0.851,0.656-0.724,1.182C10.59,8.785,11.119,9.111,11.646,8.983z M13.935,12.09c-0.139-0.036-0.282-0.036-0.42,0c-0.437,0.116-0.694,0.564-0.58,0.999c0.117,0.437,0.562,0.697,1,0.581c0.283-0.074,0.507-0.297,0.582-0.581C14.632,12.654,14.37,12.206,13.935,12.09z M17.967,12.09c-0.137-0.036-0.28-0.036-0.418,0c-0.438,0.116-0.696,0.564-0.58,0.999c0.115,0.437,0.563,0.697,0.998,0.581c0.284-0.074,0.507-0.297,0.582-0.581C18.665,12.654,18.403,12.206,17.967,12.09z M6.851,15.632c-0.218-0.055-0.437,0-0.6,0.109l-1.635,0.926c-0.163,0.055-0.38-0.054-0.326-0.326l0.381-1.309c0.055-0.272-0.055-0.437-0.218-0.545C2.926,13.397,2,11.761,2,9.963c0-3.324,3.216-6.049,7.192-6.049c3.597,0,6.595,2.235,7.139,5.068c-3.487-0.217-8.011,2.398-6.704,6.974C9.466,15.959,8.267,16.068,6.851,15.632z M19.929,18.303c-0.108,0.054-0.218,0.163-0.218,0.326l0.327,1.196c0.055,0.218-0.109,0.327-0.272,0.218l-1.362-0.763c-0.055-0.055-0.272-0.108-0.493-0.055c-0.6,0.161-1.251,0.271-1.959,0.271c-3.327,0-5.995-2.234-5.995-5.014c0-2.778,2.669-5.013,5.995-5.013c3.324,0,6.049,2.235,6.049,5.013C22,16.014,21.183,17.376,19.929,18.303z"/>
</svg>
