<svg version="1.1" id="master" xmlns="http://www.w3.org/2000/svg" xmlns:xlink="http://www.w3.org/1999/xlink" x="0px" y="0px" width="24px" height="24px" viewBox="0 0 24 24" enable-background="new 0 0 24 24" xml:space="preserve">
<rect fill="none" width="24" height="24"/>
<path d="M19.004,4.906C17.134,3.031,14.645,2,11.995,2c-5.464,0-9.911,4.447-9.911,9.911c0,1.746,0.456,3.45,1.322,4.956L2,22l5.254-1.379c1.447,0.789,3.076,1.205,4.737,1.205h0.004c5.461,0,10.005-4.446,10.005-9.91C22,9.268,20.875,6.781,19.004,4.906z M16.839,15.459c-0.205,0.58-1.19,1.107-1.669,1.18c-0.786,0.115-1.402,0.06-2.974-0.621c-2.486-1.076-4.107-3.577-4.232-3.742c-0.121-0.165-1.009-1.343-1.009-2.562c0-1.219,0.638-1.817,0.866-2.067c0.228-0.245,0.496-0.308,0.661-0.308s0.331,0,0.474,0.009C9.107,7.357,9.313,7.29,9.514,7.773c0.205,0.495,0.701,1.714,0.763,1.839c0.063,0.125,0.103,0.268,0.022,0.433c-0.473,0.946-0.982,0.915-0.727,1.353c0.961,1.647,1.915,2.218,3.372,2.946c0.244,0.125,0.392,0.102,0.535-0.063c0.146-0.17,0.621-0.725,0.785-0.975c0.166-0.248,0.332-0.209,0.561-0.125c0.225,0.079,1.443,0.68,1.689,0.805c0.245,0.121,0.41,0.184,0.469,0.293C17.045,14.383,17.045,14.879,16.839,15.459z"/>
</svg>
