<svg version="1.1" id="master" xmlns="http://www.w3.org/2000/svg" xmlns:xlink="http://www.w3.org/1999/xlink" x="0px" y="0px"
	 width="24px" height="24px" viewBox="0 0 24 24" enable-background="new 0 0 24 24" xml:space="preserve">
<rect fill="none" width="24" height="24"/>
<path d="M12,2C6.487,2,2,6.487,2,12c0,5.513,4.487,10,10,10c5.513,0,10-4.487,10-10C22,6.487,17.513,2,12,2z M12,3.667
	c1.38,0,2.663,0.369,3.81,0.963l-2.497,3.435c-0.414-0.138-0.848-0.23-1.313-0.23s-0.898,0.093-1.313,0.231L8.189,4.631
	C9.337,4.036,10.619,3.667,12,3.667z M3.667,12c0-2.32,0.949-4.416,2.48-5.926L8.66,9.528C8.148,10.223,7.833,11.072,7.833,12
	c0,0.014,0.002,0.024,0.005,0.039l-4.033,1.308C3.73,12.906,3.667,12.464,3.667,12z M10.75,20.206
	c-2.715-0.409-4.979-2.117-6.167-4.482l4.032-1.31c0.519,0.727,1.27,1.267,2.135,1.54V20.206z M12,13.667
	c-0.92,0-1.667-0.745-1.667-1.667c0-0.92,0.747-1.667,1.667-1.667c0.922,0,1.667,0.747,1.667,1.667
	C13.667,12.922,12.922,13.667,12,13.667z M13.25,20.206v-4.252c0.87-0.273,1.617-0.813,2.138-1.54l4.031,1.31
	C18.227,18.089,15.964,19.794,13.25,20.206z M16.163,12.037c0-0.013,0.004-0.023,0.004-0.037c0-0.928-0.315-1.779-0.826-2.472
	l2.516-3.454c1.526,1.51,2.477,3.606,2.477,5.926c0,0.461-0.063,0.906-0.138,1.348L16.163,12.037z"/>
</svg>
