<svg version="1.1" id="master" xmlns="http://www.w3.org/2000/svg" xmlns:xlink="http://www.w3.org/1999/xlink" x="0px" y="0px" width="24px" height="24px" viewBox="0 0 24 24" enable-background="new 0 0 24 24" xml:space="preserve">
<rect fill="none" width="24" height="24"/>
<path d="M17.365,14.537c0.808,0.151,1.446,0.79,1.598,1.598L17.365,14.537z M13.029,7.29c-0.01,0-0.01-0.01-0.02-0.01H13c-0.35-0.2-0.75-0.3-1.19-0.26c-0.522,0.044-0.972,0.297-1.293,0.669L14,11.172V11.05c1.29,1.07,3.25,1.94,5,1.95v-2c-1.54,0.02-3.09-0.75-4.07-1.83l-1.289-1.43C13.471,7.55,13.26,7.4,13.029,7.29z M12,6c1.104,0,2-0.896,2-2s-0.896-2-2-2c-1.104,0-2,0.896-2,2S10.896,6,12,6z M10,20c-1.66,0-3-1.34-3-3c0-1.311,0.84-2.41,2-2.83V12.1c-2.28,0.46-4,2.48-4,4.9c0,2.76,2.24,5,5,5c2.42,0,4.439-1.721,4.9-4h-2.07C12.42,19.16,11.31,20,10,20z M20.586,20.586L19,19l-2-2l-2.5-2.5L14,14l-4-4L3.414,3.414L2,4.828l8,8V15c0,1.1,0.9,2,2,2h2.172L17,19.828V22h2v-0.172L19.172,22L20.586,20.586z"/>
</svg>
