<svg version="1.1" id="master" xmlns="http://www.w3.org/2000/svg" xmlns:xlink="http://www.w3.org/1999/xlink" x="0px" y="0px"
	 width="24px" height="24px" viewBox="0 0 24 24" enable-background="new 0 0 24 24" xml:space="preserve">
<rect fill="none" width="24" height="24"/>
<path d="M10.444,7.615L8.27,5.441C13.008,4.15,18.282,5.353,22,9.069l-1.818,1.818C17.525,8.23,13.9,7.148,10.444,7.615z
	 M18.361,12.706c-1.511-1.513-3.43-2.37-5.405-2.579l3.992,3.993L18.361,12.706z M12.68,12.68l-2.433-2.433h0L8.163,8.164h0
	L6.191,6.192L3.414,3.415L2,4.829l2.363,2.363C3.527,7.724,2.73,8.34,2,9.069l1.818,1.818c0.736-0.736,1.553-1.333,2.415-1.826
	l1.903,1.903c-0.902,0.428-1.753,0.996-2.5,1.741l1.818,1.817c0.767-0.768,1.682-1.291,2.652-1.588l2.315,2.314
	c-1.122-0.121-2.287,0.23-3.148,1.093L12,19.068l2.12-2.119L19.171,22l1.414-1.414L12.68,12.68L12.68,12.68z"/>
</svg>
