<svg version="1.1" id="master" xmlns="http://www.w3.org/2000/svg" xmlns:xlink="http://www.w3.org/1999/xlink" x="0px" y="0px" width="24px" height="24px" viewBox="0 0 24 24" enable-background="new 0 0 24 24" xml:space="preserve">
<rect fill="none" width="24" height="24"/>
<path d="M19.158,10.131c-0.015,0.32-0.285,0.566-0.605,0.552c-0.319-0.015-0.565-0.285-0.552-0.604c0.015-0.32,0.285-0.566,0.604-0.552c0.3,0.014,0.539,0.253,0.553,0.552V10.131z M11.158,10.131c-0.014,0.32-0.285,0.566-0.605,0.552c-0.319-0.015-0.566-0.285-0.552-0.604c0.014-0.32,0.285-0.566,0.604-0.552c0.3,0.014,0.539,0.253,0.552,0.552V10.131z M5.316,7.605C3.485,7.605,2,9.09,2,10.921v2.158c0,1.831,1.485,3.315,3.316,3.315h13.369c1.831,0,3.315-1.484,3.315-3.315v-2.158c0-1.831-1.484-3.315-3.315-3.315H5.316z M18.105,11.079v3.158h0.947v-3.158H18.105z M13.947,9.658v4.58h1v-1.79h2.315V11.5h-2.315v-0.947h2.474V9.658H13.947z M4.684,9.658l0.685,2.948l0.895-2.948h0.79l0.895,3.053l0.737-3.053h0.895l-1.21,4.58H7.526l-0.895-3.158l-0.947,3.158h-0.79l-1.21-4.58H4.684z M11.053,11.079v3.158h-0.947v-3.158H11.053z M21.685,13.132c0,1.627-1.32,2.947-2.947,2.947H9.526c1.627,0,2.947-1.32,2.947-2.947v-2.263c0-1.628,1.32-2.948,2.947-2.948h3.316c1.627,0,2.947,1.32,2.947,2.948V13.132z M6.421,17.026c2.747,3.081,7.472,3.353,10.553,0.605c0.213-0.19,0.414-0.393,0.605-0.605H6.421z M17.579,6.974c-2.747-3.081-7.472-3.353-10.553-0.606C6.813,6.558,6.612,6.76,6.421,6.974H17.579z"/>
</svg>
