<svg version="1.1" id="master" xmlns="http://www.w3.org/2000/svg" xmlns:xlink="http://www.w3.org/1999/xlink" x="0px" y="0px" width="24px" height="24px" viewBox="0 0 24 24" enable-background="new 0 0 24 24" xml:space="preserve">
<rect fill="none" width="24" height="24"/>
<path d="M9.751,3.215c-0.986,0.017-2.16,0.266-3.617,0.866l-1.903,6.597c1.539-0.631,2.759-0.924,3.781-0.913c1.323,0.051,2.596,0.513,3.642,1.322l1.913-6.572C12.518,3.806,11.395,3.188,9.751,3.215L9.751,3.215z M14.543,5.216l-1.88,6.597c1.681,1.134,3.7,2.07,7.423,0.409L22,5.637h-0.035C18.09,7.239,16.21,6.339,14.543,5.216L14.543,5.216z M7.514,10.979c-0.987,0.015-2.159,0.261-3.612,0.858L2,18.455c3.875-1.602,5.719-0.666,7.398,0.457l1.938-6.631C10.287,11.571,9.159,10.953,7.514,10.979L7.514,10.979z M12.334,12.924l0.009,0.007l0.002-0.007H12.334z M12.343,12.931l-1.912,6.555c1.679,1.134,3.547,2.036,7.422,0.433l1.914-6.572C15.9,14.945,14.033,14.051,12.343,12.931L12.343,12.931z"/>
</svg>
