<svg version="1.1" id="master" xmlns="http://www.w3.org/2000/svg" xmlns:xlink="http://www.w3.org/1999/xlink" x="0px" y="0px" width="24px" height="24px" viewBox="0 0 24 24" enable-background="new 0 0 24 24" xml:space="preserve">
<rect fill="none" width="24" height="24"/>
<path d="M15.817,20.24c-1.439,0-2.765-0.494-3.817-1.321c-1.052,0.827-2.377,1.321-3.817,1.321C4.773,20.24,2,17.467,2,14.058V4.336h1.272v9.722c0,2.708,2.203,4.91,4.911,4.91c1.081,0,2.082-0.352,2.894-0.945c-0.9-1.073-1.442-2.458-1.442-3.965V6.126c0-1.305,1.061-2.366,2.366-2.366s2.366,1.062,2.366,2.366v7.932c0,1.507-0.543,2.892-1.443,3.965c0.813,0.594,1.813,0.945,2.895,0.945c2.707,0,4.91-2.202,4.91-4.91V4.336H22v9.722C22,17.467,19.227,20.24,15.817,20.24z M12,5.032c-0.603,0-1.093,0.49-1.093,1.094v7.932c0,1.168,0.41,2.241,1.093,3.087c0.684-0.846,1.094-1.919,1.094-3.087V6.126C13.094,5.522,12.603,5.032,12,5.032z"/>
</svg>
