<svg version="1.1" id="master" xmlns="http://www.w3.org/2000/svg" xmlns:xlink="http://www.w3.org/1999/xlink" x="0px" y="0px" width="24px" height="24px" viewBox="0 0 24 24" enable-background="new 0 0 24 24" xml:space="preserve">
<rect fill="none" width="24" height="24"/>
<path d="M3.784,16.284H6.11c1.066,0.616,2.136,1.216,3.206,1.8c1.07,0.582,2.146,1.176,3.226,1.779h7.484c-0.132-0.213-0.31-0.385-0.531-0.518c-0.223-0.133-0.459-0.199-0.711-0.199h-0.716c-0.788,0-1.529-0.15-2.222-0.451c-0.692-0.303-1.297-0.711-1.814-1.229c-0.517-0.517-0.926-1.121-1.228-1.813c-0.301-0.692-0.452-1.433-0.452-2.222v-0.716L14.51,2H8.068v7.147c0,0.192-0.071,0.358-0.214,0.497s-0.31,0.209-0.502,0.209s-0.359-0.07-0.502-0.209S6.637,9.339,6.637,9.147V2H5.206v10.02c-0.318,0.238-0.572,0.486-0.761,0.74c-0.188,0.256-0.331,0.525-0.428,0.811c-0.096,0.285-0.159,0.588-0.188,0.91c-0.03,0.321-0.045,0.668-0.045,1.039V16.284z M11.637,22h8.579v-1.422h-7.863c-1.066-0.615-2.137-1.216-3.211-1.799C8.068,18.196,6.995,17.604,5.921,17H3.784v5h1.422c0.126-0.596,0.248-1.189,0.367-1.779s0.235-1.186,0.348-1.789c0.955,0.604,1.905,1.199,2.854,1.789C9.722,20.811,10.676,21.404,11.637,22z"/>
</svg>
