<svg version="1.1" id="master" xmlns="http://www.w3.org/2000/svg" xmlns:xlink="http://www.w3.org/1999/xlink" x="0px" y="0px" width="24px" height="24px" viewBox="0 0 24 24" enable-background="new 0 0 24 24" xml:space="preserve">
<rect fill="none" width="24" height="24"/>
<path d="M19.823,16.284c0.312,0,0.6-0.052,0.864-0.153c0.266-0.104,0.496-0.249,0.691-0.438c0.195-0.189,0.348-0.414,0.457-0.676S22,14.465,22,14.147h-1.521c-0.159,0.238-0.316,0.478-0.473,0.716c-0.155,0.238-0.316,0.474-0.482,0.705h-5.377c-0.484,0-0.905-0.105-1.263-0.318c-0.358-0.211-0.656-0.486-0.895-0.824s-0.416-0.719-0.532-1.144c-0.116-0.424-0.174-0.851-0.174-1.282v-0.238l0.537-0.706c-0.318-0.497-0.713-0.949-1.184-1.357c-0.47-0.407-0.983-0.759-1.54-1.054C8.541,8.351,7.959,8.122,7.353,7.959S6.151,7.716,5.568,7.716H2v8.568h3.568v-5c0.729,0,1.362,0.136,1.898,0.408c0.537,0.272,0.982,0.636,1.337,1.093c0.355,0.457,0.618,0.989,0.791,1.596c0.172,0.606,0.258,1.24,0.258,1.903H19.823z M14.147,9.147c-0.358,0.477-0.713,0.954-1.063,1.431C12.732,11.056,12.371,11.53,12,12c0,0.325,0.04,0.656,0.119,0.994c0.08,0.338,0.207,0.646,0.383,0.924c0.176,0.279,0.399,0.506,0.671,0.682s0.597,0.264,0.975,0.264h5c0.238-0.358,0.477-0.716,0.716-1.074c0.238-0.357,0.474-0.715,0.705-1.073L14.147,9.147z"/>
</svg>
