<svg version="1.1" id="master" xmlns="http://www.w3.org/2000/svg" xmlns:xlink="http://www.w3.org/1999/xlink" x="0px" y="0px" width="24px" height="24px" viewBox="0 0 24 24" enable-background="new 0 0 24 24" xml:space="preserve">
<rect fill="none" width="24" height="24"/>
<path d="M15.248,21.293c0.021,0.051,0.047,0.094,0.071,0.14c-1.038,0.365-2.155,0.564-3.319,0.564v-0.002c-0.981,0-1.929-0.142-2.825-0.404l3-8.719L15.248,21.293z M2,12c0.001,3.96,2.302,7.377,5.635,8.999L2.866,7.931C2.312,9.173,2,10.55,2,12z M18.75,11.5c0-1.236-0.442-2.092-0.825-2.76c-0.507-0.822-0.982-1.521-0.982-2.346c0-0.918,0.697-1.773,1.68-1.773c0.047,0,0.089,0.006,0.132,0.008C16.973,2.997,14.604,2.003,12,2.003c-3.49,0-6.57,1.794-8.38,4.46C3.854,6.47,4.074,6.478,4.26,6.478c1.046,0,2.664-0.128,2.664-0.128C7.462,6.318,7.526,7.11,6.984,7.181c0,0-0.543,0.064-1.144,0.092l3.643,10.819l2.196-6.563l-1.557-4.27C9.58,7.232,9.079,7.176,9.079,7.176C8.535,7.148,8.606,6.327,9.147,6.354c0,0,1.656,0.14,2.642,0.14c1.043,0,2.668-0.125,2.668-0.125c0.541-0.027,0.603,0.765,0.065,0.834c0,0-0.543,0.069-1.143,0.097l3.612,10.749l0.996-3.323C18.422,13.349,18.75,12.349,18.75,11.5z M17.027,20.644C20.001,18.911,22,15.688,22,12.001c0-1.738-0.444-3.373-1.224-4.797c0.041,0.303,0.065,0.651,0.066,1.027c0,1.013-0.19,2.154-0.762,3.581L17.027,20.644z"/>
</svg>
