<svg version="1.1" id="master" xmlns="http://www.w3.org/2000/svg" xmlns:xlink="http://www.w3.org/1999/xlink" x="0px" y="0px" width="24px" height="24px" viewBox="0 0 24 24" enable-background="new 0 0 24 24" xml:space="preserve">
<rect fill="none" width="24" height="24"/>
<path d="M12.018,3.177c-0.887,0-0.51,1.314-0.439,1.743c0,0.021,0.071,2.976,0.085,3.649c0.135-0.036,0.269-0.068,0.397-0.1l0.268-0.067c0.013-0.651,0.078-3.472,0.08-3.486C12.467,4.457,12.931,3.177,12.018,3.177z M11.758,13.21c0.1-0.033,0.199-0.063,0.288-0.092l0.191-0.061c0-0.189,0.057-2.81,0.067-3.285c-0.207,0.047-0.41,0.105-0.61,0.176C11.702,10.305,11.753,12.925,11.758,13.21L11.758,13.21z M12.085,14.204c-0.034,0.012-0.12,0.049-0.175,0.067c-0.054,0.019-0.131,0.05-0.131,0.07s0.056,3.017,0.056,3.083c0,0.619,0.315,0.623,0.315,0c0-0.045,0.063-3.264,0.063-3.264S12.139,14.187,12.085,14.204L12.085,14.204z M11.372,5.748c-0.239,0.075-0.471,0.17-0.694,0.282c-0.248,0.083-0.595,0.1-0.959,0.49c-0.118,0.136-0.228,0.277-0.33,0.425C9.279,7.103,9.274,7.354,9.19,7.489C9.075,7.688,9.103,7.798,9.103,7.798v0.006C9.082,7.897,9.036,7.981,8.97,8.05C8.859,8.188,8.684,8.259,8.508,8.235c0.165,0.082,0.396-0.033,0.396-0.033C8.869,8.31,8.84,8.419,8.817,8.529c0.185-0.417,0.354-0.57,0.407-0.612c0.08,0.018,0.244,0.01,0.55-0.165c0.345-0.198,0.864-0.521,1.011-0.726c0.155-0.209,0.367-0.369,0.611-0.461C11.384,6.251,11.378,5.979,11.372,5.748L11.372,5.748z M9.916,7.053L9.737,7.091l0.214-0.344l0.25,0.008L9.916,7.053z M10.982,14.253c0,0.389,0.288,0.595,0.574,0.76c0-0.064-0.012-0.667-0.012-0.677c0.006-0.12,0.122-0.192,0.216-0.237c0.148-0.065,0.3-0.123,0.455-0.174c0.085-0.029,0.158-0.059,0.239-0.082c0.576-0.174,1.241-0.396,1.241-1.091s-0.57-0.992-1.19-1.203c0,0.224-0.011,0.55-0.016,0.774c0.264,0.1,0.438,0.229,0.438,0.429c0,0.251-0.268,0.396-0.457,0.468c-0.077,0.029-0.155,0.057-0.233,0.082c-0.153,0.047-0.318,0.099-0.471,0.158c-0.08,0.029-0.157,0.063-0.233,0.1C11.26,13.696,10.981,13.897,10.982,14.253L10.982,14.253z M14.795,7.462c0-0.712-0.516-1.502-1.78-1.78c-0.127-0.022-0.256-0.038-0.386-0.044c0,0.106-0.008,0.353-0.008,0.353c0,0.077-0.008,0.362-0.01,0.423c0.082,0.006,0.163,0.018,0.243,0.034c0.735,0.176,0.998,0.595,0.998,1.015c0,0.675-0.578,0.93-1.29,1.122l-0.235,0.062c-0.215,0.054-0.436,0.105-0.655,0.164c-0.078,0.021-0.156,0.043-0.233,0.066c-0.786,0.24-1.463,0.619-1.463,1.586c0,0.969,0.771,1.324,1.524,1.556c-0.004-0.276-0.01-0.556-0.016-0.835c-0.333-0.156-0.566-0.361-0.566-0.706s0.213-0.542,0.54-0.694c0.076-0.034,0.153-0.064,0.232-0.09c0.188-0.064,0.397-0.119,0.62-0.172l0.235-0.057C13.605,9.216,14.795,8.884,14.795,7.462z M12.422,15.408c0.357,0.181,0.686,0.431,0.824,0.903c0.061-0.783-0.378-1.123-0.814-1.352L12.422,15.408L12.422,15.408z M18.267,6.407c0.383,0.457,1.052,0.726,1.444,1.184c-0.281-1.353-1.324-2.457-2.558-2.721C17.755,5.323,17.885,5.954,18.267,6.407L18.267,6.407z M3.436,9.835c0.85-1.85,2.119-1.459,2.655-3.221C5.794,7.155,4.405,7.383,3.76,8.769c0.328-0.823,0.164-2.083,0.719-2.762C2.818,7.231,3.525,9.213,3.436,9.835z M4.976,14.271c0.153,0.72-0.297,1.759,0.417,2.753c-0.738-0.826-2.301-1.037-2.938-2.295c0.793,3.074,2.876,2.439,3.808,3.107C5.492,16.731,6.122,15.996,4.976,14.271L4.976,14.271z M4.737,16.2c-0.456-1.717,0.356-2.312-0.264-3.958c-0.064,0.929-0.683,1.38-0.266,3.075C3.47,13.882,2.33,13.347,2,12.36C2.023,15.058,4.189,15.456,4.737,16.2z M8.063,19.077c-0.638-0.883-0.199-1.382-1.994-2.984c0.379,0.585-0.012,1.32,1.196,2.465c-1.182-0.693-2.813-0.396-3.599-1.33c1.351,2.586,3.724,1.531,4.397,1.853V19.077z M16.734,18.558c1.208-1.145,0.817-1.884,1.196-2.465c-1.791,1.603-1.355,2.102-1.993,2.984c0.672-0.322,3.046,0.734,4.396-1.85c-0.785,0.936-2.416,0.637-3.598,1.334V18.558z M18.608,17.022c0.711-0.992,0.264-2.034,0.417-2.754c-1.146,1.725-0.517,2.459-1.29,3.57c0.937-0.668,3.011-0.035,3.808-3.107c-0.636,1.256-2.197,1.467-2.935,2.293V17.022z M15.746,19.199c-0.64-0.173-1.297-0.272-1.959-0.298c-0.609-0.015-1.215,0.088-1.786,0.304c-0.57-0.216-1.176-0.318-1.785-0.304c-0.662,0.025-1.319,0.125-1.959,0.297c-1.078,0.287-2.01,0.51-2.822,0.1c0.778,0.695,1.686,0.938,2.998,0.794c1.091-0.117,1.975-0.663,3.004-0.655h0.041c-0.647,0.324-1.225,0.771-1.698,1.32l0.496,0.066c0,0,0.522-1.051,1.725-1.324c1.202,0.273,1.725,1.324,1.725,1.324l0.496-0.066c-0.475-0.545-1.051-0.992-1.698-1.314h0.041c1.029-0.008,1.911,0.539,3.003,0.656c1.312,0.142,2.221-0.105,3-0.793c-0.813,0.405-1.744,0.184-2.822-0.104L15.746,19.199z M4.546,10.38c-0.444,0.854-1.135,1.049-1.058,2.814c-0.375-1.569-1.266-2.15-1.255-3.151c-0.619,2.608,1.036,2.918,1.46,4.011C3.63,12.487,4.63,12.171,4.546,10.38L4.546,10.38z M5.167,8.366C5.012,8.583,4.904,8.675,4.492,9.016c-0.62,0.491-1.045,1.186-1.202,1.96c0.042-0.955-0.549-2.329-0.156-3.331c-1.521,2.147,0.087,3.435,0.144,4.212C3.672,10.359,4.579,10.348,5.167,8.366z M20.709,10.977c-0.157-0.774-0.582-1.47-1.201-1.961c-0.413-0.341-0.521-0.433-0.675-0.649c0.588,1.984,1.495,1.993,1.884,3.49c0.057-0.777,1.665-2.064,0.143-4.212C21.257,8.646,20.667,10.021,20.709,10.977z M21.999,12.365c-0.33,0.985-1.47,1.521-2.207,2.96c0.417-1.699-0.198-2.15-0.266-3.075c-0.62,1.648,0.198,2.241-0.264,3.958c0.549-0.752,2.715-1.15,2.738-3.848L21.999,12.365z M19.457,10.38c-0.084,1.791,0.917,2.107,0.853,3.67c0.425-1.091,2.083-1.402,1.46-4.011c0.012,1.001-0.879,1.587-1.251,3.146C20.588,11.429,19.898,11.233,19.457,10.38L19.457,10.38z M5.735,6.413C6.119,5.956,6.249,5.329,6.85,4.876C5.616,5.14,4.569,6.243,4.292,7.595c0.386-0.462,1.057-0.73,1.439-1.188L5.735,6.413z M17.913,6.619c0.537,1.763,1.805,1.37,2.654,3.221c-0.088-0.622,0.619-2.604-1.042-3.829c0.556,0.681,0.391,1.939,0.719,2.763c-0.648-1.391-2.034-1.618-2.336-2.159L17.913,6.619z M13.605,7.614C13.28,7.481,12.938,7.39,12.59,7.343v0.226c0.32,0.047,0.633,0.133,0.932,0.256C13.563,7.761,13.591,7.689,13.605,7.614L13.605,7.614z M13.348,5.433l0.067-0.061l-0.129-0.055l-0.339-0.007l-0.088,0.062l-0.198-0.017v0.048c0.117,0.007,0.233,0.02,0.349,0.037l0.166-0.015L13.348,5.433z M12.69,12.747c0-0.057-0.076-0.113-0.189-0.167H12.48c0,0.047,0,0.276-0.007,0.39C12.613,12.907,12.69,12.839,12.69,12.747L12.69,12.747z M8.761,8.433C8.768,8.392,8.777,8.351,8.789,8.31C8.744,8.319,8.697,8.324,8.65,8.323L8.761,8.433z M12.007,18.411c3.821-0.014,6.908-3.123,6.895-6.943c-0.013-3.529-2.68-6.484-6.189-6.856c0,0.013,0,0.026-0.008,0.04c-0.014,0.067-0.027,0.128-0.037,0.182c1.519,0.148,2.941,0.814,4.03,1.885l-0.764,0.764l0.029-0.135l-0.099-0.045l-0.137-0.008l0.028-0.088l-0.092-0.313l-0.19-0.209L14.877,6.37l-0.052,0.055l-0.108,0.031c0.203,0.295,0.313,0.645,0.315,1.003v0.136l0.297,0.372l-0.139,0.032l0.092,0.139l-0.261,0.26l-0.105-0.198c-0.05,0.138-0.116,0.269-0.198,0.39l0.059,0.054l-0.805,0.804c-0.048-0.046-0.099-0.09-0.151-0.133c-0.077,0.035-0.156,0.068-0.236,0.099l0.068,0.054l-0.041,0.041L13.516,9.56l-0.035,0.099L13.422,9.6l-0.169,0.057l0.046,0.074l0.117-0.03l0.076,0.006l0.006-0.042l0.059-0.03L13.575,9.6l0.105-0.03h0.083c0.016,0.015,0.033,0.029,0.047,0.045l-0.323,0.307l-0.024-0.033L13.13,9.942l-0.075,0.074l-0.072,0.008l0.207-0.197L13.116,9.79l-0.193,0.258l0.057-0.006v0.1l0.07,0.027l0.014,0.1l-0.116-0.023l-0.121,0.021l-0.297-0.149l-0.024,1.181c0.694,0.232,1.423,0.567,1.423,1.448c0.005,0.374-0.182,0.726-0.496,0.931l-0.015,0.01l-0.022,0.015c-0.28,0.185-0.639,0.284-0.95,0.381l-0.009,0.616c0.496,0.246,1.096,0.604,1.041,1.629c-0.007,0.252-0.105,0.322-0.189,0.345c-0.293,0.073-0.592,0.12-0.893,0.142v0.225c1.293-0.088,2.514-0.627,3.45-1.523l0.804,0.804c-2.581,2.487-6.664,2.495-9.254,0.019l0.804-0.803c0.926,0.878,2.128,1.408,3.401,1.502v-0.225c-1.214-0.092-2.36-0.6-3.245-1.436l0.214-0.215l0.298,0.033l0.157-0.168l0.411,0.014l0.061-0.142l-0.015-0.061c0.607,0.466,1.331,0.755,2.092,0.836v-0.226c-0.842-0.096-1.632-0.457-2.253-1.034l0.804-0.804c0.196,0.174,0.416,0.322,0.652,0.438c0.017-0.074,0.044-0.146,0.082-0.212c-0.208-0.103-0.401-0.232-0.575-0.386l0.807-0.806c0.129,0.104,0.274,0.185,0.431,0.239v-0.242c-0.095-0.041-0.185-0.094-0.266-0.158l0.227-0.227c-0.081-0.023-0.161-0.05-0.24-0.077l-0.153,0.152c-0.077-0.086-0.142-0.183-0.192-0.286c-0.138-0.061-0.271-0.131-0.396-0.213c-0.478-0.287-0.765-0.809-0.753-1.367c-0.014-0.373,0.101-0.74,0.325-1.041L9.267,8.624c0.589-0.564,1.339-0.934,2.146-1.056c0-0.077,0-0.153-0.005-0.226c-0.865,0.125-1.669,0.518-2.3,1.124L8.972,8.334c-0.038,0.069-0.074,0.139-0.108,0.21L8.949,8.63c-0.714,0.758-1.12,1.755-1.137,2.796H6.675c0.018-1.345,0.545-2.633,1.475-3.604l0.361,0.361c0.017,0.002,0.034,0.002,0.052,0c0.071-0.006,0.141-0.025,0.205-0.059L8.309,7.665c0.244-0.236,0.509-0.447,0.793-0.633c0.016-0.057,0.035-0.113,0.057-0.167C9.212,6.784,9.27,6.706,9.332,6.632c-0.431,0.237-0.829,0.53-1.183,0.872L7.346,6.7c1.077-1.053,2.479-1.711,3.978-1.865c-0.004-0.016-0.007-0.032-0.01-0.049c-0.01-0.053-0.021-0.111-0.033-0.172c-3.8,0.402-6.554,3.811-6.151,7.611c0.373,3.516,3.337,6.186,6.873,6.189L12.007,18.411z M13.506,13.636V13.63V13.636z M16.856,6.879c1.172,1.226,1.833,2.851,1.85,4.547h-1.142c-0.01-0.845-0.214-1.675-0.595-2.429l0.01-0.02l0.079,0.042l0.019-0.061l-0.198-0.356L16.637,8.27l-0.286-0.233c-0.099-0.121-0.198-0.238-0.304-0.351L16.856,6.879z M15.403,8.334l0.273,0.013l0.065,0.078L15.708,8.54l0.376,0.238l0.074-0.009l0.486,0.556l0.198-0.07c0.317,0.681,0.486,1.42,0.496,2.171h-1.137c-0.005-0.292-0.041-0.581-0.106-0.864l0.053-0.071l0.07-0.356l-0.053-0.383l-0.137-0.439l-0.317-0.465l0.078,0.041l0.039-0.039l-0.255-0.172l-0.017,0.057l0.255,0.363l0.144,0.297l0.099,0.299l0.033,0.197l0.053,0.336l-0.099,0.007c0,0-0.11-0.205-0.144-0.29l0.051-0.076l-0.099-0.139V9.589l-0.07-0.088l-0.086,0.012c-0.031-0.059-0.064-0.115-0.099-0.17l0.061,0.031l0.016-0.017l-0.033-0.071l0.074-0.041l-0.034-0.043l-0.11,0.043l0.041-0.174l-0.065-0.037l-0.059,0.138c-0.124-0.186-0.262-0.361-0.414-0.525L15.403,8.334z M15.175,10.999l0.205-0.111l0.208-0.031l0.046-0.1l0.116-0.069l0.045-0.099l0.036-0.168c0.017,0.06,0.032,0.119,0.045,0.18l-0.11,0.328v0.111l0.16-0.213c0.034,0.195,0.053,0.395,0.057,0.595h-0.992l-0.022-0.087l0.116-0.092l0.023-0.056l0.051-0.038l0.135-0.014l0.014-0.059L15.175,10.999z M13.81,10.219l0.099-0.024v-0.023l-0.099-0.068l0.035-0.215l0.122-0.121c0.076,0.086,0.147,0.178,0.211,0.274l-0.043,0.132l-0.111-0.079l-0.084,0.022l0.042,0.078h0.042l-0.047,0.117l-0.032-0.047L13.81,10.219z M14.246,13.995L14,13.925l-0.073,0.027l-0.139-0.106L13.656,13.8c0.064-0.047,0.127-0.1,0.188-0.147l0.198,0.144l0.155,0.08l0.077,0.077L14.246,13.995z M14.121,9.608l0.804-0.805c0.188,0.205,0.354,0.43,0.496,0.669l-0.099,0.028l0.005,0.18l0.297,0.189c0.075,0.165,0.138,0.335,0.188,0.508l-0.052,0.078l-0.109,0.068l-0.026,0.168l-0.075,0.041l-0.063,0.073l-0.063-0.022h-0.111l0.064-0.088l0.046-0.227l0.073-0.046l-0.207-0.214l-0.162,0.055l-0.037,0.152l-0.099,0.109l-0.106-0.086l-0.038-0.094l0.061-0.038l0.034,0.062l0.049-0.019l-0.021-0.099h-0.07l-0.005,0.041l-0.046,0.009l-0.253-0.296l-0.085-0.064l0.033-0.036L14.62,9.88L14.55,9.853c0,0-0.088,0.02-0.1,0.02l0.051,0.064h-0.127C14.298,9.82,14.213,9.711,14.121,9.608L14.121,9.608z M14.53,13.889l-0.109-0.109l0.083-0.108l0.105-0.214l-0.041-0.06l0.069-0.158l-0.008-0.143l-0.042-0.148l-0.099-0.035l-0.037,0.084l-0.06-0.016c0.091-0.132,0.171-0.271,0.238-0.416l0.099-0.044l0.058-0.077l0.028,0.031l0.069-0.083l-0.056-0.069l0.051-0.014l0.093,0.037h0.175l0.106-0.055l0.277-0.074l-0.052-0.092l-0.018-0.112l0.149,0.065l0.056-0.033l-0.028-0.114l-0.18,0.072l-0.198-0.042l-0.153-0.313h0.87c-0.038,0.968-0.428,1.889-1.098,2.588l-0.119-0.121l0.052-0.159l-0.093-0.353L14.53,13.889z M14.684,16.107l0.107-0.23l-0.042-0.099l0.158-0.139v-0.084l-0.135-0.084l0.111-0.221l0.167-0.219l-0.167-0.18h-0.125l-0.077-0.126c0.067-0.056,0.133-0.112,0.198-0.171l0.804,0.804C15.381,15.647,15.045,15.898,14.684,16.107L14.684,16.107z M15.688,15.046l0.089-0.1l-0.084-0.439l-0.058-0.023l0.036-0.074l-0.19-0.06l-0.037,0.157l-0.019,0.197l-0.04,0.037l-0.347-0.347c0.712-0.741,1.126-1.718,1.165-2.745h1.138c-0.038,1.329-0.572,2.596-1.498,3.549L15.688,15.046z M16.001,15.358c0.968-0.996,1.526-2.319,1.564-3.707h1.137c-0.038,1.689-0.716,3.302-1.896,4.512L16.001,15.358z M9.157,14.257c-0.082-0.086-0.161-0.174-0.236-0.266l0.035-0.288l-0.12-0.276l-0.03-0.432l-0.135-0.262l0.028-0.162l-0.163-0.313l-0.142-0.071l0.058-0.165l-0.059-0.131l0.059-0.15h0.156l0.054-0.09h0.266l0.041,0.078l-0.049,0.274l-0.032,0.047l0.099,0.217l-0.065,0.036l-0.046-0.058l-0.02,0.021l0.046,0.13l0.078,0.15h0.037l0.025-0.146l-0.038-0.051V12.26l-0.012-0.188l0.049-0.331l-0.053-0.089h0.19c0.037,0.674,0.314,1.314,0.782,1.802L9.157,14.257z M8.403,12.034l-0.107,0.168H8.112l-0.015-0.011c-0.032-0.179-0.051-0.359-0.058-0.54h0.342l-0.083,0.273L8.403,12.034z M8.777,11.253l0.021-0.227l0.135-0.078l0.241,0.043l0.037,0.043c-0.022,0.13-0.034,0.261-0.037,0.392H8.901L8.777,11.253z M9.935,12.103l0.056-0.028l0.142,0.112l-0.064,0.053l0.167,0.111l-0.004-0.119l0.089-0.148l0.093,0.1l0.099,0.137l-0.183,0.037l0.079,0.157l0.12-0.063l-0.012-0.049l0.089-0.061l0.052-0.248c0.065,0.145,0.153,0.279,0.261,0.396l-0.803,0.803c-0.394-0.412-0.642-0.942-0.705-1.51l0.165,0.176h0.155L9.935,12.103z M9.108,8.784l0.803,0.805C9.743,9.774,9.599,9.98,9.484,10.202H9.429l-0.113,0.035h-0.04l-0.12,0.112l0.152-0.032l0.137-0.034l-0.024,0.052l-0.12,0.074H9.241l-0.177,0.135l-0.17-0.014l-0.247,0.46l0.048,0.093l-0.134,0.148L8.541,11.43H8.037C8.052,10.445,8.434,9.503,9.108,8.784z M8.069,14.85l0.255,0.149l0.052,0.036L8.192,15.22c-0.086-0.09-0.169-0.182-0.25-0.277L8.069,14.85z M7.814,11.651c0,0.109,0.014,0.22,0.026,0.328l-0.139,0.031l-0.029,0.141l-0.29,0.369l0.007,0.507l-0.297,0.1H6.93c-0.154-0.478-0.24-0.976-0.254-1.478L7.814,11.651z M6.691,13.12l-0.066-0.012l-0.063-0.07L6.243,13.01l0.099,0.134l-0.297-0.056l0.077-0.071L6.05,12.945l-0.213,0.093L5.76,13.179l0.03,0.324l0.246,0.584l0.118,0.185l0.067,0.024l-0.186-0.352l-0.041-0.18l0.042-0.044l-0.025-0.099l0.112,0.015l0.172,0.26l0.042,0.017v-0.189l0.069,0.041l0.015,0.1l0.18,0.047l0.076-0.053l0.026,0.018v0.138l0.079,0.099l0.099,0.021l0.21,0.357l0.128,0.035l0.04-0.167c0.222,0.366,0.484,0.706,0.784,1.012L7.24,16.175c-1.194-1.208-1.883-2.826-1.926-4.523h1.138C6.465,12.149,6.545,12.644,6.691,13.12L6.691,13.12z M7.188,6.858l0.803,0.805c-0.972,1.014-1.522,2.358-1.542,3.763H5.313c0.017-1.705,0.686-3.339,1.87-4.567H7.188z M15.42,6.444l-0.068-0.111l-0.149-0.074l-0.116,0.088l0.149,0.08l0.16,0.122L15.42,6.444z M14.725,9.653V9.74l0.198-0.058l0.061-0.121l-0.136-0.178l0.072-0.109l0.184,0.131l0.034-0.027l-0.037-0.025l-0.042-0.079l0.075-0.044l-0.073-0.1l-0.173,0.088l-0.058,0.107L14.796,9.42l0.077,0.128l-0.028,0.06L14.725,9.653z M6.502,14.753l0.015-0.051l-0.099-0.223l-0.121-0.045L6.502,14.753z M11.152,10.48c0,0.19,0.116,0.325,0.327,0.441v-0.085l-0.133-0.133l0.07-0.129l0.058-0.016c0-0.223-0.009-0.471-0.01-0.507h-0.01C11.258,10.162,11.152,10.293,11.152,10.48L11.152,10.48z"/>
</svg>
