<svg version="1.1" id="master" xmlns="http://www.w3.org/2000/svg" xmlns:xlink="http://www.w3.org/1999/xlink" x="0px" y="0px"
	 width="24px" height="24px" viewBox="0 0 24 24" enable-background="new 0 0 24 24" xml:space="preserve">
<rect fill="none" width="24" height="24"/>
<path d="M22,18.25C21.416,18.167,19.917,18,19.75,18c-0.083,0-2.333,1.917-3.334,2.833l-0.082,0.084
	c0.082-1.083,0.249-2.167,0.332-3.251C11.75,17.083,6.917,16.5,2,15.917V3.25V3.083h0.25C2.75,3.167,21.084,5.25,22,5.333V18.25z
	 M19.834,16.084V7.167C14.583,6.583,9.25,5.917,4,5.333v8.833C9.25,14.834,14.583,15.416,19.834,16.084z"/>
</svg>
