<svg version="1.1" id="master" xmlns="http://www.w3.org/2000/svg" xmlns:xlink="http://www.w3.org/1999/xlink" x="0px" y="0px" width="24px" height="24px" viewBox="0 0 24 24" enable-background="new 0 0 24 24" xml:space="preserve">
<rect fill="none" width="24" height="24"/>
<path d="M21.346,16.612c-0.104-0.833-0.808-1.409-1.716-1.4c-1.348,0.021-2.482,0.72-3.237,1.179c-0.293,0.183-0.545,0.317-0.761,0.416c0.192-2.728-1.379-4.48-1.759-4.868c0.479-0.693,1.128-1.704,1.436-3.26c0.263-1.33,0.185-3.401-0.425-4.566c-0.095-0.19-0.452-0.688-1.286-0.455c-0.594-1.225-0.796-1.354-0.955-1.458c-0.068-0.044-1.447-1.006-2.538,1.716C9.356,3.971,8.186,4.24,7.194,5.313C7.07,5.45,6.832,5.549,6.573,5.647h0.006C6.065,5.83,5.827,6.254,5.544,7.014C5.146,8.081,5.556,9.134,5.961,9.815c-1.092,0.975-2.268,2.44-2.188,5.056c-2.084,2.205-0.724,4.474-0.343,4.88c-0.098,0.679,0.226,1.188,0.735,1.458c0.772,0.411,1.857,0.588,2.69,0.171C7.157,21.699,7.703,22,8.695,22c0.417,0,3.554-0.178,4.45-0.399c0.417-0.098,0.705-0.277,0.896-0.437c0.6-0.189,2.253-0.752,3.812-1.757c1.104-0.719,1.484-0.87,2.304-1.067C20.948,18.146,21.442,17.415,21.346,16.612z"/>
</svg>
