<svg version="1.1" id="master" xmlns="http://www.w3.org/2000/svg" xmlns:xlink="http://www.w3.org/1999/xlink" x="0px" y="0px" width="24px" height="24px" viewBox="0 0 24 24" enable-background="new 0 0 24 24" xml:space="preserve">
<rect fill="none" width="24" height="24"/>
<path d="M16.466,19.49H7.447c-0.255,0-0.425-0.171-0.425-0.427c0-0.254,0.17-0.425,0.425-0.425h9.106c0.255,0,0.426,0.171,0.426,0.425c0,0.256-0.255,0.425-0.511,0.425L16.466,19.49z M3.362,4.51C2.595,4.51,2,5.108,2,5.873V16.34c0,0.767,0.595,1.361,1.361,1.361h17.275c0.767,0,1.363-0.595,1.363-1.36V5.873c0-0.767-0.597-1.363-1.363-1.363H3.362z M9.915,8.171l5.192,2.893l-5.192,2.98V8.171z"/>
</svg>
