<svg version="1.1" id="master" xmlns="http://www.w3.org/2000/svg" xmlns:xlink="http://www.w3.org/1999/xlink" x="0px" y="0px" width="24px" height="24px" viewBox="0 0 24 24" enable-background="new 0 0 24 24" xml:space="preserve">
<rect fill="none" width="24" height="24"/>
<path d="M9.981,15.005L15.005,12L9.981,8.995V15.005z M19.464,12.986l2.113,1.643c0.22,0.156,0.25,0.376,0.094,0.657l-2.018,3.475c-0.126,0.219-0.329,0.282-0.61,0.188l-2.489-0.986c-0.657,0.471-1.221,0.799-1.689,0.986l-0.376,2.63C14.425,21.859,14.269,22,14.019,22H9.981c-0.25,0-0.407-0.141-0.469-0.422l-0.375-2.63c-0.595-0.25-1.159-0.579-1.691-0.986l-2.488,0.986c-0.281,0.095-0.485,0.031-0.61-0.188L2.33,15.286c-0.156-0.281-0.125-0.501,0.094-0.657l2.112-1.643C4.504,12.768,4.489,12.439,4.489,12c0-0.439,0.016-0.768,0.047-0.986L2.423,9.371c-0.219-0.157-0.25-0.376-0.094-0.658l2.019-3.474c0.125-0.219,0.329-0.281,0.61-0.188l2.488,0.986c0.657-0.469,1.22-0.798,1.69-0.986l0.376-2.629C9.575,2.141,9.731,2,9.981,2h4.037c0.25,0,0.406,0.141,0.47,0.422l0.375,2.629c0.596,0.25,1.158,0.579,1.69,0.986l2.489-0.986c0.281-0.094,0.484-0.031,0.61,0.188l2.018,3.475c0.156,0.281,0.126,0.5-0.094,0.657l-2.112,1.643c0.031,0.219,0.047,0.547,0.047,0.986C19.512,12.438,19.496,12.767,19.464,12.986L19.464,12.986z"/>
</svg>
