<svg version="1.1" id="master" xmlns="http://www.w3.org/2000/svg" xmlns:xlink="http://www.w3.org/1999/xlink" x="0px" y="0px"
	 width="24px" height="24px" viewBox="0 0 24 24" enable-background="new 0 0 24 24" xml:space="preserve">
<rect fill="none" width="24" height="24"/>
<path d="M18.252,12.626c0.517,0,1.002,0.099,1.457,0.296s0.852,0.465,1.191,0.805c0.339,0.339,0.606,0.736,0.804,1.191
	S22,15.857,22,16.374v2.505c0,0.33-0.08,0.637-0.239,0.921s-0.378,0.511-0.656,0.679c-0.168,0.255-0.374,0.461-0.617,0.617
	c-0.244,0.156-0.522,0.246-0.835,0.27c0,0.018-0.021,0.047-0.065,0.087c-0.043,0.04-0.091,0.079-0.144,0.117
	c-0.052,0.038-0.104,0.074-0.156,0.108c-0.053,0.035-0.087,0.059-0.104,0.07c-0.15,0.081-0.302,0.143-0.452,0.187
	S18.42,22,18.252,22H5.748c-0.278,0-0.535-0.055-0.77-0.165c-0.235-0.11-0.445-0.267-0.631-0.47
	c-0.324-0.023-0.605-0.111-0.844-0.266c-0.237-0.153-0.44-0.36-0.608-0.621c-0.278-0.168-0.497-0.395-0.656-0.679S2,19.209,2,18.879
	v-2.505c0-0.517,0.099-1.001,0.296-1.456s0.465-0.853,0.804-1.191c0.34-0.34,0.736-0.607,1.191-0.805s0.94-0.296,1.457-0.296h2.069
	c-0.464-0.51-0.82-1.09-1.069-1.739c-0.249-0.649-0.374-1.318-0.374-2.008V7.626c0-0.516,0.066-1.014,0.2-1.496
	c0.133-0.481,0.323-0.929,0.569-1.343s0.54-0.793,0.883-1.135C8.368,3.31,8.746,3.016,9.161,2.77
	c0.414-0.247,0.862-0.436,1.343-0.569C10.985,2.067,11.484,2,12,2s1.015,0.067,1.496,0.2c0.48,0.133,0.929,0.323,1.343,0.569
	c0.415,0.247,0.793,0.541,1.135,0.883c0.343,0.342,0.637,0.72,0.883,1.135s0.437,0.862,0.569,1.343c0.134,0.481,0.2,0.98,0.2,1.496
	v1.252c0,0.69-0.127,1.358-0.383,2.004c-0.255,0.646-0.608,1.228-1.061,1.743H18.252z M6.687,17.626c0.087,0,0.161,0.03,0.223,0.091
	C6.97,17.778,7,17.852,7,17.939v2.182c0.168,0,0.314-0.061,0.439-0.182c0.124-0.122,0.187-0.268,0.187-0.436v-1.608
	c0.058,0.063,0.113,0.13,0.165,0.196c0.053,0.066,0.107,0.125,0.165,0.178c0.059,0.053,0.124,0.094,0.196,0.126
	s0.158,0.048,0.257,0.048c0.185,0,0.342-0.063,0.469-0.191c0.128-0.127,0.191-0.283,0.191-0.469c0-0.169-0.058-0.316-0.174-0.443
	l-1.452-1.488c-0.226-0.226-0.492-0.404-0.8-0.534s-0.62-0.196-0.939-0.196c-0.342,0-0.66,0.064-0.956,0.191
	C4.452,15.44,4.192,15.616,3.97,15.84c-0.224,0.223-0.398,0.483-0.526,0.781c-0.127,0.299-0.191,0.617-0.191,0.953v1.305
	c0,0.168,0.063,0.314,0.188,0.438c0.124,0.124,0.271,0.187,0.438,0.187v-1.564c0-0.088,0.031-0.161,0.092-0.223
	c0.061-0.061,0.135-0.091,0.222-0.091c0.081,0,0.152,0.032,0.213,0.096s0.092,0.136,0.092,0.218v2.182
	c0.133,0,0.241-0.023,0.325-0.073c0.085-0.05,0.149-0.116,0.196-0.2c0.046-0.084,0.078-0.183,0.096-0.295
	c0.018-0.113,0.025-0.234,0.025-0.361c0-0.162-0.007-0.326-0.021-0.491s-0.021-0.32-0.021-0.466c0-0.174,0.021-0.318,0.065-0.435
	c0.043-0.116,0.135-0.174,0.273-0.174c0.087,0,0.161,0.03,0.222,0.091c0.062,0.062,0.092,0.135,0.092,0.223v2.809
	c0.174,0,0.321-0.061,0.443-0.183s0.183-0.271,0.183-0.444v-2.182c0-0.088,0.03-0.161,0.091-0.223
	C6.526,17.656,6.6,17.626,6.687,17.626z M8.252,19.504c0,0.168-0.031,0.326-0.096,0.475c-0.063,0.147-0.149,0.277-0.256,0.391
	c-0.107,0.113-0.235,0.203-0.383,0.27c-0.148,0.066-0.303,0.104-0.466,0.109h9.896c-0.169-0.006-0.325-0.043-0.47-0.109
	c-0.146-0.066-0.272-0.156-0.383-0.27s-0.195-0.243-0.257-0.391c-0.061-0.148-0.091-0.307-0.091-0.475v-0.443
	c-0.029,0.006-0.054,0.009-0.074,0.009s-0.045,0-0.074,0c-0.174,0-0.34-0.033-0.5-0.1c-0.159-0.067-0.297-0.158-0.413-0.274
	c-0.115-0.115-0.208-0.252-0.277-0.408c-0.07-0.156-0.104-0.324-0.104-0.504c0-0.169,0.033-0.332,0.1-0.492
	c0.066-0.159,0.158-0.3,0.274-0.422l1.165-1.182c0.075-0.262,0.187-0.5,0.335-0.718c0.147-0.218,0.324-0.405,0.53-0.565
	c0.205-0.159,0.432-0.283,0.678-0.374c0.247-0.09,0.506-0.14,0.778-0.151h-2.773l-1.888,1.877h-0.252v0.262L12,17.27l-1.252-1.252
	v-0.262h-0.626v-0.625H9.869l-1.261-1.252H5.826C6.093,13.891,6.351,13.94,6.6,14.03c0.25,0.091,0.478,0.215,0.683,0.374
	c0.206,0.16,0.385,0.348,0.535,0.565s0.264,0.456,0.339,0.718l1.165,1.182c0.116,0.122,0.208,0.263,0.274,0.422
	c0.066,0.16,0.1,0.323,0.1,0.492c0,0.18-0.034,0.348-0.104,0.504c-0.07,0.156-0.163,0.293-0.278,0.408
	c-0.116,0.116-0.253,0.207-0.409,0.274c-0.156,0.066-0.324,0.1-0.504,0.1c-0.029,0-0.054,0-0.074,0s-0.045-0.003-0.074-0.009V19.504
	z M7.626,8.878c0,0.603,0.114,1.171,0.344,1.704c0.229,0.534,0.54,0.998,0.935,1.393c0.395,0.394,0.858,0.705,1.392,0.934
	c0.533,0.229,1.102,0.344,1.704,0.344s1.17-0.114,1.7-0.344c0.53-0.229,0.994-0.54,1.392-0.934c0.396-0.395,0.71-0.858,0.938-1.393
	c0.229-0.533,0.344-1.101,0.344-1.704V8.261l-1.878-1.878l-0.618,0.626l-0.626-0.626l-0.626,0.626L12,6.383l-0.626,0.626
	l-0.626-0.626l-0.626,0.626L9.496,6.383l-1.87,1.878V8.878z M10.122,9.504c-0.168,0-0.314-0.062-0.439-0.187
	C9.558,9.193,9.496,9.046,9.496,8.878V8.252h1.252v0.626c0,0.168-0.063,0.314-0.188,0.439C10.437,9.442,10.29,9.504,10.122,9.504z
	 M10.748,12c0-0.174,0.033-0.336,0.1-0.486c0.066-0.151,0.156-0.283,0.27-0.396s0.245-0.203,0.396-0.27
	c0.151-0.066,0.313-0.1,0.487-0.1s0.336,0.033,0.487,0.1c0.15,0.066,0.282,0.156,0.396,0.27s0.203,0.245,0.27,0.396
	c0.066,0.15,0.1,0.313,0.1,0.486H10.748z M11.991,10.122c-0.168,0-0.314-0.061-0.439-0.183c-0.124-0.122-0.187-0.267-0.187-0.435
	h1.252c0,0.168-0.063,0.313-0.187,0.435C12.306,10.061,12.159,10.122,11.991,10.122z M13.878,9.504
	c-0.168,0-0.314-0.062-0.438-0.187c-0.125-0.125-0.188-0.271-0.188-0.439V8.252h1.244v0.626c0,0.168-0.062,0.314-0.183,0.439
	C14.191,9.442,14.046,9.504,13.878,9.504z M20.748,17.574c0-0.336-0.064-0.654-0.191-0.953c-0.128-0.298-0.303-0.559-0.526-0.781
	c-0.223-0.224-0.482-0.399-0.778-0.527c-0.296-0.127-0.611-0.191-0.947-0.191c-0.331,0-0.646,0.064-0.948,0.191
	c-0.302,0.128-0.568,0.309-0.8,0.539c-0.243,0.244-0.485,0.486-0.727,0.727c-0.24,0.24-0.477,0.486-0.708,0.734
	c-0.128,0.14-0.191,0.297-0.191,0.471c0,0.186,0.063,0.342,0.191,0.469c0.127,0.128,0.284,0.191,0.47,0.191
	c0.092,0,0.175-0.016,0.247-0.048s0.14-0.073,0.2-0.126s0.117-0.111,0.17-0.178c0.052-0.066,0.107-0.133,0.165-0.196v1.608
	c0,0.168,0.063,0.313,0.187,0.436c0.125,0.121,0.271,0.182,0.439,0.182v-2.182c0-0.088,0.03-0.161,0.092-0.223
	c0.061-0.061,0.135-0.091,0.222-0.091s0.16,0.03,0.222,0.091c0.061,0.062,0.091,0.135,0.091,0.223v1.896
	c0,0.11,0.006,0.219,0.018,0.325c0.012,0.107,0.039,0.205,0.083,0.292c0.043,0.087,0.105,0.158,0.187,0.213
	c0.081,0.056,0.194,0.083,0.339,0.083v-2.809c0-0.088,0.03-0.161,0.092-0.223c0.061-0.061,0.135-0.091,0.222-0.091
	c0.139,0,0.23,0.058,0.273,0.174c0.044,0.116,0.065,0.261,0.065,0.435c0,0.146-0.007,0.301-0.021,0.466s-0.021,0.329-0.021,0.491
	c0,0.127,0.008,0.248,0.025,0.361c0.018,0.112,0.05,0.211,0.096,0.295c0.047,0.084,0.11,0.15,0.191,0.2s0.188,0.073,0.322,0.073
	v-2.182c0-0.082,0.031-0.154,0.096-0.218c0.063-0.063,0.136-0.096,0.217-0.096c0.087,0,0.161,0.03,0.222,0.091
	c0.062,0.062,0.092,0.135,0.092,0.223v1.564c0.168,0,0.314-0.063,0.438-0.187c0.125-0.124,0.188-0.271,0.188-0.438V17.574z"/>
</svg>
