<svg version="1.1" id="master" xmlns="http://www.w3.org/2000/svg" xmlns:xlink="http://www.w3.org/1999/xlink" x="0px" y="0px"
	 width="24px" height="24px" viewBox="0 0 24 24" enable-background="new 0 0 24 24" xml:space="preserve">
<path d="M6.202,14.638c-0.002,1.159-0.941,2.099-2.1,2.102C2.941,16.737,2.002,15.797,2,14.638c0.003-1.16,0.942-2.098,2.102-2.101
	h2.1V14.638z M7.261,14.638c0.003-1.159,0.942-2.098,2.101-2.101c1.159,0.003,2.097,0.941,2.101,2.101v5.261
	c-0.003,1.159-0.941,2.099-2.101,2.102c-1.16-0.003-2.098-0.942-2.101-2.102V14.638z M9.362,6.202
	c-1.159-0.003-2.097-0.941-2.101-2.1C7.264,2.942,8.202,2.003,9.362,2c1.159,0.003,2.098,0.942,2.101,2.102v2.1H9.362z M9.362,7.261
	c1.159,0.003,2.097,0.942,2.101,2.101c-0.003,1.159-0.942,2.097-2.101,2.101h-5.26C2.942,11.459,2.003,10.521,2,9.362
	c0.003-1.16,0.942-2.098,2.102-2.101H9.362z M17.797,9.362c0.003-1.16,0.942-2.098,2.102-2.101C21.058,7.264,21.997,8.202,22,9.362
	c-0.003,1.159-0.942,2.098-2.102,2.101h-2.102V9.362z M16.739,9.362c-0.003,1.16-0.942,2.098-2.102,2.101
	c-1.159-0.003-2.098-0.942-2.101-2.101v-5.26C12.54,2.942,13.478,2.003,14.638,2c1.159,0.002,2.1,0.941,2.102,2.102V9.362z
	 M14.638,17.797c1.159,0.002,2.1,0.941,2.102,2.102c-0.002,1.16-0.942,2.1-2.102,2.102c-1.16-0.003-2.098-0.942-2.101-2.102v-2.102
	H14.638L14.638,17.797z M14.638,16.739c-1.16-0.003-2.099-0.942-2.101-2.102c0.003-1.159,0.941-2.098,2.101-2.101h5.261
	c1.159,0.003,2.099,0.94,2.102,2.101c-0.002,1.159-0.941,2.1-2.102,2.102H14.638L14.638,16.739z"/>
</svg>
