<svg version="1.1" id="master" xmlns="http://www.w3.org/2000/svg" xmlns:xlink="http://www.w3.org/1999/xlink" x="0px" y="0px"
	 width="24px" height="24px" viewBox="0 0 24 24" enable-background="new 0 0 24 24" xml:space="preserve">
<path d="M12.172,2.661c0.824,0,3.622,0.229,4.942,3.185c0.44,0.994,0.335,2.682,0.249,4.039l-0.004,0.05
	c-0.01,0.15-0.018,0.287-0.024,0.425c0.063,0.038,0.17,0.075,0.334,0.075c0.251-0.014,0.55-0.101,0.861-0.251
	c0.138-0.073,0.286-0.087,0.387-0.087c0.151,0,0.299,0.024,0.424,0.075c0.375,0.124,0.611,0.399,0.611,0.698
	c0.014,0.374-0.325,0.699-1.011,0.974c-0.073,0.023-0.174,0.063-0.286,0.099c-0.375,0.113-0.949,0.301-1.111,0.676
	c-0.075,0.186-0.051,0.437,0.101,0.723l0.013,0.013c0.049,0.113,1.271,2.896,3.992,3.346c0.212,0.035,0.362,0.225,0.35,0.423
	c0,0.063-0.012,0.125-0.037,0.188c-0.2,0.474-1.061,0.822-2.621,1.059c-0.05,0.076-0.102,0.313-0.137,0.475
	c-0.024,0.15-0.063,0.301-0.112,0.461c-0.063,0.227-0.225,0.338-0.463,0.338h-0.024c-0.112,0-0.262-0.025-0.449-0.062
	c-0.299-0.063-0.637-0.112-1.061-0.112c-0.249,0-0.498,0.012-0.761,0.062c-0.499,0.087-0.936,0.387-1.436,0.736
	c-0.711,0.5-1.521,1.073-2.745,1.073c-0.05,0-0.099-0.012-0.15-0.012h-0.125c-1.223,0-2.022-0.563-2.732-1.074
	c-0.5-0.351-0.923-0.648-1.423-0.736C7.462,19.48,7.2,19.456,6.951,19.456c-0.45,0-0.798,0.074-1.06,0.124
	c-0.176,0.035-0.326,0.062-0.45,0.062c-0.312,0-0.436-0.188-0.486-0.35c-0.051-0.16-0.075-0.324-0.112-0.473
	c-0.039-0.151-0.088-0.411-0.139-0.475c-1.598-0.186-2.458-0.536-2.657-1.022C2.021,17.271,2.003,17.197,2,17.135
	c-0.012-0.202,0.138-0.387,0.35-0.425c2.72-0.449,3.942-3.232,3.993-3.35l0.013-0.024c0.15-0.287,0.187-0.537,0.1-0.724
	c-0.163-0.361-0.737-0.548-1.11-0.674c-0.101-0.024-0.2-0.062-0.288-0.099c-0.923-0.363-1.047-0.775-0.998-1.062
	c0.075-0.398,0.562-0.66,0.973-0.66c0.122,0,0.225,0.023,0.319,0.062c0.35,0.161,0.657,0.25,0.92,0.25
	c0.195,0,0.32-0.05,0.387-0.088L6.622,9.867C6.54,8.513,6.434,6.825,6.877,5.837c1.283-2.939,4.071-3.164,4.895-3.164l0.349-0.013
	L12.172,2.661L12.172,2.661z"/>
</svg>
