<svg version="1.1" id="master" xmlns="http://www.w3.org/2000/svg" xmlns:xlink="http://www.w3.org/1999/xlink"
	 x="0px" y="0px" width="24px" height="24px" viewBox="0 0 24 24" enable-background="new 0 0 24 24" xml:space="preserve">
<path d="M21.936,11.953l-0.471-2.979c-0.172-1.08-0.68-2.077-1.453-2.85l-2.139-2.139c-0.771-0.771-1.766-1.278-2.84-1.447
	l-2.995-0.475c-1.074-0.17-2.175,0.004-3.146,0.499l-2.7,1.376C5.22,4.433,4.43,5.223,3.935,6.195L2.564,8.886
	c-0.496,0.974-0.672,2.081-0.5,3.162l0.472,2.979c0.171,1.079,0.679,2.077,1.451,2.85l2.139,2.139
	c0.771,0.771,1.765,1.276,2.841,1.447l2.996,0.474c1.074,0.171,2.174-0.004,3.145-0.498l2.699-1.375
	c0.973-0.495,1.762-1.286,2.258-2.258l1.371-2.69C21.932,14.141,22.107,13.033,21.936,11.953L21.936,11.953z M8.876,16.375
	c-0.69,0-1.25-0.56-1.25-1.25s0.56-1.25,1.25-1.25c0.689,0,1.25,0.56,1.25,1.25S9.565,16.375,8.876,16.375z M10.126,10.125
	c-0.69,0-1.25-0.56-1.25-1.25s0.56-1.25,1.25-1.25c0.689,0,1.25,0.56,1.25,1.25S10.815,10.125,10.126,10.125z M16.375,15.125
	c-0.691,0-1.25-0.56-1.25-1.25s0.559-1.25,1.25-1.25c0.689,0,1.25,0.56,1.25,1.25S17.064,15.125,16.375,15.125z"/>
</svg>
