<svg version="1.1" id="master" xmlns="http://www.w3.org/2000/svg" xmlns:xlink="http://www.w3.org/1999/xlink" x="0px" y="0px"
	 width="24px" height="24px" viewBox="0 0 24 24" enable-background="new 0 0 24 24" xml:space="preserve">
<g>
	<path d="M18.6,22H5.4c-2.396,0-3.854-2.646-2.591-4.677l5.052-8.125V2H9.93v7.198c0,0.384-0.108,0.763-0.311,1.09l-5.052,8.125
		c-0.405,0.649,0.052,1.517,0.832,1.517H18.6c0.784,0,1.236-0.865,0.832-1.517l-5.053-8.125c-0.202-0.327-0.311-0.702-0.311-1.09V2
		h2.068v7.198l5.053,8.125C22.452,19.35,21,22,18.6,22z"/>
	<path d="M15.68,13.5H8.32l-2.981,4.675C4.975,18.743,5.386,19.5,6.085,19.5h11.831c0.702,0,1.108-0.757,0.746-1.323L15.68,13.5z"/>
</g>
</svg>
