<svg version="1.1" id="master" xmlns="http://www.w3.org/2000/svg" xmlns:xlink="http://www.w3.org/1999/xlink" x="0px" y="0px"
	 width="24px" height="24px" viewBox="0 0 24 24" enable-background="new 0 0 24 24" xml:space="preserve">
<path d="M4.496,2H22v17.504c0,0.342-0.066,0.664-0.2,0.966c-0.133,0.302-0.313,0.565-0.539,0.791
	c-0.226,0.226-0.491,0.405-0.796,0.539c-0.304,0.134-0.627,0.2-0.969,0.2h-15c-0.343,0-0.666-0.065-0.97-0.195
	c-0.305-0.131-0.57-0.309-0.796-0.535c-0.227-0.227-0.404-0.491-0.535-0.795C2.065,20.17,2,19.846,2,19.504V6.374h2.496V2z
	 M3.252,7.626v11.878c0,0.168,0.063,0.313,0.188,0.436c0.124,0.121,0.271,0.182,0.438,0.182s0.313-0.061,0.436-0.182
	c0.121-0.122,0.183-0.268,0.183-0.436V7.626H3.252z M20.748,19.6V3.252h-15v16.252c0,0.168-0.032,0.326-0.096,0.475
	c-0.063,0.147-0.149,0.277-0.257,0.391s-0.234,0.203-0.383,0.27c-0.147,0.066-0.303,0.104-0.465,0.109h14.948
	c0.156,0,0.309-0.029,0.456-0.088c0.147-0.057,0.281-0.139,0.4-0.242c0.118-0.105,0.214-0.227,0.286-0.365
	C20.712,19.913,20.748,19.762,20.748,19.6z M19.496,4.504v1.244H7V4.504H19.496z M19.496,7v0.626H7V7H19.496z M10.122,8.878v0.626H7
	V8.878H10.122z M10.122,10.748v0.626H7v-0.626H10.122z M10.122,12.626v0.626H7v-0.626H10.122z M10.122,14.504v0.617H7v-0.617H10.122
	z M19.496,16.374V17H7v-0.626H19.496z M19.496,18.252v0.627H7v-0.627H19.496z M11.374,15.121V8.878h8.122v6.243H11.374z"/>
</svg>
