<svg version="1.1" id="master" xmlns="http://www.w3.org/2000/svg" xmlns:xlink="http://www.w3.org/1999/xlink" x="0px" y="0px"
	 width="24px" height="24px" viewBox="0 0 24 24" enable-background="new 0 0 24 24" xml:space="preserve">
<path d="M13.607,16.896h-3.444c-0.01-0.495-0.014-0.797-0.014-0.905c0-1.116,0.185-2.034,0.554-2.754
	c0.369-0.721,1.107-1.531,2.215-2.432c1.108-0.9,1.77-1.49,1.986-1.769c0.333-0.441,0.499-0.927,0.499-1.458
	c0-0.738-0.297-1.371-0.887-1.897c-0.59-0.527-1.382-0.79-2.382-0.79c-0.964,0-1.77,0.274-2.418,0.824
	C9.069,6.263,8.623,7.1,8.381,8.226L4.896,7.793c0.099-1.612,0.785-2.98,2.06-4.105C8.229,2.563,9.901,2,11.973,2
	c2.18,0,3.912,0.569,5.2,1.708c1.287,1.139,1.931,2.464,1.931,3.977c0,0.837-0.238,1.629-0.711,2.376
	c-0.473,0.748-1.481,1.765-3.029,3.052c-0.802,0.666-1.301,1.202-1.495,1.606C13.675,15.127,13.59,15.852,13.607,16.896z M10.163,22
	v-3.795h3.796V22H10.163z"/>
</svg>
