<svg version="1.1" id="master" xmlns="http://www.w3.org/2000/svg" xmlns:xlink="http://www.w3.org/1999/xlink" x="0px" y="0px"
	 width="24px" height="24px" viewBox="0 0 24 24" enable-background="new 0 0 24 24" xml:space="preserve">
<path d="M12,2C6.48,2,2,6.48,2,12c0,5.52,4.48,10,10,10c5.52,0,10-4.48,10-10C22,6.48,17.52,2,12,2z M13,5.3l1.35-0.95
	c1.82,0.56,3.371,1.76,4.381,3.34L18.34,9.03l-1.35,0.46L13,6.7V5.3z M9.65,4.35L11,5.3v1.4L7.01,9.49L5.66,9.03L5.27,7.69
	C6.28,6.12,7.83,4.92,9.65,4.35z M7.08,17.109L5.94,17.21C4.73,15.811,4,13.99,4,12c0-0.12,0.01-0.23,0.02-0.35l1-0.73L6.4,11.4
	l1.46,4.34L7.08,17.109z M14.5,19.59C13.71,19.85,12.87,20,12,20s-1.71-0.15-2.5-0.41L8.81,18.1L9.45,17h5.11l0.64,1.109L14.5,19.59
	z M14.27,15H9.73l-1.35-4.02L12,8.44l3.63,2.54L14.27,15z M18.061,17.21l-1.141-0.101l-0.79-1.369l1.46-4.34l1.391-0.47l1,0.73
	C19.99,11.77,20,11.88,20,12C20,13.99,19.27,15.811,18.061,17.21z"/>
</svg>
