<svg version="1.1" id="master" xmlns="http://www.w3.org/2000/svg" xmlns:xlink="http://www.w3.org/1999/xlink" x="0px" y="0px"
	 width="24px" height="24px" viewBox="0 0 24 24" enable-background="new 0 0 24 24" xml:space="preserve">
<g>
	<path d="M8.166,18.639c-0.789,0.787-2.075,0.794-2.872,0c-0.791-0.793-0.791-2.081,0-2.873l1.866-1.864h5.74L8.166,18.639z"/>
	<path d="M20.432,7.152L20.41,7.173l-2.634,2.633l0,0l-5.912,5.914h-0.001l-1.108,1.108h-0.001l-1.107,1.109H9.646l-1.107,1.108
		c-0.985,0.982-2.591,0.991-3.584,0c-0.989-0.99-0.989-2.597,0-3.586l1.108-1.108l1.108-1.108l0.112-0.11l0.997-0.998l0.112-0.111
		l1.109-1.109l0,0l0,0l7.325-7.324l0.021-0.021L15.28,2L3.39,13.891c-1.853,1.851-1.853,4.869,0,6.721
		c1.852,1.849,4.865,1.854,6.721,0L22,8.721L20.432,7.152z"/>
</g>
</svg>
