<svg version="1.1" id="master" xmlns="http://www.w3.org/2000/svg" xmlns:xlink="http://www.w3.org/1999/xlink" x="0px" y="0px"
	 width="24px" height="24px" viewBox="0 0 24 24" enable-background="new 0 0 24 24" xml:space="preserve">
<g>
	<path d="M16.503,9.167c0.179-0.02,0.354-0.03,0.527-0.03c0.682,0,1.325,0.134,1.928,0.402c0.604,0.269,1.13,0.631,1.581,1.089
		c0.45,0.457,0.807,0.989,1.068,1.595S22,13.471,22,14.146c0,0.689-0.131,1.338-0.393,1.943c-0.262,0.607-0.62,1.137-1.073,1.592
		c-0.454,0.453-0.984,0.811-1.591,1.072c-0.606,0.263-1.254,0.393-1.943,0.393c-0.438,0-0.865-0.056-1.282-0.168
		c-0.418-0.113-0.812-0.273-1.183-0.482s-0.711-0.463-1.02-0.761c-0.308-0.298-0.574-0.636-0.8-1.014
		c0,0.173-0.002,0.343-0.005,0.512c-0.004,0.169-0.005,0.34-0.005,0.513c0,0.377,0.017,0.727,0.05,1.049
		c0.033,0.32,0.103,0.625,0.208,0.914c0.106,0.288,0.252,0.562,0.438,0.82c0.186,0.258,0.435,0.51,0.746,0.755V22H9.853v-0.716
		c0.305-0.251,0.552-0.503,0.741-0.755c0.188-0.252,0.336-0.518,0.442-0.796c0.105-0.278,0.175-0.576,0.208-0.895
		c0.033-0.317,0.05-0.666,0.05-1.044c0-0.179-0.001-0.357-0.005-0.537c-0.003-0.178-0.005-0.357-0.005-0.536
		c-0.226,0.378-0.492,0.716-0.8,1.014c-0.309,0.298-0.648,0.552-1.019,0.761c-0.372,0.209-0.766,0.369-1.183,0.482
		C7.865,19.091,7.438,19.146,7,19.146c-0.689,0-1.339-0.13-1.948-0.393c-0.61-0.262-1.14-0.617-1.59-1.068
		c-0.451-0.45-0.807-0.98-1.069-1.59S2,14.836,2,14.146c0-0.688,0.131-1.336,0.393-1.943c0.262-0.606,0.62-1.136,1.074-1.59
		C3.92,10.16,4.45,9.802,5.057,9.54C5.663,9.278,6.311,9.147,7,9.147h0.308c0.033,0,0.063,0,0.089,0s0.056,0.007,0.09,0.02
		C7.321,8.829,7.199,8.478,7.119,8.113C7.04,7.749,7,7.378,7,7c0-0.689,0.131-1.337,0.393-1.943s0.62-1.137,1.074-1.59
		c0.454-0.454,0.984-0.812,1.59-1.074C10.663,2.131,11.311,2,12,2s1.337,0.131,1.943,0.393c0.606,0.262,1.137,0.62,1.591,1.074
		c0.453,0.454,0.812,0.984,1.073,1.59S17,6.311,17,7C17,7.762,16.834,8.484,16.503,9.167z"/>
</g>
</svg>
