<svg version="1.1" id="master" xmlns="http://www.w3.org/2000/svg" xmlns:xlink="http://www.w3.org/1999/xlink"
	 x="0px" y="0px" width="24px" height="24px" viewBox="0 0 24 24" enable-background="new 0 0 24 24" xml:space="preserve">
<path d="M12.641,2.264c-0.364-0.344-0.93-0.344-1.293,0C9.473,4.052,4.093,9.23,3.25,10.163C2.496,10.995,2,12.092,2,13.311
	c0,2.752,2.144,4.928,4.822,4.939c1.433,0.004,2.722-0.613,3.612-1.598c-0.004,1.43-0.031,2.043-2.046,2.943
	c-0.551,0.246-0.867,0.844-0.73,1.43c0.129,0.566,0.637,0.969,1.219,0.969h6.224c0.604,0,1.14-0.422,1.253-1.016
	c0.109-0.57-0.188-1.139-0.718-1.373c-2.016-0.898-2.063-1.488-2.069-2.953c0.913,1.008,2.245,1.633,3.721,1.594
	C19.923,18.18,22,16.039,22,13.404c0-1.258-0.477-2.39-1.249-3.245C19.898,9.23,14.519,4.052,12.641,2.264z"/>
</svg>
