<svg version="1.1" xmlns="http://www.w3.org/2000/svg" xmlns:xlink="http://www.w3.org/1999/xlink" x="0px" y="0px"
	 width="24px" height="24px" viewBox="0 0 24 24" enable-background="new 0 0 24 24" xml:space="preserve">
<path d="M22,14.695c0,0.956-0.783,1.739-1.739,1.739h-0.869l-1.739-1.739h2.608V4.261H7.217L5.478,2.522h14.783
	C21.217,2.522,22,3.304,22,4.261V14.695z M17.218,16.435l-1.739-1.739L17.218,16.435z M14.957,16.435l5.217,5.218l1.131-1.131
	l-4.087-4.087l-1.739-1.739L3.043,2.348L2,3.479l0.87,0.87v10.347c0,0.956,0.782,1.739,1.739,1.739h6.087v1.739H8.957v1.739h6.957
	v-1.739h-1.739v-1.739H14.957z M4.609,14.695V6.087l8.609,8.608H4.609z"/>
</svg>
