<svg version="1.1" id="master" xmlns="http://www.w3.org/2000/svg" xmlns:xlink="http://www.w3.org/1999/xlink" x="0px" y="0px" width="24px" height="24px" viewBox="0 0 24 24" enable-background="new 0 0 24 24" xml:space="preserve">
<rect fill="none" width="24" height="24"/>
<path d="M13.99,2.534l5.212,3.009c1.232,0.711,1.991,2.025,1.991,3.448v6.019c0,1.422-0.759,2.736-1.991,3.447l-5.212,3.01c-1.23,0.711-2.749,0.711-3.981,0l-5.212-3.01c-1.231-0.711-1.99-2.025-1.99-3.447V8.991c0-1.422,0.759-2.736,1.99-3.448l5.212-3.009C11.241,1.822,12.76,1.822,13.99,2.534z M10.67,3.668L5.449,6.683C4.626,7.158,4.12,8.036,4.12,8.985v6.03c0,0.948,0.506,1.826,1.329,2.302l5.221,3.014c0.823,0.476,1.835,0.476,2.659,0l5.222-3.014c0.822-0.476,1.329-1.354,1.329-2.302v-6.03c0-0.949-0.507-1.828-1.329-2.302l-5.222-3.015C12.506,3.194,11.493,3.194,10.67,3.668z M13.023,5.769l3.863,2.23C17.52,8.364,17.91,9.04,17.91,9.771v4.46c0,0.731-0.391,1.407-1.023,1.772l-3.863,2.23c-0.634,0.365-1.414,0.365-2.047,0l-3.863-2.23C6.48,15.639,6.09,14.963,6.09,14.231v-4.46c0-0.731,0.39-1.407,1.023-1.773l3.863-2.23C11.61,5.403,12.39,5.403,13.023,5.769z M13.97,10.031h-3.94v3.94h3.94V10.031z"/>
</svg>
