<svg version="1.1" id="master" xmlns="http://www.w3.org/2000/svg" xmlns:xlink="http://www.w3.org/1999/xlink" x="0px" y="0px" width="24px" height="24px" viewBox="0 0 24 24" enable-background="new 0 0 24 24" xml:space="preserve" fill="#02B757">
<rect fill="none" width="24" height="24"/>
<path d="M12,2C6.5,2,2,6.5,2,12s4.5,10,10,10s10-4.5,10-10S17.5,2,12,2z M12,20.333c-4.583,0-8.333-3.75-8.333-8.333c0-4.583,3.75-8.333,8.333-8.333c4.583,0,8.333,3.75,8.333,8.333C20.333,16.583,16.583,20.333,12,20.333z M16.167,11.167H14.5c-0.25,0-0.417-0.5-0.417-0.833c0-0.25,0.083-0.5,0.167-0.667C14.333,9.5,14.417,9.5,14.5,9.5H17c0.5,0,0.833-0.333,0.833-0.833c0-0.5-0.333-0.833-0.833-0.833h-0.833V7c0-0.5-0.334-0.833-0.834-0.833C14.834,6.167,14.5,6.5,14.5,7v0.833c-0.666,0-1.25,0.333-1.667,0.917c-0.249,0.417-0.417,1-0.417,1.583c0,1.417,0.917,2.5,2.083,2.5h1.667c0.333,0,0.416,0.5,0.416,0.834c0,0.416-0.167,0.833-0.416,0.833h-3.834l-2.083-1.667h0.083c0.25,0,0.917-0.083,1.25-1.083c0.083-0.417,0.167-0.917,0.167-1.417c0-1.583-0.5-2.5-1.417-2.5H7c-0.5,0-0.833,0.333-0.833,0.833v6.667c0,0.5,0.333,0.834,0.833,0.834s0.833-0.334,0.833-0.834v-2.25L11.5,16c0.167,0.084,0.333,0.167,0.5,0.167h2.5V17c0,0.5,0.334,0.833,0.833,0.833c0.5,0,0.834-0.333,0.834-0.833v-0.833c1.167,0,2.083-1.083,2.083-2.5S17.334,11.167,16.167,11.167z M10,11.167H7.833V9.5H10C10.083,9.917,10.083,10.75,10,11.167z"/>
</svg>
