<svg version="1.1" id="master" xmlns="http://www.w3.org/2000/svg" xmlns:xlink="http://www.w3.org/1999/xlink" x="0px" y="0px" width="24px" height="24px" viewBox="0 0 24 24" enable-background="new 0 0 24 24" xml:space="preserve">
<rect fill="none" width="24" height="24"/>
<path d="M8.104,2.447c3.372,0,6.104,2.733,6.104,6.104c0,3.371-2.732,6.104-6.104,6.104C4.733,14.656,2,11.922,2,8.551C2,5.18,4.733,2.447,8.104,2.447z M22,9.146c0,0.686-0.556,1.241-1.24,1.241c-0.686,0-1.241-0.555-1.241-1.241c0-0.685,0.556-1.241,1.241-1.241C21.444,7.906,22,8.461,22,9.146z M19.767,12.174c0,1.371-1.11,2.482-2.481,2.482c-1.37,0-2.481-1.111-2.481-2.482c0-1.37,1.111-2.481,2.481-2.481C18.656,9.692,19.767,10.804,19.767,12.174z M20.263,18.576c0,1.645-1.333,2.978-2.978,2.978s-2.978-1.333-2.978-2.978s1.333-2.978,2.978-2.978S20.263,16.931,20.263,18.576z"/>
</svg>
