<svg version="1.1" id="master" xmlns="http://www.w3.org/2000/svg" xmlns:xlink="http://www.w3.org/1999/xlink" x="0px" y="0px" width="24px" height="24px" viewBox="0 0 24 24" enable-background="new 0 0 24 24" xml:space="preserve">
<rect fill="none" width="24" height="24"/>
<path d="M12,2c-4.767,0-8.637,3.868-8.637,8.637c0,4.518,4.121,8.182,8.637,8.182V22c5.246-2.661,8.637-6.944,8.637-11.363C20.637,5.867,16.768,2,12,2z M8.25,7.227h5.681c0.628-0.001,1.137,0.507,1.138,1.134c0,0.001,0,0.002,0,0.003v1.42l2.273-2.272v6.251l-2.272-2.271v1.419c0.002,0.627-0.505,1.136-1.132,1.137c-0.002,0-0.004,0-0.006,0H8.25c-0.292,0-0.582-0.109-0.804-0.333c-0.214-0.212-0.334-0.502-0.334-0.804V8.364C7.111,7.737,7.618,7.228,8.245,7.227C8.247,7.227,8.249,7.227,8.25,7.227z"/>
</svg>
