<svg version="1.1" id="master" xmlns="http://www.w3.org/2000/svg" xmlns:xlink="http://www.w3.org/1999/xlink" x="0px" y="0px" width="24px" height="24px" viewBox="0 0 24 24" enable-background="new 0 0 24 24" xml:space="preserve">
<rect fill="none" width="24" height="24"/>
<path d="M9.124,2.963l-1.43,1.43v1.401h1.43V2.963z M9.124,5.795v0.029h-1.43V5.795H4.822L2,8.537v2.981h2.355V9.45c0-0.438,0.357-0.795,0.795-0.795h13.73c0.438,0,0.795,0.358,0.795,0.795v2.066h2.296v-2.98l-2.822-2.742h-2.732v0.029h-1.43V5.795H9.124z M14.986,5.795h1.43V4.394l-1.43-1.43V5.795z M9.232,2.99v1.376h5.645V2.99H9.232z M18.791,8.882c-0.036,0-0.072,0.002-0.109,0.008l-0.453,0.001C13.883,8.903,9.536,8.885,5.189,8.9C4.827,8.848,4.527,9.263,4.592,9.636v1.887h14.843c-0.014-0.74,0.037-1.485-0.027-2.222C19.32,9.016,19.052,8.882,18.791,8.882L18.791,8.882z M5.94,9.41c0.317,0,0.574,0.26,0.574,0.582l0,0c0,0.321-0.257,0.581-0.574,0.581c-0.316,0-0.573-0.26-0.573-0.581C5.367,9.671,5.623,9.411,5.94,9.41z M7.718,9.41c0.317,0,0.574,0.26,0.574,0.582c0,0.321-0.257,0.581-0.574,0.581c-0.316,0-0.573-0.26-0.573-0.581C7.145,9.671,7.401,9.411,7.718,9.41z M2.03,11.704v7.63c0,0.875,0.715,1.59,1.589,1.59h0.736v-9.22H2.03z M19.675,11.704v9.22h0.735c0.875,0,1.59-0.715,1.59-1.59v-7.63H19.675z M5.381,12.944v5.708h5.114v-5.708H5.381z M16.416,12.962v3.147l-1.423,0.814l-1.423-0.814v-3.132c-1.664,0.794-2.369,2.787-1.574,4.451c0.329,0.688,0.885,1.245,1.574,1.573v2.035h2.881v-2.035c1.663-0.795,2.367-2.789,1.572-4.452C17.688,13.85,17.121,13.288,16.416,12.962z M5.381,19.846v1.191h6.604v-1.191H5.381z"/>
</svg>
