<svg version="1.1" id="master" xmlns="http://www.w3.org/2000/svg" xmlns:xlink="http://www.w3.org/1999/xlink" x="0px" y="0px" width="24px" height="24px" viewBox="0 0 24 24" enable-background="new 0 0 24 24" xml:space="preserve">
<rect fill="none" width="24" height="24"/>
<path d="M2.168,9.223C2.063,9.298,2.001,9.419,2,9.548v0.005C2,9.606,2.012,9.66,2.033,9.711l1.915,4.336c0.085,0.191,0.304,0.286,0.502,0.216c1.253-0.445,5.594-1.86,8.402-1.099c0,0-2.817,0.165-5.365,2.162c-0.143,0.112-0.192,0.309-0.118,0.475l0.857,1.938l0.33,0.775c0.078,0.183,0.329,0.205,0.44,0.039c0.594-0.896,1.597-1.343,2.56-1.733c0.987-0.402,2.016-0.695,3.065-0.876c1.12-0.19,2.261-0.237,3.392-0.139c0.189,0.018,0.363-0.099,0.42-0.279l0.864-2.764c0.052-0.164-0.008-0.342-0.146-0.443c-0.965-0.698-4.784-3.045-11.501-2.103c0,0,5.732-3.292,13.009,0.325c0.197,0.098,0.438,0.017,0.537-0.181c0.009-0.019,0.017-0.039,0.022-0.059l0.764-2.438C21.993,7.829,22,7.79,22,7.751V7.74c-0.002-0.142-0.08-0.272-0.203-0.342c-0.913-0.517-4.005-2.065-8.259-2.065C10.278,5.333,6.336,6.242,2.168,9.223"/>
</svg>
