<svg version="1.1" id="master" xmlns="http://www.w3.org/2000/svg" xmlns:xlink="http://www.w3.org/1999/xlink" x="0px" y="0px"
	 width="24px" height="24px" viewBox="0 0 24 24" enable-background="new 0 0 24 24" xml:space="preserve">
<rect fill="none" width="24" height="24"/>
<path d="M21.646,9.334c-0.236-0.854-0.572-1.65-1.009-2.39c-0.437-0.737-0.958-1.41-1.565-2.017
	c-0.605-0.607-1.279-1.129-2.018-1.565c-0.737-0.437-1.534-0.772-2.389-1.009C13.813,2.117,12.926,2,12.005,2
	c-0.92,0-1.805,0.12-2.654,0.358C8.5,2.599,7.704,2.935,6.962,3.367C6.221,3.801,5.544,4.32,4.934,4.928
	C4.323,5.534,3.802,6.209,3.368,6.95C2.935,7.692,2.6,8.488,2.359,9.34C2.119,10.189,2,11.074,2,11.995
	c0,0.919,0.12,1.804,0.359,2.654s0.576,1.646,1.009,2.39c0.434,0.74,0.955,1.418,1.565,2.027c0.61,0.611,1.287,1.133,2.028,1.564
	c0.742,0.433,1.538,0.771,2.389,1.01C10.201,21.879,11.085,22,12.005,22c0.921,0,1.806-0.121,2.655-0.359
	c0.851-0.239,1.646-0.576,2.389-1.01c0.742-0.433,1.417-0.953,2.023-1.564c0.606-0.609,1.127-1.287,1.56-2.027
	c0.433-0.742,0.77-1.539,1.009-2.39C21.879,13.799,22,12.914,22,11.995C22,11.074,21.882,10.188,21.646,9.334z M12,20
	c-4.418,0-8-3.582-8-8s3.582-8,8-8s8,3.582,8,8S16.418,20,12,20z M13.449,11.166c0.15,0.259,0.228,0.535,0.228,0.829
	c0,0.231-0.045,0.447-0.134,0.648c-0.09,0.2-0.209,0.377-0.359,0.526c-0.15,0.15-0.326,0.271-0.527,0.359s-0.417,0.135-0.648,0.135
	c-0.232,0-0.45-0.046-0.655-0.135s-0.382-0.211-0.533-0.365s-0.269-0.334-0.354-0.539c-0.086-0.204-0.128-0.422-0.128-0.654
	l-2.922-1.763c-0.271-0.17-0.405-0.41-0.405-0.72c0-0.224,0.081-0.419,0.242-0.585c0.163-0.166,0.356-0.249,0.58-0.249
	c0.162,0,0.31,0.042,0.44,0.127l2.897,1.739V6.163c0-0.231,0.081-0.43,0.244-0.592c0.162-0.162,0.359-0.242,0.592-0.242
	c0.231,0,0.429,0.08,0.591,0.242c0.163,0.163,0.244,0.36,0.244,0.592v4.395C13.096,10.704,13.299,10.906,13.449,11.166z"/>
</svg>
