<svg version="1.1" id="master" xmlns="http://www.w3.org/2000/svg" xmlns:xlink="http://www.w3.org/1999/xlink" x="0px" y="0px"
	 width="24px" height="24px" viewBox="0 0 24 24" enable-background="new 0 0 24 24" xml:space="preserve">
<rect fill="none" width="24" height="24"/>
<path d="M21.629,9.351c-0.236-0.854-0.572-1.65-1.009-2.389c-0.437-0.738-0.958-1.41-1.565-2.017
	c-0.606-0.607-1.279-1.129-2.018-1.565c-0.737-0.437-1.534-0.773-2.388-1.009c-0.854-0.236-1.741-0.354-2.661-0.354
	s-1.805,0.12-2.655,0.359c-0.85,0.24-1.646,0.576-2.388,1.009s-1.418,0.953-2.029,1.56c-0.61,0.607-1.132,1.281-1.565,2.023
	C2.917,7.71,2.582,8.506,2.342,9.357c-0.24,0.85-0.359,1.735-0.359,2.655s0.12,1.805,0.359,2.655s0.576,1.646,1.009,2.389
	c0.433,0.741,0.955,1.418,1.565,2.028c0.611,0.611,1.287,1.133,2.029,1.565s1.538,0.77,2.388,1.009
	c0.851,0.239,1.735,0.359,2.655,0.359s1.805-0.12,2.655-0.359c0.85-0.239,1.646-0.576,2.388-1.009
	c0.742-0.433,1.417-0.954,2.023-1.565c0.607-0.61,1.127-1.287,1.56-2.028c0.433-0.742,0.77-1.538,1.009-2.389
	s0.359-1.735,0.359-2.655S21.864,10.205,21.629,9.351z M12,20c-4.418,0-8-3.582-8-8c0-4.418,3.582-8,8-8c4.418,0,8,3.582,8,8
	C20,16.418,16.418,20,12,20z M15.078,7.258c0.166,0.162,0.249,0.355,0.249,0.58c0,0.162-0.042,0.309-0.127,0.44L13.449,11.2
	c0.062,0.131,0.112,0.265,0.15,0.4c0.039,0.135,0.059,0.272,0.059,0.412c0,0.232-0.045,0.448-0.134,0.649s-0.209,0.377-0.359,0.527
	s-0.326,0.271-0.527,0.359s-0.417,0.134-0.649,0.134s-0.448-0.045-0.649-0.134c-0.201-0.089-0.377-0.209-0.527-0.359
	c-0.151-0.15-0.271-0.326-0.359-0.527s-0.133-0.417-0.133-0.649c0-0.293,0.075-0.57,0.226-0.829c0.15-0.259,0.354-0.461,0.608-0.608
	V6.18c0-0.231,0.081-0.429,0.244-0.591c0.162-0.162,0.359-0.243,0.591-0.243s0.429,0.081,0.591,0.243
	c0.163,0.163,0.244,0.36,0.244,0.591v2.829l0.95-1.588c0.163-0.271,0.402-0.406,0.719-0.406C14.717,7.015,14.912,7.096,15.078,7.258
	z"/>
</svg>
