<svg version="1.1" id="master" xmlns="http://www.w3.org/2000/svg" xmlns:xlink="http://www.w3.org/1999/xlink" x="0px" y="0px"
	 width="24px" height="24px" viewBox="0 0 24 24" enable-background="new 0 0 24 24" xml:space="preserve">
<rect fill="none" width="24" height="24"/>
<path d="M12.841,10.522l2.898-1.739c0.131-0.085,0.278-0.127,0.44-0.127c0.225,0,0.416,0.083,0.579,0.249
	c0.162,0.167,0.243,0.361,0.243,0.585c0,0.309-0.136,0.549-0.406,0.719l-2.921,1.763c0,0.232-0.043,0.45-0.128,0.655
	s-0.203,0.385-0.354,0.539s-0.329,0.275-0.533,0.365c-0.205,0.089-0.424,0.134-0.655,0.134c-0.232,0-0.448-0.045-0.649-0.134
	c-0.201-0.09-0.377-0.208-0.527-0.359c-0.15-0.15-0.271-0.326-0.359-0.527c-0.088-0.201-0.134-0.417-0.134-0.648
	c0-0.293,0.075-0.57,0.227-0.829c0.15-0.259,0.354-0.461,0.608-0.608V6.162c0-0.231,0.081-0.429,0.243-0.591
	c0.163-0.162,0.359-0.243,0.592-0.243c0.231,0,0.429,0.081,0.592,0.243c0.162,0.163,0.243,0.36,0.243,0.591V10.522z M21.646,9.333
	c-0.236-0.854-0.572-1.65-1.01-2.389c-0.437-0.738-0.957-1.41-1.564-2.017c-0.606-0.607-1.279-1.129-2.018-1.565
	c-0.738-0.437-1.535-0.773-2.389-1.009C13.813,2.118,12.926,2,12.006,2s-1.805,0.12-2.655,0.359C8.5,2.599,7.704,2.935,6.962,3.368
	c-0.741,0.433-1.418,0.953-2.028,1.56c-0.612,0.607-1.133,1.28-1.566,2.023C2.935,7.694,2.598,8.489,2.359,9.34
	C2.12,10.189,2,11.074,2,11.994s0.12,1.805,0.359,2.654c0.239,0.851,0.576,1.646,1.009,2.389c0.433,0.742,0.954,1.419,1.565,2.029
	c0.61,0.61,1.287,1.133,2.028,1.564c0.743,0.434,1.539,0.77,2.39,1.01C10.202,21.882,11.086,22,12.006,22s1.805-0.119,2.655-0.359
	c0.85-0.24,1.646-0.576,2.388-1.009s1.417-0.954,2.023-1.565c0.607-0.609,1.127-1.287,1.56-2.028
	c0.433-0.742,0.771-1.537,1.009-2.388C21.88,13.799,22,12.914,22,11.994S21.882,10.188,21.646,9.333z"/>
</svg>
