<svg version="1.1" id="master" xmlns="http://www.w3.org/2000/svg" xmlns:xlink="http://www.w3.org/1999/xlink" x="0px" y="0px"
	 width="24px" height="24px" viewBox="0 0 24 24" enable-background="new 0 0 24 24" xml:space="preserve">
<rect fill="none" width="24" height="24"/>
<path d="M12.841,10.522l2.898-1.739c0.131-0.085,0.278-0.127,0.44-0.127c0.225,0,0.417,0.083,0.58,0.249
	c0.162,0.167,0.243,0.361,0.243,0.585c0,0.309-0.136,0.549-0.406,0.719l-2.921,1.763c0,0.232-0.043,0.45-0.128,0.655
	c-0.085,0.205-0.203,0.385-0.354,0.539c-0.15,0.155-0.329,0.276-0.533,0.365c-0.205,0.089-0.424,0.134-0.655,0.134
	c-0.232,0-0.448-0.045-0.649-0.134s-0.377-0.208-0.527-0.359c-0.15-0.15-0.271-0.326-0.359-0.527s-0.134-0.417-0.134-0.649
	c0-0.293,0.075-0.57,0.227-0.829c0.15-0.259,0.354-0.461,0.608-0.608V6.162c0-0.231,0.081-0.429,0.243-0.591
	c0.163-0.162,0.359-0.243,0.592-0.243c0.231,0,0.429,0.081,0.591,0.243c0.163,0.163,0.244,0.36,0.244,0.591V10.522z M21.646,9.333
	c-0.236-0.854-0.572-1.65-1.009-2.389c-0.437-0.738-0.958-1.41-1.565-2.017c-0.606-0.607-1.279-1.129-2.018-1.565
	c-0.737-0.437-1.534-0.773-2.388-1.009C13.813,2.118,12.926,2,12.006,2s-1.805,0.12-2.655,0.359C8.5,2.599,7.704,2.935,6.962,3.368
	c-0.741,0.433-1.418,0.953-2.028,1.56C4.322,5.535,3.801,6.208,3.368,6.951s-0.77,1.538-1.009,2.389C2.12,10.189,2,11.074,2,11.994
	s0.12,1.805,0.359,2.655s0.576,1.646,1.009,2.388s0.954,1.419,1.565,2.029c0.61,0.611,1.287,1.133,2.028,1.565
	C7.704,21.064,8.5,21.4,9.351,21.641S11.086,22,12.006,22s1.805-0.119,2.655-0.359c0.85-0.24,1.646-0.576,2.388-1.009
	c0.742-0.433,1.417-0.954,2.023-1.565c0.607-0.61,1.127-1.287,1.56-2.029s0.77-1.537,1.009-2.388S22,12.914,22,11.994
	S21.882,10.188,21.646,9.333z M12,20c-4.418,0-8-3.582-8-8c0-4.418,3.582-8,8-8s8,3.582,8,8C20,16.418,16.418,20,12,20z"/>
</svg>
