<svg version="1.1" id="master" xmlns="http://www.w3.org/2000/svg" xmlns:xlink="http://www.w3.org/1999/xlink" x="0px" y="0px"
	 width="24px" height="24px" viewBox="0 0 24 24" enable-background="new 0 0 24 24" xml:space="preserve">
<rect fill="none" width="24" height="24"/>
<path d="M21.646,9.333c-0.236-0.854-0.572-1.65-1.01-2.389c-0.437-0.738-0.957-1.41-1.564-2.017
	c-0.606-0.607-1.279-1.129-2.018-1.565c-0.738-0.437-1.535-0.773-2.389-1.009C13.813,2.118,12.926,2,12.006,2
	s-1.805,0.12-2.655,0.359C8.5,2.599,7.704,2.935,6.962,3.368c-0.741,0.433-1.418,0.953-2.028,1.56
	c-0.612,0.607-1.133,1.28-1.566,2.023C2.935,7.694,2.598,8.489,2.359,9.34C2.12,10.189,2,11.074,2,11.994s0.12,1.805,0.359,2.654
	c0.239,0.851,0.576,1.646,1.009,2.389c0.433,0.742,0.954,1.419,1.565,2.029c0.61,0.61,1.287,1.133,2.028,1.564
	c0.743,0.434,1.539,0.77,2.39,1.01C10.202,21.882,11.086,22,12.006,22s1.805-0.119,2.655-0.359c0.85-0.24,1.646-0.576,2.388-1.009
	s1.417-0.954,2.023-1.565c0.607-0.609,1.127-1.287,1.56-2.028c0.433-0.742,0.771-1.537,1.009-2.388
	C21.88,13.799,22,12.914,22,11.994S21.882,10.188,21.646,9.333z M16.76,11.403c0.162,0.163,0.243,0.359,0.243,0.591
	s-0.081,0.429-0.243,0.592c-0.162,0.162-0.359,0.243-0.592,0.243h-2.725c-0.146,0.255-0.351,0.458-0.608,0.608
	c-0.258,0.149-0.535,0.227-0.829,0.227c-0.232,0-0.448-0.045-0.649-0.135c-0.201-0.088-0.377-0.207-0.527-0.358
	c-0.15-0.149-0.271-0.325-0.359-0.526c-0.088-0.202-0.134-0.417-0.134-0.649c0-0.293,0.075-0.57,0.227-0.829
	c0.15-0.259,0.354-0.461,0.608-0.608V6.162c0-0.231,0.081-0.429,0.243-0.591c0.163-0.162,0.359-0.243,0.592-0.243
	c0.231,0,0.429,0.081,0.591,0.243c0.163,0.163,0.244,0.36,0.244,0.591v4.395c0.264,0.139,0.465,0.34,0.604,0.603h2.725
	C16.4,11.159,16.598,11.241,16.76,11.403z"/>
</svg>
