<svg version="1.1" id="master" xmlns="http://www.w3.org/2000/svg" xmlns:xlink="http://www.w3.org/1999/xlink" x="0px" y="0px"
	 width="24px" height="24px" viewBox="0 0 24 24" enable-background="new 0 0 24 24" xml:space="preserve">
<rect fill="none" width="24" height="24"/>
<path d="M21.646,9.333c-0.236-0.854-0.572-1.65-1.01-2.389c-0.437-0.738-0.957-1.41-1.564-2.017
	c-0.606-0.607-1.279-1.129-2.018-1.565c-0.738-0.437-1.535-0.773-2.389-1.009C13.813,2.118,12.926,2,12.006,2
	s-1.805,0.12-2.655,0.359C8.5,2.599,7.705,2.935,6.962,3.368c-0.743,0.433-1.418,0.953-2.029,1.56
	c-0.61,0.607-1.132,1.281-1.565,2.023C2.935,7.693,2.599,8.489,2.359,9.339C2.12,10.189,2,11.074,2,11.994s0.12,1.805,0.359,2.654
	c0.239,0.851,0.576,1.646,1.009,2.39c0.433,0.741,0.955,1.418,1.565,2.028c0.611,0.61,1.287,1.133,2.029,1.564
	c0.742,0.432,1.538,0.77,2.388,1.01C10.201,21.88,11.086,22,12.006,22s1.805-0.12,2.655-0.359c0.85-0.238,1.646-0.576,2.388-1.009
	s1.417-0.954,2.023-1.565c0.607-0.609,1.127-1.287,1.56-2.027c0.433-0.742,0.771-1.538,1.009-2.389
	C21.88,13.799,22,12.914,22,11.994S21.882,10.188,21.646,9.333z M15.218,15.729c0.085,0.131,0.128,0.277,0.128,0.439
	c0,0.225-0.084,0.418-0.25,0.58s-0.361,0.243-0.586,0.243c-0.309,0-0.549-0.136-0.719-0.405l-1.762-2.922
	c-0.232,0-0.45-0.043-0.655-0.128s-0.385-0.203-0.539-0.354c-0.155-0.149-0.276-0.328-0.365-0.533
	c-0.089-0.205-0.133-0.422-0.133-0.654c0-0.293,0.075-0.57,0.226-0.829c0.15-0.259,0.354-0.461,0.608-0.608V6.162
	c0-0.231,0.081-0.429,0.244-0.591c0.162-0.162,0.359-0.243,0.591-0.243s0.429,0.081,0.592,0.243c0.162,0.163,0.243,0.36,0.243,0.591
	v4.395c0.255,0.147,0.458,0.35,0.608,0.608c0.15,0.259,0.227,0.536,0.227,0.829c0,0.139-0.02,0.276-0.059,0.412
	c-0.038,0.135-0.09,0.269-0.15,0.4L15.218,15.729z"/>
</svg>
