<svg version="1.1" id="master" xmlns="http://www.w3.org/2000/svg" xmlns:xlink="http://www.w3.org/1999/xlink" x="0px" y="0px"
	 width="24px" height="24px" viewBox="0 0 24 24" enable-background="new 0 0 24 24" xml:space="preserve">
<rect fill="none" width="24" height="24"/>
<path d="M13.443,12.823c-0.153,0.259-0.354,0.465-0.603,0.618v2.715c0,0.232-0.08,0.429-0.243,0.592
	c-0.163,0.161-0.361,0.244-0.593,0.244s-0.429-0.082-0.591-0.244s-0.244-0.359-0.244-0.592v-2.715
	c-0.248-0.153-0.448-0.359-0.603-0.618c-0.156-0.259-0.233-0.535-0.233-0.83c0-0.293,0.076-0.569,0.227-0.83
	c0.151-0.259,0.354-0.461,0.609-0.608V6.163c0-0.232,0.081-0.429,0.244-0.592c0.161-0.162,0.359-0.244,0.591-0.244
	s0.429,0.082,0.593,0.244c0.161,0.163,0.243,0.36,0.243,0.592v4.393c0.255,0.147,0.457,0.35,0.609,0.608
	c0.149,0.259,0.226,0.536,0.226,0.83S13.602,12.563,13.443,12.823z M21.646,9.333c-0.237-0.854-0.573-1.651-1.01-2.389
	c-0.438-0.737-0.957-1.41-1.564-2.018c-0.605-0.606-1.277-1.128-2.018-1.565c-0.738-0.436-1.533-0.772-2.389-1.008
	C13.813,2.118,12.927,2,12.006,2c-0.92,0-1.805,0.12-2.655,0.357c-0.85,0.24-1.645,0.577-2.388,1.009
	C6.221,3.8,5.545,4.319,4.934,4.926c-0.61,0.607-1.133,1.281-1.565,2.023C2.935,7.691,2.6,8.489,2.359,9.338
	C2.12,10.188,2,11.073,2,11.994s0.12,1.804,0.359,2.654c0.241,0.851,0.577,1.647,1.01,2.39c0.432,0.741,0.955,1.418,1.564,2.028
	c0.611,0.609,1.287,1.133,2.029,1.564c0.742,0.432,1.538,0.77,2.388,1.01C10.201,21.879,11.086,22,12.006,22
	c0.921,0,1.807-0.121,2.656-0.359c0.849-0.24,1.645-0.578,2.388-1.01c0.741-0.433,1.416-0.955,2.022-1.564
	c0.605-0.61,1.128-1.287,1.559-2.028c0.434-0.741,0.77-1.539,1.01-2.39C21.88,13.798,22,12.914,22,11.994
	S21.883,10.188,21.646,9.333z M12,20c-4.418,0-8-3.582-8-8s3.582-8,8-8s8,3.582,8,8S16.418,20,12,20z"/>
</svg>
