<svg version="1.1" id="master" xmlns="http://www.w3.org/2000/svg" xmlns:xlink="http://www.w3.org/1999/xlink" x="0px" y="0px"
	 width="24px" height="24px" viewBox="0 0 24 24" enable-background="new 0 0 24 24" xml:space="preserve">
<rect fill="none" width="24" height="24"/>
<path d="M21.646,9.333c-0.236-0.854-0.572-1.65-1.01-2.389c-0.437-0.738-0.957-1.41-1.564-2.017
	c-0.606-0.607-1.279-1.129-2.018-1.565c-0.738-0.437-1.535-0.773-2.389-1.009C13.813,2.118,12.926,2,12.006,2
	s-1.805,0.12-2.655,0.359C8.5,2.599,7.705,2.935,6.962,3.368c-0.743,0.433-1.418,0.953-2.029,1.56
	c-0.61,0.607-1.132,1.281-1.565,2.023C2.935,7.693,2.599,8.489,2.359,9.339C2.12,10.189,2,11.074,2,11.994s0.12,1.805,0.359,2.654
	c0.239,0.851,0.576,1.646,1.009,2.39c0.433,0.741,0.955,1.418,1.565,2.028c0.611,0.61,1.287,1.133,2.029,1.564
	c0.742,0.432,1.538,0.77,2.388,1.01C10.201,21.88,11.086,22,12.006,22s1.805-0.12,2.655-0.359c0.85-0.238,1.646-0.576,2.388-1.009
	s1.417-0.954,2.023-1.565c0.607-0.609,1.127-1.287,1.56-2.027c0.433-0.742,0.771-1.538,1.009-2.389
	C21.88,13.799,22,12.914,22,11.994S21.882,10.188,21.646,9.333z M13.449,11.165c0.15,0.259,0.227,0.536,0.227,0.829
	c0,0.232-0.045,0.45-0.134,0.654c-0.089,0.205-0.211,0.384-0.365,0.533c-0.153,0.15-0.334,0.27-0.538,0.354
	c-0.206,0.085-0.424,0.128-0.656,0.128l-1.762,2.922c-0.17,0.271-0.41,0.405-0.719,0.405c-0.224,0-0.419-0.081-0.585-0.243
	s-0.25-0.355-0.25-0.58c0-0.162,0.042-0.309,0.128-0.439l1.75-2.922c-0.062-0.132-0.112-0.266-0.151-0.4
	c-0.039-0.135-0.058-0.272-0.058-0.412c0-0.293,0.075-0.57,0.226-0.829c0.15-0.259,0.354-0.461,0.608-0.608V6.162
	c0-0.231,0.081-0.429,0.244-0.591c0.162-0.162,0.359-0.243,0.591-0.243s0.429,0.081,0.591,0.243c0.163,0.163,0.244,0.36,0.244,0.591
	v4.395C13.096,10.704,13.299,10.906,13.449,11.165z"/>
</svg>
