<svg version="1.1" id="master" xmlns="http://www.w3.org/2000/svg" xmlns:xlink="http://www.w3.org/1999/xlink" x="0px" y="0px"
	 width="24px" height="24px" viewBox="0 0 24 24" enable-background="new 0 0 24 24" xml:space="preserve">
<rect fill="none" width="24" height="24"/>
<path d="M21.646,9.333c-0.236-0.854-0.572-1.65-1.009-2.389c-0.437-0.738-0.958-1.41-1.565-2.017
	c-0.606-0.607-1.279-1.129-2.018-1.565c-0.737-0.437-1.534-0.773-2.388-1.009C13.813,2.118,12.926,2,12.006,2
	s-1.805,0.12-2.655,0.359C8.5,2.599,7.705,2.935,6.962,3.368s-1.418,0.953-2.029,1.56c-0.61,0.607-1.132,1.281-1.565,2.023
	C2.935,7.693,2.599,8.489,2.359,9.339C2.12,10.189,2,11.074,2,11.994s0.12,1.805,0.359,2.655s0.576,1.646,1.009,2.389
	c0.433,0.741,0.955,1.418,1.565,2.028c0.611,0.611,1.287,1.133,2.029,1.565s1.538,0.77,2.388,1.009
	C10.201,21.88,11.086,22,12.006,22s1.805-0.12,2.655-0.359c0.85-0.239,1.646-0.576,2.388-1.009c0.742-0.433,1.417-0.954,2.023-1.565
	c0.607-0.61,1.127-1.287,1.56-2.028c0.433-0.742,0.77-1.538,1.009-2.389S22,12.914,22,11.994S21.882,10.188,21.646,9.333z M12,20
	c-4.418,0-8-3.582-8-8c0-4.418,3.582-8,8-8c4.418,0,8,3.582,8,8C20,16.418,16.418,20,12,20z M13.449,11.165
	c0.15,0.259,0.227,0.536,0.227,0.829c0,0.232-0.045,0.448-0.134,0.649s-0.209,0.377-0.359,0.527s-0.326,0.271-0.527,0.359
	s-0.417,0.134-0.649,0.134c-0.139,0-0.276-0.02-0.412-0.059c-0.135-0.038-0.269-0.089-0.4-0.15l-2.922,1.751
	c-0.131,0.085-0.274,0.127-0.429,0.127c-0.231,0-0.429-0.081-0.591-0.243c-0.162-0.162-0.243-0.359-0.243-0.591
	c0-0.31,0.135-0.549,0.406-0.72l2.922-1.762c0-0.309,0.071-0.591,0.214-0.847c0.143-0.255,0.35-0.459,0.62-0.614V6.162
	c0-0.231,0.081-0.429,0.244-0.591c0.162-0.162,0.359-0.243,0.591-0.243s0.429,0.081,0.591,0.243c0.163,0.163,0.244,0.36,0.244,0.591
	v4.395C13.096,10.704,13.299,10.906,13.449,11.165z"/>
</svg>
