<svg version="1.1" id="master" xmlns="http://www.w3.org/2000/svg" xmlns:xlink="http://www.w3.org/1999/xlink" x="0px" y="0px" width="24px" height="24px" viewBox="0 0 24 24" enable-background="new 0 0 24 24" xml:space="preserve">
<rect fill="none" width="24" height="24"/>
<path d="M2,2.25v19.5h20V2.25H2z M2.833,3.083h18.333v17.834H2.833V3.083z M7.54,15.854c-0.097,0-0.124-0.042-0.124-0.124V6.777c0-0.069,0.028-0.11,0.097-0.11h1.32c0.07,0,0.083,0.031,0.083,0.1v7.716h3.438c0.069,0,0.089,0.028,0.076,0.098l-0.207,1.184c-0.014,0.068-0.055,0.095-0.124,0.095H7.542L7.54,15.854z M13.708,10.458c0-0.1,0-0.347-0.041-0.814c0-0.069,0.015-0.083,0.069-0.11c0.508-0.205,1.716-0.576,3.063-0.576c0.066,0,0.094,0.014,0.094,0.083v1.21c0,0.07-0.027,0.083-0.097,0.083c-0.523-0.028-1.303,0.042-1.591,0.165v5.258c0,0.068-0.028,0.096-0.098,0.096h-1.309c-0.066,0-0.095-0.027-0.095-0.097v-5.3L13.708,10.458z"/>
</svg>
