<svg version="1.1" id="master" xmlns="http://www.w3.org/2000/svg" xmlns:xlink="http://www.w3.org/1999/xlink" x="0px" y="0px" width="24px" height="24px" viewBox="0 0 24 24" enable-background="new 0 0 24 24" xml:space="preserve">
<rect fill="none" width="24" height="24"/>
<path d="M2,2v20h20V2H2z M2.833,2.855h18.333v18.291H2.833V2.855z M7.971,8.652H5.662c-0.068,0-0.096-0.027-0.083-0.11l0.165-1.154c0.013-0.069,0.041-0.096,0.11-0.096h5.771c0.083,0,0.11,0.027,0.125,0.109l0.11,1.141c0.014,0.083-0.027,0.11-0.097,0.11H9.468v7.695c0,0.069-0.027,0.11-0.11,0.11H8.08c-0.082,0-0.109-0.027-0.109-0.11V8.652z M14.265,12.624l2.103-2.845c0.055-0.068,0.068-0.096,0.138-0.096h1.401c0.083,0,0.111,0.055,0.056,0.123c-0.33,0.426-1.843,2.295-2.337,2.899c-0.014,0.026-0.014,0.058,0,0.083l2.666,3.559c0.028,0.056,0.015,0.11-0.068,0.11h-1.621c-0.083,0-0.111-0.027-0.139-0.082c-0.747-1.012-1.479-2.033-2.198-3.065v3.052c0,0.068-0.014,0.096-0.097,0.096h-1.291c-0.098,0-0.11-0.027-0.11-0.11V7.375c0-0.042,0.013-0.083,0.096-0.083h1.306c0.056,0,0.097,0.027,0.097,0.096V12.624L14.265,12.624z"/>
</svg>
