<svg version="1.1" id="master" xmlns="http://www.w3.org/2000/svg" xmlns:xlink="http://www.w3.org/1999/xlink" x="0px" y="0px" width="24px" height="24px" viewBox="0 0 24 24" enable-background="new 0 0 24 24" xml:space="preserve" fill="#F68F1B">
<rect fill="none" width="24" height="24"/>
<path d="M4.717,14.902l3.379-0.054c0,0-0.694-3.187-1.044-4.766C6.816,9.021,6.562,7.964,6.334,6.9C6.3,6.739,6.359,6.554,6.395,6.384c0.12-0.574,0.248-1.146,0.382-1.758c0.457,0,0.884-0.007,1.311,0.003c0.198,0.005,0.245,0.145,0.287,0.327C8.68,6.288,9.007,7.615,9.318,8.945c0.551,2.353,1.096,4.706,1.643,7.06c0.196,0.847,0.389,1.693,0.587,2.539c0.061,0.256,0.138,0.507,0.219,0.806c-0.887,0-1.762,0-2.62,0c-0.03-0.16-0.017-0.32-0.088-0.423c-0.414-0.596-0.814-1.206-1.283-1.757c-0.744-0.875-1.737-1.426-2.735-1.958c-0.12-0.063-0.237-0.133-0.356-0.199C4.697,14.976,4.717,14.902,4.717,14.902z M14.705,5.625c0.01,4.206,0.011,8.411,0.009,12.616c0,0.374-0.035,0.747-0.055,1.135c0.826,0,1.694,0,2.515,0c-0.036-0.309-0.098-0.592-0.098-0.874c-0.007-4.354-0.006-8.708-0.002-13.062c0-0.243,0.043-0.485,0.07-0.778c-0.843,0-1.707,0-2.555,0C14.635,5.02,14.705,5.323,14.705,5.625z M22,19.362c0-1.38,0-2.722,0-4.063c-0.361,1.92-1.383,3.301-3.223,4.063C19.848,19.362,20.918,19.362,22,19.362z M4.82,19.3c-0.874-0.817-1.098-1.809-1.091-2.896C3.353,17.469,2.962,18.501,2,19.3C2.976,19.3,3.862,19.3,4.82,19.3z"/>
</svg>
