<svg version="1.1" id="master" xmlns="http://www.w3.org/2000/svg" xmlns:xlink="http://www.w3.org/1999/xlink" x="0px" y="0px" width="24px" height="24px" viewBox="0 0 24 24" enable-background="new 0 0 24 24" xml:space="preserve" fill="#0D7C7B">
<rect fill="none" width="24" height="24"/>
<path d="M20.667,2H3.333C2.598,2,2,2.597,2,3.333v17.334C2,21.402,2.598,22,3.333,22h17.334C21.402,22,22,21.402,22,20.667V3.333C22,2.597,21.402,2,20.667,2z M18.782,18.062c-4.036,2.813-8.435,2.545-11.509-0.63c-2.728-2.816-3.032-6.947-0.741-10.035c2.697-3.637,7.242-4.441,12.12-2.005c0,0.646,0,2.178,0,2.96c-3.848-1.636-7.431-1.921-9.561,0.533c-1.813,2.089-1.571,4.885,0.586,6.79c2.432,2.15,5.911,1.497,9.104-0.407C18.782,15.996,18.782,17.463,18.782,18.062z"/>
</svg>
