<svg version="1.1" id="master" xmlns="http://www.w3.org/2000/svg" xmlns:xlink="http://www.w3.org/1999/xlink" x="0px" y="0px" width="24px" height="24px" viewBox="0 0 24 24" enable-background="new 0 0 24 24" xml:space="preserve" fill="#1F4A50">
<rect fill="none" width="24" height="24"/>
<path d="M20.196,2H3.804C2.808,2,2,2.808,2,3.804v16.393C2,21.192,2.808,22,3.804,22h16.393C21.192,22,22,21.192,22,20.196V3.804C22,2.808,21.192,2,20.196,2z M17.617,7.261c-1.34,0-2.695,0-4.126,0c0,3.995,0,7.926,0,11.891c-1.004,0-1.933,0-2.937,0c0-3.931,0-7.864,0-11.859c-1.434,0-2.792,0-4.172,0c0-0.847,0-1.632,0-2.443c3.75,0,7.465,0,11.234,0C17.617,5.629,17.617,6.412,17.617,7.261z"/>
</svg>
