<svg version="1.1" id="master" xmlns="http://www.w3.org/2000/svg" xmlns:xlink="http://www.w3.org/1999/xlink" x="0px" y="0px" width="24px" height="24px" viewBox="0 0 24 24" enable-background="new 0 0 24 24" xml:space="preserve">
<rect fill="none" width="24" height="24"/>
<path d="M12.139,2.037c-4.325,0-8.003,2.583-9.513,6.625C3.858,7.308,5.49,6.584,7.386,6.584H7.4c2.942,0.005,6.052,1.865,7.079,4.234h-0.004c0.368,0.719,0.282,1.46,0.164,1.928c-0.137,0.532-0.341,0.781-0.418,0.882l-0.042,0.055c-0.15,0.187-0.127,0.46,0.051,0.623c0.031,0.027,0.081,0.063,0.149,0.109l0.118,0.072c0.577,0.364,1.883,0.736,3.065,0.736c0.905,0,2.087-0.141,3.196-1.255c1.864-1.864,1.146-4.465,0.882-5.22c-0.45-1.278-2.319-5.525-7.562-6.525C13.443,2.101,12.789,2.037,12.139,2.037z M7.386,7.494c-2.365,0-4.261,1.323-5.352,3.733C1.675,15.393,4.198,19.13,7.2,20.804c0.432,0.24,1.805,0.933,3.719,1.159c-1.691-0.8-2.979-2.196-3.569-4.011c-0.982-3.015,0.25-6.233,3.138-8.198l0.004,0.005c0.437-0.287,0.969-0.45,1.515-0.45c0.063,0,0.123-0.001,0.187,0.009C10.915,8.226,9.105,7.498,7.4,7.494H7.386z M9.273,12.118c-1.264,1.623-1.678,3.639-1.055,5.553c0.823,2.528,3.229,4.129,6.162,4.138c2.283-0.509,4.27-1.842,5.934-3.993l0.041-0.054c0.114-0.169,0.105-0.392-0.021-0.551c-0.133-0.154-0.351-0.209-0.537-0.127l-0.219,0.101c-0.091,0.04-0.172,0.067-0.272,0.104c-0.104,0.036-0.223,0.082-0.377,0.146c-0.587,0.241-1.46,0.378-2.396,0.378c-0.787,0-1.555-0.1-2.16-0.282c-0.854-0.255-3.461-1.041-4.821-4.043C9.382,13.113,9.269,12.637,9.273,12.118z"/>
</svg>
