<svg version="1.1" id="master" xmlns="http://www.w3.org/2000/svg" xmlns:xlink="http://www.w3.org/1999/xlink" x="0px" y="0px" width="24px" height="24px" viewBox="0 0 24 24" enable-background="new 0 0 24 24" xml:space="preserve">
<rect fill="none" width="24" height="24"/>
<path d="M14.411,4.548h7.452v14.904h-7.452v-2.85l0.657,0.658l2.192-2.192l-2.192-2.191l-0.657,0.657V7.616h3.507v3.507h-1.754l2.192,2.192l2.191-2.192h-1.753V6.74h-4.384V4.548z M2.137,4.178L13.534,2v1.973c-0.025,0.085-0.025,0.175,0,0.26v15.576c-0.012,0.058-0.012,0.119,0,0.178V22L2.137,19.822V4.178z M5.273,16.109h1.85v-2.821H8c0.991,0,1.791-0.259,2.384-0.768c0.592-0.508,0.89-1.176,0.89-2c0-1.743-1.043-2.616-3.109-2.616H5.273V16.109z M9.328,10.589c0-0.842-0.496-1.26-1.479-1.26H7.123v2.548h0.726C8.832,11.877,9.328,11.45,9.328,10.589z"/>
</svg>
