<svg version="1.1" id="master" xmlns="http://www.w3.org/2000/svg" xmlns:xlink="http://www.w3.org/1999/xlink" x="0px" y="0px" width="24px" height="24px" viewBox="0 0 24 24" enable-background="new 0 0 24 24" xml:space="preserve">
<rect fill="none" width="24" height="24"/>
<path d="M18.657,7.217h-1.875V4.948L18.657,7.217z M2,4.241l11.305-2.16v5.435c-0.025,0.085-0.025,0.174,0,0.259v11.97c-0.013,0.059-0.013,0.119,0,0.177v1.998L2,19.758V4.241z M4.677,16.076h1.834v-2.799h0.87c0.983,0,1.776-0.257,2.364-0.761c0.587-0.505,0.883-1.167,0.883-1.984c0-1.729-1.035-2.595-3.084-2.595H4.677V16.076z M8.698,10.601c0-0.836-0.492-1.25-1.467-1.25h-0.72v2.527h0.72C8.206,11.878,8.698,11.454,8.698,10.601z M14.174,8.087v1.739h3.479v1.739h-3.479v1.304h3.479v0.87h-3.479v1.305h3.479v0.869h-3.479v1.305h3.479v0.869h-3.479v1.305h5.218v-2.948c-0.012-0.059-0.012-0.119,0-0.177V8.101c-0.006-0.006-0.009-0.009-0.014-0.014H14.174z M20.003,7.476c0.015,0.017,0.028,0.035,0.041,0.054c0.13,0.153,0.217,0.345,0.217,0.558v7.826H22V4.174h-4.729L20.003,7.476z"/>
</svg>
