<svg version="1.1" id="master" xmlns="http://www.w3.org/2000/svg" xmlns:xlink="http://www.w3.org/1999/xlink" x="0px" y="0px" width="24px" height="24px" viewBox="0 0 24 24" enable-background="new 0 0 24 24" xml:space="preserve">
<rect fill="none" width="24" height="24"/>
<path d="M9.715,6.671h1.967c0.508,0,0.917,0.411,0.917,0.918v1.316c1.606-0.03,2.885-1.357,2.854-2.963c-0.03-1.606-1.356-2.884-2.963-2.854C10.884,3.12,9.606,4.446,9.637,6.053C9.641,6.261,9.667,6.469,9.715,6.671z M18.908,8.908h0.002c1.104,0,2.001-0.895,2.002-1.999c0-1.105-0.895-2.001-1.999-2.002c-1.104-0.001-2.002,0.893-2.004,1.998C16.909,8.01,17.804,8.906,18.908,8.908z M12.181,16.424V7.939c0-0.469-0.379-0.849-0.848-0.85H2.847C2.379,7.091,2,7.471,2,7.938v8.487c0,0.468,0.38,0.847,0.848,0.847h8.488C11.803,17.272,12.182,16.892,12.181,16.424L12.181,16.424z M9.276,10.192H7.615v4.737H6.558v-4.738H4.906V9.271h4.37V10.192z M21.164,10h-8.563v6.774c0,0.507-0.413,0.918-0.919,0.918h-3.51c1.036,2.615,3.996,3.896,6.612,2.86c1.189-0.472,2.158-1.372,2.712-2.524c0.435,0.222,0.915,0.337,1.402,0.337h0.021c1.702,0,3.08-1.379,3.08-3.08l0,0v-4.448C22,10.374,21.626,10,21.164,10L21.164,10z"/>
</svg>
