<svg version="1.1" id="master" xmlns="http://www.w3.org/2000/svg" xmlns:xlink="http://www.w3.org/1999/xlink" x="0px" y="0px" width="24px" height="24px" viewBox="0 0 24 24" enable-background="new 0 0 24 24" xml:space="preserve">
<rect fill="none" width="24" height="24"/>
<path d="M18.37,8.753l-1.151-1.151l1.138-1.123l1.137,1.137L18.37,8.753z M16.164,14.191h-1.753v2.631h1.753V14.191z M17.041,13.754v1.314h0.877V9.548l-1.493-1.493h-2.014v5.261h2.191C16.844,13.315,17.041,13.512,17.041,13.754z M2.137,4.178L13.534,2v1.973c-0.025,0.085-0.025,0.175,0,0.26v9.383c-0.025,0.086-0.025,0.175,0,0.261v3.301c-0.012,0.059-0.012,0.12,0,0.179v2.452c-0.012,0.058-0.012,0.119,0,0.178V22L2.137,19.822V4.178z M4.493,8.027l2.137,8.302l1.739,0.164l2.508-9.055L9.15,7.589l-1.589,6.768H7.466L5.959,7.891L4.493,8.027z M14.411,7.178h2l1.945-1.945l2.383,2.383l-1.944,1.945v6.384h-1.754v1.315c0,0.241-0.197,0.438-0.438,0.438h-2.191v1.754h7.452V4.548h-7.452V7.178z"/>
</svg>
