<svg version="1.1" id="master" xmlns="http://www.w3.org/2000/svg" xmlns:xlink="http://www.w3.org/1999/xlink" x="0px" y="0px" width="24px" height="24px" viewBox="0 0 24 24" enable-background="new 0 0 24 24" xml:space="preserve">
<rect fill="none" width="24" height="24"/>
<path d="M6.76,3.33L6.13,3.386L5.932,3.845l0.612-0.014L6.76,3.33z M7.918,4.102L7.104,4.216L6.832,4.889l0.8-0.1L7.918,4.102L7.918,4.102z M6.074,4.945l-0.6,0.042l-0.2,0.472l0.601-0.014L6.074,4.945z M9.178,5.203L8.105,5.26L7.777,6.061l1.059-0.044L9.178,5.203z M10.736,5.675L9.42,5.732L8.949,6.863l1.33-0.074L10.736,5.675L10.736,5.675z M7.246,5.706L6.432,5.833L6.146,6.505l0.813-0.1L7.246,5.706z M12.365,6.262l-1.558,0.112l-0.53,1.273l1.559-0.128L12.365,6.262z M14.803,6.445c-0.092,0-0.185,0-0.278,0.001l-0.64,1.542c1.162-0.025,2.1,0.074,2.811,0.317l-1.457,3.5c-0.796-0.253-1.735-0.37-2.8-0.328l-0.449,1.087c0.947-0.073,1.899,0.039,2.804,0.33l-1.386,3.345c-1.048-0.225-1.984-0.329-2.822-0.287l-0.652,1.572c2.802-0.372,5.29,0.685,7.507,3.145L22,9.691C20.063,7.545,17.667,6.459,14.803,6.445L14.803,6.445z M14.266,6.446l-1.687,0.1l-0.572,1.4l1.688-0.157L14.266,6.446z M5.431,6.488l-0.599,0.03L4.645,6.99h0.586L5.431,6.488L5.431,6.488z M8.506,6.819L7.434,6.876L7.104,7.676l1.058-0.042L8.506,6.819z M6.616,7.25L5.788,7.378L5.501,8.051L6.317,7.95L6.616,7.25z M10.063,7.305L8.747,7.362L8.274,8.475l1.33-0.071L10.063,7.305L10.063,7.305z M11.693,7.878l-1.559,0.113L9.604,9.263l1.573-0.128L11.693,7.878z M13.594,8.037L11.919,8.15l-0.583,1.402l1.7-0.159L13.594,8.037L13.594,8.037z M4.787,8.091L4.171,8.121l-0.198,0.47h0.599L4.787,8.091L4.787,8.091z M7.875,8.335L6.789,8.407L6.46,9.208l1.073-0.029L7.875,8.335z M17.74,8.548c0.877,0.279,1.672,0.771,2.314,1.431l-1.458,3.531c-0.514-0.487-0.958-0.801-1.343-0.958l-1-0.415L17.74,8.548z M5.944,8.85L5.131,8.978L4.844,9.651l0.801-0.1L5.944,8.85L5.944,8.85z M9.433,8.85L8.104,8.893l-0.458,1.128L8.975,9.95L9.433,8.85z M11.064,9.407L9.491,9.533L8.975,10.79l1.559-0.113l0.53-1.272V9.407z M12.936,9.636l-1.672,0.1l-0.586,1.387l1.701-0.13L12.936,9.636z M4.1,9.722L3.502,9.75l-0.2,0.458L3.9,10.194L4.1,9.722z M7.205,9.95L6.13,10.008l-0.342,0.801l1.072-0.025L7.205,9.95L7.205,9.95z M8.763,10.45l-1.33,0.042l-0.458,1.13l1.332-0.07L8.763,10.45L8.763,10.45z M5.274,10.481l-0.816,0.113l-0.27,0.671l0.799-0.1L5.274,10.481z M10.391,11.008l-1.558,0.128l-0.544,1.272l1.588-0.128L10.391,11.008z M12.28,11.237l-1.688,0.1l-0.572,1.386l1.688-0.143L12.28,11.237z M3.473,11.263l-0.616,0.031l-0.199,0.471l0.6-0.014L3.473,11.263z M6.534,11.565l-1.074,0.057l-0.342,0.815l1.087-0.042L6.534,11.565z M4.629,12.009l-0.813,0.128l-0.271,0.67l0.8-0.1L4.629,12.009L4.629,12.009z M8.09,12.067l-1.33,0.055l-0.471,1.13l1.343-0.07L8.09,12.067z M9.721,12.623l-1.574,0.128l-0.514,1.271l1.572-0.125L9.721,12.623z M11.621,12.808l-1.688,0.1l-0.571,1.388l1.701-0.144L11.621,12.808L11.621,12.808z M2.801,12.85l-0.615,0.044L2,13.367l0.6-0.017L2.801,12.85L2.801,12.85z M5.889,13.108l-1.071,0.058l-0.33,0.813l1.073-0.042L5.889,13.108L5.889,13.108z M15.824,13.167c0.9,0.242,1.687,0.685,2.345,1.344l-1.429,3.486c-0.743-0.628-1.517-1.1-2.345-1.387L15.824,13.167L15.824,13.167z M7.461,13.596L6.13,13.667l-0.458,1.1l1.315-0.055L7.461,13.596L7.461,13.596z M3.974,13.607l-0.83,0.13l-0.257,0.658l0.801-0.087L3.974,13.607z M9.091,14.166l-1.587,0.128L6.99,15.567l1.574-0.128L9.091,14.166L9.091,14.166z M10.95,14.436l-1.688,0.103L8.691,15.94l1.688-0.145L10.95,14.436z M5.231,14.709l-1.083,0.057l-0.331,0.815l1.071-0.044L5.231,14.709z M6.79,15.196l-1.315,0.057l-0.472,1.112l1.329-0.053L6.79,15.196z M8.418,15.78l-1.556,0.114l-0.529,1.258l1.559-0.114L8.418,15.78z M10.276,16.039L8.605,16.14l-0.586,1.4l1.7-0.158L10.276,16.039L10.276,16.039z"/>
</svg>
