<svg version="1.1" id="master" xmlns="http://www.w3.org/2000/svg" xmlns:xlink="http://www.w3.org/1999/xlink" x="0px" y="0px" width="24px" height="24px" viewBox="0 0 24 24" enable-background="new 0 0 24 24" xml:space="preserve">
<rect fill="none" width="24" height="24"/>
<path d="M9.992,11.938c-0.233-0.921-0.8-2.941-1.005-3.917H8.974c-0.179,0.975-0.63,2.624-0.975,3.917H9.992z M2,2v20h20V2H2z M12.508,15.872h-1.375c-0.068,0-0.108-0.024-0.123-0.081l-0.688-2.501H7.656l-0.003,0.001l-0.66,2.488c-0.014,0.07-0.042,0.095-0.124,0.095H5.646c-0.083,0-0.097-0.028-0.083-0.125L7.93,7.472c0.042-0.15,0.068-0.271,0.082-0.683c0-0.055,0.027-0.083,0.069-0.083h1.747c0.055,0,0.083,0.015,0.096,0.083l2.652,8.975C12.59,15.831,12.576,15.872,12.508,15.872z M18.128,12.632c-0.014,0.068-0.041,0.093-0.108,0.106c-0.166,0.027-0.66,0.055-1.391,0.055h-2.17c0.014,1.126,0.549,1.882,1.814,1.882c0.494,0,0.918-0.065,1.357-0.258c0.057-0.026,0.098-0.013,0.098,0.056v1.045c0,0.084-0.027,0.125-0.082,0.166c-0.439,0.221-0.987,0.317-1.676,0.317c-2.201,0-3.025-1.623-3.025-3.438c0-1.966,1.02-3.575,2.807-3.575c1.814,0,2.447,1.527,2.447,2.764C18.199,12.152,18.17,12.482,18.128,12.632z M16.15,11.646c0.427,0,0.576,0,0.617-0.013c0-0.057,0.016-0.104,0.016-0.146c0-0.454-0.223-1.287-1.09-1.287c-0.797,0-1.143,0.702-1.223,1.444h1.678L16.15,11.646z"/>
</svg>
