<svg version="1.1" id="master" xmlns="http://www.w3.org/2000/svg" xmlns:xlink="http://www.w3.org/1999/xlink" x="0px" y="0px" width="24px" height="24px" viewBox="0 0 24 24" enable-background="new 0 0 24 24" xml:space="preserve">
<rect fill="none" width="24" height="24"/>
<path d="M2,2.25v19.5h20V2.25H2z M2.833,3.083h18.333v17.834H2.833V3.083z M8.938,13.291l-0.66,2.499c-0.014,0.069-0.042,0.085-0.124,0.085H6.931c-0.083,0-0.096-0.027-0.083-0.123l2.367-8.288c0.042-0.15,0.068-0.282,0.082-0.694c0-0.055,0.027-0.083,0.069-0.083h1.747c0.055,0,0.083,0.015,0.096,0.083l2.654,8.995c0.015,0.07,0,0.11-0.068,0.11h-1.375c-0.069,0-0.11-0.017-0.124-0.071l-0.688-2.513H8.935H8.938z M11.261,11.938c-0.233-0.922-0.783-2.94-0.99-3.917h-0.014c-0.179,0.975-0.619,2.625-0.963,3.917H11.261z M15.011,7.306c0-0.536,0.371-0.853,0.853-0.853c0.509,0,0.853,0.343,0.853,0.853c0,0.55-0.358,0.852-0.866,0.852c-0.5,0-0.842-0.302-0.842-0.852H15.011z M15.104,9.201c0-0.067,0.028-0.092,0.098-0.092h1.309c0.072,0,0.1,0.027,0.1,0.097v6.579c0,0.069-0.013,0.097-0.096,0.097h-1.292c-0.084,0-0.111-0.042-0.111-0.109V9.2L15.104,9.201z"/>
</svg>
