<svg version="1.1" id="master" xmlns="http://www.w3.org/2000/svg" xmlns:xlink="http://www.w3.org/1999/xlink" x="0px" y="0px" width="24px" height="24px" viewBox="0 0 24 24" enable-background="new 0 0 24 24" xml:space="preserve">
<rect fill="none" width="24" height="24"/>
<path d="M8.313,11.243c0.192,0.014,0.343,0.014,0.675,0.014c0.976,0,1.892-0.344,1.892-1.664c0-1.059-0.655-1.595-1.768-1.595c-0.33,0-0.646,0.013-0.797,0.027v3.22L8.313,11.243z M2,2v20h20V2H2z M8.958,12.591c-0.317,0-0.425-0.014-0.646-0.014v3.2c0,0.07-0.027,0.097-0.096,0.097H6.93c-0.069,0-0.096-0.024-0.096-0.095L6.833,6.816C6.833,6.76,6.95,6.72,7.02,6.72c0.537-0.028,1.323-0.042,2.148-0.042c2.31,0,3.208,1.266,3.208,2.888C12.376,11.683,10.841,12.591,8.958,12.591z M14.961,16.001c-0.729,0-1.35-0.151-1.708-0.358c-0.055-0.027-0.065-0.067-0.065-0.138v-1.223c0-0.083,0.039-0.11,0.095-0.069c0.521,0.344,1.127,0.494,1.677,0.494c0.66,0,0.936-0.273,0.936-0.646c0-0.303-0.19-0.564-1.03-1.004c-1.185-0.567-1.679-1.143-1.679-2.106c0-1.072,0.838-1.967,2.295-1.967c0.718,0,1.221,0.11,1.496,0.233c0.067,0.042,0.082,0.11,0.082,0.165v1.142c0,0.069-0.041,0.111-0.125,0.083c-0.369-0.22-0.916-0.358-1.451-0.358l0.002,0.005c-0.659,0-0.879,0.33-0.879,0.605c0,0.303,0.149,0.508,1.029,0.962c1.309,0.633,1.719,1.237,1.719,2.13C17.354,15.283,16.337,16.001,14.961,16.001z"/>
</svg>
