<svg version="1.1" id="master" xmlns="http://www.w3.org/2000/svg" xmlns:xlink="http://www.w3.org/1999/xlink" x="0px" y="0px" width="24px" height="24px" viewBox="0 0 24 24" enable-background="new 0 0 24 24" xml:space="preserve">
<rect fill="none" width="24" height="24"/>
<path d="M19.143,2H4.857C3.279,2,2,3.279,2,4.857v14.286C2,20.721,3.279,22,4.857,22h14.286C20.721,22,22,20.721,22,19.143V4.857C22,3.279,20.721,2,19.143,2z M20,17.714C20,18.977,18.977,20,17.714,20H6.286C5.023,20,4,18.977,4,17.714V6.286C4,5.023,5.023,4,6.286,4h11.428C18.977,4,20,5.023,20,6.286V17.714z M12,13.43c-0.789,0-1.429-0.641-1.429-1.43s0.64-1.429,1.429-1.429s1.43,0.64,1.43,1.429S12.789,13.43,12,13.43z"/>
</svg>
