<svg version="1.1" id="master" xmlns="http://www.w3.org/2000/svg" xmlns:xlink="http://www.w3.org/1999/xlink" x="0px" y="0px"
	 width="24px" height="24px" viewBox="0 0 24 24" enable-background="new 0 0 24 24" xml:space="preserve">
<rect fill="none" width="24" height="24"/>
<path d="M7.684,9.44v2.606c0,1.31-0.175,2.464-0.526,3.461c-0.351,0.998-0.925,1.984-1.725,2.959L6.067,19
	c1.346-1.563,2.118-3.215,2.313-4.958h8.748V9.44H7.684z M16.301,13.268H8.512v-1.206h7.789V13.268z M16.301,11.32H8.512v-1.137
	h7.789V11.32z M8.682,15.172v3.813h0.859v-0.68h7.178v0.68h0.836v-3.813H8.682z M16.719,17.576H9.541v-1.693h7.178V17.576z
	 M12.55,5.526l0.239-0.317L11.838,5c-1.609,1.836-3.86,3.14-6.752,3.914l0.418,0.727c1.273-0.34,2.604-0.89,3.99-1.647v0.542h5.066
	V7.839c1.112,0.629,2.412,1.199,3.896,1.709l0.456-0.696C16.316,8.011,14.193,6.903,12.55,5.526z M9.827,7.792
	c0.835-0.526,1.557-1.093,2.165-1.701c0.836,0.691,1.627,1.258,2.375,1.701H9.827z M2,2v20h20V2H2z M21,21H3V3h18V21z"/>
</svg>
