<svg version="1.1" id="master" xmlns="http://www.w3.org/2000/svg" xmlns:xlink="http://www.w3.org/1999/xlink" x="0px" y="0px"
	 width="24px" height="24px" viewBox="0 0 24 24" enable-background="new 0 0 24 24" xml:space="preserve">
<rect fill="none" width="24" height="24"/>
<path d="M8.512,10.183h7.789v1.137H8.512V10.183z M8.512,13.268h7.789v-1.206H8.512V13.268z M16.719,15.883H9.541v1.693h7.178
	V15.883z M22,2v20H2V2H22z M8.38,14.042h8.748V9.44H7.684v2.606c0,1.31-0.175,2.464-0.526,3.461
	c-0.351,0.998-0.925,1.984-1.725,2.959L6.067,19C7.413,17.438,8.185,15.785,8.38,14.042z M17.554,15.172H8.682v3.813h0.859v-0.68
	h7.178v0.68h0.835V15.172z M18.914,8.852c-2.598-0.841-4.72-1.949-6.364-3.326l0.239-0.317L11.838,5
	c-1.609,1.836-3.86,3.14-6.752,3.914l0.418,0.727c1.273-0.34,2.604-0.89,3.99-1.647v0.542h5.067V7.839
	c1.113,0.629,2.412,1.199,3.897,1.709L18.914,8.852z M9.827,7.792h4.54c-0.748-0.443-1.539-1.01-2.375-1.701
	C11.384,6.699,10.662,7.266,9.827,7.792z"/>
</svg>
