<svg version="1.1" id="master" xmlns="http://www.w3.org/2000/svg" xmlns:xlink="http://www.w3.org/1999/xlink" x="0px" y="0px" width="24px" height="24px" viewBox="0 0 24 24" enable-background="new 0 0 24 24" xml:space="preserve">
<rect fill="none" width="24" height="24"/>
<path d="M2,2v20h20V2H2z M21,21H3V3h18V21z M9.879,13.471c0.567-0.923,1.006-2.188,1.315-3.797H5.313v-0.82h6.036c0.165-1.3,0.256-2.585,0.271-3.854h0.905c-0.052,1.383-0.152,2.667-0.302,3.854h6.493v0.82h-5.874c0.567,2.265,1.35,4.039,2.346,5.321s2.256,2.38,3.783,3.293L18.408,19c-1.703-1.089-3.063-2.35-4.083-3.781c-1.019-1.432-1.778-3.205-2.278-5.32c-0.641,3.708-2.8,6.728-6.479,9.054l-0.541-0.719c0.934-0.594,1.834-1.307,2.701-2.137C8.594,15.268,9.311,14.391,9.879,13.471z"/>
</svg>
