<svg version="1.1" id="master" xmlns="http://www.w3.org/2000/svg" xmlns:xlink="http://www.w3.org/1999/xlink" x="0px" y="0px" width="24px" height="24px" viewBox="0 0 24 24" enable-background="new 0 0 24 24" xml:space="preserve">
<rect fill="none" width="24" height="24"/>
<path d="M2,2v20h20V2H2z M6.2,5.016c0.963,0.57,1.92,1.281,2.873,2.135L8.451,7.788c-0.735-0.709-1.657-1.416-2.763-2.12L6.2,5.016z M5.765,8.805c0.979,0.533,1.954,1.211,2.928,2.034l-0.521,0.636c-0.833-0.673-1.799-1.34-2.896-2.004L5.765,8.805z M5.082,18.408c1.03-1.361,2.037-3.17,3.02-5.427l0.739,0.527C7.691,15.912,6.66,17.742,5.749,19L5.082,18.408z M18.918,18.564H8.755v-0.822h4.853v-4.551H9.903v-0.822h3.703V8.532h-4.1V7.71h4.24c-0.28-0.968-0.623-1.802-1.032-2.5L13.545,5c0.529,1.076,0.879,1.98,1.049,2.71h4.201v0.822h-4.364v3.836h3.806v0.823h-3.806v4.549h4.488L18.918,18.564L18.918,18.564z"/>
</svg>
