<svg version="1.1" id="master" xmlns="http://www.w3.org/2000/svg" xmlns:xlink="http://www.w3.org/1999/xlink" x="0px" y="0px"
	 width="24px" height="24px" viewBox="0 0 24 24" enable-background="new 0 0 24 24" xml:space="preserve">
<rect fill="none" width="24" height="24"/>
<path d="M2,2v20h20V2H2z M21,21H3V3h18V21z M8.172,11.475c-0.833-0.673-1.799-1.34-2.896-2.004l0.489-0.667
	c0.979,0.533,1.954,1.211,2.928,2.034L8.172,11.475z M13.606,8.532H9.507V7.71h4.24c-0.28-0.968-0.623-1.802-1.032-2.5L13.545,5
	c0.529,1.076,0.879,1.98,1.049,2.71h4.201v0.822h-4.364v3.836h3.807v0.823h-3.807v4.549h4.489v0.823h-0.001H8.755v-0.821h4.853
	v-4.551H9.904v-0.822h3.703V8.532z M8.451,7.788c-0.735-0.709-1.657-1.416-2.763-2.12L6.2,5.016c0.963,0.57,1.92,1.281,2.873,2.135
	L8.451,7.788z M5.749,19l-0.667-0.592c1.03-1.361,2.037-3.17,3.02-5.427l0.739,0.527C7.691,15.912,6.66,17.742,5.749,19z"/>
</svg>
