<svg version="1.1" id="master" xmlns="http://www.w3.org/2000/svg" xmlns:xlink="http://www.w3.org/1999/xlink" x="0px" y="0px"
	 width="24px" height="24px" viewBox="0 0 24 24" enable-background="new 0 0 24 24" xml:space="preserve">
<rect fill="none" width="24" height="24"/>
<path d="M11.106,6.224c0.279-0.408,0.47-0.738,0.573-0.991L10.936,5c-0.203,0.433-0.447,0.841-0.736,1.223H6.413v6.25h11.215v-6.25
	H11.106z M16.828,11.722H7.257V7.013h9.571V11.722L16.828,11.722z M8.225,9.886v-0.65h3.399V8.082
	c-1.11,0.032-2.07,0.026-2.88-0.016l-0.31-0.674c2.788,0.073,4.957,0.005,6.504-0.201l0.467,0.565
	c-1.22,0.139-2.224,0.237-3.011,0.294v1.185H15.8v0.65h-2.654c0.93,0.294,1.789,0.62,2.577,0.976l-0.387,0.549
	c-0.824-0.402-1.806-0.785-2.941-1.146v1.115h-0.771v-1.115c-1.011,0.521-2.094,0.904-3.244,1.146l-0.403-0.627
	c1.239-0.222,2.241-0.521,3.005-0.898H8.225V9.886z M9.115,8.802l0.388-0.503c0.413,0.052,0.836,0.136,1.27,0.255l-0.348,0.511
	C10.063,8.952,9.626,8.864,9.115,8.802z M14.69,8.625c-0.314,0.165-0.71,0.299-1.185,0.402L13.181,8.5
	c0.528-0.108,0.931-0.237,1.209-0.387L14.69,8.625z M18.881,14.354H9.89c-0.155,0.541-0.297,0.953-0.426,1.232h7.698
	c-0.068,0.793-0.159,1.437-0.272,1.926c-0.097,0.451-0.305,0.793-0.619,1.032c-0.331,0.258-0.813,0.396-1.448,0.417
	c-0.943,0.011-1.999,0.023-3.167,0.039l-0.38-0.836c1.053,0.021,2.368,0.025,3.942,0.016c0.181,0,0.354-0.066,0.523-0.198
	c0.166-0.132,0.274-0.285,0.321-0.46c0.079-0.321,0.139-0.705,0.187-1.152H8.279c0.305-0.712,0.549-1.384,0.736-2.014H5.12v-0.759
	h13.761V14.354L18.881,14.354z M2,2v20h20V2H2z M21,21H3V3h18V21z"/>
</svg>
