<svg version="1.1" id="master" xmlns="http://www.w3.org/2000/svg" xmlns:xlink="http://www.w3.org/1999/xlink" x="0px" y="0px"
	 width="24px" height="24px" viewBox="0 0 24 24" enable-background="new 0 0 24 24" xml:space="preserve">
<rect fill="none" width="24" height="24"/>
<path d="M16.724,12.389V9.038h1.803V8.221h-7.935v0.817h1.912c0.01,0.396,0.015,0.796,0.015,1.203c0,0.693-0.019,1.409-0.054,2.149
	h-2.251v0.801h2.204c-0.138,2.004-1.002,3.751-2.589,5.239L10.444,19c1.709-1.727,2.643-3.662,2.797-5.811h2.666v5.725h0.816v-5.725
	h2.181v-0.801L16.724,12.389L16.724,12.389z M15.907,12.389h-2.62l0.062-3.352h2.559V12.389z M15.529,7.365l0.739,0.301
	c0.55-0.596,1.103-1.384,1.656-2.366L17.154,5C16.554,6.018,16.012,6.805,15.529,7.365z M11.392,5.378
	c0.626,0.667,1.188,1.451,1.686,2.351l0.733-0.331C13.303,6.472,12.732,5.673,12.1,5L11.392,5.378z M9.673,12.42l-0.03-0.855
	c-0.462,0.231-0.948,0.437-1.456,0.617V8.944h1.756V8.144H8.187V5.131H7.385v3.012H5.242v0.802h2.142v3.537
	c-0.694,0.282-1.456,0.512-2.288,0.693l0.238,0.771c0.94-0.273,1.623-0.488,2.05-0.647v4.33c0,0.113-0.048,0.212-0.143,0.296
	c-0.094,0.087-0.199,0.128-0.312,0.128l-1.61,0.016l0.231,0.8c0.179,0.018,0.373,0.024,0.578,0.024c0.791,0,1.331-0.088,1.622-0.263
	c0.291-0.174,0.436-0.487,0.436-0.939v-4.669C8.797,12.795,9.293,12.595,9.673,12.42z M2,2v20h20V2H2z M21,21H3V3h18V21z"/>
</svg>
