<svg version="1.1" id="master" xmlns="http://www.w3.org/2000/svg" xmlns:xlink="http://www.w3.org/1999/xlink" x="0px" y="0px"
	 width="24px" height="24px" viewBox="0 0 24 24" enable-background="new 0 0 24 24" xml:space="preserve">
<rect fill="none" width="24" height="24"/>
<path d="M2,2v20h20V2H2z M18.158,18.189c-0.325,0.405-0.854,0.607-1.586,0.607c-1.076,0-1.771-0.094-2.086-0.284
	c-0.314-0.189-0.453-0.578-0.417-1.165l0.476-8.45h-4.007c-0.166,2.391-0.623,4.365-1.372,5.925C8.418,16.381,7.285,17.773,5.768,19
	l-0.654-0.701c2.733-1.877,4.248-5.01,4.544-9.401H5.362V8.071h4.342C9.793,6.673,9.837,5.649,9.837,5h0.826
	c0,0.993-0.031,2.016-0.094,3.071h4.903l-0.53,9.37c-0.01,0.197,0.059,0.338,0.207,0.42c0.147,0.084,0.669,0.125,1.563,0.125
	c0.302,0,0.521-0.06,0.659-0.18c0.138-0.119,0.27-0.431,0.397-0.935c0.127-0.505,0.212-1.167,0.253-1.987l0.865,0.303
	C18.726,16.783,18.483,17.784,18.158,18.189z"/>
</svg>
