<svg version="1.1" id="master" xmlns="http://www.w3.org/2000/svg" xmlns:xlink="http://www.w3.org/1999/xlink" x="0px" y="0px" width="24px" height="24px" viewBox="0 0 24 24" enable-background="new 0 0 24 24" xml:space="preserve">
<rect fill="none" width="24" height="24"/>
<path d="M2,2v20h20V2H2z M21,21H3V3h18V21z M9.658,8.898H5.362V8.071h4.342C9.793,6.673,9.837,5.649,9.837,5h0.826c0,0.993-0.031,2.016-0.094,3.071h4.904l-0.531,9.371c-0.01,0.197,0.06,0.338,0.207,0.42c0.147,0.084,0.67,0.125,1.563,0.125c0.302,0,0.521-0.061,0.659-0.18c0.138-0.119,0.27-0.432,0.396-0.936c0.127-0.505,0.213-1.167,0.254-1.987l0.864,0.304c-0.159,1.596-0.403,2.597-0.728,3.002c-0.325,0.404-0.854,0.606-1.586,0.606c-1.076,0-1.771-0.094-2.086-0.284c-0.314-0.188-0.453-0.578-0.418-1.164l0.477-8.451h-4.007c-0.166,2.391-0.623,4.365-1.372,5.925C8.418,16.381,7.285,17.773,5.768,19l-0.654-0.701C7.847,16.422,9.362,13.289,9.658,8.898z"/>
</svg>
