<svg version="1.1" id="master" xmlns="http://www.w3.org/2000/svg" xmlns:xlink="http://www.w3.org/1999/xlink" x="0px" y="0px"
	 width="24px" height="24px" viewBox="0 0 24 24" enable-background="new 0 0 24 24" xml:space="preserve">
<rect fill="none" width="24" height="24"/>
<path d="M2,2v20h20V2H2z M10.601,5.738h7.563v0.839h-7.563V5.738z M8.883,5l0.685,0.513C8.614,6.699,7.281,7.804,5.571,8.825
	L5.09,8.172C6.831,7.098,8.095,6.041,8.883,5z M8.386,19H7.562v-7.167c-0.576,0.611-1.265,1.249-2.068,1.912l-0.436-0.653
	c1.98-1.741,3.372-3.366,4.175-4.874l0.7,0.458c-0.436,0.741-0.953,1.469-1.548,2.185V19z M18.942,10.604h-2.511v7.075
	c0,0.347-0.09,0.62-0.269,0.819c-0.18,0.199-0.383,0.321-0.61,0.367c-0.228,0.043-0.687,0.064-1.375,0.064
	c-0.592,0-1.068-0.01-1.431-0.03l-0.335-0.855c0.451,0.021,0.926,0.031,1.424,0.031c0.928,0,1.442-0.021,1.546-0.059
	c0.104-0.038,0.156-0.131,0.156-0.276v-7.135H9.933v-0.84h9.01V10.604z"/>
</svg>
