<svg version="1.1" id="master" xmlns="http://www.w3.org/2000/svg" xmlns:xlink="http://www.w3.org/1999/xlink" x="0px" y="0px" width="24px" height="24px" viewBox="0 0 24 24" enable-background="new 0 0 24 24" xml:space="preserve">
<rect fill="none" width="24" height="24"/>
<path d="M2,2v20h20V2H2z M21,21H3V3h18V21z M18.164,6.578h-7.563V5.738h7.563V6.578z M9.933,9.765h9.01v0.839h-2.511v7.075c0,0.347-0.091,0.62-0.27,0.819c-0.18,0.199-0.384,0.321-0.609,0.367c-0.229,0.043-0.687,0.064-1.375,0.064c-0.592,0-1.068-0.01-1.431-0.03l-0.335-0.855c0.451,0.021,0.926,0.031,1.424,0.031c0.928,0,1.441-0.021,1.546-0.059s0.156-0.131,0.156-0.276v-7.134H9.933V9.765z M5.571,8.825L5.09,8.172C6.831,7.098,8.095,6.041,8.883,5l0.685,0.513C8.614,6.699,7.281,7.804,5.571,8.825z M5.494,13.745l-0.436-0.653c1.98-1.741,3.372-3.366,4.175-4.874l0.7,0.458c-0.436,0.741-0.953,1.469-1.548,2.185V19H7.562v-7.167C6.986,12.444,6.297,13.082,5.494,13.745z"/>
</svg>
