<svg version="1.1" id="master" xmlns="http://www.w3.org/2000/svg" xmlns:xlink="http://www.w3.org/1999/xlink" x="0px" y="0px" width="24px" height="24px" viewBox="0 0 24 24" enable-background="new 0 0 24 24" xml:space="preserve">
<rect fill="none" width="24" height="24"/>
<path d="M17.368,11.667h-2.607V9.688h2.607V11.667z M13.934,9.688h-2.677v1.979h2.677V9.688z M22,2v20H2V2H22z M13.493,12.471c-0.908,1.219-2.228,2.326-3.961,3.326l0.534,0.666c1.604-0.953,2.894-2.047,3.867-3.279v3.99h0.827v-3.527c0.98,0.51,2.166,1.449,3.56,2.816l0.51-0.666c-1.259-1.236-2.615-2.244-4.069-3.023v-0.303h3.436V8.875h-3.436V7.437h4.007V6.625h-4.007V5.031h-0.827v1.594H9.927v0.812h4.007v1.438H10.43v3.596H13.493z M5.588,5.681C6.635,6.552,7.39,7.323,7.854,7.993l0.58-0.603c-0.51-0.712-1.271-1.493-2.281-2.345L5.588,5.681z M19,17.746h-6.258c-2.146,0-3.748-0.539-4.811-1.615c0.449-0.795,0.792-1.738,1.029-2.832v-0.781H6.485L8.976,9.27V8.496H5.178V9.27h2.846c-0.216,0.336-1.062,1.418-2.537,3.248v0.781h2.646C7.756,15.244,6.712,16.947,5,18.412l0.65,0.557c0.691-0.635,1.32-1.354,1.887-2.158c1.134,1.15,3.009,1.725,5.623,1.725h5.624L19,17.746z"/>
</svg>
