<svg version="1.1" id="master" xmlns="http://www.w3.org/2000/svg" xmlns:xlink="http://www.w3.org/1999/xlink" x="0px" y="0px"
	 width="24px" height="24px" viewBox="0 0 24 24" enable-background="new 0 0 24 24" xml:space="preserve">
<rect fill="none" width="24" height="24"/>
<path d="M5.588,5.681C6.635,6.552,7.39,7.323,7.854,7.993l0.58-0.603c-0.51-0.712-1.271-1.493-2.281-2.345L5.588,5.681z
	 M14.761,12.773v-0.302h3.437V8.875h-3.437V7.437h4.007V6.625h-4.007V5.031h-0.827v1.594H9.927v0.812h4.007v1.438H10.43v3.596h3.063
	c-0.908,1.218-2.228,2.326-3.961,3.326l0.534,0.666c1.604-0.953,2.894-2.047,3.868-3.279v3.99h0.826v-3.527
	c0.98,0.511,2.166,1.449,3.561,2.816l0.51-0.666C17.57,14.561,16.215,13.553,14.761,12.773z M14.761,9.688h2.607v1.979h-2.607V9.688
	z M13.934,11.667h-2.677V9.688h2.677V11.667z M19,17.746h-6.258c-2.146,0-3.748-0.539-4.811-1.615
	c0.449-0.795,0.792-1.738,1.029-2.832v-0.781H6.485L8.976,9.27V8.496H5.178V9.27h2.846c-0.216,0.336-1.062,1.418-2.537,3.248v0.781
	h2.646C7.756,15.244,6.712,16.947,5,18.412l0.65,0.557c0.691-0.635,1.32-1.354,1.887-2.158c1.134,1.15,3.009,1.726,5.623,1.726
	h5.624L19,17.746z M2,2v20h20V2H2z M21,21H3V3h18V21z"/>
</svg>
